<svg width="23" height="20" viewBox="0 0 23 20" fill="none" xmlns="http://www.w3.org/2000/svg">
<g clip-path="url(#clip0_1425_105)">
<path d="M0 2.5C0 1.12109 1.14601 0 2.55556 0H8.94444V5C8.94444 5.69141 9.51545 6.25 10.2222 6.25H15.3333V11.1602L11.8674 14.5508C11.4561 14.9531 11.1686 15.4531 11.0288 16.0039L10.2821 18.9297C10.1903 19.2891 10.2102 19.6641 10.334 20.0039L2.55556 20C1.14601 20 0 18.8789 0 17.5V2.5ZM15.3333 5H10.2222V0L15.3333 5ZM21.9538 9.20703L22.5288 9.76953C23.1517 10.3789 23.1517 11.3672 22.5288 11.9805L21.3549 13.1289L18.5198 10.3555L19.6938 9.20703C20.3167 8.59766 21.3269 8.59766 21.9538 9.20703ZM12.4543 16.2891L17.6134 11.2422L20.4484 14.0156L15.2894 19.0586C15.1257 19.2188 14.922 19.332 14.6944 19.3867L12.2946 19.9727C12.075 20.0273 11.8474 19.9648 11.6877 19.8086C11.528 19.6523 11.4641 19.4297 11.52 19.2148L12.1189 16.8672C12.1748 16.6484 12.2906 16.4453 12.4543 16.2852V16.2891Z" fill="black"/>
</g>
<defs>
<clipPath id="clip0_1425_105">
<rect width="23" height="20" fill="white"/>
</clipPath>
</defs>
</svg>
