<svg width="2054" height="705" viewBox="0 0 2054 705" fill="none" xmlns="http://www.w3.org/2000/svg">
<path d="M1854.4 116.711C1836.44 147.444 1851.95 172.109 1858.04 181.036C1869.68 120.257 1922.05 93.1673 1922.05 93.1673C1922.05 93.1673 1863.27 159.784 1869.79 222.782C1870.31 227.755 1882.77 227.534 1882.35 221.543C1881.14 203.682 1884.43 187.9 1884.43 187.9C1900.66 185.365 1927.17 178.139 1937.19 156.989C1950.49 128.894 1929.22 95.4126 1951.19 60.7645C1956.32 52.6731 1878.74 75.0445 1854.4 116.711Z" fill="#C1DFF4"/>
<path d="M1566.32 392.056C1553.71 412.226 1563.61 427.81 1567.5 433.44C1576.48 394.032 1612.05 375.513 1612.05 375.513C1612.05 375.513 1571.42 419.637 1574.55 460.108C1574.8 463.303 1583.14 462.909 1582.98 459.055C1582.52 447.568 1585.03 437.33 1585.03 437.33C1595.94 435.368 1613.82 430.174 1620.93 416.34C1630.38 397.963 1616.8 376.815 1632.18 354.039C1635.77 348.72 1583.42 364.709 1566.32 392.056Z" fill="#5A789F"/>
<path d="M1661.36 312.875C1696.49 313.117 1709.63 287.021 1714.15 277.158C1656.69 297.653 1607.36 265.322 1607.36 265.322C1607.36 265.322 1693.48 283.305 1743.69 245.725C1747.65 242.759 1741.2 231.923 1736.32 235.313C1721.77 245.409 1706.71 250.491 1706.71 250.491C1696.4 237.513 1676.93 217.865 1653.94 219.757C1623.4 222.272 1605.66 257.891 1565.2 256.094C1555.75 255.673 1613.75 312.548 1661.36 312.875Z" fill="#5A789F"/>
<path d="M294.14 629.834C337.755 630.135 354.08 597.728 359.693 585.48C288.338 610.931 227.076 570.782 227.076 570.782C227.076 570.782 334.019 593.114 396.371 546.446C401.294 542.762 393.284 529.306 387.223 533.516C369.149 546.054 350.451 552.365 350.451 552.365C337.646 536.248 313.473 511.849 284.92 514.199C246.993 517.322 224.971 561.554 174.717 559.323C162.98 558.8 235.009 629.428 294.14 629.834Z" fill="#013A63"/>
<path d="M823.554 347.908C858.676 348.151 871.822 322.054 876.342 312.191C818.882 332.686 769.55 300.355 769.55 300.355C769.55 300.355 855.667 318.339 905.878 280.758C909.842 277.792 903.391 266.956 898.511 270.346C883.956 280.442 868.899 285.525 868.899 285.525C858.588 272.547 839.122 252.899 816.13 254.791C785.588 257.305 767.854 292.924 727.387 291.128C717.935 290.706 775.938 347.581 823.554 347.908Z" fill="#013A63"/>
<g clip-path="url(#clip0_1538_122)">
<path d="M1730.89 65.543C1713.23 76.0321 1714.25 93.117 1714.86 99.4385C1737.66 71.7803 1771.78 73.1216 1771.78 73.1216C1771.78 73.1216 1723.42 90.1034 1709.22 124.157C1708.09 126.845 1714.48 130.341 1715.94 127.163C1720.28 117.693 1726.34 110.59 1726.34 110.59C1735.29 113.996 1750.75 117.988 1761.72 110.09C1776.28 99.5993 1774.79 76.3433 1795.58 65.0199C1800.43 62.3761 1754.83 51.3214 1730.89 65.543Z" fill="#5A789F"/>
</g>
<g clip-path="url(#clip1_1538_122)">
<path d="M1309.92 386.461C1292.27 397.078 1293.28 414.371 1293.89 420.77C1316.69 392.774 1350.81 394.132 1350.81 394.132C1350.81 394.132 1302.45 411.321 1288.25 445.789C1287.13 448.51 1293.51 452.049 1294.97 448.832C1299.32 439.246 1305.38 432.057 1305.38 432.057C1314.32 435.505 1329.78 439.545 1340.75 431.551C1355.31 420.932 1353.82 397.393 1374.61 385.931C1379.46 383.255 1333.86 372.066 1309.92 386.461Z" fill="#013A63"/>
</g>
<g clip-path="url(#clip2_1538_122)">
<path d="M2048.82 2.22907C2047.97 -0.0740401 2045.56 -0.166165 2044.55 2.00797C2039.88 11.939 2031.51 18.1298 2021.95 18.1298H2009.89C1993.9 18.1298 1980.94 33.9752 1980.94 53.5056C1980.94 54.7953 1981.06 56.0298 1981.16 57.2827C1990.78 48.8625 2004.67 41.7136 2024.36 41.7136C2025.69 41.7136 2026.77 43.0402 2026.77 44.6616C2026.77 46.283 2025.69 47.6096 2024.36 47.6096C1986.45 47.6096 1970.38 76.0024 1966.82 86.6704C1965.83 89.6737 1967 93.1007 1969.46 94.3352C1971.93 95.5881 1974.74 94.1325 1975.76 91.1476C1975.99 90.4844 1978.92 82.3221 1986.61 74.4547C1991.49 82.5432 2000.78 90.2633 2012.98 88.6787C2036.65 86.5783 2053.31 60.636 2053.31 28.8715C2053.31 19.6222 2051.68 10.0412 2048.82 2.22907Z" fill="#5A789F"/>
</g>
<g clip-path="url(#clip3_1538_122)">
<path d="M1563.8 329C1566.12 327.01 1565.23 323.726 1562.3 323.17C1548.9 320.55 1538.3 311.568 1534.37 298.69L1529.4 282.44C1522.81 260.908 1499.17 249.306 1476.61 256.536C1475.12 257.014 1473.74 257.633 1472.34 258.239C1486.03 268.082 1500.01 284.143 1508.12 310.671C1508.66 312.459 1507.58 314.412 1505.71 315.013C1503.83 315.613 1501.85 314.642 1501.31 312.854C1485.69 261.788 1446.27 250.646 1432.48 249.802C1428.6 249.573 1425.13 252.426 1424.72 256.194C1424.29 259.99 1427.12 263.229 1430.99 263.505C1431.85 263.564 1442.49 264.483 1454.74 271.93C1447.41 281.506 1442.32 296.876 1449.18 312.723C1461.36 343.836 1498.19 356.677 1534.88 344.917C1545.56 341.493 1555.96 335.752 1563.8 329Z" fill="#013A63"/>
</g>
<g clip-path="url(#clip4_1538_122)">
<path d="M1793.87 129.886C1781.65 150.86 1771.98 140.545 1757.84 155.63C1745.37 168.943 1749.69 184.974 1760.2 190.496C1770.57 184.993 1781.18 172.691 1789.05 154.88C1789.05 154.88 1796.12 177.37 1774.46 199.04C1784.98 211.832 1802.83 202.932 1807.82 182.581C1813.24 160.457 1799.1 137.931 1793.87 129.886ZM1748.94 202.53C1748.95 202.748 1749.19 206.872 1754.4 206.872C1758.19 206.872 1777.41 195.995 1787.29 167.762C1772.34 195.22 1750.64 202.033 1748.94 202.53Z" fill="#61A5C2"/>
</g>
<g clip-path="url(#clip5_1538_122)">
<path d="M1730.64 321.4C1718.6 342.375 1709.07 332.06 1695.13 347.145C1682.83 360.457 1687.09 376.489 1697.45 382.01C1707.67 376.508 1718.13 364.205 1725.89 346.395C1725.89 346.395 1732.86 368.885 1711.51 390.555C1721.87 403.347 1739.47 394.447 1744.39 374.096C1749.73 351.972 1735.8 329.446 1730.64 321.4ZM1686.35 394.044C1686.36 394.263 1686.6 398.387 1691.73 398.387C1695.47 398.387 1714.42 387.51 1724.15 359.277C1709.42 386.734 1688.03 393.548 1686.35 394.044Z" fill="#5A789F"/>
</g>
<g clip-path="url(#clip6_1538_122)">
<path d="M1997.22 154.442C1990.06 164.782 1984.4 159.697 1976.11 167.133C1968.81 173.696 1971.34 181.599 1977.49 184.32C1983.57 181.608 1989.78 175.543 1994.39 166.764C1994.39 166.764 1998.53 177.85 1985.85 188.533C1992.01 194.838 2002.46 190.451 2005.38 180.419C2008.56 169.513 2000.28 158.408 1997.22 154.442ZM1970.9 190.253C1970.91 190.361 1971.05 192.393 1974.1 192.393C1976.32 192.393 1987.57 187.031 1993.36 173.114C1984.61 186.649 1971.9 190.008 1970.9 190.253Z" fill="#013A63"/>
</g>
<g clip-path="url(#clip7_1538_122)">
<path d="M1226.88 305.135C1219.72 315.474 1214.06 310.389 1205.78 317.826C1198.47 324.388 1201.01 332.291 1207.16 335.013C1213.23 332.3 1219.45 326.236 1224.06 317.456C1224.06 317.456 1228.2 328.543 1215.51 339.225C1221.67 345.531 1232.13 341.144 1235.05 331.111C1238.23 320.205 1229.95 309.101 1226.88 305.135ZM1200.57 340.945C1200.57 341.053 1200.71 343.086 1203.76 343.086C1205.98 343.086 1217.24 337.724 1223.03 323.806C1214.27 337.342 1201.56 340.7 1200.57 340.945Z" fill="#5A789F"/>
</g>
<g clip-path="url(#clip8_1538_122)">
<path d="M1226.89 505.54C1241.34 520.344 1257.58 515.102 1263.53 512.932C1231.25 497.315 1224.17 463.347 1224.17 463.347C1224.17 463.347 1252.42 506.808 1288.76 512.353C1291.63 512.791 1293.44 505.628 1290.01 504.981C1279.81 503.045 1271.47 498.834 1271.47 498.834C1272.56 489.173 1272.62 472.932 1262.31 464.084C1248.61 452.333 1226.54 459.577 1210.51 441.894C1206.77 437.764 1207.3 485.47 1226.89 505.54Z" fill="#013A63"/>
</g>
<g clip-path="url(#clip9_1538_122)">
<path d="M796.592 246.105C803.156 235.628 808.978 240.327 816.789 232.637C823.681 225.851 820.809 218.237 814.615 215.876C808.756 218.831 802.919 225.076 798.792 233.901C798.792 233.901 794.184 223.25 806.182 212.163C799.811 206.293 789.713 211.105 787.309 221.072C784.695 231.908 793.384 242.373 796.592 246.105ZM820.832 209.741C820.822 209.636 820.587 207.652 817.58 207.803C815.392 207.913 804.549 213.719 799.506 227.632C807.493 213.946 819.861 210.03 820.832 209.741Z" fill="#5A789F"/>
</g>
<g clip-path="url(#clip10_1538_122)">
<path d="M1780.81 270.105C1787.38 259.628 1793.2 264.327 1801.01 256.637C1807.9 249.851 1805.03 242.237 1798.84 239.876C1792.98 242.831 1787.14 249.076 1783.01 257.901C1783.01 257.901 1778.4 247.25 1790.4 236.163C1784.03 230.293 1773.93 235.105 1771.53 245.072C1768.92 255.908 1777.6 266.373 1780.81 270.105ZM1805.05 233.741C1805.04 233.636 1804.81 231.652 1801.8 231.803C1799.61 231.913 1788.77 237.719 1783.73 251.632C1791.71 237.946 1804.08 234.03 1805.05 233.741Z" fill="#5A789F"/>
</g>
<g clip-path="url(#clip11_1538_122)">
<path d="M314.769 471.958C316.829 470.197 316.038 467.291 313.431 466.799C301.498 464.48 292.058 456.533 288.55 445.138L284.124 430.759C278.26 411.707 257.199 401.44 237.105 407.838C235.778 408.261 234.552 408.809 233.302 409.345C245.495 418.054 257.946 432.266 265.171 455.739C265.658 457.321 264.691 459.049 263.023 459.581C261.355 460.112 259.592 459.252 259.105 457.671C245.196 412.485 210.086 402.626 197.805 401.879C194.35 401.677 191.255 404.202 190.887 407.536C190.505 410.894 193.032 413.76 196.479 414.004C197.245 414.057 206.716 414.87 217.632 421.459C211.102 429.932 206.568 443.533 212.674 457.554C223.521 485.085 256.325 496.447 289.006 486.041C298.523 483.011 307.782 477.932 314.769 471.958Z" fill="#C1DFF4"/>
</g>
<g clip-path="url(#clip12_1538_122)">
<path d="M315.767 343.166C299.975 352.486 300.882 367.666 301.425 373.282C321.823 348.708 352.333 349.9 352.333 349.9C352.333 349.9 309.084 364.988 296.381 395.244C295.378 397.633 301.088 400.739 302.391 397.915C306.281 389.501 311.701 383.19 311.701 383.19C319.697 386.216 333.53 389.763 343.335 382.746C356.358 373.425 355.027 352.762 373.618 342.701C377.961 340.352 337.177 330.53 315.767 343.166Z" fill="#5A789F"/>
</g>
<path d="M546.473 409.442C534.518 430.006 525.058 419.893 511.223 434.682C499.015 447.733 503.248 463.45 513.527 468.863C523.674 463.469 534.055 451.408 541.754 433.946C541.754 433.946 548.673 455.995 527.48 477.24C537.771 489.781 555.238 481.056 560.119 461.104C565.425 439.414 551.591 417.33 546.473 409.442ZM502.514 480.661C502.522 480.875 502.756 484.918 507.853 484.918C511.561 484.918 530.368 474.255 540.034 446.576C525.409 473.494 504.179 480.174 502.514 480.661Z" fill="#5A789F"/>
<g clip-path="url(#clip13_1538_122)">
<path d="M693.141 312.093C692.827 309.703 690.526 309.072 689.085 310.921C682.442 319.357 673.056 323.388 663.862 321.236L652.262 318.52C636.891 314.922 620.994 327.141 616.772 345.801C616.493 347.033 616.342 348.24 616.172 349.46C627.245 343.581 642.145 339.878 661.083 344.311C662.359 344.61 663.117 346.122 662.766 347.671C662.416 349.22 661.085 350.243 659.809 349.944C623.354 341.41 601.757 364.918 596.028 374.309C594.422 376.954 594.812 380.493 596.909 382.226C599.016 383.98 602.028 383.221 603.659 380.6C604.02 380.017 608.598 372.877 617.694 367.092C620.644 375.919 627.907 385.386 639.981 386.618C663.201 389.941 684.833 368.907 691.701 338.559C693.701 329.722 694.207 320.202 693.141 312.093Z" fill="#61A5C2"/>
</g>
<g clip-path="url(#clip14_1538_122)">
<path d="M170.749 446.795C170.21 442.688 166.258 441.604 163.782 444.781C152.37 459.273 136.245 466.198 120.452 462.501L100.523 457.835C74.1171 451.654 46.808 472.646 39.5536 504.701C39.0745 506.818 38.8153 508.891 38.5243 510.988C57.5451 500.888 83.1436 494.526 115.677 502.142C117.87 502.655 119.17 505.252 118.568 507.913C117.966 510.574 115.68 512.332 113.487 511.819C50.861 497.158 13.7597 537.543 3.91812 553.676C1.15846 558.22 1.82858 564.3 5.43055 567.277C9.05058 570.289 14.2247 568.985 17.0273 564.483C17.6474 563.481 25.5119 551.216 41.1388 541.277C46.2056 556.442 58.6832 572.705 79.4248 574.822C119.315 580.53 156.478 544.395 168.277 492.26C171.712 477.08 172.581 460.725 170.749 446.795Z" fill="#61A5C2"/>
</g>
<path d="M1352.14 495.442C1340.01 516.006 1330.42 505.893 1316.38 520.682C1304 533.733 1308.29 549.45 1318.72 554.863C1329.01 549.469 1339.54 537.408 1347.36 519.946C1347.36 519.946 1354.37 541.995 1332.87 563.24C1343.31 575.781 1361.03 567.056 1365.99 547.104C1371.37 525.414 1357.33 503.33 1352.14 495.442ZM1307.55 566.661C1307.55 566.875 1307.79 570.918 1312.96 570.918C1316.72 570.918 1335.8 560.255 1345.61 532.576C1330.77 559.494 1309.24 566.174 1307.55 566.661Z" fill="#61A5C2"/>
<path d="M1422.71 403.442C1410.76 423.716 1401.3 413.746 1387.46 428.326C1375.25 441.194 1379.49 456.689 1389.77 462.026C1399.91 456.708 1410.29 444.817 1417.99 427.601C1417.99 427.601 1424.91 449.34 1403.72 470.285C1414.01 482.649 1431.48 474.047 1436.36 454.376C1441.66 432.992 1427.83 411.219 1422.71 403.442ZM1378.75 473.658C1378.76 473.869 1379 477.855 1384.09 477.855C1387.8 477.855 1406.61 467.342 1416.27 440.053C1401.65 466.592 1380.42 473.178 1378.75 473.658Z" fill="#5A789F"/>
<path d="M688.331 232.5C670.804 242.909 671.81 259.863 672.413 266.136C695.052 238.69 728.914 240.021 728.914 240.021C728.914 240.021 680.913 256.872 666.815 290.665C665.702 293.332 672.039 296.802 673.485 293.648C677.802 284.25 683.818 277.202 683.818 277.202C692.693 280.582 708.045 284.543 718.927 276.706C733.381 266.295 731.904 243.218 752.537 231.981C757.357 229.358 712.093 218.388 688.331 232.5Z" fill="#5A789F"/>
<g clip-path="url(#clip15_1538_122)">
<path d="M1016.34 444.862C1018.62 442.911 1017.75 439.692 1014.86 439.147C1001.64 436.578 991.176 427.772 987.29 415.147L982.386 399.215C975.888 378.106 952.554 366.732 930.29 373.82C928.82 374.288 927.462 374.896 926.076 375.49C939.586 385.139 953.381 400.885 961.386 426.893C961.926 428.645 960.855 430.561 959.007 431.149C957.158 431.738 955.205 430.785 954.665 429.033C939.255 378.969 900.354 368.046 886.747 367.218C882.919 366.994 879.49 369.791 879.082 373.485C878.659 377.206 881.459 380.381 885.278 380.652C886.126 380.71 896.62 381.611 908.714 388.912C901.48 398.3 896.455 413.369 903.221 428.904C915.239 459.407 951.585 471.996 987.795 460.467C998.339 457.11 1008.6 451.482 1016.34 444.862Z" fill="#C1DFF4"/>
</g>
<g clip-path="url(#clip16_1538_122)">
<path d="M183.43 668.714C185.49 666.953 184.699 664.047 182.092 663.555C170.159 661.237 160.719 653.29 157.211 641.894L152.785 627.516C146.921 608.464 125.86 598.197 105.766 604.595C104.439 605.018 103.214 605.566 101.963 606.102C114.156 614.811 126.607 629.023 133.832 652.496C134.319 654.078 133.353 655.806 131.684 656.337C130.016 656.869 128.253 656.009 127.766 654.427C113.857 609.242 78.7476 599.383 66.466 598.636C63.011 598.434 59.9166 600.958 59.5483 604.292C59.1666 607.651 61.6932 610.517 65.1404 610.761C65.9058 610.814 75.3769 611.627 86.2929 618.216C79.7635 626.689 75.2288 640.29 81.3348 654.311C92.182 681.842 124.986 693.204 157.667 682.798C167.184 679.768 176.444 674.689 183.43 668.714Z" fill="#5A789F"/>
</g>
<g clip-path="url(#clip17_1538_122)">
<path d="M363.152 407.442C356.67 416.706 351.541 412.15 344.04 418.812C337.421 424.691 339.716 431.772 345.29 434.21C350.791 431.78 356.419 426.347 360.593 418.481C360.593 418.481 364.344 428.413 352.854 437.983C358.434 443.633 367.904 439.702 370.55 430.715C373.426 420.944 365.926 410.995 363.152 407.442ZM339.318 439.525C339.323 439.621 339.45 441.442 342.213 441.442C344.223 441.442 354.42 436.639 359.66 424.17C351.732 436.296 340.221 439.305 339.318 439.525Z" fill="#5A789F"/>
</g>
<g clip-path="url(#clip18_1538_122)">
<path d="M1006.69 282.442C999.63 292.579 994.042 287.594 985.869 294.884C978.657 301.318 981.157 309.066 987.23 311.734C993.224 309.075 999.357 303.129 1003.91 294.522C1003.91 294.522 1007.99 305.391 995.473 315.864C1001.55 322.046 1011.87 317.745 1014.75 307.909C1017.89 297.217 1009.72 286.331 1006.69 282.442ZM980.724 317.55C980.728 317.656 980.867 319.649 983.878 319.649C986.068 319.649 997.179 314.392 1002.89 300.748C994.249 314.017 981.708 317.31 980.724 317.55Z" fill="#5A789F"/>
</g>
<g clip-path="url(#clip19_1538_122)">
<path d="M570.135 302.442C563.073 312.579 557.484 307.594 549.311 314.884C542.099 321.318 544.6 329.066 550.672 331.734C556.667 329.075 562.799 323.129 567.347 314.522C567.347 314.522 571.435 325.391 558.915 335.864C564.995 342.046 575.313 337.745 578.196 327.909C581.331 317.217 573.158 306.331 570.135 302.442ZM544.166 337.55C544.171 337.656 544.309 339.649 547.32 339.649C549.511 339.649 560.621 334.392 566.331 320.748C557.692 334.017 545.15 337.31 544.166 337.55Z" fill="#5A789F"/>
</g>
<path d="M1156.68 412.442C1144.72 433.006 1135.26 422.893 1121.43 437.682C1109.22 450.733 1113.45 466.45 1123.73 471.863C1133.88 466.469 1144.26 454.408 1151.96 436.946C1151.96 436.946 1158.88 458.995 1137.68 480.24C1147.97 492.781 1165.44 484.056 1170.32 464.104C1175.63 442.414 1161.79 420.33 1156.68 412.442ZM1112.72 483.661C1112.72 483.875 1112.96 487.918 1118.05 487.918C1121.76 487.918 1140.57 477.255 1150.24 449.576C1135.61 476.494 1114.38 483.174 1112.72 483.661Z" fill="#5A789F"/>
<path d="M1053.69 319.901C1034.72 352.23 1051.17 378.219 1057.63 387.626C1069.88 323.655 1125.3 295.209 1125.3 295.209C1125.3 295.209 1063.14 365.259 1070.14 431.59C1070.69 436.827 1083.88 436.612 1083.43 430.303C1082.12 411.499 1085.59 394.889 1085.59 394.889C1102.77 392.242 1130.84 384.672 1141.41 362.42C1155.46 332.861 1132.89 297.583 1156.11 261.137C1161.53 252.626 1079.41 276.07 1053.69 319.901Z" fill="#5A789F"/>
<path d="M406.548 368.199C389.426 397.378 404.277 420.833 410.106 429.324C421.157 371.587 471.177 345.913 471.177 345.913C471.177 345.913 415.078 409.137 421.392 469.004C421.889 473.731 433.795 473.536 433.394 467.843C432.212 450.871 435.341 435.879 435.341 435.879C450.846 433.49 476.177 426.658 485.721 406.574C498.397 379.895 478.027 348.056 498.986 315.161C503.883 307.479 429.759 328.639 406.548 368.199Z" fill="#5A789F"/>
<defs>
<clipPath id="clip0_1538_122">
<rect width="86.8508" height="88.9139" fill="white" transform="translate(1709.08 48.9717)"/>
</clipPath>
<clipPath id="clip1_1538_122">
<rect width="86.8508" height="89.9982" fill="white" transform="translate(1288.12 369.688)"/>
</clipPath>
<clipPath id="clip2_1538_122">
<rect width="86.8508" height="94.3355" fill="white" transform="translate(1966.46 0.442383)"/>
</clipPath>
<clipPath id="clip3_1538_122">
<rect width="122.349" height="114.431" fill="white" transform="matrix(0.292431 0.956287 -0.952286 0.305207 1531.94 217.391)"/>
</clipPath>
<clipPath id="clip4_1538_122">
<rect width="74.141" height="76.9864" fill="white" transform="translate(1741.92 129.886)"/>
</clipPath>
<clipPath id="clip5_1538_122">
<rect width="73.0818" height="76.9864" fill="white" transform="translate(1679.43 321.4)"/>
</clipPath>
<clipPath id="clip6_1538_122">
<rect width="43.4254" height="37.9511" fill="white" transform="translate(1966.79 154.442)"/>
</clipPath>
<clipPath id="clip7_1538_122">
<rect width="43.4254" height="37.9511" fill="white" transform="translate(1196.45 305.135)"/>
</clipPath>
<clipPath id="clip8_1538_122">
<rect width="88.243" height="88.5812" fill="white" transform="matrix(-0.241512 -0.970398 0.968424 -0.249309 1216.25 531.157)"/>
</clipPath>
<clipPath id="clip9_1538_122">
<rect width="42.8559" height="37.2049" fill="white" transform="matrix(-0.998749 0.0500102 -0.0483516 -0.99883 826.584 244.604)"/>
</clipPath>
<clipPath id="clip10_1538_122">
<rect width="42.8559" height="37.2049" fill="white" transform="matrix(-0.998749 0.0500102 -0.0483516 -0.99883 1810.8 268.604)"/>
</clipPath>
<clipPath id="clip11_1538_122">
<rect width="108.321" height="101.859" fill="white" transform="matrix(0.294193 0.955746 -0.952866 0.303392 286.389 373.2)"/>
</clipPath>
<clipPath id="clip12_1538_122">
<rect width="77.6758" height="79" fill="white" transform="translate(296.264 328.442)"/>
</clipPath>
<clipPath id="clip13_1538_122">
<rect width="85.7823" height="92.4072" fill="white" transform="matrix(0.973678 0.22793 -0.220728 0.975335 614.324 291.845)"/>
</clipPath>
<clipPath id="clip14_1538_122">
<rect width="147.367" height="158.748" fill="white" transform="matrix(0.973678 0.22793 -0.220728 0.975335 35.3486 412.01)"/>
</clipPath>
<clipPath id="clip15_1538_122">
<rect width="120.017" height="112.856" fill="white" transform="matrix(0.294193 0.955746 -0.952866 0.303392 984.895 335.442)"/>
</clipPath>
<clipPath id="clip16_1538_122">
<rect width="108.321" height="101.859" fill="white" transform="matrix(0.294193 0.955746 -0.952866 0.303392 155.05 569.957)"/>
</clipPath>
<clipPath id="clip17_1538_122">
<rect width="39.3295" height="34" fill="white" transform="translate(335.593 407.442)"/>
</clipPath>
<clipPath id="clip18_1538_122">
<rect width="42.8541" height="37.2064" fill="white" transform="translate(976.664 282.442)"/>
</clipPath>
<clipPath id="clip19_1538_122">
<rect width="42.8541" height="37.2064" fill="white" transform="translate(540.106 302.442)"/>
</clipPath>
</defs>
</svg>
