<svg width="1143" height="655" viewBox="0 0 1143 655" fill="none" xmlns="http://www.w3.org/2000/svg">
<path d="M1003.14 369.505C996.973 515.27 884.043 630.019 746.948 630.019H172.397C91.0792 630.019 35.2115 542.693 65.3144 462.301C105.443 352.461 236.201 433.74 176.291 341.369C118.219 251.812 83.6435 142.525 133.2 89.8838C247.917 -31.9672 383.335 129.64 457.77 106.227C481.51 98.245 575.778 35.1472 612.436 23.8426C846.035 -65.7205 1023.18 146.24 1003.14 369.505Z" fill="#E3F0FF"/>
<path d="M104.202 334.004C110.552 320.708 54.3824 252.938 28.5854 270.213C2.7885 287.488 0.108548 322.546 38.5726 335.271C74.9287 347.295 97.8593 347.301 104.202 334.004Z" fill="#E3F0FF"/>
<path d="M229.948 49.5887L222.075 1.64516C221.895 0.578323 220.886 -0.147897 219.813 0.0256238C218.746 0.205574 218.02 1.21457 218.194 2.28141L225.886 49.1131L192.673 76.7674C191.838 77.4614 191.722 78.7018 192.416 79.5373C192.808 80 193.367 80.2442 193.933 80.2442C194.376 80.2442 194.82 80.0964 195.186 79.7879L229.26 51.4139C229.8 50.9704 230.057 50.2699 229.948 49.5887Z" fill="#C7DEFF"/>
<path d="M282.3 73.9406L236.561 57.5267C235.906 57.2953 235.173 57.4238 234.64 57.8673L200.565 86.2413C199.73 86.9354 199.614 88.1758 200.308 89.0113C200.7 89.474 201.259 89.7182 201.818 89.7182C202.262 89.7182 202.712 89.5704 203.078 89.2619L236.291 61.6076L280.97 77.6424C281.992 78.0087 283.117 77.4753 283.483 76.4534C283.849 75.4316 283.322 74.3069 282.3 73.9406Z" fill="#C7DEFF"/>
<path d="M215.225 46.4461C215.385 47.4101 216.214 48.0914 217.159 48.0914C217.268 48.0914 217.371 48.085 217.48 48.0657C218.554 47.8922 219.28 46.8832 219.1 45.8099L213.078 9.13247C212.904 8.06563 211.889 7.33941 210.822 7.51293C209.749 7.69288 209.023 8.70188 209.203 9.76872L215.225 46.4461Z" fill="#C7DEFF"/>
<path d="M273.303 81.4264L238.31 68.8685C237.288 68.5022 236.17 69.0356 235.797 70.0575C235.43 71.0793 235.964 72.204 236.986 72.5703L271.979 85.1282C272.198 85.2053 272.423 85.2439 272.641 85.2439C273.445 85.2439 274.203 84.7426 274.492 83.9392C274.858 82.9174 274.325 81.7927 273.303 81.4264Z" fill="#C7DEFF"/>
<path d="M670.335 350.431L622.77 340.495C621.703 340.27 620.662 340.951 620.444 342.018C620.219 343.079 620.9 344.12 621.961 344.338L668.432 354.049L682.256 394.994C682.603 396.022 683.722 396.575 684.75 396.228C685.322 396.029 685.752 395.598 685.952 395.071C686.112 394.66 686.132 394.191 685.984 393.734L671.793 351.729C671.569 351.067 671.016 350.579 670.335 350.431Z" fill="#C7DEFF"/>
<path d="M711.928 310.393L680.128 347.128C679.672 347.655 679.531 348.381 679.749 349.043L693.939 391.048C694.287 392.077 695.405 392.629 696.433 392.282C697.005 392.089 697.436 391.652 697.635 391.125C697.796 390.714 697.815 390.245 697.667 389.789L683.837 348.85L714.897 312.963C715.61 312.141 715.52 310.907 714.698 310.193C713.882 309.487 712.641 309.577 711.928 310.393Z" fill="#C7DEFF"/>
<path d="M715.675 321.479L691.343 349.583C690.63 350.406 690.72 351.646 691.543 352.353C692.365 353.066 693.606 352.976 694.312 352.154L718.644 324.05C718.798 323.876 718.914 323.677 718.991 323.471C719.28 322.719 719.088 321.839 718.445 321.28C717.622 320.573 716.382 320.656 715.675 321.479Z" fill="#C7DEFF"/>
<path d="M418.406 518.902C418.406 518.902 192.738 -82.5445 31.0345 72.1343C0.0897026 111.119 36.3622 177.726 102.995 254.969C169.627 332.205 363.438 532.996 390.9 564.853L418.406 518.902Z" fill="#5A789F"/>
<path d="M418.406 518.902C418.406 518.902 278.746 146.697 140.436 63.207C143.496 71.1762 145.372 79.7816 142.422 85.2443C135.661 97.7636 105.173 103.503 96.4582 124.274C89.0032 142.057 100.848 210.701 74.0996 219.57C82.8914 231.067 92.5701 242.886 102.994 254.968C169.627 332.205 363.438 532.995 390.899 564.853L418.406 518.902Z" fill="#5A789F"/>
<path d="M57.0498 76.999C72.7503 89.6404 87.7825 103.117 102.545 116.838C188.618 197.732 264.878 289.576 326.176 390.643C337.963 410.2 349.46 430.72 359.878 451.048C364.261 459.519 369.152 469.57 373.265 478.182C375.925 483.889 379.692 492.07 382.217 497.841L383.959 501.787L385.649 505.766L387.339 509.737L389.017 513.715C368.895 472.295 346.504 432.083 321.947 393.253C297.423 354.396 270.912 316.839 242.828 280.483C200.668 225.964 155.077 174.062 106.677 124.968C90.5331 108.638 74.0421 92.4425 57.0498 76.999Z" fill="#5AA5D1"/>
<path d="M80.668 362.668C80.668 362.668 37.1461 344.911 7.67947 379.712C-17.1663 409.063 22.7181 488.742 63.907 527.309C63.907 527.309 23.5021 552.617 22.1332 581.775C20.7643 610.927 68.3158 641.698 135.623 650.4L142.423 403.151L80.668 362.668Z" fill="#5A789F"/>
<path d="M75.7131 361.041C79.7812 384.749 82.7439 421.555 89.0229 461.594C98.8879 524.512 121.478 615.842 44.5498 617.911C64.6334 633.046 96.8442 645.386 135.623 650.399L142.423 403.149L80.6681 362.667C80.6681 362.667 78.8493 361.921 75.7131 361.041Z" fill="#5A789F"/>
<path d="M28.3865 384.531C60.7323 417.578 91.9212 451.935 122.635 486.498C131.555 496.492 141.034 506.909 149.704 517.089C166.381 536.826 182.493 557.218 197.551 578.22C198.335 579.339 199.126 580.444 199.903 581.569L199.415 581.974C176.831 558.58 155.006 533.837 134.222 508.837C127.66 500.817 120.058 491.639 113.387 483.709C92.3326 458.824 71.0536 433.927 49.5819 409.409C42.4096 401.221 35.2117 393.053 27.9302 384.968L28.3865 384.531Z" fill="#5AA5D1"/>
<path d="M49.2476 581.459C65.7386 582.565 82.3775 581.793 98.7335 579.538C106.876 578.394 114.955 576.896 122.866 574.673C129.408 572.822 135.816 570.553 142.217 568.284C149.248 565.778 156.169 562.95 162.905 559.718C167.275 557.616 171.471 555.36 175.752 553.027L176.144 553.522C174.029 555.829 171.638 558.047 169.216 560.026C158.509 568.702 145.771 574.91 132.423 578.272C110.662 583.625 88.0844 585.437 65.7515 583.921C60.1924 583.535 54.6589 582.989 49.1641 582.083L49.2476 581.459Z" fill="#5AA5D1"/>
<mask id="mask0_1833_515" style="mask-type:luminance" maskUnits="userSpaceOnUse" x="116" y="109" width="318" height="546">
<path d="M116.015 109.37H433.548V654.203H116.015V109.37Z" fill="white"/>
</mask>
<g mask="url(#mask0_1833_515)">
<path d="M408.188 654.132H141.555C128.104 654.132 117.198 643.232 117.198 629.781V134.607C117.198 121.156 128.104 110.25 141.555 110.25H408.188C421.645 110.25 432.552 121.156 432.552 134.607V629.781C432.552 643.232 421.645 654.132 408.188 654.132Z" fill="#303C72"/>
</g>
<path d="M398.972 639.885H150.777C139.608 639.885 130.552 630.83 130.552 619.667V144.717C130.552 133.554 139.608 124.505 150.777 124.505H398.972C410.141 124.505 419.19 133.554 419.19 144.717V619.667C419.19 630.83 410.141 639.885 398.972 639.885Z" fill="#D4EBFF"/>
<path d="M398.972 124.505H150.777C139.608 124.505 130.552 133.554 130.552 144.717V169.563H419.19V144.717C419.19 133.554 410.141 124.505 398.972 124.505Z" fill="#8CCBFF"/>
<path d="M333.875 366.312C333.875 366.312 362.635 346.324 385.128 383.773C407.628 421.228 432.455 495.56 439.479 518.664C446.504 541.762 419.473 554.03 402.757 536.402C386.035 518.773 344.492 438.779 334.987 419.101C325.482 399.422 319.685 377.436 333.875 366.312Z" fill="#9E5959"/>
<path d="M409.794 505.843L432.937 498.298C430.746 491.749 425.399 476.46 425.399 476.46C425.399 476.46 412.558 492.835 409.794 505.843Z" fill="#914D4D"/>
<path d="M382.84 507.507C382.731 499.846 382.66 487.661 382.995 475.283C383.541 454.904 380.328 408.901 380.328 408.901L353.271 454.724C362.32 471.774 373.117 491.395 382.84 507.507Z" fill="#914D4D"/>
<path d="M337.68 360.984C337.68 360.984 313.194 371.729 325.476 403.799C337.757 435.875 377.198 502.571 389.004 522.841C400.81 543.111 417.712 552.745 430.579 545.92C443.445 539.088 444.178 527.205 439.049 508.985C433.914 490.772 400.296 407.366 391.832 390.315C383.361 373.272 361.806 347.931 337.68 360.984Z" fill="white"/>
<path d="M423.117 465.451C415.617 475.291 406.195 499.333 406.195 499.333L431.87 488.292C429.325 481.467 426.324 473.645 423.117 465.451Z" fill="#D4EBFF"/>
<path d="M388.882 522.63C389.126 508.074 389.531 475.503 388.747 457.167C387.725 433.048 383.053 403.8 383.053 403.8L364.518 480.419C374.711 498.466 384.036 514.314 388.882 522.63Z" fill="#D4EBFF"/>
<path d="M494.769 413.914C494.769 413.914 514.428 421.247 524.981 445.103L515.521 452.879L489.087 426.118L494.769 413.914Z" fill="#ABD3FC"/>
<path d="M414.749 543.587C423.682 546.678 433.605 543.927 439.955 536.922C457.172 517.918 513.882 454.679 525.578 433.522C539.415 408.503 521.24 404.885 504.332 420.405C487.429 435.926 459.775 459.429 446.889 470.258C425.912 487.893 405.45 501.023 398.882 514.377C394.28 523.722 401.375 538.96 414.749 543.587Z" fill="#9E5959"/>
<path d="M509.293 456.588C500.495 467.077 483.445 447.244 489.299 437.495C489.396 437.34 506.87 415.656 509.222 407.501C511.697 398.908 510.488 394.744 519.332 387.122C526.857 380.644 531.883 376.241 535.668 376.845C539.679 377.488 536.215 382.842 532.14 386.44C527.731 390.342 521.073 401.845 527.365 401.53C532.378 401.273 548.464 397.932 553.323 395.759C561.24 392.218 581.054 373.015 585.72 383.144C585.72 383.144 590.855 382.289 590.508 388.227C590.508 388.227 596.716 390.213 591.073 397.546C591.073 397.546 594.691 400.824 591.08 405.039C588.631 407.899 577.918 417.655 570.81 423.15C563.708 428.645 534.961 432.231 524.788 438.375C521.549 440.335 511.305 454.191 509.293 456.588Z" fill="#F6AF9A"/>
<path d="M524.807 399.628C525.27 405.733 527.32 410.682 525.296 416.813C530.302 411.974 525.9 404.782 524.807 399.628Z" fill="#E57E73"/>
<path d="M591.073 397.546C588.104 397.064 585.81 399.487 583.663 401.119C576.98 406.158 570.688 411.948 563.683 416.402C572.005 414.403 577.584 406.755 584.133 401.672C586.022 399.75 588.599 397.604 591.073 397.546Z" fill="#E57E73"/>
<path d="M590.508 388.228C584.235 388.793 579.691 393.755 574.82 397.212C569.884 400.605 565.495 405.618 560.533 408.375C563.631 408.009 566.272 405.965 568.605 404.018C575.72 398.767 582.05 390.509 590.508 388.228Z" fill="#E57E73"/>
<path d="M585.72 383.143C574.332 384.82 566.864 395.321 557.436 400.803C568.297 398.008 574.763 385.289 585.72 383.143Z" fill="#E57E73"/>
<path d="M559.319 418.51C547.339 414.667 531.234 412.096 520.791 420.702C532.269 413.966 546.78 416.678 559.319 418.51Z" fill="#EA9A88"/>
<path d="M556.671 400.483C558.843 402.366 559.537 405.277 560.219 407.957C562.391 410.001 562.822 413.33 563.368 416.145C564.473 416.955 564.499 418.555 564.512 419.802C564.21 418.529 563.741 417.16 562.622 416.524C561.716 414.031 561.138 410.74 559.19 408.902C557.989 406.524 558.046 403.157 556.048 401.094C555.424 399.789 555.045 398.247 553.953 397.18C555.206 397.912 556.035 399.191 556.671 400.483Z" fill="#EA9A88"/>
<path d="M494.769 413.914C494.769 413.914 502.365 438.689 524.981 445.103C524.981 445.103 460.861 524.64 444.177 538.49C427.5 552.346 402.436 546.099 393.541 525.662C384.974 505.977 494.769 413.914 494.769 413.914Z" fill="white"/>
<path d="M308.303 589.917C280.308 599.107 268.959 620.065 265.565 639.885H372.686C370.443 627.05 367.918 617.372 365.096 612.378C347.391 581.009 308.303 589.917 308.303 589.917Z" fill="#F6AF9A"/>
<path d="M309.235 576.1C276.67 582.616 260.07 604.744 258.971 639.885H380.777C380.591 638.555 380.404 637.263 380.218 636.01C371.163 575.56 309.235 576.1 309.235 576.1Z" fill="#384682"/>
<path d="M228.091 500.258C232.024 544.756 220.122 571.652 215.025 598.709C212.339 612.983 211.619 627.076 213.483 639.885H358.02C366.902 619.294 365.34 599.004 365.629 588.028C366.124 569.551 367.615 538.696 367.615 538.696C372.879 457.096 224.164 455.752 228.091 500.258Z" fill="#F6AF9A"/>
<path d="M218.573 574.512C218.573 574.512 204.582 609.094 209.749 639.885H360.565C368.772 611.909 368.162 576.099 368.162 576.099C348.939 579.197 218.573 574.512 218.573 574.512Z" fill="#384682"/>
<path d="M208.2 639.885H314.678C314.177 589.943 272.821 586.588 272.821 586.588C240.327 583.169 216.24 593.015 208.2 639.885Z" fill="#F6AF9A"/>
<path d="M202.705 639.769C202.699 639.808 202.699 639.846 202.692 639.885H326.067C325.385 604.127 302.551 581.022 264.37 576.151C264.37 576.151 209.749 571.999 202.705 639.769Z" fill="#384682"/>
<path d="M258.695 344.403C284.666 340.046 305.392 343.606 329.839 350.766C346.195 355.554 363.721 360.168 371.639 371.235C385.54 390.663 379.203 438.658 375.649 460.875C372.095 483.086 369.402 529.538 367.455 541.473C365.508 553.407 312.551 572.141 280.135 567.263C255.283 563.523 232.539 551.344 229.299 528.587C225.488 501.749 218.997 463.272 211.465 439.892C203.933 416.518 192.101 367.835 229.415 351.543C236.414 348.491 251.857 345.547 258.695 344.403Z" fill="#F6AF9A"/>
<path d="M319.981 319.66C319.981 319.66 319.139 343.908 324.518 355.02C329.891 366.126 311.491 373.034 299.531 372.932C287.571 372.829 269.203 366.132 267.056 351.73C264.916 337.321 273.727 342.771 272.063 303.613C270.765 272.989 323.329 289.487 319.981 319.66Z" fill="#F6AF9A"/>
<path d="M322.834 350.483C319.332 338.407 319.981 319.66 319.981 319.66C322.635 295.701 290.045 280.367 277.159 290.406C276.632 293.818 276.388 297.662 276.491 302C276.542 304.255 298.483 346.608 322.834 350.483Z" fill="#EA9A88"/>
<path d="M378.194 581.094C376.433 567.842 378.194 502.906 378.445 493.594C378.695 484.275 383.509 435.445 382.995 420.85C382.474 406.248 378.412 377 374.781 368.215C371.144 359.436 343.734 352.726 329.383 350.483L322.307 348.491C322.307 348.491 324.576 356.698 312.474 358.78C294.659 361.846 275.289 350.985 267.268 343.227C267.268 343.227 262.545 342.623 259.344 343.221C259.344 343.221 228.354 348.182 220.237 351.447C212.12 354.712 200.443 368.999 199.942 393.414C199.434 417.829 211.773 463.453 215.295 486.827C218.824 510.207 216.555 550.226 215.045 564.07C213.534 577.913 198.933 621.962 198.682 639.327C198.682 639.327 200.533 639.539 203.804 639.886H347.577C367.924 637.804 382.982 635.985 384.235 635.047C384.235 635.047 380.482 623.723 380.218 614.41C379.955 605.098 379.955 594.346 378.194 581.094Z" fill="#85B9F1"/>
<path d="M310.553 363.375C318.445 363.285 329.698 380.008 329.698 380.008C333.233 373.62 336.529 360.033 338.245 352.128C335.013 351.441 331.979 350.888 329.383 350.483L322.307 348.491C322.307 348.491 324.576 356.698 312.474 358.78C294.659 361.846 275.289 350.985 267.268 343.227C267.268 343.227 262.545 342.623 259.344 343.221C259.344 343.221 257.455 343.523 254.492 344.031L250.411 350.323L300.026 390.342C300.026 390.342 299.878 387.694 301.626 378.787C304.441 364.41 310.553 363.375 310.553 363.375Z" fill="#75AEEB"/>
<path d="M244.653 479.866C248.631 449.468 250.18 395.477 250.18 395.477C250.18 395.477 223.046 406.158 201.015 410.322C204.036 435.245 212.48 468.144 215.295 486.826C218.824 510.2 216.555 550.226 215.045 564.069C213.534 577.912 198.933 621.961 198.682 639.326C198.682 639.326 200.533 639.539 203.804 639.886H250.662C223.721 625.258 225.257 582.398 228.811 558.722C232.988 530.843 241.645 502.867 244.653 479.866Z" fill="#75AEEB"/>
<path d="M311.677 367.983C315.373 367.848 316.176 361.524 316.324 357.758C315.238 358.176 313.965 358.523 312.474 358.78C309.415 359.307 306.305 359.422 303.22 359.217C304.55 362.179 307.725 368.124 311.677 367.983Z" fill="#384682"/>
<path d="M308.592 364.364C308.592 364.364 327.988 453.092 329.698 472.629L341.748 495.553L346.819 465.45C346.819 465.45 326.671 393.638 313.367 363.471L308.592 364.364Z" fill="#384682"/>
<path d="M309.698 359.147C309.698 359.147 319.691 354.224 322.307 348.491C322.307 348.491 326.619 348.356 328.406 349.243C328.406 349.243 331.317 364.41 328.406 374.089C328.406 374.089 318.522 360.708 310.739 361.383C302.937 362.064 297.866 380.381 297.866 380.381C297.866 380.381 270.154 358.703 266.722 343.285L267.506 342.386C267.506 342.386 291.176 356.235 309.698 359.147Z" fill="#96C3F2"/>
<path d="M361.433 233.439C361.433 233.439 365.282 251.768 359.897 273.272L348.001 232.712L361.433 233.439Z" fill="#8C4949"/>
<path d="M312.481 198.219C312.481 198.219 351.06 200.488 357.294 234.794C363.528 269.1 359.627 331.157 337.217 337.95C316.767 344.151 285.212 322.982 271.928 301.735C257.95 279.376 252.988 250.874 261.214 229.318C268.419 210.45 282.146 196.587 312.481 198.219Z" fill="#F6AF9A"/>
<path d="M294.935 238.336C294.935 238.336 290.996 244.178 292.082 253.002C292.789 258.748 290.584 260.817 284.601 269.191C278.611 277.565 280 278.053 278.239 287.282C276.478 296.505 272.178 319.12 272.062 320.926C271.94 322.739 266.394 316.389 262.242 303.805C258.097 291.222 249.286 266.807 248.528 244.403C247.776 222.006 268.419 199.352 289.569 197.083C289.569 197.083 309.71 188.021 329.1 196.08C348.483 204.133 362.763 216.389 361.94 236.562L357.712 236.704C357.712 236.704 354.492 234.339 353.464 233.722C348.772 230.907 344.955 232.302 340.694 235.078C340.694 235.078 324.113 243.413 315.302 242.411C315.302 242.411 305.244 245.521 294.935 238.336Z" fill="#8C4949"/>
<path d="M277.686 217.905C277.686 217.905 275.186 234.461 292.731 243.593C293.637 240.277 294.935 238.336 294.935 238.336C294.935 238.336 279.723 228.901 277.686 217.905Z" fill="#7D4141"/>
<path d="M287.873 204.467C287.718 212.52 289.646 221.099 295.604 226.813C302.699 233.496 315.919 234.846 325.353 234.602C324.203 235.045 323.008 235.379 321.799 235.643C312.789 237.52 302.005 236.626 294.569 230.733C287.037 224.589 284.768 213.445 287.873 204.467Z" fill="#7D4141"/>
<path d="M297.647 200.186C302.847 198.451 308.361 197.847 313.836 197.872C324.91 197.975 336.33 201.484 344.453 209.235C348.515 213.078 351.606 217.853 353.38 222.994C351.786 220.784 350.154 218.669 348.354 216.728C343.085 210.951 336.33 206.638 328.952 204.093C318.933 200.61 308.213 199.839 297.647 200.186Z" fill="#7D4141"/>
<path d="M293.374 204.467C303.74 205.225 313.901 207.957 323.554 211.774C330.97 214.743 338.149 218.908 343.515 224.917C344.332 225.842 345.096 226.825 345.72 227.886C345.257 227.481 344.782 227.102 344.3 226.742C343.933 226.466 343.207 225.939 342.834 225.675C337.455 221.935 331.568 218.972 325.527 216.478C314.916 212.153 304.094 208.638 293.374 204.467Z" fill="#7D4141"/>
<path d="M300.096 214.036C306.883 220.43 315.675 223.74 324.338 226.799C327.275 227.827 330.27 228.746 333.297 229.923C331.684 230.102 330.077 230.122 328.457 230.07C320.373 229.678 312.198 227.095 305.893 221.87C303.438 219.736 301.105 217.178 300.096 214.036Z" fill="#7D4141"/>
<path d="M286.214 280.077C286.214 280.077 286.131 262.005 275.353 261.883C264.569 261.761 264.627 276.89 271.581 286.703C275.469 292.198 286.259 299.12 286.214 280.077Z" fill="#F6AF9A"/>
<path d="M274.351 274.069C276.471 274.191 278.142 275.355 279.312 276.537C279.01 274.461 278.155 272.456 276.195 271.209C275.687 270.888 275.54 270.22 275.861 269.712C276.182 269.204 276.844 269.056 277.358 269.378C284.357 273.819 280.707 284.673 280.546 285.13C280.353 285.695 279.736 285.997 279.171 285.798C279.158 285.798 279.151 285.792 279.139 285.792C278.592 285.586 278.303 284.982 278.496 284.423C278.509 284.378 279.132 282.527 279.363 280.162C279.351 280.143 279.325 280.123 279.312 280.098C279.293 280.065 277.307 276.409 274.229 276.235C273.631 276.203 273.175 275.689 273.207 275.091C273.239 274.493 273.753 274.037 274.351 274.069Z" fill="#E57E73"/>
<path d="M193.341 639.885H387.519C384.736 610.636 381.279 567.262 380.456 547.468C379.351 520.791 384.132 449.21 384.235 426.889C384.338 404.569 377.885 373.355 377.885 373.355C377.03 370.79 375.231 363.265 359.151 357.275C343.072 351.292 328.823 350.321 328.823 350.321C342.699 386.112 338.772 477.976 338.772 477.976C338.772 477.976 326.214 443.843 308.592 406.414C293.129 373.573 258.071 343.22 258.071 343.22C241.523 343.76 212.692 350.604 212.692 350.604C183.945 382.127 203.078 447.159 207.879 481.793C212.673 516.427 208.341 552.86 195.629 624.904C194.832 629.415 194.068 634.441 193.341 639.885Z" fill="white"/>
<path d="M339.017 470.239L338.772 479.918C350.443 399.577 343.972 357.128 342.898 352.533C334.576 350.714 328.824 350.322 328.824 350.322C340.257 379.808 339.601 447.366 339.017 470.239Z" fill="#ABD3FC"/>
<path d="M338.258 476.594C335.733 469.865 324.139 439.422 308.593 406.414C293.13 373.573 258.072 343.22 258.072 343.22C253.168 343.38 247.185 344.094 241.195 345.019C241.195 345.019 325.36 437.551 338.773 479.917L338.258 476.594Z" fill="#ABD3FC"/>
<path d="M334.704 639.885H337.275C339.826 585.798 341.626 531.711 338.772 477.977C340.302 531.858 337.365 586.074 334.704 639.885Z" fill="#ABD3FC"/>
<path d="M207.879 481.793C212.673 516.426 208.341 552.859 195.629 624.903C194.832 629.415 194.068 634.441 193.341 639.884H215.34L219.376 598.258C220.43 586.568 224.46 542.14 225.79 529.254C227.332 514.376 230.411 512.32 238.11 470.989C245.809 429.659 247.647 393.855 247.647 393.855L200.109 437.011C202.679 453.753 206.182 469.575 207.879 481.793Z" fill="#D4EBFF"/>
<path d="M325.36 348.581C325.36 348.581 335.63 389.179 338.772 477.977C338.772 477.977 343.837 424.84 342.558 390.715C341.272 356.595 340.321 352 340.321 352C340.321 352 329.589 347.7 325.36 348.581Z" fill="white"/>
<path d="M338.772 477.976C308.592 406.414 243.946 344.608 243.946 344.608C250.43 341.35 267.506 342.385 267.506 342.385C267.506 342.385 292.673 370.958 310.225 405.084C333.862 451.048 338.772 477.976 338.772 477.976Z" fill="white"/>
<path d="M214.646 352.007C214.646 352.007 249.563 354.809 243.168 398.029C236.773 441.242 208.759 514.436 199.524 536.75C190.289 559.057 162.789 551.776 161.066 527.54C159.338 503.312 176.838 414.745 181.992 393.504C187.14 372.27 196.619 351.602 214.646 352.007Z" fill="#F6AF9A"/>
<path d="M220.238 351.446C220.238 351.446 194.614 340.945 180.372 390.971C166.124 440.997 156.889 507.578 156.504 529.898C156.118 552.218 178.014 563.24 191.915 554.911C205.822 546.588 220.835 494.763 229.858 468.362C243.946 427.147 265.88 361.562 220.238 351.446Z" fill="white"/>
<path d="M160.778 525.386C160.778 525.386 160.54 596.383 163.702 639.885H193.875C196.105 620.181 198.907 598.6 200.501 586.755C204.158 559.602 207.481 537.976 207.873 520.689C208.387 498.099 162.326 493.356 160.778 525.386Z" fill="#F6AF9A"/>
<path d="M185.674 489.487C185.674 489.487 159.19 491.801 156.497 524.892C154.473 549.809 154.183 602.643 155.154 639.886H204.923C209.132 594.982 216.568 514.892 216.722 507.508C216.941 497.186 198.682 487.18 185.674 489.487Z" fill="white"/>
<path d="M417.616 547.675V619.667C417.616 629.944 409.248 638.305 398.972 638.305H150.778C140.495 638.305 132.134 629.944 132.134 619.667V144.718C132.134 134.442 140.495 126.081 150.778 126.081H398.972C409.248 126.081 417.616 134.442 417.616 144.718V451.525C418.522 453.8 419.422 456.062 420.309 458.318C420.598 458.029 420.771 457.636 420.771 457.199V144.718C420.771 132.7 410.99 122.925 398.972 122.925H150.778C138.753 122.925 128.978 132.7 128.978 144.718V619.667C128.978 631.685 138.753 641.461 150.778 641.461H398.972C410.99 641.461 420.771 631.685 420.771 619.667V548.067C419.73 548.016 418.676 547.887 417.616 547.675Z" fill="white"/>
<path d="M330.829 134.602H218.92C212.056 134.602 206.491 129.036 206.491 122.179V119.583H343.252V122.179C343.252 129.036 337.693 134.602 330.829 134.602Z" fill="#303C72"/>
<path d="M1021.38 233.785C1025.02 231.227 1029.01 229.267 1033.25 227.949C1050.74 222.499 1095.98 213.502 1130.27 251.471C1166.87 291.992 1113.9 406.883 1057.2 463.476C1057.2 463.476 1115.68 497.564 1118.95 538.875C1122.22 580.186 1056.14 626.022 961.022 641.426L940.116 290.854L1021.38 233.785Z" fill="#5A789F"/>
<path d="M1032.88 228.066C1028.19 261.897 1025.65 314.262 1018.56 371.363C1007.42 461.107 979.519 591.749 1088.79 591.19C1060.98 613.575 1015.82 632.553 961.022 641.428L940.116 290.856L1021.39 233.78C1024.87 231.331 1028.69 229.397 1032.74 228.111L1032.88 228.066Z" fill="#5A789F"/>
<path d="M1101.68 259.764C1059.18 309.751 1017.83 360.92 976.973 412.27C965.373 426.923 952.847 443.215 941.196 457.842C917.218 487.765 892.404 518.202 867.269 547.142L866.768 546.756C867.86 545.156 868.966 543.568 870.064 541.981C875.591 534.07 881.253 526.139 886.903 518.356C902.777 496.57 919.28 474.847 936.048 453.742C952.796 432.823 970.592 411.756 987.655 391.081C1009.75 364.436 1032.45 337.598 1055.11 311.447C1065.07 299.937 1075.59 287.932 1085.69 276.576C1090.84 270.811 1095.99 265.046 1101.21 259.339L1101.68 259.764Z" fill="#5AA5D1"/>
<path d="M1080.59 540.418C1043.55 546.736 1005.31 546.215 968.452 538.908C964.602 538.131 960.585 537.218 956.8 536.215C940.457 531.787 924.698 524.705 910.797 515.014C908.901 513.696 906.62 511.993 904.827 510.541C902.912 509.005 900.984 507.353 899.184 505.688L899.557 505.181C903.014 507.102 906.421 509.037 909.897 510.823C913.233 512.559 916.973 514.397 920.405 515.958C930.077 520.418 940.103 524.146 950.245 527.385C960.405 530.643 970.682 533.632 981.144 535.798C1009.92 541.498 1039.51 542.861 1068.76 540.894C1072.67 540.624 1076.59 540.29 1080.48 539.795L1080.59 540.418Z" fill="#5AA5D1"/>
<mask id="mask1_1833_515" style="mask-type:luminance" maskUnits="userSpaceOnUse" x="678" y="109" width="319" height="546">
<path d="M678.689 109.37H996.221V654.203H678.689V109.37Z" fill="white"/>
</mask>
<g mask="url(#mask1_1833_515)">
<path d="M970.701 654.132H704.068C690.617 654.132 679.705 643.232 679.705 629.781V134.607C679.705 121.156 690.617 110.25 704.068 110.25H970.701C984.159 110.25 995.065 121.156 995.065 134.607V629.781C995.065 643.232 984.159 654.132 970.701 654.132Z" fill="#303C72"/>
</g>
<path d="M961.479 639.885H713.291C702.121 639.885 693.066 630.83 693.066 619.667V144.717C693.066 133.554 702.121 124.505 713.291 124.505H961.479C972.648 124.505 981.704 133.554 981.704 144.717V619.667C981.704 630.83 972.648 639.885 961.479 639.885Z" fill="#D4EBFF"/>
<path d="M749.338 389.975C751.247 379.596 759.422 371.01 770.425 369.095C784.557 366.633 798.008 376.087 800.47 390.213C800.977 393.15 800.977 396.055 800.521 398.838C800.418 399.493 800.283 400.142 800.129 400.785C797.597 413.195 783.329 482.122 769.923 524.397C768.516 531.698 762.745 537.713 754.988 539.063C744.962 540.811 735.418 534.101 733.67 524.076C732.982 520.155 744.146 411.916 749.338 389.975Z" fill="#DE9681"/>
<path d="M773.677 393.838C773.677 393.838 784.666 383.716 800.515 390.496C800.977 393.337 800.958 396.146 800.521 398.838C800.418 399.494 800.283 400.143 800.129 400.786C797.944 411.493 787.025 464.282 775.457 505.715C774.409 500.625 771.196 495.542 769.602 494.275C767.102 492.29 760.592 486.39 757.398 476.024C755.11 468.614 759.467 440.869 764.461 426.281C769.454 411.685 773.677 393.838 773.677 393.838Z" fill="#EA9A88"/>
<path d="M781.819 367.983C781.819 367.983 771.973 365.946 758.599 371.852C754.595 373.619 750.765 380.541 748.162 385.907C738.22 406.441 730.649 468.819 730.649 468.819C730.649 468.819 756.562 492.977 783.715 500.727C783.715 500.727 803.934 412.617 803.529 394.159C803.124 375.708 789.66 369.879 781.819 367.983Z" fill="#FCF5F1"/>
<path d="M796.35 441.575L763.606 389.602C763.606 389.602 770.534 410.797 767.006 425C763.477 439.21 755.084 458.644 753.773 470.238C753.207 475.257 753.471 481.311 753.953 486.562C762.706 492.172 773.117 497.699 783.715 500.726C783.715 500.726 790.682 470.379 796.35 441.575Z" fill="#F0E2DA"/>
<path d="M759.698 500.289C749.737 496.549 738.618 501.587 734.878 511.549C734.139 513.509 733.747 515.508 733.663 517.487C733.657 517.487 726.491 613.907 724.563 639.884H747.179C749.518 628.715 753.92 608.464 758.638 590.887C766.69 560.88 769.454 533.907 770.726 521.484C771.086 519.846 771.228 518.2 771.157 516.581C770.829 509.087 767.159 503.091 759.698 500.289Z" fill="#DE9681"/>
<path d="M806.376 601.994C785.122 604.295 768.606 620.066 764.383 639.886H858.747C853.683 615.966 831.209 599.308 806.376 601.994Z" fill="#F6AF9A"/>
<path d="M761.601 639.884H860.752C853.529 596.626 820.9 596.587 816.793 596.645C816.793 596.645 771.459 593.759 761.601 639.884Z" fill="#8C4949"/>
<path d="M849.216 525.123C799.19 524.981 788.818 548.304 788.818 548.304C787.982 554.744 787.847 561.903 784.878 567.996C771.151 596.132 765.791 628.227 764.197 639.885H932.43C931.427 622.565 925.103 606.17 916.658 585.258C911.35 572.102 898.58 554.814 898.394 541.247C898.394 541.247 893.278 525.245 849.216 525.123Z" fill="#F6AF9A"/>
<path d="M788.239 553.485C788.239 553.485 785 558.318 776.652 580.901C770.572 597.334 764.653 625.67 761.883 639.886H934.583C932.417 620.374 926.607 598.973 920.02 586.891C912.147 572.444 900.907 548.69 900.907 548.69C878.67 554.352 788.239 553.485 788.239 553.485Z" fill="#8C4949"/>
<path d="M920.02 586.891C912.147 572.444 900.906 548.69 900.906 548.69C885.881 552.514 839.73 553.363 811.369 553.504C798.496 562.142 794.788 572.026 794.788 572.026C794.788 572.026 829.345 583.774 873.002 584.513C895.797 584.513 904.775 584.513 907.764 586.145C909.859 587.289 913.156 620.284 914.942 639.886H934.583C932.417 620.374 926.607 598.973 920.02 586.891Z" fill="#824444"/>
<path d="M837.102 639.885H931.183C926.652 619.975 909.705 604.39 888.272 602.545C863.972 600.457 842.34 616.761 837.102 639.885Z" fill="#F6AF9A"/>
<path d="M832.912 639.886H933.85C929.525 616.884 917.597 595.618 883.689 596.679C883.689 596.679 841.421 596.653 832.912 639.886Z" fill="#8C4949"/>
<path d="M911.016 602.425C912.481 613.839 913.946 628.948 914.942 639.886H933.85C930.977 624.629 924.762 610.143 911.016 602.425Z" fill="#824444"/>
<path d="M785.411 509.049C785.411 509.049 772.474 501.421 770.18 489.12C767.886 476.819 774.467 435.919 776.138 416.787C777.815 397.654 762.487 381.151 760.431 371.652C760.431 371.652 782.082 361.472 829.557 356.812C829.557 356.812 856.318 357.584 882.031 362.262C903.014 366.073 913.94 377.558 918.04 384.133C922.14 390.707 919.473 406.735 913.76 426.311C908.046 445.887 901.768 462.847 901.138 483.58C900.829 493.593 900.379 529.332 901.003 552.732C901.003 552.732 903.503 567.436 852.68 570.579C805.765 573.484 788.348 552.957 788.348 552.957C786.581 533.709 785.411 509.049 785.411 509.049Z" fill="#DE9681"/>
<path d="M908.554 443.664C904.743 456.575 901.575 469.165 901.138 483.58C900.926 490.56 900.643 510.033 900.701 529.12C889.55 499.03 874.634 409.197 874.634 409.197L908.554 443.664Z" fill="#E57E73"/>
<path d="M805.906 363.875L808.695 314.286C809.023 304.46 815.746 295.61 825.752 293.02C837.931 289.864 850.36 297.178 853.516 309.357C853.946 311.008 854.178 312.673 854.235 314.312L858.593 367.551C858.631 367.924 858.728 369.614 858.728 369.614C859.48 382.14 851.266 392.969 838.651 396.233C824.325 399.942 810.18 392.024 806.472 377.699C805.315 373.239 805.598 368.624 805.906 363.875Z" fill="#DE9681"/>
<path d="M808.696 314.286C809.024 304.46 815.746 295.61 825.752 293.02C837.931 289.864 850.36 297.178 853.516 309.357C853.947 311.008 854.178 312.673 854.236 314.312L854.461 317.082C844.294 339.948 825.785 356.966 806.067 361.086L808.696 314.286Z" fill="#D38475"/>
<path d="M789.435 362.969C789.435 362.969 792.738 377.898 816.324 381.748C839.911 385.597 887.758 363.129 887.758 363.129C887.758 363.129 898.021 362.988 905.091 367.39C905.091 367.39 918.477 375.758 920.727 386.028C922.976 396.304 919.975 414.492 918.156 421.131C916.337 427.763 905.091 486.504 905.091 501.221C905.091 511.497 911.042 540.732 914.634 557.442C916.074 564.151 911.575 570.675 904.795 571.709C882.308 575.135 832.873 580.623 784.602 572.339C776.697 570.983 771.119 563.843 771.639 555.848C772.848 537.378 774.846 506.632 774.801 505.347C774.801 505.347 764.827 499.248 762.68 481.908C760.534 464.576 773.696 421.555 772.282 414.171C770.868 406.786 758.349 378.875 758.599 371.851C758.599 371.851 772.186 365.347 789.435 362.969Z" fill="#FCF5F1"/>
<path d="M848.278 576.596C872.121 576.075 892.507 573.582 904.808 571.711C911.581 570.677 916.074 564.147 914.634 557.444C911.042 540.734 905.09 511.499 905.09 501.223C905.09 486.506 916.337 427.765 918.156 421.133C918.574 419.616 919.049 417.502 919.506 415.021C899.351 403.601 880.521 401.03 871.389 413.209C871.389 413.209 876.054 468.344 875.984 478.941C875.913 489.533 852.86 505.824 818.182 502.245C818.182 502.245 850.296 514.019 879.621 499.031L883.13 509.198H896.305C896.305 509.198 898.034 530.709 900.605 545.477C903.156 560.169 876.273 570.548 848.278 576.596Z" fill="#F0E2DA"/>
<path d="M871.581 401.055C871.279 398.516 871.324 395.9 871.761 393.253C874.248 378.169 888.496 367.957 903.586 370.438C916.106 372.501 925.277 382.668 926.614 394.686L957.719 526.087C958.381 528.658 958.535 531.402 958.072 534.191C956.311 544.898 946.196 552.147 935.489 550.386C926.466 548.895 919.898 541.485 919.107 532.784C919.107 532.784 879.82 440.149 872.295 404.795C871.973 403.574 871.736 402.321 871.581 401.055Z" fill="#DE9681"/>
<path d="M894.171 367.391C894.171 367.391 865.919 371.202 870.097 406.492C874.268 441.781 888.4 505.348 888.4 505.348C888.4 505.348 938.818 505.669 955.836 480.945C955.836 480.945 932.391 398.837 925.971 384.641C919.551 370.438 904.158 363.612 894.171 367.391Z" fill="#FCF5F1"/>
<path d="M934.159 513.381C926.254 515.245 920.598 521.639 919.294 529.171C919.011 530.804 918.934 532.488 919.082 534.191C918.747 546.916 919.184 573.747 923.413 605.135C924.968 616.671 926.26 629.249 927.231 639.885H952.526C954.596 601.607 958.246 534.171 958.246 534.171C958.42 532.153 958.278 530.078 957.79 528.008C955.303 517.443 944.724 510.894 934.159 513.381Z" fill="#DE9681"/>
<path d="M830.74 210.951C830.74 210.951 875.303 212.609 874.326 265.308C873.381 315.932 830.855 357.346 794.422 346.716C782.841 342.596 775.212 316.234 774.808 276.606C774.396 236.979 791.414 209.563 830.74 210.951Z" fill="#DE9681"/>
<path d="M889.891 335.051C884.454 317.069 888.869 282.776 886.665 267.307C886.607 266.902 886.517 266.529 886.414 266.182C885.026 245.52 878.226 228.914 862.481 216.382C845.54 202.892 817.931 209.164 817.931 209.164C805.386 208.226 779.345 219.203 772.127 236.452C764.91 253.702 767.108 278.483 769.936 285.071C772.757 291.658 768.991 297.931 767.423 302.32C765.855 306.709 768.991 311.099 771.812 316.748C774.64 322.391 769.936 328.978 769.936 328.978C774.64 326.472 776.832 319.569 774.955 313.612C773.072 307.648 772.127 305.456 773.355 300.932C774.576 296.401 775.579 293.535 776.208 286.639C776.832 279.736 775.264 265.938 779.03 256.529C782.796 247.114 797.539 236.452 797.539 236.452C801.935 249.942 808.207 260.604 816.363 263.425C824.525 266.247 829.544 270.328 831.112 274.402C832.68 278.483 830.167 286.009 831.112 295.103C832.05 304.203 835.816 304.512 838.638 308.593C841.465 312.667 833.618 319.884 831.735 323.021C829.852 326.157 831.112 331.485 833.303 335.566C835.501 339.64 833.933 344.344 833.933 344.344C837.699 342.776 837.07 335.251 835.816 328.978C834.563 322.706 839.268 321.138 842.089 316.433C844.917 311.729 841.151 305.141 840.521 301.69C839.891 298.239 844.981 286.497 846.864 287.436C847.95 287.982 849.242 294.454 850.251 302.134C849.75 305.321 849.672 308.528 850.148 311.69C850.148 311.69 850.958 313.593 851.678 316.632C851.729 317.5 851.78 318.348 851.819 319.158C851.902 320.958 852.269 323.046 852.744 325.077C852.802 329.107 852.185 333.612 850.148 337.982C844.3 350.527 836.967 346.33 838.593 365.013C840.219 383.702 835.489 398.734 829.852 408.291C824.216 417.854 824.113 445.752 835.669 461.498C835.669 461.498 837.584 449.145 846.17 445.418C854.756 441.69 868.169 423.387 867.282 411.767C866.388 400.148 874.184 366.735 894.036 363.323C894.036 363.323 895.328 353.033 889.891 335.051Z" fill="#8C4949"/>
<path d="M797.539 236.453C798.304 224.583 806.209 212.578 817.931 209.165C807.597 215.007 800.977 225.303 797.539 236.453Z" fill="#7A3D3D"/>
<path d="M805.386 233.946C820.219 239.762 817.616 247.012 826.041 257.327C828.888 261.26 833.541 262.23 837.629 264.216C842.834 267.449 846.35 273.593 846.17 279.737C845.585 274.583 842.603 269.634 838.464 266.594C833.567 263.458 828.586 263.818 824.621 258.561C816.093 248.092 819.499 241.613 805.386 233.946Z" fill="#7A3D3D"/>
<path d="M814.795 227.674C822.957 229.068 831.029 233.137 835.463 240.367C843.465 250.701 856.53 260.862 854.956 275.347C854.628 261.093 841.826 252.07 834.037 241.427C829.949 234.287 822.436 230.142 814.795 227.674Z" fill="#7A3D3D"/>
<path d="M814.795 217.951C828.612 216.286 843.754 219.474 853.555 229.943C858.368 234.673 862.526 240.252 864.949 246.595C866.022 249.532 866.787 252.675 866.787 255.817C866.729 257.597 866.774 259.776 866.967 261.55C867.867 271.376 870.187 281.595 867.501 291.344C869.789 279.384 865.013 267.392 865.084 255.438C864.191 243.812 856.067 234.063 847.443 226.826C838.298 219.699 826.138 217.713 814.795 217.951Z" fill="#7A3D3D"/>
<path d="M879.435 272.603C882.044 283.612 882.815 295.488 879.396 306.414C877.937 311.864 875.071 316.928 873.638 322.326C872.43 327.93 875.823 333.31 875.238 338.984C875.135 346.754 871.858 354.833 865.277 359.344C863.786 360.36 862.346 361.562 861.131 362.892C854.91 369.801 852.333 379.306 851.588 388.419C851.382 392.211 851.478 396.06 850.662 399.788C848.509 414.903 834.107 426.285 835.669 442.056C833.265 426.407 847.32 414.479 849.223 399.524C849.949 395.829 849.769 392.05 849.949 388.31C850.624 378.335 853.522 367.815 860.791 360.578C861.793 359.582 863.034 358.612 864.197 357.802C871.909 352.545 874.499 342.326 873.143 333.445C872.475 329.659 871.003 325.842 872.108 321.979C873.683 316.433 876.594 311.542 878.227 306.041C881.877 295.321 881.434 283.624 879.435 272.603Z" fill="#7A3D3D"/>
<path d="M859.827 314.062C865.572 332.712 858.445 335.379 851.485 350.424C850.084 353.599 850.219 356.774 849.936 360.206C848.361 366.581 845.784 368.181 846.17 375.919C844.987 369.826 846.626 366.491 848.349 360.977C848.779 357.963 848.175 354.775 849.145 351.799C849.268 351.221 849.589 350.347 849.775 349.781C856.729 333.888 863.271 334.325 859.827 314.062Z" fill="#7A3D3D"/>
<path d="M881.292 322.996C880.939 328.587 880.283 334.269 881.247 339.757C881.568 341.685 882.777 343.022 883.439 344.77C884.93 348.44 885.405 352.488 884.717 356.37C883.888 360.059 882.07 363.523 882.102 367.392C881.286 363.594 882.68 359.873 883.252 356.158C883.953 340.869 875.212 344.738 881.292 322.996Z" fill="#7A3D3D"/>
<path d="M868.406 371.44C864.364 376.8 860.367 383.15 860.649 390.065C861.742 400.399 862.192 413.304 856.646 422.456C860.476 412.546 859.698 401.46 858.914 391.061C858.304 383.407 863.059 376.434 868.406 371.44Z" fill="#7A3D3D"/>
<path d="M857.121 278.298C857.121 278.298 864.338 278.87 864.493 290.233C864.634 301.152 858.072 313.729 850.148 311.692C847.622 310.882 845.431 301.332 845.071 292.791C844.711 284.256 848.638 278.273 857.121 278.298Z" fill="#DE9681"/>
<path d="M851.433 303.554C848.239 288.786 855.81 284.595 856.131 284.422C856.523 284.21 857.005 284.364 857.217 284.75C857.423 285.142 857.275 285.624 856.89 285.836C856.671 285.958 852.648 288.252 852.282 295.669C854.512 293.053 858.066 292.59 858.259 292.565C858.696 292.513 859.094 292.828 859.152 293.265C859.203 293.708 858.888 294.107 858.451 294.158C858.246 294.184 853.471 294.827 852.346 298.908C852.455 300.219 852.661 301.645 853.002 303.214C853.085 303.606 852.867 303.998 852.494 304.133C852.462 304.146 852.423 304.158 852.385 304.165C851.954 304.261 851.523 303.985 851.433 303.554Z" fill="#BA6D5B"/>
<path d="M961.479 124.505H713.291C702.121 124.505 693.066 133.554 693.066 144.717V169.563H981.704V144.717C981.704 133.554 972.648 124.505 961.479 124.505Z" fill="#8CCBFF"/>
<path d="M962.552 146.036H934.788C933.092 146.036 931.71 144.66 931.71 142.957V142.469C931.71 140.772 933.092 139.397 934.788 139.397H962.552C964.255 139.397 965.63 140.772 965.63 142.469V142.957C965.63 144.66 964.255 146.036 962.552 146.036Z" fill="white"/>
<path d="M962.552 160.411H944.969C943.265 160.411 941.89 159.029 941.89 157.332V156.844C941.89 155.141 943.265 153.766 944.969 153.766H962.552C964.255 153.766 965.631 155.147 965.631 156.844V157.332C965.631 159.029 964.255 160.411 962.552 160.411Z" fill="white"/>
<path d="M961.479 641.461H713.291C701.266 641.461 691.485 631.685 691.485 619.667V144.718C691.485 132.7 701.266 122.925 713.291 122.925H961.479C973.503 122.925 983.285 132.7 983.285 144.718V619.667C983.285 631.685 973.503 641.461 961.479 641.461ZM713.291 126.081C703.008 126.081 694.647 134.442 694.647 144.718V619.667C694.647 629.944 703.008 638.305 713.291 638.305H961.479C971.762 638.305 980.123 629.944 980.123 619.667V144.718C980.123 134.442 971.762 126.081 961.479 126.081H713.291Z" fill="white"/>
<path d="M893.343 134.602H781.427C774.57 134.602 769.004 129.036 769.004 122.179V119.583H905.765V122.179C905.765 129.036 900.2 134.602 893.343 134.602Z" fill="#303C72"/>
<path d="M715.791 196.215H466.003C457.976 196.215 451.465 202.725 451.465 210.752V283.194C451.465 291.228 457.976 297.732 466.003 297.732H690.347L730.328 345.694V210.752C730.328 202.725 723.818 196.215 715.791 196.215Z" fill="white"/>
<path d="M615.437 229.177H701.645C704.094 229.177 706.08 227.191 706.08 224.743V221.131C706.08 218.682 704.094 216.696 701.645 216.696H615.437C612.982 216.696 610.996 218.682 610.996 221.131V224.743C610.996 227.191 612.982 229.177 615.437 229.177Z" fill="#D4E7FF"/>
<path d="M477.127 229.177H588.31C590.765 229.177 592.751 227.191 592.751 224.743V221.131C592.751 218.682 590.765 216.696 588.31 216.696H477.127C474.679 216.696 472.693 218.682 472.693 221.131V224.743C472.693 227.191 474.679 229.177 477.127 229.177Z" fill="#D4E7FF"/>
<path d="M649.087 253.574H701.645C704.094 253.574 706.08 251.588 706.08 249.14V245.534C706.08 243.079 704.094 241.093 701.645 241.093H649.087C646.639 241.093 644.646 243.079 644.646 245.534V249.14C644.646 251.588 646.639 253.574 649.087 253.574Z" fill="#D4E7FF"/>
<path d="M598.567 253.574H623.355C625.81 253.574 627.796 251.588 627.796 249.14V245.534C627.796 243.079 625.81 241.093 623.355 241.093H598.567C596.118 241.093 594.132 243.079 594.132 245.534V249.14C594.132 251.588 596.118 253.574 598.567 253.574Z" fill="#D4E7FF"/>
<path d="M477.127 253.574H573.843C576.298 253.574 578.284 251.588 578.284 249.14V245.534C578.284 243.079 576.298 241.093 573.843 241.093H477.127C474.679 241.093 472.693 243.079 472.693 245.534V249.14C472.693 251.588 474.679 253.574 477.127 253.574Z" fill="#D4E7FF"/>
<path d="M671.896 277.975H701.646C704.094 277.975 706.08 275.99 706.08 273.535V269.929C706.08 267.474 704.094 265.488 701.646 265.488H671.896C669.448 265.488 667.462 267.474 667.462 269.929V273.535C667.462 275.99 669.448 277.975 671.896 277.975Z" fill="#D4E7FF"/>
<path d="M477.127 277.975H648.419C650.868 277.975 652.854 275.99 652.854 273.535V269.929C652.854 267.474 650.868 265.488 648.419 265.488H477.127C474.679 265.488 472.693 267.474 472.693 269.929V273.535C472.693 275.99 474.679 277.975 477.127 277.975Z" fill="#D4E7FF"/>
<path d="M647.603 299.84H466.003C456.825 299.84 449.357 292.372 449.357 283.195V210.753C449.357 201.575 456.825 194.114 466.003 194.114H669.763C670.926 194.114 671.864 195.052 671.864 196.215C671.864 197.379 670.926 198.323 669.763 198.323H466.003C459.152 198.323 453.573 203.895 453.573 210.753V283.195C453.573 290.052 459.152 295.631 466.003 295.631H647.603C648.766 295.631 649.711 296.569 649.711 297.732C649.711 298.895 648.766 299.84 647.603 299.84Z" fill="#8CCBFF"/>
<path d="M647.14 73.5161H397.359C389.332 73.5161 382.821 80.0264 382.821 88.0534V222.996L422.802 175.033H647.14C655.174 175.033 661.684 168.523 661.684 160.496V88.0534C661.684 80.0264 655.174 73.5161 647.14 73.5161Z" fill="white"/>
<path d="M549.383 106.684H412.089C409.634 106.684 407.648 104.698 407.648 102.249V98.6376C407.648 96.189 409.634 94.2031 412.089 94.2031H549.383C551.832 94.2031 553.818 96.189 553.818 98.6376V102.249C553.818 104.698 551.832 106.684 549.383 106.684Z" fill="#D4E7FF"/>
<path d="M636.6 106.684H576.504C574.055 106.684 572.069 104.698 572.069 102.249V98.6376C572.069 96.189 574.055 94.2031 576.504 94.2031H636.6C639.055 94.2031 641.041 96.189 641.041 98.6376V102.249C641.041 104.698 639.055 106.684 636.6 106.684Z" fill="#D4E7FF"/>
<path d="M462.944 131.079H412.089C409.64 131.079 407.648 129.094 407.648 126.645V123.033C407.648 120.584 409.64 118.599 412.089 118.599H462.944C465.392 118.599 467.378 120.584 467.378 123.033V126.645C467.378 129.094 465.392 131.079 462.944 131.079Z" fill="#D4E7FF"/>
<path d="M595.566 131.079H490.373C487.924 131.079 485.938 129.094 485.938 126.645V123.033C485.938 120.584 487.924 118.599 490.373 118.599H595.566C598.014 118.599 600 120.584 600 123.033V126.645C600 129.094 598.014 131.079 595.566 131.079Z" fill="#D4E7FF"/>
<path d="M636.601 131.079H620.29C617.834 131.079 615.849 129.094 615.849 126.645V123.033C615.849 120.584 617.834 118.599 620.29 118.599H636.601C639.056 118.599 641.041 120.584 641.041 123.033V126.645C641.041 129.094 639.056 131.079 636.601 131.079Z" fill="#D4E7FF"/>
<path d="M521.71 155.483H412.089C409.64 155.483 407.648 153.49 407.648 151.042V147.436C407.648 144.981 409.64 142.996 412.089 142.996H521.71C524.158 142.996 526.144 144.981 526.144 147.436V151.042C526.144 153.49 524.158 155.483 521.71 155.483Z" fill="#D4E7FF"/>
<path d="M636.6 155.483H545.193C542.738 155.483 540.752 153.49 540.752 151.042V147.436C540.752 144.981 542.738 142.996 545.193 142.996H636.6C639.055 142.996 641.041 144.981 641.041 147.436V151.042C641.041 153.49 639.055 155.483 636.6 155.483Z" fill="#D4E7FF"/>
<path d="M647.14 177.134H451.465C450.302 177.134 449.357 176.195 449.357 175.032C449.357 173.869 450.302 172.924 451.465 172.924H647.14C653.998 172.924 659.576 167.352 659.576 160.495V88.0525C659.576 81.1952 653.998 75.6167 647.14 75.6167H397.359C390.508 75.6167 384.929 81.1952 384.929 88.0525V100.443C384.929 101.606 383.985 102.551 382.821 102.551C381.658 102.551 380.713 101.606 380.713 100.443V88.0525C380.713 78.8751 388.181 71.4072 397.359 71.4072H647.14C656.324 71.4072 663.792 78.8751 663.792 88.0525V160.495C663.792 169.672 656.324 177.134 647.14 177.134Z" fill="#8CCBFF"/>
</svg>
