<svg width="13" height="17" viewBox="0 0 13 17" fill="none" xmlns="http://www.w3.org/2000/svg">
<path d="M3.92321 0.587695L3.71429 1.0625H0.928571C0.414955 1.0625 0 1.5373 0 2.125C0 2.7127 0.414955 3.1875 0.928571 3.1875H12.0714C12.585 3.1875 13 2.7127 13 2.125C13 1.5373 12.585 1.0625 12.0714 1.0625H9.28571L9.07679 0.587695C8.92009 0.225781 8.59799 0 8.24687 0H4.75313C4.40201 0 4.07991 0.225781 3.92321 0.587695ZM12.0714 4.25H0.928571L1.54375 15.5059C1.59018 16.3459 2.19955 17 2.93371 17H10.0663C10.8004 17 11.4098 16.3459 11.4562 15.5059L12.0714 4.25Z" fill="white"/>
</svg>
