<svg width="68" height="68" viewBox="0 0 68 68" fill="none" xmlns="http://www.w3.org/2000/svg">
<path d="M33.94 2C16.3 2 2 16.3 2 33.94C2 51.5798 16.3 65.88 33.94 65.88C51.5798 65.88 65.88 51.5798 65.88 33.94C65.88 16.3 51.5798 2 33.94 2Z" stroke="white" stroke-width="2.916" stroke-linecap="round" stroke-linejoin="round"/>
<path d="M9.25537 54.2078C9.25537 54.2078 16.3749 45.1187 33.9418 45.1187C51.5088 45.1187 58.6285 54.2078 58.6285 54.2078" stroke="white" stroke-width="2.916" stroke-linecap="round" stroke-linejoin="round"/>
<path d="M33.9389 33.9399C39.2311 33.9399 43.5209 29.65 43.5209 24.3579C43.5209 19.0659 39.2311 14.7759 33.9389 14.7759C28.6468 14.7759 24.3569 19.0659 24.3569 24.3579C24.3569 29.65 28.6468 33.9399 33.9389 33.9399Z" stroke="white" stroke-width="2.916" stroke-linecap="round" stroke-linejoin="round"/>
</svg>
