<svg width="460" height="419" viewBox="0 0 460 419" fill="none" xmlns="http://www.w3.org/2000/svg">
<path d="M145.106 216.885C142.466 217.134 139.716 217.225 139.385 216.392C138.47 214.07 135.254 213.384 135.59 213.092C135.724 212.979 136.864 213.035 138.762 213.35C139.696 213.507 142.48 214.327 143.405 214.506C143.879 214.598 144.277 214.746 144.613 214.903C145.973 215.536 148.312 215.733 150.109 216.121C151.077 216.335 151.886 216.833 152.303 216.955C151.819 216.427 151.091 216.239 150.698 216.104C149.998 215.864 149.39 215.624 148.753 215.523C147.689 215.353 147.028 215.296 146.251 214.951C144.383 214.113 143.333 213.716 141.522 213.463C141.599 213.28 144.78 213.04 146.141 213.092C147.559 213.144 149.883 213.467 151.604 213.384C152.222 213.35 152.754 213.254 153.338 213.197C153.923 213.14 154.627 213.293 155.274 213.424C154.713 213.114 153.563 213.005 152.687 213.027C151.805 213.053 151 213.166 150.066 213.118C148.7 213.048 147.363 212.647 145.993 212.56C144.191 212.446 142.806 212.909 141.004 212.808C139.998 212.747 139.064 212.477 138.053 212.35C135.532 212.036 131.349 212.52 127.717 212.333C125.839 212.232 123.697 212.267 122.097 211.844C120.798 211.503 118.139 209.984 117.995 209.779C117.597 209.199 119.408 208.771 120.798 208.898C122.188 209.024 123.242 209.19 124.636 209.312C126.323 209.461 128.124 209.408 129.811 209.339C131.201 209.277 134.095 209.186 135.489 209.291C137.919 209.469 138.872 209.832 141.302 210.019C139.931 209.749 138.537 209.496 137.186 209.208C135.561 208.854 133.271 208.906 132.332 208.911C122.887 208.954 123.314 207.488 117.679 207.169C115.062 207.025 110.491 206.977 107.87 207.051C106.15 207.099 104.43 207.449 102.705 207.462C101.813 207.466 100.927 207.47 100.036 207.479C99.6093 207.479 99.0774 206.925 98.9049 207.069C98.0951 206.995 95.9964 207.366 95.8909 207.374C94.7074 207.457 93.3705 207.414 92.2397 207.58C91.3293 207.711 89.6761 208.073 89.1539 208.448C87.8841 208.941 86.643 209.5 85.0426 209.753C84.367 209.858 83.653 209.906 83.0014 210.041C81.5686 210.329 80.663 210.975 79.2974 211.329C77.9653 211.678 76.3553 211.713 74.8555 211.678C73.3557 211.643 71.8559 211.543 70.3466 211.665C68.842 211.783 67.2703 212.176 66.7001 212.787C68.0609 212.031 70.6053 211.949 72.6993 212.071C74.7932 212.189 77.0405 212.416 79.0195 211.997C80.4857 211.687 81.5543 211.058 83.0876 210.818C83.6291 210.735 84.3047 210.722 84.6449 210.905C84.9564 211.071 84.7839 211.311 84.6784 211.525C84.137 212.581 83.078 212.721 81.9232 213.206C81.0895 213.555 80.1839 213.712 79.1536 213.939C77.4286 214.319 75.4832 214.576 73.6049 214.729C71.7314 214.882 69.7572 215.143 68.4203 215.754C67.6489 216.104 67.1553 216.544 66.4366 216.911C64.7882 217.758 62.4068 218.343 61.688 219.364C61.2759 219.94 61.228 220.442 61.1945 221.027C61.1657 221.594 60.6914 222.175 59.8672 222.655C60.8111 222.083 61.6641 221.682 62.0426 221.023C62.4595 220.289 62.2055 219.565 63.3555 218.962C64.3474 218.443 66.1059 217.692 67.2032 217.208C67.898 216.898 68.3676 216.688 69.0097 216.361C70.4472 215.624 72.2009 215.51 74.3332 215.257C76.4607 215.004 79.0722 214.572 81.1182 214.201C83.1691 213.83 85.2439 212.948 85.8716 212.04C86.1591 211.626 86.0297 211.403 86.3507 210.993C86.9305 210.259 88.4686 209.718 90.0691 209.352C91.6743 208.989 92.4266 208.61 95.1818 208.583C95.7759 208.575 98.833 208.317 100.103 208.998C100.793 209.369 100.055 209.819 99.4799 210.233C98.1622 211.189 95.7328 211.735 93.5718 212.354C91.4155 212.979 89.2545 213.852 89.1203 214.947C89.0436 215.567 89.1491 216.147 89.8295 216.767C90.438 217.321 91.1759 217.784 88.8664 218.151C87.6493 218.347 85.5409 218.264 84.3574 218.5C83.0972 218.753 82.5222 219.299 81.5016 219.709C80.1024 220.272 78.1953 220.276 76.3314 220.39C73.4755 220.56 70.9264 221.52 69.968 222.672C70.5382 222.205 71.7841 221.926 72.8095 221.603C75.1239 220.865 78.1426 221.088 79.9634 220.83C79.2878 221.682 80.2605 223.087 80.7301 223.938C81.2476 224.881 80.3324 224.894 80.1455 226.068C80.0066 226.893 80.8068 227.849 82.6084 228.124C81.5111 227.748 81.2524 227.072 81.4009 226.461C81.5495 225.854 82.0191 225.252 82.0622 224.645C82.1484 223.384 80.1599 221.913 81.8466 220.848C83.0876 220.067 83.423 219.451 85.3972 219.133C88.3057 218.666 91.3868 218.967 92.3451 217.911C92.762 217.448 91.933 216.811 91.7078 216.335C90.4141 213.563 96.3557 212.909 96.8205 213.101C97.477 213.367 96.0107 214.24 97.0409 215.043C97.7309 215.58 99.432 215.82 99.8153 216.418C100.17 216.972 99.0199 217.5 98.6845 218.063C97.9801 219.237 100.826 220.42 99.8536 221.559C98.9289 222.655 95.4932 222.76 93.1597 223.362C89.6953 224.257 89.0341 226.631 91.9282 227.779C89.978 226.225 90.7447 224.392 94.0126 223.916C95.4453 223.707 97.1607 223.519 98.4641 223.183C99.7386 222.856 100.62 221.847 102.091 221.817C103.189 221.795 103.994 222.978 104.521 223.388C105.053 223.798 105.316 224.265 105.872 224.667C106.773 225.33 108.483 225.898 108.249 226.662C108.134 227.041 107.985 227.321 107.966 227.775C109.145 227.072 109.25 226.068 108.22 225.335C107.587 224.885 106.581 224.532 106.231 224.025C106.001 223.698 105.124 222.341 104.775 222.031C103.505 220.909 102.034 221.145 101.099 219.962C99.178 217.531 103.28 217.631 102.388 216.527C101.607 215.554 98.3155 215.043 98.6318 214.013C98.8474 213.302 100.716 212.904 101.497 212.267C101.833 211.988 101.957 211.669 102.307 211.394C102.906 210.923 104.204 210.63 105.446 210.687C106.682 210.748 106.988 211.342 107.314 211.857C108.023 212.992 105.997 213.952 106.739 215.082C106.969 215.431 107.539 215.754 107.487 216.117C107.434 216.462 106.84 216.741 106.457 217.046C105.575 217.745 105.834 218.67 107.075 219.25C108.34 219.84 110.299 220.019 111.957 220.394C113.611 220.765 115.129 221.577 114.382 222.31C115.398 221.686 115.249 220.765 114.037 220.211C113.026 219.748 111.517 219.578 110.218 219.277C108.919 218.98 107.688 218.404 108.038 217.788C108.34 217.247 109.734 216.894 109.883 216.344C109.945 216.112 109.954 215.855 109.739 215.641C107.88 213.795 110.247 212.193 115.503 214.122C117.252 214.764 115.8 215.925 117.176 216.383C118.747 216.907 122.868 216.239 123.774 217.003C124.627 217.714 121.598 219.045 121.68 219.848C121.761 220.652 123.529 221.258 123.927 222.044C124.478 223.131 122.298 224.117 121.867 225.217C121.488 226.168 122.576 227.194 124.492 227.696C122.782 227.146 122.873 226.024 123.577 225.16C124.277 224.292 125.432 223.454 125.283 222.541C125.149 221.708 123.951 220.97 123.582 220.15C123.213 219.333 124.363 218.478 126.299 218.369C130.966 218.098 129.207 220.398 131.206 221.297C133.084 222.14 137.895 222.685 137.89 224.248C137.89 224.959 137.717 225.876 136.266 226.234C139.136 225.623 140.037 223.846 137.995 222.773C136.313 221.887 131.028 220.857 131.891 220.001C131.613 220.276 136.649 220.516 140.755 220.088C143.17 219.835 145.696 220.49 146.376 221.498C145.806 220.652 144.574 219.988 142.806 219.761C141.043 219.539 139.725 219.718 137.904 219.748C136.083 219.774 133.587 219.888 132.298 219.325C131.354 218.914 131.402 218.076 130.271 217.758C129.231 217.461 127.803 217.487 126.85 217.142C126.102 216.876 125.82 216.44 125.187 216.125C123.29 215.174 118.651 216.518 118.532 215.292C118.373 213.725 116.117 212.913 113.855 212.629C112.369 212.446 110.86 212.141 110.065 211.573C109.264 211.006 109.423 210.163 110.702 209.792C111.991 209.426 113.807 209.666 114.971 210.111C116.136 210.556 116.883 211.163 117.875 211.678C120.242 212.913 124.655 213.358 128.316 213.21C129.389 213.153 135.925 212.983 137.478 215.964C137.871 216.715 138.676 217.54 140.338 217.867C142.332 218.26 144.938 217.155 146.889 217.596C148.503 217.959 148.786 219.312 149.744 219.953C150.823 220.673 152.917 220.887 154.737 221.271C151.963 220.686 150.545 219.744 149.658 218.88C148.647 217.906 148.077 216.606 145.106 216.885Z" fill="#5A789F"/>
<mask id="mask0_1643_1064" style="mask-type:luminance" maskUnits="userSpaceOnUse" x="70" y="207" width="77" height="29">
<path d="M70.5767 207.824H146.572V235.028H70.5767V207.824Z" fill="white"/>
</mask>
<g mask="url(#mask0_1643_1064)">
<path d="M78.8903 220.521C80.9843 220.913 83.1693 221.075 83.4328 219.962C84.1516 216.876 86.7055 216.021 86.4372 215.628C86.3318 215.471 85.4261 215.527 83.9216 215.912C83.1788 216.099 80.9699 217.142 80.232 217.361C79.8582 217.474 79.5468 217.662 79.2784 217.867C78.1955 218.687 76.3363 218.897 74.9132 219.381C74.1418 219.643 73.4997 220.298 73.1691 220.455C73.5476 219.748 74.1322 219.517 74.4436 219.342C74.9995 219.028 75.4786 218.722 75.9866 218.6C76.8299 218.399 77.357 218.343 77.9751 217.893C79.4557 216.806 80.2895 216.3 81.727 216.003C81.6647 215.759 79.1395 215.362 78.0566 215.392C76.9257 215.423 75.0809 215.794 73.7153 215.619C73.217 215.558 72.7953 215.405 72.3305 215.309C71.8609 215.209 71.3051 215.397 70.7876 215.554C71.2332 215.152 72.1484 215.043 72.848 215.104C73.5476 215.165 74.1945 215.344 74.9324 215.309C76.0201 215.257 77.0838 214.755 78.1716 214.676C79.6043 214.576 80.7063 215.231 82.1391 215.135C82.9345 215.078 83.682 214.733 84.4822 214.589C86.4851 214.222 89.8057 214.943 92.6855 214.729C94.1805 214.62 95.8768 214.681 97.1466 214.135C98.172 213.694 100.285 211.717 100.4 211.451C100.716 210.687 99.2788 210.115 98.1768 210.268C97.0699 210.421 96.2409 210.63 95.1341 210.779C93.7972 210.953 92.3645 210.857 91.0228 210.735C89.9207 210.635 87.6255 210.456 86.5138 210.561C84.5828 210.744 83.8305 211.202 81.8995 211.394C82.9872 211.063 84.0941 210.766 85.1674 210.408C86.4563 209.98 88.2772 210.102 89.0247 210.124C96.5236 210.342 96.1834 208.383 100.654 208.025C102.729 207.859 106.356 207.811 108.431 207.903C109.797 207.964 111.162 208.409 112.528 208.418C113.232 208.422 113.937 208.422 114.641 208.422C114.981 208.422 115.403 207.693 115.537 207.881C116.179 207.776 117.511 208.278 117.679 208.243C117.756 208.226 117.842 208.234 117.923 208.243C118.862 208.339 119.926 208.269 120.817 208.461C121.541 208.618 122.849 209.064 123.261 209.535C124.272 210.155 125.25 210.857 126.519 211.15C127.051 211.272 127.622 211.32 128.134 211.473C129.27 211.818 129.989 212.629 131.067 213.053C132.121 213.472 133.396 213.472 134.589 213.38C135.777 213.288 136.965 213.114 138.163 213.214C139.361 213.319 140.602 213.773 141.053 214.545C139.974 213.616 137.957 213.598 136.294 213.817C134.632 214.039 132.849 214.397 131.282 213.908C130.123 213.546 129.275 212.76 128.067 212.485C127.636 212.389 127.099 212.385 126.826 212.629C126.582 212.852 126.716 213.162 126.802 213.441C127.224 214.79 128.062 214.951 128.978 215.549C129.634 215.981 130.353 216.156 131.167 216.427C132.533 216.876 134.076 217.151 135.561 217.291C137.052 217.435 138.614 217.705 139.673 218.452C140.281 218.879 140.669 219.429 141.235 219.883C142.538 220.918 144.426 221.59 144.996 222.886C145.317 223.615 145.351 224.265 145.375 225.025C145.399 225.762 145.768 226.496 146.419 227.085C145.672 226.382 145.001 225.898 144.704 225.051C144.378 224.117 144.579 223.17 143.669 222.428C142.888 221.791 141.498 220.883 140.631 220.289C140.08 219.918 139.706 219.656 139.203 219.255C138.067 218.347 136.673 218.264 134.986 217.998C133.3 217.732 131.23 217.243 129.61 216.815C127.986 216.387 126.347 215.292 125.853 214.131C125.623 213.598 125.729 213.306 125.475 212.778C125.02 211.844 123.803 211.176 122.533 210.726C121.268 210.281 120.669 209.806 118.484 209.806C118.019 209.806 115.594 209.504 114.583 210.403C114.037 210.888 114.622 211.464 115.077 212.001C116.117 213.227 118.038 213.908 119.749 214.681C121.459 215.453 123.165 216.549 123.266 217.963C123.328 218.766 123.242 219.521 122.701 220.337C122.217 221.066 121.627 221.682 123.458 222.114C124.421 222.341 126.088 222.183 127.027 222.463C128.024 222.764 128.479 223.454 129.284 223.96C130.391 224.649 131.901 224.606 133.376 224.697C135.638 224.837 137.655 226.007 138.408 227.46C137.957 226.88 136.975 226.552 136.16 226.164C134.33 225.287 131.939 225.658 130.497 225.374C131.028 226.456 130.257 228.298 129.878 229.416C129.462 230.651 130.19 230.642 130.334 232.161C130.434 233.222 129.797 234.483 128.374 234.884C129.246 234.369 129.452 233.488 129.337 232.702C129.222 231.917 128.853 231.153 128.819 230.363C128.757 228.735 130.338 226.779 129.006 225.444C128.029 224.462 127.765 223.676 126.198 223.31C123.898 222.773 121.459 223.218 120.702 221.865C120.372 221.276 121.033 220.433 121.21 219.809C122.245 216.2 117.545 215.445 117.176 215.698C116.653 216.051 117.808 217.164 116.994 218.216C116.443 218.928 115.096 219.259 114.794 220.045C114.512 220.769 115.417 221.442 115.681 222.17C116.237 223.685 113.984 225.265 114.746 226.731C115.475 228.141 118.196 228.22 120.041 228.953C122.782 230.048 123.295 233.108 120.999 234.662C122.547 232.597 121.948 230.245 119.366 229.691C118.23 229.446 116.874 229.228 115.844 228.818C114.833 228.416 114.138 227.12 112.973 227.098C112.106 227.085 111.464 228.639 111.047 229.18C110.63 229.721 110.415 230.332 109.979 230.865C109.26 231.738 107.909 232.501 108.091 233.501C108.182 233.994 108.302 234.352 108.311 234.95C107.382 234.046 107.305 232.737 108.119 231.764C108.618 231.17 109.418 230.694 109.696 230.035C109.878 229.599 110.573 227.818 110.851 227.412C111.862 225.937 113.021 226.221 113.764 224.671C115.293 221.485 112.049 221.668 112.753 220.219C113.376 218.941 115.983 218.238 115.738 216.902C115.566 215.981 114.09 215.488 113.472 214.663C113.203 214.305 113.108 213.895 112.83 213.537C112.355 212.926 111.33 212.555 110.348 212.638C109.365 212.721 109.121 213.502 108.862 214.174C108.297 215.654 109.902 216.898 109.308 218.373C109.126 218.831 108.675 219.255 108.718 219.731C108.757 220.18 109.226 220.538 109.528 220.931C110.228 221.834 110.022 223.048 109.035 223.811C108.038 224.593 106.481 224.85 105.173 225.348C103.86 225.85 102.657 226.919 103.246 227.879C102.441 227.067 102.561 225.858 103.524 225.125C104.324 224.514 105.518 224.278 106.548 223.877C107.578 223.475 108.551 222.716 108.278 221.913C108.043 221.215 106.936 220.761 106.821 220.045C106.768 219.739 106.763 219.408 106.936 219.124C108.412 216.706 106.538 214.628 102.369 217.151C100.98 217.993 102.13 219.517 101.042 220.119C99.7963 220.809 96.5284 219.923 95.8097 220.922C95.1341 221.865 97.5347 223.624 97.4724 224.676C97.4053 225.732 96.0061 226.535 95.6899 227.569C95.2491 229.01 96.9788 230.297 97.3191 231.746C97.6161 232.995 96.7584 234.352 95.2395 235.028C96.5907 234.291 96.5188 232.816 95.9678 231.681C95.412 230.542 94.4968 229.433 94.6166 228.228C94.722 227.133 95.6707 226.155 95.963 225.077C96.2553 223.995 95.3449 222.873 93.8116 222.716C90.1124 222.341 91.5068 225.396 89.9207 226.583C88.4353 227.692 84.6211 228.394 84.6259 230.485C84.6307 231.432 84.7649 232.658 85.9149 233.139C83.6436 232.322 82.9297 229.931 84.5397 228.508C85.8766 227.334 90.0645 225.994 89.3793 224.855C89.5997 225.226 85.6082 225.518 82.3499 224.894C80.4332 224.527 78.4303 225.365 77.8936 226.718C78.3441 225.583 79.3216 224.711 80.7207 224.431C82.1199 224.156 83.1693 224.414 84.6116 224.471C86.0586 224.527 88.0376 224.697 89.0534 223.956C89.8057 223.414 89.7674 222.306 90.6634 221.887C91.4876 221.503 92.6184 221.546 93.3755 221.097C93.9649 220.748 94.1901 220.176 94.6932 219.761C96.1978 218.522 99.873 220.302 99.9688 218.687C100.093 216.623 101.886 215.567 103.678 215.2C104.856 214.956 106.049 214.554 106.687 213.808C107.319 213.07 107.195 211.97 106.184 211.486C105.163 211.006 103.721 211.316 102.796 211.896C101.871 212.477 101.282 213.271 100.491 213.943C98.6128 215.554 95.1197 216.121 92.2111 215.881C91.363 215.807 86.1736 215.475 84.9422 219.425C84.6355 220.416 83.9934 221.511 82.6757 221.926C81.0945 222.424 79.0245 220.896 77.472 221.446C76.1926 221.9 75.9722 223.729 75.2103 224.58C74.3622 225.535 72.6947 225.789 71.2524 226.273C73.4518 225.535 74.5778 224.274 75.2774 223.126C76.0776 221.826 76.528 220.084 78.8903 220.521Z" fill="#5A789F"/>
</g>
<path d="M137.967 162.275L138.345 162.144L138.518 162.197C140.257 162.694 141.781 163.056 143.18 163.292C144.555 163.515 145.954 163.676 147.368 163.772C146.956 163.716 146.549 163.654 146.146 163.589C144.57 163.331 142.734 162.886 140.684 162.262L139.256 161.83L141.038 161.228C146.314 159.469 149.725 157.252 151.92 155.244C150.066 156.37 147.905 157.339 145.791 158.199L144.848 158.583L145.058 157.662C145.379 156.27 145.806 155.104 146.338 154.196C146.055 154.563 145.791 154.96 145.557 155.384C145.092 156.208 144.709 157.265 144.416 158.522L144.359 158.766L144.105 158.866C141.091 160.014 137.828 161.132 134.675 162.21C131.517 163.292 128.532 164.313 125.983 165.3L124.516 165.867L125.317 164.615C125.887 163.724 126.361 162.895 126.769 162.079C127.339 160.922 127.933 159.456 128.561 157.902L128.724 157.5L129.059 157.474C130.765 157.348 132.164 157.156 133.333 156.889C133.726 156.798 134.109 156.702 134.478 156.597C133.165 156.854 131.551 157.033 129.663 157.129L128.858 157.169L129.14 156.479C130.295 153.664 132.054 149.382 134.924 145.851C133.046 147.457 131.22 149.544 129.979 152.18C129.835 152.477 129.701 152.769 129.567 153.062L128.963 154.38L128.57 153C128.11 151.399 127.847 149.963 127.789 148.728C127.751 147.951 127.751 146.903 127.875 145.685C127.506 147.296 127.305 149.12 127.463 151.098C127.569 152.376 127.875 153.847 128.388 155.475L128.436 155.632L128.321 155.903C126.716 159.656 125.575 162.969 122.087 166.806L121.512 167.207C119.524 168.172 117.545 169.311 115.628 170.59L114.976 171.031L114.804 170.306C114.214 167.879 113.956 165.732 114.037 163.925C114.085 162.834 114.243 161.28 114.665 159.478C113.874 161.581 113.28 164.052 113.251 166.753C113.232 168.154 113.414 169.769 113.793 171.55L113.855 171.834L113.611 172.017C111.368 173.676 109.725 175.164 108.742 176.115L108.071 176.766L107.841 175.901C107.492 174.583 107.171 173.008 106.917 171.742C106.691 170.638 106.5 169.682 106.37 169.315C105.767 167.578 106.883 156.981 109.289 150.225L109.327 150.115L109.672 149.806C110.927 148.666 111.914 147.767 113.16 146.707L113.812 146.135C116.457 143.822 120.257 140.505 123.611 136.288C122.169 137.956 120.496 139.623 118.556 141.194C115.872 143.385 113.385 145.467 111.157 147.379L109.643 148.531C109.921 147.798 110.855 145.41 111.133 144.699C112.24 141.84 114.162 136.895 114.871 130.92C114.555 132.797 114.075 134.73 113.366 136.668L113.098 137.401L112.058 136.467C110.716 135.263 109.557 134.22 108.733 132.941C108.388 132.404 108.048 131.854 107.726 131.278C108.148 132.168 108.685 133.107 109.365 134.08C109.988 134.97 111.119 136.245 112.643 137.768L112.858 137.986L112.039 140.02C107.789 150.613 104.713 158.264 103.749 164.13L103.539 165.418L102.781 164.313C100.879 161.551 99.0967 158.509 97.4723 155.27L97.3525 155.026L97.5154 154.803C98.6031 153.31 99.4417 151.936 100.007 150.718C101.272 148.02 101.718 145.498 101.775 143.359C101.425 145.424 100.807 147.152 100.314 148.304C99.7052 149.727 98.7085 151.381 97.3621 153.21L96.8206 153.948L96.4421 153.131C94.9758 149.998 93.639 146.654 92.4698 143.202L92.3979 142.975L92.5465 142.783C93.6725 141.321 94.4727 140.059 94.995 138.933C95.4598 137.921 95.7713 136.948 95.9677 136.027C95.8048 136.524 95.6371 136.956 95.4838 137.31C94.9663 138.532 94.075 139.972 92.8388 141.591L92.2063 142.416L91.8948 141.452C90.4573 136.943 89.4942 132.871 88.8713 129.667C89.0006 131.557 89.2833 133.831 89.8535 136.533L90.0931 137.685L89.0342 137.022C86.7054 135.564 84.9517 134.246 83.6675 132.989C83.6004 132.919 83.5285 132.849 83.4567 132.775C84.046 133.478 84.7073 134.176 85.4452 134.861C86.6288 135.961 88.1573 137.1 90.1171 138.349L90.2896 138.458L90.3327 138.641C91.1713 142.067 92.3788 145.808 93.9217 149.758L94.3194 150.779L93.2221 150.36C88.8904 148.719 78.2913 144.415 73.4181 139.924C73.3031 139.815 73.1833 139.702 73.0683 139.588C73.6865 140.304 74.386 141.015 75.1719 141.705C79.8054 145.76 88.0135 149.509 94.0031 152.25L94.329 152.398L94.4008 152.573C94.6404 153.14 94.88 153.721 95.1292 154.314C96.514 157.657 98.0808 161.446 100.218 165.531L100.683 166.422L99.6285 166.208C96.5858 165.592 94.6788 164.855 92.4698 163.999L92.0769 163.846C89.2115 162.742 86.5185 161.402 84.1083 159.91C86.7725 161.996 90.4333 164.27 95.1915 166.016C95.939 166.291 96.5235 166.553 97.089 166.806C98.1335 167.273 99.0392 167.674 100.678 168.028L100.922 168.08L101.033 168.281C101.229 168.639 102.671 175.949 102.686 176.019L102.853 176.844C102.901 176.975 101.814 176.46 101.823 176.464C101.684 176.377 100.779 175.941 99.7244 175.434C93.1023 172.257 75.4977 163.812 68.7463 156.51C67.9604 155.615 67.2273 154.585 66.5708 153.45C67.5004 155.288 68.7558 157.182 70.4425 158.997C74.4052 163.292 80.481 166.539 86.3604 169.682L88.4592 171.039L86.4035 170.786C76.4944 169.232 67.7975 166.919 60.4375 163.886C63.3029 165.248 67.256 166.779 72.7665 168.325L74.1033 168.696L72.7808 169.237C71.8417 169.529 70.9648 169.747 70.1694 169.896C69.5081 170.018 68.8373 170.118 68.1569 170.197C69.8292 170.149 71.4775 169.966 73.0588 169.656C73.2983 169.612 74.8604 169.019 75.0138 168.953C79.7431 170.241 85.4644 171.585 92.5081 173.06L92.5944 173.078L92.671 173.121C93.6917 173.71 94.5925 174.252 95.4215 174.784L96.5906 175.535L95.1675 175.657C93.7731 175.775 92.3835 176.107 91.0467 176.648C90.3663 176.923 89.7242 177.298 89.0438 177.691C88.5263 177.992 87.9896 178.306 87.4098 178.586C84.7313 179.886 81.7748 180.371 79.6185 180.724C78.4015 180.921 77.1413 181.073 75.8715 181.174C75.8858 181.174 75.8954 181.174 75.9098 181.174C78.2338 181.174 80.5481 180.977 82.781 180.593L82.8194 180.585L84.621 180.332L83.2363 181.44C81.5783 182.579 79.7431 183.758 77.6875 184.6C78.7848 184.264 80.0642 183.78 81.5544 183.09C82.4456 182.68 83.3704 182.226 84.2665 181.785C88.1094 179.899 92.0817 177.948 95.5844 177.948C98.0329 177.948 100.026 178.93 101.516 180.868C102.968 182.754 103.313 185.207 103.448 186.891C104.061 194.556 102.58 203.516 98.009 207.287C99.0104 207.37 100.29 207.981 101.263 207.981C101.531 207.981 102.652 208.47 102.853 208.457C107.156 208.186 110.63 207.671 114.861 207.492C114.056 205.236 111.517 197.087 112.293 191.858C113.601 183.046 120.923 182.029 126.323 182.029C126.908 182.029 127.526 182.042 128.254 182.064L128.47 182.073L128.618 182.213C129.394 182.959 130.161 183.601 130.894 184.12C132.159 185.015 133.491 185.748 134.775 186.346C133.97 185.835 133.276 185.36 132.72 184.98C132.059 184.53 131.34 183.897 130.458 183.003L129.586 182.112L130.889 182.204C131.369 182.234 131.857 182.269 132.351 182.304C133.908 182.418 135.513 182.536 137.238 182.588C138.067 182.623 138.877 182.636 139.634 182.636C140.712 182.636 141.666 182.605 142.509 182.549C139.256 182.549 135.777 182.016 132.413 181.497C130.084 181.143 127.679 180.772 125.422 180.593L123.51 180.441L125.24 179.681C125.959 179.367 126.63 179.026 127.262 178.677C125.59 179.358 124.1 179.773 123.041 180.017C121.929 180.27 119.658 180.672 118.805 180.825C118.671 180.847 118.508 180.877 118.508 180.877C114.962 181.567 112.739 182.981 111.498 184.05L110.812 184.639L110.578 183.618C110.261 182.256 109.983 181.078 110.324 180.192C111.656 176.713 117.564 171.781 121.34 169.389L121.531 169.272L123.05 169.586C129.744 170.965 138.077 172.685 144.426 172.685C144.804 172.68 145.173 172.676 145.538 172.663C140.065 172.427 132.14 171.039 123.874 168.844L122.71 168.534L123.75 167.971C128.034 165.645 132.634 164.087 137.967 162.275Z" fill="#5A789F"/>
<path d="M86.3025 114.898C86.3025 114.911 82.6273 119.419 88.1042 122.811C88.1042 122.824 91.8321 118.485 86.3025 114.898Z" fill="#5A789F"/>
<path d="M48.1226 151.076C48.1274 151.093 47.6913 154.716 52.852 154.436C52.8567 154.454 53.3742 150.744 48.1226 151.076Z" fill="#5A789F"/>
<path d="M53.5996 147.353C53.6044 147.366 53.3792 150.26 57.5192 149.993C57.524 150.006 57.8258 147.069 53.5996 147.353Z" fill="#5A789F"/>
<path d="M91.2526 116.255C91.2526 116.255 88.6699 118.398 91.1185 120.82C91.1185 120.82 93.706 118.8 91.2526 116.255Z" fill="#5A789F"/>
<path d="M93.0209 114.88C93.0161 114.88 92.3309 116.561 94.4056 117.743C94.5398 117.202 95.1052 116.098 93.0209 114.88Z" fill="#5A789F"/>
<path d="M107.736 114.095C107.736 114.081 102.508 117.049 106.106 122.195C106.106 122.178 111.301 119.476 107.736 114.095Z" fill="#5A789F"/>
<path d="M113.241 113.226C113.241 113.226 109.605 117.276 115.149 121.397C115.149 121.397 118.838 117.578 113.241 113.226Z" fill="#5A789F"/>
<path d="M82.5603 120.794C82.5603 120.816 79.8865 125.678 86.1205 128.118C86.1205 128.14 88.8853 123.361 82.5603 120.794Z" fill="#5A789F"/>
<path d="M94.1563 119.921C94.1515 119.899 88.1859 122.204 90.1265 127.716C90.1265 127.695 95.9963 125.643 94.1563 119.921Z" fill="#5A789F"/>
<path d="M99.0055 120.921C99.0007 120.908 94.578 122.483 96.0107 126.617C96.0107 126.603 100.362 125.198 99.0055 120.921Z" fill="#5A789F"/>
<path d="M110.496 122.047C110.496 122.034 106.064 123.343 107.482 127.564C107.482 127.551 111.843 126.394 110.496 122.047Z" fill="#5A789F"/>
<path d="M98.5884 113.715C98.5884 113.697 94.1561 115.29 95.5889 119.419C95.5889 119.406 99.9493 117.983 98.5884 113.715Z" fill="#5A789F"/>
<path d="M102.221 128.376C102.221 128.358 97.4865 128.904 97.5153 133.255C97.5153 133.242 102.13 132.81 102.221 128.376Z" fill="#5A789F"/>
<path d="M111.603 124.338C111.603 124.343 109.48 127.027 113.366 129.131C113.366 129.135 115.537 126.564 111.603 124.338Z" fill="#5A789F"/>
<path d="M61.9084 129.986C61.9084 129.999 61.0268 133.211 65.392 133.19C65.3968 133.203 66.3503 129.973 61.9084 129.986Z" fill="#5A789F"/>
<path d="M100.797 134.006C100.797 133.993 96.734 134.298 96.9784 137.96C96.9784 137.951 100.946 137.742 100.797 134.006Z" fill="#5A789F"/>
<path d="M119.849 119.817C119.849 119.799 115.776 119.699 116.002 123.374C116.002 123.361 119.984 123.54 119.849 119.817Z" fill="#5A789F"/>
<path d="M105.575 134.294C105.575 134.285 102.288 134.66 102.777 137.624C102.777 137.62 105.987 137.327 105.575 134.294Z" fill="#5A789F"/>
<path d="M105.599 128.109C105.599 128.118 105.431 125.438 101.693 125.582C101.693 125.591 101.775 128.149 105.599 128.109Z" fill="#5A789F"/>
<path d="M106.337 131.304C106.337 131.313 106.193 128.978 102.935 129.087C102.935 129.091 103.002 131.33 106.337 131.304Z" fill="#5A789F"/>
<path d="M107.568 133.146C107.568 133.15 106.729 131.4 104.291 132.129C104.291 132.129 105.057 133.818 107.568 133.146Z" fill="#5A789F"/>
<path d="M110.419 137.231C110.419 137.236 109.298 134.883 106.044 135.826C106.044 135.835 107.065 138.091 110.419 137.231Z" fill="#5A789F"/>
<path d="M103.289 131.256C103.284 131.252 100.237 132.321 101.66 135.071C101.66 135.062 104.674 134.102 103.289 131.256Z" fill="#5A789F"/>
<path d="M111.78 120.275C111.78 120.279 110.448 122.636 113.86 124.02C113.855 124.024 115.24 121.741 111.78 120.275Z" fill="#5A789F"/>
<mask id="mask1_1643_1064" style="mask-type:luminance" maskUnits="userSpaceOnUse" x="100" y="112" width="5" height="5">
<path d="M100.586 112.165H104.266V116.203H100.586V112.165Z" fill="white"/>
</mask>
<g mask="url(#mask1_1643_1064)">
<path d="M101.147 112.24C101.147 112.244 99.8244 114.679 103.246 115.88C103.246 115.884 104.621 113.518 101.147 112.24Z" fill="#5A789F"/>
</g>
<path d="M81.4728 116.622C81.4728 116.63 80.1647 119.179 83.5667 120.009C83.5667 120.013 84.9228 117.512 81.4728 116.622Z" fill="#5A789F"/>
<path d="M99.4509 143.717C99.4509 143.717 101.938 141.09 98.3536 138.885C98.3488 138.89 95.8428 141.413 99.4509 143.717Z" fill="#5A789F"/>
<path d="M105.038 124.735C105.038 124.744 105.8 121.51 101.291 120.82C101.286 120.829 100.443 123.915 105.038 124.735Z" fill="#5A789F"/>
<path d="M103.169 141.203C103.169 141.194 106.701 141.046 106.519 137.868C106.519 137.86 103.064 137.934 103.169 141.203Z" fill="#5A789F"/>
<path d="M89.3356 156.047C89.3356 156.038 92.8383 155.698 92.6466 152.529C92.6466 152.525 89.2158 152.795 89.3356 156.047Z" fill="#5A789F"/>
<path d="M96.993 129.117C96.993 129.109 100.529 128.86 100.342 125.687C100.342 125.678 96.878 125.853 96.993 129.117Z" fill="#5A789F"/>
<path d="M99.0963 119.847C99.0963 119.834 102.647 119.62 102.46 116.447C102.46 116.434 98.9861 116.578 99.0963 119.847Z" fill="#5A789F"/>
<path d="M96.351 143.887C96.351 143.896 94.6835 147.091 99.1014 148.531C99.1014 148.54 100.831 145.424 96.351 143.887Z" fill="#5A789F"/>
<path d="M91.7893 131.247C91.7845 131.256 90.1218 134.486 94.5493 135.821C94.5493 135.83 96.2839 132.666 91.7893 131.247Z" fill="#5A789F"/>
<path d="M92.6276 127.9C92.6276 127.908 91.6596 130.693 95.5313 131.431C95.5313 131.439 96.5663 128.698 92.6276 127.9Z" fill="#5A789F"/>
<path d="M109.959 128.493C109.954 128.498 108.272 131.588 112.7 133.303C112.7 133.312 114.454 130.313 109.959 128.493Z" fill="#5A789F"/>
<path d="M110.692 156.147C110.692 156.147 108.589 158.875 112.441 160.909C112.441 160.909 114.588 158.299 110.692 156.147Z" fill="#5A789F"/>
<path d="M112.158 153.28C112.158 153.284 110.841 155.663 114.219 156.994C114.214 156.998 115.589 154.703 112.158 153.28Z" fill="#5A789F"/>
<path d="M109.063 160.329C109.063 160.333 107.396 163.454 111.785 165.095C111.78 165.103 113.52 162.079 109.063 160.329Z" fill="#5A789F"/>
<path d="M109.006 165.151C109.006 165.156 107.338 168.285 111.722 169.913C111.722 169.922 113.457 166.893 109.006 165.151Z" fill="#5A789F"/>
<path d="M106.049 147.449C106.049 147.436 101.785 147.113 101.272 150.98C101.272 150.971 105.422 151.364 106.049 147.449Z" fill="#5A789F"/>
<path d="M102.987 145.079C102.987 145.07 106.95 146.013 108.316 142.486C108.32 142.477 104.473 141.43 102.987 145.079Z" fill="#5A789F"/>
<path d="M114.535 137.55C114.535 137.541 118.488 138.715 119.902 135.298C119.907 135.289 116.073 134.006 114.535 137.55Z" fill="#5A789F"/>
<path d="M115.963 133.862C115.968 133.849 120.079 134.451 120.616 130.828C120.616 130.815 116.605 130.113 115.963 133.862Z" fill="#5A789F"/>
<path d="M116.131 129.768C116.131 129.759 120.223 130.519 120.97 126.94C120.97 126.931 116.984 126.062 116.131 129.768Z" fill="#5A789F"/>
<path d="M116.466 126.193C116.466 126.18 120.563 126.957 121.311 123.382C121.311 123.374 117.319 122.488 116.466 126.193Z" fill="#5A789F"/>
<path d="M131.823 117.997C131.823 117.983 127.985 119.729 130.736 123.841C130.736 123.828 134.545 122.269 131.823 117.997Z" fill="#5A789F"/>
<path d="M127.751 141.334C127.751 141.334 124.468 138.781 120.908 141.207C120.908 141.212 124.037 143.625 127.751 141.334Z" fill="#5A789F"/>
<path d="M125.086 143.922C125.091 143.922 121.392 141.845 118.431 144.795C118.431 144.799 121.976 146.772 125.086 143.922Z" fill="#5A789F"/>
<path d="M120.443 146.838C120.443 146.833 116.6 145.048 113.922 148.239C113.922 148.239 117.611 149.954 120.443 146.838Z" fill="#5A789F"/>
<path d="M126.15 125.285C126.15 125.277 123.031 127.022 125.92 130.13C125.92 130.126 129.03 128.533 126.15 125.285Z" fill="#5A789F"/>
<path d="M135.211 125.015C135.211 125.01 131.599 123.666 130.439 126.739C130.439 126.73 133.942 128.048 135.211 125.015Z" fill="#5A789F"/>
<path d="M127.952 121.733C127.952 121.728 125.724 123.396 128.446 125.735C128.441 125.731 130.683 124.181 127.952 121.733Z" fill="#5A789F"/>
<path d="M136.064 140.308C136.064 140.3 133.338 141.373 135.35 144.088C135.35 144.084 138.053 143.123 136.064 140.308Z" fill="#5A789F"/>
<path d="M138.704 138.213C138.704 138.209 135.988 139.23 137.995 141.967C137.995 141.958 140.698 141.05 138.704 138.213Z" fill="#5A789F"/>
<mask id="mask2_1643_1064" style="mask-type:luminance" maskUnits="userSpaceOnUse" x="107" y="112" width="5" height="5">
<path d="M107.947 112.165H111.627V116.203H107.947V112.165Z" fill="white"/>
</mask>
<g mask="url(#mask2_1643_1064)">
<path d="M109.926 112.165C109.926 112.165 107.745 114.007 110.424 116.067C110.424 116.067 112.614 114.33 109.926 112.165Z" fill="#5A789F"/>
</g>
<path d="M146.304 128.698C146.304 128.685 142.672 128.808 143.875 132.277C143.875 132.264 147.449 132.234 146.304 128.698Z" fill="#5A789F"/>
<path d="M148.484 146.598C148.484 146.593 146.352 148.016 148.935 150.395C148.935 150.39 151.077 149.085 148.484 146.598Z" fill="#5A789F"/>
<path d="M159.342 151.355C159.342 151.351 156.237 150.39 155.858 153.022C155.858 153.018 158.882 153.978 159.342 151.355Z" fill="#5A789F"/>
<path d="M156.113 139.448C156.117 139.435 152.413 138.418 152.203 141.639C152.207 141.631 155.82 142.648 156.113 139.448Z" fill="#5A789F"/>
<path d="M152.48 134.425C152.485 134.412 148.915 134.006 149.486 137.288C149.49 137.275 152.979 137.733 152.48 134.425Z" fill="#5A789F"/>
<path d="M157.977 154.471C157.981 154.471 155.106 152.887 153.693 155.117C153.693 155.117 156.482 156.649 157.977 154.471Z" fill="#5A789F"/>
<path d="M152.773 150.552C152.773 150.543 149.855 150.875 151.134 153.699C151.134 153.69 154.009 153.437 152.773 150.552Z" fill="#5A789F"/>
<path d="M141.584 125.29C141.584 125.285 139.231 126.529 141.613 129.078C141.613 129.074 143.966 127.948 141.584 125.29Z" fill="#5A789F"/>
<path d="M135.815 121.314C135.815 121.305 132.648 121.178 133.156 124.085C133.156 124.076 136.261 124.264 135.815 121.314Z" fill="#5A789F"/>
<path d="M149.481 152.826C149.481 152.817 146.558 153.223 147.837 156.034C147.842 156.025 150.722 155.707 149.481 152.826Z" fill="#5A789F"/>
<path d="M154.037 159.805C154.037 159.814 152.183 157.474 149.308 158.592C149.308 158.596 151.067 160.839 154.037 159.805Z" fill="#5A789F"/>
<path d="M151.518 162.013C151.518 162.018 150.348 159.521 147.047 159.993C147.047 160.006 148.125 162.406 151.518 162.013Z" fill="#5A789F"/>
<path d="M146.213 166.094C146.213 166.103 145.034 163.615 141.718 164.2C141.718 164.209 142.801 166.605 146.213 166.094Z" fill="#5A789F"/>
<path d="M151.369 166.854C151.364 166.862 150.195 164.379 146.894 164.89C146.894 164.894 147.972 167.29 151.369 166.854Z" fill="#5A789F"/>
<path d="M156.112 160.913C156.117 160.905 152.988 160.377 153.046 163.139C153.05 163.135 156.103 163.685 156.112 160.913Z" fill="#5A789F"/>
<path d="M156.898 165.57C156.898 165.575 154.555 163.515 152.188 165.147C152.188 165.151 154.435 167.133 156.898 165.57Z" fill="#5A789F"/>
<path d="M156.275 157.06C156.275 157.064 153.649 155.191 151.699 157.125C151.699 157.125 154.229 158.928 156.275 157.06Z" fill="#5A789F"/>
<path d="M137.387 159.163C137.387 159.168 135.686 156.824 132.643 158.007C132.643 158.011 134.243 160.272 137.387 159.163Z" fill="#5A789F"/>
<path d="M140.746 158.29C140.746 158.295 139.054 155.929 136.007 157.055C136.007 157.06 137.602 159.333 140.746 158.29Z" fill="#5A789F"/>
<path d="M143.472 156.758C143.472 156.763 141.944 154.607 139.184 155.571C139.184 155.58 140.626 157.657 143.472 156.758Z" fill="#5A789F"/>
<path d="M144.545 154.401C144.545 154.406 142.787 153.158 141.383 154.506C141.383 154.506 143.069 155.724 144.545 154.401Z" fill="#5A789F"/>
<path d="M137.171 150.879C137.171 150.871 133.601 151.887 135.619 155.336C135.619 155.322 139.145 154.436 137.171 150.879Z" fill="#5A789F"/>
<path d="M140.147 150.011C140.147 150.006 137.272 150.823 138.963 153.625C138.963 153.62 141.805 152.904 140.147 150.011Z" fill="#5A789F"/>
<path d="M133.415 152.018C133.415 152.01 130.525 152.931 132.226 155.711C132.226 155.702 135.087 154.886 133.415 152.018Z" fill="#5A789F"/>
<path d="M121.095 132.679C121.09 132.675 118.867 134.455 121.588 136.681C121.588 136.681 123.826 135.014 121.095 132.679Z" fill="#5A789F"/>
<path d="M115.163 138.514C115.163 138.51 112.94 140.369 115.666 142.517C115.666 142.517 117.899 140.771 115.163 138.514Z" fill="#5A789F"/>
<path d="M122.911 128.489C122.911 128.485 120.051 130.78 123.611 133.683C123.611 133.678 126.486 131.54 122.911 128.489Z" fill="#5A789F"/>
<path d="M123.999 138.148C123.999 138.152 127.348 140.352 130.094 137.724C130.094 137.724 126.893 135.407 123.999 138.148Z" fill="#5A789F"/>
<path d="M115.82 155.545C115.82 155.528 121.287 154.711 119.811 149.701C119.811 149.683 114.43 150.382 115.82 155.545Z" fill="#5A789F"/>
<path d="M139.744 141.98C139.749 141.967 145.24 143.638 146.395 139.077C146.4 139.064 141.062 137.196 139.744 141.98Z" fill="#5A789F"/>
<path d="M144.057 137.476C144.062 137.449 149.572 137.986 148.801 133.011C148.805 132.985 143.4 132.308 144.057 137.476Z" fill="#5A789F"/>
<path d="M141.944 153.123C141.944 153.101 147.262 152.695 145.509 147.702C145.513 147.68 140.266 147.968 141.944 153.123Z" fill="#5A789F"/>
<path d="M150.664 150.094C150.664 150.081 154.574 149.971 153.286 146.279C153.29 146.262 149.438 146.288 150.664 150.094Z" fill="#5A789F"/>
<path d="M143.611 147.139C143.611 147.126 147.55 146.89 146.251 143.18C146.251 143.163 142.37 143.315 143.611 147.139Z" fill="#5A789F"/>
<path d="M155.888 150.286C155.892 150.26 160.54 149.518 157.881 144.808C157.881 144.782 153.266 145.45 155.888 150.286Z" fill="#5A789F"/>
<path d="M137.123 130.248C137.123 130.235 141.316 128.345 137.598 123.937C137.598 123.919 133.41 125.739 137.123 130.248Z" fill="#5A789F"/>
<path d="M117.482 118.926C117.482 118.913 121.416 118.376 120.237 114.758C120.242 114.745 116.366 115.208 117.482 118.926Z" fill="#5A789F"/>
<path d="M127.957 120.777C127.952 120.781 129.859 118.175 125.834 115.945C125.834 115.95 123.889 118.45 127.957 120.777Z" fill="#5A789F"/>
<path d="M130.597 138.087C130.601 138.069 136.136 139.544 137.295 134.857C137.3 134.844 131.914 133.181 130.597 138.087Z" fill="#5A789F"/>
<path d="M126.021 134.896C126.021 134.896 129.121 136.974 131.661 134.573C131.666 134.578 128.704 132.395 126.021 134.896Z" fill="#5A789F"/>
<path d="M128.177 132.029C128.177 132.024 131.57 133.801 133.573 131.103C133.577 131.103 130.314 129.218 128.177 132.029Z" fill="#5A789F"/>
<path d="M137.751 130.632C137.751 130.619 134.018 130.597 134.775 134.045C134.775 134.036 138.431 134.132 137.751 130.632Z" fill="#5A789F"/>
<path d="M147.166 142.582C147.171 142.556 152.605 143.185 151.79 138.305C151.795 138.283 146.467 137.515 147.166 142.582Z" fill="#5A789F"/>
<path d="M148.614 145.585C148.619 145.576 153.827 147.357 154.776 143.084C154.781 143.071 149.725 141.103 148.614 145.585Z" fill="#5A789F"/>
<path d="M129.806 129.179C129.806 129.179 133.199 130.99 135.202 128.327C135.202 128.323 131.943 126.403 129.806 129.179Z" fill="#5A789F"/>
<path d="M120.218 155.693C120.218 155.689 117.003 155.078 116.342 157.959C116.342 157.954 119.471 158.596 120.218 155.693Z" fill="#5A789F"/>
<path d="M115.192 163.829C115.192 163.825 118.973 164.654 119.984 161.311C119.984 161.306 116.308 160.381 115.192 163.829Z" fill="#5A789F"/>
<path d="M115.345 166.544C115.345 166.539 119.059 167.858 120.765 164.615C120.765 164.615 117.176 163.196 115.345 166.544Z" fill="#5A789F"/>
<path d="M115.671 160.652C115.671 160.647 118.91 161.354 119.758 158.491C119.758 158.487 116.61 157.701 115.671 160.652Z" fill="#5A789F"/>
<path d="M134.723 139.405C134.723 139.4 131.776 137.991 130.3 140.452C130.3 140.452 133.151 141.831 134.723 139.405Z" fill="#5A789F"/>
<path d="M129.595 143.355C129.6 143.355 132.485 144.887 134.248 142.569C134.253 142.569 131.474 140.954 129.595 143.355Z" fill="#5A789F"/>
<path d="M137.411 144.376C137.411 144.376 140.281 145.991 142.039 143.769C142.039 143.769 139.284 142.072 137.411 144.376Z" fill="#5A789F"/>
<path d="M136.069 146.401C136.069 146.406 138.719 148.247 140.88 146.266C140.88 146.27 138.35 144.35 136.069 146.401Z" fill="#5A789F"/>
<path d="M134.449 148.858C134.454 148.858 137.104 150.678 139.265 148.666C139.265 148.666 136.735 146.777 134.449 148.858Z" fill="#5A789F"/>
<path d="M122.829 146.781C122.829 146.785 122.714 149.374 126.394 149.823C126.394 149.832 126.601 147.283 122.829 146.781Z" fill="#5A789F"/>
<path d="M122.456 149.906C122.451 149.915 122.317 152.987 126.687 153.511C126.687 153.52 126.931 150.486 122.456 149.906Z" fill="#5A789F"/>
<path d="M128.68 146.602C128.68 146.602 131.819 147.645 132.882 144.991C132.882 144.987 129.835 143.861 128.68 146.602Z" fill="#5A789F"/>
<mask id="mask3_1643_1064" style="mask-type:luminance" maskUnits="userSpaceOnUse" x="46" y="155" width="8" height="5">
<path d="M46 155.309H53.9733V159.779H46V155.309Z" fill="white"/>
</mask>
<g mask="url(#mask3_1643_1064)">
<path d="M46.0957 155.549C46.1005 155.576 46.043 160.263 53.058 159.482C53.0628 159.512 53.2305 154.607 46.0957 155.549Z" fill="#5A789F"/>
</g>
<path d="M63.6478 133.281C63.6478 133.29 59.2346 137.345 63.2021 140.945C63.1974 140.954 67.6153 137.1 63.6478 133.281Z" fill="#5A789F"/>
<path d="M141.124 129.982C141.124 129.96 136.61 132.339 140.535 137.441C140.535 137.415 145.029 135.302 141.124 129.982Z" fill="#5A789F"/>
<path d="M123.601 117.975C123.596 117.957 119.03 120.759 123.026 125.656C123.026 125.639 127.578 123.099 123.601 117.975Z" fill="#5A789F"/>
<path d="M72.7184 124.548C72.7184 124.548 70.059 126.721 72.1913 129C72.1913 129 74.8411 126.944 72.7184 124.548Z" fill="#5A789F"/>
<path d="M72.79 122.326C72.79 122.335 72.2437 125.102 76.0387 125.399C76.0435 125.408 76.6569 122.645 72.79 122.326Z" fill="#5A789F"/>
<path d="M77.4619 118.904C77.4571 118.917 74.103 123.369 79.3882 126.237C79.3882 126.254 82.7951 121.938 77.4619 118.904Z" fill="#5A789F"/>
<path d="M50.811 144.005C50.8158 144.018 51.5442 147.501 57.0642 146.152C57.069 146.17 56.446 142.525 50.811 144.005Z" fill="#5A789F"/>
<path d="M71.7745 149.941C71.7793 149.958 71.5781 153.677 76.8729 153.769C76.8777 153.782 77.1891 150.024 71.7745 149.941Z" fill="#5A789F"/>
<path d="M67.8597 125.486C67.8597 125.504 63.897 130.113 68.9474 133.286C68.9474 133.303 72.9484 128.851 67.8597 125.486Z" fill="#5A789F"/>
<path d="M47.0352 161.939C47.0399 161.948 49.1052 165.95 56.0099 163.445C56.0195 163.458 54.0933 159.189 47.0352 161.939Z" fill="#5A789F"/>
<path d="M55.0467 154.113C55.0515 154.144 52.5598 159.041 58.7075 160.748C58.7123 160.778 61.2759 155.872 55.0467 154.113Z" fill="#5A789F"/>
<path d="M75.2388 157.631C75.2436 157.64 76.1588 160.634 80.5719 159.46C80.5719 159.464 79.7717 156.418 75.2388 157.631Z" fill="#5A789F"/>
<path d="M75.9768 135.071C75.9721 135.071 72.7281 137.598 75.6414 140.156C75.6414 140.16 78.8854 137.768 75.9768 135.071Z" fill="#5A789F"/>
<path d="M72.9723 163.951C72.9723 163.956 71.6738 160.451 66.5898 162.249C66.5946 162.258 67.7255 165.592 72.9723 163.951Z" fill="#5A789F"/>
<path d="M73.5569 132.627C73.5569 132.627 70.7298 134.704 73.0394 136.921C73.0394 136.921 75.8569 134.957 73.5569 132.627Z" fill="#5A789F"/>
<path d="M79.3306 129.423C79.3306 129.432 78.0225 126.499 73.71 128.262C73.7148 128.271 74.8743 131.047 79.3306 129.423Z" fill="#5A789F"/>
<path d="M81.6308 132.906C81.6308 132.915 80.3227 129.955 76.0054 131.653C76.0102 131.662 77.1697 134.468 81.6308 132.906Z" fill="#5A789F"/>
<path d="M84.0362 135.503C84.0362 135.507 83.121 133.425 80.0879 134.547C80.0927 134.551 80.9073 136.555 84.0362 135.503Z" fill="#5A789F"/>
<path d="M86.9018 134.281C86.897 134.281 89.0341 132.609 86.9401 130.833C86.9401 130.833 84.8078 132.435 86.9018 134.281Z" fill="#5A789F"/>
<path d="M90.3997 148.182C90.3997 148.182 92.5272 146.558 90.4428 144.73C90.4428 144.73 88.3153 146.279 90.3997 148.182Z" fill="#5A789F"/>
<path d="M126.586 156.584C126.586 156.588 127.032 154.384 123.889 153.721C123.889 153.725 123.39 155.846 126.586 156.584Z" fill="#5A789F"/>
<path d="M86.8013 137.899C86.8013 137.899 85.8861 135.8 82.8481 136.878C82.8481 136.882 83.6675 138.903 86.8013 137.899Z" fill="#5A789F"/>
<path d="M82.9055 130.012C82.9055 130.012 84.6688 128.279 82.4982 126.896C82.4982 126.896 80.7253 128.563 82.9055 130.012Z" fill="#5A789F"/>
<path d="M85.1816 139.544C85.1816 139.544 86.4514 141.273 89.0533 139.981C89.0581 139.985 87.8746 138.222 85.1816 139.544Z" fill="#5A789F"/>
<path d="M84.5108 132.072C84.5108 132.068 86.7437 130.759 85.2008 128.877C85.2008 128.877 82.9918 130.121 84.5108 132.072Z" fill="#5A789F"/>
<path d="M67.821 144.957C67.8162 144.952 64.28 146.72 65.9187 149.631C65.914 149.627 69.4119 147.999 67.821 144.957Z" fill="#5A789F"/>
<path d="M69.5609 148.047C69.5609 148.042 66.0198 149.766 67.6586 152.708C67.6538 152.704 71.1565 151.119 69.5609 148.047Z" fill="#5A789F"/>
<path d="M70.2649 151.661C70.2649 151.661 67.7254 153.476 69.757 155.497C69.757 155.497 72.2918 153.782 70.2649 151.661Z" fill="#5A789F"/>
<path d="M59.2823 165.348C59.2823 165.348 57.658 163.515 54.668 165.457C54.668 165.457 56.1678 167.242 59.2823 165.348Z" fill="#5A789F"/>
<path d="M67.3613 168.39C67.3613 168.39 65.7273 166.465 62.7134 168.316C62.7182 168.316 64.2275 170.193 67.3613 168.39Z" fill="#5A789F"/>
<path d="M62.1529 163.375C62.1529 163.384 63.4945 160.927 60.3512 160.211C60.3512 160.219 58.9664 162.568 62.1529 163.375Z" fill="#5A789F"/>
<path d="M65.4303 164.619C65.4303 164.628 66.7768 162.179 63.6239 161.407C63.6239 161.415 62.2343 163.755 65.4303 164.619Z" fill="#5A789F"/>
<path d="M66.3501 157.518C66.3549 157.518 64.8695 154.903 60.8828 156.859C60.8876 156.859 62.2245 159.368 66.3501 157.518Z" fill="#5A789F"/>
<path d="M66.3982 141.696C66.3982 141.696 63.437 143.315 64.9607 145.703C64.9607 145.703 67.8884 144.201 66.3982 141.696Z" fill="#5A789F"/>
<path d="M76.6762 165.933C76.6762 165.933 75.0327 164.078 72.2056 165.837C72.2056 165.837 73.7341 167.648 76.6762 165.933Z" fill="#5A789F"/>
<path d="M76.3792 183.618C76.384 183.618 74.7452 181.733 71.9277 183.43C71.9277 183.426 73.4515 185.277 76.3792 183.618Z" fill="#5A789F"/>
<path d="M55.0898 151.237C55.0898 151.242 55.5211 153.646 59.1436 152.608C59.1436 152.616 58.7938 150.163 55.0898 151.237Z" fill="#5A789F"/>
<path d="M72.5216 129.41C72.5169 129.406 69.34 130.968 70.7823 133.596C70.7775 133.591 73.9208 132.155 72.5216 129.41Z" fill="#5A789F"/>
<path d="M93.174 166.714C93.174 166.714 90.644 164.536 87.4575 166.985C87.4575 166.985 89.8486 169.106 93.174 166.714Z" fill="#5A789F"/>
<path d="M77.443 170.913C77.443 170.913 74.5632 172.654 76.6237 175.098C76.6237 175.098 79.4843 173.466 77.443 170.913Z" fill="#5A789F"/>
<path d="M80.62 171.751C80.62 171.751 78.4015 173.073 79.9875 174.981C79.9827 174.981 82.1917 173.741 80.62 171.751Z" fill="#5A789F"/>
<path d="M102.206 153.939C102.206 153.934 98.996 155.034 100.429 157.937C100.424 157.932 103.596 156.942 102.206 153.939Z" fill="#5A789F"/>
<path d="M73.1113 154.917C73.1113 154.921 74.2853 157.199 77.7305 155.82C77.7353 155.824 76.662 153.502 73.1113 154.917Z" fill="#5A789F"/>
<path d="M79.0195 161.123C79.0243 161.127 80.5768 164.13 85.0427 162.459C85.0427 162.463 83.6195 159.395 79.0195 161.123Z" fill="#5A789F"/>
<path d="M83.1592 164.3C83.164 164.3 85.3011 167.081 89.4602 164.964C89.4602 164.968 87.4621 162.114 83.1592 164.3Z" fill="#5A789F"/>
<path d="M93.4519 163.34C93.4519 163.34 96.3508 160.909 93.1452 158.369C93.1452 158.369 90.2414 160.695 93.4519 163.34Z" fill="#5A789F"/>
<path d="M88.9766 161.428C88.9766 161.433 91.5354 158.701 87.9512 156.553C87.9512 156.558 85.3781 159.172 88.9766 161.428Z" fill="#5A789F"/>
<path d="M84.9082 158.88C84.9082 158.88 87.3041 156.453 84.1799 154.484C84.1799 154.489 81.7745 156.815 84.9082 158.88Z" fill="#5A789F"/>
<path d="M81.0559 156.383C81.0559 156.387 83.2888 153.834 80.0305 152.084C80.0305 152.088 77.7736 154.528 81.0559 156.383Z" fill="#5A789F"/>
<path d="M87.3666 146.982C87.3666 146.986 90.2799 144.044 86.4753 141.653C86.4753 141.657 83.5476 144.476 87.3666 146.982Z" fill="#5A789F"/>
<path d="M82.6324 144.433C82.6324 144.437 85.7614 141.792 82.4839 139.235C82.4839 139.239 79.3549 141.775 82.6324 144.433Z" fill="#5A789F"/>
<path d="M78.7846 142.024C78.7846 142.024 81.9232 139.815 79.3261 137.249C79.3213 137.249 76.2019 139.366 78.7846 142.024Z" fill="#5A789F"/>
<path d="M151.81 167.98C151.81 167.993 153.17 171.419 148.451 171.576C148.451 171.589 147.018 168.154 151.81 167.98Z" fill="#5A789F"/>
<path d="M155.954 167.495C155.954 167.508 157.253 170.389 153.362 170.577C153.357 170.59 152.001 167.713 155.954 167.495Z" fill="#5A789F"/>
<path d="M159.299 166.055C159.299 166.064 161.345 168.805 158.01 169.664C158.01 169.678 155.935 166.98 159.299 166.055Z" fill="#5A789F"/>
<path d="M132.26 169.804C132.255 169.813 131.651 166.033 136.965 166.426C136.965 166.439 137.684 170.035 132.26 169.804Z" fill="#5A789F"/>
<path d="M138.594 171.026C138.589 171.039 137.526 167.408 142.499 167.439C142.499 167.452 143.664 170.908 138.594 171.026Z" fill="#5A789F"/>
<path d="M144.038 171.406C144.038 171.419 142.614 168.137 146.98 167.823C146.98 167.836 148.47 170.965 144.038 171.406Z" fill="#5A789F"/>
<path d="M82.7427 153.114C82.7427 153.11 86.4179 155.148 89.7481 151.669C89.7529 151.665 86.2262 149.504 82.7427 153.114Z" fill="#5A789F"/>
<path d="M77.8311 150.949C77.8311 150.94 81.4967 152.891 84.8221 149.352C84.8221 149.347 81.3002 147.274 77.8311 150.949Z" fill="#5A789F"/>
<path d="M62.8809 159.761C62.8809 159.761 64.7879 162.345 68.9327 160.123C68.9375 160.128 67.1502 157.452 62.8809 159.761Z" fill="#5A789F"/>
<path d="M57.5669 167.299C57.5669 167.294 60.1975 169.346 63.7769 166.522C63.7769 166.522 61.2709 164.379 57.5669 167.299Z" fill="#5A789F"/>
<mask id="mask4_1643_1064" style="mask-type:luminance" maskUnits="userSpaceOnUse" x="46" y="164" width="7" height="4">
<path d="M46 164.248H52.7467V167.6H46V164.248Z" fill="white"/>
</mask>
<g mask="url(#mask4_1643_1064)">
<path d="M46.2061 166.845C46.2061 166.841 48.8031 168.704 52.3442 165.767C52.3442 165.762 49.8669 163.803 46.2061 166.845Z" fill="#5A789F"/>
</g>
<path d="M74.999 148.295C75.0038 148.291 77.8069 149.731 80.3465 146.977C80.3465 146.973 77.6536 145.45 74.999 148.295Z" fill="#5A789F"/>
<path d="M71.041 145.389C71.0458 145.389 73.2691 147.423 76.6425 145.053C76.6425 145.053 74.5293 142.927 71.041 145.389Z" fill="#5A789F"/>
<path d="M65.1571 176.648C65.1571 176.656 64.5198 179.943 69.1054 180.087C69.1054 180.096 69.829 176.814 65.1571 176.648Z" fill="#5A789F"/>
<path d="M82.5747 179.096C82.5747 179.101 83.2408 176.29 79.417 175.928C79.417 175.932 78.6791 178.629 82.5747 179.096Z" fill="#5A789F"/>
<path d="M67.2369 181.863C67.2417 181.859 64.8219 180.249 62.1577 182.697C62.1577 182.688 64.4481 184.299 67.2369 181.863Z" fill="#5A789F"/>
<path d="M88.6314 176.731C88.6314 176.735 89.997 174.671 87.2466 173.54C87.2466 173.545 85.8474 175.522 88.6314 176.731Z" fill="#5A789F"/>
<path d="M78.6552 179.851C78.6552 179.86 79.4267 176.626 75.0327 176.259C75.0327 176.268 74.1798 179.363 78.6552 179.851Z" fill="#5A789F"/>
<path d="M74.0842 180.27C74.0842 180.279 74.8221 177.132 70.5575 176.844C70.5575 176.849 69.7382 179.851 74.0842 180.27Z" fill="#5A789F"/>
<path d="M83.3031 174.583C83.3031 174.592 82.4693 177.233 86.0918 177.831C86.0918 177.835 86.9974 175.234 83.3031 174.583Z" fill="#5A789F"/>
<path d="M59.6943 152.743C59.6943 152.756 60.0441 156.047 64.9077 155.004C64.9125 155.017 64.6633 151.643 59.6943 152.743Z" fill="#5A789F"/>
<path d="M58.8081 149.417C58.8129 149.426 59.2729 152.49 63.8489 151.338C63.8489 151.351 63.4848 148.208 58.8081 149.417Z" fill="#5A789F"/>
<path d="M58.2905 145.96C58.2905 145.969 58.7074 148.723 62.8187 147.636C62.8234 147.649 62.4928 144.834 58.2905 145.96Z" fill="#5A789F"/>
<path d="M59.5941 141.578C59.5989 141.583 58.8131 143.879 61.8798 144.009C61.8846 144.018 62.7135 141.735 59.5941 141.578Z" fill="#5A789F"/>
<path d="M48.9517 148.928C48.9517 148.933 49.7135 150.831 52.7706 149.483C52.7706 149.487 52.0806 147.536 48.9517 148.928Z" fill="#5A789F"/>
<path d="M68.2285 142.936C68.2285 142.936 70.4566 144.926 73.8204 142.508C73.8204 142.508 71.7073 140.426 68.2285 142.936Z" fill="#5A789F"/>
<path d="M66.4702 139.112C66.4702 139.121 67.3902 141.766 71.4392 140.369C71.4392 140.378 70.6198 137.655 66.4702 139.112Z" fill="#5A789F"/>
<path d="M54.1844 138.458C54.1892 138.484 52.3444 142.582 57.6727 143.089C57.6775 143.11 59.5894 138.986 54.1844 138.458Z" fill="#5A789F"/>
<path d="M58.4154 133.844C58.4154 133.853 55.7512 137.148 59.5941 138.72C59.5941 138.728 62.2918 135.516 58.4154 133.844Z" fill="#5A789F"/>
<path d="M65.9619 135.9C65.9667 135.904 66.4075 138.126 69.7186 137.222C69.7186 137.227 69.3544 134.966 65.9619 135.9Z" fill="#5A789F"/>
<path d="M130.3 177.988C130.3 177.992 131.249 175.845 134.981 177.076C134.981 177.08 134.148 179.153 130.3 177.988Z" fill="#5A789F"/>
<path d="M133.165 180.654C133.165 180.659 133.141 178.319 137.042 178.533C137.042 178.542 137.157 180.777 133.165 180.654Z" fill="#5A789F"/>
<path d="M137.051 181.244C137.051 181.252 136.466 178.926 140.257 178.573C140.257 178.577 140.918 180.794 137.051 181.244Z" fill="#5A789F"/>
<path d="M141.081 181.571C141.081 181.575 140.084 179.31 143.692 178.546C143.692 178.555 144.751 180.707 141.081 181.571Z" fill="#5A789F"/>
<path d="M145.01 181.104C145.01 181.113 144.335 178.804 148.077 178.45C148.077 178.459 148.825 180.65 145.01 181.104Z" fill="#5A789F"/>
<path d="M148.8 181.414C148.796 181.423 148.465 178.568 153.209 178.756C153.209 178.769 153.654 181.458 148.8 181.414Z" fill="#5A789F"/>
<path d="M139.39 188.502C139.39 188.489 143.084 186.717 146.769 190.881C146.769 190.868 143.266 192.683 139.39 188.502Z" fill="#5A789F"/>
<path d="M126.994 177.211C126.994 177.215 125.479 174.588 128.771 172.637C128.771 172.645 130.324 175.142 126.994 177.211Z" fill="#5A789F"/>
<path d="M124.018 178.821C124.018 178.821 121.809 176.783 124.272 173.802C124.272 173.802 126.491 175.727 124.018 178.821Z" fill="#5A789F"/>
<path d="M138.12 176.753C138.124 176.744 133.96 176.779 134.181 172.894C134.181 172.886 138.254 172.798 138.12 176.753Z" fill="#5A789F"/>
<path d="M143.319 177.141C143.324 177.132 139.169 177.093 139.395 173.248C139.395 173.239 143.458 173.226 143.319 177.141Z" fill="#5A789F"/>
<mask id="mask5_1643_1064" style="mask-type:luminance" maskUnits="userSpaceOnUse" x="160" y="166" width="5" height="4">
<path d="M160.693 166.614H164.661V169.8H160.693V166.614Z" fill="white"/>
</mask>
<g mask="url(#mask5_1643_1064)">
<path d="M164.512 166.814C164.512 166.827 165.768 170.027 161.01 169.603C161.01 169.616 159.687 166.378 164.512 166.814Z" fill="#5A789F"/>
</g>
<path d="M163.53 160.983C163.52 161.005 164.153 165.256 157.679 163.685C157.675 163.707 156.941 159.303 163.53 160.983Z" fill="#5A789F"/>
<path d="M147.387 176.892C147.387 176.888 144.22 176.805 144.392 173.894C144.392 173.885 147.492 173.924 147.387 176.892Z" fill="#5A789F"/>
<path d="M152.548 175.954C152.548 175.949 149.323 176.478 148.556 173.553C148.556 173.549 151.69 172.982 152.548 175.954Z" fill="#5A789F"/>
<path d="M156.534 175.421C156.534 175.413 153.324 175.884 152.557 172.973C152.557 172.968 155.681 172.462 156.534 175.421Z" fill="#5A789F"/>
<path d="M160.736 173.662C160.741 173.654 158.029 174.998 155.945 172.523C155.945 172.515 158.556 171.131 160.736 173.662Z" fill="#5A789F"/>
<path d="M142.993 186.228C142.993 186.219 139.653 186.691 139.217 183.736C139.217 183.727 142.471 183.225 142.993 186.228Z" fill="#5A789F"/>
<path d="M139.601 191.16C139.601 191.156 136.155 191.287 136.256 188.34C136.256 188.336 139.625 188.166 139.601 191.16Z" fill="#5A789F"/>
<path d="M134.526 190.243C134.526 190.243 131.143 189.379 132.59 186.73C132.59 186.73 135.925 187.529 134.526 190.243Z" fill="#5A789F"/>
<path d="M130.166 188.598C130.17 188.602 127.276 186.874 129.825 184.84C129.825 184.844 132.705 186.49 130.166 188.598Z" fill="#5A789F"/>
<path d="M125.738 186.795C125.738 186.8 124.166 184.203 127.717 183.483C127.717 183.487 129.337 185.984 125.738 186.795Z" fill="#5A789F"/>
<path d="M139.078 185.866C139.078 185.861 135.733 186.368 135.292 183.4C135.297 183.391 138.556 182.85 139.078 185.866Z" fill="#5A789F"/>
<path d="M147.123 185.757C147.123 185.752 143.793 186.171 143.357 183.234C143.357 183.225 146.606 182.771 147.123 185.757Z" fill="#5A789F"/>
<path d="M151.637 184.046C151.637 184.037 148.7 185.355 146.869 182.837C146.869 182.828 149.701 181.479 151.637 184.046Z" fill="#5A789F"/>
<path d="M163.506 171.882C163.506 171.873 161.498 173.078 159.591 171.21C159.591 171.205 161.518 169.97 163.506 171.882Z" fill="#5A789F"/>
<path d="M47.5859 169.311C47.5859 169.298 50.8443 172.449 56.4122 168.674C56.417 168.665 53.312 165.339 47.5859 169.311Z" fill="#5A789F"/>
<path d="M57.1265 179.642C57.1265 179.638 59.829 182.619 64.6685 179.69C64.6733 179.686 62.1194 176.6 57.1265 179.642Z" fill="#5A789F"/>
<path d="M62.9482 185.298C62.9482 185.29 66.0389 187.922 70.2843 184.796C70.2843 184.792 67.3422 182.082 62.9482 185.298Z" fill="#5A789F"/>
<path d="M60.7393 174.832C60.7345 174.823 64.678 174.998 65.6986 171.349C65.6986 171.34 61.8653 171.1 60.7393 174.832Z" fill="#5A789F"/>
<path d="M71.8988 175.068C71.8988 175.063 75.7944 173.785 74.5629 170.367C74.5581 170.363 70.7248 171.563 71.8988 175.068Z" fill="#5A789F"/>
<path d="M66.2638 175.836C66.259 175.827 70.792 175.229 70.0828 171.323C70.0828 171.314 65.6361 171.851 66.2638 175.836Z" fill="#5A789F"/>
<path d="M56.4556 172.951C56.4556 172.942 59.4551 174.138 61.8462 171.153C61.8462 171.144 58.9616 169.887 56.4556 172.951Z" fill="#5A789F"/>
<path d="M53.7241 171.445C53.7241 171.441 55.9379 172.571 58.1181 170.284C58.1181 170.28 55.9954 169.101 53.7241 171.445Z" fill="#5A789F"/>
<path d="M68.0942 187.433C68.0942 187.433 70.3272 188.773 72.5265 186.599C72.5265 186.595 70.3894 185.22 68.0942 187.433Z" fill="#5A789F"/>
<path d="M82.3161 188.428C82.3161 188.428 85.9865 186.826 84.0698 183.561C84.065 183.561 80.4377 185.071 82.3161 188.428Z" fill="#5A789F"/>
<path d="M88.0423 186.778C88.0375 186.778 91.5593 184.277 87.9273 181.575C87.9273 181.575 84.4054 183.963 88.0423 186.778Z" fill="#5A789F"/>
<path d="M76.9397 188.847C76.9397 188.842 80.6197 188.458 80.452 185.119C80.452 185.115 76.8486 185.429 76.9397 188.847Z" fill="#5A789F"/>
<path d="M73.2217 188.886C73.2169 188.882 76.1734 188.786 76.3746 186.097C76.3746 186.093 73.4948 186.136 73.2217 188.886Z" fill="#5A789F"/>
<path d="M184.978 145.747C185.4 145.747 185.716 145.829 185.937 145.991C186.152 146.157 186.262 146.462 186.262 146.916V183.282C186.262 183.736 186.152 184.041 185.937 184.207C185.716 184.369 185.4 184.452 184.978 184.452H181.49C181.092 184.452 180.771 184.369 180.532 184.207C180.302 184.041 180.187 183.736 180.187 183.282V146.916C180.187 146.462 180.302 146.157 180.532 145.991C180.771 145.829 181.092 145.747 181.49 145.747H184.978Z" fill="#5A789F"/>
<path d="M214.335 151.159C214.843 151.159 215.183 151.263 215.351 151.473C215.528 151.674 215.619 151.957 215.619 152.328V155.645C215.619 155.995 215.528 156.283 215.351 156.501C215.183 156.71 214.843 156.815 214.335 156.815H200.957V161.546H212.476C212.984 161.546 213.324 161.651 213.492 161.861C213.669 162.061 213.76 162.345 213.76 162.716V165.911C213.76 166.26 213.669 166.548 213.492 166.766C213.324 166.976 212.984 167.081 212.476 167.081H200.957V176.543C200.957 177.058 200.866 177.39 200.688 177.538C200.506 177.678 200.161 177.748 199.653 177.748H195.264C194.766 177.748 194.426 177.643 194.248 177.433C194.066 177.215 193.98 176.927 193.98 176.578V152.328C193.98 151.957 194.066 151.674 194.248 151.473C194.426 151.263 194.766 151.159 195.264 151.159H214.335Z" fill="#5A789F"/>
<path d="M242.505 151.159C242.912 151.159 243.224 151.242 243.444 151.403C243.674 151.569 243.789 151.874 243.789 152.328V169.63C243.789 171.214 243.43 172.558 242.716 173.662C242.011 174.771 241.072 175.666 239.898 176.351C238.734 177.041 237.464 177.547 236.084 177.87C234.714 178.193 233.367 178.359 232.04 178.359C230.698 178.359 229.347 178.193 227.996 177.87C226.64 177.547 225.375 177.041 224.201 176.351C223.036 175.666 222.097 174.771 221.383 173.662C220.679 172.558 220.329 171.214 220.329 169.63V152.328C220.329 151.874 220.444 151.569 220.674 151.403C220.914 151.242 221.23 151.159 221.613 151.159H226.002C226.41 151.159 226.721 151.242 226.942 151.403C227.172 151.569 227.287 151.874 227.287 152.328V168.739C227.287 170.009 227.713 170.991 228.571 171.69C229.424 172.388 230.583 172.737 232.04 172.737C233.506 172.737 234.671 172.388 235.528 171.69C236.396 170.991 236.832 170.009 236.832 168.739V152.328C236.832 151.874 236.947 151.569 237.177 151.403C237.416 151.242 237.732 151.159 238.116 151.159H242.505Z" fill="#5A789F"/>
<path d="M269.727 151.159C270.225 151.159 270.56 151.263 270.742 151.473C270.92 151.674 271.011 151.957 271.011 152.328V155.698C271.011 156.047 270.92 156.335 270.742 156.553C270.56 156.763 270.225 156.868 269.727 156.868H262.942V176.578C262.942 177.032 262.827 177.342 262.597 177.503C262.376 177.669 262.065 177.748 261.657 177.748H257.268C256.885 177.748 256.569 177.669 256.329 177.503C256.099 177.342 255.984 177.032 255.984 176.578V156.868H249.142C248.643 156.868 248.303 156.763 248.126 156.553C247.944 156.335 247.857 156.047 247.857 155.698V152.328C247.857 151.957 247.944 151.674 248.126 151.473C248.303 151.263 248.643 151.159 249.142 151.159H269.727Z" fill="#5A789F"/>
<path d="M297.268 151.159C297.675 151.159 297.987 151.242 298.207 151.403C298.437 151.569 298.552 151.874 298.552 152.328V169.63C298.552 171.214 298.193 172.558 297.479 173.662C296.775 174.771 295.835 175.666 294.661 176.351C293.497 177.041 292.227 177.547 290.847 177.87C289.477 178.193 288.13 178.359 286.803 178.359C285.461 178.359 284.11 178.193 282.759 177.87C281.403 177.547 280.138 177.041 278.964 176.351C277.8 175.666 276.86 174.771 276.146 173.662C275.442 172.558 275.092 171.214 275.092 169.63V152.328C275.092 151.874 275.207 151.569 275.437 151.403C275.677 151.242 275.993 151.159 276.376 151.159H280.766C281.173 151.159 281.484 151.242 281.705 151.403C281.935 151.569 282.05 151.874 282.05 152.328V168.739C282.05 170.009 282.476 170.991 283.334 171.69C284.187 172.388 285.346 172.737 286.803 172.737C288.269 172.737 289.434 172.388 290.291 171.69C291.159 170.991 291.595 170.009 291.595 168.739V152.328C291.595 151.874 291.71 151.569 291.94 151.403C292.179 151.242 292.496 151.159 292.879 151.159H297.268Z" fill="#5A789F"/>
<path d="M328.649 176.456C328.865 176.726 328.908 177.01 328.783 177.311C328.668 177.604 328.405 177.748 327.997 177.748H322.765C322.228 177.748 321.797 177.656 321.481 177.468C321.174 177.285 320.858 176.975 320.541 176.543L315.75 170.031C315.544 169.787 315.41 169.525 315.347 169.245C315.295 168.966 315.271 168.543 315.271 167.971V164.741C315.271 164.357 315.352 164.069 315.52 163.868C315.697 163.672 316.042 163.571 316.555 163.571H317.436C318.534 163.571 319.511 163.266 320.369 162.646C321.222 162.018 321.653 161.232 321.653 160.289C321.653 159.242 321.255 158.413 320.465 157.793C319.684 157.177 318.721 156.867 317.571 156.867H311.667V176.578C311.667 177.032 311.557 177.342 311.341 177.503C311.121 177.669 310.805 177.748 310.383 177.748H305.994C305.611 177.748 305.304 177.669 305.074 177.503C304.853 177.342 304.748 177.032 304.748 176.578V152.381C304.748 151.997 304.83 151.709 304.997 151.508C305.16 151.311 305.496 151.211 305.994 151.211H317.168C318.788 151.211 320.129 151.307 321.193 151.49C322.266 151.678 323.177 151.97 323.934 152.363C324.686 152.747 325.376 153.227 326.004 153.795C326.818 154.519 327.451 155.432 327.901 156.536C328.347 157.644 328.572 158.84 328.572 160.132C328.572 161.529 328.246 162.782 327.595 163.886C326.943 164.994 326.143 165.911 325.199 166.644C324.25 167.369 323.321 167.879 322.401 168.18L328.649 176.456Z" fill="#5A789F"/>
<path d="M355.44 172.091C355.939 172.091 356.274 172.196 356.456 172.405C356.633 172.606 356.724 172.89 356.724 173.261V176.578C356.724 176.927 356.633 177.215 356.456 177.433C356.274 177.643 355.939 177.748 355.44 177.748H335.564C335.066 177.748 334.726 177.643 334.549 177.433C334.367 177.215 334.28 176.927 334.28 176.578V152.328C334.28 151.957 334.367 151.674 334.549 151.473C334.726 151.263 335.066 151.159 335.564 151.159H354.693C355.191 151.159 355.527 151.263 355.709 151.473C355.886 151.674 355.977 151.957 355.977 152.328V155.698C355.977 156.047 355.886 156.335 355.709 156.553C355.527 156.763 355.191 156.868 354.693 156.868H341.295V161.267H353.179C353.677 161.267 354.012 161.372 354.194 161.581C354.372 161.782 354.463 162.066 354.463 162.437V165.579C354.463 165.941 354.372 166.234 354.194 166.452C354.012 166.662 353.677 166.766 353.179 166.766H341.295V172.091H355.44Z" fill="#5A789F"/>
<path d="M184.978 177.287C185.4 177.287 185.716 177.37 185.937 177.532C186.152 177.697 186.262 178.003 186.262 178.457V214.823C186.262 215.276 186.152 215.582 185.937 215.748C185.716 215.909 185.4 215.992 184.978 215.992H181.49C181.092 215.992 180.771 215.909 180.532 215.748C180.302 215.582 180.187 215.276 180.187 214.823V178.457C180.187 178.003 180.302 177.697 180.532 177.532C180.771 177.37 181.092 177.287 181.49 177.287H184.978Z" fill="#5A789F"/>
<path d="M220.142 182.664C220.65 182.664 220.995 182.769 221.177 182.978C221.355 183.179 221.446 183.463 221.446 183.834V208.118C221.446 208.572 221.331 208.882 221.101 209.044C220.88 209.21 220.564 209.288 220.142 209.288H215.887C215.504 209.288 215.188 209.21 214.948 209.044C214.718 208.882 214.603 208.572 214.603 208.118V194.414L210.176 201.484C210.061 201.65 209.893 201.833 209.677 202.043C209.471 202.244 209.208 202.34 208.892 202.34H206.668C206.347 202.34 206.093 202.244 205.902 202.043C205.71 201.833 205.547 201.65 205.422 201.484L200.957 194.414V208.118C200.957 208.572 200.842 208.882 200.612 209.044C200.391 209.21 200.075 209.288 199.653 209.288H195.264C194.881 209.288 194.565 209.21 194.325 209.044C194.095 208.882 193.98 208.572 193.98 208.118V183.834C193.98 183.463 194.066 183.179 194.248 182.978C194.426 182.769 194.766 182.664 195.264 182.664H199.653C200.43 182.664 200.923 182.834 201.129 183.171C201.33 183.511 201.522 183.799 201.704 184.043L207.78 193.977L213.894 184.043C214.047 183.799 214.23 183.511 214.45 183.171C214.666 182.834 215.145 182.664 215.887 182.664H220.142Z" fill="#5A789F"/>
<path d="M240.679 203.754C241.177 203.754 241.513 203.859 241.695 204.068C241.872 204.269 241.963 204.553 241.963 204.924V208.118C241.963 208.468 241.872 208.756 241.695 208.974C241.513 209.183 241.177 209.288 240.679 209.288H228.125C227.627 209.288 227.286 209.183 227.109 208.974C226.927 208.756 226.841 208.468 226.841 208.118V204.924C226.841 204.553 226.927 204.269 227.109 204.068C227.286 203.859 227.627 203.754 228.125 203.754H230.923V188.321H228.221C227.708 188.321 227.363 188.216 227.186 188.006C227.018 187.788 226.937 187.5 226.937 187.151V183.869C226.937 183.498 227.018 183.214 227.186 183.013C227.363 182.804 227.708 182.699 228.221 182.699H240.545C241.043 182.699 241.379 182.804 241.561 183.013C241.738 183.214 241.829 183.498 241.829 183.869V187.151C241.829 187.5 241.738 187.788 241.561 188.006C241.379 188.216 241.043 188.321 240.545 188.321H237.881V203.754H240.679Z" fill="#5A789F"/>
<path d="M270.085 182.699C270.492 182.699 270.803 182.782 271.024 182.944C271.254 183.109 271.369 183.415 271.369 183.869V208.118C271.369 208.468 271.278 208.756 271.1 208.974C270.918 209.183 270.583 209.288 270.085 209.288H266.04C265.475 209.288 265.072 209.162 264.833 208.904C264.603 208.651 264.339 208.319 264.047 207.909L254.655 194.065V208.118C254.655 208.572 254.54 208.882 254.31 209.044C254.09 209.21 253.774 209.288 253.352 209.288H248.963C248.58 209.288 248.263 209.21 248.024 209.044C247.794 208.882 247.679 208.572 247.679 208.118V183.869C247.679 183.498 247.765 183.214 247.947 183.013C248.124 182.804 248.465 182.699 248.963 182.699H253.141C253.702 182.699 254.1 182.83 254.33 183.083C254.569 183.341 254.837 183.672 255.135 184.078L264.545 197.888V183.869C264.545 183.415 264.66 183.109 264.89 182.944C265.13 182.782 265.446 182.699 265.83 182.699H270.085Z" fill="#5A789F"/>
<path d="M289.153 182.699C290.48 182.699 291.836 182.887 293.216 183.258C294.605 183.62 295.89 184.166 297.068 184.899C298.257 185.623 299.22 186.557 299.963 187.71C300.7 188.853 301.074 190.215 301.074 191.795V200.192C301.074 201.79 300.7 203.16 299.963 204.313C299.22 205.456 298.257 206.399 297.068 207.141C295.89 207.874 294.605 208.415 293.216 208.764C291.836 209.114 290.48 209.288 289.153 209.288H279.205C278.707 209.288 278.367 209.183 278.189 208.974C278.007 208.756 277.921 208.468 277.921 208.118V183.869C277.921 183.498 278.007 183.214 278.189 183.013C278.367 182.804 278.707 182.699 279.205 182.699H289.153ZM294.117 192.354C294.117 191.097 293.657 190.115 292.737 189.403C291.817 188.683 290.619 188.321 289.153 188.321H284.898V203.667H289.153C290.619 203.667 291.817 203.317 292.737 202.619C293.657 201.921 294.117 200.926 294.117 199.634V192.354Z" fill="#5A789F"/>
</svg>
