<svg width="52" height="48" viewBox="0 0 52 48" fill="none" xmlns="http://www.w3.org/2000/svg">
<path d="M20.8203 3.26244C21.9883 3.74056 22.75 4.81869 22.75 5.99994V11.9999H34.125C43.9969 11.9999 52 19.3874 52 28.4999C52 39.1218 43.7227 43.8656 41.8234 44.8218C41.5695 44.9531 41.2852 44.9999 41.0008 44.9999C39.8938 44.9999 39 44.1656 39 43.1531C39 42.4499 39.4367 41.8031 39.9953 41.3249C40.95 40.4999 42.25 38.8499 42.25 36.0093C42.25 31.0406 37.8828 27.0093 32.5 27.0093H22.75V33.0093C22.75 34.1906 21.9984 35.2687 20.8203 35.7468C19.6422 36.2249 18.2812 36.0281 17.3266 35.2406L1.07656 21.7406C0.396094 21.1593 0 20.3531 0 19.4999C0 18.6468 0.396094 17.8406 1.07656 17.2687L17.3266 3.76869C18.2812 2.97181 19.6523 2.77494 20.8203 3.26244Z" fill="#013A63"/>
</svg>
