<svg width="542" height="372" viewBox="0 0 542 372" fill="none" xmlns="http://www.w3.org/2000/svg">
<path d="M85.6111 364.53H81.3923L89.0734 342.712H93.9527L101.644 364.53H97.4257L91.5983 347.186H91.4278L85.6111 364.53ZM85.7496 355.975H97.2552V359.15H85.7496V355.975ZM110.966 371.007C109.581 371.007 108.392 370.819 107.397 370.442C106.403 370.073 105.604 369.576 105 368.951C104.397 368.326 103.978 367.633 103.743 366.874L107.216 366.032C107.372 366.352 107.6 366.668 107.898 366.98C108.196 367.3 108.598 367.562 109.102 367.768C109.613 367.981 110.256 368.088 111.03 368.088C112.124 368.088 113.029 367.822 113.747 367.289C114.464 366.763 114.823 365.897 114.823 364.69V361.589H114.631C114.432 361.987 114.141 362.396 113.757 362.815C113.381 363.234 112.88 363.585 112.255 363.869C111.637 364.153 110.86 364.295 109.922 364.295C108.665 364.295 107.525 364.001 106.502 363.411C105.487 362.815 104.677 361.927 104.073 360.748C103.477 359.562 103.179 358.077 103.179 356.295C103.179 354.498 103.477 352.981 104.073 351.746C104.677 350.503 105.49 349.562 106.513 348.923C107.536 348.276 108.676 347.953 109.933 347.953C110.892 347.953 111.68 348.116 112.298 348.443C112.923 348.763 113.42 349.15 113.789 349.604C114.159 350.052 114.439 350.474 114.631 350.872H114.844V348.166H118.647V364.796C118.647 366.195 118.313 367.353 117.646 368.269C116.978 369.185 116.066 369.871 114.908 370.325C113.75 370.78 112.436 371.007 110.966 371.007ZM110.998 361.27C111.815 361.27 112.511 361.071 113.086 360.673C113.661 360.276 114.098 359.704 114.397 358.958C114.695 358.212 114.844 357.317 114.844 356.273C114.844 355.244 114.695 354.342 114.397 353.567C114.105 352.793 113.672 352.193 113.097 351.767C112.529 351.334 111.829 351.117 110.998 351.117C110.139 351.117 109.421 351.341 108.846 351.788C108.271 352.236 107.838 352.85 107.546 353.631C107.255 354.405 107.11 355.286 107.11 356.273C107.11 357.275 107.255 358.152 107.546 358.905C107.845 359.651 108.282 360.233 108.857 360.652C109.439 361.064 110.153 361.27 110.998 361.27ZM133.029 357.648V348.166H136.886V364.53H133.147V361.621H132.976C132.607 362.538 132 363.287 131.154 363.869C130.316 364.452 129.283 364.743 128.054 364.743C126.982 364.743 126.034 364.505 125.21 364.029C124.393 363.546 123.754 362.847 123.292 361.93C122.831 361.007 122.6 359.892 122.6 358.585V348.166H126.456V357.989C126.456 359.026 126.74 359.849 127.309 360.46C127.877 361.071 128.622 361.376 129.546 361.376C130.114 361.376 130.664 361.238 131.197 360.961C131.73 360.684 132.166 360.272 132.507 359.725C132.855 359.171 133.029 358.479 133.029 357.648ZM145.56 364.86C144.524 364.86 143.59 364.675 142.759 364.306C141.935 363.93 141.281 363.376 140.798 362.644C140.323 361.913 140.085 361.011 140.085 359.938C140.085 359.015 140.255 358.251 140.596 357.648C140.937 357.044 141.402 356.561 141.992 356.199C142.581 355.837 143.245 355.563 143.984 355.379C144.729 355.187 145.5 355.048 146.296 354.963C147.254 354.864 148.032 354.775 148.629 354.697C149.225 354.611 149.658 354.484 149.928 354.313C150.205 354.136 150.344 353.862 150.344 353.493V353.429C150.344 352.626 150.106 352.005 149.63 351.565C149.154 351.124 148.469 350.904 147.574 350.904C146.629 350.904 145.88 351.11 145.326 351.522C144.779 351.934 144.41 352.42 144.218 352.981L140.617 352.47C140.901 351.476 141.37 350.645 142.024 349.977C142.677 349.303 143.476 348.798 144.421 348.464C145.365 348.124 146.409 347.953 147.553 347.953C148.341 347.953 149.126 348.045 149.907 348.23C150.688 348.415 151.402 348.72 152.048 349.146C152.695 349.565 153.213 350.137 153.604 350.861C154.002 351.586 154.2 352.491 154.2 353.578V364.53H150.493V362.282H150.365C150.131 362.736 149.801 363.163 149.374 363.56C148.955 363.951 148.426 364.267 147.787 364.508C147.155 364.743 146.413 364.86 145.56 364.86ZM146.562 362.026C147.336 362.026 148.007 361.874 148.575 361.568C149.144 361.256 149.58 360.844 149.886 360.332C150.198 359.821 150.354 359.263 150.354 358.66V356.731C150.234 356.831 150.028 356.923 149.737 357.008C149.453 357.094 149.133 357.168 148.778 357.232C148.423 357.296 148.071 357.353 147.723 357.403C147.375 357.452 147.073 357.495 146.818 357.53C146.242 357.609 145.727 357.736 145.273 357.914C144.818 358.092 144.46 358.34 144.197 358.66C143.934 358.972 143.803 359.377 143.803 359.874C143.803 360.584 144.062 361.121 144.58 361.483C145.099 361.845 145.759 362.026 146.562 362.026ZM158.078 364.53V348.166H161.818V350.893H161.988C162.286 349.949 162.798 349.221 163.522 348.709C164.254 348.191 165.088 347.932 166.026 347.932C166.239 347.932 166.477 347.942 166.739 347.964C167.009 347.978 167.233 348.003 167.411 348.038V351.586C167.247 351.529 166.988 351.479 166.633 351.437C166.285 351.387 165.948 351.362 165.621 351.362C164.918 351.362 164.286 351.515 163.725 351.82C163.171 352.119 162.734 352.534 162.414 353.067C162.095 353.599 161.935 354.214 161.935 354.91V364.53H158.078ZM175.371 364.817C174.086 364.817 172.935 364.487 171.92 363.827C170.904 363.166 170.101 362.207 169.512 360.95C168.922 359.693 168.628 358.166 168.628 356.369C168.628 354.551 168.926 353.017 169.523 351.767C170.126 350.51 170.94 349.562 171.962 348.923C172.985 348.276 174.125 347.953 175.382 347.953C176.341 347.953 177.129 348.116 177.747 348.443C178.365 348.763 178.855 349.15 179.217 349.604C179.579 350.052 179.86 350.474 180.059 350.872H180.219V342.712H184.086V364.53H180.293V361.952H180.059C179.86 362.349 179.572 362.772 179.196 363.219C178.82 363.66 178.322 364.036 177.704 364.349C177.087 364.661 176.309 364.817 175.371 364.817ZM176.447 361.653C177.264 361.653 177.96 361.433 178.535 360.993C179.111 360.545 179.547 359.924 179.846 359.129C180.144 358.333 180.293 357.406 180.293 356.348C180.293 355.29 180.144 354.37 179.846 353.589C179.555 352.807 179.121 352.2 178.546 351.767C177.978 351.334 177.278 351.117 176.447 351.117C175.588 351.117 174.871 351.341 174.295 351.788C173.72 352.236 173.287 352.854 172.996 353.642C172.704 354.43 172.559 355.332 172.559 356.348C172.559 357.371 172.704 358.283 172.996 359.086C173.294 359.881 173.731 360.51 174.306 360.972C174.888 361.426 175.602 361.653 176.447 361.653ZM192.904 364.86C191.867 364.86 190.933 364.675 190.102 364.306C189.278 363.93 188.625 363.376 188.142 362.644C187.666 361.913 187.428 361.011 187.428 359.938C187.428 359.015 187.599 358.251 187.94 357.648C188.281 357.044 188.746 356.561 189.335 356.199C189.925 355.837 190.589 355.563 191.328 355.379C192.073 355.187 192.844 355.048 193.639 354.963C194.598 354.864 195.376 354.775 195.972 354.697C196.569 354.611 197.002 354.484 197.272 354.313C197.549 354.136 197.688 353.862 197.688 353.493V353.429C197.688 352.626 197.45 352.005 196.974 351.565C196.498 351.124 195.813 350.904 194.918 350.904C193.973 350.904 193.224 351.11 192.67 351.522C192.123 351.934 191.754 352.42 191.562 352.981L187.961 352.47C188.245 351.476 188.714 350.645 189.367 349.977C190.021 349.303 190.82 348.798 191.764 348.464C192.709 348.124 193.753 347.953 194.896 347.953C195.685 347.953 196.47 348.045 197.251 348.23C198.032 348.415 198.746 348.72 199.392 349.146C200.038 349.565 200.557 350.137 200.948 350.861C201.345 351.586 201.544 352.491 201.544 353.578V364.53H197.837V362.282H197.709C197.475 362.736 197.144 363.163 196.718 363.56C196.299 363.951 195.77 364.267 195.131 364.508C194.499 364.743 193.756 364.86 192.904 364.86ZM193.906 362.026C194.68 362.026 195.351 361.874 195.919 361.568C196.487 361.256 196.924 360.844 197.229 360.332C197.542 359.821 197.698 359.263 197.698 358.66V356.731C197.578 356.831 197.372 356.923 197.08 357.008C196.796 357.094 196.477 357.168 196.122 357.232C195.766 357.296 195.415 357.353 195.067 357.403C194.719 357.452 194.417 357.495 194.161 357.53C193.586 357.609 193.071 357.736 192.617 357.914C192.162 358.092 191.803 358.34 191.541 358.66C191.278 358.972 191.146 359.377 191.146 359.874C191.146 360.584 191.406 361.121 191.924 361.483C192.443 361.845 193.103 362.026 193.906 362.026ZM209.278 354.942V364.53H205.422V348.166H209.108V350.947H209.3C209.676 350.03 210.276 349.303 211.1 348.763C211.931 348.223 212.957 347.953 214.179 347.953C215.308 347.953 216.292 348.195 217.13 348.678C217.975 349.16 218.629 349.86 219.09 350.776C219.559 351.692 219.79 352.804 219.783 354.111V364.53H215.926V354.707C215.926 353.614 215.642 352.758 215.074 352.14C214.513 351.522 213.735 351.213 212.741 351.213C212.066 351.213 211.466 351.362 210.94 351.66C210.422 351.952 210.014 352.374 209.715 352.928C209.424 353.482 209.278 354.153 209.278 354.942ZM229.776 364.817C228.49 364.817 227.34 364.487 226.324 363.827C225.308 363.166 224.506 362.207 223.916 360.95C223.327 359.693 223.032 358.166 223.032 356.369C223.032 354.551 223.33 353.017 223.927 351.767C224.531 350.51 225.344 349.562 226.367 348.923C227.389 348.276 228.529 347.953 229.786 347.953C230.745 347.953 231.533 348.116 232.151 348.443C232.769 348.763 233.259 349.15 233.622 349.604C233.984 350.052 234.264 350.474 234.463 350.872H234.623V342.712H238.49V364.53H234.698V361.952H234.463C234.264 362.349 233.977 362.772 233.6 363.219C233.224 363.66 232.727 364.036 232.109 364.349C231.491 364.661 230.713 364.817 229.776 364.817ZM230.852 361.653C231.668 361.653 232.364 361.433 232.94 360.993C233.515 360.545 233.952 359.924 234.25 359.129C234.548 358.333 234.698 357.406 234.698 356.348C234.698 355.29 234.548 354.37 234.25 353.589C233.959 352.807 233.526 352.2 232.95 351.767C232.382 351.334 231.683 351.117 230.852 351.117C229.992 351.117 229.275 351.341 228.7 351.788C228.124 352.236 227.691 352.854 227.4 353.642C227.109 354.43 226.963 355.332 226.963 356.348C226.963 357.371 227.109 358.283 227.4 359.086C227.698 359.881 228.135 360.51 228.71 360.972C229.293 361.426 230.006 361.653 230.852 361.653ZM249.737 364.849C248.139 364.849 246.755 364.498 245.583 363.795C244.411 363.092 243.502 362.108 242.855 360.844C242.216 359.58 241.897 358.102 241.897 356.412C241.897 354.722 242.216 353.241 242.855 351.969C243.502 350.698 244.411 349.711 245.583 349.008C246.755 348.305 248.139 347.953 249.737 347.953C251.335 347.953 252.72 348.305 253.892 349.008C255.064 349.711 255.97 350.698 256.609 351.969C257.255 353.241 257.578 354.722 257.578 356.412C257.578 358.102 257.255 359.58 256.609 360.844C255.97 362.108 255.064 363.092 253.892 363.795C252.72 364.498 251.335 364.849 249.737 364.849ZM249.759 361.76C250.625 361.76 251.35 361.522 251.932 361.046C252.514 360.563 252.948 359.917 253.232 359.107C253.523 358.298 253.669 357.396 253.669 356.401C253.669 355.4 253.523 354.494 253.232 353.685C252.948 352.868 252.514 352.218 251.932 351.735C251.35 351.252 250.625 351.011 249.759 351.011C248.871 351.011 248.132 351.252 247.543 351.735C246.96 352.218 246.524 352.868 246.233 353.685C245.948 354.494 245.806 355.4 245.806 356.401C245.806 357.396 245.948 358.298 246.233 359.107C246.524 359.917 246.96 360.563 247.543 361.046C248.132 361.522 248.871 361.76 249.759 361.76ZM268.293 364.53V348.166H272.032V350.893H272.203C272.501 349.949 273.013 349.221 273.737 348.709C274.468 348.191 275.303 347.932 276.241 347.932C276.454 347.932 276.691 347.942 276.954 347.964C277.224 347.978 277.448 348.003 277.625 348.038V351.586C277.462 351.529 277.203 351.479 276.848 351.437C276.5 351.387 276.162 351.362 275.836 351.362C275.133 351.362 274.5 351.515 273.939 351.82C273.385 352.119 272.949 352.534 272.629 353.067C272.309 353.599 272.15 354.214 272.15 354.91V364.53H268.293ZM286.758 364.849C285.117 364.849 283.701 364.508 282.507 363.827C281.321 363.138 280.409 362.165 279.769 360.908C279.13 359.643 278.811 358.155 278.811 356.444C278.811 354.761 279.13 353.283 279.769 352.012C280.416 350.734 281.318 349.739 282.475 349.029C283.633 348.312 284.993 347.953 286.556 347.953C287.564 347.953 288.516 348.116 289.411 348.443C290.313 348.763 291.108 349.26 291.797 349.935C292.493 350.609 293.04 351.469 293.438 352.513C293.835 353.55 294.034 354.785 294.034 356.22V357.403H280.622V354.803H290.338C290.331 354.065 290.171 353.408 289.858 352.832C289.546 352.25 289.109 351.792 288.548 351.458C287.994 351.124 287.348 350.957 286.609 350.957C285.821 350.957 285.128 351.149 284.532 351.533C283.935 351.909 283.47 352.406 283.136 353.024C282.809 353.635 282.642 354.306 282.635 355.038V357.307C282.635 358.258 282.809 359.075 283.157 359.757C283.505 360.432 283.992 360.95 284.617 361.312C285.242 361.668 285.973 361.845 286.811 361.845C287.372 361.845 287.88 361.767 288.335 361.611C288.789 361.447 289.184 361.209 289.517 360.897C289.851 360.584 290.103 360.197 290.274 359.736L293.875 360.141C293.647 361.092 293.214 361.923 292.575 362.633C291.943 363.337 291.133 363.883 290.146 364.274C289.159 364.658 288.029 364.849 286.758 364.849ZM310.23 352.491L306.715 352.875C306.615 352.52 306.441 352.186 306.193 351.874C305.951 351.561 305.624 351.309 305.212 351.117C304.801 350.925 304.296 350.83 303.7 350.83C302.897 350.83 302.222 351.004 301.676 351.352C301.136 351.7 300.869 352.151 300.877 352.705C300.869 353.18 301.043 353.567 301.399 353.866C301.761 354.164 302.357 354.409 303.188 354.601L305.979 355.197C307.528 355.531 308.678 356.06 309.431 356.785C310.191 357.509 310.575 358.457 310.582 359.629C310.575 360.659 310.273 361.568 309.676 362.356C309.087 363.138 308.266 363.749 307.215 364.189C306.164 364.629 304.957 364.849 303.593 364.849C301.59 364.849 299.978 364.43 298.756 363.592C297.535 362.747 296.807 361.572 296.573 360.066L300.333 359.704C300.504 360.442 300.866 361 301.42 361.376C301.974 361.753 302.695 361.941 303.582 361.941C304.499 361.941 305.234 361.753 305.788 361.376C306.349 361 306.629 360.535 306.629 359.981C306.629 359.512 306.448 359.125 306.086 358.82C305.731 358.514 305.177 358.28 304.424 358.116L301.633 357.53C300.063 357.204 298.902 356.653 298.149 355.879C297.396 355.098 297.024 354.111 297.031 352.918C297.024 351.909 297.297 351.035 297.851 350.297C298.412 349.551 299.19 348.976 300.184 348.571C301.185 348.159 302.34 347.953 303.646 347.953C305.564 347.953 307.073 348.361 308.174 349.178C309.282 349.995 309.967 351.099 310.23 352.491ZM313.762 370.666V348.166H317.554V350.872H317.778C317.977 350.474 318.258 350.052 318.62 349.604C318.982 349.15 319.472 348.763 320.09 348.443C320.708 348.116 321.496 347.953 322.455 347.953C323.719 347.953 324.859 348.276 325.875 348.923C326.897 349.562 327.707 350.51 328.304 351.767C328.907 353.017 329.209 354.551 329.209 356.369C329.209 358.166 328.915 359.693 328.325 360.95C327.736 362.207 326.933 363.166 325.917 363.827C324.902 364.487 323.751 364.817 322.466 364.817C321.528 364.817 320.75 364.661 320.133 364.349C319.515 364.036 319.017 363.66 318.641 363.219C318.272 362.772 317.984 362.349 317.778 361.952H317.618V370.666H313.762ZM317.544 356.348C317.544 357.406 317.693 358.333 317.991 359.129C318.297 359.924 318.733 360.545 319.302 360.993C319.877 361.433 320.573 361.653 321.39 361.653C322.242 361.653 322.956 361.426 323.531 360.972C324.106 360.51 324.54 359.881 324.831 359.086C325.129 358.283 325.278 357.371 325.278 356.348C325.278 355.332 325.133 354.43 324.841 353.642C324.55 352.854 324.117 352.236 323.542 351.788C322.966 351.341 322.249 351.117 321.39 351.117C320.566 351.117 319.866 351.334 319.291 351.767C318.716 352.2 318.279 352.807 317.981 353.589C317.689 354.37 317.544 355.29 317.544 356.348ZM339.65 364.849C338.052 364.849 336.667 364.498 335.495 363.795C334.323 363.092 333.414 362.108 332.767 360.844C332.128 359.58 331.809 358.102 331.809 356.412C331.809 354.722 332.128 353.241 332.767 351.969C333.414 350.698 334.323 349.711 335.495 349.008C336.667 348.305 338.052 347.953 339.65 347.953C341.248 347.953 342.633 348.305 343.804 349.008C344.976 349.711 345.882 350.698 346.521 351.969C347.167 353.241 347.491 354.722 347.491 356.412C347.491 358.102 347.167 359.58 346.521 360.844C345.882 362.108 344.976 363.092 343.804 363.795C342.633 364.498 341.248 364.849 339.65 364.849ZM339.671 361.76C340.537 361.76 341.262 361.522 341.844 361.046C342.427 360.563 342.86 359.917 343.144 359.107C343.435 358.298 343.581 357.396 343.581 356.401C343.581 355.4 343.435 354.494 343.144 353.685C342.86 352.868 342.427 352.218 341.844 351.735C341.262 351.252 340.537 351.011 339.671 351.011C338.783 351.011 338.044 351.252 337.455 351.735C336.873 352.218 336.436 352.868 336.145 353.685C335.861 354.494 335.718 355.4 335.718 356.401C335.718 357.396 335.861 358.298 336.145 359.107C336.436 359.917 336.873 360.563 337.455 361.046C338.044 361.522 338.783 361.76 339.671 361.76ZM363.697 352.491L360.181 352.875C360.082 352.52 359.908 352.186 359.659 351.874C359.418 351.561 359.091 351.309 358.679 351.117C358.267 350.925 357.763 350.83 357.166 350.83C356.364 350.83 355.689 351.004 355.142 351.352C354.603 351.7 354.336 352.151 354.343 352.705C354.336 353.18 354.51 353.567 354.865 353.866C355.228 354.164 355.824 354.409 356.655 354.601L359.446 355.197C360.995 355.531 362.145 356.06 362.898 356.785C363.658 357.509 364.041 358.457 364.049 359.629C364.041 360.659 363.74 361.568 363.143 362.356C362.554 363.138 361.733 363.749 360.682 364.189C359.631 364.629 358.424 364.849 357.06 364.849C355.057 364.849 353.445 364.43 352.223 363.592C351.002 362.747 350.274 361.572 350.039 360.066L353.8 359.704C353.97 360.442 354.333 361 354.887 361.376C355.441 361.753 356.161 361.941 357.049 361.941C357.965 361.941 358.701 361.753 359.255 361.376C359.816 361 360.096 360.535 360.096 359.981C360.096 359.512 359.915 359.125 359.553 358.82C359.198 358.514 358.644 358.28 357.891 358.116L355.1 357.53C353.53 357.204 352.369 356.653 351.616 355.879C350.863 355.098 350.49 354.111 350.497 352.918C350.49 351.909 350.764 351.035 351.318 350.297C351.879 349.551 352.657 348.976 353.651 348.571C354.652 348.159 355.806 347.953 357.113 347.953C359.031 347.953 360.54 348.361 361.641 349.178C362.749 349.995 363.434 351.099 363.697 352.491ZM375.4 348.166V351.149H365.993V348.166H375.4ZM368.315 344.246H372.172V359.608C372.172 360.126 372.25 360.524 372.406 360.801C372.57 361.071 372.783 361.256 373.045 361.355C373.308 361.455 373.599 361.504 373.919 361.504C374.16 361.504 374.381 361.486 374.579 361.451C374.785 361.415 374.942 361.383 375.048 361.355L375.698 364.37C375.492 364.441 375.197 364.519 374.814 364.604C374.437 364.69 373.976 364.739 373.429 364.754C372.463 364.782 371.593 364.636 370.819 364.317C370.045 363.99 369.43 363.486 368.976 362.804C368.528 362.122 368.308 361.27 368.315 360.247V344.246ZM383.334 364.86C382.297 364.86 381.363 364.675 380.532 364.306C379.708 363.93 379.055 363.376 378.572 362.644C378.096 361.913 377.858 361.011 377.858 359.938C377.858 359.015 378.028 358.251 378.369 357.648C378.71 357.044 379.176 356.561 379.765 356.199C380.354 355.837 381.019 355.563 381.757 355.379C382.503 355.187 383.274 355.048 384.069 354.963C385.028 354.864 385.805 354.775 386.402 354.697C386.999 354.611 387.432 354.484 387.702 354.313C387.979 354.136 388.117 353.862 388.117 353.493V353.429C388.117 352.626 387.879 352.005 387.403 351.565C386.928 351.124 386.242 350.904 385.347 350.904C384.403 350.904 383.653 351.11 383.1 351.522C382.553 351.934 382.183 352.42 381.992 352.981L378.391 352.47C378.675 351.476 379.144 350.645 379.797 349.977C380.45 349.303 381.249 348.798 382.194 348.464C383.139 348.124 384.183 347.953 385.326 347.953C386.114 347.953 386.899 348.045 387.68 348.23C388.462 348.415 389.176 348.72 389.822 349.146C390.468 349.565 390.987 350.137 391.377 350.861C391.775 351.586 391.974 352.491 391.974 353.578V364.53H388.266V362.282H388.139C387.904 362.736 387.574 363.163 387.148 363.56C386.729 363.951 386.2 364.267 385.56 364.508C384.928 364.743 384.186 364.86 383.334 364.86ZM384.335 362.026C385.109 362.026 385.781 361.874 386.349 361.568C386.917 361.256 387.354 360.844 387.659 360.332C387.972 359.821 388.128 359.263 388.128 358.66V356.731C388.007 356.831 387.801 356.923 387.51 357.008C387.226 357.094 386.906 357.168 386.551 357.232C386.196 357.296 385.845 357.353 385.497 357.403C385.149 357.452 384.847 357.495 384.591 357.53C384.016 357.609 383.501 357.736 383.046 357.914C382.592 358.092 382.233 358.34 381.97 358.66C381.707 358.972 381.576 359.377 381.576 359.874C381.576 360.584 381.835 361.121 382.354 361.483C382.872 361.845 383.533 362.026 384.335 362.026ZM398.227 364.764C397.581 364.764 397.027 364.537 396.565 364.082C396.104 363.628 395.877 363.074 395.884 362.42C395.877 361.781 396.104 361.234 396.565 360.78C397.027 360.325 397.581 360.098 398.227 360.098C398.852 360.098 399.396 360.325 399.857 360.78C400.326 361.234 400.564 361.781 400.571 362.42C400.564 362.854 400.45 363.248 400.23 363.603C400.017 363.958 399.733 364.242 399.378 364.455C399.03 364.661 398.646 364.764 398.227 364.764ZM406.929 364.764C406.282 364.764 405.728 364.537 405.267 364.082C404.805 363.628 404.578 363.074 404.585 362.42C404.578 361.781 404.805 361.234 405.267 360.78C405.728 360.325 406.282 360.098 406.929 360.098C407.554 360.098 408.097 360.325 408.559 360.78C409.027 361.234 409.265 361.781 409.272 362.42C409.265 362.854 409.152 363.248 408.931 363.603C408.718 363.958 408.434 364.242 408.079 364.455C407.731 364.661 407.348 364.764 406.929 364.764ZM415.63 364.764C414.983 364.764 414.429 364.537 413.968 364.082C413.506 363.628 413.279 363.074 413.286 362.42C413.279 361.781 413.506 361.234 413.968 360.78C414.429 360.325 414.983 360.098 415.63 360.098C416.255 360.098 416.798 360.325 417.26 360.78C417.728 361.234 417.966 361.781 417.973 362.42C417.966 362.854 417.853 363.248 417.633 363.603C417.419 363.958 417.135 364.242 416.78 364.455C416.432 364.661 416.049 364.764 415.63 364.764Z" fill="#5A7DA0"/>
<path d="M475.894 170.673C472.97 237.916 419.394 290.851 354.355 290.851H81.7831C43.2054 290.851 16.7013 250.567 30.9823 213.481C50.0197 162.811 112.053 200.306 83.6308 157.694C56.0809 116.38 39.6778 65.9651 63.1879 41.6811C117.611 -14.5301 181.854 60.0209 217.167 49.2204C228.429 45.5382 273.151 16.4305 290.542 11.2156C401.363 -30.1008 485.403 67.6787 475.894 170.673Z" fill="#E3F0FF"/>
<path d="M49.4357 154.296C52.448 148.162 25.8006 116.899 13.5623 124.868C1.32402 132.838 0.0526237 149.01 18.3003 154.88C35.548 160.427 46.4264 160.43 49.4357 154.296Z" fill="#E3F0FF"/>
<path d="M109.088 23.093L105.353 0.976216C105.268 0.484071 104.789 0.149059 104.28 0.229106C103.774 0.312119 103.429 0.77758 103.512 1.26972L107.161 22.8737L91.4045 35.6309C91.0081 35.951 90.9533 36.5232 91.2825 36.9087C91.4685 37.1221 91.7338 37.2348 92.0021 37.2348C92.2125 37.2348 92.4228 37.1666 92.5966 37.0243L108.762 23.935C109.018 23.7305 109.14 23.4073 109.088 23.093Z" fill="#C7DEFF"/>
<path d="M133.926 34.3277L112.227 26.7558C111.916 26.6491 111.568 26.7083 111.315 26.9129L95.1496 40.0022C94.7533 40.3224 94.6984 40.8945 95.0277 41.28C95.2137 41.4934 95.4789 41.6061 95.7442 41.6061C95.9545 41.6061 96.168 41.5379 96.3417 41.3956L112.098 28.6384L133.294 36.0354C133.779 36.2044 134.313 35.9583 134.487 35.4869C134.66 35.0155 134.41 34.4967 133.926 34.3277Z" fill="#C7DEFF"/>
<path d="M102.104 21.641C102.18 22.0857 102.574 22.3999 103.022 22.3999C103.074 22.3999 103.122 22.3969 103.174 22.388C103.683 22.308 104.028 21.8426 103.943 21.3475L101.086 4.42834C101.003 3.93621 100.522 3.60121 100.016 3.68125C99.5065 3.76426 99.162 4.22971 99.2474 4.72184L102.104 21.641Z" fill="#C7DEFF"/>
<path d="M129.654 37.7803L113.054 31.9874C112.569 31.8184 112.038 32.0645 111.861 32.5359C111.688 33.0072 111.941 33.526 112.426 33.695L129.026 39.4879C129.13 39.5235 129.237 39.5413 129.34 39.5413C129.721 39.5413 130.081 39.31 130.218 38.9395C130.392 38.4681 130.139 37.9493 129.654 37.7803Z" fill="#C7DEFF"/>
<path d="M318.008 161.875L295.443 157.292C294.937 157.188 294.443 157.502 294.34 157.994C294.233 158.484 294.556 158.964 295.059 159.065L317.106 163.544L323.664 182.433C323.829 182.907 324.359 183.162 324.847 183.002C325.118 182.91 325.323 182.711 325.417 182.468C325.493 182.278 325.503 182.062 325.432 181.852L318.7 162.474C318.594 162.169 318.332 161.943 318.008 161.875Z" fill="#C7DEFF"/>
<path d="M337.745 143.404L322.659 160.35C322.443 160.594 322.376 160.929 322.479 161.234L329.211 180.611C329.376 181.086 329.907 181.341 330.394 181.181C330.666 181.092 330.87 180.89 330.965 180.647C331.041 180.457 331.05 180.241 330.98 180.03L324.419 161.145L339.154 144.59C339.492 144.211 339.45 143.641 339.059 143.312C338.672 142.986 338.084 143.028 337.745 143.404Z" fill="#C7DEFF"/>
<path d="M339.52 148.519L327.977 161.483C327.639 161.863 327.682 162.435 328.072 162.761C328.462 163.09 329.051 163.048 329.386 162.669L340.929 149.705C341.002 149.625 341.057 149.533 341.093 149.438C341.231 149.091 341.139 148.685 340.834 148.427C340.444 148.101 339.856 148.139 339.52 148.519Z" fill="#C7DEFF"/>
<path d="M198.494 239.592C198.494 239.592 91.4348 -37.8613 14.7213 33.4936C0.0408115 51.4776 17.2488 82.204 48.8599 117.837C80.4709 153.467 172.417 246.094 185.445 260.79L198.494 239.592Z" fill="#5A789F"/>
<path d="M198.493 239.592C198.493 239.592 132.238 67.8902 66.6221 29.3755C68.0734 33.0517 68.9637 37.0215 67.5643 39.5415C64.3568 45.3168 49.8928 47.9643 45.7585 57.5463C42.2218 65.7497 47.8409 97.4159 35.1514 101.507C39.3223 106.811 43.9139 112.263 48.8592 117.837C80.4703 153.467 172.416 246.094 185.444 260.79L198.493 239.592Z" fill="#5A789F"/>
<path d="M27.0615 35.7383C34.51 41.5699 41.6414 47.7869 48.6447 54.1166C89.4787 91.4335 125.657 133.802 154.737 180.426C160.329 189.447 165.784 198.914 170.726 208.291C172.805 212.199 175.125 216.835 177.077 220.808C178.339 223.441 180.126 227.215 181.324 229.877L182.15 231.698L182.952 233.533L183.754 235.365L184.55 237.2C175.003 218.092 164.381 199.542 152.731 181.629C141.097 163.705 128.52 146.379 115.196 129.607C95.1954 104.458 73.5664 80.5145 50.6052 57.867C42.9463 50.3336 35.1228 42.8625 27.0615 35.7383Z" fill="#5AA5D1"/>
<path d="M38.2677 167.52C38.2677 167.52 17.6205 159.328 3.64126 175.382C-8.14581 188.922 10.7757 225.679 30.3161 243.47C30.3161 243.47 11.1477 255.145 10.4982 268.596C9.84882 282.044 32.4077 296.239 64.3388 300.253L67.5646 186.195L38.2677 167.52Z" fill="#5A789F"/>
<path d="M35.9179 166.77C37.8479 177.707 39.2534 194.686 42.2322 213.156C46.9123 242.181 57.6292 284.312 21.1338 285.267C30.6616 292.249 45.9427 297.941 64.3398 300.254L67.5655 186.195L38.2686 167.52C38.2686 167.52 37.4058 167.176 35.9179 166.77Z" fill="#5A789F"/>
<path d="M13.4635 177.605C28.8087 192.85 43.605 208.699 58.1757 224.643C62.4076 229.253 66.9047 234.059 71.0177 238.755C78.9296 247.86 86.5732 257.267 93.7168 266.956C94.0887 267.472 94.4638 267.982 94.8327 268.5L94.601 268.687C83.8871 257.896 73.533 246.481 63.6729 234.949C60.56 231.249 56.9531 227.015 53.7883 223.357C43.8001 211.877 33.7052 200.392 23.5188 189.081C20.1162 185.304 16.7015 181.536 13.2471 177.807L13.4635 177.605Z" fill="#5AA5D1"/>
<path d="M23.3629 268.45C31.1864 268.96 39.08 268.604 46.8394 267.563C50.7024 267.036 54.5349 266.345 58.2881 265.319C61.3919 264.465 64.4316 263.419 67.4683 262.372C70.8038 261.216 74.0875 259.912 77.2828 258.42C79.356 257.451 81.3469 256.41 83.3775 255.334L83.5635 255.562C82.5604 256.627 81.4262 257.649 80.2768 258.563C75.1973 262.565 69.1544 265.429 62.8218 266.979C52.4982 269.449 41.7874 270.285 31.1925 269.585C28.5552 269.408 25.9301 269.156 23.3232 268.737L23.3629 268.45Z" fill="#5AA5D1"/>
<mask id="mask0_2335_257" style="mask-type:luminance" maskUnits="userSpaceOnUse" x="55" y="50" width="151" height="253">
<path d="M55.0352 50.6704H205.675V302.008H55.0352V50.6704Z" fill="white"/>
</mask>
<g mask="url(#mask0_2335_257)">
<path d="M193.648 301.976H67.155C60.7736 301.976 55.5996 296.947 55.5996 290.742V62.3134C55.5996 56.1083 60.7736 51.0771 67.155 51.0771H193.648C200.032 51.0771 205.206 56.1083 205.206 62.3134V290.742C205.206 296.947 200.032 301.976 193.648 301.976Z" fill="#303C72"/>
</g>
<path d="M189.271 295.402H71.5256C66.2266 295.402 61.9307 291.225 61.9307 286.075V66.9764C61.9307 61.8267 66.2266 57.6523 71.5256 57.6523H189.271C194.57 57.6523 198.863 61.8267 198.863 66.9764V286.075C198.863 291.225 194.57 295.402 189.271 295.402Z" fill="#D4EBFF"/>
<path d="M189.271 57.6523H71.5256C66.2266 57.6523 61.9307 61.8267 61.9307 66.9764V78.438H198.863V66.9764C198.863 61.8267 194.57 57.6523 189.271 57.6523Z" fill="#8CCBFF"/>
<path d="M158.389 169.2C158.389 169.2 172.033 159.98 182.704 177.255C193.378 194.534 205.156 228.824 208.489 239.482C211.821 250.137 198.997 255.797 191.067 247.664C183.134 239.532 163.426 202.63 158.917 193.552C154.407 184.474 151.657 174.332 158.389 169.2Z" fill="#9E5959"/>
<path d="M194.409 233.566L205.388 230.086C204.348 227.065 201.812 220.012 201.812 220.012C201.812 220.012 195.72 227.566 194.409 233.566Z" fill="#914D4D"/>
<path d="M181.619 234.334C181.567 230.8 181.533 225.179 181.692 219.469C181.951 210.068 180.427 188.847 180.427 188.847L167.591 209.985C171.884 217.851 177.006 226.902 181.619 234.334Z" fill="#914D4D"/>
<path d="M160.197 166.742C160.197 166.742 148.58 171.699 154.407 186.493C160.233 201.29 178.944 232.057 184.545 241.408C190.146 250.759 198.165 255.203 204.268 252.054C210.372 248.903 210.72 243.421 208.287 235.016C205.851 226.614 189.902 188.138 185.887 180.273C181.868 172.41 171.642 160.72 160.197 166.742Z" fill="white"/>
<path d="M200.731 214.935C197.173 219.473 192.703 230.564 192.703 230.564L204.883 225.471C203.676 222.322 202.252 218.714 200.731 214.935Z" fill="#D4EBFF"/>
<path d="M184.489 241.312C184.605 234.597 184.797 219.572 184.425 211.113C183.94 199.987 181.724 186.494 181.724 186.494L172.931 221.84C177.766 230.165 182.19 237.476 184.489 241.312Z" fill="#D4EBFF"/>
<path d="M234.72 191.159C234.72 191.159 244.046 194.542 249.052 205.547L244.564 209.134L232.024 196.789L234.72 191.159Z" fill="#ABD3FC"/>
<path d="M196.761 250.979C200.999 252.406 205.707 251.137 208.719 247.905C216.887 239.138 243.791 209.966 249.34 200.206C255.904 188.664 247.282 186.995 239.26 194.155C231.241 201.314 218.122 212.156 212.009 217.152C202.057 225.287 192.349 231.344 189.234 237.505C187.05 241.816 190.416 248.845 196.761 250.979Z" fill="#9E5959"/>
<path d="M241.61 210.846C237.436 215.684 229.347 206.535 232.125 202.038C232.171 201.967 240.461 191.964 241.576 188.201C242.75 184.238 242.177 182.316 246.372 178.8C249.943 175.812 252.327 173.781 254.123 174.06C256.025 174.356 254.382 176.826 252.449 178.486C250.357 180.286 247.199 185.592 250.184 185.447C252.562 185.329 260.193 183.787 262.498 182.785C266.254 181.151 275.654 172.293 277.868 176.965C277.868 176.965 280.304 176.571 280.139 179.31C280.139 179.31 283.084 180.226 280.407 183.609C280.407 183.609 282.124 185.121 280.41 187.066C279.249 188.385 274.166 192.886 270.794 195.421C267.425 197.955 253.787 199.61 248.961 202.444C247.424 203.348 242.564 209.74 241.61 210.846Z" fill="#F6AF9A"/>
<path d="M248.973 184.568C249.192 187.385 250.165 189.668 249.204 192.496C251.579 190.263 249.491 186.946 248.973 184.568Z" fill="#E57E73"/>
<path d="M280.407 183.608C278.999 183.386 277.91 184.504 276.892 185.257C273.721 187.581 270.736 190.252 267.413 192.307C271.361 191.385 274.008 187.857 277.114 185.512C278.011 184.625 279.233 183.635 280.407 183.608Z" fill="#E57E73"/>
<path d="M280.142 179.31C277.167 179.57 275.011 181.859 272.7 183.454C270.359 185.019 268.277 187.332 265.923 188.604C267.392 188.435 268.645 187.492 269.752 186.594C273.127 184.172 276.13 180.362 280.142 179.31Z" fill="#E57E73"/>
<path d="M277.871 176.966C272.468 177.74 268.926 182.584 264.453 185.113C269.606 183.823 272.673 177.956 277.871 176.966Z" fill="#E57E73"/>
<path d="M265.343 193.281C259.66 191.508 252.02 190.322 247.065 194.292C252.511 191.185 259.395 192.436 265.343 193.281Z" fill="#EA9A88"/>
<path d="M264.088 184.965C265.119 185.833 265.448 187.176 265.771 188.413C266.802 189.355 267.006 190.891 267.265 192.19C267.79 192.563 267.802 193.301 267.808 193.876C267.665 193.289 267.442 192.658 266.912 192.364C266.482 191.214 266.207 189.696 265.284 188.848C264.713 187.751 264.741 186.198 263.793 185.246C263.497 184.645 263.317 183.933 262.799 183.441C263.393 183.779 263.787 184.369 264.088 184.965Z" fill="#EA9A88"/>
<path d="M234.721 191.159C234.721 191.159 238.325 202.588 249.054 205.547C249.054 205.547 218.635 242.238 210.72 248.627C202.808 255.019 190.917 252.138 186.698 242.71C182.634 233.629 234.721 191.159 234.721 191.159Z" fill="white"/>
<path d="M146.259 272.353C132.978 276.592 127.593 286.26 125.983 295.403H176.803C175.738 289.483 174.54 285.018 173.202 282.714C164.802 268.243 146.259 272.353 146.259 272.353Z" fill="#F6AF9A"/>
<path d="M146.703 265.978C131.254 268.984 123.379 279.191 122.857 295.402H180.643C180.555 294.789 180.466 294.193 180.378 293.615C176.082 265.729 146.703 265.978 146.703 265.978Z" fill="#384682"/>
<path d="M108.206 230.99C110.072 251.518 104.426 263.925 102.008 276.407C100.734 282.991 100.392 289.493 101.276 295.402H169.846C174.06 285.903 173.319 276.543 173.456 271.479C173.691 262.956 174.398 248.722 174.398 248.722C176.895 211.079 106.344 210.459 108.206 230.99Z" fill="#F6AF9A"/>
<path d="M103.692 265.245C103.692 265.245 97.0549 281.198 99.5063 295.402H171.055C174.948 282.497 174.659 265.977 174.659 265.977C165.539 267.406 103.692 265.245 103.692 265.245Z" fill="#384682"/>
<path d="M98.7686 295.402H149.283C149.045 272.364 129.425 270.816 129.425 270.816C114.01 269.239 102.583 273.781 98.7686 295.402Z" fill="#F6AF9A"/>
<path d="M96.1623 295.35C96.1593 295.367 96.1593 295.385 96.1562 295.403H154.686C154.363 278.907 143.53 268.249 125.417 266.002C125.417 266.002 99.5039 264.087 96.1623 295.35Z" fill="#384682"/>
<path d="M122.727 159.094C135.047 157.084 144.88 158.727 156.478 162.03C164.237 164.238 172.552 166.367 176.308 171.472C182.903 180.435 179.897 202.575 178.21 212.824C176.524 223.07 175.247 244.499 174.323 250.005C173.399 255.51 148.276 264.152 132.898 261.902C121.108 260.177 110.318 254.558 108.781 244.06C106.973 231.68 103.893 213.93 100.32 203.144C96.7468 192.362 91.1338 169.904 108.836 162.388C112.156 160.98 119.483 159.622 122.727 159.094Z" fill="#F6AF9A"/>
<path d="M151.798 147.68C151.798 147.68 151.399 158.865 153.951 163.991C156.499 169.115 147.77 172.302 142.096 172.254C136.422 172.207 127.709 169.117 126.69 162.474C125.675 155.827 129.855 158.341 129.065 140.277C128.449 126.15 153.386 133.76 151.798 147.68Z" fill="#F6AF9A"/>
<path d="M153.15 161.898C151.489 156.328 151.797 147.68 151.797 147.68C153.056 136.628 137.595 129.554 131.482 134.185C131.232 135.759 131.116 137.532 131.165 139.533C131.19 140.574 141.598 160.11 153.15 161.898Z" fill="#EA9A88"/>
<path d="M179.419 268.282C178.583 262.169 179.419 232.213 179.538 227.917C179.657 223.618 181.94 201.092 181.696 194.359C181.449 187.624 179.522 174.131 177.8 170.078C176.074 166.029 163.071 162.933 156.262 161.899L152.906 160.98C152.906 160.98 153.982 164.766 148.241 165.726C139.789 167.14 130.6 162.13 126.795 158.552C126.795 158.552 124.554 158.273 123.035 158.549C123.035 158.549 108.334 160.837 104.483 162.343C100.632 163.849 95.0922 170.44 94.8544 181.703C94.6136 192.966 100.467 214.013 102.138 224.795C103.812 235.581 102.736 254.042 102.019 260.428C101.303 266.814 94.3757 287.134 94.2568 295.145C94.2568 295.145 95.1349 295.243 96.6868 295.403H164.894C174.547 294.442 181.69 293.603 182.285 293.171C182.285 293.171 180.504 287.947 180.379 283.651C180.254 279.355 180.254 274.395 179.419 268.282Z" fill="#85B9F1"/>
<path d="M147.329 167.846C151.073 167.804 156.411 175.519 156.411 175.519C158.088 172.572 159.652 166.304 160.466 162.658C158.933 162.34 157.494 162.085 156.262 161.899L152.905 160.98C152.905 160.98 153.981 164.766 148.24 165.726C139.789 167.14 130.599 162.13 126.794 158.552C126.794 158.552 124.553 158.273 123.035 158.549C123.035 158.549 122.138 158.688 120.733 158.922L118.797 161.825L142.334 180.286C142.334 180.286 142.264 179.064 143.094 174.955C144.429 168.323 147.329 167.846 147.329 167.846Z" fill="#75AEEB"/>
<path d="M116.066 221.584C117.953 207.56 118.688 182.654 118.688 182.654C118.688 182.654 105.815 187.581 95.3636 189.502C96.7966 201 100.803 216.176 102.138 224.794C103.812 235.577 102.736 254.041 102.019 260.427C101.303 266.813 94.3757 287.134 94.2568 295.144C94.2568 295.144 95.1349 295.242 96.6868 295.402H118.916C106.135 288.655 106.864 268.883 108.55 257.961C110.532 245.1 114.639 232.194 116.066 221.584Z" fill="#75AEEB"/>
<path d="M147.858 169.971C149.611 169.909 149.992 166.992 150.062 165.254C149.547 165.447 148.943 165.607 148.236 165.726C146.785 165.969 145.309 166.022 143.846 165.927C144.477 167.294 145.983 170.036 147.858 169.971Z" fill="#384682"/>
<path d="M146.397 168.301C146.397 168.301 155.599 209.232 156.41 218.245L162.127 228.82L164.532 214.933C164.532 214.933 154.974 181.806 148.663 167.889L146.397 168.301Z" fill="#384682"/>
<path d="M146.92 165.894C146.92 165.894 151.66 163.623 152.901 160.979C152.901 160.979 154.947 160.916 155.795 161.325C155.795 161.325 157.176 168.322 155.795 172.787C155.795 172.787 151.106 166.614 147.413 166.926C143.712 167.24 141.307 175.689 141.307 175.689C141.307 175.689 128.16 165.689 126.532 158.577L126.904 158.162C126.904 158.162 138.133 164.551 146.92 165.894Z" fill="#96C3F2"/>
<path d="M171.465 107.905C171.465 107.905 173.291 116.36 170.736 126.28L165.093 107.57L171.465 107.905Z" fill="#8C4949"/>
<path d="M148.241 91.6569C148.241 91.6569 166.544 92.7035 169.501 108.529C172.459 124.355 170.608 152.982 159.976 156.116C150.275 158.977 135.305 149.211 129.003 139.41C122.371 129.095 120.017 115.947 123.92 106.003C127.338 97.2988 133.85 90.9039 148.241 91.6569Z" fill="#F6AF9A"/>
<path d="M139.919 110.164C139.919 110.164 138.05 112.859 138.565 116.929C138.901 119.58 137.855 120.534 135.017 124.397C132.175 128.26 132.833 128.486 131.998 132.743C131.163 136.998 129.123 147.43 129.068 148.263C129.01 149.1 126.379 146.17 124.409 140.365C122.443 134.561 118.263 123.298 117.903 112.963C117.546 102.63 127.339 92.1798 137.373 91.1333C137.373 91.1333 146.929 86.953 156.127 90.6708C165.323 94.3856 172.097 100.039 171.707 109.346L169.701 109.411C169.701 109.411 168.173 108.32 167.686 108.035C165.46 106.737 163.649 107.38 161.627 108.661C161.627 108.661 153.761 112.506 149.581 112.043C149.581 112.043 144.81 113.478 139.919 110.164Z" fill="#8C4949"/>
<path d="M131.735 100.739C131.735 100.739 130.549 108.376 138.872 112.589C139.302 111.059 139.918 110.164 139.918 110.164C139.918 110.164 132.702 105.812 131.735 100.739Z" fill="#7D4141"/>
<path d="M136.57 94.541C136.497 98.2557 137.411 102.213 140.238 104.849C143.604 107.932 149.875 108.555 154.351 108.442C153.805 108.647 153.238 108.801 152.665 108.922C148.39 109.788 143.274 109.376 139.747 106.657C136.174 103.823 135.097 98.6826 136.57 94.541Z" fill="#7D4141"/>
<path d="M141.203 92.5657C143.67 91.7652 146.285 91.4865 148.883 91.4984C154.136 91.5458 159.554 93.1645 163.408 96.7399C165.334 98.5127 166.801 100.715 167.642 103.087C166.886 102.067 166.112 101.092 165.258 100.197C162.758 97.5314 159.554 95.5422 156.054 94.3682C151.301 92.7613 146.215 92.4056 141.203 92.5657Z" fill="#7D4141"/>
<path d="M139.177 94.541C144.094 94.8908 148.915 96.1508 153.494 97.9118C157.012 99.2815 160.418 101.203 162.964 103.974C163.351 104.401 163.714 104.855 164.009 105.344C163.79 105.157 163.564 104.982 163.335 104.816C163.162 104.689 162.817 104.446 162.64 104.324C160.089 102.599 157.296 101.232 154.43 100.082C149.396 98.0867 144.262 96.4651 139.177 94.541Z" fill="#7D4141"/>
<path d="M142.364 98.9551C145.584 101.905 149.755 103.432 153.864 104.843C155.258 105.317 156.678 105.741 158.114 106.284C157.349 106.367 156.587 106.376 155.819 106.352C151.983 106.171 148.105 104.979 145.114 102.569C143.95 101.585 142.843 100.405 142.364 98.9551Z" fill="#7D4141"/>
<path d="M135.78 129.42C135.78 129.42 135.74 121.083 130.627 121.027C125.511 120.97 125.539 127.949 128.838 132.476C130.682 135.011 135.801 138.204 135.78 129.42Z" fill="#F6AF9A"/>
<path d="M130.153 126.648C131.159 126.705 131.952 127.241 132.506 127.787C132.363 126.829 131.958 125.904 131.028 125.329C130.787 125.181 130.717 124.872 130.869 124.638C131.022 124.404 131.336 124.336 131.58 124.484C134.9 126.533 133.168 131.54 133.092 131.75C133 132.011 132.708 132.151 132.439 132.059C132.433 132.059 132.43 132.056 132.424 132.056C132.165 131.961 132.028 131.682 132.119 131.424C132.125 131.404 132.421 130.55 132.531 129.459C132.525 129.45 132.513 129.441 132.506 129.429C132.497 129.414 131.555 127.727 130.095 127.647C129.811 127.632 129.595 127.395 129.61 127.12C129.625 126.844 129.869 126.633 130.153 126.648Z" fill="#E57E73"/>
<path d="M91.7207 295.402H183.84C182.52 281.909 180.88 261.901 180.49 252.769C179.965 240.463 182.234 207.442 182.282 197.145C182.331 186.849 179.27 172.449 179.27 172.449C178.864 171.266 178.011 167.794 170.382 165.031C162.754 162.271 155.995 161.823 155.995 161.823C162.577 178.334 160.714 220.712 160.714 220.712C160.714 220.712 154.757 204.966 146.397 187.699C139.061 172.55 122.429 158.547 122.429 158.547C114.578 158.796 100.901 161.954 100.901 161.954C87.2632 176.496 96.3398 206.496 98.6173 222.473C100.892 238.45 98.8368 255.257 92.8061 288.491C92.428 290.572 92.0652 292.891 91.7207 295.402Z" fill="white"/>
<path d="M160.831 217.144L160.715 221.609C166.252 184.547 163.181 164.965 162.672 162.846C158.724 162.007 155.995 161.826 155.995 161.826C161.419 175.428 161.108 206.593 160.831 217.144Z" fill="#ABD3FC"/>
<path d="M160.473 220.074C159.275 216.97 153.775 202.926 146.4 187.699C139.064 172.55 122.432 158.547 122.432 158.547C120.106 158.621 117.267 158.951 114.426 159.377C114.426 159.377 154.354 202.064 160.717 221.607L160.473 220.074Z" fill="#ABD3FC"/>
<path d="M158.785 295.403H160.005C161.215 270.452 162.069 245.501 160.715 220.713C161.441 245.569 160.047 270.58 158.785 295.403Z" fill="#ABD3FC"/>
<path d="M98.6173 222.474C100.892 238.45 98.8368 255.257 92.8061 288.492C92.428 290.573 92.0652 292.892 91.7207 295.403H102.157L104.072 276.2C104.572 270.807 106.483 250.312 107.115 244.368C107.846 237.505 109.307 236.556 112.959 217.49C116.612 198.424 117.484 181.907 117.484 181.907L94.9312 201.815C96.1508 209.538 97.8124 216.838 98.6173 222.474Z" fill="#D4EBFF"/>
<path d="M154.351 161.02C154.351 161.02 159.223 179.748 160.714 220.712C160.714 220.712 163.116 196.2 162.509 180.457C161.9 164.717 161.448 162.597 161.448 162.597C161.448 162.597 156.357 160.614 154.351 161.02Z" fill="white"/>
<path d="M160.714 220.713C146.396 187.7 115.728 159.189 115.728 159.189C118.804 157.686 126.905 158.163 126.905 158.163C126.905 158.163 138.844 171.344 147.171 187.087C158.385 208.29 160.714 220.713 160.714 220.713Z" fill="white"/>
<path d="M101.826 162.603C101.826 162.603 118.391 163.896 115.357 183.834C112.323 203.768 99.0332 237.534 94.652 247.827C90.2707 258.118 77.2244 254.759 76.4073 243.579C75.5872 232.402 83.8893 191.545 86.3346 181.746C88.7767 171.951 93.2739 162.417 101.826 162.603Z" fill="#F6AF9A"/>
<path d="M104.481 162.342C104.481 162.342 92.3246 157.498 85.5682 180.575C78.8088 203.652 74.4275 234.367 74.2446 244.663C74.0616 254.96 84.4493 260.044 91.044 256.202C97.6419 252.363 104.764 228.455 109.045 216.276C115.728 197.263 126.134 167.008 104.481 162.342Z" fill="white"/>
<path d="M76.2724 242.584C76.2724 242.584 76.1596 275.335 77.6597 295.403H91.9743C93.0323 286.313 94.3616 276.358 95.1177 270.894C96.8525 258.368 98.4288 248.392 98.6148 240.417C98.8587 229.996 77.0072 227.808 76.2724 242.584Z" fill="#F6AF9A"/>
<path d="M88.0842 226.022C88.0842 226.022 75.5196 227.089 74.2422 242.354C73.2818 253.849 73.1446 278.222 73.6049 295.402H97.2156C99.2127 274.688 102.74 237.741 102.813 234.335C102.917 229.573 94.2552 224.957 88.0842 226.022Z" fill="white"/>
<path d="M198.12 252.865V286.076C198.12 290.817 194.15 294.674 189.275 294.674H71.5294C66.6511 294.674 62.6845 290.817 62.6845 286.076V66.9772C62.6845 62.2366 66.6511 58.3795 71.5294 58.3795H189.275C194.15 58.3795 198.12 62.2366 198.12 66.9772V208.51C198.55 209.56 198.977 210.603 199.397 211.644C199.535 211.51 199.617 211.33 199.617 211.128V66.9772C199.617 61.4332 194.976 56.9238 189.275 56.9238H71.5294C65.8249 56.9238 61.1875 61.4332 61.1875 66.9772V286.076C61.1875 291.62 65.8249 296.13 71.5294 296.13H189.275C194.976 296.13 199.617 291.62 199.617 286.076V253.046C199.123 253.022 198.623 252.963 198.12 252.865Z" fill="white"/>
<path d="M156.948 62.3099H103.858C100.601 62.3099 97.9609 59.7425 97.9609 56.5791V55.3813H162.842V56.5791C162.842 59.7425 160.204 62.3099 156.948 62.3099Z" fill="#303C72"/>
<path d="M484.551 108.063C486.277 106.884 488.17 105.979 490.183 105.372C498.479 102.857 519.943 98.7068 536.209 116.222C553.573 134.915 528.44 187.915 501.543 214.023C501.543 214.023 529.288 229.748 530.84 248.805C532.389 267.862 501.04 289.006 455.916 296.113L445.998 134.39L484.551 108.063Z" fill="#5A789F"/>
<path d="M490.006 105.427C487.78 121.034 486.576 145.19 483.213 171.532C477.929 212.931 464.691 273.198 516.531 272.94C503.336 283.266 481.911 292.021 455.916 296.115L445.998 134.393L484.554 108.063C486.207 106.933 488.018 106.041 489.942 105.448L490.006 105.427Z" fill="#5A789F"/>
<path d="M522.646 120.05C502.48 143.11 482.867 166.715 463.482 190.403C457.979 197.163 452.036 204.678 446.509 211.426C435.133 225.23 423.361 239.271 411.437 252.621L411.199 252.443C411.718 251.705 412.242 250.972 412.763 250.24C415.385 246.59 418.071 242.932 420.751 239.342C428.282 229.291 436.112 219.271 444.066 209.534C452.012 199.884 460.454 190.166 468.549 180.628C479.031 168.337 489.8 155.956 500.55 143.892C505.276 138.583 510.267 133.045 515.057 127.806C517.502 125.147 519.944 122.487 522.42 119.854L522.646 120.05Z" fill="#5AA5D1"/>
<path d="M512.638 249.516C495.071 252.43 476.927 252.19 459.441 248.819C457.615 248.46 455.709 248.039 453.914 247.577C446.16 245.534 438.684 242.267 432.089 237.796C431.19 237.189 430.108 236.403 429.257 235.733C428.348 235.024 427.434 234.262 426.58 233.494L426.757 233.26C428.397 234.147 430.013 235.039 431.663 235.863C433.245 236.664 435.019 237.512 436.648 238.232C441.236 240.29 445.992 242.009 450.804 243.503C455.624 245.006 460.499 246.385 465.463 247.384C479.113 250.014 493.153 250.642 507.028 249.735C508.885 249.611 510.745 249.457 512.59 249.228L512.638 249.516Z" fill="#5AA5D1"/>
<mask id="mask1_2335_257" style="mask-type:luminance" maskUnits="userSpaceOnUse" x="321" y="50" width="152" height="253">
<path d="M321.974 50.6704H472.614V302.008H321.974V50.6704Z" fill="white"/>
</mask>
<g mask="url(#mask1_2335_257)">
<path d="M460.507 301.974H334.014C327.633 301.974 322.456 296.945 322.456 290.74V62.3115C322.456 56.1063 327.633 51.0752 334.014 51.0752H460.507C466.892 51.0752 472.066 56.1063 472.066 62.3115V290.74C472.066 296.945 466.892 301.974 460.507 301.974Z" fill="#303C72"/>
</g>
<path d="M456.131 295.402H338.389C333.09 295.402 328.794 291.225 328.794 286.075V66.9764C328.794 61.8267 333.09 57.6523 338.389 57.6523H456.131C461.43 57.6523 465.726 61.8267 465.726 66.9764V286.075C465.726 291.225 461.43 295.402 456.131 295.402Z" fill="#D4EBFF"/>
<path d="M355.493 180.116C356.398 175.328 360.276 171.367 365.496 170.484C372.201 169.348 378.582 173.709 379.75 180.226C379.991 181.58 379.991 182.921 379.774 184.204C379.725 184.507 379.661 184.806 379.588 185.103C378.387 190.827 371.618 222.624 365.258 242.126C364.59 245.494 361.853 248.269 358.173 248.892C353.416 249.698 348.889 246.603 348.059 241.978C347.733 240.169 353.029 190.237 355.493 180.116Z" fill="#DE9681"/>
<path d="M367.039 181.899C367.039 181.899 372.253 177.229 379.771 180.357C379.991 181.667 379.982 182.963 379.775 184.205C379.726 184.508 379.662 184.807 379.589 185.104C378.552 190.043 373.372 214.395 367.884 233.509C367.387 231.16 365.862 228.815 365.106 228.231C363.92 227.315 360.832 224.594 359.316 219.812C358.231 216.393 360.298 203.594 362.667 196.865C365.036 190.132 367.039 181.899 367.039 181.899Z" fill="#EA9A88"/>
<path d="M370.899 169.971C370.899 169.971 366.228 169.031 359.884 171.756C357.984 172.571 356.167 175.764 354.932 178.24C350.216 187.712 346.624 216.488 346.624 216.488C346.624 216.488 358.917 227.632 371.799 231.207C371.799 231.207 381.391 190.561 381.199 182.046C381.007 173.535 374.619 170.846 370.899 169.971Z" fill="#FCF5F1"/>
<path d="M377.794 203.92L362.26 179.944C362.26 179.944 365.547 189.722 363.873 196.274C362.199 202.829 358.217 211.794 357.595 217.142C357.327 219.458 357.452 222.25 357.68 224.673C361.833 227.261 366.772 229.81 371.8 231.207C371.8 231.207 375.105 217.207 377.794 203.92Z" fill="#F0E2DA"/>
<path d="M360.409 231.005C355.683 229.28 350.408 231.604 348.634 236.2C348.283 237.104 348.097 238.026 348.057 238.939C348.054 238.939 344.655 283.419 343.74 295.402H354.469C355.579 290.249 357.668 280.908 359.906 272.799C363.726 258.957 365.037 246.514 365.641 240.783C365.811 240.027 365.878 239.268 365.845 238.521C365.689 235.064 363.948 232.298 360.409 231.005Z" fill="#DE9681"/>
<path d="M382.552 277.923C372.47 278.984 364.634 286.259 362.631 295.403H407.398C404.995 284.368 394.333 276.683 382.552 277.923Z" fill="#F6AF9A"/>
<path d="M361.31 295.403H408.348C404.921 275.448 389.442 275.43 387.494 275.456C387.494 275.456 365.987 274.125 361.31 295.403Z" fill="#8C4949"/>
<path d="M402.876 242.462C379.143 242.396 374.222 253.155 374.222 253.155C373.826 256.126 373.762 259.429 372.353 262.239C365.841 275.219 363.298 290.025 362.542 295.403H442.353C441.878 287.413 438.877 279.85 434.871 270.203C432.353 264.134 426.295 256.159 426.206 249.9C426.206 249.9 423.779 242.518 402.876 242.462Z" fill="#F6AF9A"/>
<path d="M373.944 255.545C373.944 255.545 372.407 257.775 368.447 268.193C365.563 275.773 362.755 288.845 361.44 295.403H443.371C442.343 286.402 439.587 276.529 436.462 270.956C432.727 264.291 427.394 253.333 427.394 253.333C416.845 255.945 373.944 255.545 373.944 255.545Z" fill="#8C4949"/>
<path d="M436.464 270.956C432.729 264.291 427.396 253.333 427.396 253.333C420.268 255.098 398.374 255.489 384.919 255.554C378.812 259.539 377.053 264.098 377.053 264.098C377.053 264.098 393.447 269.518 414.158 269.859C424.972 269.859 429.232 269.859 430.649 270.612C431.643 271.14 433.207 286.36 434.055 295.403H443.373C442.345 286.402 439.589 276.529 436.464 270.956Z" fill="#824444"/>
<path d="M397.124 295.403H441.757C439.607 286.218 431.567 279.029 421.399 278.178C409.871 277.214 399.609 284.736 397.124 295.403Z" fill="#F6AF9A"/>
<path d="M395.138 295.403H443.024C440.972 284.792 435.313 274.982 419.227 275.471C419.227 275.471 399.174 275.459 395.138 295.403Z" fill="#8C4949"/>
<path d="M432.192 278.123C432.888 283.388 433.583 290.358 434.055 295.404H443.025C441.662 288.366 438.714 281.684 432.192 278.123Z" fill="#824444"/>
<path d="M372.604 235.047C372.604 235.047 366.467 231.528 365.378 225.854C364.29 220.179 367.412 201.312 368.204 192.486C369 183.66 361.729 176.046 360.753 171.664C360.753 171.664 371.025 166.968 393.547 164.819C393.547 164.819 406.243 165.175 418.441 167.333C428.396 169.091 433.579 174.389 435.524 177.422C437.469 180.455 436.204 187.849 433.494 196.879C430.783 205.91 427.804 213.734 427.506 223.298C427.359 227.917 427.146 244.404 427.442 255.198C427.442 255.198 428.628 261.982 404.517 263.431C382.26 264.771 373.997 255.302 373.997 255.302C373.159 246.423 372.604 235.047 372.604 235.047Z" fill="#DE9681"/>
<path d="M431.023 204.884C429.215 210.84 427.712 216.648 427.504 223.298C427.404 226.517 427.27 235.5 427.297 244.306C422.007 230.425 414.931 188.984 414.931 188.984L431.023 204.884Z" fill="#E57E73"/>
<path d="M382.328 168.076L383.651 145.201C383.807 140.667 386.996 136.585 391.743 135.39C397.521 133.935 403.418 137.308 404.915 142.927C405.119 143.689 405.229 144.456 405.256 145.212L407.323 169.772C407.341 169.944 407.387 170.724 407.387 170.724C407.744 176.502 403.847 181.498 397.862 183.004C391.066 184.714 384.356 181.062 382.597 174.453C382.048 172.396 382.182 170.267 382.328 168.076Z" fill="#DE9681"/>
<path d="M383.652 145.201C383.808 140.667 386.997 136.585 391.744 135.39C397.522 133.935 403.418 137.308 404.915 142.927C405.12 143.689 405.229 144.456 405.257 145.212L405.364 146.49C400.54 157.039 391.759 164.889 382.405 166.79L383.652 145.201Z" fill="#D38475"/>
<path d="M374.515 167.658C374.515 167.658 376.082 174.545 387.272 176.321C398.461 178.097 421.16 167.732 421.16 167.732C421.16 167.732 426.029 167.667 429.383 169.698C429.383 169.698 435.734 173.558 436.801 178.296C437.868 183.036 436.445 191.426 435.582 194.489C434.719 197.549 429.383 224.646 429.383 231.435C429.383 236.176 432.207 249.662 433.911 257.371C434.594 260.466 432.46 263.475 429.243 263.952C418.575 265.533 395.123 268.064 372.222 264.243C368.472 263.617 365.826 260.324 366.073 256.635C366.646 248.115 367.594 233.932 367.573 233.339C367.573 233.339 362.841 230.525 361.823 222.526C360.804 214.53 367.048 194.685 366.378 191.278C365.707 187.872 359.768 174.996 359.887 171.755C359.887 171.755 366.332 168.755 374.515 167.658Z" fill="#FCF5F1"/>
<path d="M402.429 266.206C413.741 265.966 423.412 264.815 429.248 263.953C432.461 263.475 434.592 260.463 433.909 257.371C432.205 249.663 429.382 236.176 429.382 231.435C429.382 224.646 434.717 197.549 435.58 194.489C435.778 193.789 436.004 192.814 436.22 191.67C426.659 186.401 417.726 185.215 413.393 190.834C413.393 190.834 415.607 216.268 415.573 221.157C415.54 226.043 404.603 233.558 388.151 231.907C388.151 231.907 403.387 237.338 417.299 230.425L418.964 235.115H425.214C425.214 235.115 426.034 245.038 427.254 251.851C428.464 258.628 415.71 263.416 402.429 266.206Z" fill="#F0E2DA"/>
<path d="M413.484 185.227C413.341 184.056 413.362 182.849 413.57 181.628C414.75 174.669 421.509 169.959 428.668 171.103C434.607 172.055 438.958 176.745 439.592 182.289L454.349 242.906C454.663 244.091 454.736 245.357 454.517 246.644C453.681 251.583 448.882 254.927 443.803 254.115C439.522 253.427 436.406 250.009 436.031 245.995C436.031 245.995 417.393 203.261 413.823 186.952C413.67 186.389 413.558 185.811 413.484 185.227Z" fill="#DE9681"/>
<path d="M424.2 169.697C424.2 169.697 410.797 171.455 412.779 187.735C414.758 204.014 421.462 233.338 421.462 233.338C421.462 233.338 445.381 233.486 453.454 222.081C453.454 222.081 442.332 184.204 439.286 177.655C436.24 171.103 428.938 167.954 424.2 169.697Z" fill="#FCF5F1"/>
<path d="M443.172 237.046C439.422 237.906 436.739 240.856 436.12 244.33C435.986 245.083 435.95 245.86 436.02 246.646C435.861 252.516 436.068 264.894 438.075 279.373C438.812 284.695 439.425 290.497 439.886 295.404H451.886C452.868 277.746 454.6 246.637 454.6 246.637C454.682 245.706 454.615 244.748 454.383 243.794C453.203 238.92 448.185 235.899 443.172 237.046Z" fill="#DE9681"/>
<path d="M394.109 97.5306C394.109 97.5306 415.25 98.2955 414.787 122.606C414.339 145.959 394.164 165.064 376.88 160.16C371.386 158.26 367.767 146.099 367.575 127.818C367.38 109.538 375.453 96.8902 394.109 97.5306Z" fill="#DE9681"/>
<path d="M422.172 154.779C419.592 146.484 421.687 130.664 420.641 123.528C420.614 123.342 420.571 123.17 420.522 123.01C419.864 113.478 416.638 105.817 409.168 100.036C401.131 93.8129 388.033 96.7065 388.033 96.7065C382.082 96.2737 369.728 101.337 366.304 109.295C362.88 117.252 363.922 128.684 365.264 131.723C366.602 134.762 364.816 137.655 364.072 139.68C363.328 141.705 364.816 143.73 366.154 146.336C367.496 148.939 365.264 151.978 365.264 151.978C367.496 150.822 368.535 147.637 367.645 144.889C366.752 142.138 366.304 141.127 366.886 139.04C367.465 136.95 367.941 135.627 368.24 132.446C368.535 129.262 367.792 122.897 369.578 118.557C371.365 114.213 378.359 109.295 378.359 109.295C380.444 115.518 383.42 120.436 387.289 121.738C391.161 123.039 393.543 124.922 394.286 126.801C395.03 128.684 393.838 132.156 394.286 136.351C394.732 140.549 396.518 140.691 397.857 142.574C399.198 144.453 395.476 147.783 394.582 149.23C393.689 150.676 394.286 153.134 395.326 155.017C396.369 156.896 395.625 159.066 395.625 159.066C397.412 158.343 397.113 154.871 396.518 151.978C395.924 149.084 398.156 148.361 399.494 146.191C400.836 144.021 399.049 140.982 398.75 139.39C398.451 137.798 400.866 132.381 401.759 132.814C402.275 133.066 402.887 136.051 403.366 139.594C403.128 141.065 403.092 142.544 403.317 144.003C403.317 144.003 403.702 144.88 404.043 146.283C404.067 146.683 404.092 147.074 404.11 147.448C404.15 148.278 404.323 149.241 404.549 150.178C404.577 152.037 404.284 154.115 403.317 156.131C400.543 161.919 397.064 159.983 397.835 168.601C398.607 177.222 396.363 184.157 393.689 188.565C391.015 192.977 390.966 205.847 396.448 213.11C396.448 213.11 397.357 207.412 401.43 205.693C405.503 203.973 411.866 195.53 411.446 190.169C411.022 184.809 414.72 169.396 424.138 167.821C424.138 167.821 424.751 163.075 422.172 154.779Z" fill="#8C4949"/>
<path d="M378.359 109.295C378.722 103.819 382.472 98.2812 388.033 96.707C383.131 99.4019 379.99 104.151 378.359 109.295Z" fill="#7A3D3D"/>
<path d="M382.084 108.138C389.121 110.821 387.886 114.165 391.883 118.923C393.233 120.738 395.441 121.186 397.38 122.102C399.849 123.593 401.517 126.427 401.432 129.261C401.154 126.884 399.74 124.601 397.776 123.198C395.453 121.752 393.09 121.918 391.209 119.493C387.163 114.663 388.779 111.675 382.084 108.138Z" fill="#7A3D3D"/>
<path d="M386.546 105.246C390.418 105.889 394.247 107.766 396.351 111.101C400.147 115.868 406.345 120.555 405.598 127.237C405.442 120.662 399.369 116.499 395.674 111.59C393.735 108.296 390.171 106.384 386.546 105.246Z" fill="#7A3D3D"/>
<path d="M386.546 100.76C393.101 99.9922 400.284 101.463 404.934 106.292C407.217 108.474 409.19 111.048 410.34 113.974C410.849 115.329 411.212 116.779 411.212 118.228C411.184 119.049 411.205 120.055 411.297 120.873C411.724 125.406 412.824 130.12 411.55 134.617C412.635 129.1 410.37 123.568 410.404 118.053C409.98 112.69 406.126 108.193 402.034 104.854C397.696 101.567 391.927 100.65 386.546 100.76Z" fill="#7A3D3D"/>
<path d="M417.211 125.972C418.449 131.051 418.815 136.53 417.193 141.57C416.501 144.084 415.141 146.42 414.461 148.91C413.888 151.495 415.498 153.977 415.22 156.595C415.171 160.179 413.617 163.906 410.494 165.987C409.787 166.455 409.104 167.01 408.528 167.624C405.577 170.811 404.354 175.195 404 179.399C403.903 181.149 403.948 182.924 403.561 184.644C402.54 191.617 395.707 196.868 396.448 204.143C395.308 196.924 401.976 191.421 402.878 184.522C403.223 182.818 403.137 181.074 403.223 179.349C403.543 174.748 404.918 169.895 408.366 166.556C408.842 166.097 409.43 165.649 409.982 165.275C413.641 162.85 414.87 158.136 414.226 154.039C413.909 152.293 413.211 150.532 413.735 148.75C414.482 146.192 415.864 143.935 416.638 141.398C418.37 136.452 418.159 131.057 417.211 125.972Z" fill="#7A3D3D"/>
<path d="M407.91 145.096C410.635 153.7 407.254 154.93 403.952 161.87C403.288 163.335 403.352 164.799 403.217 166.382C402.47 169.323 401.248 170.061 401.431 173.631C400.87 170.82 401.647 169.282 402.464 166.738C402.669 165.348 402.382 163.877 402.842 162.504C402.9 162.238 403.053 161.834 403.141 161.574C406.44 154.242 409.544 154.444 407.91 145.096Z" fill="#7A3D3D"/>
<path d="M418.092 149.218C417.924 151.797 417.613 154.418 418.07 156.95C418.223 157.839 418.796 158.456 419.11 159.262C419.817 160.955 420.043 162.822 419.717 164.613C419.323 166.315 418.46 167.913 418.476 169.697C418.089 167.945 418.75 166.229 419.021 164.515C419.354 157.462 415.207 159.247 418.092 149.218Z" fill="#7A3D3D"/>
<path d="M411.98 171.565C410.062 174.038 408.166 176.967 408.3 180.157C408.818 184.924 409.032 190.877 406.4 195.099C408.217 190.527 407.849 185.413 407.477 180.616C407.187 177.086 409.443 173.869 411.98 171.565Z" fill="#7A3D3D"/>
<path d="M406.621 128.599C406.621 128.599 410.045 128.863 410.118 134.104C410.185 139.141 407.072 144.943 403.313 144.003C402.115 143.63 401.075 139.224 400.904 135.284C400.734 131.347 402.596 128.587 406.621 128.599Z" fill="#DE9681"/>
<path d="M403.925 140.248C402.41 133.435 406.001 131.502 406.154 131.422C406.34 131.324 406.568 131.395 406.669 131.573C406.766 131.754 406.696 131.976 406.513 132.074C406.41 132.131 404.501 133.189 404.327 136.61C405.385 135.404 407.071 135.19 407.163 135.178C407.37 135.155 407.559 135.3 407.586 135.501C407.611 135.706 407.461 135.89 407.254 135.913C407.157 135.925 404.891 136.222 404.358 138.104C404.41 138.709 404.507 139.367 404.669 140.091C404.708 140.271 404.605 140.452 404.428 140.515C404.413 140.52 404.394 140.526 404.376 140.529C404.172 140.574 403.968 140.446 403.925 140.248Z" fill="#BA6D5B"/>
<path d="M456.131 57.6523H338.389C333.09 57.6523 328.794 61.8267 328.794 66.9764V78.438H465.726V66.9764C465.726 61.8267 461.43 57.6523 456.131 57.6523Z" fill="#8CCBFF"/>
<path d="M456.64 67.5849H443.469C442.664 67.5849 442.009 66.9505 442.009 66.1649V65.9396C442.009 65.1569 442.664 64.5225 443.469 64.5225H456.64C457.448 64.5225 458.1 65.1569 458.1 65.9396V66.1649C458.1 66.9505 457.448 67.5849 456.64 67.5849Z" fill="white"/>
<path d="M456.642 74.2168H448.3C447.492 74.2168 446.84 73.5794 446.84 72.7967V72.5714C446.84 71.7858 447.492 71.1514 448.3 71.1514H456.642C457.45 71.1514 458.102 71.7888 458.102 72.5714V72.7967C458.102 73.5794 457.45 74.2168 456.642 74.2168Z" fill="white"/>
<path d="M456.134 296.13H338.392C332.687 296.13 328.047 291.62 328.047 286.076V66.9772C328.047 61.4332 332.687 56.9238 338.392 56.9238H456.134C461.839 56.9238 466.479 61.4332 466.479 66.9772V286.076C466.479 291.62 461.839 296.13 456.134 296.13ZM338.392 58.3795C333.514 58.3795 329.547 62.2366 329.547 66.9772V286.076C329.547 290.817 333.514 294.674 338.392 294.674H456.134C461.013 294.674 464.979 290.817 464.979 286.076V66.9772C464.979 62.2366 461.013 58.3795 456.134 58.3795H338.392Z" fill="white"/>
<path d="M423.807 62.3099H370.714C367.461 62.3099 364.82 59.7425 364.82 56.5791V55.3813H429.701V56.5791C429.701 59.7425 427.061 62.3099 423.807 62.3099Z" fill="#303C72"/>
<path d="M339.573 90.7329H221.071C217.263 90.7329 214.175 93.7362 214.175 97.4391V130.857C214.175 134.563 217.263 137.564 221.071 137.564H327.503L346.47 159.689V97.4391C346.47 93.7362 343.381 90.7329 339.573 90.7329Z" fill="white"/>
<path d="M291.965 105.939H332.863C334.025 105.939 334.967 105.023 334.967 103.893V102.227C334.967 101.097 334.025 100.181 332.863 100.181H291.965C290.801 100.181 289.858 101.097 289.858 102.227V103.893C289.858 105.023 290.801 105.939 291.965 105.939Z" fill="#D4E7FF"/>
<path d="M226.353 105.939H279.099C280.263 105.939 281.206 105.023 281.206 103.893V102.227C281.206 101.097 280.263 100.181 279.099 100.181H226.353C225.191 100.181 224.249 101.097 224.249 102.227V103.893C224.249 105.023 225.191 105.939 226.353 105.939Z" fill="#D4E7FF"/>
<path d="M307.932 117.194H332.865C334.027 117.194 334.969 116.278 334.969 115.148V113.485C334.969 112.353 334.027 111.437 332.865 111.437H307.932C306.77 111.437 305.825 112.353 305.825 113.485V115.148C305.825 116.278 306.77 117.194 307.932 117.194Z" fill="#D4E7FF"/>
<path d="M283.965 117.194H295.724C296.889 117.194 297.831 116.278 297.831 115.148V113.485C297.831 112.353 296.889 111.437 295.724 111.437H283.965C282.803 111.437 281.861 112.353 281.861 113.485V115.148C281.861 116.278 282.803 117.194 283.965 117.194Z" fill="#D4E7FF"/>
<path d="M226.353 117.194H272.236C273.4 117.194 274.343 116.278 274.343 115.148V113.485C274.343 112.353 273.4 111.437 272.236 111.437H226.353C225.191 111.437 224.249 112.353 224.249 113.485V115.148C224.249 116.278 225.191 117.194 226.353 117.194Z" fill="#D4E7FF"/>
<path d="M318.752 128.45H332.865C334.027 128.45 334.969 127.534 334.969 126.401V124.738C334.969 123.606 334.027 122.689 332.865 122.689H318.752C317.591 122.689 316.648 123.606 316.648 124.738V126.401C316.648 127.534 317.591 128.45 318.752 128.45Z" fill="#D4E7FF"/>
<path d="M226.353 128.45H307.615C308.777 128.45 309.719 127.534 309.719 126.401V124.738C309.719 123.606 308.777 122.689 307.615 122.689H226.353C225.191 122.689 224.249 123.606 224.249 124.738V126.401C224.249 127.534 225.191 128.45 226.353 128.45Z" fill="#D4E7FF"/>
<path d="M307.226 138.535H221.073C216.72 138.535 213.177 135.09 213.177 130.857V97.4384C213.177 93.2047 216.72 89.7627 221.073 89.7627H317.739C318.291 89.7627 318.736 90.1955 318.736 90.7322C318.736 91.2688 318.291 91.7046 317.739 91.7046H221.073C217.823 91.7046 215.177 94.275 215.177 97.4384V130.857C215.177 134.02 217.823 136.593 221.073 136.593H307.226C307.778 136.593 308.226 137.026 308.226 137.563C308.226 138.1 307.778 138.535 307.226 138.535Z" fill="#8CCBFF"/>
<path d="M307.007 34.1313H188.508C184.7 34.1313 181.611 37.1346 181.611 40.8375V103.088L200.579 80.9621H307.007C310.818 80.9621 313.906 77.9588 313.906 74.2559V40.8375C313.906 37.1346 310.818 34.1313 307.007 34.1313Z" fill="white"/>
<path d="M260.632 49.4323H195.498C194.334 49.4323 193.392 48.5162 193.392 47.3866V45.7205C193.392 44.5909 194.334 43.6748 195.498 43.6748H260.632C261.794 43.6748 262.736 44.5909 262.736 45.7205V47.3866C262.736 48.5162 261.794 49.4323 260.632 49.4323Z" fill="#D4E7FF"/>
<path d="M302.01 49.4323H273.499C272.338 49.4323 271.396 48.5162 271.396 47.3866V45.7205C271.396 44.5909 272.338 43.6748 273.499 43.6748H302.01C303.174 43.6748 304.116 44.5909 304.116 45.7205V47.3866C304.116 48.5162 303.174 49.4323 302.01 49.4323Z" fill="#D4E7FF"/>
<path d="M219.624 60.6845H195.498C194.337 60.6845 193.392 59.7685 193.392 58.639V56.9728C193.392 55.8433 194.337 54.9272 195.498 54.9272H219.624C220.785 54.9272 221.727 55.8433 221.727 56.9728V58.639C221.727 59.7685 220.785 60.6845 219.624 60.6845Z" fill="#D4E7FF"/>
<path d="M282.539 60.6847H232.635C231.473 60.6847 230.531 59.7686 230.531 58.6391V56.9729C230.531 55.8433 231.473 54.9272 232.635 54.9272H282.539C283.701 54.9272 284.643 55.8433 284.643 56.9729V58.6391C284.643 59.7686 283.701 60.6847 282.539 60.6847Z" fill="#D4E7FF"/>
<path d="M302.008 60.6845H294.27C293.105 60.6845 292.163 59.7685 292.163 58.639V56.9728C292.163 55.8433 293.105 54.9272 294.27 54.9272H302.008C303.172 54.9272 304.114 55.8433 304.114 56.9728V58.639C304.114 59.7685 303.172 60.6845 302.008 60.6845Z" fill="#D4E7FF"/>
<path d="M247.504 71.9426H195.498C194.337 71.9426 193.392 71.0235 193.392 69.894V68.2308C193.392 67.0982 194.337 66.1821 195.498 66.1821H247.504C248.665 66.1821 249.607 67.0982 249.607 68.2308V69.894C249.607 71.0235 248.665 71.9426 247.504 71.9426Z" fill="#D4E7FF"/>
<path d="M302.008 71.9426H258.644C257.479 71.9426 256.537 71.0235 256.537 69.894V68.2308C256.537 67.0982 257.479 66.1821 258.644 66.1821H302.008C303.173 66.1821 304.115 67.0982 304.115 68.2308V69.894C304.115 71.0235 303.173 71.9426 302.008 71.9426Z" fill="#D4E7FF"/>
<path d="M307.007 81.9304H214.177C213.625 81.9304 213.177 81.4975 213.177 80.9609C213.177 80.4243 213.625 79.9885 214.177 79.9885H307.007C310.26 79.9885 312.906 77.4181 312.906 74.2547V40.8363C312.906 37.673 310.26 35.0996 307.007 35.0996H188.508C185.258 35.0996 182.611 37.673 182.611 40.8363V46.5523C182.611 47.0889 182.163 47.5248 181.611 47.5248C181.06 47.5248 180.611 47.0889 180.611 46.5523V40.8363C180.611 36.6027 184.154 33.1577 188.508 33.1577H307.007C311.364 33.1577 314.906 36.6027 314.906 40.8363V74.2547C314.906 78.4883 311.364 81.9304 307.007 81.9304Z" fill="#8CCBFF"/>
</svg>
