<svg width="612" height="568" viewBox="0 0 612 568" fill="none" xmlns="http://www.w3.org/2000/svg">
<path d="M204.094 533.693C204.094 543.829 293.888 552.045 404.651 552.045C515.417 552.045 605.212 543.829 605.212 533.693C605.212 523.558 515.417 515.346 404.651 515.346C293.888 515.346 204.094 523.558 204.094 533.693Z" fill="#5A789F"/>
<path d="M323.742 535.242H330.411C331.84 535.242 333.004 534.121 333.004 532.754L350.106 471.354C350.106 469.987 348.943 468.865 347.509 468.865H332.178C330.749 468.865 329.581 469.987 329.581 471.354L321.15 532.754C321.15 534.121 322.313 535.242 323.742 535.242Z" fill="#1E272E"/>
<path d="M364.541 517.452H368.406C369.241 517.452 369.92 516.802 369.92 516.008L379.856 480.329C379.856 479.534 379.177 478.885 378.351 478.885H369.439C368.609 478.885 367.926 479.534 367.926 480.329L363.027 516.008C363.027 516.802 363.702 517.452 364.541 517.452Z" fill="#0D1114"/>
<path d="M527.869 535.242H521.205C519.771 535.242 518.604 534.121 518.604 532.754L501.501 471.354C501.501 469.987 502.673 468.865 504.102 468.865H519.43C520.859 468.865 522.031 469.987 522.031 471.354L530.462 532.754C530.462 534.121 529.294 535.242 527.869 535.242Z" fill="#1E272E"/>
<path d="M487.076 517.452H483.202C482.372 517.452 481.693 516.802 481.693 516.008L471.757 480.329C471.757 479.534 472.436 478.885 473.266 478.885H482.178C483.009 478.885 483.687 479.534 483.687 480.329L488.586 516.008C488.586 516.802 487.907 517.452 487.076 517.452Z" fill="#0D1114"/>
<path d="M91.687 533.693C91.687 539.788 133.408 544.729 184.879 544.729C236.346 544.729 278.075 539.788 278.075 533.693C278.075 527.599 236.346 522.662 184.879 522.662C133.408 522.662 91.687 527.599 91.687 533.693Z" fill="#5A789F"/>
<path d="M0 533.693C0 536.747 16.2255 539.215 36.2365 539.215C56.2475 539.215 72.4687 536.747 72.4687 533.693C72.4687 530.644 56.2475 528.176 36.2365 528.176C16.2255 528.176 0 530.644 0 533.693Z" fill="#5A789F"/>
<mask id="mask0_1594_117" style="mask-type:luminance" maskUnits="userSpaceOnUse" x="236" y="539" width="118" height="29">
<path d="M236.338 539.389H353.423V567.626H236.338V539.389Z" fill="white"/>
</mask>
<g mask="url(#mask0_1594_117)">
<path d="M236.477 553.602C236.477 561.342 262.605 567.626 294.836 567.626C327.064 567.626 353.192 561.342 353.192 553.602C353.192 545.854 327.064 539.574 294.836 539.574C262.605 539.574 236.477 545.854 236.477 553.602Z" fill="#5A789F"/>
</g>
<path d="M425.53 497.51C402.64 497.51 376.752 496.635 332.97 495.086C332.86 495.086 332.73 495.086 332.57 495.086C332.367 495.086 332.135 495.086 331.878 495.086C331.524 495.09 331.128 495.09 330.689 495.09C320.264 495.09 312.584 493.15 307.213 489.149C296.944 481.506 283.653 460.964 272.528 435.546C260.434 407.921 253.908 381.293 254.621 362.493C255.16 348.34 259.658 338.471 268.001 333.147C281.962 324.229 293.024 323.693 299.63 323.366C301.143 323.293 302.985 323.2 303.811 322.995C304.583 320.224 304.566 313.585 304.558 307.696C304.541 299.424 304.524 290.869 306.071 285.15C308.297 276.926 314.295 271.11 337.266 267.504C363.225 263.43 391.899 261.369 422.499 261.369C423.608 261.369 424.72 261.369 425.825 261.377C426.896 261.369 428.004 261.369 429.113 261.369C459.709 261.369 488.387 263.43 514.35 267.504C537.317 271.11 543.311 276.926 545.537 285.15C547.084 290.869 547.071 299.424 547.059 307.696C547.042 313.585 547.029 320.224 547.796 322.995C548.622 323.2 550.469 323.293 551.982 323.366C558.592 323.693 569.649 324.229 583.611 333.147C591.949 338.471 596.452 348.34 596.991 362.493C597.708 381.293 591.182 407.921 579.088 435.546C567.959 460.964 554.668 481.506 544.394 489.149C539.028 493.15 531.347 495.09 520.927 495.09C520.484 495.09 520.088 495.09 519.734 495.086C519.477 495.086 519.245 495.086 519.047 495.086C518.882 495.086 518.747 495.086 518.642 495.086C474.86 496.635 448.972 497.51 426.086 497.51H425.53Z" fill="#5A789F" fill-opacity="0.75"/>
<path d="M581.479 336.209C559.912 322.435 546.216 330.014 544.277 324.568C541.988 318.135 544.547 296.145 541.823 286.074C540.217 280.161 536.592 274.72 513.723 271.135C486.204 266.819 456.228 264.903 425.804 265.056C395.385 264.903 365.409 266.819 337.886 271.135C315.021 274.72 311.396 280.161 309.794 286.074C307.066 296.145 309.621 318.135 307.336 324.568C305.393 330.014 291.705 322.435 270.13 336.209C236.237 357.844 284.109 467.289 309.575 486.245C317.58 492.207 330.656 491.328 333.114 491.412C378.435 493.013 403.222 493.832 425.53 493.832C425.623 493.832 425.712 493.832 425.804 493.832C425.897 493.832 425.994 493.832 426.087 493.832C448.391 493.832 473.178 493.013 518.499 491.412C520.961 491.328 534.029 492.207 542.038 486.245C567.504 467.289 615.371 357.844 581.479 336.209Z" fill="#C1DFF4"/>
<path d="M587.658 343.566C585.993 342.719 584.214 341.94 582.292 341.271C576.171 339.129 569.987 339.782 567.778 340.02C567.778 340.02 557.366 341.154 547.666 349.358C519.447 373.215 535.205 439.915 517.226 444.545C498.066 449.486 462.112 449.203 426.483 449.078V449.07C426.255 449.07 426.032 449.078 425.804 449.078C425.585 449.078 425.353 449.07 425.13 449.07V449.078C389.504 449.203 353.546 449.486 334.387 444.545C316.408 439.915 332.165 373.215 303.947 349.358C294.251 341.154 283.834 340.02 283.834 340.02C281.626 339.782 275.437 339.129 269.32 341.271C267.398 341.94 265.615 342.719 263.954 343.566C244.095 375.284 286.524 469.431 309.971 486.879C317.98 492.844 331.052 491.945 333.51 492.046C372.47 493.639 398.361 494.808 425.13 494.885V494.893C425.353 494.893 425.585 494.893 425.804 494.893C426.032 494.893 426.255 494.893 426.483 494.893V494.885C453.251 494.808 479.143 493.639 518.098 492.046C520.56 491.945 533.628 492.844 541.642 486.879C565.084 469.431 607.513 375.284 587.658 343.566Z" fill="#5A789F"/>
<path d="M544.276 324.568C541.987 318.135 544.546 296.145 541.823 286.074C540.217 280.161 536.591 274.72 513.722 271.135C486.204 266.819 456.227 264.903 425.804 265.056C395.385 264.903 365.408 266.819 337.885 271.135C315.02 274.72 311.395 280.161 309.793 286.074C307.066 296.145 309.62 318.135 307.336 324.568C306.876 325.859 305.751 326.412 304.026 326.694C308.537 326.859 317.179 327.936 325.812 333.192C347.476 346.397 348.007 397.08 348.163 397.056C348.167 397.056 348.15 396.979 348.158 396.943C348.264 396.277 503.049 396.277 503.146 396.943C503.15 396.979 503.137 397.056 503.141 397.056C503.302 397.08 503.829 346.397 525.5 333.192C534.294 327.836 543.104 326.823 547.535 326.69C545.84 326.404 544.732 325.843 544.276 324.568Z" fill="#5A789F"/>
<path d="M523.966 400.653C518.212 391.477 504.137 388.783 496.072 388.029C469.911 385.58 381.706 385.58 355.54 388.029C347.476 388.783 333.4 391.477 327.646 400.653C322.377 409.058 331.124 434.319 333.628 438.454C335.23 441.091 337.359 441.793 338.193 441.946C357.677 445.504 493.939 445.504 513.419 441.946C514.258 441.793 516.378 441.091 517.985 438.454C520.489 434.319 529.236 409.058 523.966 400.653Z" fill="#5A789F"/>
<path d="M208.006 334.482H167.651V299.537H208.006V334.482Z" fill="#0D1114"/>
<path d="M232.742 334.482H142.91C142.91 329.909 146.784 326.206 151.56 326.206H224.096C228.872 326.206 232.742 329.909 232.742 334.482Z" fill="#1E272E"/>
<path d="M267.676 309.883H107.862C102.382 309.883 97.9346 305.627 97.9346 300.38V179.133C97.9346 173.882 102.382 169.631 107.862 169.631H267.676C273.156 169.631 277.595 173.882 277.595 179.133V300.38C277.595 305.627 273.156 309.883 267.676 309.883Z" fill="#1E272E"/>
<path d="M267.795 169.804H107.981C102.501 169.804 98.0532 174.055 98.0532 179.306V283.153H277.718V179.306C277.718 174.055 273.275 169.804 267.795 169.804Z" fill="#0D1114"/>
<path d="M194.074 295.855C194.074 299.159 191.279 301.833 187.826 301.833C184.378 301.833 181.583 299.159 181.583 295.855C181.583 292.556 184.378 289.882 187.826 289.882C191.279 289.882 194.074 292.556 194.074 295.855Z" fill="#BDB1E5"/>
<path d="M16.8534 534.976H20.3986C21.1869 534.976 21.8867 534.476 22.0933 533.762L71.0605 338.479C71.5706 336.757 70.1837 335.051 68.2783 335.051H60.9096C59.5859 335.051 58.4309 335.894 58.1105 337.108L15.1503 532.927C14.8721 533.968 15.711 534.976 16.8534 534.976Z" fill="#0D1114"/>
<path d="M257.246 534.976H253.705C252.913 534.976 252.221 534.476 252.011 533.762L203.043 338.479C202.538 336.757 203.916 335.051 205.821 335.051H213.194C214.522 335.051 215.673 335.894 215.993 337.108L258.958 532.927C259.228 533.968 258.389 534.976 257.246 534.976Z" fill="#0D1114"/>
<path d="M255.991 348.244H8.56233C4.85691 348.244 1.85547 345.364 1.85547 341.819V340.908C1.85547 337.358 4.85691 334.482 8.56233 334.482H255.991C259.697 334.482 262.698 337.358 262.698 340.908V341.819C262.698 345.364 259.697 348.244 255.991 348.244Z" fill="#0D1114"/>
<path d="M238.455 50.6953H356.864C364.587 50.6953 370.843 56.6929 370.843 64.082V117.346C370.843 124.74 364.587 130.733 356.864 130.733H270.371L254.423 144.681V130.733H238.455C230.736 130.733 224.472 124.74 224.472 117.346V64.082C224.472 56.6929 230.736 50.6953 238.455 50.6953Z" fill="#013A63"/>
<path d="M322.807 113.01C322.807 114.635 321.433 115.958 319.73 115.958C318.031 115.958 316.652 114.635 316.652 113.01C316.652 111.38 318.031 110.065 319.73 110.065C321.433 110.065 322.807 111.38 322.807 113.01Z" fill="white"/>
<path d="M335.575 113.01C335.575 114.635 334.196 115.958 332.493 115.958C330.794 115.958 329.416 114.635 329.416 113.01C329.416 111.38 330.794 110.065 332.493 110.065C334.196 110.065 335.575 111.38 335.575 113.01Z" fill="white"/>
<path d="M348.34 113.01C348.34 114.635 346.965 115.958 345.262 115.958C343.563 115.958 342.181 114.635 342.181 113.01C342.181 111.38 343.563 110.065 345.262 110.065C346.965 110.065 348.34 111.38 348.34 113.01Z" fill="white"/>
<path d="M348.193 73.5683H277.271C275.568 73.5683 274.181 72.2413 274.181 70.6118C274.181 68.9743 275.568 67.6514 277.271 67.6514H348.193C349.896 67.6514 351.283 68.9743 351.283 70.6118C351.283 72.2413 349.896 73.5683 348.193 73.5683Z" fill="white"/>
<path d="M348.193 87.7099H245.027C243.324 87.7099 241.937 86.3829 241.937 84.7494C241.937 83.1159 243.324 81.793 245.027 81.793H348.193C349.896 81.793 351.283 83.1159 351.283 84.7494C351.283 86.3829 349.896 87.7099 348.193 87.7099Z" fill="white"/>
<path d="M348.193 101.847H245.027C243.324 101.847 241.937 100.524 241.937 98.8902C241.937 97.2526 243.324 95.9297 245.027 95.9297H348.193C349.896 95.9297 351.283 97.2526 351.283 98.8902C351.283 100.524 349.896 101.847 348.193 101.847Z" fill="white"/>
<path d="M307.556 115.987H245.027C243.324 115.987 241.937 114.66 241.937 113.027C241.937 111.389 243.324 110.07 245.027 110.07H307.556C309.263 110.07 310.645 111.389 310.645 113.027C310.645 114.66 309.263 115.987 307.556 115.987Z" fill="white"/>
<path d="M392.109 121.876H296.088C289.824 121.876 284.753 126.736 284.753 132.734V175.927C284.753 181.921 289.824 186.781 296.088 186.781H366.234L379.163 198.094V186.781H392.109C398.373 186.781 403.453 181.921 403.453 175.927V132.734C403.453 126.736 398.373 121.876 392.109 121.876Z" fill="#1E272E"/>
<path d="M364.494 172.409C364.494 173.732 363.376 174.801 362.002 174.801C360.62 174.801 359.502 173.732 359.502 172.409C359.502 171.094 360.62 170.021 362.002 170.021C363.376 170.021 364.494 171.094 364.494 172.409Z" fill="white"/>
<path d="M374.848 172.409C374.848 173.732 373.73 174.801 372.352 174.801C370.974 174.801 369.856 173.732 369.856 172.409C369.856 171.094 370.974 170.021 372.352 170.021C373.73 170.021 374.848 171.094 374.848 172.409Z" fill="white"/>
<path d="M385.2 172.409C385.2 173.732 384.079 174.801 382.704 174.801C381.326 174.801 380.205 173.732 380.205 172.409C380.205 171.094 381.326 170.021 382.704 170.021C384.079 170.021 385.2 171.094 385.2 172.409Z" fill="white"/>
<path d="M385.079 140.43H327.571C326.184 140.43 325.062 139.353 325.062 138.026C325.062 136.703 326.184 135.626 327.571 135.626H385.079C386.466 135.626 387.587 136.703 387.587 138.026C387.587 139.353 386.466 140.43 385.079 140.43Z" fill="white"/>
<path d="M385.077 151.892H301.421C300.034 151.892 298.913 150.819 298.913 149.492C298.913 148.17 300.034 147.097 301.421 147.097H385.077C386.464 147.097 387.586 148.17 387.586 149.492C387.586 150.819 386.464 151.892 385.077 151.892Z" fill="white"/>
<path d="M385.077 163.358H301.421C300.034 163.358 298.913 162.285 298.913 160.958C298.913 159.631 300.034 158.559 301.421 158.559H385.077C386.464 158.559 387.586 159.631 387.586 160.958C387.586 162.285 386.464 163.358 385.077 163.358Z" fill="white"/>
<path d="M352.121 174.825H301.421C300.034 174.825 298.913 173.748 298.913 172.429C298.913 171.098 300.034 170.021 301.421 170.021H352.121C353.508 170.021 354.629 171.098 354.629 172.429C354.629 173.748 353.508 174.825 352.121 174.825Z" fill="white"/>
<path d="M316.362 376.009C318.545 367.507 333.35 356.157 345.752 354.18C357.926 352.236 364.233 353.91 374.691 354.983C411.467 358.754 447.076 391.921 485.825 393.014C486.474 393.034 487.549 392.881 488.776 393.356C493.155 395.063 495.251 405.618 493.223 407.336C492.747 407.739 492.135 407.784 491.971 407.764C439.517 401.972 389.125 411.619 343.227 405.747C330.028 404.057 326.314 400.733 322.563 397.769C316.252 392.784 314.456 383.41 316.362 376.009Z" fill="#EC7D40"/>
<path d="M335.031 473.516C348.369 445.601 362.942 384.249 368.165 373.444C373.223 362.957 376.305 359.614 378.497 357.613C385.149 351.543 392.733 349.567 401.231 347.719C422.819 343.024 434.942 343.613 462.078 339.806C465.85 339.273 479.488 337.329 497.214 337.83C506.758 338.096 509.881 340.463 512.714 342.403C524.771 350.66 520.218 370.621 518.915 374.428C517.878 377.465 513.667 387.395 502.382 391.804C497.897 393.554 491.127 394.579 477.574 393.413C467.937 392.578 462.533 392.046 453.933 391.437C446.21 390.884 414.948 388.505 407.558 396.567C403.794 400.669 403.815 407.082 403.427 412.023C401.345 438.579 379.568 459.379 362.916 480.235C353.001 479.562 343.15 477.755 335.031 473.516Z" fill="#312553"/>
<path d="M378.923 407.728C390.642 407.728 402.357 407.277 414.751 406.805C427.186 406.329 440.052 405.837 452.968 405.837L454.697 405.841L454.777 405.526C456.202 399.411 456.594 392.869 455.945 386.069L455.924 385.823L455.679 385.73C445.87 382.108 436.056 377.333 426.563 372.715C409.642 364.479 392.143 355.972 374.733 354.181C372.596 353.964 370.648 353.722 368.76 353.488C364.439 352.947 360.704 352.483 356.341 352.483C352.96 352.483 349.469 352.778 345.684 353.383C333.497 355.327 318.22 366.697 315.952 375.51C314.186 382.379 315.417 392.252 322.296 397.677L322.76 398.044C326.335 400.888 330.398 404.114 343.176 405.744C353.748 407.099 365.105 407.728 378.923 407.728Z" fill="#0D1114"/>
<path d="M309.655 508.295C311.653 503.419 322.268 498.732 334.686 474.266C334.716 474.193 334.745 474.125 334.779 474.052C348.184 446.391 362.909 384.322 368.166 373.444C373.225 362.957 376.306 359.614 378.498 357.613C385.15 351.543 392.734 349.567 401.232 347.719C422.82 343.024 434.944 343.613 462.079 339.806C465.852 339.273 479.489 337.329 497.215 337.83C506.759 338.096 509.883 340.463 512.716 342.403C524.772 350.66 520.219 370.621 518.917 374.428C517.88 377.465 513.668 387.395 502.383 391.804C497.898 393.554 491.128 394.579 477.575 393.413C467.938 392.578 462.534 392.046 453.935 391.437C446.212 390.884 414.95 388.505 407.56 396.567C403.795 400.669 403.816 407.082 403.429 412.023C400.465 449.808 357.627 475.936 346.418 507.17C343.113 516.386 338.919 518.693 335.336 521.529C326.812 528.268 312.125 530.571 307.682 525.308C304.322 521.331 307.429 513.736 309.655 508.295Z" fill="#F79556"/>
<path d="M347.915 505.492C349.664 505.782 353.521 521.532 349.782 526.901C348.475 528.776 331.579 539.985 323.625 544.789C322.128 545.688 317.972 548.112 312.407 550.157C309.798 551.113 302.644 554.376 290.39 553.735C286.039 553.505 279.252 551.335 275.033 548.701C272.373 547.039 271.627 545.7 271.298 545.123C269.527 542.042 272.525 536.823 273.165 535.843C275.964 531.535 279.387 530.64 286.246 526.901C297.417 520.802 303.715 513.667 310.54 505.435C312.433 503.148 311.501 501.688 313.166 500.793C315.932 499.309 323.38 504.475 329.986 510.8C331.853 512.586 334.492 514.518 338.573 513.312C344.858 511.457 345.853 505.141 347.915 505.492Z" fill="white"/>
<path d="M349.782 519.742C346.768 521.602 343.678 523.32 340.588 525.05L331.305 530.213L322.027 535.363C318.937 537.09 315.856 538.828 312.753 540.498C311.982 540.917 311.202 541.353 310.447 541.74C310.064 541.946 309.718 542.111 309.33 542.268C308.942 542.43 308.542 542.579 308.141 542.728C306.527 543.309 304.845 543.757 303.15 544.136C299.757 544.902 296.266 545.233 292.784 545.144C289.306 545.019 285.829 544.422 282.553 543.22C282.136 543.083 281.735 542.91 281.326 542.748C280.918 542.591 280.526 542.422 280.133 542.224C279.354 541.845 278.586 541.417 277.828 540.982C277.069 540.538 276.323 540.07 275.598 539.574C274.868 539.082 274.135 538.59 273.515 537.973C274.615 539.336 276.032 540.441 277.444 541.51C278.156 542.043 278.898 542.543 279.67 543.011C280.053 543.249 280.458 543.466 280.859 543.668C281.263 543.874 281.664 544.088 282.077 544.269C285.386 545.777 289.007 546.669 292.67 546.959C296.338 547.278 300.039 546.975 303.643 546.294C305.443 545.943 307.218 545.467 308.963 544.862C309.402 544.713 309.836 544.555 310.27 544.378C310.709 544.204 311.172 543.991 311.568 543.781C312.399 543.366 313.166 542.95 313.959 542.527C317.07 540.796 320.151 539.05 323.207 537.259C326.251 535.436 329.303 533.641 332.3 531.758C335.31 529.886 338.286 527.97 341.229 526.006C344.146 524.009 347.084 522.017 349.782 519.742Z" fill="#BDB1E5"/>
<path d="M319.65 518.201C318.524 517.427 317.416 516.822 316.315 516.217L313.078 514.459C312.011 513.878 310.945 513.297 309.891 512.684C308.829 512.067 307.792 511.47 306.738 510.631C306.801 511.296 307.096 511.93 307.429 512.514C307.783 513.087 308.201 513.62 308.668 514.096C309.609 515.055 310.7 515.854 311.876 516.487C313.053 517.121 314.309 517.613 315.62 517.919C316.922 518.218 318.276 518.363 319.65 518.201Z" fill="#1E1735"/>
<path d="M315.662 522.021C314.532 521.243 313.423 520.642 312.332 520.037L309.086 518.274C308.023 517.689 306.961 517.108 305.907 516.503C304.845 515.878 303.804 515.289 302.754 514.442C302.809 515.116 303.108 515.741 303.441 516.33C303.795 516.899 304.217 517.439 304.685 517.915C305.62 518.875 306.712 519.666 307.888 520.303C309.069 520.936 310.325 521.428 311.628 521.735C312.939 522.029 314.283 522.182 315.662 522.021Z" fill="#1E1735"/>
<path d="M311.673 525.836C310.548 525.058 309.435 524.453 308.343 523.852L305.102 522.089C304.035 521.509 302.973 520.928 301.919 520.319C300.857 519.694 299.82 519.105 298.766 518.262C298.825 518.935 299.124 519.56 299.453 520.145C299.807 520.718 300.224 521.254 300.692 521.726C301.632 522.694 302.728 523.485 303.904 524.118C305.08 524.755 306.337 525.243 307.639 525.55C308.95 525.848 310.299 525.994 311.673 525.836Z" fill="#1E1735"/>
<path d="M307.686 529.652C306.56 528.873 305.452 528.272 304.36 527.667L301.114 525.909C300.047 525.328 298.985 524.747 297.931 524.134C296.873 523.513 295.832 522.92 294.782 522.077C294.837 522.747 295.132 523.38 295.469 523.965C295.823 524.529 296.237 525.07 296.709 525.546C297.645 526.506 298.741 527.296 299.917 527.934C301.089 528.571 302.349 529.059 303.656 529.369C304.967 529.668 306.312 529.813 307.686 529.652Z" fill="#1E1735"/>
<path d="M363.25 480.482C366.146 476.852 369.261 473.15 372.279 469.564C386.945 452.132 402.112 434.111 403.841 412.052C403.891 411.492 403.929 410.911 403.967 410.318C404.279 405.656 404.629 400.368 407.875 396.831C411.323 393.071 421.032 391.079 435.946 391.079C443.391 391.079 450.228 391.571 453.512 391.809L453.904 391.833C460.097 392.277 464.595 392.672 470.29 393.18C472.482 393.37 474.847 393.584 477.536 393.81C481.393 394.144 484.888 394.314 487.932 394.314C494.166 394.314 498.808 393.636 502.538 392.18C514.063 387.675 518.296 377.551 519.312 374.554C519.923 372.776 521.457 366.701 521.247 360.075C520.985 351.834 518.123 345.611 512.959 342.078L512.668 341.876C509.81 339.912 506.573 337.69 497.227 337.427C495.321 337.375 493.382 337.347 491.464 337.347C476.71 337.347 465.737 338.887 462.133 339.396L462.019 339.408C451.097 340.94 442.522 341.767 434.955 342.501C423.742 343.586 414.055 344.522 401.139 347.329C392.535 349.197 384.879 351.242 378.206 357.324C375.803 359.514 372.68 363.128 367.781 373.276C365.745 377.487 362.377 389.054 358.111 403.703C351.295 427.117 342.813 456.262 334.647 473.351L334.487 473.694L334.829 473.872C342.037 477.635 351.214 479.849 362.883 480.64L363.115 480.652L363.25 480.482Z" fill="#1E272E"/>
<path d="M500.314 379.962C503.142 379.982 503.749 381.422 508.585 381.942C510.267 382.128 509.639 382.116 511.038 381.942C513.218 381.668 515.068 379.191 519.933 378.857C531.694 378.05 543.624 395.793 543.721 399.75C543.873 406.191 538.279 408.712 533.384 409.643C526.779 410.898 521.417 410.014 518.917 409.643C500.133 406.856 490.205 410.45 487.916 405.687C486.913 403.593 488.08 401.371 485.846 397.769C484.716 395.954 483.587 395.176 483.781 393.812C484 392.247 485.686 391.953 487.916 389.856C490.576 387.351 489.762 386.254 492.047 383.923C492.578 383.378 495.938 379.942 500.314 379.962Z" fill="white"/>
<path d="M508.584 385.899C509.975 386.238 511.358 386.516 512.673 386.936C513.997 387.339 515.249 387.859 516.395 388.521C518.748 389.9 520.965 391.469 523.009 393.232C525.058 394.99 526.917 396.947 528.662 399.02C529.522 400.06 530.361 401.129 531.137 402.246C531.934 403.351 532.667 404.497 533.384 405.687C533.097 404.336 532.587 403.041 532.018 401.778C531.731 401.145 531.394 400.536 531.074 399.919C530.72 399.314 530.365 398.705 529.969 398.132C528.431 395.789 526.555 393.627 524.392 391.764C522.221 389.904 519.78 388.331 517.137 387.162C515.784 386.549 514.33 386.19 512.892 386C511.446 385.827 510.013 385.802 508.584 385.899Z" fill="#BDB1E5"/>
<path d="M506.076 397.351C505.983 398.512 506.185 399.65 506.539 400.743C506.906 401.832 507.437 402.868 508.108 403.816C508.778 404.764 509.591 405.627 510.519 406.345C511.446 407.063 512.475 407.66 513.647 407.999C513.002 407.01 512.327 406.147 511.695 405.28C511.042 404.421 510.426 403.566 509.811 402.711C509.204 401.848 508.609 400.981 508.006 400.089C507.395 399.202 506.801 398.286 506.076 397.351Z" fill="#1E1735"/>
<path d="M501.46 397.351C501.367 398.512 501.565 399.65 501.919 400.743C502.286 401.832 502.817 402.868 503.492 403.816C504.166 404.764 504.971 405.627 505.899 406.345C506.826 407.063 507.859 407.66 509.027 407.999C508.382 407.01 507.716 406.147 507.075 405.28C506.426 404.421 505.81 403.566 505.19 402.711C504.579 401.848 503.989 400.981 503.386 400.089C502.779 399.202 502.181 398.286 501.46 397.351Z" fill="#1E1735"/>
<path d="M496.835 397.351C496.743 398.512 496.945 399.65 497.299 400.743C497.67 401.832 498.197 402.868 498.872 403.816C499.542 404.764 500.351 405.627 501.274 406.345C502.206 407.063 503.239 407.66 504.406 407.999C503.762 407.01 503.095 406.147 502.455 405.28C501.806 404.421 501.19 403.566 500.575 402.711C499.959 401.848 499.369 400.981 498.766 400.089C498.159 399.202 497.565 398.286 496.835 397.351Z" fill="#1E1735"/>
<path d="M492.22 397.351C492.127 398.512 492.329 399.65 492.679 400.743C493.05 401.832 493.581 402.868 494.247 403.816C494.926 404.764 495.735 405.627 496.659 406.345C497.586 407.063 498.619 407.66 499.791 407.999C499.146 407.01 498.476 406.147 497.835 405.28C497.186 404.421 496.57 403.566 495.955 402.711C495.348 401.848 494.749 400.981 494.146 400.089C493.535 399.202 492.945 398.286 492.22 397.351Z" fill="#1E1735"/>
<path d="M323.632 514.385C322.511 513.607 321.398 513.002 320.302 512.405L317.064 510.642C315.993 510.057 314.927 509.481 313.877 508.868C312.815 508.246 311.774 507.654 310.724 506.811C310.787 507.484 311.078 508.109 311.411 508.694C311.765 509.267 312.187 509.807 312.655 510.279C313.591 511.243 314.687 512.034 315.859 512.671C317.035 513.304 318.291 513.792 319.602 514.099C320.909 514.397 322.262 514.547 323.632 514.385Z" fill="#1E1735"/>
<path d="M384.206 375.905C381.866 373.981 379.223 372.513 376.471 371.282C373.709 370.064 370.809 369.129 367.854 368.463C364.891 367.794 361.86 367.41 358.82 367.33C355.789 367.265 352.733 367.463 349.749 368.197C352.712 369 355.6 369.56 358.462 370.181C361.324 370.782 364.157 371.391 366.986 372.021C369.806 372.658 372.63 373.307 375.472 373.981C378.325 374.642 381.175 375.36 384.206 375.905Z" fill="#1E272E"/>
<path d="M514.519 323.031C512.306 317.723 510.413 309.806 508.866 304.349C508.348 300.892 507.821 297.492 507.26 294.168C507.121 290.349 502.164 231.188 487.308 225.743C467.82 218.603 453.449 222.185 444.82 225.073C432.174 229.304 423.051 246.204 425.142 263.842C427.844 286.59 440.44 318.098 441.018 323.507C441.241 325.665 440.921 331.263 438.269 336.559C433.236 346.441 439.466 340.132 462.209 342.202C489.045 344.642 517.778 357.016 522.731 349.038C527.389 342.758 521.627 340.003 514.519 323.031Z" fill="#E5E1E1"/>
<path d="M457.197 221.839C452.054 219.552 447.227 220.351 440.579 221.46C435.398 222.319 431.554 223.807 427.912 225.243C425.593 226.159 422.908 227.199 414.848 231.688C393.079 243.809 391.102 246.087 387.144 248.358C386.292 248.842 353.483 277.842 362.141 278.842C373.097 280.113 461.319 252.73 465.51 247.221C468.684 243.054 468.359 238.166 468.279 236.992C467.82 230.071 462.829 224.336 457.197 221.839Z" fill="#E5E1E1"/>
<path d="M473.823 204.164C480.357 218.37 488.274 223.674 490.052 225.005C491.06 225.755 489.652 229.171 488.467 230.684C481.52 239.553 457.075 248.293 457.197 239.779C457.399 226.328 448.572 222.613 445.722 216.289C445.507 215.809 441.587 210.097 444.533 202.648C447.695 194.646 469.127 186.518 471.445 188.249C472.052 188.709 470.033 195.924 473.823 204.164Z" fill="#F79556"/>
<path d="M457.922 203.168C458.027 205.931 457.395 208.073 457.113 208.985C456.935 209.573 456.24 211.707 454.684 214.026C452.986 216.543 444.555 223.722 435.639 226.05C434.619 226.316 433.67 226.473 432.802 226.05C431.727 225.521 431.486 224.444 430.774 222.948C430.057 221.431 430.041 221.976 427.941 218.681C425.475 214.813 424.24 212.873 423.886 211.312C423.561 209.872 423.595 208.751 422.676 208.21C421.892 207.75 421.306 208.23 419.434 207.823C418.423 207.601 417.55 207.399 416.998 206.657C416.42 205.863 416.559 204.927 416.597 204.717C416.783 203.652 420.244 196.183 419.434 192.694C418.844 190.157 418.33 187.221 416.597 181.445C415.813 178.843 414.165 167.485 422.676 160.504C426.778 157.136 430.711 155.656 434.02 154.688C441.275 152.566 447.489 153.139 450.224 153.526C453.959 154.05 461.893 154.998 468.456 161.278C472.714 165.356 479.012 176.536 469.675 184.163C466.484 186.765 466.585 186.067 464.001 186.099C460.413 186.148 456.505 193.275 457.113 196.574C457.387 198.074 457.77 199.159 457.922 203.168Z" fill="#F79556"/>
<path d="M421.576 173.229C439.736 167.017 450.098 186.632 458.529 197.792C461.901 202.257 468.713 205.766 474.223 203.975C477.304 202.975 481.756 199.127 482.291 192.549C482.861 185.559 483.522 178.625 481.541 171.071C480.158 165.816 474.923 157.874 466.551 153.361C460.754 150.243 450.915 149.932 446.266 150.138C441.481 150.348 438.134 150.497 433.919 151.864C431.44 152.671 425.445 154.744 420.69 159.838C419.94 160.645 417.343 163.529 415.4 168.042C414.257 170.7 413.979 172.055 414.519 173.66C414.911 174.842 415.117 175.762 416.281 176.25C417.824 176.899 417.567 174.596 421.576 173.229Z" fill="#0D1114"/>
<path d="M449.364 183.586C450.368 182.074 451.514 181.412 451.793 181.259C452.357 180.948 453.567 180.283 455.039 180.48C457.054 180.755 458.2 182.473 458.685 183.199C460.072 185.28 459.958 187.446 459.895 188.624C459.73 191.875 458.162 194.065 457.062 195.605C456.105 196.953 455.363 197.537 454.634 197.937C454.01 198.267 452.876 198.917 451.793 198.707C449.87 198.336 449.057 195.456 448.551 193.669C448.188 192.375 446.801 187.454 449.364 183.586Z" fill="#F79556"/>
<path d="M387.54 213.26C389.778 210.715 392.16 208.001 394.66 204.544C397.033 201.273 398.837 198.781 400.599 195.074C402.062 191.993 405.27 184.329 407.327 181.433C407.892 180.639 408.516 179.913 408.516 179.913C409.722 178.521 410.818 177.65 411.286 177.267C414.831 174.363 414.629 173.068 417.225 171.584C417.807 171.245 419.198 170.85 421.972 170.063C422.415 169.942 427.6 168.506 430.681 169.309C431.073 169.41 432.658 170.826 431.474 171.959C430.407 172.983 429.349 173.229 426.322 174.234C425.408 174.54 422.693 175.444 422.765 175.75C422.832 176.033 424.455 175.9 428.704 175.75C433.392 175.585 435.824 175.371 437.409 175.75C437.869 175.859 438.931 176.21 439.39 176.888C439.749 177.416 439.66 178.219 439.39 178.779C438.965 179.646 438.189 179.735 438.198 180.296C438.21 180.727 438.678 180.752 438.994 181.433C439.285 182.054 439.247 182.784 438.994 183.325C438.682 183.994 438.067 184.329 437.805 184.466C435.23 185.818 429.492 185.225 424.742 186.358C423.431 186.673 421.972 187.871 421.972 187.871C421.972 187.871 422.625 188.201 426.719 187.871C432.722 187.391 435.609 187.911 436.22 189.008C436.423 189.367 436.313 189.79 436.22 190.149C435.887 191.456 431.465 191.839 429.1 192.041C427.739 192.158 425.926 192.311 423.953 192.799C421.083 193.505 419.211 194.574 418.414 195.074C417.483 195.651 416.53 196.248 415.64 197.345C414.86 198.305 414.595 199.067 414.055 200.378C412.808 203.395 411.956 205.464 410.493 207.194C409.385 208.517 408.39 209.09 407.327 209.848C404.187 212.103 402.522 214.531 399.411 218.943C393.829 226.865 394.618 229.208 391.494 230.305C388.585 231.334 384.838 230.37 382.388 228.414C381.469 227.672 379.973 226.474 379.623 224.626C379.1 221.839 381.63 219.968 387.54 213.26Z" fill="#EC7D40"/>
<path d="M436.212 180.67C436.322 180.67 436.343 180.819 436.237 180.835C434.496 181.186 432.73 181.388 430.951 181.485C428.902 181.598 426.887 181.602 424.864 181.618L421.858 181.594C421.648 181.598 421.462 181.626 421.243 181.686C421.015 181.747 420.779 181.824 420.547 181.904C420.084 182.062 419.616 182.231 419.148 182.4C417.525 183.021 415.927 183.715 414.359 184.49C414.258 184.538 414.178 184.413 414.258 184.348C415.628 183.259 417.171 182.36 418.773 181.594C419.232 181.372 419.692 181.162 420.176 180.977C420.417 180.88 420.657 180.787 420.918 180.698C421.175 180.61 421.492 180.541 421.787 180.517C421.947 180.505 422.073 180.505 422.196 180.505L422.579 180.501L423.338 180.493L424.864 180.48L427.912 180.517L430.939 180.606C432.688 180.646 434.446 180.654 436.212 180.67Z" fill="#C95E28"/>
<path d="M413.967 179.428C413.879 179.46 413.803 179.36 413.862 179.291C414.325 178.746 414.852 178.279 415.413 177.839C416.058 177.339 416.741 176.895 417.462 176.508C417.824 176.314 418.204 176.137 418.587 175.98C418.777 175.903 418.971 175.826 419.173 175.762C419.355 175.697 419.599 175.617 419.822 175.58C420.611 175.455 421.336 175.532 422.057 175.681C422.145 175.697 422.154 175.822 422.069 175.851C421.37 176.064 420.661 176.201 420.08 176.439C419.789 176.568 419.422 176.774 419.076 176.952L418.039 177.504C417.344 177.871 416.64 178.234 415.919 178.589C415.291 178.884 414.65 179.178 413.967 179.428Z" fill="#C95E28"/>
<path d="M384.375 213.639C384.375 213.639 381.011 218.007 376.458 225.38C375.025 227.699 372.335 230.97 366.956 237.508C358.352 247.963 358.597 246.72 355.482 251.145C354.521 252.496 349.698 259.47 347.169 269.331C346.199 273.098 346.161 274.974 347.169 276.531C349.276 279.814 355.225 280.52 359.436 279.564C362.905 278.773 366.535 276.551 377.246 258.344C387.186 241.453 385.559 243.566 390.31 235.608C393.716 229.897 398.623 223.488 398.623 223.488C398.623 223.488 395.841 222.54 392.287 220.455C386.976 217.341 384.375 213.639 384.375 213.639Z" fill="#E5E1E1"/>
<path d="M471.201 202.272C469.165 216.256 492.877 223.834 497.742 206.051C502.607 188.24 474.468 179.814 471.201 202.272Z" fill="#0D1114"/>
<path d="M500.735 230.284C506.14 233.507 506.978 242.32 508.445 259.804C509.276 269.726 509.111 276.091 508.445 295.596C507.497 323.459 506.869 327.766 499.192 336.357C496.414 339.471 494.193 341.96 490.327 342.996C470.961 348.216 445.811 317.34 442.915 312.569C433.945 297.795 420.636 275.873 429.805 260.543C431.31 258.026 433.443 255.662 456.793 244.671C493.194 227.55 497.957 228.623 500.735 230.284Z" fill="#E5E1E1"/>
<path d="M499.154 226.522C493.547 223.634 487.684 225.368 485.302 225.759C480.88 226.493 479.025 227.219 471.842 231.063C466.362 233.999 459.419 236.206 451.658 239.021C444.441 241.643 438.43 243.542 434.244 244.325C423.279 246.37 421.774 245.652 413.263 247.358C408.449 248.322 406.244 249.576 401.789 249.629C397.995 249.677 397.063 249.362 390.31 248.116C377.727 245.797 377.684 247.229 372.495 245.087C367.205 242.889 365.523 241.054 361.025 241.296C357.897 241.465 355.637 242.877 354.689 243.566C350.558 246.567 348.37 252.391 350.33 256.449C350.924 257.675 351.784 258.401 353.5 259.861C356.83 262.689 359.271 263.237 362.606 265.165C365.923 267.081 365.776 267.847 369.726 270.848C373.064 273.381 381.2 279.407 391.891 280.318C394.175 280.516 395.963 280.423 397.434 280.318C420.472 278.697 435.433 272.066 457.197 272.361C467.483 272.502 472.672 271.364 484.113 269.332C494.353 267.517 498.711 263.866 500.343 262.511C501.768 261.333 508.993 256.09 509.444 246.22C509.76 239.352 506.793 230.442 499.154 226.522Z" fill="#E5E1E1"/>
<path d="M393.078 280.697C395.026 280.741 396.948 280.616 398.87 280.362C400.788 280.092 402.711 279.902 404.616 279.576C408.444 279.039 412.242 278.321 416.027 277.579L421.701 276.417L427.388 275.215C431.19 274.437 435.006 273.691 438.867 273.078C442.728 272.493 446.628 272.065 450.548 271.852C454.46 271.666 458.423 271.783 462.238 271.844C466.082 271.848 469.914 271.602 473.75 271.142C477.595 270.71 481.435 270.133 485.301 269.71C481.532 270.634 477.755 271.501 473.936 272.243C472.018 272.602 470.091 272.908 468.144 273.15C466.196 273.388 464.236 273.534 462.28 273.614C460.324 273.711 458.347 273.699 456.441 273.747C454.523 273.755 452.605 273.897 450.691 273.997C446.86 274.296 443.049 274.74 439.246 275.324C435.436 275.881 431.646 276.615 427.839 277.317C424.028 278.003 420.213 278.749 416.365 279.317C415.403 279.467 414.438 279.612 413.473 279.741C412.503 279.87 411.542 280.011 410.572 280.116C408.633 280.326 406.698 280.548 404.755 280.681C402.812 280.842 400.86 280.907 398.917 280.987C397.943 281.015 396.965 281.024 395.991 280.979C395.009 280.931 394.039 280.842 393.078 280.697Z" fill="#BDB1E5"/>
<mask id="mask1_1594_117" style="mask-type:luminance" maskUnits="userSpaceOnUse" x="433" y="523" width="3" height="1">
<path d="M433.838 523.154H435.175V523.582H433.838V523.154Z" fill="white"/>
</mask>
<g mask="url(#mask1_1594_117)">
<path d="M433.838 523.154V523.582H435.175V523.154H433.838Z" fill="url(#paint0_linear_1594_117)"/>
</g>
<path d="M270.387 276.543H104.174V177.218H270.387V276.543Z" fill="#013A63" fill-opacity="0.78"/>
<path d="M177.621 215.857C187.641 220.064 192.346 233.576 196.148 238.852C202.876 248.185 205.991 247.66 209.878 251.734C210.544 252.428 217.036 256.155 215.097 262.906C214.831 263.814 213.925 266.218 211.939 266.976C203.015 270.392 178.03 248.314 173.085 233.6C170.514 225.925 168.988 217.975 173.085 216.12C174.746 215.369 176.091 215.216 177.621 215.857Z" fill="#F79556"/>
<mask id="mask2_1594_117" style="mask-type:luminance" maskUnits="userSpaceOnUse" x="118" y="209" width="83" height="68">
<path d="M118.709 209.541H200.557V276.543H118.709V209.541Z" fill="white"/>
</mask>
<g mask="url(#mask2_1594_117)">
<path d="M123.873 229.768C126.204 225.259 132.388 217.317 141.721 213.074C149.908 209.351 157.753 209.061 164.367 210.315C184.892 214.203 190.318 228.167 193.235 233.515C194.419 235.685 195.444 237.552 196.413 238.904C197.825 240.86 199.145 242.477 200.447 243.861L200.532 243.941L200.464 244.038C196.316 249.806 192.379 252.25 187.738 254.154L187.641 254.194L187.569 254.121C185.807 252.411 184.154 250.665 182.633 248.906C183.72 252 184.416 254.948 183.316 258.252C181.849 262.636 179.513 264.6 176.588 269.581C173.671 274.55 173.101 279.677 172.608 284.17C172.524 284.932 172.465 285.606 172.427 286.199C144.402 282.02 126.364 263.62 119.463 242.021C120.488 237.609 121.967 233.442 123.873 229.768Z" fill="white"/>
</g>
<mask id="mask3_1594_117" style="mask-type:luminance" maskUnits="userSpaceOnUse" x="106" y="219" width="38" height="58">
<path d="M106.395 219.302H143.529V276.543H106.395V219.302Z" fill="white"/>
</mask>
<g mask="url(#mask3_1594_117)">
<path d="M142.269 239.573C143.361 236.532 144.297 231.506 142.269 227.09C140.899 224.113 137.565 219.773 133.345 219.471C127.856 219.075 124.265 225.061 120.032 234.713C111.382 254.428 102.597 277.422 108.499 279.128C112.68 280.342 118.38 277.148 121.955 273.481C123.814 271.569 123.62 270.259 125.795 265.991C127.953 261.764 129.104 261.159 133.345 255.214C138.492 248.003 140.418 244.768 142.269 239.573Z" fill="#F79556"/>
</g>
<path d="M133.506 255.255C138.426 248.354 140.512 244.958 142.413 239.626C143.172 237.5 144.694 232.011 142.409 227.037C141.166 224.323 137.857 219.652 133.359 219.326C133.186 219.314 133.013 219.31 132.84 219.31C127.642 219.31 124.156 224.936 119.89 234.661C118.2 238.512 116.648 242.171 115.278 245.522L115.232 245.619L115.325 245.688C120.594 249.765 126.652 253.004 133.325 255.311L133.439 255.348L133.506 255.255Z" fill="white"/>
<path d="M232.598 217.632C232.219 218.527 232.181 219.144 232.185 219.471C232.198 220.669 232.468 221.02 232.738 221.443C233.724 223.02 234.571 225.654 238.913 226.303C239.748 226.428 240.97 225.384 247.285 225.384C251.227 225.384 253.187 224.831 254.152 224.335C255.636 223.565 256.488 223.246 257.816 221.633C258.406 220.919 260.467 219.471 260.825 218.212C260.99 217.623 260.712 217.273 261.015 216.845C263.894 212.767 261.976 212.638 262.385 211.719C262.478 211.517 262.836 210.363 262.246 209.879C261.82 209.516 261.104 209.718 261.015 209.746C260.332 209.952 259.987 210.521 259.641 211.065C259.312 211.581 258.246 213.401 257.58 213.687C256.07 214.348 253.807 215.655 251.817 215.135C250.308 214.74 245.274 214.776 244.954 213.296C244.861 212.856 247.344 211.497 248.386 211.19C249.216 210.948 250.877 209.887 251.952 208.169C252.365 207.516 252.285 206.838 251.682 206.463C251.547 206.382 251.303 206.274 250.721 206.33C249.853 206.415 249.473 206.733 248.794 206.987C247.264 207.568 246.906 207.701 245.506 208.435C245.135 208.621 241.919 210.501 240.422 211.19C238.298 212.178 237.636 212.134 235.617 213.296C234.247 214.082 233.391 215.76 232.598 217.632Z" fill="#F79556"/>
<path d="M240.971 225.121C242.408 224.137 234.816 216.76 233.008 218.023C231.983 218.749 231.431 220.588 230.95 221.967C228.4 229.3 220.762 236.943 214.889 241.812C211.332 244.764 208.09 247.531 206.239 249.959C201.783 255.803 202.593 259.728 205.417 263.886C205.809 264.463 207.651 267.185 210.493 267.435C210.493 267.435 211.694 267.54 212.967 267.044C219.91 264.322 229.703 246.752 235.895 232.615C237.35 229.284 239.053 226.436 240.971 225.121Z" fill="#F79556"/>
<path d="M250.995 221.81C251.909 221.963 252.883 221.822 253.768 221.495C254.658 221.169 255.459 220.664 256.184 220.1C256.917 219.535 257.567 218.89 258.199 218.265C258.355 218.111 258.515 217.958 258.679 217.817C258.848 217.672 259.017 217.539 259.202 217.426C259.383 217.305 259.577 217.22 259.788 217.168C260.003 217.119 260.231 217.111 260.467 217.103C260.243 217.051 260.012 216.998 259.767 217.002C259.527 217.014 259.282 217.075 259.059 217.168C258.612 217.365 258.228 217.643 257.87 217.926C257.162 218.503 256.504 219.104 255.805 219.652C255.105 220.197 254.375 220.693 253.579 221.076C252.782 221.467 251.914 221.717 250.995 221.81Z" fill="#EC7D40"/>
<path d="M179.64 262.007C180.273 260.067 180.348 259.337 180.559 258.401C180.804 257.349 180.437 254.662 179.269 254.485C178.717 254.404 178.085 254.699 177.777 255.146C177.267 255.897 177.326 256.857 177.28 257.405C176.938 261.818 171.31 263.568 169.856 264.524C167.331 266.178 167.504 268.069 168.739 268.578C174.628 270.985 178.953 264.121 179.64 262.007Z" fill="#EC7D40"/>
<path d="M182.287 248.399C181.782 246.309 181.238 244.248 180.989 242.167C180.858 241.131 180.791 240.09 180.804 239.053C180.808 238.013 180.884 236.984 181.065 235.968C181.234 234.951 181.508 233.959 181.857 232.971C182.207 231.991 182.637 231.015 183.012 229.99C183.206 229.482 183.379 228.962 183.514 228.425C183.649 227.889 183.746 227.345 183.788 226.796C183.822 226.247 183.818 225.691 183.738 225.154C183.666 224.614 183.552 224.086 183.392 223.569C183.421 224.106 183.434 224.642 183.404 225.167C183.375 225.691 183.308 226.207 183.194 226.715C182.979 227.732 182.578 228.692 182.123 229.652C181.676 230.608 181.179 231.576 180.774 232.596C180.567 233.108 180.39 233.633 180.234 234.161C180.074 234.693 179.956 235.234 179.859 235.778C179.767 236.323 179.708 236.871 179.67 237.42C179.64 237.968 179.627 238.517 179.644 239.07C179.682 240.159 179.817 241.248 180.041 242.312C180.268 243.385 180.597 244.422 180.968 245.438C181.356 246.455 181.79 247.439 182.287 248.399Z" fill="#BDB1E5"/>
<path d="M142.164 226.4C142.948 228.744 143.091 231.127 142.847 233.467C142.724 234.637 142.501 235.794 142.197 236.927C142.041 237.496 141.873 238.045 141.675 238.617C141.578 238.908 141.481 239.186 141.38 239.468C141.287 239.759 141.186 240.037 141.08 240.315C140.979 240.598 140.874 240.876 140.764 241.158C140.659 241.437 140.545 241.715 140.431 241.989C140.212 242.546 139.967 243.094 139.723 243.643C139.23 244.736 138.69 245.821 138.146 246.906C137.05 249.076 135.874 251.234 134.841 253.484C135.672 252.549 136.452 251.577 137.202 250.592C137.952 249.6 138.673 248.584 139.348 247.539C140.026 246.495 140.654 245.418 141.224 244.304C141.367 244.03 141.51 243.744 141.641 243.461C141.772 243.179 141.906 242.893 142.025 242.606C142.151 242.324 142.273 242.034 142.391 241.743C142.505 241.453 142.619 241.162 142.724 240.868C143.137 239.694 143.525 238.533 143.808 237.278C143.926 236.661 144.048 236.04 144.107 235.415C144.149 235.104 144.166 234.786 144.187 234.471C144.2 234.157 144.208 233.846 144.212 233.531C144.208 232.269 144.061 231.011 143.732 229.792C143.403 228.582 142.893 227.417 142.164 226.4Z" fill="#BDB1E5"/>
<path d="M154.866 221.112C155.005 222.669 155.502 224.19 156.24 225.622C156.611 226.339 157.087 227.009 157.606 227.654C157.88 227.957 158.15 228.279 158.466 228.554C158.618 228.695 158.765 228.84 158.929 228.981L159.423 229.368C160.093 229.885 160.805 230.361 161.573 230.748C162.348 231.143 163.196 231.409 164.056 231.518C164.92 231.631 165.788 231.627 166.64 231.502C167.483 231.377 168.309 231.139 169.055 230.736L169.017 230.546C167.365 230.32 165.872 230.09 164.452 229.691C163.739 229.489 163.044 229.284 162.348 229.058C161.653 228.832 160.961 228.546 160.333 228.154C159.073 227.388 157.964 226.36 157.075 225.142C156.173 223.94 155.498 222.548 155.064 221.084L154.866 221.112Z" fill="#BDB1E5"/>
<path d="M169.096 188.245C166.23 188.733 169.589 194.121 156.041 207.342C150.464 212.783 159.055 227.848 166.394 226.856C173.194 225.94 170.23 218.051 173.898 215.175C177.055 212.707 179.129 213.155 180.891 210.872C183.821 207.072 182.438 197.199 176.933 192.33C174.551 190.221 172.131 187.728 169.096 188.245Z" fill="#F79556"/>
<path d="M172.637 196.441C172.831 196.046 174.062 193.662 175.828 191.771C176.242 192.138 176.655 192.509 177.059 192.872C182.438 197.623 183.787 207.263 180.925 210.977C179.205 213.204 177.059 212.627 174.1 215.176C174.079 215.192 174.062 215.212 174.037 215.228C170.344 212.026 169.366 202.951 172.637 196.441Z" fill="#EC7D40"/>
<mask id="mask4_1594_117" style="mask-type:luminance" maskUnits="userSpaceOnUse" x="168" y="177" width="38" height="41">
<path d="M168.35 177.218H205.042V217.237H168.35V177.218Z" fill="white"/>
</mask>
<g mask="url(#mask4_1594_117)">
<path d="M176.811 187.672C176.988 187.483 175.513 185.482 173.565 185.256C171.98 185.067 170.682 186.119 170.521 186.253C168.831 187.672 168.726 190.088 168.624 192.399C168.54 194.347 167.828 197.889 170.155 198.324C170.61 198.409 171.445 197.816 171.668 197.953C172.064 198.199 171.622 200.676 171.613 200.845C171.563 203.604 173.122 208.589 176.769 212.247C179.555 215.051 183.737 217.693 185.6 217.132C187.59 216.531 188.45 214.474 189.095 213.909C191.89 211.457 192.105 209.481 192.897 208.847C193.348 208.48 193.77 207.553 194.031 206.762C194.47 205.451 196.666 206.758 197.193 206.811C197.931 206.895 198.694 206.968 199.132 205.923C199.625 204.721 197.484 198.405 200.713 195.352C203.668 192.553 205.287 186.006 204.258 181.175C203.297 176.685 200.548 170.244 187.657 165.646C177.974 162.194 170.243 171.071 170.172 175.6C170.062 182.518 176.394 188.132 176.811 187.672Z" fill="#F79556"/>
</g>
<mask id="mask5_1594_117" style="mask-type:luminance" maskUnits="userSpaceOnUse" x="156" y="177" width="51" height="23">
<path d="M156.535 177.218H206.674V199.006H156.535V177.218Z" fill="white"/>
</mask>
<g mask="url(#mask5_1594_117)">
<path d="M188.181 186.394C188.122 186.314 188.059 186.229 187.995 186.14C187.995 186.14 187.991 186.132 187.991 186.128C187.924 186.176 187.861 186.225 187.797 186.277C187.928 186.314 188.059 186.354 188.181 186.394ZM185.293 189.052C185.293 189.052 185.289 189.052 185.281 189.056C185.293 189.056 185.298 189.052 185.293 189.052ZM185.217 189.157V189.153C185.209 189.161 185.209 189.165 185.217 189.157ZM184.665 190.553C184.665 190.557 184.665 190.557 184.665 190.557L184.669 190.573V190.569C184.669 190.557 184.661 190.545 184.665 190.553ZM182.633 193.574C182.621 193.57 182.633 193.59 182.65 193.63C182.646 193.602 182.642 193.578 182.633 193.574ZM160.312 173.927C165.139 166.865 171.951 163.973 175.003 163.287C181.112 161.908 185.298 162.234 188.594 164.074C190.727 165.268 192.03 166.361 192.987 167.099C197.126 170.269 198.458 169.894 201.085 171.959C204.642 174.75 207.218 180.824 205.751 182.998C203.981 185.632 199.192 180.502 191.229 184.18C190.28 184.62 189.593 185.007 188.952 185.438L189.53 185.999C189.635 186.1 189.741 186.213 189.85 186.338C189.905 186.406 189.964 186.475 190.023 186.564C190.078 186.644 190.145 186.749 190.192 186.919C190.221 187.003 190.242 187.116 190.23 187.257C190.221 187.399 190.158 187.58 190.048 187.713C189.939 187.854 189.812 187.935 189.686 187.991C189.635 188.012 189.58 188.032 189.53 188.048C189.471 188.064 189.441 188.068 189.395 188.076C189.075 188.125 188.91 188.092 188.729 188.072C188.379 188.028 188.097 187.959 187.81 187.899C187.528 187.834 187.262 187.774 187.001 187.729C186.874 187.701 186.739 187.681 186.621 187.669C186.71 187.895 186.836 188.165 186.942 188.508C186.992 188.681 187.034 188.891 187.047 189.129C187.034 189.262 187.039 189.383 187.001 189.532C186.967 189.677 186.92 189.823 186.836 189.96C186.689 190.238 186.419 190.46 186.17 190.589C185.913 190.726 185.694 190.766 185.496 190.807C185.226 190.847 184.986 190.867 184.804 190.879C184.813 190.896 184.821 190.908 184.825 190.92C184.897 191.085 184.977 191.311 184.994 191.577C185.015 191.851 184.965 192.134 184.838 192.376C184.787 192.505 184.695 192.61 184.619 192.719C184.535 192.803 184.438 192.904 184.345 192.969C184.252 193.037 184.159 193.106 184.071 193.15C183.978 193.203 183.894 193.239 183.809 193.275C183.481 193.424 183.194 193.501 182.975 193.582C182.848 193.622 182.751 193.674 182.697 193.703C182.705 193.707 182.705 193.711 182.713 193.719C182.848 193.888 183.068 194.094 183.266 194.34C183.472 194.59 183.679 194.889 183.784 195.247C183.89 195.602 183.877 195.974 183.793 196.3C183.611 196.95 183.224 197.426 182.815 197.841C182.397 198.252 181.938 198.599 181.453 198.906C181.794 198.458 182.136 198.014 182.401 197.547C182.671 197.087 182.89 196.595 182.903 196.159C182.912 195.941 182.869 195.752 182.781 195.59C182.692 195.425 182.562 195.276 182.376 195.118C182.191 194.957 181.98 194.808 181.727 194.574C181.601 194.453 181.453 194.304 181.327 194.042C181.305 193.965 181.276 193.904 181.259 193.82C181.246 193.739 181.238 193.65 181.238 193.566C181.246 193.481 181.259 193.4 181.28 193.316C181.297 193.235 181.327 193.178 181.356 193.11C181.415 192.973 181.499 192.872 181.584 192.767C181.668 192.686 181.765 192.585 181.849 192.529L181.98 192.436L182.106 192.364C182.191 192.311 182.267 192.279 182.347 192.239C182.646 192.097 182.903 192.001 183.084 191.896C183.27 191.795 183.333 191.706 183.299 191.714C183.299 191.714 183.295 191.718 183.291 191.718C183.287 191.714 183.278 191.67 183.228 191.585C183.186 191.501 183.114 191.384 183.03 191.182L183 191.105L182.966 191.012C182.945 190.952 182.928 190.875 182.92 190.795C182.89 190.637 182.899 190.436 182.945 190.25C182.975 190.161 183.009 190.073 183.051 189.988C183.101 189.911 183.152 189.835 183.211 189.758C183.329 189.621 183.481 189.496 183.62 189.427C183.902 189.27 184.142 189.226 184.328 189.189C184.707 189.133 184.973 189.129 185.158 189.089C185.179 189.089 185.192 189.085 185.205 189.076C185.201 189.048 185.196 189.008 185.184 188.968C185.146 188.826 185.074 188.649 184.99 188.439C184.952 188.467 184.922 188.492 184.884 188.516C178.093 193.574 167.479 196.393 161.138 191.67C158.807 189.94 157.952 187.637 157.707 186.939C155.747 181.441 158.323 176.851 160.312 173.927Z" fill="#0D1114"/>
</g>
<path d="M155.148 189.33C155.118 189.314 155.093 189.297 155.068 189.285C154.882 189.184 154.701 189.076 154.52 188.991C154.157 188.809 153.782 188.656 153.504 188.604C153.445 188.584 153.403 188.584 153.356 188.575C153.352 188.612 153.344 188.652 153.339 188.696C153.322 188.846 153.331 189.031 153.339 189.225C153.348 189.422 153.369 189.628 153.39 189.846C153.993 189.644 154.579 189.471 155.148 189.33ZM153.386 188.483C153.394 188.467 153.407 188.45 153.403 188.446C153.403 188.446 153.394 188.458 153.386 188.483ZM149.373 191.391C149.195 191.25 149.031 191.116 148.862 190.999C148.698 190.878 148.538 190.774 148.395 190.701C148.357 190.681 148.323 190.669 148.289 190.657C148.264 190.741 148.247 190.866 148.239 190.999C148.218 191.193 148.209 191.415 148.192 191.653C148.184 191.798 148.171 191.955 148.146 192.117C148.576 191.895 149.014 191.673 149.461 191.459C149.432 191.439 149.402 191.415 149.373 191.391ZM148.323 190.544C148.323 190.544 148.327 190.544 148.327 190.54C148.352 190.511 148.34 190.507 148.323 190.544ZM146.687 192.23H146.683C146.687 192.23 146.696 192.23 146.7 192.23C146.721 192.23 146.708 192.226 146.687 192.23ZM144.213 192.242C144.044 192.125 143.867 192.012 143.724 191.947C143.698 191.935 143.677 191.927 143.661 191.923C143.656 191.955 143.652 191.992 143.652 192.032C143.639 192.201 143.665 192.411 143.69 192.621C143.736 193.052 143.817 193.5 143.838 193.992C143.842 194.21 143.838 194.432 143.791 194.678C144.415 194.254 145.132 193.807 145.912 193.347C145.701 193.258 145.524 193.153 145.355 193.048C144.929 192.774 144.567 192.488 144.213 192.242ZM143.69 191.81C143.686 191.81 143.686 191.822 143.677 191.826C143.686 191.818 143.69 191.81 143.69 191.81ZM122.178 219.971C122.524 218.979 126.647 220.544 129.29 218.729C131.608 217.136 130.643 214.425 131.815 209.984C133.699 202.797 139.285 198.227 142.257 195.799C142.248 195.799 142.236 195.799 142.227 195.799C141.941 195.755 141.696 195.67 141.468 195.585C141.017 195.42 140.609 195.235 140.208 195.134C139.803 195.033 139.428 195.021 139.116 195.186C138.96 195.263 138.834 195.38 138.737 195.521C138.636 195.666 138.568 195.86 138.501 196.057C138.383 196.461 138.303 196.92 138.105 197.368C138.016 197.594 137.877 197.804 137.729 198.005C137.641 198.094 137.561 198.191 137.468 198.272L137.325 198.397C137.278 198.437 137.232 198.473 137.177 198.506C136.971 198.659 136.734 198.764 136.494 198.84C136.25 198.917 136.001 198.945 135.761 198.965C135.276 198.986 134.825 198.965 134.37 199.002C133.927 199.042 133.472 199.139 133.054 199.288C132.654 199.453 132.321 199.764 132.038 200.111C131.752 200.454 131.503 200.829 131.25 201.204L130.504 202.329L131.183 201.164C131.419 200.78 131.642 200.389 131.912 200.022C132.186 199.655 132.511 199.296 132.962 199.086C133.404 198.897 133.864 198.776 134.336 198.707C134.804 198.643 135.28 198.639 135.727 198.594C135.946 198.566 136.161 198.534 136.355 198.457C136.549 198.381 136.734 198.288 136.895 198.155C136.941 198.126 136.979 198.09 137.013 198.054L137.127 197.949C137.198 197.88 137.253 197.792 137.32 197.715C137.43 197.55 137.531 197.372 137.599 197.179C137.746 196.795 137.801 196.368 137.902 195.908C137.965 195.682 138.029 195.44 138.172 195.202C138.311 194.968 138.522 194.751 138.771 194.609C139.011 194.46 139.297 194.383 139.576 194.359C139.858 194.331 140.132 194.363 140.377 194.416C140.887 194.517 141.334 194.694 141.755 194.819C141.966 194.884 142.164 194.94 142.337 194.952C142.421 194.956 142.493 194.952 142.552 194.944C142.611 194.932 142.645 194.912 142.678 194.884C142.742 194.831 142.796 194.738 142.826 194.585C142.851 194.432 142.851 194.246 142.834 194.049C142.796 193.649 142.699 193.226 142.619 192.766C142.581 192.54 142.539 192.306 142.535 192.032C142.527 191.899 142.535 191.75 142.577 191.568C142.586 191.524 142.594 191.483 142.615 191.431C142.632 191.383 142.649 191.338 142.683 191.282C142.737 191.181 142.826 191.072 142.935 190.983C142.986 190.943 143.045 190.903 143.113 190.874C143.172 190.842 143.239 190.818 143.302 190.802C143.37 190.79 143.437 190.774 143.492 190.774C143.555 190.77 143.618 190.766 143.669 190.77C143.884 190.79 144.053 190.838 144.192 190.895C144.478 191.008 144.693 191.137 144.908 191.262C145.321 191.52 145.697 191.782 146.055 191.98C146.232 192.08 146.413 192.165 146.552 192.205C146.582 192.218 146.611 192.218 146.641 192.23C146.645 192.23 146.649 192.23 146.662 192.23C146.666 192.209 146.679 192.169 146.687 192.117C146.717 191.992 146.725 191.798 146.725 191.596C146.734 191.387 146.725 191.169 146.734 190.915C146.742 190.669 146.755 190.399 146.864 190.056C146.928 189.886 147.029 189.677 147.214 189.491C147.404 189.301 147.678 189.164 147.939 189.124C147.969 189.116 148.003 189.108 148.036 189.104L148.125 189.1C148.188 189.096 148.255 189.092 148.31 189.096C148.411 189.104 148.525 189.12 148.614 189.14C148.803 189.184 148.955 189.241 149.099 189.301C149.377 189.426 149.604 189.564 149.824 189.701C150.034 189.838 150.233 189.975 150.426 190.112C150.696 190.306 150.958 190.499 151.215 190.673C151.312 190.632 151.413 190.592 151.514 190.552C151.455 190.193 151.383 189.81 151.337 189.39C151.307 189.14 151.291 188.882 151.299 188.588C151.312 188.289 151.345 187.946 151.548 187.547C151.653 187.341 151.809 187.131 152.02 186.954C152.125 186.877 152.239 186.801 152.361 186.74C152.416 186.712 152.475 186.692 152.534 186.668C152.593 186.643 152.656 186.619 152.711 186.607C152.821 186.579 152.943 186.551 153.044 186.539C153.145 186.531 153.247 186.526 153.348 186.522C153.529 186.526 153.715 186.531 153.87 186.559C154.507 186.66 155 186.853 155.477 187.055C155.957 187.257 156.391 187.482 156.821 187.716C157.61 188.148 158.356 188.62 159.085 189.1C159.296 189.152 159.494 189.221 159.679 189.301C163.684 191.084 162.091 199.796 161.598 202.716C160.569 208.799 159.19 216.962 151.468 222.165C141.515 228.865 129.471 224.976 125.133 222.641C123.734 221.887 121.942 220.653 122.178 219.971Z" fill="#0D1114"/>
<mask id="mask6_1594_117" style="mask-type:luminance" maskUnits="userSpaceOnUse" x="106" y="263" width="66" height="14">
<path d="M106.395 263.7H171.208V276.542H106.395V263.7Z" fill="white"/>
</mask>
<g mask="url(#mask6_1594_117)">
<path d="M114.54 266.253C115.142 265.902 118.393 263.825 122.912 263.885C126.836 263.942 130.487 264.853 133.071 265.99C134.508 266.62 148.791 271.839 162.862 268.749C164.198 268.455 166.702 266.91 168.216 267.697C170.054 268.657 171.238 271.327 170.96 273.48C170.526 276.872 166.774 277.982 166.019 278.208C162.79 279.196 160.387 279.026 152.429 279.655C150.886 279.776 150.144 279.902 148.036 280.18C148.036 280.18 124.943 283.253 109.186 278.998C108.773 278.885 107.833 278.619 107.264 277.816C105.354 275.114 109.085 269.399 114.54 266.253Z" fill="#F79556"/>
</g>
<mask id="mask7_1594_117" style="mask-type:luminance" maskUnits="userSpaceOnUse" x="162" y="259" width="34" height="18">
<path d="M162.646 259.877H195.329V276.543H162.646V259.877Z" fill="white"/>
</mask>
<g mask="url(#mask7_1594_117)">
<path d="M166.018 268.411C167.785 266.197 168.868 264.866 170.87 263.628C172.135 262.845 173.235 262.47 175.436 261.716C179.656 260.272 182.488 260.107 183.142 260.078C183.753 260.046 183.327 260.091 185.422 260.078C186.088 260.074 190.94 260.034 193.272 260.897C193.55 261.002 193.988 261.192 194.127 261.579C194.296 262.047 193.938 262.539 193.841 262.672C193.474 263.184 192.93 263.37 192.555 263.491C191.788 263.745 191.122 263.704 190.987 263.696C189.233 263.587 187.054 263.454 185.566 263.491C183.521 263.543 182.354 263.801 180.714 264.309C180.398 264.41 179.984 264.66 180.001 264.721C180.145 265.132 182.429 264.559 184.992 264.309C189.073 263.918 194.165 264.092 194.701 264.858C194.983 265.269 195.126 265.951 194.701 266.362C194.3 266.742 193.154 267.23 193.128 267.318C193.086 267.463 193.984 267.455 194.271 267.863C194.557 268.274 194.684 269.036 194.127 269.504C193.845 269.738 193.541 270.013 190.418 270.46C187.728 270.839 186.379 271.029 185.279 271.142C183.606 271.303 182.316 271.372 180.714 272.098C180.288 272.287 179.672 272.57 179.715 272.775C179.799 273.146 181.544 272.937 183.572 272.509C185.363 272.126 185.827 271.981 187.707 271.69C188.213 271.606 190.561 271.279 191.134 271.961C191.366 272.239 191.295 273.118 190.704 273.465C187.851 275.099 183.85 275.01 181.856 275.917C180.6 276.498 176.009 279.197 169.302 277.696C167.447 277.281 167.034 278.031 165.732 277.559C164.61 277.152 163.135 276.147 162.739 274.691C162.296 273.07 163.536 271.517 166.018 268.411Z" fill="#F79556"/>
</g>
<path d="M94.0566 268.585L82.8813 212.15C82.7338 211.4 82.0467 210.855 81.2499 210.855H27.3505C26.5538 210.855 25.8667 211.4 25.7149 212.15L14.5438 268.585C14.3457 269.561 15.134 270.472 16.1752 270.472H92.421C93.4622 270.472 94.2505 269.561 94.0566 268.585Z" fill="white"/>
<path d="M57.4373 285.924C56.7502 279.709 60.8982 273.917 62.1039 272.385C62.2345 272.219 62.1123 271.989 61.8973 271.989H46.7046C46.4896 271.989 46.3674 272.219 46.4981 272.385C47.6995 273.917 51.8517 279.709 51.1646 285.924C49.7693 298.472 38.7837 309.592 38.7837 319.752C38.7837 324.483 41.41 331.868 42.2446 334.401C42.3837 334.817 42.7842 335.095 43.2395 335.095H65.3624C65.8135 335.095 66.2182 334.817 66.3531 334.401C67.192 331.868 69.8182 324.483 69.8182 319.752C69.8182 309.592 58.8326 298.472 57.4373 285.924Z" fill="#0D1114"/>
<path d="M93.984 315.876C91.9901 320.325 87.8167 323.378 84.731 324.883C85.7891 320.111 86.6406 314.263 86.9821 308.128C87.8336 307.704 89.0013 307.426 90.6116 307.7C92.1208 307.959 93.2252 308.689 93.8828 309.866C94.9536 311.762 94.6838 314.307 93.984 315.876ZM96.3995 308.568C95.3203 306.648 93.495 305.418 91.1175 305.006C89.5282 304.732 88.1919 304.857 87.1001 305.155C87.138 303.812 87.1465 302.465 87.1254 301.118C87.117 300.912 86.9483 300.751 86.7333 300.751L57.503 300.755C57.2881 300.755 57.1152 300.916 57.111 301.118C56.8918 315.4 60.0197 329.763 62.6713 334.696C62.7977 334.938 63.0633 335.095 63.3499 335.095H80.8949C81.1815 335.095 81.4429 334.938 81.5778 334.692C82.3534 333.252 83.167 331.005 83.93 328.19C87.6102 326.915 93.8196 323.197 96.6103 316.949C97.6051 314.727 97.9255 311.274 96.3995 308.568Z" fill="white"/>
<defs>
<linearGradient id="paint0_linear_1594_117" x1="433.838" y1="523.369" x2="435.175" y2="523.369" gradientUnits="userSpaceOnUse">
<stop stop-color="#FFBC50"/>
<stop offset="0.25" stop-color="#FFBC50"/>
<stop offset="0.375" stop-color="#FFBC50"/>
<stop offset="0.390625" stop-color="#FFBC51"/>
<stop offset="0.394531" stop-color="#FFBD52"/>
<stop offset="0.398438" stop-color="#FFBE52"/>
<stop offset="0.40625" stop-color="#FFBE53"/>
<stop offset="0.414062" stop-color="#FFBE53"/>
<stop offset="0.417969" stop-color="#FFBF54"/>
<stop offset="0.421875" stop-color="#FFC055"/>
<stop offset="0.4375" stop-color="#FFC055"/>
<stop offset="0.441406" stop-color="#FFC256"/>
<stop offset="0.445312" stop-color="#FFC257"/>
<stop offset="0.449219" stop-color="#FFC257"/>
<stop offset="0.453125" stop-color="#FFC258"/>
<stop offset="0.457031" stop-color="#FFC358"/>
<stop offset="0.460938" stop-color="#FFC359"/>
<stop offset="0.464844" stop-color="#FFC459"/>
<stop offset="0.46875" stop-color="#FFC459"/>
<stop offset="0.476562" stop-color="#FFC459"/>
<stop offset="0.480469" stop-color="#FFC55B"/>
<stop offset="0.484375" stop-color="#FFC55B"/>
<stop offset="0.488281" stop-color="#FFC65C"/>
<stop offset="0.492188" stop-color="#FFC65C"/>
<stop offset="0.5" stop-color="#FFC65D"/>
<stop offset="0.507812" stop-color="#FFC65D"/>
<stop offset="0.515625" stop-color="#FFC75E"/>
<stop offset="0.519531" stop-color="#FFC75F"/>
<stop offset="0.523438" stop-color="#FFC85F"/>
<stop offset="0.53125" stop-color="#FFC860"/>
<stop offset="0.539062" stop-color="#FFC960"/>
<stop offset="0.542969" stop-color="#FFC961"/>
<stop offset="0.546875" stop-color="#FFCA61"/>
<stop offset="0.554688" stop-color="#FFCA61"/>
<stop offset="0.558594" stop-color="#FFCB62"/>
<stop offset="0.5625" stop-color="#FFCB63"/>
<stop offset="0.566406" stop-color="#FFCC63"/>
<stop offset="0.570312" stop-color="#FFCC64"/>
<stop offset="0.574219" stop-color="#FFCD65"/>
<stop offset="0.578125" stop-color="#FFCD65"/>
<stop offset="0.585938" stop-color="#FFCD66"/>
<stop offset="0.589844" stop-color="#FFCE66"/>
<stop offset="0.59375" stop-color="#FFCE66"/>
<stop offset="0.601562" stop-color="#FFCF66"/>
<stop offset="0.605469" stop-color="#FFCF68"/>
<stop offset="0.609375" stop-color="#FFCF68"/>
<stop offset="0.613281" stop-color="#FFD069"/>
<stop offset="0.617188" stop-color="#FFD069"/>
<stop offset="0.625" stop-color="#FFD16A"/>
<stop offset="0.632812" stop-color="#FFD16A"/>
<stop offset="0.636719" stop-color="#FFD26B"/>
<stop offset="0.640625" stop-color="#FFD26B"/>
<stop offset="0.644531" stop-color="#FFD26C"/>
<stop offset="0.648438" stop-color="#FFD26C"/>
<stop offset="0.65625" stop-color="#FFD36D"/>
<stop offset="0.664062" stop-color="#FFD36D"/>
<stop offset="0.671875" stop-color="#FFD46D"/>
<stop offset="0.675781" stop-color="#FFD46E"/>
<stop offset="0.679688" stop-color="#FFD56F"/>
<stop offset="0.683594" stop-color="#FFD56F"/>
<stop offset="0.6875" stop-color="#FFD670"/>
<stop offset="0.691406" stop-color="#FFD670"/>
<stop offset="0.695312" stop-color="#FFD671"/>
<stop offset="0.703125" stop-color="#FFD671"/>
<stop offset="0.707031" stop-color="#FFD772"/>
<stop offset="0.710938" stop-color="#FFD772"/>
<stop offset="0.71875" stop-color="#FFD873"/>
<stop offset="0.722656" stop-color="#FFD974"/>
<stop offset="0.726562" stop-color="#FFD974"/>
<stop offset="0.730469" stop-color="#FFD975"/>
<stop offset="0.734375" stop-color="#FFD975"/>
<stop offset="0.738281" stop-color="#FFDA75"/>
<stop offset="0.742188" stop-color="#FFDA75"/>
<stop offset="0.746094" stop-color="#FFDB76"/>
<stop offset="0.75" stop-color="#FFDB76"/>
<stop offset="0.753906" stop-color="#FFDB77"/>
<stop offset="0.757812" stop-color="#FFDB77"/>
<stop offset="0.765625" stop-color="#FFDC78"/>
<stop offset="0.773438" stop-color="#FFDC78"/>
<stop offset="0.777344" stop-color="#FFDD79"/>
<stop offset="0.78125" stop-color="#FFDD79"/>
<stop offset="0.789062" stop-color="#FFDE7A"/>
<stop offset="0.796875" stop-color="#FFDE7A"/>
<stop offset="0.804688" stop-color="#FFDF7B"/>
<stop offset="0.8125" stop-color="#FFE07C"/>
<stop offset="0.816406" stop-color="#FFE07D"/>
<stop offset="0.820312" stop-color="#FFE07D"/>
<stop offset="0.828125" stop-color="#FFE07E"/>
<stop offset="0.835938" stop-color="#FFE17F"/>
<stop offset="0.84375" stop-color="#FFE17F"/>
<stop offset="0.847656" stop-color="#FFE280"/>
<stop offset="0.851562" stop-color="#FFE380"/>
<stop offset="0.855469" stop-color="#FFE381"/>
<stop offset="0.859375" stop-color="#FFE381"/>
<stop offset="0.875" stop-color="#FFE482"/>
<stop offset="0.878906" stop-color="#FFE583"/>
<stop offset="0.882812" stop-color="#FFE583"/>
<stop offset="0.890625" stop-color="#FFE684"/>
<stop offset="0.898438" stop-color="#FFE684"/>
<stop offset="0.90625" stop-color="#FFE785"/>
<stop offset="0.914062" stop-color="#FFE786"/>
<stop offset="0.921875" stop-color="#FFE886"/>
<stop offset="0.929688" stop-color="#FFE887"/>
<stop offset="0.9375" stop-color="#FFE987"/>
<stop offset="1" stop-color="#FFE988"/>
</linearGradient>
</defs>
</svg>
