<svg width="149" height="150" viewBox="0 0 149 150" fill="none" xmlns="http://www.w3.org/2000/svg">
<path d="M74.5 1.93945C34.1832 1.93945 1.5 34.6226 1.5 74.9395C1.5 115.256 34.1832 147.939 74.5 147.939C114.816 147.939 147.5 115.256 147.5 74.9395C147.5 34.6226 114.816 1.93945 74.5 1.93945Z" stroke="#013A63" stroke-opacity="0.78" stroke-width="2.916" stroke-linecap="round" stroke-linejoin="round"/>
<path d="M18.0828 121.264C18.0828 121.264 34.3546 100.49 74.5045 100.49C114.654 100.49 130.927 121.264 130.927 121.264" stroke="#013A63" stroke-opacity="0.78" stroke-width="2.916" stroke-linecap="round" stroke-linejoin="round"/>
<path d="M74.4979 74.9377C86.5933 74.9377 96.3979 65.1331 96.3979 53.0377C96.3979 40.9427 86.5933 31.1377 74.4979 31.1377C62.4025 31.1377 52.5979 40.9427 52.5979 53.0377C52.5979 65.1331 62.4025 74.9377 74.4979 74.9377Z" stroke="#013A63" stroke-opacity="0.78" stroke-width="2.916" stroke-linecap="round" stroke-linejoin="round"/>
</svg>
