<svg width="612" height="569" viewBox="0 0 612 569" fill="none" xmlns="http://www.w3.org/2000/svg">
<path d="M204.149 534.482C204.149 544.618 293.944 552.834 404.706 552.834C515.473 552.834 605.267 544.618 605.267 534.482C605.267 524.347 515.473 516.135 404.706 516.135C293.944 516.135 204.149 524.347 204.149 534.482Z" fill="#5A789F"/>
<path d="M323.798 536.031H330.467C331.896 536.031 333.059 534.91 333.059 533.543L350.162 472.143C350.162 470.776 348.998 469.654 347.565 469.654H332.233C330.804 469.654 329.636 470.776 329.636 472.143L321.205 533.543C321.205 534.91 322.369 536.031 323.798 536.031Z" fill="#1E272E"/>
<path d="M364.596 518.241H368.462C369.296 518.241 369.975 517.591 369.975 516.797L379.911 481.118C379.911 480.323 379.232 479.674 378.406 479.674H369.495C368.664 479.674 367.981 480.323 367.981 481.118L363.083 516.797C363.083 517.591 363.757 518.241 364.596 518.241Z" fill="#0D1114"/>
<path d="M527.925 536.031H521.26C519.827 536.031 518.659 534.91 518.659 533.543L501.557 472.143C501.557 470.776 502.729 469.654 504.158 469.654H519.486C520.915 469.654 522.087 470.776 522.087 472.143L530.518 533.543C530.518 534.91 529.35 536.031 527.925 536.031Z" fill="#1E272E"/>
<path d="M487.132 518.241H483.258C482.428 518.241 481.749 517.591 481.749 516.797L471.813 481.118C471.813 480.323 472.492 479.674 473.322 479.674H482.234C483.064 479.674 483.743 480.323 483.743 481.118L488.641 516.797C488.641 517.591 487.963 518.241 487.132 518.241Z" fill="#0D1114"/>
<path d="M91.7427 534.482C91.7427 540.577 133.464 545.518 184.935 545.518C236.402 545.518 278.131 540.577 278.131 534.482C278.131 528.388 236.402 523.451 184.935 523.451C133.464 523.451 91.7427 528.388 91.7427 534.482Z" fill="#5A789F"/>
<path d="M0.0556641 534.482C0.0556641 537.536 16.2811 540.004 36.2921 540.004C56.3031 540.004 72.5244 537.536 72.5244 534.482C72.5244 531.433 56.3031 528.965 36.2921 528.965C16.2811 528.965 0.0556641 531.433 0.0556641 534.482Z" fill="#5A789F"/>
<mask id="mask0_1594_117" style="mask-type:luminance" maskUnits="userSpaceOnUse" x="236" y="540" width="118" height="29">
<path d="M236.394 540.178H353.479V568.415H236.394V540.178Z" fill="white"/>
</mask>
<g mask="url(#mask0_1594_117)">
<path d="M236.533 554.391C236.533 562.131 262.66 568.415 294.892 568.415C327.12 568.415 353.247 562.131 353.247 554.391C353.247 546.643 327.12 540.363 294.892 540.363C262.66 540.363 236.533 546.643 236.533 554.391Z" fill="#5A789F"/>
</g>
<mask id="mask1_1594_117" style="mask-type:luminance" maskUnits="userSpaceOnUse" x="4" y="0" width="608" height="490">
<path d="M4.37305 0.789062H611.945V489.583H4.37305V0.789062Z" fill="white"/>
</mask>
<g mask="url(#mask1_1594_117)">
<path d="M440.403 347.162H345.301V175.159H440.403V347.162ZM340.508 347.162H245.402V175.159H340.508V347.162ZM240.613 347.162H145.507V175.159H240.613V347.162ZM440.403 23.368V170.21H345.301V1.25315C343.699 1.08375 342.102 0.930485 340.508 0.78125V170.21H245.402V3.0722C243.796 3.30613 242.203 3.55216 240.613 3.8103V170.21H145.507V33.5603C34.3995 88.0872 -25.1572 200.852 20.8803 326.503C74.2149 472.083 190.858 424.767 241.473 443.853C298.463 465.339 295.28 472.845 318.128 480.351C366.033 496.093 414.667 486.812 453.796 474.587C539.876 447.693 601.697 371.35 610.296 284.52C624.797 138.149 506.051 52.3396 440.403 23.368Z" fill="#5A789F" fill-opacity="0.5"/>
</g>
<path d="M425.585 498.299C402.695 498.299 376.808 497.424 333.025 495.875C332.916 495.875 332.785 495.875 332.625 495.875C332.423 495.875 332.191 495.875 331.934 495.875C331.58 495.879 331.183 495.879 330.745 495.879C320.32 495.879 312.639 493.939 307.269 489.938C297 482.295 283.708 461.753 272.584 436.335C260.489 408.71 253.964 382.082 254.676 363.282C255.216 349.129 259.714 339.26 268.056 333.936C282.018 325.018 293.079 324.482 299.685 324.155C301.198 324.082 303.041 323.99 303.867 323.784C304.638 321.013 304.621 314.374 304.613 308.485C304.596 300.213 304.579 291.658 306.126 285.939C308.352 277.715 314.351 271.899 337.321 268.293C363.28 264.219 391.954 262.158 422.554 262.158C423.663 262.158 424.776 262.158 425.88 262.166C426.951 262.158 428.06 262.158 429.168 262.158C459.765 262.158 488.443 264.219 514.406 268.293C537.372 271.899 543.366 277.715 545.592 285.939C547.139 291.658 547.127 300.213 547.114 308.485C547.097 314.374 547.084 321.013 547.852 323.784C548.678 323.99 550.524 324.082 552.038 324.155C558.648 324.482 569.705 325.018 583.667 333.936C592.005 339.26 596.507 349.129 597.047 363.282C597.763 382.082 591.238 408.71 579.143 436.335C568.014 461.753 554.723 482.295 544.45 489.938C539.083 493.939 531.403 495.879 520.982 495.879C520.539 495.879 520.143 495.879 519.789 495.875C519.532 495.875 519.3 495.875 519.102 495.875C518.938 495.875 518.803 495.875 518.697 495.875C474.915 497.424 449.028 498.299 426.142 498.299H425.585Z" fill="#5A789F" fill-opacity="0.75"/>
<path d="M581.534 336.998C559.968 323.224 546.272 330.803 544.333 325.358C542.044 318.924 544.602 296.935 541.879 286.863C540.273 280.95 536.648 275.509 513.779 271.924C486.26 267.608 456.283 265.692 425.86 265.845C395.441 265.692 365.465 267.608 337.942 271.924C315.077 275.509 311.451 280.95 309.849 286.863C307.122 296.935 309.677 318.924 307.392 325.358C305.448 330.803 291.761 323.224 270.186 336.998C236.293 358.633 284.164 468.078 309.63 487.035C317.635 492.996 330.712 492.117 333.17 492.201C378.49 493.803 403.278 494.621 425.586 494.621C425.679 494.621 425.767 494.621 425.86 494.621C425.953 494.621 426.05 494.621 426.143 494.621C448.447 494.621 473.234 493.803 518.555 492.201C521.017 492.117 534.085 492.996 542.094 487.035C567.56 468.078 615.427 358.633 581.534 336.998Z" fill="#5A789F" fill-opacity="0.5"/>
<path d="M587.714 344.355C586.049 343.508 584.27 342.729 582.348 342.06C576.227 339.918 570.043 340.572 567.834 340.81C567.834 340.81 557.422 341.943 547.722 350.147C519.503 374.004 535.261 440.704 517.282 445.334C498.122 450.275 462.168 449.992 426.539 449.867V449.859C426.311 449.859 426.088 449.867 425.86 449.867C425.641 449.867 425.409 449.859 425.186 449.859V449.867C389.56 449.992 353.602 450.275 334.443 445.334C316.464 440.704 332.221 374.004 304.003 350.147C294.307 341.943 283.89 340.81 283.89 340.81C281.681 340.572 275.493 339.918 269.376 342.06C267.454 342.729 265.671 343.508 264.01 344.355C244.151 376.073 286.58 470.22 310.026 487.668C318.036 493.633 331.108 492.734 333.566 492.835C372.526 494.428 398.417 495.598 425.186 495.674V495.682C425.409 495.682 425.641 495.682 425.86 495.682C426.088 495.682 426.311 495.682 426.539 495.682V495.674C453.307 495.598 479.199 494.428 518.154 492.835C520.616 492.734 533.684 493.633 541.698 487.668C565.14 470.22 607.569 376.073 587.714 344.355Z" fill="#013A63" fill-opacity="0.6"/>
<path d="M544.332 325.358C542.043 318.924 544.602 296.935 541.879 286.863C540.273 280.95 536.647 275.509 513.778 271.924C486.259 267.608 456.283 265.692 425.86 265.845C395.441 265.692 365.464 267.608 337.941 271.924C315.076 275.509 311.451 280.95 309.849 286.863C307.122 296.935 309.676 318.924 307.391 325.358C306.932 326.648 305.806 327.201 304.082 327.483C308.593 327.648 317.235 328.725 325.868 333.981C347.531 347.186 348.063 397.869 348.219 397.845C348.223 397.845 348.206 397.768 348.214 397.732C348.32 397.067 503.105 397.067 503.202 397.732C503.206 397.768 503.193 397.845 503.197 397.845C503.358 397.869 503.884 347.186 525.556 333.981C534.35 328.625 543.16 327.612 547.591 327.479C545.896 327.193 544.787 326.632 544.332 325.358Z" fill="#013A63"/>
<path d="M524.022 401.442C518.268 392.266 504.192 389.572 496.128 388.818C469.967 386.369 381.761 386.369 355.596 388.818C347.532 389.572 333.456 392.266 327.702 401.442C322.432 409.848 331.18 435.108 333.684 439.243C335.286 441.88 337.414 442.582 338.249 442.736C357.733 446.293 493.995 446.293 513.475 442.736C514.314 442.582 516.434 441.88 518.04 439.243C520.544 435.108 529.291 409.848 524.022 401.442Z" fill="#5A789F"/>
<path d="M208.062 335.271H167.707V300.326H208.062V335.271Z" fill="#0D1114"/>
<path d="M232.798 335.272H142.966C142.966 330.698 146.84 326.995 151.616 326.995H224.152C228.928 326.995 232.798 330.698 232.798 335.272Z" fill="#1E272E"/>
<path d="M267.731 310.672H107.918C102.437 310.672 97.99 306.417 97.99 301.169V179.923C97.99 174.671 102.437 170.42 107.918 170.42H267.731C273.212 170.42 277.651 174.671 277.651 179.923V301.169C277.651 306.417 273.212 310.672 267.731 310.672Z" fill="#1E272E"/>
<path d="M267.85 170.593H108.036C102.556 170.593 98.1089 174.844 98.1089 180.095V283.942H277.774V180.095C277.774 174.844 273.33 170.593 267.85 170.593Z" fill="#0D1114"/>
<path d="M194.129 296.644C194.129 299.948 191.334 302.622 187.882 302.622C184.434 302.622 181.639 299.948 181.639 296.644C181.639 293.345 184.434 290.671 187.882 290.671C191.334 290.671 194.129 293.345 194.129 296.644Z" fill="#BDB1E5"/>
<path d="M16.9088 535.765H20.4541C21.2424 535.765 21.9421 535.265 22.1487 534.551L71.116 339.268C71.626 337.546 70.2391 335.84 68.3337 335.84H60.965C59.6414 335.84 58.4863 336.683 58.1659 337.897L15.2058 533.716C14.9275 534.757 15.7664 535.765 16.9088 535.765Z" fill="#0D1114"/>
<path d="M257.302 535.765H253.761C252.969 535.765 252.277 535.265 252.067 534.551L203.099 339.268C202.593 337.546 203.972 335.84 205.877 335.84H213.25C214.578 335.84 215.729 336.683 216.049 337.897L259.014 533.716C259.284 534.757 258.445 535.765 257.302 535.765Z" fill="#0D1114"/>
<path d="M256.047 349.033H8.618C4.91257 349.033 1.91113 346.153 1.91113 342.608V341.697C1.91113 338.147 4.91257 335.271 8.618 335.271H256.047C259.752 335.271 262.754 338.147 262.754 341.697V342.608C262.754 346.153 259.752 349.033 256.047 349.033Z" fill="#0D1114"/>
<path d="M238.511 51.4844H356.92C364.643 51.4844 370.899 57.482 370.899 64.8711V118.136C370.899 125.529 364.643 131.522 356.92 131.522H270.426L254.479 145.47V131.522H238.511C230.792 131.522 224.528 125.529 224.528 118.136V64.8711C224.528 57.482 230.792 51.4844 238.511 51.4844Z" fill="#013A63"/>
<path d="M322.863 113.799C322.863 115.424 321.489 116.747 319.786 116.747C318.087 116.747 316.708 115.424 316.708 113.799C316.708 112.169 318.087 110.854 319.786 110.854C321.489 110.854 322.863 112.169 322.863 113.799Z" fill="white"/>
<path d="M335.631 113.799C335.631 115.424 334.252 116.747 332.549 116.747C330.85 116.747 329.472 115.424 329.472 113.799C329.472 112.169 330.85 110.854 332.549 110.854C334.252 110.854 335.631 112.169 335.631 113.799Z" fill="white"/>
<path d="M348.395 113.799C348.395 115.424 347.021 116.747 345.318 116.747C343.619 116.747 342.237 115.424 342.237 113.799C342.237 112.169 343.619 110.854 345.318 110.854C347.021 110.854 348.395 112.169 348.395 113.799Z" fill="white"/>
<path d="M348.248 74.3574H277.327C275.624 74.3574 274.237 73.0304 274.237 71.4009C274.237 69.7634 275.624 68.4404 277.327 68.4404H348.248C349.951 68.4404 351.338 69.7634 351.338 71.4009C351.338 73.0304 349.951 74.3574 348.248 74.3574Z" fill="white"/>
<path d="M348.249 88.499H245.083C243.38 88.499 241.993 87.172 241.993 85.5385C241.993 83.905 243.38 82.582 245.083 82.582H348.249C349.952 82.582 351.339 83.905 351.339 85.5385C351.339 87.172 349.952 88.499 348.249 88.499Z" fill="white"/>
<path d="M348.249 102.636H245.083C243.38 102.636 241.993 101.313 241.993 99.6792C241.993 98.0417 243.38 96.7188 245.083 96.7188H348.249C349.952 96.7188 351.339 98.0417 351.339 99.6792C351.339 101.313 349.952 102.636 348.249 102.636Z" fill="white"/>
<path d="M307.611 116.776H245.083C243.38 116.776 241.993 115.449 241.993 113.816C241.993 112.178 243.38 110.859 245.083 110.859H307.611C309.318 110.859 310.701 112.178 310.701 113.816C310.701 115.449 309.318 116.776 307.611 116.776Z" fill="white"/>
<path d="M392.165 122.665H296.144C289.88 122.665 284.809 127.525 284.809 133.523V176.716C284.809 182.71 289.88 187.57 296.144 187.57H366.29L379.219 198.883V187.57H392.165C398.429 187.57 403.509 182.71 403.509 176.716V133.523C403.509 127.525 398.429 122.665 392.165 122.665Z" fill="#1E272E"/>
<path d="M364.549 173.198C364.549 174.521 363.432 175.59 362.058 175.59C360.675 175.59 359.558 174.521 359.558 173.198C359.558 171.883 360.675 170.811 362.058 170.811C363.432 170.811 364.549 171.883 364.549 173.198Z" fill="white"/>
<path d="M374.903 173.198C374.903 174.521 373.786 175.59 372.408 175.59C371.029 175.59 369.912 174.521 369.912 173.198C369.912 171.883 371.029 170.811 372.408 170.811C373.786 170.811 374.903 171.883 374.903 173.198Z" fill="white"/>
<path d="M385.256 173.198C385.256 174.521 384.134 175.59 382.76 175.59C381.382 175.59 380.26 174.521 380.26 173.198C380.26 171.883 381.382 170.811 382.76 170.811C384.134 170.811 385.256 171.883 385.256 173.198Z" fill="white"/>
<path d="M385.134 141.219H327.626C326.239 141.219 325.118 140.142 325.118 138.815C325.118 137.492 326.239 136.415 327.626 136.415H385.134C386.521 136.415 387.642 137.492 387.642 138.815C387.642 140.142 386.521 141.219 385.134 141.219Z" fill="white"/>
<path d="M385.133 152.681H301.476C300.089 152.681 298.968 151.609 298.968 150.282C298.968 148.959 300.089 147.886 301.476 147.886H385.133C386.52 147.886 387.641 148.959 387.641 150.282C387.641 151.609 386.52 152.681 385.133 152.681Z" fill="white"/>
<path d="M385.133 164.147H301.476C300.089 164.147 298.968 163.074 298.968 161.748C298.968 160.421 300.089 159.348 301.476 159.348H385.133C386.52 159.348 387.641 160.421 387.641 161.748C387.641 163.074 386.52 164.147 385.133 164.147Z" fill="white"/>
<path d="M352.176 175.614H301.476C300.089 175.614 298.968 174.537 298.968 173.218C298.968 171.887 300.089 170.811 301.476 170.811H352.176C353.563 170.811 354.684 171.887 354.684 173.218C354.684 174.537 353.563 175.614 352.176 175.614Z" fill="white"/>
<path d="M316.417 376.798C318.601 368.296 333.406 356.946 345.808 354.97C357.982 353.025 364.288 354.699 374.747 355.772C411.523 359.543 447.132 392.71 485.88 393.803C486.53 393.823 487.605 393.67 488.831 394.146C493.211 395.852 495.306 406.407 493.279 408.125C492.802 408.528 492.191 408.573 492.027 408.553C439.573 402.761 389.181 412.409 343.283 406.536C330.084 404.846 326.37 401.523 322.618 398.558C316.308 393.573 314.512 384.199 316.417 376.798Z" fill="#EC7D40"/>
<path d="M335.087 474.305C348.425 446.39 362.998 385.038 368.221 374.233C373.279 363.746 376.361 360.403 378.553 358.402C385.205 352.332 392.788 350.356 401.287 348.508C422.875 343.814 434.998 344.402 462.133 340.595C465.906 340.063 479.544 338.118 497.27 338.619C506.814 338.885 509.937 341.252 512.77 343.192C524.826 351.449 520.274 371.41 518.971 375.217C517.934 378.254 513.723 388.184 502.438 392.593C497.953 394.343 491.183 395.368 477.63 394.202C467.993 393.367 462.589 392.835 453.989 392.226C446.266 391.673 415.004 389.294 407.614 397.356C403.85 401.458 403.871 407.871 403.483 412.812C401.401 439.368 379.623 460.168 362.972 481.024C353.057 480.351 343.206 478.544 335.087 474.305Z" fill="#312553"/>
<path d="M378.979 408.517C390.698 408.517 402.413 408.066 414.806 407.594C427.242 407.118 440.108 406.626 453.024 406.626L454.752 406.63L454.833 406.315C456.257 400.201 456.649 393.658 456 386.858L455.979 386.612L455.735 386.519C445.925 382.897 436.112 378.122 426.618 373.504C409.697 365.268 392.199 356.761 374.789 354.971C372.651 354.753 370.704 354.511 368.815 354.277C364.494 353.736 360.759 353.272 356.396 353.272C353.016 353.272 349.525 353.567 345.74 354.172C333.553 356.116 318.276 367.486 316.008 376.299C314.241 383.168 315.472 393.041 322.352 398.466L322.816 398.833C326.39 401.677 330.454 404.903 343.231 406.533C353.804 407.888 365.16 408.517 378.979 408.517Z" fill="#0D1114"/>
<path d="M309.71 509.084C311.708 504.208 322.323 499.521 334.742 475.055C334.771 474.982 334.801 474.914 334.835 474.841C348.24 447.18 362.965 385.111 368.221 374.233C373.28 363.746 376.361 360.403 378.554 358.402C385.206 352.332 392.789 350.356 401.288 348.508C422.875 343.814 434.999 344.402 462.134 340.595C465.907 340.063 479.544 338.118 497.271 338.619C506.814 338.885 509.938 341.252 512.771 343.192C524.827 351.449 520.275 371.41 518.972 375.217C517.935 378.254 513.724 388.184 502.439 392.593C497.953 394.343 491.183 395.368 477.63 394.202C467.994 393.367 462.59 392.835 453.99 392.226C446.267 391.673 415.005 389.294 407.615 397.356C403.851 401.458 403.872 407.871 403.484 412.812C400.521 450.597 357.683 476.725 346.474 507.959C343.169 517.175 338.974 519.482 335.391 522.318C326.867 529.057 312.18 531.361 307.737 526.097C304.378 522.12 307.484 514.525 309.71 509.084Z" fill="#F79556"/>
<path d="M347.97 506.281C349.72 506.571 353.577 522.321 349.838 527.69C348.531 529.565 331.635 540.774 323.68 545.578C322.184 546.477 318.028 548.901 312.463 550.946C309.854 551.902 302.7 555.165 290.445 554.524C286.095 554.294 279.308 552.124 275.088 549.49C272.428 547.828 271.682 546.489 271.353 545.912C269.583 542.831 272.58 537.612 273.221 536.632C276.02 532.324 279.443 531.429 286.302 527.69C297.473 521.591 303.771 514.456 310.596 506.224C312.488 503.937 311.557 502.477 313.222 501.582C315.987 500.098 323.436 505.264 330.042 511.589C331.909 513.375 334.548 515.307 338.629 514.101C344.914 512.246 345.909 505.93 347.97 506.281Z" fill="white"/>
<path d="M349.838 520.531C346.824 522.391 343.734 524.109 340.644 525.839L331.361 531.002L322.083 536.152C318.993 537.879 315.911 539.617 312.809 541.287C312.037 541.706 311.257 542.142 310.503 542.529C310.119 542.735 309.774 542.9 309.386 543.058C308.998 543.219 308.597 543.368 308.197 543.517C306.582 544.098 304.9 544.546 303.206 544.925C299.812 545.691 296.322 546.022 292.84 545.933C289.362 545.808 285.884 545.211 282.609 544.009C282.192 543.872 281.791 543.699 281.382 543.538C280.973 543.38 280.581 543.211 280.189 543.013C279.409 542.634 278.642 542.206 277.883 541.771C277.124 541.327 276.378 540.859 275.653 540.363C274.924 539.871 274.19 539.379 273.571 538.762C274.671 540.125 276.087 541.23 277.5 542.299C278.212 542.832 278.954 543.332 279.725 543.8C280.109 544.038 280.514 544.255 280.914 544.457C281.319 544.663 281.719 544.877 282.132 545.058C285.442 546.567 289.063 547.458 292.726 547.748C296.394 548.067 300.095 547.764 303.699 547.083C305.499 546.732 307.274 546.256 309.019 545.651C309.457 545.502 309.892 545.344 310.326 545.167C310.764 544.994 311.228 544.78 311.624 544.57C312.455 544.155 313.222 543.739 314.014 543.316C317.125 541.585 320.207 539.839 323.263 538.048C326.307 536.225 329.359 534.43 332.356 532.547C335.366 530.675 338.342 528.759 341.284 526.795C344.202 524.799 347.14 522.806 349.838 520.531Z" fill="#BDB1E5"/>
<path d="M319.706 518.991C318.58 518.216 317.471 517.611 316.371 517.006L313.134 515.248C312.067 514.667 311.001 514.086 309.947 513.473C308.884 512.856 307.847 512.259 306.793 511.42C306.857 512.085 307.152 512.719 307.485 513.303C307.839 513.876 308.256 514.409 308.724 514.885C309.664 515.845 310.756 516.643 311.932 517.276C313.108 517.91 314.364 518.402 315.676 518.708C316.978 519.007 318.331 519.152 319.706 518.991Z" fill="#1E1735"/>
<path d="M315.717 522.81C314.587 522.032 313.479 521.431 312.387 520.826L309.141 519.063C308.079 518.478 307.016 517.897 305.963 517.292C304.9 516.667 303.859 516.078 302.809 515.231C302.864 515.905 303.163 516.53 303.496 517.119C303.851 517.688 304.272 518.228 304.74 518.704C305.676 519.664 306.768 520.455 307.944 521.092C309.124 521.725 310.38 522.217 311.683 522.524C312.994 522.818 314.339 522.971 315.717 522.81Z" fill="#1E1735"/>
<path d="M311.729 526.625C310.604 525.847 309.491 525.242 308.399 524.641L305.157 522.878C304.091 522.298 303.029 521.717 301.975 521.108C300.912 520.483 299.875 519.894 298.822 519.051C298.881 519.724 299.18 520.35 299.509 520.934C299.863 521.507 300.28 522.044 300.748 522.515C301.688 523.483 302.784 524.274 303.96 524.907C305.136 525.544 306.393 526.033 307.695 526.339C309.006 526.638 310.355 526.783 311.729 526.625Z" fill="#1E1735"/>
<path d="M307.742 530.441C306.616 529.662 305.507 529.061 304.416 528.456L301.17 526.698C300.103 526.117 299.041 525.536 297.987 524.923C296.929 524.302 295.888 523.709 294.838 522.866C294.893 523.536 295.188 524.169 295.525 524.754C295.879 525.318 296.292 525.859 296.764 526.335C297.7 527.295 298.796 528.085 299.972 528.723C301.144 529.36 302.405 529.848 303.712 530.159C305.023 530.457 306.367 530.602 307.742 530.441Z" fill="#1E1735"/>
<path d="M363.306 481.271C366.202 477.641 369.317 473.939 372.335 470.353C387.001 452.921 402.168 434.9 403.897 412.842C403.947 412.281 403.985 411.7 404.023 411.107C404.335 406.445 404.685 401.157 407.931 397.62C411.379 393.861 421.087 391.868 436.002 391.868C443.446 391.868 450.284 392.36 453.568 392.598L453.96 392.622C460.153 393.066 464.65 393.461 470.346 393.969C472.538 394.159 474.903 394.373 477.592 394.599C481.449 394.933 484.944 395.103 487.987 395.103C494.222 395.103 498.863 394.425 502.594 392.969C514.119 388.464 518.352 378.34 519.368 375.343C519.979 373.565 521.513 367.49 521.303 360.864C521.041 352.624 518.179 346.4 513.015 342.867L512.724 342.665C509.866 340.701 506.628 338.479 497.283 338.216C495.377 338.164 493.438 338.136 491.52 338.136C476.766 338.136 465.793 339.676 462.189 340.185L462.075 340.197C451.152 341.729 442.578 342.556 435.011 343.29C423.798 344.375 414.111 345.311 401.195 348.118C392.591 349.986 384.935 352.031 378.262 358.113C375.859 360.303 372.736 363.917 367.837 374.065C365.801 378.276 362.433 389.843 358.167 404.492C351.35 427.906 342.869 457.051 334.703 474.14L334.543 474.483L334.885 474.661C342.093 478.424 351.27 480.638 362.939 481.429L363.171 481.441L363.306 481.271Z" fill="#1E272E"/>
<path d="M500.37 380.751C503.198 380.771 503.805 382.211 508.64 382.731C510.322 382.917 509.694 382.905 511.094 382.731C513.273 382.457 515.124 379.981 519.988 379.646C531.75 378.839 543.68 396.582 543.777 400.539C543.928 406.98 538.334 409.501 533.44 410.432C526.834 411.687 521.472 410.803 518.973 410.432C500.188 407.645 490.261 411.239 487.972 406.476C486.968 404.382 488.136 402.16 485.902 398.558C484.772 396.743 483.642 395.965 483.836 394.601C484.056 393.037 485.742 392.742 487.972 390.645C490.632 388.14 489.818 387.043 492.103 384.712C492.634 384.167 495.994 380.731 500.37 380.751Z" fill="white"/>
<path d="M508.64 386.688C510.031 387.027 511.413 387.305 512.729 387.725C514.052 388.128 515.304 388.648 516.451 389.31C518.803 390.689 521.021 392.258 523.065 394.021C525.114 395.779 526.973 397.736 528.718 399.809C529.578 400.849 530.417 401.918 531.193 403.035C531.989 404.141 532.723 405.286 533.439 406.476C533.153 405.125 532.643 403.83 532.074 402.568C531.787 401.934 531.45 401.325 531.129 400.708C530.775 400.103 530.421 399.494 530.025 398.921C528.486 396.578 526.61 394.416 524.448 392.553C522.277 390.693 519.836 389.12 517.193 387.951C515.84 387.338 514.385 386.979 512.948 386.789C511.502 386.616 510.069 386.591 508.64 386.688Z" fill="#BDB1E5"/>
<path d="M506.131 398.14C506.039 399.301 506.241 400.439 506.595 401.532C506.962 402.621 507.493 403.657 508.163 404.605C508.833 405.553 509.647 406.416 510.574 407.134C511.502 407.852 512.53 408.449 513.702 408.788C513.057 407.8 512.383 406.936 511.751 406.069C511.097 405.21 510.482 404.355 509.866 403.5C509.259 402.637 508.665 401.77 508.062 400.878C507.451 399.991 506.856 399.075 506.131 398.14Z" fill="#1E1735"/>
<path d="M501.515 398.14C501.423 399.301 501.621 400.439 501.975 401.532C502.342 402.621 502.873 403.657 503.547 404.605C504.222 405.553 505.027 406.416 505.954 407.134C506.882 407.852 507.915 408.449 509.082 408.788C508.437 407.8 507.771 406.936 507.13 406.069C506.481 405.21 505.866 404.355 505.246 403.5C504.635 402.637 504.045 401.77 503.442 400.878C502.835 399.991 502.236 399.075 501.515 398.14Z" fill="#1E1735"/>
<path d="M496.891 398.14C496.798 399.301 497.001 400.439 497.355 401.532C497.726 402.621 498.253 403.657 498.927 404.605C499.597 405.553 500.407 406.416 501.33 407.134C502.262 407.852 503.294 408.449 504.462 408.788C503.817 407.8 503.151 406.936 502.51 406.069C501.861 405.21 501.246 404.355 500.63 403.5C500.015 402.637 499.425 401.77 498.822 400.878C498.215 399.991 497.62 399.075 496.891 398.14Z" fill="#1E1735"/>
<path d="M492.275 398.14C492.182 399.301 492.385 400.439 492.735 401.532C493.106 402.621 493.637 403.657 494.303 404.605C494.982 405.553 495.791 406.416 496.714 407.134C497.641 407.852 498.674 408.449 499.846 408.788C499.201 407.8 498.531 406.936 497.89 406.069C497.241 405.21 496.626 404.355 496.01 403.5C495.403 402.637 494.804 401.77 494.202 400.878C493.59 399.991 493 399.075 492.275 398.14Z" fill="#1E1735"/>
<path d="M323.688 515.174C322.566 514.396 321.453 513.791 320.357 513.194L317.12 511.431C316.049 510.846 314.983 510.27 313.933 509.657C312.871 509.035 311.829 508.443 310.78 507.6C310.843 508.273 311.134 508.898 311.467 509.483C311.821 510.056 312.243 510.596 312.71 511.068C313.646 512.032 314.742 512.823 315.914 513.46C317.09 514.093 318.347 514.581 319.658 514.888C320.964 515.186 322.318 515.336 323.688 515.174Z" fill="#1E1735"/>
<path d="M384.262 376.694C381.922 374.77 379.279 373.302 376.526 372.072C373.765 370.853 370.865 369.918 367.91 369.252C364.946 368.583 361.915 368.2 358.876 368.119C355.845 368.054 352.789 368.252 349.804 368.986C352.768 369.789 355.655 370.349 358.518 370.97C361.38 371.571 364.213 372.18 367.041 372.81C369.862 373.447 372.686 374.096 375.527 374.77C378.381 375.431 381.231 376.149 384.262 376.694Z" fill="#1E272E"/>
<path d="M514.575 323.82C512.362 318.512 510.469 310.595 508.922 305.138C508.404 301.681 507.877 298.281 507.316 294.957C507.177 291.138 502.22 231.977 487.364 226.532C467.876 219.393 453.505 222.974 444.876 225.862C432.23 230.093 423.107 246.993 425.198 264.631C427.9 287.379 440.496 318.887 441.074 324.296C441.297 326.454 440.977 332.052 438.325 337.348C433.292 347.23 439.522 340.922 462.265 342.991C489.101 345.431 517.834 357.805 522.787 349.827C527.445 343.547 521.683 340.792 514.575 323.82Z" fill="white"/>
<path d="M457.253 222.628C452.11 220.341 447.283 221.14 440.635 222.249C435.454 223.108 431.61 224.596 427.968 226.032C425.649 226.948 422.964 227.988 414.904 232.477C393.135 244.598 391.158 246.877 387.199 249.147C386.348 249.631 353.539 278.631 362.197 279.631C373.153 280.902 461.375 253.519 465.566 248.01C468.74 243.843 468.415 238.955 468.335 237.781C467.876 230.86 462.885 225.125 457.253 222.628Z" fill="white"/>
<path d="M473.878 204.953C480.412 219.159 488.329 224.463 490.108 225.794C491.116 226.544 489.708 229.96 488.523 231.473C481.576 240.342 457.13 249.082 457.253 240.568C457.455 227.117 448.628 223.402 445.778 217.078C445.563 216.598 441.643 210.886 444.589 203.437C447.751 195.435 469.182 187.307 471.501 189.038C472.108 189.498 470.089 196.713 473.878 204.953Z" fill="#F79556"/>
<path d="M457.978 203.958C458.083 206.72 457.451 208.862 457.168 209.774C456.991 210.362 456.296 212.496 454.74 214.815C453.041 217.332 444.61 224.511 435.695 226.839C434.675 227.105 433.726 227.262 432.858 226.839C431.783 226.31 431.542 225.233 430.83 223.737C430.113 222.221 430.096 222.765 427.997 219.47C425.531 215.602 424.296 213.662 423.942 212.101C423.617 210.661 423.651 209.54 422.732 208.999C421.948 208.539 421.362 209.019 419.49 208.612C418.479 208.39 417.606 208.189 417.054 207.446C416.476 206.652 416.615 205.716 416.653 205.506C416.839 204.442 420.3 196.972 419.49 193.483C418.9 190.946 418.386 188.01 416.653 182.234C415.869 179.632 414.221 168.274 422.732 161.293C426.834 157.925 430.767 156.445 434.076 155.477C441.331 153.355 447.544 153.928 450.28 154.315C454.015 154.839 461.949 155.787 468.512 162.067C472.77 166.145 479.068 177.325 469.731 184.952C466.539 187.554 466.641 186.856 464.057 186.888C460.469 186.937 456.561 194.064 457.168 197.363C457.442 198.863 457.826 199.948 457.978 203.958Z" fill="#F79556"/>
<path d="M421.631 174.018C439.792 167.807 450.153 187.421 458.584 198.581C461.957 203.046 468.769 206.555 474.279 204.764C477.36 203.764 481.812 199.916 482.347 193.338C482.916 186.348 483.578 179.415 481.597 171.86C480.214 166.605 474.978 158.663 466.606 154.15C460.81 151.032 450.971 150.721 446.321 150.927C441.537 151.137 438.19 151.286 433.974 152.653C431.495 153.46 425.501 155.533 420.746 160.627C419.996 161.434 417.399 164.318 415.455 168.831C414.313 171.489 414.035 172.844 414.574 174.449C414.966 175.631 415.173 176.551 416.337 177.039C417.879 177.688 417.622 175.385 421.631 174.018Z" fill="#0D1114"/>
<path d="M449.42 184.375C450.423 182.863 451.57 182.201 451.848 182.048C452.413 181.737 453.623 181.072 455.094 181.269C457.109 181.544 458.256 183.262 458.741 183.988C460.128 186.069 460.014 188.235 459.95 189.413C459.786 192.664 458.218 194.854 457.118 196.395C456.161 197.742 455.419 198.326 454.69 198.726C454.066 199.057 452.932 199.706 451.848 199.496C449.926 199.125 449.112 196.245 448.607 194.458C448.244 193.164 446.857 188.243 449.42 184.375Z" fill="#F79556"/>
<path d="M387.595 214.05C389.834 211.504 392.216 208.79 394.715 205.333C397.089 202.062 398.893 199.57 400.655 195.863C402.118 192.782 405.326 185.118 407.383 182.222C407.948 181.428 408.572 180.702 408.572 180.702C409.777 179.31 410.873 178.439 411.341 178.056C414.887 175.152 414.684 173.857 417.281 172.373C417.863 172.034 419.254 171.639 422.028 170.852C422.47 170.731 427.655 169.295 430.737 170.098C431.129 170.199 432.714 171.615 431.529 172.748C430.463 173.772 429.405 174.018 426.378 175.023C425.463 175.329 422.749 176.233 422.82 176.539C422.888 176.822 424.511 176.689 428.76 176.539C433.447 176.374 435.88 176.16 437.465 176.539C437.924 176.648 438.987 176.999 439.446 177.677C439.804 178.205 439.716 179.008 439.446 179.568C439.02 180.436 438.245 180.524 438.253 181.085C438.266 181.516 438.734 181.541 439.05 182.222C439.341 182.843 439.303 183.574 439.05 184.114C438.738 184.784 438.122 185.118 437.861 185.255C435.285 186.607 429.548 186.014 424.797 187.147C423.486 187.462 422.028 188.66 422.028 188.66C422.028 188.66 422.681 188.99 426.774 188.66C432.777 188.18 435.665 188.7 436.276 189.797C436.478 190.156 436.369 190.579 436.276 190.938C435.943 192.245 431.521 192.628 429.156 192.83C427.795 192.947 425.982 193.1 424.009 193.588C421.138 194.294 419.267 195.363 418.47 195.863C417.538 196.44 416.585 197.037 415.696 198.134C414.916 199.094 414.651 199.856 414.111 201.167C412.863 204.184 412.012 206.253 410.549 207.983C409.44 209.306 408.445 209.879 407.383 210.637C404.242 212.892 402.577 215.32 399.466 219.733C393.885 227.654 394.673 229.997 391.55 231.094C388.641 232.123 384.893 231.159 382.444 229.203C381.525 228.461 380.029 227.263 379.679 225.416C379.156 222.628 381.685 220.757 387.595 214.05Z" fill="#EC7D40"/>
<path d="M436.268 181.459C436.377 181.459 436.398 181.608 436.293 181.624C434.552 181.975 432.786 182.177 431.007 182.274C428.958 182.387 426.943 182.391 424.92 182.407L421.914 182.383C421.703 182.387 421.518 182.415 421.299 182.476C421.071 182.536 420.835 182.613 420.603 182.693C420.139 182.851 419.671 183.02 419.203 183.189C417.58 183.811 415.983 184.504 414.415 185.279C414.313 185.327 414.233 185.202 414.313 185.138C415.683 184.049 417.226 183.149 418.828 182.383C419.288 182.161 419.747 181.951 420.232 181.766C420.472 181.669 420.713 181.576 420.974 181.487C421.231 181.399 421.547 181.33 421.842 181.306C422.003 181.294 422.129 181.294 422.251 181.294L422.635 181.29L423.394 181.282L424.92 181.27L427.967 181.306L430.994 181.395C432.744 181.435 434.501 181.443 436.268 181.459Z" fill="#C95E28"/>
<path d="M414.023 180.217C413.934 180.249 413.858 180.149 413.917 180.08C414.381 179.536 414.908 179.068 415.469 178.628C416.114 178.128 416.797 177.684 417.517 177.297C417.88 177.103 418.259 176.926 418.643 176.769C418.833 176.692 419.027 176.615 419.229 176.551C419.41 176.486 419.655 176.406 419.878 176.369C420.666 176.244 421.391 176.321 422.112 176.47C422.201 176.486 422.209 176.611 422.125 176.64C421.425 176.853 420.717 176.99 420.135 177.228C419.844 177.358 419.478 177.563 419.132 177.741L418.095 178.293C417.399 178.66 416.695 179.023 415.975 179.378C415.346 179.673 414.706 179.967 414.023 180.217Z" fill="#C95E28"/>
<path d="M384.43 214.428C384.43 214.428 381.066 218.796 376.514 226.169C375.08 228.488 372.391 231.759 367.012 238.297C358.408 248.752 358.653 247.509 355.537 251.934C354.576 253.285 349.754 260.259 347.224 270.12C346.255 273.887 346.217 275.763 347.224 277.32C349.332 280.603 355.28 281.309 359.491 280.353C362.961 279.562 366.59 277.34 377.302 259.133C387.242 242.242 385.615 244.355 390.366 236.397C393.772 230.686 398.679 224.277 398.679 224.277C398.679 224.277 395.897 223.329 392.343 221.244C387.031 218.13 384.43 214.428 384.43 214.428Z" fill="white"/>
<path d="M471.257 203.061C469.221 217.045 492.933 224.623 497.798 206.84C502.662 189.029 474.524 180.603 471.257 203.061Z" fill="#0D1114"/>
<path d="M500.791 231.073C506.195 234.296 507.034 243.109 508.501 260.593C509.332 270.516 509.167 276.88 508.501 296.385C507.553 324.248 506.924 328.555 499.248 337.147C496.47 340.26 494.248 342.749 490.383 343.785C471.017 349.005 445.867 318.129 442.971 313.358C434 298.584 420.692 276.662 429.861 261.332C431.366 258.815 433.499 256.451 456.849 245.46C493.249 228.339 498.013 229.412 500.791 231.073Z" fill="white"/>
<path d="M499.21 227.311C493.603 224.423 487.739 226.157 485.358 226.548C480.936 227.282 479.081 228.008 471.898 231.852C466.417 234.788 459.474 236.995 451.714 239.81C444.497 242.432 438.485 244.331 434.299 245.114C423.335 247.159 421.83 246.441 413.319 248.147C408.505 249.111 406.3 250.365 401.844 250.418C398.05 250.466 397.119 250.151 390.365 248.905C377.782 246.586 377.74 248.018 372.551 245.876C367.26 243.678 365.578 241.843 361.08 242.085C357.952 242.254 355.693 243.666 354.744 244.356C350.613 247.356 348.425 253.181 350.386 257.238C350.98 258.464 351.84 259.19 353.556 260.65C356.886 263.478 359.327 264.026 362.661 265.954C365.979 267.87 365.831 268.636 369.781 271.637C373.12 274.17 381.256 280.196 391.946 281.107C394.231 281.305 396.018 281.212 397.49 281.107C420.527 279.486 435.488 272.855 457.253 273.15C467.539 273.291 472.728 272.153 484.169 270.121C494.408 268.306 498.767 264.655 500.399 263.3C501.823 262.122 509.049 256.879 509.5 247.01C509.816 240.141 506.848 231.231 499.21 227.311Z" fill="white"/>
<path d="M393.134 281.486C395.082 281.53 397.004 281.405 398.926 281.151C400.844 280.881 402.766 280.691 404.672 280.365C408.5 279.828 412.298 279.11 416.083 278.368L421.757 277.206L427.444 276.005C431.246 275.226 435.061 274.48 438.923 273.867C442.784 273.282 446.684 272.855 450.604 272.641C454.516 272.455 458.479 272.572 462.294 272.633C466.138 272.637 469.97 272.391 473.806 271.931C477.651 271.499 481.491 270.923 485.357 270.499C481.588 271.423 477.811 272.29 473.992 273.032C472.074 273.391 470.147 273.697 468.199 273.939C466.252 274.177 464.292 274.323 462.336 274.403C460.38 274.5 458.403 274.488 456.497 274.536C454.579 274.544 452.661 274.686 450.747 274.786C446.915 275.085 443.105 275.529 439.302 276.113C435.491 276.67 431.702 277.404 427.895 278.106C424.084 278.792 420.269 279.538 416.42 280.106C415.459 280.256 414.494 280.401 413.529 280.53C412.559 280.659 411.598 280.8 410.628 280.905C408.689 281.115 406.754 281.337 404.811 281.47C402.868 281.631 400.916 281.696 398.973 281.776C397.999 281.805 397.021 281.813 396.047 281.768C395.065 281.72 394.095 281.631 393.134 281.486Z" fill="#BDB1E5"/>
<mask id="mask2_1594_117" style="mask-type:luminance" maskUnits="userSpaceOnUse" x="433" y="523" width="3" height="2">
<path d="M433.894 523.943H435.23V524.371H433.894V523.943Z" fill="white"/>
</mask>
<g mask="url(#mask2_1594_117)">
<path d="M433.894 523.943V524.371H435.23V523.943H433.894Z" fill="url(#paint0_linear_1594_117)"/>
</g>
<path d="M270.443 277.332H104.229V178.007H270.443V277.332Z" fill="#013A63" fill-opacity="0.78"/>
<path d="M177.677 216.646C187.697 220.853 192.401 234.365 196.204 239.641C202.932 248.974 206.047 248.449 209.934 252.523C210.6 253.217 217.092 256.944 215.152 263.695C214.887 264.603 213.98 267.007 211.995 267.765C203.071 271.181 178.085 249.103 173.141 234.389C170.569 226.714 169.043 218.764 173.141 216.909C174.802 216.158 176.146 216.005 177.677 216.646Z" fill="#F79556"/>
<mask id="mask3_1594_117" style="mask-type:luminance" maskUnits="userSpaceOnUse" x="118" y="210" width="83" height="68">
<path d="M118.765 210.33H200.613V277.332H118.765V210.33Z" fill="white"/>
</mask>
<g mask="url(#mask3_1594_117)">
<path d="M123.929 230.557C126.26 226.048 132.444 218.106 141.777 213.863C149.964 210.14 157.809 209.85 164.423 211.104C184.948 214.992 190.374 228.956 193.291 234.304C194.475 236.474 195.5 238.341 196.469 239.693C197.882 241.649 199.201 243.266 200.504 244.65L200.588 244.73L200.52 244.827C196.372 250.595 192.435 253.039 187.794 254.943L187.697 254.983L187.625 254.91C185.863 253.2 184.211 251.454 182.689 249.695C183.776 252.789 184.472 255.737 183.372 259.041C181.905 263.425 179.569 265.389 176.644 270.37C173.727 275.339 173.158 280.466 172.664 284.959C172.58 285.721 172.521 286.395 172.483 286.988C144.458 282.809 126.42 264.409 119.52 242.81C120.544 238.398 122.024 234.231 123.929 230.557Z" fill="white"/>
</g>
<mask id="mask4_1594_117" style="mask-type:luminance" maskUnits="userSpaceOnUse" x="106" y="220" width="38" height="58">
<path d="M106.451 220.091H143.585V277.332H106.451V220.091Z" fill="white"/>
</mask>
<g mask="url(#mask4_1594_117)">
<path d="M142.325 240.362C143.417 237.321 144.352 232.295 142.325 227.879C140.955 224.902 137.62 220.562 133.401 220.26C127.912 219.864 124.32 225.85 120.088 235.502C111.438 255.217 102.653 278.211 108.554 279.917C112.736 281.131 118.436 277.937 122.01 274.27C123.869 272.358 123.675 271.048 125.851 266.78C128.009 262.553 129.16 261.948 133.401 256.003C138.548 248.792 140.474 245.557 142.325 240.362Z" fill="#F79556"/>
</g>
<path d="M133.562 256.044C138.481 249.143 140.568 245.747 142.469 240.415C143.228 238.289 144.75 232.8 142.465 227.827C141.221 225.112 137.912 220.441 133.414 220.115C133.241 220.103 133.068 220.099 132.896 220.099C127.698 220.099 124.212 225.725 119.945 235.45C118.255 239.301 116.704 242.96 115.334 246.311L115.287 246.408L115.38 246.477C120.649 250.554 126.707 253.793 133.38 256.1L133.494 256.137L133.562 256.044Z" fill="white"/>
<path d="M232.654 218.421C232.274 219.316 232.237 219.933 232.241 220.26C232.253 221.458 232.523 221.809 232.793 222.232C233.779 223.809 234.627 226.443 238.969 227.092C239.803 227.217 241.026 226.173 247.341 226.173C251.282 226.173 253.242 225.62 254.208 225.124C255.692 224.354 256.543 224.035 257.871 222.422C258.461 221.708 260.523 220.26 260.881 219.001C261.045 218.413 260.767 218.062 261.071 217.634C263.95 213.556 262.032 213.427 262.441 212.508C262.533 212.306 262.892 211.152 262.302 210.668C261.876 210.305 261.159 210.507 261.071 210.535C260.388 210.741 260.042 211.31 259.696 211.854C259.368 212.371 258.301 214.19 257.635 214.476C256.126 215.137 253.862 216.444 251.872 215.924C250.363 215.529 245.33 215.565 245.01 214.085C244.917 213.645 247.4 212.286 248.441 211.979C249.271 211.737 250.932 210.677 252.007 208.958C252.42 208.305 252.34 207.627 251.737 207.252C251.603 207.172 251.358 207.063 250.776 207.119C249.908 207.204 249.529 207.522 248.85 207.777C247.32 208.357 246.961 208.49 245.562 209.225C245.191 209.41 241.974 211.29 240.478 211.979C238.353 212.967 237.691 212.923 235.672 214.085C234.302 214.871 233.446 216.549 232.654 218.421Z" fill="#F79556"/>
<path d="M241.026 225.911C242.464 224.926 234.872 217.549 233.063 218.812C232.039 219.538 231.486 221.377 231.006 222.756C228.456 230.089 220.817 237.732 214.945 242.601C211.387 245.553 208.145 248.32 206.295 250.748C201.839 256.592 202.648 260.517 205.473 264.675C205.865 265.252 207.707 267.974 210.548 268.224C210.548 268.224 211.75 268.329 213.023 267.833C219.966 265.111 229.758 247.541 235.951 233.405C237.405 230.073 239.108 227.225 241.026 225.911Z" fill="#F79556"/>
<path d="M251.051 222.599C251.965 222.752 252.939 222.611 253.824 222.284C254.714 221.958 255.515 221.454 256.24 220.889C256.973 220.324 257.623 219.679 258.255 219.054C258.411 218.9 258.571 218.747 258.735 218.606C258.904 218.461 259.073 218.328 259.258 218.215C259.439 218.094 259.633 218.009 259.844 217.957C260.059 217.908 260.287 217.9 260.523 217.892C260.299 217.84 260.067 217.787 259.823 217.791C259.583 217.803 259.338 217.864 259.115 217.957C258.668 218.154 258.284 218.433 257.926 218.715C257.218 219.292 256.56 219.893 255.86 220.441C255.161 220.986 254.431 221.482 253.635 221.865C252.838 222.256 251.97 222.506 251.051 222.599Z" fill="#EC7D40"/>
<path d="M179.696 262.796C180.328 260.856 180.404 260.126 180.615 259.19C180.86 258.138 180.493 255.452 179.325 255.274C178.773 255.193 178.141 255.488 177.833 255.936C177.323 256.686 177.382 257.646 177.335 258.194C176.994 262.607 171.366 264.357 169.912 265.313C167.387 266.967 167.56 268.858 168.795 269.367C174.684 271.774 179.009 264.91 179.696 262.796Z" fill="#EC7D40"/>
<path d="M182.343 249.188C181.837 247.098 181.293 245.037 181.045 242.956C180.914 241.92 180.847 240.879 180.859 239.842C180.863 238.802 180.939 237.773 181.121 236.757C181.289 235.741 181.563 234.748 181.913 233.76C182.263 232.78 182.693 231.804 183.068 230.779C183.262 230.271 183.435 229.751 183.57 229.215C183.705 228.678 183.802 228.134 183.844 227.585C183.877 227.037 183.873 226.48 183.793 225.944C183.722 225.403 183.608 224.875 183.448 224.358C183.477 224.895 183.49 225.431 183.46 225.956C183.431 226.48 183.363 226.996 183.249 227.504C183.034 228.521 182.634 229.481 182.179 230.441C181.732 231.397 181.234 232.365 180.83 233.385C180.623 233.897 180.446 234.422 180.29 234.95C180.13 235.482 180.012 236.023 179.915 236.567C179.822 237.112 179.763 237.66 179.725 238.209C179.696 238.757 179.683 239.306 179.7 239.859C179.738 240.948 179.873 242.037 180.096 243.101C180.324 244.174 180.653 245.211 181.024 246.227C181.411 247.244 181.846 248.228 182.343 249.188Z" fill="#BDB1E5"/>
<path d="M142.219 227.189C143.003 229.533 143.147 231.917 142.902 234.256C142.78 235.426 142.557 236.583 142.253 237.717C142.097 238.285 141.928 238.834 141.73 239.406C141.633 239.697 141.536 239.975 141.435 240.258C141.342 240.548 141.241 240.826 141.136 241.105C141.035 241.387 140.929 241.665 140.82 241.947C140.714 242.226 140.601 242.504 140.487 242.778C140.268 243.335 140.023 243.884 139.779 244.432C139.285 245.525 138.746 246.61 138.202 247.695C137.106 249.865 135.93 252.023 134.897 254.273C135.727 253.338 136.507 252.366 137.258 251.382C138.008 250.389 138.729 249.373 139.403 248.328C140.082 247.284 140.71 246.207 141.279 245.094C141.423 244.819 141.566 244.533 141.697 244.251C141.827 243.968 141.962 243.682 142.08 243.395C142.207 243.113 142.329 242.823 142.447 242.532C142.561 242.242 142.675 241.952 142.78 241.657C143.193 240.483 143.581 239.322 143.863 238.067C143.981 237.45 144.104 236.829 144.163 236.204C144.205 235.893 144.222 235.575 144.243 235.26C144.255 234.946 144.264 234.635 144.268 234.32C144.264 233.058 144.116 231.8 143.787 230.582C143.459 229.371 142.949 228.206 142.219 227.189Z" fill="#BDB1E5"/>
<path d="M154.921 221.901C155.06 223.458 155.558 224.979 156.295 226.411C156.666 227.129 157.143 227.798 157.661 228.443C157.935 228.746 158.205 229.069 158.521 229.343C158.673 229.484 158.82 229.629 158.985 229.77L159.478 230.158C160.148 230.674 160.861 231.15 161.628 231.537C162.404 231.932 163.251 232.198 164.111 232.307C164.975 232.42 165.844 232.416 166.695 232.291C167.538 232.166 168.364 231.928 169.111 231.525L169.073 231.335C167.42 231.109 165.928 230.88 164.507 230.48C163.795 230.279 163.099 230.073 162.404 229.847C161.708 229.621 161.017 229.335 160.389 228.944C159.128 228.177 158.02 227.149 157.13 225.931C156.228 224.729 155.553 223.337 155.119 221.873L154.921 221.901Z" fill="#BDB1E5"/>
<path d="M169.152 189.034C166.285 189.522 169.645 194.91 156.097 208.132C150.519 213.573 159.111 228.637 166.45 227.645C173.249 226.729 170.286 218.84 173.953 215.964C177.111 213.496 179.185 213.944 180.947 211.661C183.877 207.861 182.494 197.988 176.989 193.119C174.607 191.01 172.187 188.517 169.152 189.034Z" fill="#F79556"/>
<path d="M172.693 197.23C172.887 196.835 174.118 194.451 175.884 192.56C176.297 192.927 176.71 193.298 177.115 193.661C182.494 198.412 183.843 208.052 180.981 211.766C179.261 213.993 177.115 213.416 174.156 215.965C174.135 215.981 174.118 216.001 174.093 216.018C170.4 212.815 169.422 203.74 172.693 197.23Z" fill="#EC7D40"/>
<mask id="mask5_1594_117" style="mask-type:luminance" maskUnits="userSpaceOnUse" x="168" y="178" width="38" height="41">
<path d="M168.406 178.007H205.098V218.026H168.406V178.007Z" fill="white"/>
</mask>
<g mask="url(#mask5_1594_117)">
<path d="M176.867 188.461C177.044 188.272 175.568 186.271 173.621 186.045C172.036 185.856 170.737 186.908 170.577 187.042C168.887 188.461 168.781 190.877 168.68 193.188C168.596 195.137 167.883 198.678 170.21 199.113C170.666 199.198 171.5 198.605 171.724 198.742C172.12 198.988 171.677 201.465 171.669 201.634C171.618 204.393 173.178 209.378 176.825 213.037C179.611 215.84 183.793 218.482 185.656 217.921C187.646 217.32 188.506 215.263 189.151 214.698C191.946 212.246 192.161 210.27 192.953 209.636C193.404 209.269 193.826 208.342 194.087 207.551C194.525 206.24 196.722 207.547 197.249 207.6C197.986 207.684 198.749 207.757 199.188 206.712C199.681 205.51 197.539 199.194 200.769 196.141C203.724 193.342 205.342 186.796 204.314 181.964C203.353 177.474 200.604 171.033 187.713 166.435C178.03 162.983 170.299 171.86 170.227 176.39C170.118 183.307 176.449 188.921 176.867 188.461Z" fill="#F79556"/>
</g>
<mask id="mask6_1594_117" style="mask-type:luminance" maskUnits="userSpaceOnUse" x="156" y="178" width="51" height="22">
<path d="M156.591 178.007H206.73V199.795H156.591V178.007Z" fill="white"/>
</mask>
<g mask="url(#mask6_1594_117)">
<path d="M188.237 187.183C188.178 187.103 188.115 187.018 188.051 186.929C188.051 186.929 188.047 186.921 188.047 186.917C187.98 186.966 187.916 187.014 187.853 187.066C187.984 187.103 188.115 187.143 188.237 187.183ZM185.349 189.841C185.349 189.841 185.345 189.841 185.337 189.845C185.349 189.845 185.353 189.841 185.349 189.841ZM185.273 189.946V189.942C185.265 189.95 185.265 189.954 185.273 189.946ZM184.721 191.342C184.721 191.346 184.721 191.346 184.721 191.346L184.725 191.362V191.358C184.725 191.346 184.717 191.334 184.721 191.342ZM182.689 194.363C182.677 194.359 182.689 194.379 182.706 194.419C182.702 194.391 182.698 194.367 182.689 194.363ZM160.368 174.716C165.195 167.654 172.007 164.762 175.059 164.076C181.167 162.697 185.353 163.024 188.65 164.863C190.783 166.057 192.086 167.15 193.043 167.888C197.182 171.058 198.514 170.683 201.14 172.748C204.698 175.539 207.274 181.613 205.807 183.787C204.037 186.421 199.248 181.291 191.285 184.969C190.336 185.409 189.649 185.796 189.008 186.227L189.586 186.788C189.691 186.889 189.797 187.002 189.906 187.127C189.961 187.195 190.02 187.264 190.079 187.353C190.134 187.433 190.201 187.538 190.248 187.708C190.277 187.792 190.298 187.905 190.286 188.046C190.277 188.188 190.214 188.369 190.104 188.502C189.995 188.643 189.868 188.724 189.742 188.781C189.691 188.801 189.636 188.821 189.586 188.837C189.527 188.853 189.497 188.857 189.451 188.865C189.131 188.914 188.966 188.881 188.785 188.861C188.435 188.817 188.153 188.748 187.866 188.688C187.583 188.623 187.318 188.563 187.057 188.518C186.93 188.49 186.795 188.47 186.677 188.458C186.766 188.684 186.892 188.954 186.997 189.297C187.048 189.47 187.09 189.68 187.103 189.918C187.09 190.051 187.094 190.172 187.057 190.321C187.023 190.466 186.976 190.612 186.892 190.749C186.745 191.027 186.475 191.249 186.226 191.378C185.969 191.515 185.75 191.556 185.552 191.596C185.282 191.636 185.041 191.656 184.86 191.668C184.869 191.685 184.877 191.697 184.881 191.709C184.953 191.874 185.033 192.1 185.05 192.366C185.071 192.64 185.02 192.923 184.894 193.165C184.843 193.294 184.751 193.399 184.675 193.508C184.59 193.592 184.493 193.693 184.401 193.758C184.308 193.826 184.215 193.895 184.127 193.939C184.034 193.992 183.95 194.028 183.865 194.064C183.537 194.213 183.25 194.29 183.031 194.371C182.904 194.411 182.807 194.464 182.752 194.492C182.761 194.496 182.761 194.5 182.769 194.508C182.904 194.677 183.123 194.883 183.322 195.129C183.528 195.379 183.735 195.678 183.84 196.037C183.945 196.391 183.933 196.763 183.849 197.089C183.667 197.739 183.279 198.215 182.871 198.63C182.453 199.041 181.994 199.388 181.509 199.695C181.85 199.247 182.192 198.803 182.457 198.336C182.727 197.876 182.946 197.384 182.959 196.948C182.967 196.73 182.925 196.541 182.837 196.379C182.748 196.214 182.618 196.065 182.432 195.907C182.247 195.746 182.036 195.597 181.783 195.363C181.656 195.242 181.509 195.093 181.382 194.831C181.361 194.754 181.332 194.693 181.315 194.609C181.302 194.528 181.294 194.439 181.294 194.355C181.302 194.27 181.315 194.189 181.336 194.105C181.353 194.024 181.382 193.967 181.412 193.899C181.471 193.762 181.555 193.661 181.64 193.556C181.724 193.475 181.821 193.375 181.905 193.318L182.036 193.225L182.162 193.153C182.247 193.1 182.322 193.068 182.403 193.028C182.702 192.887 182.959 192.79 183.14 192.685C183.326 192.584 183.389 192.495 183.355 192.503C183.355 192.503 183.351 192.507 183.347 192.507C183.343 192.503 183.334 192.459 183.284 192.374C183.241 192.29 183.17 192.173 183.085 191.971L183.056 191.894L183.022 191.802C183.001 191.741 182.984 191.664 182.976 191.584C182.946 191.426 182.955 191.225 183.001 191.039C183.031 190.951 183.064 190.862 183.107 190.777C183.157 190.7 183.208 190.624 183.267 190.547C183.385 190.41 183.537 190.285 183.676 190.216C183.958 190.059 184.198 190.015 184.384 189.978C184.763 189.922 185.029 189.918 185.214 189.878C185.235 189.878 185.248 189.874 185.261 189.866C185.256 189.837 185.252 189.797 185.24 189.757C185.202 189.615 185.13 189.438 185.046 189.228C185.008 189.256 184.978 189.281 184.94 189.305C178.149 194.363 167.535 197.182 161.194 192.459C158.863 190.729 158.007 188.426 157.763 187.728C155.803 182.23 158.378 177.64 160.368 174.716Z" fill="#0D1114"/>
</g>
<path d="M155.204 190.119C155.174 190.103 155.149 190.086 155.124 190.074C154.938 189.974 154.757 189.865 154.576 189.78C154.213 189.598 153.838 189.445 153.56 189.393C153.501 189.373 153.458 189.373 153.412 189.365C153.408 189.401 153.399 189.441 153.395 189.486C153.378 189.635 153.387 189.82 153.395 190.014C153.404 190.212 153.425 190.417 153.446 190.635C154.049 190.433 154.635 190.26 155.204 190.119ZM153.442 189.272C153.45 189.256 153.463 189.239 153.458 189.235C153.458 189.235 153.45 189.248 153.442 189.272ZM149.428 192.18C149.251 192.039 149.087 191.906 148.918 191.789C148.754 191.668 148.594 191.563 148.45 191.49C148.413 191.47 148.379 191.458 148.345 191.446C148.32 191.53 148.303 191.655 148.294 191.789C148.273 191.982 148.265 192.204 148.248 192.442C148.24 192.587 148.227 192.744 148.202 192.906C148.632 192.684 149.07 192.462 149.517 192.248C149.487 192.228 149.458 192.204 149.428 192.18ZM148.379 191.333C148.379 191.333 148.383 191.333 148.383 191.329C148.408 191.301 148.396 191.296 148.379 191.333ZM146.743 193.019H146.739C146.743 193.019 146.752 193.019 146.756 193.019C146.777 193.019 146.764 193.015 146.743 193.019ZM144.269 193.031C144.1 192.914 143.923 192.801 143.78 192.736C143.754 192.724 143.733 192.716 143.716 192.712C143.712 192.744 143.708 192.781 143.708 192.821C143.695 192.99 143.721 193.2 143.746 193.41C143.792 193.842 143.872 194.289 143.894 194.781C143.898 194.999 143.894 195.221 143.847 195.467C144.471 195.043 145.188 194.596 145.968 194.136C145.757 194.047 145.58 193.942 145.411 193.837C144.985 193.563 144.623 193.277 144.269 193.031ZM143.746 192.599C143.742 192.599 143.742 192.611 143.733 192.615C143.742 192.607 143.746 192.599 143.746 192.599ZM122.234 220.76C122.58 219.768 126.703 221.333 129.346 219.518C131.664 217.925 130.699 215.214 131.871 210.774C133.755 203.586 139.341 199.016 142.313 196.588C142.304 196.588 142.292 196.588 142.283 196.588C141.997 196.544 141.752 196.459 141.524 196.374C141.073 196.209 140.664 196.024 140.264 195.923C139.859 195.822 139.484 195.81 139.172 195.975C139.016 196.052 138.89 196.169 138.793 196.31C138.692 196.455 138.624 196.649 138.557 196.846C138.439 197.25 138.359 197.71 138.16 198.157C138.072 198.383 137.933 198.593 137.785 198.794C137.697 198.883 137.617 198.98 137.524 199.061L137.381 199.186C137.334 199.226 137.288 199.262 137.233 199.295C137.026 199.448 136.79 199.553 136.55 199.629C136.306 199.706 136.057 199.734 135.817 199.754C135.332 199.775 134.881 199.754 134.425 199.791C133.983 199.831 133.528 199.928 133.11 200.077C132.71 200.242 132.377 200.553 132.094 200.9C131.808 201.243 131.559 201.618 131.306 201.993L130.56 203.118L131.239 201.953C131.475 201.569 131.698 201.178 131.968 200.811C132.242 200.444 132.566 200.085 133.018 199.875C133.46 199.686 133.92 199.565 134.392 199.496C134.86 199.432 135.336 199.428 135.783 199.383C136.002 199.355 136.217 199.323 136.411 199.246C136.605 199.17 136.79 199.077 136.951 198.944C136.997 198.915 137.035 198.879 137.069 198.843L137.182 198.738C137.254 198.669 137.309 198.581 137.376 198.504C137.486 198.339 137.587 198.161 137.655 197.968C137.802 197.584 137.857 197.157 137.958 196.697C138.021 196.471 138.085 196.229 138.228 195.991C138.367 195.757 138.578 195.54 138.826 195.398C139.067 195.249 139.353 195.173 139.632 195.148C139.914 195.12 140.188 195.152 140.433 195.205C140.943 195.306 141.389 195.483 141.811 195.608C142.022 195.673 142.22 195.729 142.393 195.741C142.477 195.745 142.549 195.741 142.608 195.733C142.667 195.721 142.701 195.701 142.734 195.673C142.797 195.62 142.852 195.527 142.882 195.374C142.907 195.221 142.907 195.035 142.89 194.838C142.852 194.438 142.755 194.015 142.675 193.555C142.637 193.329 142.595 193.095 142.591 192.821C142.582 192.688 142.591 192.539 142.633 192.357C142.641 192.313 142.65 192.273 142.671 192.22C142.688 192.172 142.705 192.127 142.738 192.071C142.793 191.97 142.882 191.861 142.991 191.772C143.042 191.732 143.101 191.692 143.168 191.664C143.227 191.631 143.295 191.607 143.358 191.591C143.426 191.579 143.493 191.563 143.548 191.563C143.611 191.559 143.674 191.555 143.725 191.559C143.94 191.579 144.108 191.627 144.248 191.684C144.534 191.797 144.749 191.926 144.964 192.051C145.377 192.309 145.753 192.571 146.111 192.769C146.288 192.869 146.469 192.954 146.608 192.995C146.638 193.007 146.667 193.007 146.697 193.019C146.701 193.019 146.705 193.019 146.718 193.019C146.722 192.999 146.735 192.958 146.743 192.906C146.773 192.781 146.781 192.587 146.781 192.385C146.79 192.176 146.781 191.958 146.79 191.704C146.798 191.458 146.811 191.188 146.92 190.845C146.983 190.675 147.085 190.466 147.27 190.28C147.46 190.091 147.734 189.953 147.995 189.913C148.025 189.905 148.058 189.897 148.092 189.893L148.181 189.889C148.244 189.885 148.311 189.881 148.366 189.885C148.467 189.893 148.581 189.909 148.67 189.929C148.859 189.974 149.011 190.03 149.154 190.091C149.433 190.216 149.66 190.353 149.88 190.49C150.09 190.627 150.288 190.764 150.482 190.901C150.752 191.095 151.013 191.288 151.271 191.462C151.368 191.422 151.469 191.381 151.57 191.341C151.511 190.982 151.439 190.599 151.393 190.179C151.363 189.929 151.347 189.671 151.355 189.377C151.368 189.078 151.401 188.735 151.604 188.336C151.709 188.13 151.865 187.921 152.076 187.743C152.181 187.666 152.295 187.59 152.417 187.529C152.472 187.501 152.531 187.481 152.59 187.457C152.649 187.433 152.712 187.408 152.767 187.396C152.877 187.368 152.999 187.34 153.1 187.328C153.201 187.32 153.303 187.316 153.404 187.312C153.585 187.316 153.77 187.32 153.926 187.348C154.563 187.449 155.056 187.642 155.533 187.844C156.013 188.046 156.447 188.271 156.877 188.505C157.666 188.937 158.412 189.409 159.141 189.889C159.352 189.941 159.55 190.01 159.735 190.091C163.74 191.873 162.147 200.585 161.653 203.505C160.625 209.588 159.246 217.751 151.524 222.954C141.571 229.654 129.527 225.766 125.189 223.43C123.79 222.676 121.998 221.442 122.234 220.76Z" fill="#0D1114"/>
<mask id="mask7_1594_117" style="mask-type:luminance" maskUnits="userSpaceOnUse" x="106" y="264" width="66" height="14">
<path d="M106.451 264.489H171.264V277.331H106.451V264.489Z" fill="white"/>
</mask>
<g mask="url(#mask7_1594_117)">
<path d="M114.595 267.042C115.198 266.691 118.448 264.614 122.967 264.674C126.892 264.731 130.542 265.642 133.127 266.78C134.564 267.409 148.846 272.628 162.918 269.538C164.254 269.244 166.758 267.699 168.271 268.486C170.109 269.446 171.294 272.116 171.016 274.269C170.581 277.662 166.83 278.771 166.075 278.997C162.846 279.985 160.443 279.815 152.484 280.445C150.941 280.566 150.199 280.691 148.092 280.969C148.092 280.969 124.999 284.042 109.242 279.787C108.828 279.674 107.888 279.408 107.319 278.605C105.41 275.903 109.14 270.188 114.595 267.042Z" fill="#F79556"/>
</g>
<mask id="mask8_1594_117" style="mask-type:luminance" maskUnits="userSpaceOnUse" x="162" y="260" width="34" height="18">
<path d="M162.702 260.666H195.385V277.332H162.702V260.666Z" fill="white"/>
</mask>
<g mask="url(#mask8_1594_117)">
<path d="M166.074 269.2C167.84 266.986 168.924 265.655 170.926 264.417C172.191 263.634 173.291 263.259 175.492 262.505C179.711 261.061 182.544 260.896 183.197 260.867C183.809 260.835 183.383 260.88 185.478 260.867C186.144 260.863 190.996 260.823 193.327 261.686C193.606 261.791 194.044 261.981 194.183 262.368C194.352 262.836 193.993 263.328 193.896 263.461C193.53 263.973 192.986 264.159 192.611 264.28C191.843 264.534 191.177 264.493 191.043 264.485C189.289 264.376 187.109 264.243 185.621 264.28C183.577 264.332 182.409 264.59 180.769 265.098C180.453 265.199 180.04 265.449 180.057 265.51C180.2 265.921 182.485 265.349 185.048 265.098C189.129 264.707 194.221 264.881 194.756 265.647C195.039 266.058 195.182 266.74 194.756 267.151C194.356 267.531 193.209 268.019 193.184 268.107C193.142 268.253 194.04 268.244 194.326 268.652C194.613 269.063 194.74 269.826 194.183 270.293C193.901 270.527 193.597 270.802 190.473 271.249C187.784 271.628 186.435 271.818 185.335 271.931C183.661 272.092 182.371 272.161 180.769 272.887C180.344 273.076 179.728 273.359 179.77 273.564C179.855 273.936 181.6 273.726 183.627 273.298C185.419 272.915 185.883 272.77 187.763 272.479C188.269 272.395 190.617 272.068 191.19 272.75C191.422 273.028 191.35 273.907 190.76 274.254C187.906 275.888 183.906 275.799 181.912 276.706C180.656 277.287 176.065 279.986 169.358 278.485C167.503 278.07 167.09 278.82 165.787 278.348C164.666 277.941 163.191 276.936 162.794 275.48C162.352 273.859 163.591 272.306 166.074 269.2Z" fill="#F79556"/>
</g>
<path d="M94.1121 269.374L82.9368 212.939C82.7892 212.189 82.1021 211.645 81.3054 211.645H27.4059C26.6092 211.645 25.9221 212.189 25.7703 212.939L14.5992 269.374C14.4011 270.35 15.1894 271.262 16.2306 271.262H92.4764C93.5177 271.262 94.306 270.35 94.1121 269.374Z" fill="white"/>
<path d="M57.4927 286.714C56.8056 280.498 60.9536 274.706 62.1593 273.174C62.29 273.008 62.1677 272.778 61.9527 272.778H46.76C46.545 272.778 46.4228 273.008 46.5535 273.174C47.7549 274.706 51.9072 280.498 51.22 286.714C49.8247 299.261 38.8391 310.381 38.8391 320.541C38.8391 325.272 41.4654 332.657 42.3 335.19C42.4392 335.606 42.8396 335.884 43.2949 335.884H65.4179C65.8689 335.884 66.2736 335.606 66.4085 335.19C67.2474 332.657 69.8736 325.272 69.8736 320.541C69.8736 310.381 58.888 299.261 57.4927 286.714Z" fill="#0D1114"/>
<path d="M94.0397 316.665C92.0457 321.114 87.8724 324.167 84.7866 325.672C85.8447 320.9 86.6963 315.052 87.0377 308.917C87.8892 308.494 89.0569 308.215 90.6673 308.49C92.1764 308.748 93.2809 309.478 93.9385 310.655C95.0092 312.551 94.7394 315.096 94.0397 316.665ZM96.4552 309.357C95.376 307.437 93.5507 306.207 91.1731 305.795C89.5839 305.521 88.2476 305.646 87.1558 305.944C87.1937 304.601 87.2021 303.254 87.181 301.907C87.1726 301.701 87.004 301.54 86.789 301.54L57.5587 301.544C57.3437 301.544 57.1709 301.705 57.1667 301.907C56.9475 316.189 60.0754 330.552 62.7269 335.485C62.8534 335.727 63.119 335.884 63.4056 335.884H80.9505C81.2372 335.884 81.4985 335.727 81.6334 335.481C82.4091 334.041 83.2227 331.794 83.9857 328.979C87.6658 327.704 93.8753 323.986 96.6659 317.738C97.6608 315.516 97.9812 312.063 96.4552 309.357Z" fill="white"/>
<defs>
<linearGradient id="paint0_linear_1594_117" x1="433.893" y1="524.158" x2="435.231" y2="524.158" gradientUnits="userSpaceOnUse">
<stop stop-color="#FFBC50"/>
<stop offset="0.25" stop-color="#FFBC50"/>
<stop offset="0.375" stop-color="#FFBC50"/>
<stop offset="0.390625" stop-color="#FFBC51"/>
<stop offset="0.394531" stop-color="#FFBD52"/>
<stop offset="0.398438" stop-color="#FFBE52"/>
<stop offset="0.40625" stop-color="#FFBE53"/>
<stop offset="0.414062" stop-color="#FFBE53"/>
<stop offset="0.417969" stop-color="#FFBF54"/>
<stop offset="0.421875" stop-color="#FFC055"/>
<stop offset="0.4375" stop-color="#FFC055"/>
<stop offset="0.441406" stop-color="#FFC256"/>
<stop offset="0.445312" stop-color="#FFC257"/>
<stop offset="0.449219" stop-color="#FFC257"/>
<stop offset="0.453125" stop-color="#FFC258"/>
<stop offset="0.457031" stop-color="#FFC358"/>
<stop offset="0.460938" stop-color="#FFC359"/>
<stop offset="0.464844" stop-color="#FFC459"/>
<stop offset="0.46875" stop-color="#FFC459"/>
<stop offset="0.476562" stop-color="#FFC459"/>
<stop offset="0.480469" stop-color="#FFC55B"/>
<stop offset="0.484375" stop-color="#FFC55B"/>
<stop offset="0.488281" stop-color="#FFC65C"/>
<stop offset="0.492188" stop-color="#FFC65C"/>
<stop offset="0.5" stop-color="#FFC65D"/>
<stop offset="0.507812" stop-color="#FFC65D"/>
<stop offset="0.515625" stop-color="#FFC75E"/>
<stop offset="0.519531" stop-color="#FFC75F"/>
<stop offset="0.523438" stop-color="#FFC85F"/>
<stop offset="0.53125" stop-color="#FFC860"/>
<stop offset="0.539062" stop-color="#FFC960"/>
<stop offset="0.542969" stop-color="#FFC961"/>
<stop offset="0.546875" stop-color="#FFCA61"/>
<stop offset="0.554688" stop-color="#FFCA61"/>
<stop offset="0.558594" stop-color="#FFCB62"/>
<stop offset="0.5625" stop-color="#FFCB63"/>
<stop offset="0.566406" stop-color="#FFCC63"/>
<stop offset="0.570312" stop-color="#FFCC64"/>
<stop offset="0.574219" stop-color="#FFCD65"/>
<stop offset="0.578125" stop-color="#FFCD65"/>
<stop offset="0.585938" stop-color="#FFCD66"/>
<stop offset="0.589844" stop-color="#FFCE66"/>
<stop offset="0.59375" stop-color="#FFCE66"/>
<stop offset="0.601562" stop-color="#FFCF66"/>
<stop offset="0.605469" stop-color="#FFCF68"/>
<stop offset="0.609375" stop-color="#FFCF68"/>
<stop offset="0.613281" stop-color="#FFD069"/>
<stop offset="0.617188" stop-color="#FFD069"/>
<stop offset="0.625" stop-color="#FFD16A"/>
<stop offset="0.632812" stop-color="#FFD16A"/>
<stop offset="0.636719" stop-color="#FFD26B"/>
<stop offset="0.640625" stop-color="#FFD26B"/>
<stop offset="0.644531" stop-color="#FFD26C"/>
<stop offset="0.648438" stop-color="#FFD26C"/>
<stop offset="0.65625" stop-color="#FFD36D"/>
<stop offset="0.664062" stop-color="#FFD36D"/>
<stop offset="0.671875" stop-color="#FFD46D"/>
<stop offset="0.675781" stop-color="#FFD46E"/>
<stop offset="0.679688" stop-color="#FFD56F"/>
<stop offset="0.683594" stop-color="#FFD56F"/>
<stop offset="0.6875" stop-color="#FFD670"/>
<stop offset="0.691406" stop-color="#FFD670"/>
<stop offset="0.695312" stop-color="#FFD671"/>
<stop offset="0.703125" stop-color="#FFD671"/>
<stop offset="0.707031" stop-color="#FFD772"/>
<stop offset="0.710938" stop-color="#FFD772"/>
<stop offset="0.71875" stop-color="#FFD873"/>
<stop offset="0.722656" stop-color="#FFD974"/>
<stop offset="0.726562" stop-color="#FFD974"/>
<stop offset="0.730469" stop-color="#FFD975"/>
<stop offset="0.734375" stop-color="#FFD975"/>
<stop offset="0.738281" stop-color="#FFDA75"/>
<stop offset="0.742188" stop-color="#FFDA75"/>
<stop offset="0.746094" stop-color="#FFDB76"/>
<stop offset="0.75" stop-color="#FFDB76"/>
<stop offset="0.753906" stop-color="#FFDB77"/>
<stop offset="0.757812" stop-color="#FFDB77"/>
<stop offset="0.765625" stop-color="#FFDC78"/>
<stop offset="0.773438" stop-color="#FFDC78"/>
<stop offset="0.777344" stop-color="#FFDD79"/>
<stop offset="0.78125" stop-color="#FFDD79"/>
<stop offset="0.789062" stop-color="#FFDE7A"/>
<stop offset="0.796875" stop-color="#FFDE7A"/>
<stop offset="0.804688" stop-color="#FFDF7B"/>
<stop offset="0.8125" stop-color="#FFE07C"/>
<stop offset="0.816406" stop-color="#FFE07D"/>
<stop offset="0.820312" stop-color="#FFE07D"/>
<stop offset="0.828125" stop-color="#FFE07E"/>
<stop offset="0.835938" stop-color="#FFE17F"/>
<stop offset="0.84375" stop-color="#FFE17F"/>
<stop offset="0.847656" stop-color="#FFE280"/>
<stop offset="0.851562" stop-color="#FFE380"/>
<stop offset="0.855469" stop-color="#FFE381"/>
<stop offset="0.859375" stop-color="#FFE381"/>
<stop offset="0.875" stop-color="#FFE482"/>
<stop offset="0.878906" stop-color="#FFE583"/>
<stop offset="0.882812" stop-color="#FFE583"/>
<stop offset="0.890625" stop-color="#FFE684"/>
<stop offset="0.898438" stop-color="#FFE684"/>
<stop offset="0.90625" stop-color="#FFE785"/>
<stop offset="0.914062" stop-color="#FFE786"/>
<stop offset="0.921875" stop-color="#FFE886"/>
<stop offset="0.929688" stop-color="#FFE887"/>
<stop offset="0.9375" stop-color="#FFE987"/>
<stop offset="1" stop-color="#FFE988"/>
</linearGradient>
</defs>
</svg>
