<svg width="321" height="325" viewBox="0 0 321 325" fill="none" xmlns="http://www.w3.org/2000/svg">
<path d="M195.431 303.914C195.431 306.07 194.515 307.545 192.881 308.431C184.649 312.897 158.178 302.552 138.593 290.876C115.121 276.881 115.755 293.384 86.3144 304.456C73.2881 309.354 64.7177 309.981 59.7575 308.564C56.8688 307.74 55.2033 306.225 54.593 304.456C50.7862 293.384 76.1639 294.133 90.1186 285.575C95.3607 282.357 93.5995 277.348 89.3583 272.346C82.3085 264.031 68.3978 255.739 68.3978 255.739C68.3978 255.739 170.304 253.874 174.496 255.739C178.474 257.501 157.702 268.019 152.912 276.458C152.659 276.899 152.452 277.335 152.292 277.765C149.118 286.383 195.431 290.876 195.431 303.914Z" fill="#665C59"/>
<path d="M192.878 308.431C184.649 312.897 158.177 302.551 138.59 290.875C115.121 276.881 115.755 293.384 86.3142 304.456C73.2879 309.354 64.7175 309.981 59.7573 308.563C70.6035 305.326 82.9549 300.189 90.3796 293.384C104.971 280.012 103.701 273.887 117.661 277.764C131.618 281.639 144.936 289.372 155.723 293.384C164.563 296.668 185.585 305.39 192.878 308.431Z" fill="#49413F"/>
<path d="M152.912 276.458C136.568 277.534 111.136 275.238 89.3585 272.346C82.3087 264.031 68.3979 255.739 68.3979 255.739C68.3979 255.739 170.302 253.874 174.494 255.739C178.474 257.501 157.702 268.019 152.912 276.458Z" fill="#49413F"/>
<path d="M241.766 240.386C230.519 251.259 206.3 261.637 160.164 267.627C42.6555 282.884 15.1158 218.617 20.526 178.277C20.5519 178.106 20.57 177.94 20.5958 177.772C26.306 137.462 -3.24049 121.258 0.294738 83.8957C2.83431 57.0581 55.4878 45.8691 91.6496 53.1831C127.811 60.4925 137.962 137.677 150.647 161.207C163.332 184.738 224.77 197.105 233.752 200.692C245.343 205.327 259.282 223.456 241.766 240.386Z" fill="#7485CE"/>
<path d="M45.6061 107.886C45.6061 107.886 9.57105 225.905 146.206 235.462C146.206 235.462 193.15 241.438 203.303 232.747C204.081 232.079 204.311 231.467 204.376 230.892C207.632 203.244 173.909 224.06 147.593 209.991C144.766 208.478 191.976 208.824 181.414 196.756C160.127 172.429 110.14 142.336 100.848 98.5638C97.0415 80.6366 47.15 82.0826 45.6061 107.886Z" fill="#5D73BA"/>
<path d="M241.766 240.386C230.519 251.258 206.3 261.637 160.161 267.629C42.6553 282.883 15.1157 218.617 20.5258 178.276C28.442 206.183 55.4204 251.814 95.7717 257.906C160.161 267.629 185.487 252.919 241.766 240.386Z" fill="#5D73BA"/>
<path d="M157.179 200.653L152.889 200.914L148.48 201.182L137.809 201.833L134.083 202.061L127.633 202.455L123.661 202.697L113.326 203.33L109.427 203.565L102.775 203.972L98.2855 204.247L90.434 204.725L86.7411 204.949L70.945 205.912L66.1633 206.202L58.8083 206.652L53.0542 137.521C54.3628 137.85 55.7179 138.18 57.1144 138.506C61.1074 139.434 65.4391 140.339 70.0787 141.161C71.3407 141.387 72.6182 141.606 73.9242 141.816C75.2897 142.033 76.6836 142.248 78.1008 142.452C79.4508 142.647 80.8188 142.835 82.2153 143.01C86.0402 143.499 90.0358 143.913 94.1813 144.239C95.5106 144.345 96.8554 144.44 98.2157 144.527C99.5863 144.613 100.975 144.688 102.382 144.752C103.352 144.797 104.311 144.834 105.26 144.868C106.587 144.916 107.901 144.95 109.196 144.969C111.935 145.027 114.617 145.031 117.226 144.998C118.543 144.981 119.841 144.954 121.121 144.921C123.342 144.857 125.507 144.761 127.623 144.646C128.947 144.578 130.247 144.496 131.528 144.407C136.371 144.068 140.902 143.614 145.1 143.092C146.243 142.95 147.357 142.799 148.449 142.651C148.759 144.706 149.067 146.756 149.374 148.811C150.998 159.604 152.623 170.392 154.249 181.187C155.224 187.675 156.202 194.165 157.179 200.653Z" fill="#F8FEFF"/>
<path d="M157.179 200.653L152.889 200.914L148.48 201.182L137.809 201.833L134.083 202.061L127.633 202.455L123.661 202.697L113.326 203.33L109.427 203.565L102.775 203.972L98.2855 204.247L90.434 204.725L86.7411 204.949L70.945 205.912L66.1633 206.202L58.8083 206.652L53.0542 137.521C54.3628 137.85 55.7179 138.18 57.1144 138.506C55.3326 153.519 56.7472 178.187 75.4837 180.233C101.891 183.118 122.251 187.781 134.902 185.049C140.067 183.937 147.388 182.498 154.249 181.187C155.224 187.675 156.202 194.165 157.179 200.653Z" fill="#E4EEEF"/>
<path d="M75.484 180.232C74.9279 188.502 73.6039 196.72 71.2789 204.767C71.1677 205.147 71.0591 205.528 70.9427 205.909L66.1636 206.201C67.348 202.69 68.3126 199.127 69.0833 195.535C72.6496 178.77 72.3289 161.605 70.5083 144.696C70.3841 143.543 70.2393 142.363 70.079 141.16C71.3384 141.386 72.6185 141.605 73.9245 141.816C74.4443 146.187 74.9848 150.558 75.2926 154.947C75.8874 163.361 76.0477 171.813 75.484 180.232Z" fill="#EF6C52"/>
<path d="M82.2127 143.009C83.498 163.664 85.0936 184.565 90.434 204.722L86.7384 204.946C86.4384 203.828 86.1487 202.707 85.8694 201.58C81.9541 185.777 80.0946 169.698 78.8843 153.598C78.6024 149.885 78.3438 146.169 78.0981 142.451C79.4481 142.644 80.8187 142.832 82.2127 143.009Z" fill="#EF6C52"/>
<path d="M102.775 203.97L98.2855 204.244C98.42 202.034 98.4846 199.811 98.4898 197.59C98.5105 181.133 95.4744 164.82 94.4503 148.408C94.3649 147.079 94.2692 145.68 94.1787 144.238C95.5106 144.345 96.8554 144.44 98.2157 144.524C98.3915 157.4 100.711 170.343 101.891 183.117C102.529 190.044 102.946 197.019 102.775 203.97Z" fill="#EF6C52"/>
<path d="M112.941 198.677C113.07 200.219 113.194 201.769 113.326 203.327L109.424 203.562C109.191 200.965 108.989 198.37 108.77 195.774C108.02 186.744 107.314 177.714 106.69 168.68C106.145 160.744 105.659 152.808 105.26 144.867C106.584 144.916 107.901 144.949 109.196 144.971C109.225 145.651 109.258 146.331 109.295 147.013C110.179 164.251 111.475 181.468 112.941 198.677Z" fill="#EF6C52"/>
<path d="M127.633 202.453L123.661 202.694C122.246 187.69 120.025 172.745 118.406 157.754C117.951 153.507 117.547 149.251 117.227 144.995C118.54 144.978 119.841 144.951 121.121 144.918C122.386 162.559 125.181 180.086 127.126 197.67C127.307 199.264 127.475 200.861 127.633 202.453Z" fill="#EF6C52"/>
<path d="M134.903 185.048C135.72 190.661 136.692 196.259 137.807 201.833L134.08 202.061C131.161 187.617 129.195 173.033 128.197 158.397C127.886 153.815 127.768 149.229 127.62 144.646C128.947 144.575 130.248 144.493 131.528 144.404C131.701 149.209 131.797 154.017 132.117 158.817C132.702 167.582 133.625 176.335 134.903 185.048Z" fill="#EF6C52"/>
<path d="M152.886 200.912L148.477 201.182C148.467 183.288 145.273 165.522 145.081 147.628C145.066 146.118 145.071 144.601 145.097 143.091C146.243 142.95 147.357 142.799 148.446 142.648C148.756 144.706 149.067 146.756 149.372 148.811C149.418 166.138 152.444 183.618 152.886 200.912Z" fill="#EF6C52"/>
<path d="M104.443 176.433C104.443 176.433 185.849 147.182 208.379 147.804C230.912 148.426 238.179 155.846 232.366 169.356C226.552 182.868 175.189 196.561 155.806 199.048C136.426 201.539 83.1229 199.871 104.443 176.433Z" fill="#2C8475"/>
<path d="M242.532 262.496C242.4 263.275 239.767 292.411 242.532 297.571C245.293 302.728 264.167 311.669 270.994 313.731C270.994 313.731 237.664 313.388 232.042 313.731C226.42 314.076 218.256 312.929 218.256 309.147C218.256 305.365 224.01 299.978 224.01 295.164C224.01 290.348 212.367 237.738 214.775 233.61C217.185 229.485 247.396 233.267 242.532 262.496Z" fill="#FF998C"/>
<mask id="mask0_1833_107" style="mask-type:luminance" maskUnits="userSpaceOnUse" x="217" y="304" width="67" height="21">
<path d="M217.19 304.427H283.894V325H217.19V304.427Z" fill="white"/>
</mask>
<g mask="url(#mask0_1833_107)">
<path d="M252.121 305.928C252.121 305.928 249.786 310.729 253.2 316.574C253.2 316.574 229.234 310.915 225.619 308.164C222.006 305.412 220.801 304.526 220.801 304.526C220.801 304.526 219.197 303.525 217.534 307.936C216.953 309.484 216.779 312.33 220.017 313.791C226.082 316.526 241.017 320.27 248.307 322.263C257.744 324.843 281.339 326.847 283.444 322.263C286.256 316.14 275.146 315.509 269.122 312.93C263.097 310.35 252.121 305.928 252.121 305.928Z" fill="#351234"/>
</g>
<path d="M252.121 303.76C252.121 303.76 245.296 305.135 248.71 310.981C248.71 310.981 250.14 317.319 230.99 307.649C224.612 304.429 223.451 300.297 222.422 299.447C222.174 299.241 221.786 299.243 221.54 299.453C220.976 299.938 218.757 304.345 217.695 307.161C217.113 308.707 218.039 310.379 219.802 310.975C226.174 313.133 241.016 318.102 248.307 320.093C257.743 322.673 280.633 324.393 283.444 320.093C286.255 315.795 273.203 313.904 267.18 311.327C261.157 308.747 252.121 303.76 252.121 303.76Z" fill="#E6D3DE"/>
<path d="M257.105 313.532C258.954 312.332 260.57 310.892 261.907 309.269C262.372 308.702 263.472 309.245 263.001 309.816C261.529 311.603 259.779 313.146 257.743 314.466C257.094 314.889 256.463 313.948 257.105 313.532Z" fill="#D1C0CA"/>
<path d="M262.626 312.947C263.267 312.026 264.035 311.183 264.923 310.423C265.499 309.929 266.394 310.695 265.817 311.189C265.003 311.887 264.31 312.648 263.72 313.494C263.301 314.092 262.204 313.548 262.626 312.947Z" fill="#D1C0CA"/>
<path d="M256.9 309.916C257.624 309.219 258.346 308.521 259.07 307.824C259.613 307.301 260.505 308.07 259.965 308.59C259.243 309.288 258.519 309.985 257.795 310.683C257.255 311.205 256.36 310.437 256.9 309.916Z" fill="#D1C0CA"/>
<path d="M122.696 218.942C144.349 221.717 159.421 220.174 180.366 214.945C189.713 212.603 199.048 210.123 208.444 208.057C214.237 206.784 220.094 205.315 225.078 202.474C225.127 202.448 225.166 202.421 225.215 202.397C234.856 196.797 247.236 181.374 232.001 176.432C229.203 175.522 222.3 174.999 213.564 174.705C213.536 174.705 213.505 174.705 213.505 174.705C208.198 174.527 202.201 174.434 196.046 174.375C174.302 174.173 150.6 174.51 147.763 173.633C147.587 173.573 147.409 173.513 147.223 173.438C142.337 171.465 135.758 163.066 127.702 163.673C119.342 164.297 96.082 176.432 96.082 176.432C96.082 176.432 90.9821 184.359 89.4951 193.644C87.6615 205.087 97.2095 215.687 122.696 218.942Z" fill="#4AAFA3"/>
<path d="M180.369 214.946C189.715 212.601 199.051 210.121 208.444 208.057C214.234 206.784 220.095 205.316 225.078 202.475C225.127 202.448 225.166 202.424 225.215 202.397L223.454 196.554C218.972 194.935 212.719 202.371 180.369 214.946Z" fill="#2C8475"/>
<path d="M219.288 286.609C220.951 287.116 222.784 287.41 224.724 287.536C225.047 287.563 225.383 287.578 225.727 287.587C232.05 287.831 239.247 286.449 244.722 285.05C244.722 285.05 246.083 265.139 246.861 242.978C246.928 241.02 246.998 239.032 247.057 237.041C247.068 236.837 247.068 236.636 247.078 236.434C247.657 217.012 247.657 197.203 245.816 188.426C245.767 188.14 245.7 187.876 245.64 187.624C245.599 187.48 245.57 187.336 245.521 187.186C245.511 187.135 245.493 187.084 245.483 187.033C245.345 186.546 245.227 186.123 245.087 185.777C243.483 181.568 240.085 178.88 236.097 177.183C235.872 177.084 235.635 176.989 235.407 176.898C234.926 176.703 234.432 176.526 233.93 176.358C233.369 176.18 232.808 176.012 232.236 175.85C232.218 175.844 232.208 175.844 232.187 175.844C231.892 175.769 231.598 175.691 231.3 175.622C230.739 175.481 230.17 175.363 229.588 175.253C229.361 175.211 229.136 175.177 228.908 175.135C228.693 175.102 228.466 175.058 228.238 175.025C222.438 174.097 216.893 174.4 214.609 174.604C214.059 174.646 213.694 174.688 213.565 174.706C213.536 174.706 213.508 174.706 213.508 174.706L210.591 194.581L209.745 200.392L209.468 202.263C209.44 204.836 209.222 209.641 209.124 215.865C208.809 234.24 209.499 264.955 219.288 286.609Z" fill="#4AAFA3"/>
<path d="M106.975 192.555C109.318 192.119 111.089 191.756 111.563 191.645C115.434 190.768 119.236 189.588 122.926 188.189C122.543 191.696 121.912 195.17 121.028 198.611C120.94 198.992 120.839 199.378 120.73 199.758C117.462 199.15 114.379 198.182 111.741 196.647C109.889 195.576 108.273 194.243 106.975 192.555ZM121.698 199.92C121.804 199.53 121.902 199.143 122.003 198.755C122.926 195.137 123.578 191.477 123.96 187.783C124.553 187.549 125.153 187.327 125.745 187.084C125.802 188.93 125.753 190.777 125.528 192.624C125.36 194.041 125.104 195.458 124.77 196.849C124.641 197.371 124.444 197.885 124.346 198.41C124.286 198.611 124.227 198.813 124.167 199.026C124.149 199.074 124.139 199.134 124.118 199.185C124.167 199.386 124.227 199.597 124.286 199.809C124.069 199.69 123.764 199.69 123.578 199.92C123.56 199.96 123.529 199.995 123.5 200.029C123.469 200.071 123.448 200.122 123.438 200.17C123.392 200.164 123.34 200.155 123.291 200.155C122.761 200.088 122.228 200.004 121.698 199.92ZM89.4849 193.72C89.4849 195.246 97.4036 194.218 103.773 193.122C104.523 192.996 105.24 192.868 105.93 192.741C106.708 193.804 107.614 194.75 108.63 195.593C111.741 198.182 115.848 199.741 120.319 200.551C127.881 201.917 135.906 201.968 143.607 201.774C160.596 201.344 177.346 198.518 193.794 195.002C193.931 194.978 194.029 194.909 194.075 194.825C194.264 194.548 194.008 194.092 193.527 194.194C192.521 194.404 191.518 194.615 190.512 194.825C176.037 197.828 161.343 200.221 146.444 200.837C139.244 201.134 131.89 201.107 124.718 200.314C124.886 200.044 124.956 199.741 125.065 199.404C125.096 199.311 125.124 199.227 125.142 199.134C125.605 197.684 125.952 196.2 126.208 194.716C126.679 192.05 126.818 189.362 126.699 186.67C132.027 184.393 137.098 181.654 141.805 178.643C143.568 177.511 145.725 175.7 147.724 173.625C149.054 172.25 150.316 170.749 151.34 169.265C153.82 165.698 154.96 162.181 152.501 160.479C152.175 160.259 151.733 160.107 151.182 160.014C146.01 159.137 131.781 163.379 127.703 163.674C126.896 163.734 125.941 163.902 124.886 164.154C124.592 164.232 124.286 164.307 123.971 164.391C123.361 164.56 122.722 164.755 122.06 164.965C121.617 165.1 121.165 165.251 120.712 165.41C120.425 165.503 120.151 165.605 119.864 165.707C119.66 165.782 119.44 165.857 119.236 165.933C118.812 166.085 118.387 166.245 117.963 166.406C117.924 166.424 117.896 166.431 117.855 166.448C117.5 166.584 117.146 166.725 116.781 166.869C115.659 167.308 114.508 167.773 113.365 168.262C112.695 168.548 112.036 168.835 111.366 169.121C111.268 169.165 111.17 169.205 111.071 169.247C106.561 171.238 102.258 173.322 99.4311 174.737C99.294 174.805 99.1544 174.872 99.0277 174.94C97.1967 175.85 96.0821 176.433 96.0821 176.433C96.0821 176.433 96.0045 176.559 95.8674 176.796C95.8079 176.88 95.7381 176.989 95.6683 177.115C95.4433 177.496 95.1381 178.027 94.7838 178.685C94.6545 178.922 94.5278 179.174 94.3882 179.435C94.3002 179.613 94.202 179.799 94.1037 179.985C93.8658 180.456 93.6201 180.97 93.3537 181.526C92.6761 182.994 91.9572 184.723 91.2977 186.621C91.2176 186.856 91.14 187.09 91.0598 187.336C90.7934 188.129 90.5478 188.948 90.3305 189.79C90.2142 190.237 90.0952 190.684 89.9969 191.14C89.9374 191.402 89.878 191.663 89.8185 191.933C89.6918 192.498 89.5831 193.071 89.4952 193.645C89.4952 193.669 89.4849 193.696 89.4849 193.72Z" fill="#2C8475"/>
<path d="M191.083 195.434C195.338 194.65 199.483 193.569 203.53 192.185C205.62 195.164 207.676 197.87 209.745 200.392C213.782 205.332 217.86 209.575 222.171 213.842C222.065 213.908 221.985 214.01 221.975 214.154C219.937 238.626 220.863 263.225 224.724 287.536C225.047 287.563 225.383 287.578 225.727 287.587C221.848 263.409 220.932 238.93 222.921 214.583C226.281 217.872 229.785 221.204 233.548 224.889C239.682 230.894 243.985 234.537 247.057 237.041C247.068 236.837 247.068 236.636 247.078 236.434C247.657 217.012 247.657 197.203 245.816 188.426C245.767 188.14 245.7 187.876 245.64 187.624C245.599 187.48 245.57 187.336 245.521 187.186C245.511 187.135 245.493 187.084 245.482 187.033C244.536 184.258 243.021 181.738 240.52 179.79C239.17 178.736 237.672 177.874 236.097 177.183C235.872 177.084 235.635 176.989 235.407 176.898C234.926 176.703 234.432 176.526 233.93 176.358C233.369 176.18 232.808 176.012 232.236 175.85C232.218 175.844 232.208 175.844 232.187 175.844C231.892 175.768 231.598 175.691 231.3 175.622C230.739 175.481 230.17 175.363 229.588 175.253C229.361 175.21 229.136 175.177 228.908 175.135C228.693 175.102 228.466 175.058 228.238 175.024C224.951 174.535 221.561 174.427 218.323 174.493C217.092 174.52 215.851 174.559 214.609 174.604C208.397 174.823 202.054 175.067 196.292 173.649C194.569 173.22 192.904 172.646 191.308 171.878C195.415 179.67 199.266 186.021 203.018 191.459C199.051 192.792 194.994 193.846 190.817 194.623C190.196 194.732 190.463 195.551 191.083 195.434Z" fill="#2C8475"/>
<path d="M188.867 170.631C189.684 171.045 190.494 171.492 191.308 171.88C190.887 171.087 189.951 170.766 188.867 170.631Z" fill="#3778A0"/>
<path d="M188.867 170.631C187.243 169.778 185.58 169.012 183.708 168.935C183.462 170.841 186.503 170.319 188.867 170.631Z" fill="#3778A0"/>
<path d="M250.127 192.324C250.433 193.108 263.823 221.458 269.218 225.187C274.615 228.918 297.166 229.762 304.684 228.969C304.684 228.969 273.271 241.949 268.189 244.516C263.11 247.082 254.834 249.268 252.778 245.723C250.717 242.18 253.176 234.835 250.559 230.324C247.937 225.814 208.392 181.166 208.403 176.339C208.416 171.512 238.779 162.998 250.127 192.324Z" fill="#FF998C"/>
<mask id="mask1_1833_107" style="mask-type:luminance" maskUnits="userSpaceOnUse" x="251" y="227" width="70" height="23">
<path d="M251.159 227.893H321V249.343H251.159V227.893Z" fill="white"/>
</mask>
<g mask="url(#mask1_1833_107)">
<path d="M282.754 229.191C282.754 229.191 280.597 231 286.977 235.114C286.977 235.114 278.453 245.526 259.14 241.863C254.198 240.927 252.644 240.377 252.644 240.377C252.644 240.377 250.595 240.078 251.441 244.877C251.736 246.558 252.501 249.762 256.543 249.228C263.632 248.289 280.155 247.06 288.068 246.017C298.315 244.666 321.515 237.129 320.99 231.994C320.291 225.134 309.538 228.978 302.491 228.967C295.447 228.954 282.754 229.191 282.754 229.191Z" fill="#351234"/>
</g>
<path d="M281.574 227.16C281.574 227.16 275.926 231.172 282.306 235.286C282.306 235.286 283.721 241.947 260.622 239.567C257.787 239.274 253.073 237.392 251.65 237.005C251.301 236.912 250.939 237.069 250.825 237.363C250.559 238.041 250.631 241.024 251.169 244.086C251.464 245.767 253.243 246.963 255.219 246.819C262.365 246.296 278.975 245.027 286.892 243.984C297.135 242.636 319.515 235.111 319.81 229.961C320.105 224.813 306.846 228.249 299.801 228.238C292.754 228.225 281.574 227.16 281.574 227.16Z" fill="#E6D3DE"/>
<path d="M169.673 158.7C169.725 159.205 173.012 160.124 177.307 161.457C178.921 161.962 180.762 162.494 182.635 163.076C185.914 164.099 190.023 165.168 192.764 167.086C195.568 169.046 196.357 170.563 197.774 173.359C203.181 184.039 210.366 194.052 219.034 203.018C223.193 207.32 227.887 213.438 232.443 217.444C234.905 219.61 237.789 222.716 241.071 224.03C241.138 224.054 241.197 224.078 241.267 224.105C242.625 224.603 244.29 224.762 246.121 224.619C246.222 224.61 246.318 224.603 246.419 224.594C246.724 224.568 247.029 224.526 247.342 224.492C249.46 224.189 251.764 223.522 254.05 222.537C255.566 221.886 257.074 221.102 258.509 220.183C260.076 219.196 261.563 218.066 262.892 216.802C263.386 216.337 263.857 215.85 264.312 215.352C264.467 215.174 264.881 215.013 264.773 214.82C251.301 190.558 244.29 174.442 236.077 160.707C235.919 160.436 235.764 160.175 235.606 159.912C235.337 159.482 235.081 159.061 234.828 158.641C234.551 158.193 234.267 157.746 233.99 157.299C233.636 156.743 233.281 156.185 232.924 155.638C232.699 155.301 232.482 154.972 232.268 154.644C232.247 154.617 232.226 154.584 232.208 154.557C230.749 152.392 228.259 150.485 225.412 149.017C224.064 148.326 222.626 147.728 221.178 147.257C220.744 147.104 220.312 146.978 219.877 146.86C218.706 146.522 217.545 146.276 216.422 146.134C216.226 146.101 216.029 146.074 215.83 146.05C214.462 145.897 212.985 145.831 211.449 145.84C210.909 145.84 210.355 145.855 209.794 145.882C206.592 145.99 203.137 146.395 199.641 147.011C197.81 147.323 195.958 147.695 194.125 148.116C192.886 148.402 191.655 148.698 190.445 149.017C189.459 149.278 188.495 149.54 187.538 149.828C186.072 150.248 184.644 150.696 183.263 151.152C181.137 151.86 179.167 152.602 177.416 153.335C177.09 153.47 176.774 153.605 176.459 153.749C174.628 154.557 173.092 155.359 171.949 156.101C171.822 156.185 171.693 156.269 171.576 156.355C170.294 157.239 169.606 158.049 169.673 158.7Z" fill="#4AAFA3"/>
<path d="M193.814 173.485C193.962 173.245 194.138 173.026 194.301 172.798C194.29 172.732 194.295 172.663 194.324 172.586C195.255 169.88 196.183 167.172 197.114 164.466C197.324 163.861 198.431 164.118 198.221 164.727C197.536 166.715 196.85 168.706 196.168 170.697C196.892 170.032 197.675 169.415 198.531 168.841C199.496 168.19 200.507 167.592 201.524 167.001C201.986 166.729 204.12 165.777 204.756 165.183C204.748 165.126 204.746 165.068 204.764 165.004C204.774 164.971 204.779 164.942 204.79 164.911C204.867 164.641 205.198 164.517 205.496 164.568C205.542 164.576 205.592 164.585 205.641 164.594C205.964 164.649 206.091 164.951 206.039 165.199C205.933 165.717 205.273 165.971 204.816 166.25C203.655 166.961 202.457 167.628 201.286 168.325C198.684 169.873 196.294 171.54 194.805 173.981C194.461 174.541 193.473 174.045 193.814 173.485Z" fill="#2C8475"/>
<path d="M163.365 175.861C163.683 175.549 164.02 175.25 164.353 174.946C163.156 177.568 161.798 180.119 160.27 182.594C161.397 180.385 162.416 178.137 163.365 175.861ZM146.568 193.551C149.336 190.318 152.02 187.039 154.671 183.737C154.885 183.903 155.234 183.932 155.392 183.648C156.153 182.276 156.996 180.945 157.916 179.656C158.263 179.215 158.62 178.784 158.964 178.341C158.69 178.773 158.418 179.204 158.141 179.623C156.489 182.123 154.834 184.625 153.181 187.127C153.212 186.777 152.56 186.529 152.245 186.897C151.617 187.63 151.611 188.276 152.201 189.032C152.403 189.286 152.86 189.319 153.052 189.032C154.016 187.572 154.981 186.113 155.946 184.656C155.527 185.542 155.136 186.439 154.805 187.36C154.616 187.88 155.568 188.101 155.754 187.583C157.016 184.08 158.933 180.854 161.431 177.949C159.509 182.229 157.267 186.394 154.689 190.427C154.381 190.909 155.18 191.292 155.54 190.852C159.786 185.639 163.215 180.024 165.804 174.067C166.021 173.573 165.139 173.359 164.883 173.804C164.707 173.673 164.444 173.633 164.232 173.815C164.128 173.908 164.035 174.003 163.932 174.096C163.795 173.919 163.495 173.83 163.257 173.941C162.465 174.313 161.819 174.807 161.245 175.363C161.671 174.802 162.106 174.246 162.527 173.684C162.876 173.223 162.039 172.823 161.679 173.259L159.742 175.613C158.692 176.366 157.645 177.118 156.595 177.871C157.435 176.525 158.258 175.17 159.036 173.797C159.313 173.31 158.462 172.882 158.185 173.37C157.034 175.4 155.806 177.393 154.523 179.362C153.564 180.05 152.604 180.741 151.642 181.43C151.156 181.78 151.857 182.373 152.338 182.028C152.594 181.844 152.85 181.66 153.106 181.476C151.927 183.199 150.711 184.906 149.431 186.58C149.082 187.036 149.936 187.459 150.282 187.005C152.056 184.685 153.724 182.313 155.302 179.897C156.047 179.364 156.789 178.83 157.528 178.299L151.032 186.188C150.872 186.379 150.947 186.563 151.107 186.678C149.333 188.841 147.541 190.993 145.718 193.126C145.345 193.564 146.199 193.985 146.568 193.551Z" fill="#E2E8F2"/>
<path d="M144.427 183.02C146.716 179.931 149.279 177.006 152.155 174.298C153.07 173.439 155.478 171.242 156.404 173.131C156.497 173.135 156.582 173.162 156.657 173.202C156.916 172.951 157.161 172.692 157.425 172.444C157.852 172.041 158.545 172.639 158.121 173.04C154.451 176.517 151.146 180.232 148.211 184.189C147.87 184.645 147.019 184.222 147.36 183.764C149.429 180.976 151.692 178.315 154.12 175.761C154.025 175.83 153.931 175.899 153.836 175.97C153.357 176.319 152.656 175.726 153.137 175.372C153.947 174.781 154.754 174.187 155.561 173.594C155.222 172.746 152.519 175.21 152.287 175.434C151.444 176.244 150.626 177.075 149.838 177.925C148.201 179.694 146.69 181.539 145.278 183.445C144.937 183.901 144.086 183.478 144.427 183.02Z" fill="#E2E8F2"/>
<path d="M166.389 182.59C167.358 180.927 168.331 179.262 169.303 177.599C169.588 177.112 170.436 177.539 170.154 178.024C169.182 179.689 168.212 181.352 167.239 183.017C166.955 183.502 166.107 183.075 166.389 182.59Z" fill="#E2E8F2"/>
<path d="M227.126 162.644C229.529 161.581 231.843 160.401 234.06 159.104C234.316 158.96 234.572 158.807 234.828 158.641C234.551 158.193 234.266 157.746 233.99 157.299C233.863 157.374 233.723 157.46 233.597 157.536C233.043 157.872 232.503 158.209 231.952 158.548C231.626 158.74 231.706 159.104 231.931 159.272C231.075 159.735 230.209 160.2 229.332 160.638C229.304 160.443 229.154 160.266 228.869 160.266C228.368 160.266 228.269 160.782 228.554 161.01C227.915 161.322 227.284 161.634 226.632 161.92C226.074 162.164 226.565 162.899 227.126 162.644Z" fill="#E2E8F2"/>
<path d="M225.657 158.571C227.343 158.057 228.936 157.406 230.434 156.623C229.185 157.712 227.902 158.784 226.573 159.811C226.102 160.183 226.8 160.772 227.274 160.409C229.164 158.934 230.987 157.4 232.738 155.806C232.808 155.748 232.867 155.688 232.924 155.637C232.699 155.301 232.482 154.971 232.267 154.643C232.247 154.616 232.226 154.581 232.208 154.557C232.117 154.616 232.029 154.674 231.931 154.736C229.971 156.016 227.775 157.037 225.393 157.763C224.801 157.938 225.057 158.757 225.657 158.571Z" fill="#E2E8F2"/>
<path d="M231.104 161.869C232.146 161.517 233.193 161.229 234.266 161.01C234.866 160.884 235.466 160.782 236.077 160.707C235.919 160.437 235.761 160.175 235.603 159.914C235.143 159.98 234.667 160.058 234.207 160.158C233.074 160.377 231.952 160.682 230.85 161.061C230.266 161.263 230.524 162.071 231.104 161.869Z" fill="#E2E8F2"/>
<path d="M207.94 169.55C216.151 187.73 228.58 204.353 244.404 218.363C244.846 218.753 244.151 219.351 243.708 218.959C227.76 204.84 215.266 188.093 206.991 169.774C206.761 169.269 207.712 169.048 207.94 169.55Z" fill="#2C8475"/>
<path d="M178.218 131.621C178.218 131.621 171.675 138.029 174.219 143.943C174.219 143.943 152.85 145.637 145.666 141.895C138.482 138.153 152.051 117.929 159.683 121.663C167.315 125.398 178.218 131.621 178.218 131.621Z" fill="#DBD1D7"/>
<path d="M131.07 83.8631C131.07 83.8631 161.126 122.908 161.857 126.332C162.589 129.755 150.641 150.127 144.055 145.322C137.468 140.512 116.996 83.4069 131.07 83.8631Z" fill="#DBD1D7"/>
<path d="M100.083 79.5773C100.083 79.5773 136.94 103.826 138.968 104.236C149.204 106.302 134.235 90.8017 132.792 88.3084C132.265 87.416 128.955 79.1411 129.583 74.8143C130.708 67.0841 132.792 57.2415 132.792 57.2415L127.729 52.9036L110.989 38.5703C112.256 61.1985 100.083 79.5773 100.083 79.5773Z" fill="#FF998C"/>
<path d="M114.803 53.8189C114.803 53.8189 115.538 69.2903 129.586 74.8151C130.708 67.0827 132.792 57.2422 132.792 57.2422L127.729 52.9066C120.738 52.5722 114.803 53.8189 114.803 53.8189Z" fill="#EA756C"/>
<path d="M143.693 20.522C143.693 20.522 157.138 65.9598 137.879 68.4487C118.618 70.9376 104.792 55.3776 103.339 51.6443C101.885 47.9087 98.2649 35.772 107.715 25.8142C117.164 15.8542 135.699 8.07526 143.693 20.522Z" fill="#FF998C"/>
<path d="M89.0479 24.2354C89.0479 24.2354 89.0479 24.2464 89.0582 24.2464C87.9022 25.0901 78.9413 31.9788 81.6697 40.132C84.5791 48.8453 94.9701 55.898 99.3588 55.898C108.079 55.909 108.159 50.2869 111.229 46.1439C113.991 42.426 115.538 41.1129 120.568 40.1408C121.232 40.0124 121.92 39.8751 122.618 39.7179C127.214 38.6794 126.73 30.9979 130.364 30.172C134.008 29.3394 144.903 28.4049 145.875 18.9675C146.84 9.53005 131.096 1.54299 122.124 3.61117C113.166 5.69263 110.495 10.0482 106.864 9.62748C103.233 9.2134 107.471 0.708193 103.173 0.0903974C98.8674 -0.53847 91.603 2.16079 92.3348 6.72229C93.0564 11.2949 92.2779 9.84227 92.2779 9.84227C92.2779 9.84227 90.3875 4.0341 87.2376 4.24004C85.6678 4.33968 79.9732 8.17489 82.1507 11.5008C78.8741 11.2949 76.4664 15.7479 81.4292 19.1734C83.33 20.4887 84.7859 21.4785 85.8954 22.2248C87.7186 23.4404 88.6238 24.0117 89.0479 24.2354Z" fill="#8E4746"/>
<path d="M91.2126 27.7297C91.6574 27.2359 92.6531 27.7253 92.2031 28.2257C89.0377 31.7443 94.6961 34.3306 93.747 37.8514C92.966 40.7411 92.4669 42.7959 95.1849 45.1542C97.0831 46.7994 99.7132 47.663 102.178 48.4868C102.855 48.7148 102.56 49.6648 101.873 49.4345C97.4219 47.9442 91.6884 45.6502 91.7272 40.8274C91.7402 39.3704 92.5263 38.1946 92.4332 36.7154C92.3324 35.1056 91.3781 34.3682 90.7083 32.9422C89.873 31.1575 89.8109 29.2908 91.2126 27.7297Z" fill="#773535"/>
<path d="M112.859 36.5508C112.859 36.5508 105.18 42.4077 106.442 47.2858C107.707 52.164 112.618 55.5032 112.256 61.1962C111.894 66.8914 108.62 68.716 108.62 68.716C108.62 68.716 114.625 65.957 114.803 61.1342C114.984 56.3114 111.11 49.6706 111.229 46.1454C111.348 42.618 116.567 39.7682 116.567 39.7682L112.859 36.5508Z" fill="#8E4746"/>
<path d="M122.616 39.7132C122.616 39.7132 116.913 29.7554 112.253 34.7355C107.593 39.7132 109.173 49.6733 114.803 50.5014C120.436 51.3318 123.099 45.9377 122.616 39.7132Z" fill="#FF998C"/>
<path d="M113.409 38.7195C114.847 38.6353 116.264 38.7017 117.687 38.8922C117.989 38.9343 118.103 39.1203 118.093 39.3151C118.152 39.4701 118.139 39.645 117.982 39.7978C116.624 41.1109 116.073 42.8248 116.463 44.5476C116.601 45.1676 115.496 45.4289 115.357 44.8088C114.951 43.0086 115.38 41.2438 116.567 39.7713C115.517 39.6738 114.467 39.6406 113.409 39.7004C112.672 39.7425 112.677 38.7637 113.409 38.7195Z" fill="#EA756C"/>
<path d="M115.196 48.161C115.545 47.7092 116.399 48.1322 116.047 48.5861C116.029 48.6105 116.019 48.637 116 48.6614C116.008 48.6769 116.019 48.6857 116.024 48.7012C116.293 49.6069 116.114 50.4882 115.545 51.2433C115.496 51.4824 115.444 51.7172 115.395 51.9541C115.31 52.3726 114.56 52.3416 114.449 51.9541C114.069 50.6388 114.322 49.2947 115.196 48.161Z" fill="#FFEC8F"/>
<path d="M84.4523 133.709L85.6135 154.506C86.3531 161.683 86.4824 168.892 85.9988 176.087L85.9213 191.974C85.9213 191.974 107.712 193.482 132.272 176.432C139.128 171.676 146.77 170.555 148.255 169.306C151.596 166.523 151.081 156.277 152.501 147.863C152.992 144.876 153.722 142.128 154.963 140.018C159.68 131.94 158.488 125.498 152.501 116.685C144.691 105.191 145.922 104.245 134.983 88.6963C135.109 89.2189 137.238 98.6961 117.089 78.9798C116.774 78.6698 116.438 78.3399 116.104 78.01L116.073 77.9856C109.308 71.3072 104.867 69.7129 104.867 69.7129C104.867 69.7129 79.1637 82.2105 84.4523 133.709Z" fill="#EAE4E8"/>
<path d="M102.555 162.431C105.558 168.377 119.171 173.136 132.278 176.433C140.297 173.302 146.77 170.556 148.26 169.309C151.593 166.521 151.079 156.28 152.501 147.861C149.315 147.038 146.015 146.094 144.055 145.321C140.801 144.035 134.403 119.817 127.263 108.362C119.2 95.4239 111.894 88.1189 102.555 97.3902C102.429 97.5275 94.8667 112.175 94.7995 112.324C90.9151 121.046 96.4494 150.293 102.555 162.431Z" fill="#DBD1D7"/>
<path d="M256.125 131.269C248.369 134.876 200.319 156.767 193.308 159.96C192.85 160.168 192.284 159.995 192.087 159.583C190.396 156.041 183.465 141.422 184.546 142.022C185.705 142.662 234.714 120.151 240.541 117.469C240.88 117.314 241.293 117.37 241.567 117.602L256.314 130.08C256.732 130.434 256.642 131.03 256.125 131.269Z" fill="#351234"/>
<path d="M251.997 131.043C244.911 134.098 201.022 152.646 194.619 155.349C194.2 155.526 193.682 155.378 193.501 155.026C191.939 151.999 185.544 139.504 186.534 140.02C187.595 140.569 232.363 121.497 237.685 119.225C237.993 119.094 238.371 119.141 238.621 119.34L252.165 130.029C252.55 130.332 252.468 130.839 251.997 131.043Z" fill="#E6F0FF"/>
<path d="M239.234 122.54C240.809 121.336 243.744 118.904 245.914 120.445C246.434 120.815 245.857 121.584 245.327 121.207C244.484 120.609 242.4 121.57 241.686 122.009C241.228 122.292 240.801 122.591 240.38 122.901C241.445 123.782 242.508 124.666 243.571 125.547C244.577 126.387 245.619 127.835 246.972 127.131C248.803 126.174 249.791 125.304 252.077 125.16C252.757 125.118 252.695 126.028 252.02 126.072C249.393 126.236 248.477 127.352 246.781 128.727C246.656 128.827 246.421 128.886 246.258 128.82C245.159 128.379 244.36 127.469 243.496 126.754C242.063 125.565 240.628 124.374 239.195 123.182C238.989 123.012 239.033 122.695 239.234 122.54Z" fill="#D0D6DD"/>
<path d="M235.128 123.705C237.411 126.214 239.765 128.674 242.185 131.087C242.63 131.532 241.841 132.141 241.394 131.696C238.973 129.285 236.62 126.823 234.336 124.316C233.917 123.853 234.706 123.242 235.128 123.705Z" fill="#492749"/>
<path d="M229.8 126.094C232.081 128.603 234.432 131.065 236.855 133.477C237.3 133.922 236.511 134.533 236.064 134.088C233.643 131.677 231.29 129.214 229.006 126.705C228.587 126.245 229.376 125.631 229.8 126.094Z" fill="#492749"/>
<path d="M224.447 128.581C226.731 131.09 229.081 133.55 231.505 135.963C231.952 136.408 231.161 137.02 230.713 136.575C228.293 134.161 225.939 131.701 223.658 129.192C223.239 128.729 224.026 128.118 224.447 128.581Z" fill="#492749"/>
<path d="M121.069 93.1271C122.794 95.3591 124.01 97.848 124.726 100.457C128.029 112.471 138.502 135.576 138.505 149.324C138.508 159.008 118.938 169.278 111.434 163.365C103.931 157.453 92.7694 112.686 91.7246 102.682C90.1135 87.237 106.683 74.4958 121.069 93.1271Z" fill="#EAE4E8"/>
<path d="M224.76 141.342C225.937 139.098 232.363 141.893 220.736 155.272C218.6 157.732 212.142 165.739 202.201 167.099C195.78 167.978 164.77 167.406 164.77 167.406L159.683 154.116C159.99 155.174 190.82 159.061 191.663 154.116C192.04 151.902 204.746 142.825 208.744 142.203C212.74 141.581 210.197 145.626 208.379 147.805C206.561 149.984 200.675 157.181 213.104 151.282C216.404 149.716 222.577 145.498 224.76 141.342Z" fill="#FF998C"/>
<path d="M132.792 145.004C132.792 145.004 170.221 154.649 182.943 154.029C182.943 154.029 181.124 165.232 184.758 168.965C184.758 168.965 116.52 171.558 111.434 163.365C106.347 155.17 132.792 145.004 132.792 145.004Z" fill="#EAE4E8"/>
<path d="M95.9451 97.9064C97.1166 95.03 98.3373 91.9941 100.898 89.7776C103.98 87.1027 108.146 86.7661 112.253 87.7271C119.647 89.472 124.739 94.7598 127.625 100.612C127.86 101.102 128.817 100.882 128.569 100.384C125.704 94.5738 120.692 89.2351 113.611 87.2134C113.797 86.9765 113.947 86.6975 114.056 86.4207C115.07 83.8986 115.838 81.4185 117.089 78.9828C116.774 78.6706 116.438 78.3406 116.104 78.0129L116.073 77.9863C115.326 80.0124 114.576 82.0098 114.526 82.1271C114.361 82.5478 112.804 87.0451 112.39 86.8082C112.212 86.6975 112.046 86.724 111.909 86.7993C111.583 86.7329 111.268 86.6643 110.932 86.6133C107.21 86.0398 103.587 86.5225 100.732 88.7391C97.7089 91.0929 96.3098 94.4742 94.9986 97.6849C94.7917 98.2009 95.7382 98.4201 95.9451 97.9064Z" fill="#DBD1D7"/>
<path d="M202.92 125.97C203.621 126.216 204.635 126.468 205.716 126.637C204.102 128.601 202.271 131.242 200.024 131.621C196.38 132.243 200.381 125.084 202.92 125.97ZM173.881 142.954C173.938 143.164 173.997 143.377 174.075 143.585C174.124 143.705 174.173 143.822 174.214 143.939C176.322 144.422 180.703 145.272 185.41 144.978C186.366 144.918 187.341 144.81 188.306 144.648C189.309 144.473 190.315 144.236 191.29 143.917C195.208 142.642 205.726 134.808 208.09 132.201C208.139 132.159 208.167 132.126 208.201 132.093C208.377 131.891 208.542 131.663 208.703 131.426C209.104 130.826 209.419 130.144 209.647 129.444C209.647 129.438 209.657 129.438 209.657 129.427C209.903 128.687 210.05 127.928 210.089 127.226C210.099 127 210.099 126.781 210.089 126.57C210.169 126.537 210.247 126.51 210.324 126.468C210.779 126.258 211.064 125.928 211.103 125.456C211.134 125.177 211.085 124.859 210.917 124.478C209.507 121.163 198.459 117.511 193.988 116.736C193.861 116.712 193.742 116.694 193.633 116.677C192.452 116.508 191.722 116.896 191.252 117.631C190.01 119.529 190.424 123.729 189.113 126.637C188.179 128.738 186.661 130.525 184.929 131.909C182.86 133.534 179.78 133.711 177.444 132.48C176.291 133.822 174.232 136.597 173.741 139.708C173.573 140.762 173.594 141.858 173.881 142.954Z" fill="#FF998C"/>
<path d="M215.61 129.88C216.003 129.88 216.383 129.707 216.595 129.4C216.921 128.935 216.743 128.335 216.2 128.056L174.718 106.918C174.17 106.641 173.472 106.796 173.149 107.261C172.825 107.726 173.001 108.328 173.547 108.605L215.028 129.743C215.209 129.836 215.411 129.88 215.61 129.88Z" fill="#4F2A4F"/>
<path d="M216.197 128.056L219.451 130.839L215.026 129.743C216.21 129.132 216.601 128.569 216.197 128.056Z" fill="#492749"/>
<path d="M209.973 124.883C209.973 124.883 211.015 127.429 209.652 129.447C208.289 131.466 205.721 126.639 205.721 126.639C205.721 126.639 207.692 122.748 209.973 124.883Z" fill="#FF998C"/>
<path d="M208.592 76.831V76.3262H210.495V76.831H208.592Z" fill="black"/>
</svg>
