<svg width="241" height="318" viewBox="0 0 241 318" fill="none" xmlns="http://www.w3.org/2000/svg">
<mask id="mask0_1895_526" style="mask-type:luminance" maskUnits="userSpaceOnUse" x="0" y="13" width="116" height="181">
<path d="M0 13.6191H115.19V193.079H0V13.6191Z" fill="white"/>
</mask>
<g mask="url(#mask0_1895_526)">
<path d="M113.275 63.5068C112.143 53.0532 109.131 40.1345 102.113 31.9381C89.9492 17.729 65.1132 9.04724 46.1011 18.6149C23.607 20.0709 4.01326 42.9039 1.74844 64.4967C1.00506 71.6109 1.64829 78.7866 2.83078 85.816C4.20199 93.9663 7.76869 102.71 6.13556 111.026C4.87604 117.446 0.419593 122.908 0.18849 129.591C-0.000244626 135.053 2.12976 140.626 3.58186 146.069C3.72052 152.012 5.43839 157.597 5.58091 163.59C5.70416 168.671 3.3238 173.62 2.34161 178.531C1.85629 180.969 1.48267 183.577 2.02962 186.042C2.24146 187.001 3.52409 190.055 4.82212 189.982C6.29348 189.897 6.82502 184.852 7.10619 183.715C7.35656 181.978 7.76099 180.249 8.5814 178.489C10.0682 175.303 12.1481 172.468 13.1881 169.075C13.9315 166.648 14.3089 163.86 14.3628 161.013C14.6171 164.014 14.49 167.114 13.943 170.45C13.3999 173.766 12.618 177.04 11.9286 180.33C11.424 182.752 10.2531 186.107 10.7846 188.696C11.2815 191.064 30.0779 192.613 29.6388 189.142C29.3461 186.789 31.3528 184.906 31.3952 182.625C31.3374 185.603 32.1463 188.357 34.5035 190.298C36.8146 192.201 40.0346 192.42 42.8964 192.432C48.1887 192.451 53.6274 192.301 58.8927 191.8C68.0713 190.93 74.0916 186.431 79.7652 179.39C86.0127 171.64 91.7287 163.544 94.7908 153.984C97.9145 144.243 98.7234 133.951 99.6979 123.829C100.761 112.728 108.992 113.306 112.12 102.602C115.039 92.6143 114.415 74.022 113.275 63.5068Z" fill="#2E1A15"/>
</g>
<path d="M161.445 288.194C161.349 271.138 160.228 248.69 160.167 235.956C160.124 226.966 159.631 217.953 158.01 209.098C156.419 200.428 153.915 191.866 151.843 183.299C148.045 167.631 136.097 156.303 123.98 146.346C117.921 141.366 111.465 136.497 104.536 132.796C99.9449 130.342 94.8876 128.624 89.8649 129.745C89.942 129.579 90.0228 129.421 90.0999 129.256C90.4966 128.424 89.3026 127.696 88.8481 128.524C88.513 129.136 88.1817 129.753 87.8466 130.365C87.6771 130.431 87.5 130.465 87.3266 130.538C86.8529 130.743 86.8875 131.29 87.1649 131.625C89.4528 134.425 74.901 156.102 73.2332 159.072C65.2716 173.25 60.0333 182.44 60.3029 200.205C61.0925 252.761 97.7147 319.408 151.462 310.187C155.722 307.105 159.523 292.746 161.445 288.194Z" fill="#315C69"/>
<path d="M178.035 66.954C171.923 64.2539 167.524 49.0396 161.446 51.3892C155.391 53.731 149.964 56.9819 144.414 60.2944C139.41 63.2871 134.43 66.3647 130.547 70.7903C126.676 75.2005 123.376 80.0999 119.844 84.7759C117.559 87.7995 115.641 91.0658 114.197 94.5709C113.515 96.2194 112.934 97.8988 112.464 99.6166C112.433 99.7322 112.41 99.8786 112.387 100.017C111.705 99.5743 111.019 99.1275 110.326 98.7115C109.49 98.2108 108.558 99.3894 109.278 100.067C110.199 100.934 111.154 101.774 112.121 102.602C112.021 103.881 111.882 105.14 111.489 105.691C111.766 105.306 111.212 104.736 110.827 105.024C110.726 105.098 110.622 105.175 110.522 105.248C110.318 105.402 110.214 105.61 110.272 105.868C110.426 106.538 110.492 106.634 111.096 106.954C111.304 107.066 111.601 107.104 111.805 106.954C112.957 106.13 113.18 104.951 113.396 103.665C118.399 107.778 123.892 111.48 129.026 115.305C134.684 119.526 140.273 121.36 147.299 121.779C154.571 122.211 161.974 122.242 167.909 117.454C173.121 113.248 176.965 106.846 179.684 100.826C183.409 92.5834 189.51 72.0306 178.035 66.954Z" fill="#315C69"/>
<path d="M87.4575 134.241C87.4575 134.241 122.786 189.22 127.758 181.848C129.176 179.749 129.734 103.723 129.734 103.723L81.6683 69.1465C81.6683 69.1465 77.7473 71.6578 77.5007 71.6617C77.3582 71.5615 77.2273 71.4537 77.0848 71.3535C76.4377 70.9029 75.8214 71.9043 76.3106 72.4166C76.3876 72.4936 76.4723 72.5707 76.5494 72.6516C70.9721 80.902 62.5483 115.849 62.5483 115.849L87.4575 134.241Z" fill="#FF957A"/>
<path d="M120.036 105.98C119.739 105.591 119.069 105.795 119.204 106.331C120.999 113.483 123.722 119.977 124.246 127.453C124.731 134.41 124.966 145.938 118.818 150.518C111.962 155.621 102.333 151.041 96.2627 146.766C95.2266 146.034 94.2906 145.241 93.3855 144.428C93.2622 144.806 93.112 145.171 92.9079 145.514C93.293 146.046 93.189 146.658 92.8154 147.097C100.303 153.534 110.083 157.451 118.229 153.553C125.544 150.055 126.36 140.596 126.637 133.412C126.988 124.399 125.651 113.348 120.036 105.98Z" fill="#EBCAB0"/>
<path d="M19.12 64.8671C19.5128 78.0208 22.9486 91.6636 28.0097 102.406C32.6164 112.189 46.9602 129.233 59.5631 128.159C70.0591 127.257 83.8444 116.792 90.0881 107.968C93.909 102.568 95.7308 94.8374 96.8247 88.251C99.4555 86.56 101.809 84.2991 103.369 81.9495C107.093 76.3607 106.362 70.3404 104.216 64.2431C102.749 60.1064 99.1743 55.7039 94.2826 57.6605C94.2287 57.6798 94.2094 57.7145 94.1516 57.7337C92.7034 52.4877 90.7467 47.3495 87.7924 42.7004C84.5955 37.6778 80.3085 33.1635 74.9469 30.1553C69.1539 26.9006 62.683 26.2035 56.1004 25.8645C43.0084 25.2059 30.783 32.4856 25.1402 43.698C21.9163 50.1073 18.8927 57.3562 19.12 64.8671Z" fill="#FF957A"/>
<path d="M97.2683 68.5953C96.783 68.4335 96.4941 68.9843 96.6674 69.3772C97.6342 71.5496 100.319 72.1505 100.126 75.151C100.042 76.5106 97.6997 79.5727 97.5071 77.4813C97.4493 76.8226 97.9038 75.9906 97.95 75.2742C98.0887 73.0595 97.0949 71.2376 95.0381 70.9295C95.5427 67.1971 96.3785 64.0079 98.5201 60.7648C98.9014 60.1831 98.0656 59.5977 97.5841 60.0445C94.3833 63.0142 93.8325 67.5669 93.3241 71.696C93.2702 72.1158 93.7362 72.5279 94.1291 72.5048C98.6626 72.2545 93.8325 79.1722 96.521 80.8168C97.8846 81.6488 99.6679 80.8939 100.639 79.7846C103.832 76.1447 101.44 69.9588 97.2683 68.5953Z" fill="#E66C4E"/>
<path d="M84.165 30.2707C79.851 26.8311 74.3777 23.7189 69.1509 21.8816C63.6892 19.9596 57.2375 20.5104 51.587 21.0073C41.8229 21.8662 31.5696 23.6419 25.48 32.0887C22.5835 36.1022 20.8349 40.8167 19.4636 45.5351C18.3466 49.3714 16.6788 53.7007 17.7342 57.6526C17.1295 57.9107 16.5248 58.1726 15.9509 58.4961C15.5695 58.7118 15.766 59.2434 16.1627 59.2742C16.6827 59.3127 17.1834 59.2934 17.6918 59.4051C17.2219 63.6921 14.3562 68.6493 12.7886 72.7398C12.6538 73.0903 12.5344 73.5333 12.7924 73.8068C13.012 74.0379 13.3394 73.9839 13.6437 73.8376C13.0582 74.3344 13.4203 75.2743 14.2368 75.1163C18.9629 74.1996 21.3972 70.0629 23.8045 66.319C31.8469 53.797 55.6352 55.434 56.4749 36.8764C56.0088 47.1451 64.6906 56.3469 72.9141 61.5236C81.5496 66.9584 90.8323 62.7793 96.3942 55.253C96.7293 55.1259 96.9989 54.8409 96.972 54.4249C96.4173 45.0729 91.4563 36.0829 84.165 30.2707Z" fill="#2E1A15"/>
<path d="M37.3888 42.7041C37.2617 42.7041 37.2617 42.9005 37.3888 42.9005C37.5159 42.9005 37.5159 42.7041 37.3888 42.7041Z" fill="#2E1A15"/>
<path d="M145.861 112.147C144.259 104.143 139.544 102.795 132.357 100.418C128.594 99.174 119.011 94.0897 115.086 93.1846C128.089 146.2 124.55 170.485 124.55 170.485L87.4575 134.24C87.4575 134.24 89.5297 154.635 91.4941 163.54C94.3521 176.509 97.5837 179.182 104.386 190.587C106.901 194.797 109.875 198.73 113.892 201.611C119.069 205.316 124.827 222.918 129.734 227.044C137.341 233.434 146.289 238.868 155.907 242.601C156.569 242.859 153.753 230.194 153.777 229.578C155.109 190.533 153.553 150.552 145.861 112.147Z" fill="white"/>
<path d="M143.723 52.6484C138.05 50.7457 130.05 51.1809 126.733 53.7192C123.332 56.3076 124.684 59.9975 128.443 60.6986C130.362 61.0876 132.549 60.8372 134.552 61.1762C135.095 61.2686 142.059 62.4164 141.944 62.9287C142.733 59.5084 143.315 56.0803 143.723 52.6484Z" fill="#FF957A"/>
<mask id="mask1_1895_526" style="mask-type:luminance" maskUnits="userSpaceOnUse" x="140" y="0" width="101" height="318">
<path d="M140.323 0H240.349V317.995H140.323V0Z" fill="white"/>
</mask>
<g mask="url(#mask1_1895_526)">
<path d="M140.473 0V317.995H240.352V0H140.473Z" fill="#FAECE1"/>
</g>
<path d="M156.955 160.636C156.816 160.636 156.381 161.368 155.749 162.673C155.256 163.659 154.663 164.946 153.954 166.467C153.835 166.76 153.696 167.057 153.557 167.353C153.299 167.927 153.045 168.539 152.748 169.171C152.371 170.022 151.978 170.931 151.562 171.879C145.638 185.553 136.945 206.868 136.945 206.868C136.945 206.868 163.079 229.235 165.29 229.235C168.845 229.135 172.204 210.188 173.151 207.088C174.969 201.237 176.413 195.27 177.677 189.266C177.816 188.615 177.95 187.979 178.089 187.328C178.486 185.395 178.859 183.457 179.218 181.52C179.553 179.606 179.907 177.687 180.223 175.754C180.284 175.496 180.323 175.257 180.362 174.999C180.462 174.348 180.577 173.716 180.677 173.065C180.835 172.233 180.974 171.386 181.113 170.535C181.328 169.171 181.567 167.808 181.783 166.444L156.955 160.636Z" fill="#FF957A"/>
<path d="M198.85 121.298C198.476 120.905 197.883 120.728 196.974 120.905C194.089 121.518 193.696 124.619 192.807 126.949C191.917 129.264 189.19 132.857 189.19 132.857C189.19 132.857 190.534 128.848 191.166 127.384C193.3 122.465 195.611 117.427 196.716 112.15C197.213 109.762 197.567 106.816 195.491 105.04C194.544 104.231 193.596 103.954 192.749 104.17C192.845 103.715 192.945 103.28 193.022 102.825C193.261 101.462 193.735 99.7248 192.764 98.5C189.467 94.2939 186.802 101.127 186.07 103.361C183.898 109.882 177.558 121.063 174.792 127.269C174.811 126.498 179.376 113.495 180.223 110.849C180.974 108.557 183.405 102.017 181.151 99.9598C180.601 99.4282 179.692 99.4475 178.96 99.6863C177.103 100.279 175.821 101.959 174.831 103.638C169.635 112.47 166.969 126.317 160.175 133.963C159.878 129.46 162.405 125.269 163.295 120.844C163.591 119.403 163.691 117.843 163.098 116.499C162.486 115.136 161.022 114.088 159.582 114.404C157.922 114.739 157.055 116.538 156.443 118.14C154.505 123.197 152.552 128.255 150.596 133.312C148.897 137.718 147.156 142.421 148.065 147.082C148.816 151.034 151.385 154.335 153.481 157.77C154.289 159.095 154.94 161.013 155.749 162.674C156.184 163.583 156.678 164.411 157.251 165.004C158.653 166.425 161.835 167.573 163.653 168.42C167.62 170.3 172.084 170.674 176.429 171.028C177.18 171.09 177.974 171.128 178.644 170.812C179.195 170.554 181.113 170.535 181.113 170.535C181.113 170.535 185.558 159.353 187.357 153.822C189.348 147.713 194.07 139.436 196.716 133.589C197.664 131.455 198.592 129.264 198.989 126.93C199.247 125.47 199.936 122.446 198.85 121.298Z" fill="#FF957A"/>
<path d="M184.522 242.62C179.78 235.714 177.392 228.576 174.707 220.68C169.095 204.152 150.68 173.943 150.68 173.943C150.68 173.943 145.947 185.564 143.797 189.339C141.895 192.682 140.019 196.11 139.183 199.908C138.262 204.083 132.731 207.053 132.697 211.401C132.627 221.073 126.726 220.819 121.299 227.109C117.001 232.089 114.651 238.286 114.231 244.815C114.174 245.709 115.14 246.067 115.722 245.728C115.992 253.905 120.109 262.394 123.075 269.528C126.307 277.289 129.831 284.927 133.625 292.426C135.524 296.174 133.17 310.422 133.17 310.422C133.17 310.422 142.777 312.76 148.265 310.537C153.569 308.392 159.613 304.274 163.314 300.392C167.405 296.105 169.407 292.534 173.167 287.866C176.445 283.795 176.826 278.121 177.639 273.168C178.124 270.21 178.282 267.186 178.914 264.251C179.896 259.656 182.422 257.449 185.25 254.086C188.466 250.261 187.122 246.398 184.522 242.62Z" fill="#315C69"/>
<path d="M134.218 50.8352C134.592 50.9969 134.965 51.1433 135.331 51.2897C138.185 52.4413 141.305 52.919 144.375 52.7071C146.158 52.5838 148.173 52.5145 149.817 51.7326C154.008 49.7374 151.092 44.9112 146.875 44.5222C150.422 44.1717 153.642 43.4398 153.866 40.967C154.128 38.0821 152.067 36.7532 148.72 35.1971C151.166 33.953 154.655 32.6935 153.573 30.3979C152.702 28.5452 150.303 27.3473 146.49 26.4961C151.505 23.2298 148.496 20.6415 144.41 19.4898C137.357 17.4946 130.47 20.133 129.708 21.4503C128.98 22.7175 128.687 24.1774 129.257 25.5486C129.511 26.1725 129.923 26.7195 130.416 27.1933C127.724 28.6145 125.837 31.0026 127.682 34.2727C127.89 34.6425 128.132 34.9815 128.39 35.2973C128.198 35.0623 127.027 37.7316 126.984 37.9704C126.322 41.5024 128.718 42.3806 131.452 43.7441C131.275 43.6555 130.674 45.643 130.644 45.8395C130.532 46.6021 130.605 47.3763 130.917 48.085C131.537 49.5063 132.854 50.2497 134.218 50.8352Z" fill="#FF957A"/>
<path d="M146.119 35.108C144.798 33.5712 142.367 34.226 140.619 34.3492C137.853 34.5457 135.111 34.642 132.388 35.2159C131.228 35.4624 131.771 37.2034 132.915 36.9761C137.152 36.1364 141.509 36.1711 145.792 35.9901C146.273 35.9708 146.396 35.4277 146.119 35.108Z" fill="#E66C4E"/>
<path d="M143.974 26.0067C142.252 25.6793 140.415 25.8988 138.67 25.8911C136.856 25.8757 135.015 26.1184 133.232 26.4535C132.33 26.623 132.608 28.0327 133.486 28.0134C135.35 27.9672 137.172 27.6591 139.044 27.6745C140.708 27.6899 142.379 27.5204 144.013 27.2084C144.633 27.089 144.552 26.1222 143.974 26.0067Z" fill="#E66C4E"/>
<path d="M145.245 43.96C143.154 43.7096 141.089 43.3206 139.009 42.997C137.18 42.712 135.096 42.2575 133.274 42.7159C132.716 42.8584 132.588 43.7327 133.209 43.8983C135.042 44.376 137.041 44.3528 138.917 44.6494C140.997 44.9768 143.061 45.3659 145.153 45.6201C146.216 45.751 146.304 44.0871 145.245 43.96Z" fill="#E66C4E"/>
<path d="M191.789 106.019C188.947 110.017 188.142 115.548 186.713 120.182C185.095 125.428 182.31 130.139 180.592 135.277C180.446 135.724 181.032 135.997 181.344 135.712C184.945 132.407 186.543 126.795 188.011 122.258C189.659 117.166 191.97 111.535 192.494 106.212C192.537 105.8 191.986 105.749 191.789 106.019Z" fill="#E66C4E"/>
<path d="M180.804 173.944C180.488 175.881 179.082 182.102 178.747 184.016C168.81 182.949 159.388 178.632 151.092 172.962C151.508 172.014 152.371 170.023 152.748 169.172C153.045 168.54 153.299 167.928 153.557 167.354C153.696 167.057 154.246 165.875 154.366 165.578C163.683 169.576 171.363 172.997 180.804 173.944Z" fill="#2E1A15"/>
<path d="M177.615 178.45C175.585 184.494 169.988 186.335 164.707 184.559C159.423 182.784 156.457 178.065 158.487 172.022C160.517 165.978 166.221 163.802 171.502 165.578C176.786 167.353 179.644 172.403 177.615 178.45Z" fill="white"/>
<path d="M110.683 88.697C110.587 88.2541 106.693 88.2618 106.693 88.2618C106.693 88.2618 106.342 83.5088 103.696 81.4365L102.637 82.9695C104.193 84.3407 104.686 86.3321 104.806 88.177C104.748 88.1655 97.0097 88.1501 97.0097 88.1501C97.0097 88.1501 97.2409 86.1356 97.4488 85.3422C97.8109 83.9633 98.5004 83.6397 99.5288 82.8424C99.8138 82.6229 99.7329 82.0528 99.4094 81.9064C97.8956 81.2362 96.5013 82.696 95.9621 84.021C95.5692 84.984 95.4806 86.0624 95.3304 87.0832C95.2765 87.4337 95.1994 88.0885 95.1994 88.0885C95.1994 88.0885 91.964 87.8728 90.9741 88.4505C89.9842 89.0283 92.2529 98.1915 96.197 100.067C99.2784 101.539 103.889 101.67 106.581 99.1622C109.728 96.2387 110.845 89.4789 110.683 88.697Z" fill="white"/>
<path d="M93.6509 90.2876C93.882 89.8716 98.1806 90.5187 102.021 90.2876C104.694 90.1296 108.006 90.2876 108.122 90.5572C108.234 90.823 107.432 99.4701 100.503 98.8962C93.5777 98.3261 93.4198 90.7113 93.6509 90.2876Z" fill="#EBCAB0"/>
<path d="M128.498 191.593C125.586 185.615 126.98 179.221 125.894 172.866C125.805 172.342 124.904 172.331 124.823 172.866C124.084 177.792 123.752 183.897 125.077 188.739C125.674 190.919 126.876 192.76 127.87 194.775C129.572 198.233 130.262 201.638 131.263 205.305C131.502 206.18 132.904 206.025 132.869 205.086C132.685 200.148 130.62 195.942 128.498 191.593Z" fill="#E6E6E6"/>
<path d="M128.732 300.515C123.663 295.92 120.551 291.764 118.402 285.174C116.361 278.915 115.297 272.355 115.174 265.776C114.924 252.746 118.556 240.097 124.538 228.588C124.634 228.403 124.561 228.245 124.445 228.145C124.457 228.13 124.472 228.114 124.484 228.099C124.896 227.525 124.049 227.044 123.586 227.406C115.101 234.061 109.863 243.155 108.106 253.694C106.643 262.479 101.119 275.999 107.297 284.068C107.744 284.65 108.796 284.353 108.568 283.533C107.028 278.013 106.373 273.461 107.413 267.737C108.341 262.633 109.454 257.568 110.383 252.465C111.284 247.5 112.936 242.951 115.817 238.78C117.701 236.053 119.962 233.649 122.084 231.126C115.313 242.447 112.478 255.774 113.314 268.973C113.946 278.961 116.765 297.9 128.02 301.744C128.709 301.975 129.268 301.001 128.732 300.515Z" fill="#234A57"/>
<path d="M176.393 257.164C173.847 252.211 170.569 247.716 168.193 242.639C165.678 237.274 163.621 231.701 161.841 226.046C160.058 220.392 158.594 214.637 157.404 208.829C156.168 202.774 155.898 196.384 154.234 190.449C154.042 189.771 153.129 189.963 153.067 190.606C152.482 196.761 153.972 203.421 155.147 209.449C156.403 215.885 158.094 222.233 160.139 228.461C163.401 238.395 167.55 250.636 175.315 257.996C175.889 258.539 176.747 257.854 176.393 257.164Z" fill="#234A57"/>
<path d="M120.197 218.747C113.892 208.594 103.958 201.384 93.8087 195.579C87.6614 192.063 82.8506 188.088 80.5395 181.135C78.294 174.368 77.073 167.142 75.2626 160.243C75.0431 159.404 73.8414 159.77 73.9839 160.594C76.1293 172.916 76.811 186.824 87.8077 194.666C92.9382 198.325 98.9469 200.625 103.869 204.592C109.466 209.099 113.595 215.335 119.584 219.36C119.962 219.61 120.428 219.117 120.197 218.747Z" fill="#234A57"/>
<path d="M134.406 83.8634C132.215 81.3675 129.361 78.5557 126.01 77.8123C125.42 77.6814 124.819 78.471 125.366 78.9216C127.97 81.0747 130.674 82.7579 132.893 85.3733C135.065 87.9347 136.613 91.1162 139.171 93.3117C139.498 93.589 139.995 93.3271 139.895 92.8918C139.109 89.4792 136.679 86.4479 134.406 83.8634Z" fill="#234A57"/>
<path d="M90.2077 99.8174C89.2872 104.178 87.9314 108.823 84.642 112.062C81.472 115.178 77.8321 117.905 74.3887 120.713C73.4373 121.491 74.2731 122.731 75.2207 121.961C79.1417 118.76 83.9294 115.914 87.1032 111.943C89.526 108.915 90.6777 104.416 91.4596 100.723C91.7138 99.5246 90.462 98.6118 90.2077 99.8174Z" fill="#E66C4E"/>
</svg>
