<svg width="146" height="114" viewBox="0 0 146 114" fill="none" xmlns="http://www.w3.org/2000/svg">
<mask id="mask0_1688_119" style="mask-type:luminance" maskUnits="userSpaceOnUse" x="0" y="0" width="146" height="114">
<path d="M0 0H146V113.848H0V0Z" fill="white"/>
</mask>
<g mask="url(#mask0_1688_119)">
<path d="M145.95 67.0299C145.95 92.7827 124.999 113.734 99.2498 113.734H65.5913C61.1778 113.734 57.6006 110.155 57.6006 105.742C57.6006 102.462 59.5761 99.6448 62.4021 98.4152C63.3766 97.99 64.4591 97.7543 65.5877 97.7543H99.2462C116.186 97.7543 129.967 83.9716 129.967 67.0334C129.967 50.0917 116.186 36.309 99.2462 36.309H49.9925V50.3663C49.9925 53.8053 47.163 56.2628 44.0854 56.2486C43.1162 56.2433 42.1223 55.9917 41.1832 55.4513L2.99961 33.4068C-0.914257 31.1443 -0.914257 25.4923 2.99961 23.2333L41.1832 1.187C45.0989 -1.07202 49.9925 1.75397 49.9925 6.27732V20.3293H99.2533C125.003 20.3293 145.95 41.2771 145.95 67.0299Z" fill="#5A789F"/>
</g>
</svg>
