<svg width="43" height="43" viewBox="0 0 43 43" fill="none" xmlns="http://www.w3.org/2000/svg">
<path d="M21.44 2C10.7036 2 2 10.7036 2 21.44C2 32.1763 10.7036 40.88 21.44 40.88C32.1763 40.88 40.88 32.1763 40.88 21.44C40.88 10.7036 32.1763 2 21.44 2Z" stroke="#013A63" stroke-opacity="0.78" stroke-width="2.916" stroke-linecap="round" stroke-linejoin="round"/>
<path d="M6.41602 33.7759C6.41602 33.7759 10.7492 28.2439 21.4412 28.2439C32.1332 28.2439 36.4666 33.7759 36.4666 33.7759" stroke="#013A63" stroke-opacity="0.78" stroke-width="2.916" stroke-linecap="round" stroke-linejoin="round"/>
<path d="M21.4394 21.4399C24.6604 21.4399 27.2714 18.8289 27.2714 15.6079C27.2714 12.387 24.6604 9.77588 21.4394 9.77588C18.2184 9.77588 15.6074 12.387 15.6074 15.6079C15.6074 18.8289 18.2184 21.4399 21.4394 21.4399Z" stroke="#013A63" stroke-opacity="0.78" stroke-width="2.916" stroke-linecap="round" stroke-linejoin="round"/>
</svg>
