<svg width="19" height="17" viewBox="0 0 19 17" fill="none" xmlns="http://www.w3.org/2000/svg">
<path d="M9.50123 0.377197C4.25465 0.377197 0.00246256 3.83163 0.00246256 8.09495C0.00246256 9.86112 0.740843 11.4789 1.96529 12.7813C1.41244 14.2432 0.262195 15.4825 0.243642 15.4973C-0.00124789 15.757 -0.0680361 16.1355 0.0729612 16.462C0.213959 16.7885 0.536768 17 0.892972 17C3.1749 17 4.97447 16.0465 6.05422 15.2821C7.12654 15.6198 8.2842 15.8127 9.50123 15.8127C14.7478 15.8127 19 12.3583 19 8.09495C19 3.83163 14.7478 0.377197 9.50123 0.377197ZM9.50123 14.0317C8.51054 14.0317 7.53098 13.8795 6.59223 13.5827L5.74996 13.3156L5.02642 13.8276C4.49583 14.2024 3.76858 14.6216 2.89291 14.9036C3.16377 14.4547 3.42721 13.95 3.63129 13.412L4.0246 12.3694L3.26024 11.5605C2.58865 10.8444 1.78348 9.66076 1.78348 8.09495C1.78348 4.82232 5.24534 2.15822 9.50123 2.15822C13.7571 2.15822 17.219 4.82232 17.219 8.09495C17.219 11.3676 13.7571 14.0317 9.50123 14.0317Z" fill="#013A63" fill-opacity="0.7"/>
</svg>
