<svg width="501" height="501" viewBox="0 0 501 501" fill="none" xmlns="http://www.w3.org/2000/svg">
<path d="M158.453 259.718C155.583 260.015 152.594 260.125 152.235 259.13C151.24 256.359 147.745 255.541 148.11 255.192C148.255 255.057 149.495 255.125 151.557 255.5C152.573 255.687 155.599 256.666 156.604 256.88C157.12 256.989 157.552 257.166 157.917 257.354C159.396 258.109 161.938 258.343 163.891 258.807C164.943 259.062 165.823 259.656 166.276 259.802C165.75 259.171 164.958 258.947 164.531 258.786C163.771 258.5 163.11 258.213 162.417 258.093C161.261 257.89 160.542 257.822 159.698 257.411C157.667 256.411 156.526 255.937 154.557 255.635C154.641 255.416 158.099 255.13 159.578 255.192C161.12 255.255 163.646 255.64 165.516 255.541C166.188 255.5 166.766 255.385 167.401 255.317C168.037 255.25 168.802 255.432 169.505 255.588C168.896 255.218 167.646 255.088 166.693 255.114C165.735 255.145 164.86 255.281 163.844 255.224C162.36 255.14 160.906 254.661 159.417 254.557C157.458 254.421 155.953 254.974 153.995 254.854C152.901 254.781 151.886 254.458 150.787 254.307C148.047 253.932 143.5 254.51 139.552 254.286C137.511 254.166 135.182 254.208 133.443 253.703C132.031 253.296 129.141 251.484 128.985 251.239C128.552 250.546 130.521 250.036 132.031 250.187C133.542 250.338 134.688 250.536 136.203 250.682C138.037 250.859 139.995 250.796 141.828 250.713C143.339 250.64 146.485 250.531 148 250.656C150.641 250.869 151.677 251.302 154.318 251.526C152.828 251.203 151.313 250.901 149.844 250.557C148.078 250.135 145.589 250.197 144.568 250.203C134.302 250.255 134.766 248.505 128.641 248.125C125.797 247.953 120.828 247.895 117.979 247.984C116.11 248.041 114.24 248.458 112.365 248.474C111.396 248.479 110.432 248.484 109.464 248.494C109 248.494 108.422 247.833 108.235 248.005C107.354 247.916 105.073 248.359 104.958 248.369C103.672 248.468 102.219 248.416 100.99 248.614C100 248.77 98.2033 249.203 97.6356 249.651C96.2554 250.239 94.9064 250.906 93.1668 251.208C92.4325 251.333 91.6564 251.39 90.9481 251.552C89.3908 251.895 88.4064 252.666 86.922 253.088C85.4741 253.505 83.7241 253.546 82.0939 253.505C80.4637 253.463 78.8335 253.343 77.1929 253.489C75.5575 253.63 73.8491 254.099 73.2293 254.828C74.7085 253.927 77.4741 253.828 79.7502 253.974C82.0262 254.114 84.4689 254.385 86.62 253.885C88.2137 253.515 89.3752 252.765 91.0418 252.479C91.6304 252.38 92.3647 252.364 92.7345 252.583C93.0731 252.781 92.8856 253.067 92.771 253.322C92.1825 254.583 91.0314 254.75 89.7762 255.328C88.87 255.744 87.8856 255.932 86.7658 256.203C84.8908 256.656 82.7762 256.963 80.7345 257.145C78.6981 257.328 76.5522 257.64 75.0991 258.369C74.2606 258.786 73.7241 259.312 72.9429 259.75C71.1512 260.76 68.5627 261.458 67.7814 262.677C67.3335 263.364 67.2814 263.963 67.245 264.661C67.2137 265.338 66.6981 266.031 65.8022 266.604C66.8283 265.921 67.7554 265.442 68.1668 264.656C68.62 263.781 68.3439 262.916 69.5939 262.197C70.672 261.578 72.5835 260.682 73.7762 260.104C74.5314 259.734 75.0418 259.484 75.7397 259.093C77.3022 258.213 79.2085 258.078 81.5262 257.776C83.8387 257.474 86.6772 256.958 88.9012 256.515C91.1304 256.072 93.3856 255.02 94.0679 253.937C94.3804 253.442 94.2397 253.177 94.5887 252.687C95.2189 251.812 96.8908 251.166 98.6304 250.729C100.375 250.296 101.193 249.843 104.188 249.812C104.833 249.802 108.156 249.494 109.537 250.307C110.287 250.75 109.485 251.286 108.86 251.781C107.427 252.921 104.787 253.572 102.438 254.312C100.094 255.057 97.745 256.099 97.5991 257.406C97.5158 258.145 97.6304 258.838 98.37 259.578C99.0314 260.239 99.8335 260.791 97.3231 261.229C96.0002 261.463 93.7085 261.364 92.422 261.645C91.0522 261.947 90.4272 262.599 89.3179 263.088C87.797 263.76 85.7241 263.765 83.6981 263.901C80.5939 264.104 77.8231 265.25 76.7814 266.625C77.4012 266.067 78.7554 265.734 79.87 265.349C82.3856 264.468 85.6668 264.734 87.646 264.427C86.9116 265.442 87.9689 267.119 88.4793 268.135C89.0418 269.26 88.047 269.276 87.8439 270.677C87.6929 271.661 88.5627 272.802 90.521 273.13C89.3283 272.682 89.047 271.875 89.2085 271.145C89.37 270.421 89.8804 269.703 89.9272 268.979C90.021 267.474 87.8595 265.718 89.6929 264.447C91.0418 263.515 91.4064 262.781 93.5522 262.401C96.7137 261.843 100.063 262.203 101.104 260.942C101.557 260.39 100.656 259.63 100.412 259.062C99.0054 255.755 105.464 254.974 105.969 255.203C106.682 255.52 105.089 256.562 106.208 257.52C106.958 258.161 108.807 258.447 109.224 259.161C109.61 259.822 108.36 260.453 107.995 261.125C107.229 262.526 110.323 263.937 109.266 265.296C108.261 266.604 104.526 266.729 101.99 267.447C98.2241 268.515 97.5054 271.349 100.651 272.718C98.5314 270.864 99.3647 268.677 102.917 268.109C104.474 267.859 106.339 267.635 107.755 267.234C109.141 266.843 110.099 265.64 111.698 265.604C112.891 265.578 113.766 266.989 114.339 267.479C114.917 267.968 115.203 268.526 115.807 269.005C116.787 269.796 118.646 270.474 118.391 271.385C118.266 271.838 118.104 272.171 118.083 272.713C119.365 271.875 119.479 270.677 118.36 269.802C117.672 269.265 116.578 268.843 116.198 268.239C115.948 267.849 114.995 266.229 114.615 265.859C113.235 264.52 111.636 264.802 110.62 263.39C108.531 260.489 112.99 260.609 112.021 259.291C111.172 258.13 107.594 257.52 107.938 256.291C108.172 255.442 110.203 254.968 111.052 254.208C111.417 253.875 111.552 253.494 111.932 253.166C112.583 252.604 113.995 252.255 115.344 252.322C116.688 252.395 117.021 253.104 117.375 253.718C118.146 255.072 115.943 256.218 116.75 257.567C117 257.984 117.62 258.369 117.563 258.802C117.505 259.213 116.86 259.546 116.443 259.911C115.485 260.744 115.766 261.849 117.115 262.541C118.49 263.244 120.62 263.458 122.422 263.906C124.219 264.349 125.87 265.317 125.057 266.192C126.162 265.447 126 264.349 124.682 263.687C123.583 263.135 121.943 262.932 120.531 262.572C119.12 262.218 117.781 261.531 118.162 260.796C118.49 260.151 120.005 259.729 120.167 259.072C120.235 258.796 120.245 258.489 120.011 258.234C117.99 256.031 120.563 254.119 126.276 256.421C128.177 257.187 126.599 258.572 128.094 259.119C129.802 259.744 134.281 258.947 135.266 259.859C136.193 260.708 132.901 262.296 132.99 263.255C133.078 264.213 135 264.937 135.432 265.875C136.031 267.171 133.662 268.349 133.193 269.661C132.781 270.796 133.964 272.02 136.047 272.619C134.188 271.963 134.287 270.625 135.052 269.593C135.813 268.557 137.068 267.557 136.906 266.468C136.761 265.474 135.458 264.593 135.057 263.614C134.656 262.64 135.906 261.619 138.011 261.489C143.083 261.166 141.172 263.911 143.344 264.984C145.386 265.989 150.615 266.64 150.61 268.505C150.61 269.354 150.422 270.447 148.844 270.875C151.964 270.145 152.943 268.026 150.724 266.744C148.896 265.687 143.151 264.458 144.089 263.437C143.787 263.765 149.261 264.052 153.724 263.541C156.349 263.239 159.094 264.02 159.833 265.224C159.214 264.213 157.875 263.421 155.953 263.151C154.037 262.885 152.604 263.099 150.625 263.135C148.646 263.166 145.932 263.302 144.531 262.63C143.505 262.14 143.557 261.14 142.328 260.76C141.198 260.406 139.646 260.437 138.61 260.026C137.797 259.708 137.49 259.187 136.802 258.812C134.74 257.677 129.698 259.281 129.568 257.817C129.396 255.947 126.943 254.979 124.485 254.64C122.87 254.421 121.229 254.057 120.365 253.38C119.495 252.703 119.667 251.697 121.057 251.255C122.458 250.817 124.432 251.104 125.698 251.635C126.964 252.166 127.776 252.89 128.854 253.505C131.427 254.979 136.224 255.51 140.203 255.333C141.37 255.265 148.474 255.062 150.162 258.619C150.589 259.515 151.464 260.5 153.271 260.89C155.438 261.359 158.271 260.041 160.391 260.567C162.146 261 162.453 262.614 163.495 263.38C164.667 264.239 166.943 264.494 168.922 264.953C165.906 264.255 164.365 263.13 163.401 262.099C162.302 260.937 161.682 259.385 158.453 259.718Z" fill="#5A789F"/>
<mask id="mask0_1643_1064" style="mask-type:luminance" maskUnits="userSpaceOnUse" x="77" y="248" width="84" height="34">
<path d="M77.4429 248.906H160.047V281.369H77.4429V248.906Z" fill="white"/>
</mask>
<g mask="url(#mask0_1643_1064)">
<path d="M86.4792 264.057C88.7552 264.526 91.1302 264.718 91.4167 263.39C92.1979 259.708 94.974 258.687 94.6823 258.218C94.5677 258.031 93.5833 258.099 91.9479 258.557C91.1406 258.781 88.7396 260.026 87.9375 260.286C87.5312 260.421 87.1927 260.645 86.901 260.89C85.724 261.869 83.7031 262.119 82.1562 262.697C81.3177 263.01 80.6198 263.791 80.2604 263.979C80.6719 263.135 81.3073 262.859 81.6458 262.651C82.25 262.276 82.7708 261.911 83.3229 261.765C84.2396 261.526 84.8125 261.458 85.4844 260.921C87.0938 259.625 88 259.02 89.5625 258.666C89.4948 258.375 86.75 257.901 85.5729 257.937C84.3438 257.974 82.3385 258.416 80.8542 258.208C80.3125 258.135 79.8542 257.953 79.349 257.838C78.8385 257.718 78.2344 257.942 77.6719 258.13C78.1562 257.651 79.151 257.52 79.9115 257.593C80.6719 257.666 81.375 257.88 82.1771 257.838C83.3594 257.776 84.5156 257.177 85.6979 257.083C87.2552 256.963 88.4531 257.744 90.0104 257.63C90.875 257.562 91.6875 257.151 92.5573 256.979C94.7344 256.541 98.3438 257.401 101.474 257.145C103.099 257.015 104.943 257.088 106.323 256.437C107.438 255.911 109.734 253.552 109.859 253.234C110.203 252.322 108.641 251.64 107.443 251.822C106.24 252.005 105.339 252.255 104.135 252.432C102.682 252.64 101.125 252.526 99.6667 252.38C98.4688 252.26 95.974 252.046 94.7656 252.171C92.6667 252.39 91.849 252.937 89.75 253.166C90.9323 252.77 92.1354 252.416 93.3021 251.989C94.7031 251.479 96.6823 251.625 97.4948 251.651C105.646 251.911 105.276 249.572 110.135 249.145C112.391 248.947 116.333 248.89 118.589 249C120.073 249.072 121.557 249.604 123.042 249.614C123.807 249.619 124.573 249.619 125.339 249.619C125.708 249.619 126.167 248.75 126.312 248.974C127.01 248.849 128.458 249.447 128.641 249.406C128.724 249.385 128.818 249.395 128.906 249.406C129.927 249.52 131.083 249.437 132.052 249.666C132.839 249.854 134.26 250.385 134.708 250.947C135.807 251.687 136.87 252.526 138.25 252.875C138.828 253.02 139.448 253.078 140.005 253.26C141.24 253.671 142.021 254.64 143.193 255.145C144.339 255.645 145.724 255.645 147.021 255.536C148.312 255.427 149.604 255.218 150.906 255.338C152.208 255.463 153.557 256.005 154.047 256.927C152.875 255.817 150.682 255.796 148.875 256.057C147.068 256.322 145.13 256.75 143.427 256.166C142.167 255.734 141.245 254.796 139.932 254.468C139.464 254.354 138.88 254.349 138.583 254.64C138.318 254.906 138.464 255.276 138.557 255.609C139.016 257.218 139.927 257.411 140.922 258.125C141.635 258.64 142.417 258.849 143.302 259.171C144.786 259.708 146.464 260.036 148.078 260.203C149.698 260.375 151.396 260.697 152.547 261.588C153.208 262.099 153.63 262.755 154.245 263.296C155.661 264.531 157.714 265.333 158.333 266.88C158.682 267.75 158.719 268.526 158.745 269.432C158.771 270.312 159.172 271.187 159.88 271.89C159.068 271.052 158.339 270.474 158.016 269.463C157.661 268.349 157.88 267.218 156.891 266.333C156.042 265.572 154.531 264.489 153.589 263.781C152.99 263.338 152.583 263.026 152.036 262.546C150.802 261.463 149.286 261.364 147.453 261.046C145.62 260.729 143.37 260.145 141.609 259.635C139.844 259.125 138.063 257.817 137.526 256.432C137.276 255.796 137.391 255.447 137.115 254.817C136.62 253.703 135.297 252.906 133.917 252.369C132.542 251.838 131.891 251.27 129.516 251.27C129.01 251.27 126.375 250.911 125.276 251.984C124.682 252.562 125.318 253.25 125.812 253.89C126.943 255.354 129.031 256.166 130.891 257.088C132.75 258.01 134.604 259.317 134.714 261.005C134.781 261.963 134.688 262.864 134.099 263.838C133.573 264.708 132.932 265.442 134.922 265.958C135.969 266.229 137.781 266.041 138.802 266.375C139.885 266.734 140.38 267.557 141.255 268.161C142.458 268.984 144.099 268.932 145.703 269.041C148.161 269.208 150.354 270.604 151.172 272.338C150.682 271.645 149.615 271.255 148.729 270.791C146.74 269.744 144.141 270.187 142.573 269.849C143.151 271.14 142.312 273.338 141.901 274.671C141.448 276.145 142.24 276.135 142.396 277.947C142.505 279.213 141.812 280.718 140.266 281.197C141.214 280.583 141.438 279.531 141.312 278.593C141.188 277.656 140.786 276.744 140.75 275.802C140.682 273.859 142.401 271.526 140.953 269.932C139.891 268.76 139.604 267.822 137.901 267.385C135.401 266.744 132.75 267.276 131.927 265.661C131.568 264.958 132.286 263.953 132.479 263.208C133.604 258.901 128.495 258 128.094 258.302C127.526 258.724 128.781 260.052 127.896 261.307C127.297 262.156 125.833 262.552 125.505 263.489C125.198 264.354 126.182 265.156 126.469 266.026C127.073 267.833 124.625 269.718 125.453 271.468C126.245 273.151 129.203 273.244 131.208 274.119C134.188 275.427 134.745 279.078 132.25 280.932C133.932 278.468 133.281 275.661 130.474 275C129.24 274.708 127.766 274.447 126.646 273.958C125.547 273.479 124.792 271.932 123.526 271.906C122.583 271.89 121.885 273.744 121.432 274.39C120.979 275.036 120.745 275.765 120.271 276.401C119.49 277.442 118.021 278.354 118.219 279.546C118.318 280.135 118.448 280.562 118.458 281.276C117.448 280.197 117.365 278.635 118.25 277.474C118.792 276.765 119.661 276.197 119.964 275.411C120.161 274.89 120.917 272.765 121.219 272.281C122.318 270.52 123.578 270.859 124.385 269.01C126.047 265.208 122.521 265.427 123.286 263.697C123.964 262.171 126.797 261.333 126.531 259.739C126.344 258.64 124.74 258.052 124.068 257.067C123.776 256.64 123.672 256.151 123.37 255.724C122.854 254.994 121.74 254.552 120.672 254.651C119.604 254.75 119.339 255.682 119.057 256.484C118.443 258.25 120.188 259.734 119.542 261.494C119.344 262.041 118.854 262.546 118.901 263.114C118.943 263.651 119.453 264.078 119.781 264.546C120.542 265.625 120.318 267.072 119.245 267.984C118.161 268.916 116.469 269.224 115.047 269.817C113.62 270.416 112.312 271.692 112.953 272.838C112.078 271.869 112.208 270.427 113.255 269.552C114.125 268.822 115.422 268.541 116.542 268.062C117.661 267.583 118.719 266.677 118.422 265.718C118.167 264.885 116.964 264.343 116.839 263.489C116.781 263.125 116.776 262.729 116.964 262.39C118.568 259.505 116.531 257.026 112 260.036C110.49 261.041 111.74 262.859 110.557 263.578C109.203 264.401 105.651 263.343 104.87 264.536C104.135 265.661 106.745 267.76 106.677 269.015C106.604 270.276 105.083 271.234 104.74 272.468C104.26 274.187 106.141 275.724 106.51 277.453C106.833 278.942 105.901 280.562 104.25 281.369C105.719 280.489 105.641 278.729 105.042 277.375C104.438 276.015 103.443 274.692 103.573 273.255C103.688 271.947 104.719 270.781 105.036 269.494C105.354 268.203 104.365 266.864 102.698 266.677C98.6771 266.229 100.193 269.875 98.4688 271.291C96.8542 272.614 92.7083 273.453 92.7135 275.947C92.7188 277.078 92.8646 278.541 94.1146 279.114C91.6458 278.14 90.8698 275.286 92.6198 273.588C94.0729 272.187 98.625 270.588 97.8802 269.229C98.1198 269.671 93.7812 270.02 90.2396 269.276C88.1562 268.838 85.9792 269.838 85.3958 271.453C85.8854 270.099 86.9479 269.057 88.4688 268.724C89.9896 268.395 91.1302 268.703 92.6979 268.77C94.2708 268.838 96.4219 269.041 97.526 268.156C98.3438 267.51 98.3021 266.187 99.276 265.687C100.172 265.229 101.401 265.281 102.224 264.744C102.865 264.328 103.109 263.645 103.656 263.151C105.292 261.671 109.286 263.796 109.391 261.869C109.526 259.406 111.474 258.145 113.422 257.708C114.703 257.416 116 256.937 116.693 256.046C117.38 255.166 117.245 253.854 116.146 253.276C115.036 252.703 113.469 253.072 112.464 253.765C111.458 254.458 110.818 255.406 109.958 256.208C107.917 258.13 104.12 258.807 100.958 258.52C100.036 258.432 94.3958 258.036 93.0573 262.75C92.724 263.932 92.026 265.239 90.5938 265.734C88.875 266.328 86.625 264.505 84.9375 265.161C83.5469 265.703 83.3073 267.885 82.4792 268.901C81.5573 270.041 79.7448 270.343 78.1771 270.921C80.5677 270.041 81.7917 268.536 82.5521 267.166C83.4219 265.614 83.9115 263.536 86.4792 264.057Z" fill="#5A789F"/>
</g>
<path d="M150.693 194.552L151.105 194.395L151.292 194.458C153.183 195.052 154.839 195.484 156.36 195.765C157.855 196.031 159.375 196.224 160.912 196.338C160.464 196.27 160.021 196.197 159.584 196.119C157.87 195.812 155.875 195.281 153.646 194.536L152.094 194.02L154.032 193.302C159.766 191.203 163.474 188.557 165.86 186.161C163.844 187.505 161.495 188.661 159.198 189.687L158.172 190.145L158.402 189.046C158.75 187.385 159.214 185.994 159.792 184.911C159.485 185.349 159.198 185.822 158.943 186.328C158.438 187.312 158.021 188.572 157.704 190.072L157.641 190.364L157.365 190.484C154.089 191.854 150.542 193.187 147.115 194.474C143.683 195.765 140.438 196.984 137.667 198.161L136.073 198.838L136.943 197.343C137.563 196.281 138.079 195.291 138.521 194.317C139.141 192.937 139.787 191.187 140.469 189.333L140.646 188.854L141.011 188.822C142.865 188.671 144.386 188.442 145.657 188.125C146.084 188.015 146.5 187.901 146.902 187.776C145.474 188.083 143.719 188.296 141.667 188.411L140.792 188.458L141.099 187.635C142.355 184.276 144.266 179.166 147.386 174.953C145.344 176.869 143.36 179.359 142.011 182.505C141.855 182.859 141.709 183.208 141.563 183.557L140.907 185.13L140.48 183.484C139.98 181.572 139.693 179.859 139.631 178.385C139.589 177.458 139.589 176.208 139.724 174.755C139.323 176.677 139.105 178.854 139.277 181.213C139.391 182.739 139.724 184.494 140.282 186.437L140.334 186.625L140.209 186.947C138.464 191.427 137.224 195.38 133.433 199.958L132.808 200.437C130.646 201.588 128.495 202.947 126.412 204.474L125.704 205L125.516 204.135C124.875 201.239 124.594 198.677 124.683 196.52C124.735 195.218 124.907 193.364 125.365 191.213C124.506 193.724 123.86 196.671 123.829 199.895C123.808 201.567 124.006 203.494 124.417 205.619L124.485 205.958L124.219 206.177C121.782 208.156 119.995 209.932 118.928 211.067L118.198 211.843L117.948 210.812C117.568 209.239 117.219 207.359 116.943 205.849C116.698 204.531 116.49 203.39 116.349 202.953C115.693 200.88 116.907 188.234 119.521 180.171L119.563 180.041L119.938 179.671C121.303 178.312 122.375 177.239 123.73 175.974L124.438 175.291C127.313 172.531 131.443 168.572 135.089 163.541C133.521 165.531 131.704 167.52 129.594 169.395C126.678 172.01 123.974 174.494 121.553 176.776L119.907 178.151C120.209 177.276 121.224 174.427 121.527 173.578C122.73 170.166 124.818 164.265 125.589 157.135C125.245 159.375 124.724 161.682 123.954 163.994L123.662 164.869L122.532 163.755C121.073 162.317 119.813 161.072 118.917 159.546C118.542 158.906 118.172 158.25 117.823 157.562C118.282 158.625 118.865 159.744 119.605 160.906C120.282 161.968 121.511 163.489 123.167 165.307L123.402 165.567L122.511 167.994C117.891 180.635 114.547 189.765 113.5 196.765L113.271 198.302L112.448 196.984C110.381 193.687 108.443 190.057 106.678 186.192L106.547 185.901L106.724 185.635C107.907 183.854 108.818 182.213 109.433 180.76C110.808 177.541 111.292 174.531 111.355 171.979C110.974 174.442 110.303 176.505 109.766 177.88C109.105 179.578 108.021 181.552 106.558 183.734L105.969 184.614L105.558 183.64C103.964 179.901 102.511 175.911 101.24 171.791L101.162 171.52L101.323 171.291C102.547 169.546 103.417 168.041 103.985 166.697C104.49 165.489 104.829 164.328 105.042 163.229C104.865 163.822 104.683 164.338 104.516 164.76C103.954 166.218 102.985 167.937 101.641 169.869L100.954 170.854L100.615 169.703C99.0526 164.322 98.0057 159.463 97.3286 155.64C97.4692 157.895 97.7765 160.609 98.3963 163.833L98.6567 165.208L97.5057 164.416C94.9744 162.677 93.0682 161.104 91.6724 159.604C91.5994 159.52 91.5213 159.437 91.4432 159.349C92.0838 160.187 92.8026 161.02 93.6047 161.838C94.8911 163.151 96.5526 164.51 98.6828 166L98.8703 166.13L98.9172 166.349C99.8286 170.437 101.141 174.901 102.818 179.614L103.25 180.833L102.058 180.333C97.3494 178.375 85.8286 173.239 80.5317 167.88C80.4067 167.75 80.2765 167.614 80.1515 167.479C80.8234 168.333 81.5838 169.182 82.438 170.005C87.4744 174.843 96.3963 179.317 102.907 182.588L103.261 182.765L103.339 182.974C103.599 183.651 103.86 184.343 104.131 185.052C105.636 189.041 107.339 193.562 109.662 198.437L110.167 199.5L109.021 199.244C105.714 198.51 103.641 197.63 101.24 196.609L100.813 196.427C97.6984 195.109 94.7713 193.51 92.1515 191.729C95.0474 194.218 99.0265 196.932 104.198 199.015C105.011 199.343 105.646 199.656 106.261 199.958C107.396 200.515 108.381 200.994 110.162 201.416L110.428 201.479L110.547 201.718C110.761 202.145 112.329 210.869 112.344 210.953L112.527 211.937C112.579 212.093 111.396 211.479 111.407 211.484C111.256 211.38 110.271 210.859 109.125 210.255C101.928 206.463 82.7922 196.385 75.4536 187.671C74.5994 186.604 73.8026 185.375 73.089 184.02C74.0994 186.213 75.464 188.474 77.2974 190.64C81.6047 195.765 88.2088 199.64 94.5994 203.39L96.8807 205.01L94.6463 204.708C83.8755 202.854 74.4224 200.093 66.4224 196.474C69.5369 198.099 73.8338 199.927 79.8234 201.77L81.2765 202.213L79.839 202.859C78.8182 203.208 77.8651 203.468 77.0005 203.645C76.2817 203.791 75.5526 203.911 74.813 204.005C76.6307 203.947 78.4224 203.729 80.1411 203.359C80.4015 203.307 82.0994 202.599 82.2661 202.52C87.4067 204.057 93.6255 205.661 101.282 207.421L101.375 207.442L101.459 207.494C102.568 208.197 103.547 208.843 104.448 209.479L105.719 210.375L104.172 210.52C102.657 210.661 101.146 211.057 99.6932 211.703C98.9536 212.031 98.2557 212.479 97.5161 212.947C96.9536 213.307 96.3703 213.682 95.7401 214.015C92.8286 215.567 89.6151 216.145 87.2713 216.567C85.9484 216.802 84.5786 216.984 83.1984 217.104C83.214 217.104 83.2244 217.104 83.2401 217.104C85.7661 217.104 88.2817 216.869 90.7088 216.411L90.7505 216.401L92.7088 216.099L91.2036 217.421C89.4015 218.781 87.4067 220.187 85.1724 221.192C86.3651 220.791 87.7557 220.213 89.3755 219.39C90.3442 218.901 91.3494 218.359 92.3234 217.833C96.5005 215.583 100.818 213.255 104.625 213.255C107.287 213.255 109.454 214.427 111.073 216.739C112.652 218.989 113.027 221.916 113.172 223.927C113.839 233.072 112.23 243.765 107.261 248.265C108.349 248.364 109.74 249.093 110.797 249.093C111.089 249.093 112.308 249.677 112.527 249.661C117.204 249.338 120.98 248.724 125.579 248.51C124.704 245.817 121.943 236.093 122.787 229.854C124.209 219.338 132.167 218.125 138.037 218.125C138.672 218.125 139.344 218.14 140.136 218.166L140.37 218.177L140.532 218.343C141.375 219.234 142.209 220 143.006 220.619C144.381 221.687 145.829 222.562 147.224 223.276C146.349 222.666 145.594 222.099 144.99 221.645C144.271 221.109 143.49 220.354 142.532 219.286L141.584 218.224L143 218.333C143.521 218.369 144.053 218.411 144.589 218.453C146.282 218.588 148.027 218.729 149.902 218.791C150.803 218.833 151.683 218.849 152.506 218.849C153.678 218.849 154.714 218.812 155.631 218.744C152.094 218.744 148.313 218.109 144.657 217.489C142.125 217.067 139.511 216.625 137.058 216.411L134.98 216.229L136.86 215.322C137.641 214.947 138.37 214.541 139.058 214.125C137.24 214.937 135.62 215.432 134.469 215.724C133.261 216.026 130.792 216.505 129.865 216.687C129.719 216.713 129.542 216.75 129.542 216.75C125.688 217.572 123.271 219.26 121.922 220.536L121.178 221.239L120.922 220.02C120.579 218.395 120.277 216.989 120.646 215.932C122.094 211.781 128.516 205.895 132.62 203.041L132.829 202.901L134.48 203.276C141.756 204.921 150.813 206.974 157.714 206.974C158.125 206.968 158.527 206.963 158.922 206.947C152.974 206.666 144.36 205.01 135.375 202.39L134.11 202.02L135.24 201.349C139.896 198.572 144.896 196.713 150.693 194.552Z" fill="#5A789F"/>
<path d="M94.5368 138.015C94.5368 138.031 90.542 143.411 96.4952 147.458C96.4952 147.474 100.547 142.296 94.5368 138.015Z" fill="#5A789F"/>
<path d="M53.0368 181.187C53.042 181.208 52.568 185.531 58.1774 185.197C58.1826 185.218 58.7451 180.791 53.0368 181.187Z" fill="#5A789F"/>
<path d="M58.9898 176.744C58.995 176.76 58.7502 180.213 63.2502 179.895C63.2554 179.911 63.5835 176.406 58.9898 176.744Z" fill="#5A789F"/>
<path d="M99.917 139.635C99.917 139.635 97.1098 142.192 99.7712 145.083C99.7712 145.083 102.584 142.671 99.917 139.635Z" fill="#5A789F"/>
<path d="M101.839 137.994C101.834 137.994 101.089 140 103.344 141.411C103.49 140.765 104.104 139.448 101.839 137.994Z" fill="#5A789F"/>
<path d="M117.834 137.057C117.834 137.041 112.152 140.583 116.063 146.724C116.063 146.703 121.709 143.479 117.834 137.057Z" fill="#5A789F"/>
<path d="M123.818 136.02C123.818 136.02 119.865 140.854 125.891 145.77C125.891 145.77 129.901 141.213 123.818 136.02Z" fill="#5A789F"/>
<path d="M90.4692 145.052C90.4692 145.078 87.563 150.88 94.339 153.791C94.339 153.817 97.3442 148.114 90.4692 145.052Z" fill="#5A789F"/>
<path d="M103.073 144.01C103.068 143.984 96.5836 146.734 98.693 153.312C98.693 153.286 105.073 150.838 103.073 144.01Z" fill="#5A789F"/>
<path d="M108.344 145.203C108.339 145.187 103.532 147.067 105.089 152C105.089 151.984 109.818 150.307 108.344 145.203Z" fill="#5A789F"/>
<path d="M120.834 146.546C120.834 146.531 116.016 148.093 117.558 153.13C117.558 153.114 122.297 151.734 120.834 146.546Z" fill="#5A789F"/>
<path d="M107.891 136.604C107.891 136.583 103.073 138.484 104.631 143.411C104.631 143.395 109.37 141.697 107.891 136.604Z" fill="#5A789F"/>
<path d="M111.839 154.099C111.839 154.078 106.693 154.729 106.724 159.921C106.724 159.906 111.74 159.39 111.839 154.099Z" fill="#5A789F"/>
<path d="M122.037 149.281C122.037 149.286 119.729 152.489 123.953 155C123.953 155.005 126.313 151.937 122.037 149.281Z" fill="#5A789F"/>
<path d="M68.0212 156.02C68.0212 156.036 67.0629 159.869 71.8077 159.843C71.8129 159.859 72.8494 156.005 68.0212 156.02Z" fill="#5A789F"/>
<path d="M110.292 160.817C110.292 160.802 105.875 161.166 106.141 165.536C106.141 165.526 110.453 165.276 110.292 160.817Z" fill="#5A789F"/>
<path d="M131 143.885C131 143.864 126.573 143.744 126.818 148.13C126.818 148.114 131.146 148.328 131 143.885Z" fill="#5A789F"/>
<path d="M115.485 161.161C115.485 161.151 111.912 161.599 112.443 165.135C112.443 165.13 115.933 164.781 115.485 161.161Z" fill="#5A789F"/>
<path d="M115.511 153.781C115.511 153.791 115.329 150.593 111.266 150.765C111.266 150.776 111.355 153.828 115.511 153.781Z" fill="#5A789F"/>
<path d="M116.313 157.593C116.313 157.604 116.156 154.817 112.615 154.947C112.615 154.953 112.688 157.625 116.313 157.593Z" fill="#5A789F"/>
<path d="M117.651 159.791C117.651 159.796 116.74 157.708 114.089 158.578C114.089 158.578 114.922 160.593 117.651 159.791Z" fill="#5A789F"/>
<path d="M120.75 164.666C120.75 164.671 119.532 161.864 115.995 162.989C115.995 163 117.104 165.692 120.75 164.666Z" fill="#5A789F"/>
<path d="M113 157.536C112.995 157.531 109.682 158.807 111.229 162.088C111.229 162.078 114.505 160.932 113 157.536Z" fill="#5A789F"/>
<path d="M122.23 144.432C122.23 144.437 120.782 147.25 124.49 148.901C124.485 148.906 125.99 146.182 122.23 144.432Z" fill="#5A789F"/>
<mask id="mask1_1643_1064" style="mask-type:luminance" maskUnits="userSpaceOnUse" x="110" y="134" width="5" height="6">
<path d="M110.063 134.755H114.063V139.572H110.063V134.755Z" fill="white"/>
</mask>
<g mask="url(#mask1_1643_1064)">
<path d="M110.672 134.843C110.672 134.849 109.235 137.755 112.953 139.187C112.953 139.192 114.448 136.369 110.672 134.843Z" fill="#5A789F"/>
</g>
<path d="M89.2868 140.073C89.2868 140.083 87.8649 143.125 91.5628 144.114C91.5628 144.119 93.0368 141.135 89.2868 140.073Z" fill="#5A789F"/>
<path d="M108.828 172.406C108.828 172.406 111.531 169.27 107.636 166.64C107.63 166.645 104.906 169.656 108.828 172.406Z" fill="#5A789F"/>
<path d="M114.901 149.755C114.901 149.765 115.73 145.906 110.829 145.083C110.823 145.093 109.907 148.776 114.901 149.755Z" fill="#5A789F"/>
<path d="M112.87 169.406C112.87 169.395 116.709 169.218 116.511 165.427C116.511 165.416 112.756 165.505 112.87 169.406Z" fill="#5A789F"/>
<path d="M97.8334 187.119C97.8334 187.109 101.641 186.703 101.432 182.921C101.432 182.916 97.7032 183.239 97.8334 187.119Z" fill="#5A789F"/>
<path d="M106.156 154.984C106.156 154.974 110 154.677 109.797 150.89C109.797 150.88 106.031 151.088 106.156 154.984Z" fill="#5A789F"/>
<path d="M108.443 143.921C108.443 143.906 112.303 143.651 112.099 139.864C112.099 139.849 108.323 140.02 108.443 143.921Z" fill="#5A789F"/>
<path d="M105.458 172.609C105.458 172.619 103.646 176.432 108.448 178.151C108.448 178.161 110.328 174.442 105.458 172.609Z" fill="#5A789F"/>
<path d="M100.5 157.526C100.495 157.536 98.6878 161.39 103.5 162.984C103.5 162.994 105.386 159.218 100.5 157.526Z" fill="#5A789F"/>
<path d="M101.412 153.531C101.412 153.541 100.36 156.864 104.568 157.744C104.568 157.755 105.693 154.484 101.412 153.531Z" fill="#5A789F"/>
<path d="M120.25 154.239C120.245 154.244 118.417 157.932 123.229 159.979C123.229 159.989 125.136 156.411 120.25 154.239Z" fill="#5A789F"/>
<path d="M121.047 187.239C121.047 187.239 118.761 190.494 122.948 192.921C122.948 192.921 125.282 189.807 121.047 187.239Z" fill="#5A789F"/>
<path d="M122.641 183.817C122.641 183.822 121.209 186.661 124.88 188.25C124.875 188.255 126.37 185.515 122.641 183.817Z" fill="#5A789F"/>
<path d="M119.276 192.229C119.276 192.234 117.464 195.958 122.235 197.916C122.229 197.927 124.12 194.317 119.276 192.229Z" fill="#5A789F"/>
<path d="M119.214 197.984C119.214 197.989 117.401 201.724 122.167 203.666C122.167 203.677 124.052 200.062 119.214 197.984Z" fill="#5A789F"/>
<path d="M116 176.859C116 176.843 111.365 176.458 110.808 181.072C110.808 181.062 115.318 181.531 116 176.859Z" fill="#5A789F"/>
<path d="M112.672 174.031C112.672 174.02 116.98 175.145 118.464 170.937C118.469 170.927 114.287 169.677 112.672 174.031Z" fill="#5A789F"/>
<path d="M125.224 165.046C125.224 165.036 129.521 166.437 131.057 162.359C131.063 162.349 126.896 160.817 125.224 165.046Z" fill="#5A789F"/>
<path d="M126.776 160.645C126.782 160.63 131.25 161.349 131.834 157.026C131.834 157.01 127.474 156.171 126.776 160.645Z" fill="#5A789F"/>
<path d="M126.958 155.76C126.958 155.75 131.406 156.656 132.219 152.385C132.219 152.375 127.886 151.338 126.958 155.76Z" fill="#5A789F"/>
<path d="M127.323 151.494C127.323 151.479 131.776 152.406 132.589 148.14C132.589 148.13 128.25 147.072 127.323 151.494Z" fill="#5A789F"/>
<path d="M144.016 141.713C144.016 141.697 139.844 143.781 142.834 148.687C142.834 148.671 146.974 146.812 144.016 141.713Z" fill="#5A789F"/>
<path d="M139.589 169.562C139.589 169.562 136.021 166.515 132.151 169.411C132.151 169.416 135.552 172.296 139.589 169.562Z" fill="#5A789F"/>
<path d="M136.693 172.651C136.698 172.651 132.677 170.171 129.458 173.692C129.458 173.697 133.313 176.052 136.693 172.651Z" fill="#5A789F"/>
<path d="M131.646 176.13C131.646 176.125 127.469 173.994 124.558 177.802C124.558 177.802 128.568 179.849 131.646 176.13Z" fill="#5A789F"/>
<path d="M137.849 150.411C137.849 150.401 134.459 152.484 137.599 156.192C137.599 156.187 140.98 154.286 137.849 150.411Z" fill="#5A789F"/>
<path d="M147.698 150.088C147.698 150.083 143.771 148.479 142.511 152.145C142.511 152.135 146.318 153.708 147.698 150.088Z" fill="#5A789F"/>
<path d="M139.807 146.171C139.807 146.166 137.386 148.156 140.344 150.947C140.339 150.942 142.776 149.093 139.807 146.171Z" fill="#5A789F"/>
<path d="M148.626 168.338C148.626 168.328 145.662 169.609 147.849 172.849C147.849 172.843 150.787 171.698 148.626 168.338Z" fill="#5A789F"/>
<path d="M151.495 165.838C151.495 165.833 148.542 167.052 150.724 170.317C150.724 170.307 153.662 169.224 151.495 165.838Z" fill="#5A789F"/>
<mask id="mask2_1643_1064" style="mask-type:luminance" maskUnits="userSpaceOnUse" x="118" y="134" width="5" height="6">
<path d="M118.063 134.755H122.063V139.572H118.063V134.755Z" fill="white"/>
</mask>
<g mask="url(#mask2_1643_1064)">
<path d="M120.214 134.755C120.214 134.755 117.844 136.953 120.756 139.411C120.756 139.411 123.136 137.338 120.214 134.755Z" fill="#5A789F"/>
</g>
<path d="M159.756 154.484C159.756 154.468 155.808 154.614 157.115 158.755C157.115 158.739 161 158.703 159.756 154.484Z" fill="#5A789F"/>
<path d="M162.125 175.843C162.125 175.838 159.807 177.536 162.615 180.375C162.615 180.369 164.943 178.812 162.125 175.843Z" fill="#5A789F"/>
<path d="M173.928 181.52C173.928 181.515 170.553 180.369 170.141 183.51C170.141 183.505 173.428 184.651 173.928 181.52Z" fill="#5A789F"/>
<path d="M170.417 167.312C170.422 167.296 166.396 166.083 166.167 169.927C166.172 169.916 170.099 171.13 170.417 167.312Z" fill="#5A789F"/>
<path d="M166.469 161.317C166.474 161.302 162.594 160.817 163.214 164.734C163.219 164.718 167.011 165.265 166.469 161.317Z" fill="#5A789F"/>
<path d="M172.443 185.239C172.448 185.239 169.323 183.349 167.787 186.01C167.787 186.01 170.818 187.838 172.443 185.239Z" fill="#5A789F"/>
<path d="M166.787 180.562C166.787 180.552 163.615 180.947 165.005 184.317C165.005 184.307 168.13 184.005 166.787 180.562Z" fill="#5A789F"/>
<path d="M154.625 150.416C154.625 150.411 152.068 151.895 154.657 154.937C154.657 154.932 157.214 153.588 154.625 150.416Z" fill="#5A789F"/>
<path d="M148.354 145.671C148.354 145.661 144.912 145.51 145.464 148.979C145.464 148.968 148.839 149.192 148.354 145.671Z" fill="#5A789F"/>
<path d="M163.209 183.276C163.209 183.265 160.032 183.75 161.422 187.104C161.428 187.093 164.558 186.713 163.209 183.276Z" fill="#5A789F"/>
<path d="M168.162 191.604C168.162 191.614 166.146 188.822 163.021 190.156C163.021 190.161 164.932 192.838 168.162 191.604Z" fill="#5A789F"/>
<path d="M165.422 194.239C165.422 194.244 164.152 191.265 160.563 191.828C160.563 191.843 161.735 194.708 165.422 194.239Z" fill="#5A789F"/>
<path d="M159.656 199.109C159.656 199.119 158.375 196.151 154.771 196.849C154.771 196.859 155.948 199.718 159.656 199.109Z" fill="#5A789F"/>
<path d="M165.261 200.015C165.255 200.026 163.985 197.062 160.396 197.671C160.396 197.677 161.568 200.536 165.261 200.015Z" fill="#5A789F"/>
<path d="M170.417 192.927C170.422 192.916 167.021 192.286 167.084 195.583C167.089 195.578 170.407 196.234 170.417 192.927Z" fill="#5A789F"/>
<path d="M171.271 198.484C171.271 198.489 168.724 196.031 166.151 197.979C166.151 197.984 168.594 200.349 171.271 198.484Z" fill="#5A789F"/>
<path d="M170.594 188.328C170.594 188.333 167.74 186.099 165.62 188.406C165.62 188.406 168.37 190.557 170.594 188.328Z" fill="#5A789F"/>
<path d="M150.063 190.838C150.063 190.843 148.214 188.046 144.907 189.458C144.907 189.463 146.646 192.161 150.063 190.838Z" fill="#5A789F"/>
<path d="M153.714 189.796C153.714 189.802 151.875 186.979 148.563 188.322C148.563 188.328 150.297 191.041 153.714 189.796Z" fill="#5A789F"/>
<path d="M156.678 187.968C156.678 187.974 155.016 185.401 152.016 186.552C152.016 186.562 153.584 189.041 156.678 187.968Z" fill="#5A789F"/>
<path d="M157.844 185.156C157.844 185.161 155.933 183.671 154.407 185.281C154.407 185.281 156.24 186.734 157.844 185.156Z" fill="#5A789F"/>
<path d="M149.829 180.953C149.829 180.942 145.948 182.156 148.141 186.27C148.141 186.255 151.974 185.197 149.829 180.953Z" fill="#5A789F"/>
<path d="M153.063 179.916C153.063 179.911 149.938 180.885 151.776 184.229C151.776 184.224 154.865 183.369 153.063 179.916Z" fill="#5A789F"/>
<path d="M145.745 182.312C145.745 182.302 142.605 183.401 144.454 186.718C144.454 186.708 147.563 185.734 145.745 182.312Z" fill="#5A789F"/>
<path d="M132.354 159.234C132.349 159.229 129.932 161.354 132.891 164.01C132.891 164.01 135.323 162.02 132.354 159.234Z" fill="#5A789F"/>
<path d="M125.907 166.197C125.907 166.192 123.49 168.411 126.454 170.974C126.454 170.974 128.881 168.89 125.907 166.197Z" fill="#5A789F"/>
<path d="M134.328 154.234C134.328 154.229 131.219 156.968 135.089 160.432C135.089 160.427 138.214 157.875 134.328 154.234Z" fill="#5A789F"/>
<path d="M135.511 165.76C135.511 165.765 139.151 168.39 142.136 165.255C142.136 165.255 138.657 162.489 135.511 165.76Z" fill="#5A789F"/>
<path d="M126.62 186.52C126.62 186.5 132.563 185.526 130.959 179.546C130.959 179.526 125.11 180.359 126.62 186.52Z" fill="#5A789F"/>
<path d="M152.625 170.333C152.631 170.317 158.599 172.312 159.855 166.869C159.86 166.854 154.058 164.625 152.625 170.333Z" fill="#5A789F"/>
<path d="M157.313 164.958C157.318 164.927 163.308 165.567 162.469 159.63C162.474 159.599 156.599 158.791 157.313 164.958Z" fill="#5A789F"/>
<path d="M155.016 183.63C155.016 183.604 160.797 183.119 158.891 177.161C158.896 177.135 153.193 177.479 155.016 183.63Z" fill="#5A789F"/>
<path d="M164.495 180.015C164.495 180 168.745 179.869 167.344 175.463C167.349 175.442 163.162 175.474 164.495 180.015Z" fill="#5A789F"/>
<path d="M156.829 176.489C156.829 176.474 161.11 176.192 159.698 171.765C159.698 171.744 155.48 171.927 156.829 176.489Z" fill="#5A789F"/>
<path d="M170.172 180.244C170.178 180.213 175.23 179.328 172.339 173.708C172.339 173.677 167.323 174.474 170.172 180.244Z" fill="#5A789F"/>
<path d="M149.776 156.333C149.776 156.317 154.334 154.062 150.292 148.802C150.292 148.781 145.74 150.953 149.776 156.333Z" fill="#5A789F"/>
<path d="M128.428 142.822C128.428 142.807 132.704 142.166 131.422 137.849C131.428 137.833 127.214 138.385 128.428 142.822Z" fill="#5A789F"/>
<path d="M139.813 145.031C139.807 145.036 141.88 141.927 137.505 139.265C137.505 139.27 135.391 142.255 139.813 145.031Z" fill="#5A789F"/>
<path d="M142.683 165.687C142.688 165.666 148.703 167.427 149.964 161.833C149.969 161.817 144.115 159.833 142.683 165.687Z" fill="#5A789F"/>
<path d="M137.708 161.88C137.708 161.88 141.078 164.359 143.839 161.494C143.844 161.5 140.625 158.895 137.708 161.88Z" fill="#5A789F"/>
<path d="M140.052 158.458C140.052 158.453 143.74 160.572 145.917 157.354C145.922 157.354 142.375 155.104 140.052 158.458Z" fill="#5A789F"/>
<path d="M150.459 156.791C150.459 156.776 146.402 156.75 147.224 160.864C147.224 160.854 151.198 160.968 150.459 156.791Z" fill="#5A789F"/>
<path d="M160.693 171.052C160.698 171.02 166.604 171.77 165.719 165.947C165.724 165.921 159.932 165.005 160.693 171.052Z" fill="#5A789F"/>
<path d="M162.266 174.635C162.271 174.625 167.933 176.75 168.964 171.651C168.969 171.635 163.474 169.286 162.266 174.635Z" fill="#5A789F"/>
<path d="M141.823 155.057C141.823 155.057 145.511 157.218 147.688 154.041C147.688 154.036 144.146 151.744 141.823 155.057Z" fill="#5A789F"/>
<path d="M131.402 186.697C131.402 186.692 127.907 185.963 127.188 189.401C127.188 189.395 130.589 190.161 131.402 186.697Z" fill="#5A789F"/>
<path d="M125.938 196.406C125.938 196.401 130.047 197.39 131.146 193.401C131.146 193.395 127.152 192.291 125.938 196.406Z" fill="#5A789F"/>
<path d="M126.104 199.645C126.104 199.64 130.141 201.213 131.995 197.343C131.995 197.343 128.094 195.651 126.104 199.645Z" fill="#5A789F"/>
<path d="M126.458 192.614C126.458 192.609 129.979 193.453 130.901 190.036C130.901 190.031 127.479 189.093 126.458 192.614Z" fill="#5A789F"/>
<path d="M147.167 167.26C147.167 167.255 143.964 165.573 142.36 168.51C142.36 168.51 145.459 170.156 147.167 167.26Z" fill="#5A789F"/>
<path d="M141.594 171.974C141.599 171.974 144.735 173.802 146.652 171.036C146.657 171.036 143.636 169.109 141.594 171.974Z" fill="#5A789F"/>
<path d="M150.089 173.192C150.089 173.192 153.209 175.119 155.12 172.468C155.12 172.468 152.125 170.442 150.089 173.192Z" fill="#5A789F"/>
<path d="M148.63 175.609C148.63 175.614 151.511 177.812 153.86 175.447C153.86 175.453 151.11 173.161 148.63 175.609Z" fill="#5A789F"/>
<path d="M146.87 178.541C146.875 178.541 149.756 180.713 152.104 178.312C152.104 178.312 149.354 176.057 146.87 178.541Z" fill="#5A789F"/>
<path d="M134.24 176.062C134.24 176.067 134.115 179.156 138.115 179.692C138.115 179.703 138.339 176.661 134.24 176.062Z" fill="#5A789F"/>
<path d="M133.833 179.791C133.828 179.802 133.682 183.468 138.432 184.093C138.432 184.104 138.698 180.484 133.833 179.791Z" fill="#5A789F"/>
<path d="M140.599 175.849C140.599 175.849 144.011 177.093 145.167 173.927C145.167 173.921 141.854 172.578 140.599 175.849Z" fill="#5A789F"/>
<mask id="mask3_1643_1064" style="mask-type:luminance" maskUnits="userSpaceOnUse" x="50" y="186" width="10" height="6">
<path d="M50.7295 186.239H59.3962V191.572H50.7295V186.239Z" fill="white"/>
</mask>
<g mask="url(#mask3_1643_1064)">
<path d="M50.8335 186.526C50.8387 186.557 50.7762 192.151 58.4012 191.218C58.4064 191.255 58.5887 185.401 50.8335 186.526Z" fill="#5A789F"/>
</g>
<path d="M69.912 159.953C69.912 159.963 65.1151 164.802 69.4276 169.099C69.4224 169.109 74.2245 164.51 69.912 159.953Z" fill="#5A789F"/>
<path d="M154.125 156.015C154.125 155.989 149.219 158.828 153.485 164.916C153.485 164.885 158.37 162.364 154.125 156.015Z" fill="#5A789F"/>
<path d="M135.078 141.687C135.073 141.666 130.109 145.01 134.453 150.854C134.453 150.833 139.401 147.802 135.078 141.687Z" fill="#5A789F"/>
<path d="M79.7713 149.531C79.7713 149.531 76.8806 152.125 79.1983 154.843C79.1983 154.843 82.0785 152.39 79.7713 149.531Z" fill="#5A789F"/>
<path d="M79.8495 146.88C79.8495 146.89 79.2557 150.192 83.3807 150.546C83.386 150.557 84.0526 147.26 79.8495 146.88Z" fill="#5A789F"/>
<path d="M84.9276 142.796C84.9224 142.812 81.2765 148.125 87.0213 151.546C87.0213 151.567 90.7245 146.416 84.9276 142.796Z" fill="#5A789F"/>
<path d="M55.9585 172.75C55.9637 172.765 56.7554 176.921 62.7554 175.312C62.7606 175.333 62.0835 170.984 55.9585 172.75Z" fill="#5A789F"/>
<path d="M78.7453 179.833C78.7505 179.854 78.5317 184.291 84.2869 184.401C84.2921 184.416 84.6307 179.932 78.7453 179.833Z" fill="#5A789F"/>
<path d="M74.4897 150.651C74.4897 150.671 70.1824 156.171 75.672 159.958C75.672 159.979 80.0209 154.666 74.4897 150.651Z" fill="#5A789F"/>
<path d="M51.8545 194.151C51.8597 194.161 54.1045 198.937 61.6097 195.947C61.6201 195.963 59.5264 190.869 51.8545 194.151Z" fill="#5A789F"/>
<path d="M60.5629 184.812C60.5681 184.849 57.8598 190.692 64.5421 192.729C64.5473 192.765 67.3338 186.911 60.5629 184.812Z" fill="#5A789F"/>
<path d="M82.5107 189.01C82.516 189.02 83.5107 192.593 88.3076 191.192C88.3076 191.197 87.4378 187.562 82.5107 189.01Z" fill="#5A789F"/>
<path d="M83.3128 162.088C83.3076 162.088 79.7815 165.104 82.9482 168.156C82.9482 168.161 86.4742 165.307 83.3128 162.088Z" fill="#5A789F"/>
<path d="M80.0474 196.552C80.0474 196.557 78.6359 192.375 73.1099 194.52C73.1151 194.531 74.3442 198.51 80.0474 196.552Z" fill="#5A789F"/>
<path d="M80.6828 159.171C80.6828 159.171 77.6099 161.651 80.1203 164.296C80.1203 164.296 83.1828 161.953 80.6828 159.171Z" fill="#5A789F"/>
<path d="M86.9585 155.349C86.9585 155.359 85.5366 151.859 80.8491 153.963C80.8543 153.974 82.1147 157.286 86.9585 155.349Z" fill="#5A789F"/>
<path d="M89.4588 159.505C89.4588 159.515 88.0369 155.984 83.3442 158.01C83.3494 158.02 84.6099 161.369 89.4588 159.505Z" fill="#5A789F"/>
<path d="M92.0734 162.604C92.0734 162.609 91.0786 160.125 87.7817 161.463C87.7869 161.468 88.6724 163.859 92.0734 162.604Z" fill="#5A789F"/>
<path d="M95.1879 161.145C95.1827 161.145 97.5056 159.151 95.2296 157.031C95.2296 157.031 92.9119 158.942 95.1879 161.145Z" fill="#5A789F"/>
<path d="M98.9901 177.734C98.9901 177.734 101.303 175.796 99.0369 173.614C99.0369 173.614 96.7244 175.463 98.9901 177.734Z" fill="#5A789F"/>
<path d="M138.323 187.76C138.323 187.765 138.808 185.135 135.391 184.343C135.391 184.349 134.849 186.88 138.323 187.76Z" fill="#5A789F"/>
<path d="M95.0786 165.463C95.0786 165.463 94.0838 162.958 90.7817 164.244C90.7817 164.25 91.6724 166.661 95.0786 165.463Z" fill="#5A789F"/>
<path d="M90.8443 156.052C90.8443 156.052 92.7609 153.984 90.4016 152.333C90.4016 152.333 88.4745 154.322 90.8443 156.052Z" fill="#5A789F"/>
<path d="M93.3179 167.427C93.3179 167.427 94.6981 169.489 97.5262 167.948C97.5314 167.953 96.245 165.849 93.3179 167.427Z" fill="#5A789F"/>
<path d="M92.5889 158.51C92.5889 158.505 95.016 156.942 93.3389 154.698C93.3389 154.698 90.9378 156.182 92.5889 158.51Z" fill="#5A789F"/>
<path d="M74.4485 173.885C74.4432 173.88 70.5995 175.989 72.3807 179.463C72.3755 179.458 76.1776 177.515 74.4485 173.885Z" fill="#5A789F"/>
<path d="M76.3386 177.573C76.3386 177.567 72.4897 179.625 74.2709 183.135C74.2657 183.13 78.073 181.239 76.3386 177.573Z" fill="#5A789F"/>
<path d="M77.1047 181.885C77.1047 181.885 74.3442 184.052 76.5526 186.463C76.5526 186.463 79.3078 184.416 77.1047 181.885Z" fill="#5A789F"/>
<path d="M65.167 198.218C65.167 198.218 63.4014 196.031 60.1514 198.349C60.1514 198.349 61.7816 200.479 65.167 198.218Z" fill="#5A789F"/>
<path d="M73.9481 201.849C73.9481 201.849 72.172 199.552 68.896 201.76C68.9012 201.76 70.5418 204 73.9481 201.849Z" fill="#5A789F"/>
<path d="M68.2867 195.864C68.2867 195.875 69.7451 192.942 66.3284 192.088C66.3284 192.099 64.8232 194.901 68.2867 195.864Z" fill="#5A789F"/>
<path d="M71.8494 197.349C71.8494 197.359 73.3129 194.437 69.8858 193.515C69.8858 193.526 68.3754 196.317 71.8494 197.349Z" fill="#5A789F"/>
<path d="M72.8494 188.875C72.8547 188.875 71.2401 185.755 66.9067 188.088C66.9119 188.088 68.3651 191.083 72.8494 188.875Z" fill="#5A789F"/>
<path d="M72.9014 169.994C72.9014 169.994 69.6827 171.927 71.3389 174.776C71.3389 174.776 74.5212 172.984 72.9014 169.994Z" fill="#5A789F"/>
<path d="M84.0732 198.916C84.0732 198.916 82.2868 196.703 79.2139 198.802C79.2139 198.802 80.8753 200.963 84.0732 198.916Z" fill="#5A789F"/>
<path d="M83.7502 220.02C83.7554 220.02 81.9741 217.77 78.9116 219.796C78.9116 219.791 80.5679 222 83.7502 220.02Z" fill="#5A789F"/>
<path d="M60.6099 181.38C60.6099 181.385 61.0786 184.255 65.0161 183.015C65.0161 183.026 64.6359 180.099 60.6099 181.38Z" fill="#5A789F"/>
<path d="M79.5576 155.333C79.5524 155.328 76.0993 157.192 77.667 160.328C77.6618 160.322 81.0784 158.609 79.5576 155.333Z" fill="#5A789F"/>
<path d="M102.006 199.849C102.006 199.849 99.2555 197.25 95.792 200.171C95.792 200.171 98.391 202.703 102.006 199.849Z" fill="#5A789F"/>
<path d="M84.9065 204.859C84.9065 204.859 81.7763 206.937 84.0159 209.854C84.0159 209.854 87.1253 207.906 84.9065 204.859Z" fill="#5A789F"/>
<path d="M88.3595 205.859C88.3595 205.859 85.948 207.437 87.672 209.713C87.6667 209.713 90.0678 208.234 88.3595 205.859Z" fill="#5A789F"/>
<path d="M111.823 184.604C111.823 184.599 108.334 185.911 109.891 189.375C109.886 189.369 113.334 188.187 111.823 184.604Z" fill="#5A789F"/>
<path d="M80.1982 185.77C80.1982 185.776 81.4743 188.494 85.2191 186.849C85.2243 186.854 84.0576 184.083 80.1982 185.77Z" fill="#5A789F"/>
<path d="M86.6201 193.177C86.6253 193.182 88.3128 196.765 93.167 194.77C93.167 194.776 91.6201 191.114 86.6201 193.177Z" fill="#5A789F"/>
<path d="M91.1201 196.968C91.1253 196.968 93.4482 200.286 97.9691 197.76C97.9691 197.765 95.7972 194.359 91.1201 196.968Z" fill="#5A789F"/>
<path d="M102.308 195.822C102.308 195.822 105.459 192.921 101.975 189.89C101.975 189.89 98.8183 192.666 102.308 195.822Z" fill="#5A789F"/>
<path d="M97.4431 193.541C97.4431 193.546 100.224 190.286 96.3285 187.724C96.3285 187.729 93.5316 190.849 97.4431 193.541Z" fill="#5A789F"/>
<path d="M93.0209 190.5C93.0209 190.5 95.6251 187.604 92.2292 185.255C92.2292 185.26 89.6147 188.036 93.0209 190.5Z" fill="#5A789F"/>
<path d="M88.8339 187.52C88.8339 187.526 91.261 184.479 87.7193 182.39C87.7193 182.395 85.2662 185.307 88.8339 187.52Z" fill="#5A789F"/>
<path d="M95.6931 176.302C95.6931 176.307 98.8598 172.796 94.7244 169.942C94.7244 169.947 91.5421 173.312 95.6931 176.302Z" fill="#5A789F"/>
<path d="M90.5472 173.26C90.5472 173.265 93.9482 170.109 90.3857 167.057C90.3857 167.062 86.9847 170.088 90.5472 173.26Z" fill="#5A789F"/>
<path d="M86.3649 170.385C86.3649 170.385 89.7763 167.75 86.9534 164.687C86.9482 164.687 83.5576 167.213 86.3649 170.385Z" fill="#5A789F"/>
<path d="M165.74 201.359C165.74 201.375 167.219 205.463 162.089 205.651C162.089 205.666 160.531 201.567 165.74 201.359Z" fill="#5A789F"/>
<path d="M170.245 200.781C170.245 200.796 171.657 204.234 167.427 204.458C167.422 204.474 165.948 201.041 170.245 200.781Z" fill="#5A789F"/>
<path d="M173.88 199.062C173.88 199.072 176.104 202.343 172.479 203.369C172.479 203.385 170.224 200.166 173.88 199.062Z" fill="#5A789F"/>
<path d="M144.49 203.536C144.485 203.546 143.828 199.036 149.604 199.505C149.604 199.52 150.386 203.812 144.49 203.536Z" fill="#5A789F"/>
<path d="M151.375 204.994C151.37 205.01 150.214 200.677 155.62 200.713C155.62 200.729 156.886 204.854 151.375 204.994Z" fill="#5A789F"/>
<path d="M157.292 205.447C157.292 205.463 155.745 201.546 160.49 201.171C160.49 201.187 162.109 204.921 157.292 205.447Z" fill="#5A789F"/>
<path d="M90.667 183.619C90.667 183.614 94.6618 186.046 98.2816 181.895C98.2868 181.89 94.4535 179.312 90.667 183.619Z" fill="#5A789F"/>
<path d="M85.3286 181.036C85.3286 181.026 89.313 183.354 92.9276 179.13C92.9276 179.125 89.0994 176.651 85.3286 181.036Z" fill="#5A789F"/>
<path d="M69.0786 191.552C69.0786 191.552 71.1515 194.635 75.6567 191.984C75.6619 191.989 73.7192 188.796 69.0786 191.552Z" fill="#5A789F"/>
<path d="M63.3022 200.546C63.3022 200.541 66.1616 202.989 70.0522 199.619C70.0522 199.619 67.3283 197.062 63.3022 200.546Z" fill="#5A789F"/>
<mask id="mask4_1643_1064" style="mask-type:luminance" maskUnits="userSpaceOnUse" x="50" y="196" width="9" height="5">
<path d="M50.7295 196.906H58.0628V200.906H50.7295V196.906Z" fill="white"/>
</mask>
<g mask="url(#mask4_1643_1064)">
<path d="M50.9536 200.005C50.9536 200 53.7765 202.224 57.6255 198.718C57.6255 198.713 54.9328 196.375 50.9536 200.005Z" fill="#5A789F"/>
</g>
<path d="M82.2505 177.869C82.2557 177.864 85.3026 179.583 88.063 176.296C88.063 176.291 85.1359 174.474 82.2505 177.869Z" fill="#5A789F"/>
<path d="M77.9482 174.401C77.9535 174.401 80.3701 176.828 84.0368 174C84.0368 174 81.7399 171.463 77.9482 174.401Z" fill="#5A789F"/>
<path d="M71.5523 211.703C71.5523 211.713 70.8596 215.635 75.844 215.807C75.844 215.817 76.6304 211.901 71.5523 211.703Z" fill="#5A789F"/>
<path d="M90.4845 214.625C90.4845 214.63 91.2085 211.276 87.0522 210.843C87.0522 210.849 86.2502 214.067 90.4845 214.625Z" fill="#5A789F"/>
<path d="M73.8128 217.927C73.818 217.921 71.1878 216 68.292 218.921C68.292 218.911 70.7816 220.833 73.8128 217.927Z" fill="#5A789F"/>
<path d="M97.068 211.802C97.068 211.807 98.5524 209.343 95.5628 207.994C95.5628 208 94.042 210.359 97.068 211.802Z" fill="#5A789F"/>
<path d="M86.2244 215.526C86.2244 215.536 87.063 211.677 82.2869 211.239C82.2869 211.25 81.3598 214.942 86.2244 215.526Z" fill="#5A789F"/>
<path d="M81.2556 216.026C81.2556 216.036 82.0577 212.281 77.4222 211.937C77.4222 211.942 76.5316 215.526 81.2556 216.026Z" fill="#5A789F"/>
<path d="M91.2766 209.239C91.2766 209.25 90.3703 212.401 94.3078 213.114C94.3078 213.119 95.2922 210.015 91.2766 209.239Z" fill="#5A789F"/>
<path d="M65.6147 183.177C65.6147 183.192 65.995 187.119 71.2814 185.875C71.2866 185.89 71.0158 181.864 65.6147 183.177Z" fill="#5A789F"/>
<path d="M64.6514 179.208C64.6566 179.218 65.1566 182.875 70.1305 181.5C70.1305 181.515 69.7347 177.765 64.6514 179.208Z" fill="#5A789F"/>
<path d="M64.0889 175.083C64.0889 175.093 64.542 178.38 69.0107 177.083C69.016 177.099 68.6566 173.739 64.0889 175.083Z" fill="#5A789F"/>
<path d="M65.5055 169.854C65.5107 169.859 64.6565 172.599 67.9899 172.755C67.9951 172.765 68.8961 170.041 65.5055 169.854Z" fill="#5A789F"/>
<path d="M53.938 178.625C53.938 178.63 54.7661 180.895 58.089 179.286C58.089 179.291 57.339 176.963 53.938 178.625Z" fill="#5A789F"/>
<path d="M74.8911 171.474C74.8911 171.474 77.313 173.849 80.9692 170.963C80.9692 170.963 78.6724 168.479 74.8911 171.474Z" fill="#5A789F"/>
<path d="M72.9795 166.911C72.9795 166.921 73.9795 170.078 78.3805 168.411C78.3805 168.421 77.4899 165.171 72.9795 166.911Z" fill="#5A789F"/>
<path d="M59.6255 166.13C59.6307 166.161 57.6255 171.052 63.4171 171.656C63.4223 171.682 65.5005 166.76 59.6255 166.13Z" fill="#5A789F"/>
<path d="M64.224 160.625C64.224 160.635 61.3282 164.567 65.5053 166.442C65.5053 166.453 68.4376 162.619 64.224 160.625Z" fill="#5A789F"/>
<path d="M72.4272 163.078C72.4325 163.083 72.9116 165.734 76.5106 164.656C76.5106 164.661 76.1147 161.963 72.4272 163.078Z" fill="#5A789F"/>
<path d="M142.36 213.302C142.36 213.307 143.391 210.744 147.448 212.213C147.448 212.218 146.542 214.692 142.36 213.302Z" fill="#5A789F"/>
<path d="M145.474 216.484C145.474 216.489 145.448 213.697 149.688 213.953C149.688 213.963 149.813 216.63 145.474 216.484Z" fill="#5A789F"/>
<path d="M149.698 217.187C149.698 217.197 149.063 214.421 153.183 214C153.183 214.005 153.902 216.651 149.698 217.187Z" fill="#5A789F"/>
<path d="M154.079 217.578C154.079 217.583 152.995 214.88 156.917 213.968C156.917 213.979 158.068 216.546 154.079 217.578Z" fill="#5A789F"/>
<path d="M158.349 217.02C158.349 217.031 157.615 214.276 161.682 213.854C161.682 213.864 162.495 216.479 158.349 217.02Z" fill="#5A789F"/>
<path d="M162.469 217.39C162.464 217.401 162.104 213.994 167.261 214.218C167.261 214.234 167.745 217.442 162.469 217.39Z" fill="#5A789F"/>
<path d="M152.24 225.849C152.24 225.833 156.255 223.718 160.261 228.687C160.261 228.671 156.453 230.838 152.24 225.849Z" fill="#5A789F"/>
<path d="M138.766 212.375C138.766 212.38 137.12 209.244 140.698 206.916C140.698 206.927 142.386 209.906 138.766 212.375Z" fill="#5A789F"/>
<path d="M135.532 214.296C135.532 214.296 133.131 211.864 135.808 208.307C135.808 208.307 138.219 210.604 135.532 214.296Z" fill="#5A789F"/>
<path d="M150.86 211.828C150.865 211.817 146.339 211.859 146.579 207.224C146.579 207.213 151.006 207.109 150.86 211.828Z" fill="#5A789F"/>
<path d="M156.511 212.291C156.516 212.281 152 212.234 152.245 207.645C152.245 207.635 156.662 207.619 156.511 212.291Z" fill="#5A789F"/>
<mask id="mask5_1643_1064" style="mask-type:luminance" maskUnits="userSpaceOnUse" x="175" y="199" width="5" height="5">
<path d="M175.396 199.729H179.708V203.531H175.396V199.729Z" fill="white"/>
</mask>
<g mask="url(#mask5_1643_1064)">
<path d="M179.547 199.968C179.547 199.984 180.912 203.802 175.74 203.296C175.74 203.312 174.302 199.447 179.547 199.968Z" fill="#5A789F"/>
</g>
<path d="M178.479 193.01C178.469 193.036 179.157 198.109 172.12 196.234C172.115 196.26 171.318 191.005 178.479 193.01Z" fill="#5A789F"/>
<path d="M160.933 211.994C160.933 211.989 157.49 211.89 157.677 208.416C157.677 208.406 161.047 208.453 160.933 211.994Z" fill="#5A789F"/>
<path d="M166.542 210.875C166.542 210.869 163.037 211.5 162.204 208.01C162.204 208.005 165.61 207.328 166.542 210.875Z" fill="#5A789F"/>
<path d="M170.875 210.239C170.875 210.229 167.386 210.791 166.552 207.317C166.552 207.312 169.948 206.708 170.875 210.239Z" fill="#5A789F"/>
<path d="M175.443 208.14C175.448 208.13 172.5 209.734 170.235 206.781C170.235 206.77 173.073 205.119 175.443 208.14Z" fill="#5A789F"/>
<path d="M156.156 223.135C156.156 223.125 152.526 223.687 152.052 220.161C152.052 220.151 155.589 219.552 156.156 223.135Z" fill="#5A789F"/>
<path d="M152.469 229.02C152.469 229.015 148.724 229.171 148.833 225.656C148.833 225.651 152.495 225.447 152.469 229.02Z" fill="#5A789F"/>
<path d="M146.953 227.927C146.953 227.927 143.276 226.895 144.849 223.734C144.849 223.734 148.474 224.687 146.953 227.927Z" fill="#5A789F"/>
<path d="M142.214 225.963C142.219 225.968 139.073 223.906 141.844 221.479C141.844 221.484 144.974 223.447 142.214 225.963Z" fill="#5A789F"/>
<path d="M137.402 223.812C137.402 223.817 135.693 220.718 139.553 219.859C139.553 219.864 141.313 222.843 137.402 223.812Z" fill="#5A789F"/>
<path d="M151.901 222.703C151.901 222.698 148.266 223.302 147.787 219.76C147.792 219.75 151.333 219.104 151.901 222.703Z" fill="#5A789F"/>
<path d="M160.646 222.572C160.646 222.567 157.026 223.067 156.552 219.562C156.552 219.552 160.083 219.01 160.646 222.572Z" fill="#5A789F"/>
<path d="M165.552 220.531C165.552 220.52 162.36 222.093 160.37 219.088C160.37 219.078 163.448 217.468 165.552 220.531Z" fill="#5A789F"/>
<path d="M178.453 206.015C178.453 206.005 176.271 207.442 174.198 205.213C174.198 205.208 176.292 203.734 178.453 206.015Z" fill="#5A789F"/>
<path d="M52.4536 202.948C52.4536 202.932 55.9953 206.692 62.0474 202.187C62.0526 202.177 58.6776 198.208 52.4536 202.948Z" fill="#5A789F"/>
<path d="M62.8232 215.276C62.8232 215.27 65.7607 218.828 71.0212 215.333C71.0264 215.328 68.2503 211.645 62.8232 215.276Z" fill="#5A789F"/>
<path d="M69.1514 222.026C69.1514 222.015 72.5107 225.156 77.1253 221.427C77.1253 221.421 73.9274 218.187 69.1514 222.026Z" fill="#5A789F"/>
<path d="M66.7505 209.536C66.7453 209.526 71.0317 209.734 72.1411 205.38C72.1411 205.369 67.9745 205.083 66.7505 209.536Z" fill="#5A789F"/>
<path d="M78.8806 209.817C78.8806 209.812 83.115 208.286 81.7764 204.208C81.7712 204.203 77.6046 205.635 78.8806 209.817Z" fill="#5A789F"/>
<path d="M72.7554 210.734C72.7502 210.724 77.6773 210.01 76.9065 205.349C76.9065 205.338 72.0732 205.979 72.7554 210.734Z" fill="#5A789F"/>
<path d="M62.0942 207.291C62.0942 207.281 65.3547 208.708 67.9536 205.145C67.9536 205.135 64.8182 203.635 62.0942 207.291Z" fill="#5A789F"/>
<path d="M59.1255 205.494C59.1255 205.489 61.5317 206.838 63.9015 204.109C63.9015 204.104 61.5942 202.697 59.1255 205.494Z" fill="#5A789F"/>
<path d="M74.7451 224.572C74.7451 224.572 77.1722 226.171 79.5628 223.578C79.5628 223.572 77.2399 221.932 74.7451 224.572Z" fill="#5A789F"/>
<path d="M90.2033 225.76C90.2033 225.76 94.1929 223.849 92.1096 219.953C92.1044 219.953 88.1617 221.755 90.2033 225.76Z" fill="#5A789F"/>
<path d="M96.4276 223.791C96.4224 223.791 100.251 220.807 96.3026 217.583C96.3026 217.583 92.4745 220.432 96.4276 223.791Z" fill="#5A789F"/>
<path d="M84.3598 226.26C84.3598 226.255 88.3598 225.796 88.1775 221.812C88.1775 221.807 84.2608 222.182 84.3598 226.26Z" fill="#5A789F"/>
<path d="M80.3179 226.307C80.3127 226.302 83.5262 226.187 83.745 222.979C83.745 222.974 80.6148 223.026 80.3179 226.307Z" fill="#5A789F"/>
<path d="M201.793 174.828C202.251 174.828 202.595 174.927 202.834 175.119C203.069 175.317 203.189 175.682 203.189 176.224V219.619C203.189 220.161 203.069 220.526 202.834 220.724C202.595 220.916 202.251 221.015 201.793 221.015H198.001C197.569 221.015 197.22 220.916 196.959 220.724C196.709 220.526 196.584 220.161 196.584 219.619V176.224C196.584 175.682 196.709 175.317 196.959 175.119C197.22 174.927 197.569 174.828 198.001 174.828H201.793Z" fill="#5A789F"/>
<path d="M233.702 181.286C234.254 181.286 234.624 181.411 234.806 181.661C234.999 181.901 235.098 182.239 235.098 182.682V186.64C235.098 187.057 234.999 187.401 234.806 187.661C234.624 187.911 234.254 188.036 233.702 188.036H219.16V193.682H231.681C232.233 193.682 232.603 193.807 232.785 194.057C232.978 194.296 233.077 194.635 233.077 195.078V198.89C233.077 199.307 232.978 199.651 232.785 199.911C232.603 200.161 232.233 200.286 231.681 200.286H219.16V211.578C219.16 212.192 219.062 212.588 218.869 212.765C218.671 212.932 218.296 213.015 217.744 213.015H212.973C212.431 213.015 212.062 212.89 211.869 212.64C211.671 212.38 211.577 212.036 211.577 211.619V182.682C211.577 182.239 211.671 181.901 211.869 181.661C212.062 181.411 212.431 181.286 212.973 181.286H233.702Z" fill="#5A789F"/>
<path d="M264.322 181.286C264.765 181.286 265.103 181.385 265.343 181.578C265.593 181.776 265.718 182.14 265.718 182.682V203.328C265.718 205.218 265.327 206.823 264.551 208.14C263.785 209.463 262.765 210.531 261.489 211.349C260.223 212.171 258.843 212.776 257.343 213.161C255.853 213.546 254.39 213.744 252.947 213.744C251.489 213.744 250.02 213.546 248.551 213.161C247.077 212.776 245.702 212.171 244.426 211.349C243.16 210.531 242.14 209.463 241.364 208.14C240.598 206.823 240.218 205.218 240.218 203.328V182.682C240.218 182.14 240.343 181.776 240.593 181.578C240.853 181.385 241.197 181.286 241.614 181.286H246.384C246.827 181.286 247.166 181.385 247.405 181.578C247.655 181.776 247.78 182.14 247.78 182.682V202.265C247.78 203.781 248.244 204.953 249.176 205.786C250.103 206.619 251.364 207.036 252.947 207.036C254.541 207.036 255.806 206.619 256.739 205.786C257.681 204.953 258.155 203.781 258.155 202.265V182.682C258.155 182.14 258.28 181.776 258.53 181.578C258.791 181.385 259.134 181.286 259.551 181.286H264.322Z" fill="#5A789F"/>
<path d="M293.91 181.286C294.452 181.286 294.817 181.411 295.015 181.661C295.207 181.901 295.306 182.239 295.306 182.682V186.703C295.306 187.119 295.207 187.463 295.015 187.724C294.817 187.974 294.452 188.099 293.91 188.099H286.535V211.619C286.535 212.161 286.41 212.531 286.16 212.724C285.921 212.921 285.582 213.015 285.14 213.015H280.369C279.952 213.015 279.608 212.921 279.348 212.724C279.098 212.531 278.973 212.161 278.973 211.619V188.099H271.535C270.994 188.099 270.624 187.974 270.431 187.724C270.233 187.463 270.14 187.119 270.14 186.703V182.682C270.14 182.239 270.233 181.901 270.431 181.661C270.624 181.411 270.994 181.286 271.535 181.286H293.91Z" fill="#5A789F"/>
<path d="M323.847 181.286C324.29 181.286 324.629 181.385 324.868 181.578C325.118 181.776 325.243 182.14 325.243 182.682V203.328C325.243 205.218 324.853 206.823 324.076 208.14C323.311 209.463 322.29 210.531 321.014 211.349C319.748 212.171 318.368 212.776 316.868 213.161C315.379 213.546 313.915 213.744 312.472 213.744C311.014 213.744 309.545 213.546 308.076 213.161C306.603 212.776 305.228 212.171 303.951 211.349C302.686 210.531 301.665 209.463 300.889 208.14C300.123 206.823 299.743 205.218 299.743 203.328V182.682C299.743 182.14 299.868 181.776 300.118 181.578C300.379 181.385 300.722 181.286 301.139 181.286H305.91C306.353 181.286 306.691 181.385 306.931 181.578C307.181 181.776 307.306 182.14 307.306 182.682V202.265C307.306 203.781 307.769 204.953 308.701 205.786C309.629 206.619 310.889 207.036 312.472 207.036C314.066 207.036 315.332 206.619 316.264 205.786C317.207 204.953 317.681 203.781 317.681 202.265V182.682C317.681 182.14 317.806 181.776 318.056 181.578C318.316 181.385 318.66 181.286 319.076 181.286H323.847Z" fill="#5A789F"/>
<path d="M357.957 211.474C358.191 211.796 358.238 212.135 358.103 212.494C357.978 212.843 357.691 213.015 357.248 213.015H351.561C350.978 213.015 350.509 212.906 350.165 212.682C349.832 212.463 349.488 212.093 349.144 211.578L343.936 203.807C343.712 203.515 343.566 203.203 343.498 202.869C343.441 202.536 343.415 202.031 343.415 201.349V197.494C343.415 197.036 343.504 196.692 343.686 196.453C343.879 196.218 344.254 196.099 344.811 196.099H345.769C346.962 196.099 348.024 195.734 348.957 194.994C349.884 194.244 350.353 193.307 350.353 192.182C350.353 190.932 349.92 189.942 349.061 189.203C348.212 188.468 347.165 188.099 345.915 188.099H339.498V211.619C339.498 212.161 339.379 212.531 339.144 212.724C338.905 212.921 338.561 213.015 338.103 213.015H333.332C332.915 213.015 332.582 212.921 332.332 212.724C332.092 212.531 331.978 212.161 331.978 211.619V182.744C331.978 182.286 332.066 181.942 332.248 181.703C332.425 181.468 332.79 181.349 333.332 181.349H345.478C347.238 181.349 348.696 181.463 349.853 181.682C351.019 181.906 352.009 182.255 352.832 182.724C353.649 183.182 354.399 183.755 355.082 184.432C355.967 185.296 356.655 186.385 357.144 187.703C357.629 189.026 357.873 190.453 357.873 191.994C357.873 193.661 357.519 195.156 356.811 196.474C356.103 197.796 355.233 198.89 354.207 199.765C353.175 200.63 352.165 201.239 351.165 201.599L357.957 211.474Z" fill="#5A789F"/>
<path d="M387.078 206.265C387.619 206.265 387.984 206.39 388.182 206.64C388.375 206.88 388.473 207.218 388.473 207.661V211.619C388.473 212.036 388.375 212.38 388.182 212.64C387.984 212.89 387.619 213.015 387.078 213.015H365.473C364.932 213.015 364.562 212.89 364.369 212.64C364.171 212.38 364.078 212.036 364.078 211.619V182.682C364.078 182.239 364.171 181.901 364.369 181.661C364.562 181.411 364.932 181.286 365.473 181.286H386.265C386.807 181.286 387.171 181.411 387.369 181.661C387.562 181.901 387.661 182.239 387.661 182.682V186.703C387.661 187.119 387.562 187.463 387.369 187.724C387.171 187.974 386.807 188.099 386.265 188.099H371.703V193.349H384.619C385.161 193.349 385.526 193.474 385.723 193.724C385.916 193.963 386.015 194.302 386.015 194.744V198.494C386.015 198.927 385.916 199.276 385.723 199.536C385.526 199.786 385.161 199.911 384.619 199.911H371.703V206.265H387.078Z" fill="#5A789F"/>
<path d="M201.793 212.466C202.251 212.466 202.595 212.565 202.834 212.757C203.069 212.955 203.189 213.32 203.189 213.861V257.257C203.189 257.799 203.069 258.164 202.834 258.361C202.595 258.554 202.251 258.653 201.793 258.653H198.001C197.569 258.653 197.22 258.554 196.959 258.361C196.709 258.164 196.584 257.799 196.584 257.257V213.861C196.584 213.32 196.709 212.955 196.959 212.757C197.22 212.565 197.569 212.466 198.001 212.466H201.793Z" fill="#5A789F"/>
<path d="M240.015 218.882C240.567 218.882 240.942 219.007 241.14 219.257C241.332 219.497 241.431 219.835 241.431 220.278V249.257C241.431 249.799 241.306 250.169 241.056 250.361C240.817 250.559 240.473 250.653 240.015 250.653H235.39C234.973 250.653 234.629 250.559 234.369 250.361C234.119 250.169 233.994 249.799 233.994 249.257V232.903L229.181 241.341C229.056 241.539 228.874 241.757 228.64 242.007C228.416 242.247 228.129 242.361 227.785 242.361H225.369C225.02 242.361 224.744 242.247 224.535 242.007C224.327 241.757 224.15 241.539 224.015 241.341L219.16 232.903V249.257C219.16 249.799 219.035 250.169 218.785 250.361C218.546 250.559 218.202 250.653 217.744 250.653H212.973C212.556 250.653 212.213 250.559 211.952 250.361C211.702 250.169 211.577 249.799 211.577 249.257V220.278C211.577 219.835 211.671 219.497 211.869 219.257C212.062 219.007 212.431 218.882 212.973 218.882H217.744C218.588 218.882 219.124 219.085 219.348 219.486C219.567 219.893 219.775 220.236 219.973 220.528L226.577 232.382L233.223 220.528C233.39 220.236 233.588 219.893 233.827 219.486C234.062 219.085 234.582 218.882 235.39 218.882H240.015Z" fill="#5A789F"/>
<path d="M262.337 244.049C262.879 244.049 263.243 244.174 263.441 244.424C263.634 244.664 263.733 245.002 263.733 245.445V249.257C263.733 249.674 263.634 250.018 263.441 250.278C263.243 250.528 262.879 250.653 262.337 250.653H248.691C248.15 250.653 247.78 250.528 247.587 250.278C247.389 250.018 247.295 249.674 247.295 249.257V245.445C247.295 245.002 247.389 244.664 247.587 244.424C247.78 244.174 248.15 244.049 248.691 244.049H251.733V225.632H248.795C248.238 225.632 247.863 225.507 247.67 225.257C247.488 224.997 247.4 224.653 247.4 224.236V220.32C247.4 219.877 247.488 219.539 247.67 219.299C247.863 219.049 248.238 218.924 248.795 218.924H262.191C262.733 218.924 263.097 219.049 263.295 219.299C263.488 219.539 263.587 219.877 263.587 220.32V224.236C263.587 224.653 263.488 224.997 263.295 225.257C263.097 225.507 262.733 225.632 262.191 225.632H259.295V244.049H262.337Z" fill="#5A789F"/>
<path d="M294.3 218.924C294.743 218.924 295.081 219.023 295.321 219.216C295.571 219.414 295.696 219.778 295.696 220.32V249.257C295.696 249.674 295.597 250.018 295.404 250.278C295.206 250.528 294.842 250.653 294.3 250.653H289.904C289.29 250.653 288.852 250.502 288.592 250.195C288.342 249.893 288.055 249.497 287.737 249.007L277.529 232.486V249.257C277.529 249.799 277.404 250.169 277.154 250.361C276.915 250.559 276.571 250.653 276.112 250.653H271.342C270.925 250.653 270.581 250.559 270.321 250.361C270.071 250.169 269.946 249.799 269.946 249.257V220.32C269.946 219.877 270.04 219.539 270.237 219.299C270.43 219.049 270.8 218.924 271.342 218.924H275.883C276.493 218.924 276.925 219.08 277.175 219.382C277.435 219.69 277.727 220.085 278.05 220.57L288.279 237.049V220.32C288.279 219.778 288.404 219.414 288.654 219.216C288.915 219.023 289.258 218.924 289.675 218.924H294.3Z" fill="#5A789F"/>
<path d="M315.026 218.924C316.468 218.924 317.942 219.148 319.442 219.591C320.953 220.023 322.349 220.674 323.63 221.549C324.922 222.414 325.968 223.528 326.776 224.903C327.578 226.268 327.984 227.893 327.984 229.778V239.799C327.984 241.705 327.578 243.341 326.776 244.716C325.968 246.08 324.922 247.205 323.63 248.091C322.349 248.966 320.953 249.611 319.442 250.028C317.942 250.445 316.468 250.653 315.026 250.653H304.213C303.672 250.653 303.302 250.528 303.109 250.278C302.911 250.018 302.817 249.674 302.817 249.257V220.32C302.817 219.877 302.911 219.539 303.109 219.299C303.302 219.049 303.672 218.924 304.213 218.924H315.026ZM320.422 230.445C320.422 228.945 319.922 227.773 318.922 226.924C317.922 226.065 316.619 225.632 315.026 225.632H310.401V243.945H315.026C316.619 243.945 317.922 243.528 318.922 242.695C319.922 241.861 320.422 240.674 320.422 239.132V230.445Z" fill="#5A789F"/>
</svg>
