<svg width="25" height="26" viewBox="0 0 25 26" fill="none" xmlns="http://www.w3.org/2000/svg">
<g clip-path="url(#clip0_1513_138)">
<path d="M21.312 10.8849C21.312 18.1653 12.312 24.4057 12.312 24.4057C12.312 24.4057 3.31201 18.1653 3.31201 10.8849C3.31201 8.40237 4.26022 6.02148 5.94805 4.26605C7.63588 2.51061 9.92506 1.52441 12.312 1.52441C14.699 1.52441 16.9881 2.51061 18.676 4.26605C20.3638 6.02148 21.312 8.40237 21.312 10.8849Z" stroke="#5A789F" stroke-width="2" stroke-linecap="round" stroke-linejoin="round"/>
<path d="M12.312 14.005C13.9689 14.005 15.312 12.608 15.312 10.8848C15.312 9.1616 13.9689 7.76465 12.312 7.76465C10.6552 7.76465 9.31201 9.1616 9.31201 10.8848C9.31201 12.608 10.6552 14.005 12.312 14.005Z" stroke="#5A789F" stroke-width="2" stroke-linecap="round" stroke-linejoin="round"/>
</g>
<defs>
<clipPath id="clip0_1513_138">
<rect width="24" height="24.9614" fill="white" transform="translate(0.312012 0.484375)"/>
</clipPath>
</defs>
</svg>
