<svg width="500" height="500" viewBox="0 0 500 500" fill="none" xmlns="http://www.w3.org/2000/svg">
<g clip-path="url(#clip0_1643_3031)">
<path d="M390.991 407.713C381.631 408.687 371.871 409.042 370.704 405.797C367.454 396.755 356.048 394.094 357.246 392.958C357.715 392.51 361.772 392.734 368.496 393.958C371.808 394.557 381.683 397.766 384.959 398.458C386.642 398.812 388.043 399.391 389.241 400.005C394.063 402.463 402.366 403.229 408.725 404.75C412.173 405.578 415.043 407.516 416.506 408C414.808 405.937 412.209 405.208 410.819 404.682C408.34 403.734 406.183 402.802 403.923 402.406C400.157 401.755 397.803 401.542 395.053 400.182C388.423 396.922 384.704 395.38 378.277 394.391C378.553 393.687 389.84 392.75 394.657 392.953C399.694 393.151 407.928 394.417 414.027 394.083C416.23 393.958 418.105 393.578 420.188 393.354C422.267 393.13 424.756 393.729 427.048 394.245C425.058 393.042 420.991 392.614 417.871 392.703C414.751 392.797 411.886 393.239 408.584 393.052C403.741 392.781 399.001 391.213 394.131 390.88C387.751 390.443 382.84 392.239 376.444 391.838C372.881 391.609 369.558 390.552 365.97 390.068C357.032 388.838 342.209 390.724 329.319 389.995C322.657 389.609 315.058 389.734 309.381 388.088C304.793 386.755 295.35 380.849 294.85 380.052C293.433 377.792 299.866 376.12 304.793 376.614C309.72 377.109 313.454 377.76 318.392 378.239C324.371 378.818 330.767 378.614 336.756 378.333C341.673 378.104 351.938 377.739 356.886 378.151C365.511 378.849 368.881 380.255 377.496 380.995C372.636 379.932 367.694 378.958 362.912 377.823C357.147 376.448 349.022 376.656 345.694 376.667C312.188 376.838 313.704 371.135 293.715 369.885C284.449 369.333 268.23 369.141 258.933 369.427C252.834 369.614 246.73 370.969 240.621 371.026C237.465 371.052 234.313 371.073 231.162 371.094C229.642 371.099 227.761 368.937 227.147 369.505C224.267 369.208 216.834 370.651 216.465 370.682C212.261 371.01 207.517 370.849 203.511 371.484C200.272 371.995 194.423 373.411 192.563 374.864C188.053 376.792 183.652 378.963 177.975 379.948C175.59 380.359 173.053 380.552 170.746 381.068C165.657 382.198 162.444 384.703 157.616 386.094C152.881 387.448 147.173 387.583 141.855 387.443C136.537 387.302 131.215 386.927 125.871 387.385C120.522 387.844 114.949 389.375 112.933 391.755C117.761 388.818 126.782 388.5 134.209 388.969C141.636 389.427 149.6 390.312 156.621 388.682C161.824 387.474 165.616 385.026 171.043 384.099C172.959 383.776 175.366 383.724 176.579 384.432C177.668 385.073 177.069 386.021 176.683 386.859C174.772 390.953 171.011 391.51 166.918 393.396C163.965 394.755 160.751 395.354 157.095 396.245C150.98 397.729 144.084 398.724 137.428 399.328C130.767 399.922 123.767 400.937 119.027 403.312C116.298 404.682 114.548 406.391 112.001 407.823C106.157 411.109 97.7145 413.396 95.1468 417.364C93.6989 419.609 93.5322 421.562 93.4124 423.844C93.2979 426.057 91.626 428.312 88.7041 430.177C92.0426 427.958 95.0739 426.401 96.4072 423.828C97.8916 420.979 96.9958 418.161 101.079 415.807C104.59 413.781 110.819 410.859 114.715 408.969C117.178 407.776 118.85 406.948 121.116 405.672C126.215 402.802 132.444 402.37 139.996 401.375C147.543 400.385 156.813 398.703 164.074 397.266C171.329 395.818 178.694 392.38 180.923 388.854C181.949 387.24 181.48 386.375 182.626 384.771C184.673 381.917 190.126 379.818 195.808 378.391C201.496 376.969 204.162 375.5 213.944 375.391C216.037 375.364 226.881 374.359 231.397 377.021C233.834 378.448 231.215 380.198 229.173 381.823C224.517 385.536 215.886 387.667 208.235 390.088C200.579 392.5 192.912 395.917 192.438 400.172C192.168 402.594 192.543 404.854 194.954 407.26C197.116 409.417 199.735 411.224 191.548 412.651C187.22 413.411 179.751 413.083 175.553 414.01C171.09 414.995 169.037 417.12 165.418 418.713C160.454 420.901 153.704 420.927 147.084 421.359C136.959 422.026 127.923 425.771 124.522 430.245C126.548 428.443 130.959 427.344 134.6 426.078C142.813 423.219 153.517 424.088 159.97 423.088C157.574 426.401 161.017 431.859 162.683 435.182C164.527 438.849 161.282 438.891 160.61 443.479C160.131 446.687 162.965 450.411 169.355 451.479C165.454 450.021 164.543 447.375 165.069 445.005C165.59 442.635 167.261 440.302 167.407 437.922C167.715 433.016 160.668 427.297 166.642 423.151C171.043 420.104 172.23 417.713 179.235 416.479C189.558 414.656 200.475 415.823 203.876 411.708C205.36 409.911 202.412 407.427 201.621 405.573C197.032 394.786 218.1 392.239 219.746 392.989C222.074 394.031 216.886 397.427 220.527 400.542C222.98 402.641 229.006 403.568 230.366 405.891C231.626 408.057 227.558 410.109 226.355 412.312C223.86 416.88 233.949 421.484 230.517 425.927C227.23 430.182 215.037 430.588 206.772 432.932C194.475 436.427 192.142 445.672 202.407 450.141C195.491 444.078 198.204 436.953 209.787 435.094C214.876 434.281 220.949 433.542 225.574 432.239C230.105 430.963 233.225 427.042 238.444 426.922C242.334 426.833 245.188 431.443 247.069 433.042C248.944 434.635 249.886 436.453 251.845 438.026C255.053 440.594 261.105 442.802 260.287 445.786C259.876 447.266 259.34 448.344 259.282 450.12C263.454 447.375 263.824 443.469 260.173 440.609C257.944 438.865 254.366 437.484 253.126 435.521C252.303 434.24 249.209 428.958 247.965 427.755C243.449 423.38 238.246 424.302 234.933 419.703C228.116 410.239 242.652 410.63 239.506 406.333C236.725 402.526 225.048 400.547 226.168 396.531C226.933 393.76 233.563 392.219 236.329 389.739C237.532 388.656 237.965 387.417 239.204 386.344C241.334 384.5 245.938 383.359 250.329 383.588C254.725 383.818 255.813 386.146 256.959 388.151C259.475 392.557 252.298 396.302 254.928 400.698C255.751 402.062 257.767 403.312 257.574 404.734C257.386 406.073 255.293 407.156 253.928 408.344C250.787 411.057 251.715 414.672 256.116 416.922C260.595 419.219 267.553 419.927 273.428 421.375C279.293 422.828 284.678 425.979 282.037 428.844C285.642 426.417 285.1 422.823 280.803 420.672C277.225 418.875 271.871 418.193 267.267 417.031C262.662 415.87 258.298 413.635 259.522 411.229C260.595 409.13 265.553 407.76 266.074 405.62C266.293 404.703 266.334 403.713 265.558 402.87C258.98 395.693 267.371 389.453 286.006 396.958C292.215 399.463 287.063 403.984 291.933 405.766C297.517 407.797 312.131 405.198 315.345 408.172C318.371 410.953 307.626 416.135 307.912 419.25C308.199 422.38 314.465 424.739 315.881 427.802C317.845 432.042 310.11 435.87 308.569 440.161C307.235 443.859 311.09 447.849 317.886 449.802C311.824 447.661 312.147 443.302 314.636 439.937C317.126 436.562 321.215 433.292 320.694 429.734C320.225 426.5 315.97 423.63 314.657 420.437C313.345 417.245 317.433 413.927 324.287 413.489C340.84 412.448 334.61 421.406 341.699 424.901C348.35 428.182 365.423 430.297 365.402 436.385C365.397 439.151 364.793 442.719 359.647 444.12C369.824 441.734 373.006 434.812 365.782 430.641C359.803 427.187 341.069 423.177 344.126 419.849C343.131 420.932 361.006 421.854 375.558 420.187C384.126 419.198 393.09 421.75 395.491 425.672C393.475 422.38 389.1 419.797 382.84 418.922C376.579 418.047 371.907 418.745 365.449 418.859C358.991 418.963 350.136 419.417 345.574 417.224C342.225 415.614 342.397 412.359 338.381 411.109C334.694 409.963 329.626 410.062 326.246 408.724C323.6 407.682 322.6 405.989 320.35 404.755C313.626 401.062 297.178 406.297 296.746 401.516C296.194 395.406 288.178 392.25 280.162 391.151C274.886 390.432 269.548 389.239 266.72 387.036C263.886 384.828 264.438 381.552 268.98 380.109C273.543 378.672 279.985 379.615 284.121 381.344C288.251 383.073 290.902 385.443 294.412 387.453C302.819 392.25 318.454 393.989 331.444 393.406C335.251 393.187 358.438 392.526 363.944 404.141C365.329 407.052 368.188 410.266 374.084 411.547C381.152 413.073 390.397 408.771 397.319 410.484C403.043 411.891 404.048 417.172 407.444 419.672C411.256 422.469 418.688 423.302 425.142 424.797C415.308 422.526 410.282 418.844 407.131 415.489C403.543 411.687 401.527 406.63 390.991 407.713Z" fill="#5A789F"/>
<mask id="mask0_1643_3031" style="mask-type:luminance" maskUnits="userSpaceOnUse" x="126" y="372" width="270" height="106">
<path d="M126.683 372.12H395.99V478H126.683V372.12Z" fill="white"/>
</mask>
<g mask="url(#mask0_1643_3031)">
<path d="M156.157 421.88C163.594 423.406 171.344 424.031 172.266 419.703C174.828 407.677 183.886 404.359 182.933 402.823C182.558 402.214 179.344 402.438 174 403.922C171.37 404.656 163.532 408.719 160.927 409.568C159.589 410.01 158.479 410.75 157.532 411.542C153.703 414.74 147.11 415.557 142.058 417.438C139.318 418.458 137.037 421.01 135.875 421.62C137.219 418.865 139.287 417.964 140.391 417.276C142.354 416.063 144.068 414.87 145.865 414.401C148.854 413.62 150.729 413.396 152.907 411.641C158.172 407.412 161.125 405.448 166.229 404.281C166.011 403.333 157.042 401.781 153.209 401.901C149.198 402.021 142.657 403.464 137.802 402.792C136.042 402.547 134.547 401.958 132.896 401.578C131.24 401.203 129.256 401.917 127.433 402.531C129.011 400.969 132.25 400.542 134.735 400.787C137.219 401.026 139.5 401.724 142.125 401.583C145.974 401.38 149.75 399.417 153.62 399.12C158.693 398.729 162.599 401.287 167.677 400.901C170.511 400.688 173.151 399.349 176 398.776C183.099 397.359 194.865 400.146 205.094 399.323C210.381 398.896 216.407 399.141 220.912 397.016C224.547 395.297 232.042 387.594 232.438 386.557C233.568 383.594 228.464 381.359 224.552 381.958C220.641 382.557 217.688 383.375 213.766 383.938C209.021 384.62 203.943 384.255 199.193 383.776C195.282 383.38 187.136 382.682 183.203 383.099C176.349 383.813 173.672 385.599 166.828 386.339C170.688 385.057 174.615 383.896 178.417 382.505C183 380.833 189.448 381.302 192.094 381.391C218.693 382.245 217.485 374.62 233.349 373.219C240.703 372.578 253.558 372.391 260.933 372.75C265.766 372.979 270.604 374.724 275.448 374.76C277.943 374.771 280.448 374.771 282.943 374.766C284.151 374.766 285.646 371.938 286.131 372.662C288.412 372.25 293.12 374.214 293.719 374.078C294 374.01 294.302 374.047 294.594 374.078C297.927 374.448 301.688 374.167 304.86 374.927C307.427 375.537 312.058 377.266 313.526 379.104C317.099 381.521 320.578 384.245 325.078 385.385C326.964 385.865 328.974 386.042 330.802 386.651C334.828 387.984 337.37 391.146 341.193 392.802C344.938 394.422 349.464 394.427 353.688 394.068C357.901 393.708 362.125 393.037 366.365 393.438C370.61 393.839 375.021 395.594 376.61 398.604C372.792 394.984 365.636 394.922 359.74 395.776C353.844 396.635 347.526 398.037 341.969 396.125C337.849 394.714 334.849 391.651 330.558 390.594C329.037 390.219 327.131 390.208 326.167 391.156C325.302 392.01 325.771 393.229 326.078 394.302C327.573 399.563 330.552 400.188 333.787 402.516C336.125 404.203 338.672 404.885 341.563 405.932C346.407 407.677 351.865 408.75 357.146 409.307C362.422 409.854 367.969 410.912 371.719 413.813C373.875 415.479 375.256 417.62 377.271 419.385C381.891 423.422 388.578 426.042 390.594 431.078C391.735 433.927 391.854 436.458 391.938 439.412C392.021 442.287 393.334 445.141 395.641 447.438C393.006 444.703 390.61 442.802 389.558 439.521C388.401 435.88 389.125 432.193 385.896 429.302C383.125 426.818 378.198 423.276 375.115 420.979C373.167 419.526 371.844 418.51 370.047 416.943C366.021 413.417 361.084 413.083 355.099 412.047C349.12 411.01 341.782 409.115 336.032 407.448C330.282 405.781 324.459 401.51 322.709 396.99C321.901 394.917 322.276 393.787 321.37 391.734C319.761 388.089 315.443 385.484 310.943 383.745C306.443 382.01 304.328 380.151 296.584 380.156C294.922 380.156 286.328 378.979 282.74 382.474C280.808 384.365 282.881 386.615 284.49 388.703C288.177 393.479 295.006 396.13 301.063 399.135C307.12 402.141 313.183 406.401 313.542 411.912C313.75 415.047 313.453 417.984 311.532 421.156C309.813 423.995 307.729 426.401 314.209 428.073C317.636 428.958 323.547 428.349 326.875 429.443C330.407 430.604 332.026 433.297 334.881 435.26C338.808 437.953 344.157 437.787 349.401 438.146C357.417 438.688 364.568 443.229 367.24 448.901C365.646 446.63 362.151 445.365 359.271 443.849C352.776 440.427 344.292 441.88 339.183 440.776C341.068 444.99 338.323 452.156 336.985 456.51C335.511 461.307 338.084 461.276 338.599 467.188C338.964 471.328 336.703 476.234 331.646 477.797C334.74 475.802 335.469 472.354 335.063 469.297C334.657 466.24 333.344 463.271 333.24 460.193C333.016 453.849 338.615 446.234 333.896 441.037C330.422 437.208 329.495 434.151 323.943 432.734C315.776 430.635 307.131 432.375 304.453 427.115C303.276 424.807 305.625 421.531 306.256 419.104C309.922 405.042 293.24 402.115 291.933 403.089C290.084 404.474 294.188 408.807 291.297 412.912C289.344 415.677 284.568 416.964 283.49 420.016C282.485 422.844 285.703 425.453 286.646 428.297C288.61 434.193 280.615 440.339 283.318 446.057C285.912 451.542 295.558 451.849 302.094 454.708C311.818 458.964 313.631 470.88 305.495 476.922C310.985 468.896 308.86 459.734 299.698 457.573C295.672 456.63 290.875 455.781 287.214 454.177C283.631 452.609 281.167 447.563 277.042 447.484C273.969 447.427 271.688 453.479 270.203 455.583C268.719 457.688 267.969 460.078 266.412 462.151C263.865 465.547 259.078 468.526 259.724 472.406C260.037 474.328 260.464 475.724 260.506 478.047C257.209 474.526 256.927 469.432 259.818 465.646C261.584 463.339 264.417 461.479 265.407 458.912C266.058 457.224 268.516 450.292 269.506 448.708C273.084 442.953 277.203 444.068 279.839 438.037C285.261 425.635 273.745 426.349 276.256 420.703C278.459 415.719 287.714 412.984 286.839 407.781C286.235 404.198 280.995 402.276 278.808 399.073C277.854 397.677 277.511 396.068 276.532 394.688C274.849 392.307 271.203 390.854 267.719 391.182C264.24 391.505 263.375 394.542 262.464 397.162C260.459 402.932 266.141 407.771 264.042 413.521C263.391 415.307 261.792 416.953 261.943 418.802C262.089 420.547 263.745 421.948 264.823 423.474C267.302 426.984 266.563 431.708 263.073 434.693C259.521 437.729 254.011 438.724 249.36 440.667C244.714 442.615 240.448 446.776 242.537 450.516C239.683 447.37 240.115 442.651 243.521 439.802C246.36 437.427 250.599 436.5 254.245 434.943C257.896 433.38 261.349 430.427 260.381 427.297C259.542 424.568 255.615 422.818 255.214 420.021C255.037 418.828 255.011 417.537 255.62 416.427C260.849 407.021 254.214 398.927 239.433 408.76C234.511 412.042 238.584 417.969 234.724 420.307C230.297 422.99 218.724 419.542 216.172 423.438C213.776 427.099 222.287 433.953 222.058 438.047C221.828 442.167 216.86 445.287 215.74 449.323C214.183 454.927 220.302 459.943 221.521 465.578C222.573 470.438 219.521 475.719 214.146 478.354C218.943 475.479 218.688 469.745 216.719 465.318C214.75 460.885 211.511 456.578 211.927 451.885C212.297 447.62 215.667 443.818 216.709 439.609C217.75 435.401 214.511 431.031 209.078 430.422C195.964 428.964 200.907 440.849 195.287 445.469C190.021 449.797 176.49 452.531 176.511 460.662C176.516 464.349 177.006 469.125 181.078 470.995C173.021 467.818 170.479 458.51 176.203 452.979C180.938 448.406 195.787 443.182 193.365 438.75C194.146 440.188 179.979 441.328 168.433 438.901C161.636 437.469 154.526 440.745 152.631 446.01C154.224 441.589 157.683 438.188 162.651 437.104C167.62 436.021 171.328 437.026 176.453 437.245C181.573 437.464 188.599 438.13 192.209 435.255C194.865 433.141 194.729 428.818 197.907 427.198C200.834 425.703 204.849 425.87 207.532 424.12C209.631 422.755 210.417 420.526 212.209 418.912C217.537 414.094 230.573 421.021 230.912 414.729C231.354 406.703 237.714 402.589 244.073 401.151C248.25 400.203 252.485 398.635 254.729 395.745C256.985 392.859 256.547 388.583 252.948 386.703C249.334 384.823 244.224 386.042 240.943 388.297C237.667 390.552 235.568 393.646 232.771 396.271C226.11 402.537 213.714 404.75 203.412 403.807C200.391 403.516 181.985 402.224 177.631 417.609C176.532 421.474 174.266 425.729 169.584 427.354C163.985 429.292 156.636 423.333 151.141 425.474C146.594 427.245 145.808 434.37 143.115 437.682C140.099 441.396 134.198 442.375 129.073 444.276C136.881 441.391 140.86 436.49 143.354 432.026C146.193 426.953 147.782 420.177 156.157 421.88Z" fill="#5A789F"/>
</g>
<path d="M365.667 195.094L367.006 194.594L367.62 194.786C373.792 196.74 379.204 198.135 384.167 199.052C389.032 199.932 393.995 200.552 399.006 200.922C397.553 200.708 396.105 200.469 394.678 200.219C389.094 199.219 382.579 197.479 375.303 195.052L370.251 193.365L376.568 191.026C395.266 184.172 407.365 175.542 415.152 167.714C408.579 172.109 400.917 175.87 393.428 179.224L390.074 180.724L390.829 177.135C391.959 171.724 393.48 167.188 395.35 163.641C394.36 165.073 393.428 166.615 392.584 168.266C390.938 171.484 389.579 175.594 388.548 180.479L388.344 181.438L387.438 181.818C376.745 186.297 365.183 190.641 354.006 194.839C342.792 199.052 332.209 203.026 323.167 206.875L317.975 209.083L320.818 204.208C322.834 200.74 324.516 197.516 325.954 194.344C327.99 189.833 330.094 184.125 332.318 178.078L332.896 176.505L334.089 176.411C340.131 175.922 345.094 175.172 349.245 174.125C350.636 173.776 351.99 173.391 353.303 172.984C348.641 173.984 342.917 174.682 336.23 175.057L333.365 175.219L334.37 172.531C338.469 161.562 344.693 144.906 354.881 131.151C348.225 137.406 341.745 145.526 337.339 155.786C336.839 156.948 336.355 158.094 335.881 159.224L333.745 164.354L332.339 158.979C330.714 152.745 329.787 147.151 329.579 142.349C329.449 139.323 329.449 135.245 329.891 130.51C328.568 136.781 327.87 143.891 328.428 151.583C328.792 156.552 329.886 162.286 331.699 168.625L331.87 169.234L331.459 170.297C325.771 184.896 321.719 197.802 309.36 212.734L307.318 214.302C300.261 218.057 293.24 222.495 286.454 227.474L284.136 229.177L283.521 226.37C281.433 216.922 280.521 208.562 280.808 201.526C280.98 197.271 281.532 191.229 283.037 184.203C280.23 192.401 278.126 202.016 278.016 212.531C277.954 217.995 278.605 224.281 279.943 231.208L280.162 232.312L279.292 233.021C271.339 239.484 265.516 245.276 262.027 248.99L259.657 251.521L258.839 248.151C257.6 243.026 256.464 236.885 255.553 231.948C254.756 227.656 254.068 223.943 253.615 222.5C251.485 215.745 255.438 174.49 263.969 148.188L264.105 147.76L265.329 146.547C269.771 142.12 273.287 138.62 277.699 134.474L280.016 132.25C289.391 123.25 302.865 110.328 314.761 93.9167C309.652 100.411 303.714 106.896 296.834 113.026C287.318 121.552 278.49 129.651 270.589 137.104L265.219 141.594C266.214 138.724 269.516 129.432 270.506 126.672C274.438 115.542 281.251 96.276 283.766 73.0208C282.652 80.3229 280.938 87.8542 278.433 95.401L277.485 98.2604L273.798 94.6146C269.032 89.9271 264.917 85.8698 262.006 80.8854C260.782 78.7917 259.568 76.651 258.423 74.4115C259.917 77.875 261.824 81.526 264.24 85.3177C266.443 88.7813 270.459 93.75 275.865 99.6875L276.626 100.521L273.73 108.453C258.641 149.688 247.74 179.49 244.324 202.323L243.568 207.333L240.881 203.036C234.146 192.276 227.818 180.432 222.068 167.823L221.636 166.875L222.209 166.016C226.063 160.193 229.042 154.839 231.058 150.094C235.532 139.604 237.126 129.781 237.318 121.453C236.084 129.479 233.891 136.214 232.141 140.703C229.975 146.25 226.454 152.682 221.678 159.807L219.751 162.677L218.402 159.495C213.209 147.286 208.475 134.286 204.329 120.833L204.058 119.964L204.589 119.208C208.584 113.51 211.423 108.604 213.266 104.219C214.928 100.276 216.032 96.4792 216.725 92.9062C216.146 94.8333 215.553 96.5156 215.011 97.901C213.178 102.656 210.016 108.26 205.62 114.568L203.381 117.781L202.287 114.021C197.183 96.4635 193.766 80.6198 191.563 68.1406C192.016 75.4948 193.021 84.3594 195.037 94.8802L195.896 99.3594L192.141 96.776C183.886 91.1042 177.657 85.9688 173.11 81.0729C172.86 80.8021 172.605 80.526 172.355 80.2448C174.449 82.9844 176.792 85.6979 179.407 88.3542C183.605 92.6406 189.027 97.0885 195.985 101.948L196.584 102.365L196.74 103.073C199.725 116.422 204.006 130.99 209.469 146.354L210.881 150.339L206.985 148.714C191.626 142.318 154.032 125.557 136.761 108.078C136.344 107.651 135.928 107.208 135.521 106.76C137.714 109.557 140.188 112.328 142.98 115.01C159.402 130.792 188.511 145.401 209.761 156.057L210.917 156.635L211.178 157.312C212.021 159.536 212.876 161.797 213.745 164.099C218.662 177.115 224.23 191.87 231.798 207.776L233.449 211.24L229.704 210.411C218.917 208.016 212.152 205.135 204.313 201.812L202.923 201.219C192.766 196.911 183.219 191.708 174.662 185.88C184.115 194.005 197.094 202.865 213.969 209.656C216.631 210.74 218.699 211.755 220.699 212.734C224.402 214.557 227.61 216.125 233.438 217.5L234.292 217.698L234.683 218.484C235.376 219.875 240.501 248.333 240.553 248.62L241.141 251.818C241.318 252.328 237.454 250.323 237.49 250.349C237.001 249.995 233.782 248.302 230.058 246.333C206.558 233.958 144.131 201.083 120.193 172.646C117.402 169.161 114.808 165.156 112.464 160.745C115.771 167.901 120.225 175.266 126.204 182.333C140.256 199.052 161.808 211.703 182.652 223.943L190.1 229.219L182.813 228.24C147.657 222.182 116.824 213.172 90.7246 201.365C100.886 206.672 114.902 212.635 134.438 218.641L139.178 220.099L134.495 222.208C131.162 223.339 128.048 224.198 125.235 224.766C122.891 225.234 120.511 225.63 118.1 225.938C124.032 225.75 129.865 225.042 135.49 223.839C136.329 223.661 141.876 221.354 142.423 221.094C159.188 226.115 179.485 231.344 204.454 237.089L204.761 237.161L205.032 237.333C208.657 239.615 211.844 241.734 214.782 243.797L218.933 246.719L213.881 247.193C208.938 247.656 204.021 248.958 199.277 251.052C196.855 252.125 194.579 253.583 192.167 255.12C190.334 256.297 188.428 257.51 186.381 258.604C176.87 263.661 166.396 265.552 158.74 266.927C154.428 267.698 149.959 268.286 145.459 268.677C145.506 268.677 145.548 268.677 145.594 268.677C153.829 268.677 162.042 267.917 169.959 266.417L170.1 266.38L176.495 265.401L171.584 269.719C165.688 274.146 159.188 278.734 151.902 282.026C155.782 280.714 160.334 278.828 165.615 276.146C168.761 274.542 172.048 272.771 175.225 271.062C188.855 263.719 202.949 256.125 215.376 256.125C224.053 256.125 231.126 259.948 236.396 267.484C241.548 274.833 242.782 284.391 243.256 290.938C245.433 320.781 240.183 355.661 223.964 370.359C227.511 370.677 232.053 373.052 235.511 373.052C236.459 373.052 240.428 374.948 241.141 374.906C256.412 373.849 268.725 371.854 283.735 371.156C280.87 362.365 271.865 330.646 274.615 310.281C279.256 275.974 305.235 272.005 324.37 272.005C326.449 272.005 328.636 272.057 331.23 272.146L331.995 272.177L332.521 272.729C335.271 275.625 337.99 278.12 340.594 280.151C345.079 283.635 349.792 286.49 354.344 288.812C351.495 286.828 349.032 284.979 347.068 283.505C344.719 281.74 342.162 279.286 339.042 275.797L335.949 272.339L340.574 272.682C342.271 272.807 344.001 272.948 345.756 273.083C351.271 273.521 356.975 273.974 363.084 274.193C366.037 274.318 368.896 274.375 371.579 274.375C375.412 274.375 378.792 274.255 381.782 274.036C370.245 274.031 357.902 271.953 345.969 269.943C337.725 268.552 329.193 267.12 321.188 266.422L314.402 265.833L320.537 262.87C323.084 261.641 325.475 260.323 327.704 258.964C321.777 261.609 316.501 263.229 312.735 264.182C308.792 265.161 300.745 266.724 297.714 267.318C297.24 267.406 296.673 267.521 296.673 267.521C284.079 270.203 276.199 275.714 271.803 279.87L269.376 282.167L268.532 278.188C267.407 272.891 266.433 268.312 267.641 264.859C272.355 251.312 293.324 232.115 306.704 222.807L307.381 222.333L312.777 223.552C336.516 228.932 366.058 235.625 388.584 235.625C389.917 235.615 391.23 235.589 392.521 235.542C373.11 234.625 345.001 229.214 315.688 220.677L311.558 219.474L315.256 217.271C330.443 208.224 346.766 202.141 365.667 195.094Z" fill="#5A789F"/>
<path d="M182.454 10.6353C182.443 10.6821 169.417 28.2446 188.839 41.4478C188.834 41.4998 202.053 24.604 182.454 10.6353Z" fill="#5A789F"/>
<path d="M47.0422 151.49C47.0578 151.558 45.5109 165.662 63.8234 164.573C63.839 164.646 65.6776 150.203 47.0422 151.49Z" fill="#5A789F"/>
<path d="M66.48 137C66.4852 137.042 65.6832 148.313 80.3707 147.276C80.3863 147.323 81.454 135.891 66.48 137Z" fill="#5A789F"/>
<path d="M200.011 15.9165C200.011 15.9165 190.845 24.255 199.537 33.6978C199.532 33.6978 208.699 25.828 200.011 15.9165Z" fill="#5A789F"/>
<path d="M206.272 10.5679C206.266 10.5783 203.819 17.1147 211.194 21.7137C211.668 19.6043 213.668 15.3127 206.272 10.5679Z" fill="#5A789F"/>
<path d="M258.464 7.51539C258.454 7.45289 239.912 19.0154 252.693 39.0466C252.688 38.9789 271.1 28.4633 258.464 7.51539Z" fill="#5A789F"/>
<path d="M277.996 4.125C277.985 4.13021 265.09 19.901 284.756 35.9323C284.741 35.9427 297.84 21.0625 277.996 4.125Z" fill="#5A789F"/>
<path d="M169.172 33.5884C169.172 33.6769 159.693 52.604 181.803 62.1092C181.803 62.203 191.605 43.5832 169.172 33.5884Z" fill="#5A789F"/>
<path d="M210.302 30.1979C210.292 30.1094 189.131 39.0781 196.021 60.5469C196.011 60.4635 216.834 52.4792 210.302 30.1979Z" fill="#5A789F"/>
<path d="M227.495 34.0936C227.49 34.0415 211.792 40.1769 216.875 56.2655C216.87 56.2186 232.313 50.7394 227.495 34.0936Z" fill="#5A789F"/>
<path d="M268.256 38.4741C268.25 38.4168 252.526 43.5262 257.568 59.9481C257.563 59.8908 273.021 55.4064 268.256 38.4741Z" fill="#5A789F"/>
<path d="M226.027 6.02586C226.016 5.96336 210.297 12.1717 215.386 28.2394C215.381 28.1821 230.855 22.6561 226.027 6.02586Z" fill="#5A789F"/>
<path d="M238.896 63.1094C238.896 63.0417 222.12 65.1719 222.219 82.1094C222.219 82.0521 238.579 80.3699 238.896 63.1094Z" fill="#5A789F"/>
<path d="M272.172 47.3906C272.172 47.4063 264.641 57.8594 278.427 66.0521C278.427 66.0625 286.12 56.0521 272.172 47.3906Z" fill="#5A789F"/>
<path d="M95.9384 69.3854C95.9488 69.4375 92.8082 81.9427 108.298 81.8594C108.308 81.9115 111.694 69.3333 95.9384 69.3854Z" fill="#5A789F"/>
<path d="M233.855 85.0262C233.855 84.9793 219.448 86.172 220.318 100.432C220.318 100.396 234.391 99.5835 233.855 85.0262Z" fill="#5A789F"/>
<path d="M301.428 29.7811C301.428 29.729 286.98 29.328 287.777 43.6405C287.777 43.5936 301.897 44.2811 301.428 29.7811Z" fill="#5A789F"/>
<path d="M250.787 86.1561C250.787 86.1301 239.147 87.5832 240.866 99.1249C240.866 99.0988 252.267 97.9738 250.787 86.1561Z" fill="#5A789F"/>
<path d="M250.892 62.0782C250.892 62.1094 250.293 51.6772 237.032 52.2344C237.032 52.2709 237.324 62.2344 250.892 62.0782Z" fill="#5A789F"/>
<path d="M253.506 74.5211C253.506 74.5471 252.985 65.4586 241.428 65.8752C241.428 65.8961 241.678 74.6148 253.506 74.5211Z" fill="#5A789F"/>
<path d="M257.865 81.6821C257.865 81.6977 254.886 74.8852 246.245 77.7185C246.245 77.7342 248.959 84.3019 257.865 81.6821Z" fill="#5A789F"/>
<path d="M267.974 97.5939C267.974 97.6147 264 88.448 252.464 92.1251C252.464 92.1512 256.084 100.943 267.974 97.5939Z" fill="#5A789F"/>
<path d="M242.683 74.3331C242.678 74.3071 231.86 78.479 236.918 89.1717C236.913 89.1508 247.595 85.4008 242.683 74.3331Z" fill="#5A789F"/>
<path d="M272.803 31.5625C272.803 31.5885 268.089 40.7656 280.173 46.151C280.167 46.1667 285.079 37.2865 272.803 31.5625Z" fill="#5A789F"/>
<path d="M235.105 0.286621C235.105 0.307454 230.402 9.78141 242.537 14.4585C242.532 14.4793 247.422 5.26058 235.105 0.286621Z" fill="#5A789F"/>
<path d="M165.313 17.3438C165.313 17.375 160.683 27.3073 172.751 30.5313C172.751 30.5573 177.553 20.8177 165.313 17.3438Z" fill="#5A789F"/>
<path d="M229.079 122.844C229.079 122.849 237.897 112.609 225.183 104.031C225.178 104.042 216.287 113.865 229.079 122.844Z" fill="#5A789F"/>
<path d="M248.891 48.9321C248.891 48.979 251.589 36.3853 235.594 33.6978C235.594 33.7342 232.605 45.7446 248.891 48.9321Z" fill="#5A789F"/>
<path d="M242.277 113.052C242.277 113.026 254.782 112.443 254.147 100.073C254.147 100.042 241.902 100.323 242.277 113.052Z" fill="#5A789F"/>
<path d="M193.199 170.844C193.199 170.813 205.626 169.485 204.954 157.162C204.949 157.136 192.782 158.182 193.199 170.844Z" fill="#5A789F"/>
<path d="M220.36 65.9998C220.355 65.9685 232.902 64.9946 232.246 52.6352C232.24 52.604 219.959 53.2915 220.36 65.9998Z" fill="#5A789F"/>
<path d="M227.828 29.9012C227.828 29.8595 240.407 29.0262 239.756 16.6616C239.756 16.6252 227.438 17.172 227.828 29.9012Z" fill="#5A789F"/>
<path d="M218.084 123.505C218.079 123.542 212.178 135.985 227.829 141.594C227.829 141.625 233.98 129.485 218.084 123.505Z" fill="#5A789F"/>
<path d="M201.901 74.2915C201.896 74.328 195.995 86.9009 211.698 92.0936C211.698 92.13 217.844 79.8228 201.901 74.2915Z" fill="#5A789F"/>
<path d="M204.875 61.2603C204.875 61.2915 201.448 72.1353 215.172 75.0155C215.172 75.0467 218.844 64.3696 204.875 61.2603Z" fill="#5A789F"/>
<path d="M266.339 63.5679C266.334 63.5939 260.365 75.6252 276.068 82.3022C276.063 82.3283 282.287 70.6616 266.339 63.5679Z" fill="#5A789F"/>
<path d="M268.943 171.24C268.943 171.245 261.48 181.86 275.146 189.776C275.141 189.787 282.766 179.62 268.943 171.24Z" fill="#5A789F"/>
<path d="M274.146 160.078C274.146 160.089 269.469 169.354 281.448 174.542C281.443 174.557 286.308 165.609 274.146 160.078Z" fill="#5A789F"/>
<path d="M263.167 187.516C263.162 187.536 257.245 199.693 272.813 206.078C272.808 206.104 278.975 194.333 263.167 187.516Z" fill="#5A789F"/>
<path d="M262.959 206.302C262.959 206.323 257.053 218.495 272.6 224.844C272.595 224.865 278.751 213.083 262.959 206.302Z" fill="#5A789F"/>
<path d="M252.485 137.375C252.485 137.328 237.36 136.062 235.537 151.125C235.537 151.083 250.245 152.609 252.485 137.375Z" fill="#5A789F"/>
<path d="M241.62 128.151C241.625 128.12 255.672 131.781 260.521 118.047C260.526 118.016 246.896 113.943 241.62 128.151Z" fill="#5A789F"/>
<path d="M282.573 98.8336C282.578 98.8023 296.589 103.365 301.61 90.0627C301.615 90.0367 288.032 85.0315 282.573 98.8336Z" fill="#5A789F"/>
<path d="M287.646 84.4689C287.646 84.4272 302.24 86.7657 304.141 72.6564C304.146 72.6199 289.923 69.8751 287.646 84.4689Z" fill="#5A789F"/>
<path d="M288.225 68.5417C288.225 68.5001 302.751 71.4532 305.391 57.5209C305.396 57.4792 291.256 54.1094 288.225 68.5417Z" fill="#5A789F"/>
<path d="M289.417 54.6092C289.417 54.5675 303.948 57.5883 306.599 43.6717C306.604 43.6352 292.453 40.1873 289.417 54.6092Z" fill="#5A789F"/>
<path d="M343.891 22.7083C343.886 22.6562 330.272 29.4427 340.037 45.4583C340.037 45.4062 353.548 39.3437 343.891 22.7083Z" fill="#5A789F"/>
<path d="M329.449 113.557C329.449 113.568 317.803 103.625 305.173 113.068C305.173 113.089 316.282 122.49 329.449 113.557Z" fill="#5A789F"/>
<path d="M319.996 123.635C320.006 123.635 306.897 115.557 296.392 127.042C296.397 127.052 308.965 134.74 319.996 123.635Z" fill="#5A789F"/>
<path d="M303.521 134.984C303.527 134.979 289.891 128.021 280.396 140.453C280.396 140.448 293.49 147.13 303.521 134.984Z" fill="#5A789F"/>
<path d="M323.766 51.0831C323.766 51.0519 312.714 57.8331 322.954 69.9477C322.949 69.9217 333.985 63.7185 323.766 51.0831Z" fill="#5A789F"/>
<path d="M355.896 50.0364C355.902 50.0104 343.089 44.7864 338.975 56.7344C338.98 56.7135 351.402 61.8385 355.896 50.0364Z" fill="#5A789F"/>
<path d="M330.162 37.2446C330.162 37.2342 322.261 43.7238 331.902 52.8228C331.896 52.8123 339.839 46.7811 330.162 37.2446Z" fill="#5A789F"/>
<path d="M358.918 109.568C358.918 109.541 349.256 113.724 356.392 124.291C356.392 124.265 365.985 120.526 358.918 109.568Z" fill="#5A789F"/>
<path d="M368.298 101.417C368.298 101.391 358.652 105.375 365.766 116.026C365.766 116 375.355 112.453 368.298 101.417Z" fill="#5A789F"/>
<path d="M266.219 -0.00537109C266.219 -0.00537109 258.495 7.17171 267.995 15.1978C267.99 15.1925 275.766 8.43213 266.219 -0.00537109Z" fill="#5A789F"/>
<path d="M395.235 64.3697C395.235 64.3228 382.355 64.7916 386.626 78.3072C386.631 78.2551 399.298 78.1405 395.235 64.3697Z" fill="#5A789F"/>
<path d="M402.969 134.068C402.969 134.047 395.406 139.578 404.573 148.849C404.573 148.828 412.162 143.75 402.969 134.068Z" fill="#5A789F"/>
<path d="M441.474 152.583C441.485 152.567 430.474 148.817 429.12 159.073C429.125 159.057 439.854 162.791 441.474 152.583Z" fill="#5A789F"/>
<path d="M430.027 106.219C430.037 106.177 416.902 102.219 416.162 114.75C416.167 114.719 428.985 118.682 430.027 106.219Z" fill="#5A789F"/>
<path d="M417.146 86.6612C417.156 86.6143 404.511 85.0414 406.526 97.8071C406.537 97.7654 418.917 99.5414 417.146 86.6612Z" fill="#5A789F"/>
<path d="M436.641 164.709C436.646 164.709 426.449 158.537 421.443 167.229C421.449 167.235 431.324 173.198 436.641 164.709Z" fill="#5A789F"/>
<path d="M418.172 149.448C418.177 149.412 407.834 150.719 412.37 161.708C412.375 161.672 422.563 160.688 418.172 149.448Z" fill="#5A789F"/>
<path d="M378.496 51.0992C378.496 51.0784 370.157 55.9221 378.61 65.8492C378.61 65.8284 386.943 61.4429 378.496 51.0992Z" fill="#5A789F"/>
<path d="M358.037 35.6197C358.042 35.5833 346.808 35.0937 348.605 46.4114C348.605 46.3801 359.615 47.0989 358.037 35.6197Z" fill="#5A789F"/>
<path d="M406.506 158.307C406.511 158.281 396.136 159.849 400.688 170.802C400.688 170.771 410.912 169.526 406.506 158.307Z" fill="#5A789F"/>
<path d="M422.673 185.484C422.673 185.515 416.089 176.411 405.896 180.75C405.896 180.776 412.136 189.51 422.673 185.484Z" fill="#5A789F"/>
<path d="M413.735 194.073C413.735 194.104 409.584 184.375 397.865 186.219C397.865 186.255 401.693 195.604 413.735 194.073Z" fill="#5A789F"/>
<path d="M394.918 209.969C394.918 209.995 390.741 200.312 378.985 202.594C378.985 202.62 382.824 211.953 394.918 209.969Z" fill="#5A789F"/>
<path d="M413.194 212.927C413.194 212.953 409.043 203.281 397.329 205.271C397.324 205.302 401.152 214.614 413.194 212.927Z" fill="#5A789F"/>
<path d="M430.032 189.792C430.037 189.771 418.938 187.708 419.157 198.458C419.162 198.438 430 200.594 430.032 189.792Z" fill="#5A789F"/>
<path d="M432.808 207.922C432.808 207.937 424.506 199.917 416.115 206.281C416.115 206.307 424.068 214.015 432.808 207.922Z" fill="#5A789F"/>
<path d="M430.599 174.797C430.604 174.807 421.287 167.521 414.37 175.042C414.37 175.052 423.349 182.062 430.599 174.797Z" fill="#5A789F"/>
<path d="M363.626 182.984C363.626 183.005 357.584 173.87 346.787 178.469C346.787 178.495 352.464 187.297 363.626 182.984Z" fill="#5A789F"/>
<path d="M375.532 179.578C375.532 179.604 369.532 170.396 358.729 174.766C358.729 174.792 364.37 183.651 375.532 179.578Z" fill="#5A789F"/>
<path d="M385.204 173.615C385.204 173.635 379.777 165.234 369.99 169.005C369.99 169.031 375.105 177.12 385.204 173.615Z" fill="#5A789F"/>
<path d="M389.001 164.448C389.001 164.453 382.771 159.599 377.787 164.844C377.792 164.849 383.771 169.589 389.001 164.448Z" fill="#5A789F"/>
<path d="M362.85 150.734C362.85 150.687 350.183 154.651 357.339 168.073C357.339 168.031 369.855 164.578 362.85 150.734Z" fill="#5A789F"/>
<path d="M373.402 147.354C373.402 147.323 363.199 150.5 369.199 161.422C369.199 161.396 379.292 158.615 373.402 147.354Z" fill="#5A789F"/>
<path d="M349.522 155.167C349.522 155.141 339.287 158.719 345.324 169.536C345.324 169.51 355.454 166.333 349.522 155.167Z" fill="#5A789F"/>
<path d="M305.834 79.8648C305.828 79.8543 297.943 86.7866 307.594 95.4585C307.589 95.4481 315.526 88.9585 305.834 79.8648Z" fill="#5A789F"/>
<path d="M284.802 102.578C284.797 102.573 276.922 109.802 286.589 118.177C286.589 118.172 294.511 111.37 284.802 102.578Z" fill="#5A789F"/>
<path d="M312.277 63.5469C312.272 63.5365 302.142 72.4688 314.761 83.7708C314.756 83.7604 324.954 75.4219 312.277 63.5469Z" fill="#5A789F"/>
<path d="M316.142 101.167C316.142 101.172 328.011 109.739 337.746 99.5103C337.751 99.5207 326.407 90.479 316.142 101.167Z" fill="#5A789F"/>
<path d="M287.131 168.901C287.136 168.828 306.511 165.651 301.277 146.141C301.282 146.063 282.199 148.787 287.131 168.901Z" fill="#5A789F"/>
<path d="M371.979 116.084C371.99 116.026 391.474 122.531 395.563 104.787C395.578 104.735 376.657 97.4534 371.979 116.084Z" fill="#5A789F"/>
<path d="M387.277 98.5417C387.298 98.4376 406.824 100.526 404.1 81.1511C404.116 81.047 384.944 78.422 387.277 98.5417Z" fill="#5A789F"/>
<path d="M379.772 159.458C379.782 159.37 398.642 157.797 392.423 138.365C392.433 138.276 373.829 139.391 379.772 159.458Z" fill="#5A789F"/>
<path d="M410.704 147.667C410.709 147.614 424.569 147.187 420.006 132.812C420.017 132.755 406.35 132.844 410.704 147.667Z" fill="#5A789F"/>
<path d="M385.688 136.161C385.694 136.109 399.652 135.193 395.053 120.745C395.058 120.693 381.293 121.276 385.688 136.161Z" fill="#5A789F"/>
<path d="M429.224 148.422C429.24 148.323 445.724 145.427 436.292 127.089C436.303 126.99 419.928 129.589 429.224 148.422Z" fill="#5A789F"/>
<path d="M362.678 70.4062C362.678 70.3437 377.542 62.9843 364.37 45.828C364.37 45.7655 349.521 52.8437 362.678 70.4062Z" fill="#5A789F"/>
<path d="M293.032 26.3282C293.032 26.2761 306.98 24.172 302.803 10.0938C302.808 10.0418 289.074 11.849 293.032 26.3282Z" fill="#5A789F"/>
<path d="M330.167 33.5311C330.162 33.5415 336.912 23.4009 322.646 14.7134C322.641 14.7238 315.74 24.4634 330.167 33.5311Z" fill="#5A789F"/>
<path d="M339.542 100.917C339.558 100.859 359.188 106.594 363.292 88.3542C363.308 88.2917 344.214 81.8177 339.542 100.917Z" fill="#5A789F"/>
<path d="M323.308 88.5002C323.308 88.5002 334.297 96.5783 343.318 87.2397C343.323 87.2502 332.818 78.7606 323.308 88.5002Z" fill="#5A789F"/>
<path d="M330.959 77.3279C330.964 77.3175 342.985 84.2289 350.094 73.7341C350.1 73.7341 338.532 66.3852 330.959 77.3279Z" fill="#5A789F"/>
<path d="M364.907 71.901C364.912 71.8541 351.673 71.7656 354.344 85.1927C354.35 85.151 367.324 85.5312 364.907 71.901Z" fill="#5A789F"/>
<path d="M398.308 118.422C398.318 118.328 417.579 120.776 414.698 101.776C414.714 101.682 395.808 98.698 398.308 118.422Z" fill="#5A789F"/>
<path d="M403.433 130.12C403.448 130.073 421.912 137.011 425.292 120.375C425.308 120.334 407.375 112.662 403.433 130.12Z" fill="#5A789F"/>
<path d="M336.729 66.2449C336.729 66.2345 348.756 73.2866 355.86 62.9168C355.865 62.9168 344.308 55.4272 336.729 66.2449Z" fill="#5A789F"/>
<path d="M302.735 169.474C302.735 169.458 291.319 167.078 288.985 178.297C288.991 178.281 300.069 180.776 302.735 169.474Z" fill="#5A789F"/>
<path d="M284.896 201.156C284.902 201.136 298.308 204.365 301.896 191.344C301.896 191.318 288.865 187.719 284.896 201.156Z" fill="#5A789F"/>
<path d="M285.443 211.719C285.449 211.703 298.61 216.833 304.673 204.208C304.673 204.198 291.938 198.682 285.443 211.719Z" fill="#5A789F"/>
<path d="M286.595 188.776C286.6 188.755 298.09 191.516 301.095 180.37C301.1 180.349 289.938 177.286 286.595 188.776Z" fill="#5A789F"/>
<path d="M354.173 106.052C354.173 106.036 343.709 100.552 338.485 110.141C338.491 110.13 348.595 115.495 354.173 106.052Z" fill="#5A789F"/>
<path d="M335.99 121.427C335.995 121.427 346.235 127.396 352.49 118.38C352.495 118.38 342.652 112.094 335.99 121.427Z" fill="#5A789F"/>
<path d="M363.698 125.401C363.703 125.401 373.886 131.698 380.115 123.047C380.12 123.052 370.339 116.432 363.698 125.401Z" fill="#5A789F"/>
<path d="M358.943 133.297C358.943 133.302 368.334 140.479 376.006 132.771C376.006 132.781 367.037 125.302 358.943 133.297Z" fill="#5A789F"/>
<path d="M353.204 142.854C353.209 142.86 362.605 149.943 370.277 142.11C370.282 142.12 361.308 134.75 353.204 142.854Z" fill="#5A789F"/>
<path d="M311.985 134.766C311.985 134.786 311.573 144.865 324.631 146.62C324.625 146.646 325.36 136.724 311.985 134.766Z" fill="#5A789F"/>
<path d="M310.662 146.943C310.656 146.974 310.177 158.938 325.677 160.969C325.672 161.005 326.537 149.203 310.662 146.943Z" fill="#5A789F"/>
<path d="M332.729 134.083C332.735 134.068 343.875 138.141 347.636 127.807C347.636 127.792 336.844 123.396 332.729 134.083Z" fill="#5A789F"/>
<mask id="mask1_1643_3031" style="mask-type:luminance" maskUnits="userSpaceOnUse" x="39" y="168" width="27" height="18">
<path d="M39.5107 168H65.3232V185.333H39.5107V168Z" fill="white"/>
</mask>
<g mask="url(#mask1_1643_3031)">
<path d="M39.8545 168.901C39.8805 169.016 39.6774 187.261 64.5472 184.224C64.5732 184.349 65.1566 165.245 39.8545 168.901Z" fill="#5A789F"/>
</g>
<path d="M102.115 82.2188C102.11 82.2448 86.4488 98.0365 100.516 112.052C100.516 112.083 116.183 97.0729 102.115 82.2188Z" fill="#5A789F"/>
<path d="M376.875 69.3594C376.875 69.2761 360.854 78.5313 374.771 98.4011C374.771 98.3126 390.714 90.0834 376.875 69.3594Z" fill="#5A789F"/>
<path d="M314.72 22.6092C314.715 22.5467 298.522 33.4529 312.689 52.5206C312.689 52.4633 328.829 42.5623 314.72 22.6092Z" fill="#5A789F"/>
<path d="M134.272 48.2031C134.272 48.2031 124.845 56.6771 132.407 65.5469C132.407 65.5469 141.803 57.5365 134.272 48.2031Z" fill="#5A789F"/>
<path d="M134.532 39.5571C134.537 39.5988 132.599 50.3592 146.058 51.5155C146.058 51.5571 148.25 40.8019 134.532 39.5571Z" fill="#5A789F"/>
<path d="M151.089 26.229C151.084 26.2915 139.188 43.6196 157.923 54.7915C157.923 54.854 170.011 38.0467 151.089 26.229Z" fill="#5A789F"/>
<path d="M56.5791 123.964C56.5999 124.021 59.1781 137.578 78.7562 132.318C78.7718 132.386 76.5583 118.203 56.5791 123.964Z" fill="#5A789F"/>
<path d="M130.927 147.083C130.938 147.141 130.224 161.615 149.016 161.974C149.026 162.037 150.125 147.401 130.927 147.083Z" fill="#5A789F"/>
<path d="M117.048 51.8594C117.048 51.9219 102.995 69.8698 120.902 82.2344C120.902 82.3021 135.084 64.9688 117.048 51.8594Z" fill="#5A789F"/>
<path d="M43.1934 193.792C43.209 193.823 50.5267 209.401 75.0163 199.646C75.0475 199.698 68.2246 183.088 43.1934 193.792Z" fill="#5A789F"/>
<path d="M71.5994 163.328C71.615 163.448 62.7869 182.505 84.5889 189.151C84.5994 189.266 93.6931 170.177 71.5994 163.328Z" fill="#5A789F"/>
<path d="M143.22 177.021C143.225 177.047 146.48 188.719 162.131 184.13C162.131 184.161 159.282 172.286 143.22 177.021Z" fill="#5A789F"/>
<path d="M145.824 89.1772C145.819 89.1825 134.303 99.0106 144.647 108.985C144.642 108.99 156.152 99.6877 145.824 89.1772Z" fill="#5A789F"/>
<path d="M135.172 201.625C135.177 201.651 130.563 188.005 112.542 195C112.552 195.026 116.573 208.005 135.172 201.625Z" fill="#5A789F"/>
<path d="M137.256 79.6562C137.251 79.6562 127.219 87.75 135.412 96.3854C135.407 96.3854 145.412 88.7448 137.256 79.6562Z" fill="#5A789F"/>
<path d="M157.72 67.193C157.73 67.2242 153.084 55.8075 137.798 62.6669C137.803 62.7034 141.928 73.5159 157.72 67.193Z" fill="#5A789F"/>
<path d="M165.876 80.7498C165.881 80.7811 161.246 69.2655 145.938 75.8696C145.944 75.9061 150.069 86.828 165.876 80.7498Z" fill="#5A789F"/>
<path d="M174.412 90.8698C174.417 90.8802 171.172 82.7656 160.417 87.1406C160.417 87.1563 163.318 94.9531 174.412 90.8698Z" fill="#5A789F"/>
<path d="M184.568 86.104C184.563 86.104 192.131 79.5988 184.709 72.6821C184.703 72.6821 177.151 78.9113 184.568 86.104Z" fill="#5A789F"/>
<path d="M196.98 140.229C196.98 140.235 204.532 133.906 197.131 126.787C197.131 126.787 189.584 132.823 196.98 140.229Z" fill="#5A789F"/>
<path d="M325.314 172.948C325.314 172.958 326.886 164.38 315.746 161.792C315.746 161.802 313.975 170.073 325.314 172.948Z" fill="#5A789F"/>
<path d="M184.209 100.182C184.209 100.198 180.975 92.0156 170.204 96.2083C170.204 96.2291 173.1 104.099 184.209 100.182Z" fill="#5A789F"/>
<path d="M170.396 69.4845C170.396 69.4897 176.656 62.7345 168.959 57.3491C168.953 57.3543 162.672 63.8335 170.396 69.4845Z" fill="#5A789F"/>
<path d="M178.479 106.599C178.479 106.604 182.974 113.323 192.209 108.297C192.214 108.312 188.026 101.453 178.479 106.599Z" fill="#5A789F"/>
<path d="M176.1 77.5C176.095 77.4948 184.006 72.3958 178.548 65.0625C178.548 65.0573 170.699 69.9115 176.1 77.5Z" fill="#5A789F"/>
<path d="M116.902 127.672C116.892 127.656 104.35 134.536 110.162 145.859C110.152 145.849 122.553 139.521 116.902 127.672Z" fill="#5A789F"/>
<path d="M123.074 139.703C123.074 139.693 110.516 146.401 116.329 157.844C116.319 157.828 128.73 151.656 123.074 139.703Z" fill="#5A789F"/>
<path d="M125.579 153.771C125.579 153.776 116.563 160.844 123.777 168.708C123.777 168.714 132.756 162.037 125.579 153.771Z" fill="#5A789F"/>
<path d="M86.6208 207.068C86.626 207.063 80.8656 199.917 70.251 207.49C70.2562 207.484 75.5895 214.443 86.6208 207.068Z" fill="#5A789F"/>
<path d="M115.277 218.911C115.277 218.906 109.485 211.406 98.8027 218.614C98.8027 218.614 104.173 225.922 115.277 218.911Z" fill="#5A789F"/>
<path d="M96.7972 199.385C96.7972 199.406 101.558 189.849 90.4065 187.062C90.4117 187.089 85.4951 196.229 96.7972 199.385Z" fill="#5A789F"/>
<path d="M108.422 204.229C108.422 204.25 113.198 194.729 102.021 191.719C102.026 191.745 97.0942 200.854 108.422 204.229Z" fill="#5A789F"/>
<path d="M111.699 176.568C111.704 176.583 106.433 166.391 92.3027 174.005C92.3132 174.016 97.0632 183.776 111.699 176.568Z" fill="#5A789F"/>
<path d="M111.855 114.979C111.85 114.969 101.366 121.276 106.767 130.578C106.762 130.568 117.142 124.724 111.855 114.979Z" fill="#5A789F"/>
<path d="M148.308 209.344C148.313 209.344 142.485 202.114 132.454 208.969C132.459 208.969 137.886 216.016 148.308 209.344Z" fill="#5A789F"/>
<path d="M147.261 278.198C147.266 278.198 141.459 270.859 131.464 277.458C131.464 277.458 136.881 284.651 147.261 278.198Z" fill="#5A789F"/>
<path d="M71.7559 152.12C71.7611 152.14 73.2819 161.505 86.1257 157.463C86.1361 157.495 84.8965 147.943 71.7559 152.12Z" fill="#5A789F"/>
<path d="M133.574 67.1407C133.568 67.125 122.292 73.2084 127.402 83.4323C127.396 83.4167 138.542 77.8229 133.574 67.1407Z" fill="#5A789F"/>
<path d="M206.824 212.375C206.824 212.375 197.845 203.906 186.548 213.427C186.548 213.427 195.032 221.687 206.824 212.375Z" fill="#5A789F"/>
<path d="M151.032 228.724C151.026 228.724 140.823 235.516 148.115 245.026C148.115 245.031 158.261 238.667 151.032 228.724Z" fill="#5A789F"/>
<path d="M162.302 231.99C162.302 231.99 154.422 237.141 160.047 244.568C160.042 244.568 167.87 239.74 162.302 231.99Z" fill="#5A789F"/>
<path d="M238.855 162.641C238.85 162.62 227.465 166.901 232.543 178.208C232.538 178.182 243.777 174.333 238.855 162.641Z" fill="#5A789F"/>
<path d="M135.667 166.453C135.672 166.469 139.828 175.328 152.052 169.974C152.058 169.984 148.256 160.948 135.667 166.453Z" fill="#5A789F"/>
<path d="M156.626 190.62C156.631 190.635 162.142 202.323 177.98 195.807C177.985 195.833 172.938 183.875 156.626 190.62Z" fill="#5A789F"/>
<path d="M171.308 202.979C171.313 202.989 178.896 213.812 193.651 205.573C193.651 205.594 186.558 194.469 171.308 202.979Z" fill="#5A789F"/>
<path d="M207.803 199.24C207.798 199.245 218.079 189.781 206.714 179.891C206.709 179.896 196.423 188.943 207.803 199.24Z" fill="#5A789F"/>
<path d="M191.933 191.802C191.928 191.818 201.001 181.177 188.303 172.818C188.303 172.833 179.162 183.016 191.933 191.802Z" fill="#5A789F"/>
<path d="M177.511 181.87C177.511 181.886 186.001 172.432 174.923 164.771C174.918 164.792 166.386 173.833 177.511 181.87Z" fill="#5A789F"/>
<path d="M163.839 172.151C163.839 172.167 171.766 162.235 160.198 155.412C160.198 155.427 152.193 164.938 163.839 172.151Z" fill="#5A789F"/>
<path d="M186.225 135.557C186.219 135.573 196.547 124.115 183.058 114.797C183.058 114.818 172.678 125.797 186.225 135.557Z" fill="#5A789F"/>
<path d="M169.432 125.63C169.427 125.64 180.537 115.338 168.901 105.401C168.901 105.406 157.802 115.281 169.432 125.63Z" fill="#5A789F"/>
<path d="M155.792 116.25C155.787 116.25 166.912 107.646 157.704 97.6562C157.698 97.6562 146.631 105.901 155.792 116.25Z" fill="#5A789F"/>
<path d="M414.771 217.312C414.766 217.365 419.594 230.708 402.86 231.307C402.855 231.359 397.777 217.984 414.771 217.312Z" fill="#5A789F"/>
<path d="M429.465 215.427C429.459 215.469 434.074 226.693 420.267 227.427C420.261 227.464 415.449 216.266 429.465 215.427Z" fill="#5A789F"/>
<path d="M441.319 209.818C441.319 209.849 448.574 220.526 436.756 223.87C436.751 223.912 429.392 213.412 441.319 209.818Z" fill="#5A789F"/>
<path d="M345.427 224.406C345.422 224.453 343.271 209.729 362.115 211.266C362.11 211.313 364.662 225.323 345.427 224.406Z" fill="#5A789F"/>
<path d="M367.897 229.167C367.886 229.219 364.105 215.078 381.756 215.208C381.751 215.26 385.871 228.703 367.897 229.167Z" fill="#5A789F"/>
<path d="M387.209 230.651C387.209 230.698 382.157 217.922 397.631 216.703C397.631 216.75 402.923 228.922 387.209 230.651Z" fill="#5A789F"/>
<path d="M169.829 159.432C169.834 159.411 182.86 167.354 194.678 153.812C194.683 153.797 182.178 145.375 169.829 159.432Z" fill="#5A789F"/>
<path d="M152.401 151C152.401 150.969 165.412 158.568 177.203 144.787C177.209 144.766 164.709 136.688 152.401 151Z" fill="#5A789F"/>
<path d="M99.3916 185.312C99.3968 185.312 106.157 195.37 120.85 186.724C120.86 186.734 114.527 176.323 99.3916 185.312Z" fill="#5A789F"/>
<path d="M80.5371 214.656C80.5423 214.636 89.8652 222.636 102.563 211.641C102.568 211.625 93.6829 203.292 80.5371 214.656Z" fill="#5A789F"/>
<path d="M40.2451 212.901C40.2451 212.87 49.4587 220.13 62.0264 208.698C62.0264 208.672 53.2347 201.052 40.2451 212.901Z" fill="#5A789F"/>
<path d="M142.37 140.667C142.375 140.651 152.323 146.266 161.328 135.542C161.328 135.526 151.771 129.588 142.37 140.667Z" fill="#5A789F"/>
<path d="M128.334 129.349C128.339 129.344 136.235 137.271 148.188 128.047C148.193 128.047 140.699 119.771 128.334 129.349Z" fill="#5A789F"/>
<path d="M107.453 251.062C107.453 251.099 105.203 263.891 121.464 264.443C121.469 264.479 124.026 251.698 107.453 251.062Z" fill="#5A789F"/>
<path d="M169.24 260.589C169.24 260.609 171.584 249.667 158.021 248.25C158.026 248.276 155.422 258.771 169.24 260.589Z" fill="#5A789F"/>
<path d="M114.84 271.37C114.845 271.349 106.261 265.068 96.8135 274.604C96.8135 274.583 104.944 280.839 114.84 271.37Z" fill="#5A789F"/>
<path d="M190.709 251.38C190.703 251.391 195.558 243.365 185.797 238.953C185.797 238.969 180.834 246.667 190.709 251.38Z" fill="#5A789F"/>
<path d="M155.334 263.536C155.334 263.568 158.057 250.969 142.485 249.547C142.485 249.578 139.464 261.62 155.334 263.536Z" fill="#5A789F"/>
<path d="M139.116 265.151C139.116 265.188 141.735 252.948 126.61 251.818C126.61 251.844 123.699 263.531 139.116 265.151Z" fill="#5A789F"/>
<path d="M171.819 243.021C171.819 243.047 168.855 253.333 181.709 255.656C181.709 255.677 184.918 245.557 171.819 243.021Z" fill="#5A789F"/>
<path d="M88.0791 157.99C88.0895 158.026 89.3291 170.849 106.579 166.787C106.59 166.833 105.715 153.714 88.0791 157.99Z" fill="#5A789F"/>
<path d="M84.9434 145.036C84.9538 145.078 86.5944 157.005 102.818 152.516C102.829 152.557 101.532 140.328 84.9434 145.036Z" fill="#5A789F"/>
<path d="M83.1045 131.583C83.1097 131.614 84.5889 142.328 99.167 138.109C99.1722 138.151 98.0107 127.193 83.1045 131.583Z" fill="#5A789F"/>
<path d="M87.7355 114.51C87.7407 114.531 84.9595 123.474 95.8397 123.989C95.8449 124.015 98.798 115.13 87.7355 114.51Z" fill="#5A789F"/>
<path d="M49.9795 143.135C49.9847 143.146 52.693 150.547 63.5316 145.291C63.5368 145.302 61.0837 137.703 49.9795 143.135Z" fill="#5A789F"/>
<path d="M118.36 119.802C118.36 119.792 126.246 127.547 138.178 118.135C138.178 118.135 130.694 110.026 118.36 119.802Z" fill="#5A789F"/>
<path d="M112.11 104.917C112.11 104.943 115.381 115.25 129.735 109.818C129.746 109.849 126.829 99.2449 112.11 104.917Z" fill="#5A789F"/>
<path d="M68.5426 102.375C68.5582 102.458 62.0217 118.427 80.9176 120.391C80.928 120.479 87.7092 104.427 68.5426 102.375Z" fill="#5A789F"/>
<path d="M83.5528 84.396C83.5581 84.4429 74.0945 97.2762 87.7299 103.38C87.7299 103.427 97.2976 90.9116 83.5528 84.396Z" fill="#5A789F"/>
<path d="M110.318 92.4116C110.324 92.4324 111.896 101.083 123.641 97.5522C123.641 97.5783 122.35 88.7814 110.318 92.4116Z" fill="#5A789F"/>
<path d="M338.485 256.276C338.48 256.286 341.84 247.927 355.084 252.729C355.084 252.734 352.126 260.807 338.485 256.276Z" fill="#5A789F"/>
<path d="M348.642 266.656C348.642 266.677 348.558 257.568 362.397 258.406C362.397 258.427 362.808 267.125 348.642 266.656Z" fill="#5A789F"/>
<path d="M362.423 268.958C362.423 268.979 360.355 259.922 373.803 258.547C373.803 258.573 376.142 267.193 362.423 268.958Z" fill="#5A789F"/>
<path d="M376.72 270.224C376.714 270.25 373.183 261.427 385.985 258.453C385.985 258.484 389.741 266.854 376.72 270.224Z" fill="#5A789F"/>
<path d="M390.646 268.406C390.646 268.438 388.25 259.458 401.526 258.083C401.521 258.115 404.183 266.636 390.646 268.406Z" fill="#5A789F"/>
<path d="M404.089 269.604C404.084 269.646 402.901 258.542 419.73 259.271C419.724 259.312 421.303 269.786 404.089 269.604Z" fill="#5A789F"/>
<path d="M370.72 297.208C370.72 297.161 383.813 290.266 396.892 306.469C396.886 306.422 384.465 313.484 370.72 297.208Z" fill="#5A789F"/>
<path d="M326.756 253.255C326.761 253.276 321.396 243.042 333.058 235.448C333.063 235.474 338.558 245.193 326.756 253.255Z" fill="#5A789F"/>
<path d="M316.209 259.516C316.209 259.526 308.366 251.578 317.11 239.974C317.11 239.985 324.965 247.469 316.209 259.516Z" fill="#5A789F"/>
<path d="M366.225 251.458C366.225 251.427 351.464 251.562 352.24 236.453C352.246 236.416 366.699 236.078 366.225 251.458Z" fill="#5A789F"/>
<path d="M384.662 252.969C384.668 252.937 369.938 252.797 370.735 237.828C370.735 237.791 385.152 237.739 384.662 252.969Z" fill="#5A789F"/>
<mask id="mask2_1643_3031" style="mask-type:luminance" maskUnits="userSpaceOnUse" x="446" y="212" width="15" height="12">
<path d="M446.657 212H460.35V224H446.657V212Z" fill="white"/>
</mask>
<g mask="url(#mask2_1643_3031)">
<path d="M459.819 212.766C459.814 212.818 464.261 225.276 447.397 223.63C447.392 223.687 442.699 211.068 459.819 212.766Z" fill="#5A789F"/>
</g>
<path d="M456.324 190.068C456.308 190.151 458.543 206.703 435.579 200.589C435.558 200.677 432.97 183.521 456.324 190.068Z" fill="#5A789F"/>
<path d="M399.084 252.005C399.089 251.989 387.839 251.677 388.454 240.333C388.459 240.307 399.459 240.453 399.084 252.005Z" fill="#5A789F"/>
<path d="M417.375 248.365C417.375 248.334 405.948 250.396 403.229 239.016C403.229 238.985 414.344 236.781 417.375 248.365Z" fill="#5A789F"/>
<path d="M431.516 246.281C431.521 246.25 420.131 248.083 417.417 236.755C417.417 236.724 428.495 234.76 431.516 246.281Z" fill="#5A789F"/>
<path d="M446.428 239.437C446.433 239.401 436.829 244.635 429.438 235C429.438 234.969 438.688 229.583 446.428 239.437Z" fill="#5A789F"/>
<path d="M383.495 288.354C383.495 288.333 371.657 290.151 370.104 278.651C370.104 278.625 381.646 276.661 383.495 288.354Z" fill="#5A789F"/>
<path d="M371.459 307.568C371.464 307.547 359.251 308.047 359.61 296.578C359.61 296.557 371.558 295.896 371.459 307.568Z" fill="#5A789F"/>
<path d="M353.475 304C353.475 303.99 341.48 300.635 346.6 290.313C346.6 290.307 358.433 293.422 353.475 304Z" fill="#5A789F"/>
<path d="M338.016 297.589C338.016 297.599 327.766 290.875 336.808 282.964C336.808 282.969 347.016 289.37 338.016 297.589Z" fill="#5A789F"/>
<path d="M322.308 290.563C322.308 290.578 316.725 280.474 329.323 277.667C329.323 277.688 335.063 287.401 322.308 290.563Z" fill="#5A789F"/>
<path d="M369.62 286.953C369.62 286.922 357.761 288.901 356.198 277.344C356.203 277.318 367.761 275.198 369.62 286.953Z" fill="#5A789F"/>
<path d="M398.142 286.526C398.147 286.5 386.329 288.135 384.782 276.698C384.787 276.667 396.303 274.901 398.142 286.526Z" fill="#5A789F"/>
<path d="M414.157 279.854C414.157 279.828 403.74 284.958 397.24 275.151C397.24 275.125 407.287 269.87 414.157 279.854Z" fill="#5A789F"/>
<path d="M456.246 232.495C456.246 232.474 449.126 237.156 442.36 229.885C442.36 229.864 449.188 225.057 456.246 232.495Z" fill="#5A789F"/>
<path d="M45.1416 222.485C45.1468 222.443 56.6937 234.703 76.4489 220.011C76.4593 219.979 65.4541 207.021 45.1416 222.485Z" fill="#5A789F"/>
<path d="M78.9795 262.719C78.9847 262.698 88.5524 274.313 105.735 262.901C105.74 262.891 96.6878 250.875 78.9795 262.719Z" fill="#5A789F"/>
<path d="M99.6201 284.734C99.6201 284.708 110.584 294.958 125.636 282.792C125.641 282.771 115.214 272.203 99.6201 284.734Z" fill="#5A789F"/>
<path d="M91.7822 243.99C91.777 243.948 105.751 244.641 109.381 230.432C109.376 230.396 95.7874 229.464 91.7822 243.99Z" fill="#5A789F"/>
<path d="M131.365 244.911C131.36 244.896 145.183 239.917 140.808 226.609C140.802 226.594 127.203 231.26 131.365 244.911Z" fill="#5A789F"/>
<path d="M111.375 247.906C111.365 247.87 127.438 245.536 124.933 230.318C124.927 230.286 109.167 232.38 111.375 247.906Z" fill="#5A789F"/>
<path d="M76.6045 236.656C76.6045 236.63 87.2295 241.286 95.7191 229.661C95.7191 229.635 85.4951 224.739 76.6045 236.656Z" fill="#5A789F"/>
<path d="M66.9072 230.802C66.9072 230.786 74.7666 235.193 82.501 226.281C82.501 226.266 74.9697 221.677 66.9072 230.802Z" fill="#5A789F"/>
<path d="M117.87 293.052C117.87 293.042 125.792 298.266 133.594 289.797C133.594 289.792 126.011 284.422 117.87 293.052Z" fill="#5A789F"/>
<path d="M168.319 296.932C168.308 296.927 181.334 290.682 174.522 277.974C174.522 277.969 161.647 283.849 168.319 296.932Z" fill="#5A789F"/>
<path d="M188.61 290.495C188.605 290.5 201.099 280.771 188.214 270.24C188.209 270.25 175.724 279.542 188.61 290.495Z" fill="#5A789F"/>
<path d="M149.24 298.557C149.24 298.542 162.303 297.047 161.704 284.042C161.704 284.026 148.922 285.25 149.24 298.557Z" fill="#5A789F"/>
<path d="M136.053 298.703C136.048 298.688 146.521 298.323 147.245 287.849C147.245 287.839 137.027 287.995 136.053 298.703Z" fill="#5A789F"/>
</g>
<defs>
<clipPath id="clip0_1643_3031">
<rect width="500" height="500" fill="white" transform="translate(-0.00976562)"/>
</clipPath>
</defs>
</svg>
