<svg width="1544" height="728" viewBox="0 0 1544 728" fill="none" xmlns="http://www.w3.org/2000/svg">
<rect width="1543.05" height="728" fill="white"/>
<path d="M601.954 535H597.735L605.416 513.182H610.295L617.987 535H613.768L607.941 517.656H607.771L601.954 535ZM602.092 526.445H613.598V529.62H602.092V526.445ZM627.309 541.477C625.924 541.477 624.734 541.289 623.74 540.913C622.746 540.543 621.947 540.046 621.343 539.421C620.739 538.796 620.32 538.104 620.086 537.344L623.559 536.502C623.715 536.822 623.942 537.138 624.241 537.45C624.539 537.77 624.94 538.033 625.445 538.239C625.956 538.452 626.599 538.558 627.373 538.558C628.467 538.558 629.372 538.292 630.089 537.759C630.807 537.234 631.165 536.367 631.165 535.16V532.06H630.974C630.775 532.457 630.484 532.866 630.1 533.285C629.724 533.704 629.223 534.055 628.598 534.339C627.98 534.624 627.202 534.766 626.265 534.766C625.008 534.766 623.868 534.471 622.845 533.881C621.83 533.285 621.02 532.397 620.416 531.218C619.82 530.032 619.521 528.548 619.521 526.765C619.521 524.968 619.82 523.452 620.416 522.216C621.02 520.973 621.833 520.032 622.856 519.393C623.879 518.746 625.018 518.423 626.276 518.423C627.234 518.423 628.023 518.587 628.641 518.913C629.266 519.233 629.763 519.62 630.132 520.075C630.501 520.522 630.782 520.945 630.974 521.342H631.187V518.636H634.99V535.266C634.99 536.665 634.656 537.823 633.989 538.739C633.321 539.656 632.408 540.341 631.251 540.795C630.093 541.25 628.779 541.477 627.309 541.477ZM627.341 531.74C628.158 531.74 628.854 531.541 629.429 531.143C630.004 530.746 630.441 530.174 630.739 529.428C631.038 528.683 631.187 527.788 631.187 526.744C631.187 525.714 631.038 524.812 630.739 524.038C630.448 523.263 630.015 522.663 629.44 522.237C628.871 521.804 628.172 521.587 627.341 521.587C626.482 521.587 625.764 521.811 625.189 522.259C624.614 522.706 624.18 523.32 623.889 524.102C623.598 524.876 623.452 525.756 623.452 526.744C623.452 527.745 623.598 528.622 623.889 529.375C624.188 530.121 624.624 530.703 625.2 531.122C625.782 531.534 626.496 531.74 627.341 531.74ZM649.372 528.118V518.636H653.229V535H649.489V532.092H649.319C648.95 533.008 648.342 533.757 647.497 534.339C646.659 534.922 645.626 535.213 644.397 535.213C643.325 535.213 642.376 534.975 641.553 534.499C640.736 534.016 640.097 533.317 639.635 532.401C639.173 531.477 638.942 530.362 638.942 529.055V518.636H642.799V528.459C642.799 529.496 643.083 530.32 643.651 530.93C644.219 531.541 644.965 531.847 645.888 531.847C646.457 531.847 647.007 531.708 647.54 531.431C648.072 531.154 648.509 530.742 648.85 530.195C649.198 529.641 649.372 528.949 649.372 528.118ZM661.903 535.33C660.866 535.33 659.932 535.146 659.101 534.776C658.278 534.4 657.624 533.846 657.141 533.114C656.665 532.383 656.427 531.481 656.427 530.408C656.427 529.485 656.598 528.722 656.939 528.118C657.28 527.514 657.745 527.031 658.334 526.669C658.924 526.307 659.588 526.033 660.327 525.849C661.072 525.657 661.843 525.518 662.638 525.433C663.597 525.334 664.375 525.245 664.971 525.167C665.568 525.082 666.001 524.954 666.271 524.783C666.548 524.606 666.687 524.332 666.687 523.963V523.899C666.687 523.097 666.449 522.475 665.973 522.035C665.497 521.594 664.812 521.374 663.917 521.374C662.972 521.374 662.223 521.58 661.669 521.992C661.122 522.404 660.753 522.891 660.561 523.452L656.96 522.94C657.244 521.946 657.713 521.115 658.366 520.447C659.02 519.773 659.819 519.268 660.763 518.935C661.708 518.594 662.752 518.423 663.895 518.423C664.684 518.423 665.469 518.516 666.25 518.7C667.031 518.885 667.745 519.19 668.391 519.616C669.037 520.036 669.556 520.607 669.947 521.332C670.344 522.056 670.543 522.962 670.543 524.048V535H666.836V532.752H666.708C666.474 533.207 666.143 533.633 665.717 534.031C665.298 534.421 664.769 534.737 664.13 534.979C663.498 535.213 662.756 535.33 661.903 535.33ZM662.905 532.496C663.679 532.496 664.35 532.344 664.918 532.038C665.486 531.726 665.923 531.314 666.229 530.803C666.541 530.291 666.697 529.734 666.697 529.13V527.202C666.577 527.301 666.371 527.393 666.079 527.479C665.795 527.564 665.476 527.638 665.121 527.702C664.765 527.766 664.414 527.823 664.066 527.873C663.718 527.923 663.416 527.965 663.16 528.001C662.585 528.079 662.07 528.207 661.616 528.384C661.161 528.562 660.802 528.81 660.54 529.13C660.277 529.442 660.145 529.847 660.145 530.344C660.145 531.055 660.405 531.591 660.923 531.953C661.442 532.315 662.102 532.496 662.905 532.496ZM674.421 535V518.636H678.16V521.364H678.331C678.629 520.419 679.14 519.691 679.865 519.18C680.596 518.661 681.431 518.402 682.368 518.402C682.581 518.402 682.819 518.413 683.082 518.434C683.352 518.448 683.576 518.473 683.753 518.509V522.056C683.59 521.999 683.331 521.95 682.976 521.907C682.628 521.857 682.29 521.832 681.964 521.832C681.26 521.832 680.628 521.985 680.067 522.29C679.513 522.589 679.077 523.004 678.757 523.537C678.437 524.07 678.278 524.684 678.278 525.38V535H674.421ZM691.714 535.288C690.429 535.288 689.278 534.957 688.262 534.297C687.247 533.636 686.444 532.678 685.855 531.42C685.265 530.163 684.971 528.636 684.971 526.839C684.971 525.021 685.269 523.487 685.865 522.237C686.469 520.98 687.282 520.032 688.305 519.393C689.328 518.746 690.468 518.423 691.725 518.423C692.684 518.423 693.472 518.587 694.09 518.913C694.708 519.233 695.198 519.62 695.56 520.075C695.922 520.522 696.203 520.945 696.402 521.342H696.561V513.182H700.429V535H696.636V532.422H696.402C696.203 532.82 695.915 533.242 695.539 533.69C695.162 534.13 694.665 534.506 694.047 534.819C693.429 535.131 692.652 535.288 691.714 535.288ZM692.79 532.124C693.607 532.124 694.303 531.903 694.878 531.463C695.453 531.016 695.89 530.394 696.189 529.599C696.487 528.803 696.636 527.876 696.636 526.818C696.636 525.76 696.487 524.84 696.189 524.059C695.897 523.278 695.464 522.67 694.889 522.237C694.321 521.804 693.621 521.587 692.79 521.587C691.931 521.587 691.213 521.811 690.638 522.259C690.063 522.706 689.63 523.324 689.338 524.112C689.047 524.901 688.902 525.803 688.902 526.818C688.902 527.841 689.047 528.754 689.338 529.556C689.637 530.352 690.074 530.98 690.649 531.442C691.231 531.896 691.945 532.124 692.79 532.124ZM709.247 535.33C708.21 535.33 707.276 535.146 706.445 534.776C705.621 534.4 704.968 533.846 704.485 533.114C704.009 532.383 703.771 531.481 703.771 530.408C703.771 529.485 703.942 528.722 704.282 528.118C704.623 527.514 705.089 527.031 705.678 526.669C706.268 526.307 706.932 526.033 707.67 525.849C708.416 525.657 709.187 525.518 709.982 525.433C710.941 525.334 711.719 525.245 712.315 525.167C712.912 525.082 713.345 524.954 713.615 524.783C713.892 524.606 714.03 524.332 714.03 523.963V523.899C714.03 523.097 713.792 522.475 713.317 522.035C712.841 521.594 712.155 521.374 711.26 521.374C710.316 521.374 709.567 521.58 709.013 521.992C708.466 522.404 708.096 522.891 707.905 523.452L704.304 522.94C704.588 521.946 705.057 521.115 705.71 520.447C706.363 519.773 707.162 519.268 708.107 518.935C709.052 518.594 710.096 518.423 711.239 518.423C712.028 518.423 712.812 518.516 713.594 518.7C714.375 518.885 715.089 519.19 715.735 519.616C716.381 520.036 716.9 520.607 717.29 521.332C717.688 522.056 717.887 522.962 717.887 524.048V535H714.18V532.752H714.052C713.817 533.207 713.487 533.633 713.061 534.031C712.642 534.421 712.113 534.737 711.474 534.979C710.841 535.213 710.099 535.33 709.247 535.33ZM710.248 532.496C711.023 532.496 711.694 532.344 712.262 532.038C712.83 531.726 713.267 531.314 713.572 530.803C713.885 530.291 714.041 529.734 714.041 529.13V527.202C713.92 527.301 713.714 527.393 713.423 527.479C713.139 527.564 712.819 527.638 712.464 527.702C712.109 527.766 711.758 527.823 711.41 527.873C711.062 527.923 710.76 527.965 710.504 528.001C709.929 528.079 709.414 528.207 708.959 528.384C708.505 528.562 708.146 528.81 707.883 529.13C707.621 529.442 707.489 529.847 707.489 530.344C707.489 531.055 707.748 531.591 708.267 531.953C708.785 532.315 709.446 532.496 710.248 532.496ZM725.621 525.412V535H721.765V518.636H725.451V521.417H725.643C726.019 520.501 726.619 519.773 727.443 519.233C728.274 518.693 729.3 518.423 730.522 518.423C731.651 518.423 732.635 518.665 733.473 519.148C734.318 519.631 734.971 520.33 735.433 521.246C735.902 522.163 736.133 523.274 736.126 524.581V535H732.269V525.178C732.269 524.084 731.985 523.228 731.417 522.61C730.856 521.992 730.078 521.683 729.084 521.683C728.409 521.683 727.809 521.832 727.283 522.131C726.765 522.422 726.356 522.844 726.058 523.398C725.767 523.952 725.621 524.624 725.621 525.412ZM746.118 535.288C744.833 535.288 743.682 534.957 742.667 534.297C741.651 533.636 740.849 532.678 740.259 531.42C739.67 530.163 739.375 528.636 739.375 526.839C739.375 525.021 739.673 523.487 740.27 522.237C740.873 520.98 741.687 520.032 742.709 519.393C743.732 518.746 744.872 518.423 746.129 518.423C747.088 518.423 747.876 518.587 748.494 518.913C749.112 519.233 749.602 519.62 749.964 520.075C750.327 520.522 750.607 520.945 750.806 521.342H750.966V513.182H754.833V535H751.04V532.422H750.806C750.607 532.82 750.319 533.242 749.943 533.69C749.567 534.13 749.069 534.506 748.452 534.819C747.834 535.131 747.056 535.288 746.118 535.288ZM747.194 532.124C748.011 532.124 748.707 531.903 749.282 531.463C749.858 531.016 750.295 530.394 750.593 529.599C750.891 528.803 751.04 527.876 751.04 526.818C751.04 525.76 750.891 524.84 750.593 524.059C750.302 523.278 749.868 522.67 749.293 522.237C748.725 521.804 748.025 521.587 747.194 521.587C746.335 521.587 745.618 521.811 745.042 522.259C744.467 522.706 744.034 523.324 743.743 524.112C743.452 524.901 743.306 525.803 743.306 526.818C743.306 527.841 743.452 528.754 743.743 529.556C744.041 530.352 744.478 530.98 745.053 531.442C745.635 531.896 746.349 532.124 747.194 532.124ZM766.08 535.32C764.482 535.32 763.097 534.968 761.925 534.265C760.754 533.562 759.844 532.578 759.198 531.314C758.559 530.05 758.239 528.572 758.239 526.882C758.239 525.192 758.559 523.711 759.198 522.44C759.844 521.168 760.754 520.181 761.925 519.478C763.097 518.775 764.482 518.423 766.08 518.423C767.678 518.423 769.063 518.775 770.235 519.478C771.407 520.181 772.313 521.168 772.952 522.44C773.598 523.711 773.921 525.192 773.921 526.882C773.921 528.572 773.598 530.05 772.952 531.314C772.313 532.578 771.407 533.562 770.235 534.265C769.063 534.968 767.678 535.32 766.08 535.32ZM766.102 532.23C766.968 532.23 767.692 531.992 768.275 531.516C768.857 531.033 769.29 530.387 769.575 529.577C769.866 528.768 770.011 527.866 770.011 526.871C770.011 525.87 769.866 524.964 769.575 524.155C769.29 523.338 768.857 522.688 768.275 522.205C767.692 521.722 766.968 521.481 766.102 521.481C765.214 521.481 764.475 521.722 763.886 522.205C763.303 522.688 762.866 523.338 762.575 524.155C762.291 524.964 762.149 525.87 762.149 526.871C762.149 527.866 762.291 528.768 762.575 529.577C762.866 530.387 763.303 531.033 763.886 531.516C764.475 531.992 765.214 532.23 766.102 532.23ZM784.636 535V518.636H788.375V521.364H788.546C788.844 520.419 789.355 519.691 790.08 519.18C790.811 518.661 791.646 518.402 792.583 518.402C792.796 518.402 793.034 518.413 793.297 518.434C793.567 518.448 793.791 518.473 793.968 518.509V522.056C793.805 521.999 793.546 521.95 793.191 521.907C792.843 521.857 792.505 521.832 792.178 521.832C791.475 521.832 790.843 521.985 790.282 522.29C789.728 522.589 789.291 523.004 788.972 523.537C788.652 524.07 788.492 524.684 788.492 525.38V535H784.636ZM803.101 535.32C801.46 535.32 800.043 534.979 798.85 534.297C797.664 533.608 796.751 532.635 796.112 531.378C795.473 530.114 795.153 528.626 795.153 526.914C795.153 525.231 795.473 523.754 796.112 522.482C796.759 521.204 797.661 520.21 798.818 519.499C799.976 518.782 801.336 518.423 802.898 518.423C803.907 518.423 804.859 518.587 805.754 518.913C806.656 519.233 807.451 519.73 808.14 520.405C808.836 521.08 809.383 521.939 809.781 522.983C810.178 524.02 810.377 525.256 810.377 526.69V527.873H796.964V525.273H806.68C806.673 524.535 806.513 523.878 806.201 523.303C805.888 522.72 805.452 522.262 804.891 521.928C804.337 521.594 803.69 521.428 802.952 521.428C802.163 521.428 801.471 521.619 800.874 522.003C800.278 522.379 799.813 522.876 799.479 523.494C799.152 524.105 798.985 524.776 798.978 525.508V527.777C798.978 528.729 799.152 529.545 799.5 530.227C799.848 530.902 800.335 531.42 800.96 531.783C801.585 532.138 802.316 532.315 803.154 532.315C803.715 532.315 804.223 532.237 804.678 532.081C805.132 531.918 805.526 531.68 805.86 531.367C806.194 531.055 806.446 530.668 806.616 530.206L810.217 530.611C809.99 531.562 809.557 532.393 808.918 533.104C808.286 533.807 807.476 534.354 806.489 534.744C805.501 535.128 804.372 535.32 803.101 535.32ZM826.573 522.962L823.057 523.345C822.958 522.99 822.784 522.656 822.535 522.344C822.294 522.031 821.967 521.779 821.555 521.587C821.143 521.396 820.639 521.3 820.042 521.3C819.24 521.3 818.565 521.474 818.018 521.822C817.479 522.17 817.212 522.621 817.219 523.175C817.212 523.651 817.386 524.038 817.741 524.336C818.104 524.634 818.7 524.879 819.531 525.071L822.322 525.668C823.871 526.001 825.021 526.531 825.774 527.255C826.534 527.979 826.917 528.928 826.925 530.099C826.917 531.129 826.616 532.038 826.019 532.827C825.43 533.608 824.609 534.219 823.558 534.659C822.507 535.099 821.3 535.32 819.936 535.32C817.933 535.32 816.321 534.901 815.099 534.062C813.878 533.217 813.15 532.042 812.915 530.536L816.676 530.174C816.846 530.913 817.209 531.47 817.763 531.847C818.317 532.223 819.037 532.411 819.925 532.411C820.841 532.411 821.577 532.223 822.131 531.847C822.692 531.47 822.972 531.005 822.972 530.451C822.972 529.982 822.791 529.595 822.429 529.29C822.074 528.984 821.52 528.75 820.767 528.587L817.976 528.001C816.406 527.674 815.245 527.124 814.492 526.349C813.739 525.568 813.366 524.581 813.373 523.388C813.366 522.379 813.64 521.506 814.194 520.767C814.755 520.021 815.532 519.446 816.527 519.041C817.528 518.629 818.682 518.423 819.989 518.423C821.907 518.423 823.416 518.832 824.517 519.648C825.625 520.465 826.31 521.57 826.573 522.962ZM830.105 541.136V518.636H833.897V521.342H834.121C834.32 520.945 834.6 520.522 834.963 520.075C835.325 519.62 835.815 519.233 836.433 518.913C837.051 518.587 837.839 518.423 838.798 518.423C840.062 518.423 841.202 518.746 842.218 519.393C843.24 520.032 844.05 520.98 844.646 522.237C845.25 523.487 845.552 525.021 845.552 526.839C845.552 528.636 845.257 530.163 844.668 531.42C844.078 532.678 843.276 533.636 842.26 534.297C841.244 534.957 840.094 535.288 838.808 535.288C837.871 535.288 837.093 535.131 836.475 534.819C835.857 534.506 835.36 534.13 834.984 533.69C834.615 533.242 834.327 532.82 834.121 532.422H833.961V541.136H830.105ZM833.887 526.818C833.887 527.876 834.036 528.803 834.334 529.599C834.639 530.394 835.076 531.016 835.644 531.463C836.22 531.903 836.916 532.124 837.732 532.124C838.585 532.124 839.298 531.896 839.874 531.442C840.449 530.98 840.882 530.352 841.173 529.556C841.472 528.754 841.621 527.841 841.621 526.818C841.621 525.803 841.475 524.901 841.184 524.112C840.893 523.324 840.46 522.706 839.884 522.259C839.309 521.811 838.592 521.587 837.732 521.587C836.909 521.587 836.209 521.804 835.634 522.237C835.058 522.67 834.622 523.278 834.323 524.059C834.032 524.84 833.887 525.76 833.887 526.818ZM855.992 535.32C854.394 535.32 853.009 534.968 851.838 534.265C850.666 533.562 849.757 532.578 849.11 531.314C848.471 530.05 848.151 528.572 848.151 526.882C848.151 525.192 848.471 523.711 849.11 522.44C849.757 521.168 850.666 520.181 851.838 519.478C853.009 518.775 854.394 518.423 855.992 518.423C857.59 518.423 858.975 518.775 860.147 519.478C861.319 520.181 862.225 521.168 862.864 522.44C863.51 523.711 863.833 525.192 863.833 526.882C863.833 528.572 863.51 530.05 862.864 531.314C862.225 532.578 861.319 533.562 860.147 534.265C858.975 534.968 857.59 535.32 855.992 535.32ZM856.014 532.23C856.88 532.23 857.605 531.992 858.187 531.516C858.769 531.033 859.203 530.387 859.487 529.577C859.778 528.768 859.923 527.866 859.923 526.871C859.923 525.87 859.778 524.964 859.487 524.155C859.203 523.338 858.769 522.688 858.187 522.205C857.605 521.722 856.88 521.481 856.014 521.481C855.126 521.481 854.387 521.722 853.798 522.205C853.215 522.688 852.779 523.338 852.487 524.155C852.203 524.964 852.061 525.87 852.061 526.871C852.061 527.866 852.203 528.768 852.487 529.577C852.779 530.387 853.215 531.033 853.798 531.516C854.387 531.992 855.126 532.23 856.014 532.23ZM880.04 522.962L876.524 523.345C876.425 522.99 876.251 522.656 876.002 522.344C875.761 522.031 875.434 521.779 875.022 521.587C874.61 521.396 874.106 521.3 873.509 521.3C872.707 521.3 872.032 521.474 871.485 521.822C870.945 522.17 870.679 522.621 870.686 523.175C870.679 523.651 870.853 524.038 871.208 524.336C871.57 524.634 872.167 524.879 872.998 525.071L875.789 525.668C877.337 526.001 878.488 526.531 879.241 527.255C880.001 527.979 880.384 528.928 880.391 530.099C880.384 531.129 880.082 532.038 879.486 532.827C878.896 533.608 878.076 534.219 877.025 534.659C875.974 535.099 874.766 535.32 873.403 535.32C871.4 535.32 869.788 534.901 868.566 534.062C867.344 533.217 866.616 532.042 866.382 530.536L870.143 530.174C870.313 530.913 870.675 531.47 871.229 531.847C871.783 532.223 872.504 532.411 873.392 532.411C874.308 532.411 875.043 532.223 875.597 531.847C876.158 531.47 876.439 531.005 876.439 530.451C876.439 529.982 876.258 529.595 875.896 529.29C875.54 528.984 874.987 528.75 874.234 528.587L871.442 528.001C869.873 527.674 868.712 527.124 867.959 526.349C867.206 525.568 866.833 524.581 866.84 523.388C866.833 522.379 867.107 521.506 867.661 520.767C868.222 520.021 868.999 519.446 869.994 519.041C870.995 518.629 872.149 518.423 873.456 518.423C875.374 518.423 876.883 518.832 877.984 519.648C879.092 520.465 879.777 521.57 880.04 522.962ZM891.743 518.636V521.619H882.336V518.636H891.743ZM884.658 514.716H888.515V530.078C888.515 530.597 888.593 530.994 888.749 531.271C888.912 531.541 889.125 531.726 889.388 531.825C889.651 531.925 889.942 531.974 890.262 531.974C890.503 531.974 890.723 531.957 890.922 531.921C891.128 531.886 891.284 531.854 891.391 531.825L892.041 534.84C891.835 534.911 891.54 534.989 891.157 535.075C890.78 535.16 890.319 535.21 889.772 535.224C888.806 535.252 887.936 535.107 887.162 534.787C886.387 534.46 885.773 533.956 885.319 533.274C884.871 532.592 884.651 531.74 884.658 530.717V514.716ZM899.677 535.33C898.64 535.33 897.706 535.146 896.875 534.776C896.051 534.4 895.398 533.846 894.915 533.114C894.439 532.383 894.201 531.481 894.201 530.408C894.201 529.485 894.371 528.722 894.712 528.118C895.053 527.514 895.518 527.031 896.108 526.669C896.697 526.307 897.361 526.033 898.1 525.849C898.846 525.657 899.616 525.518 900.412 525.433C901.371 525.334 902.148 525.245 902.745 525.167C903.341 525.082 903.775 524.954 904.045 524.783C904.322 524.606 904.46 524.332 904.46 523.963V523.899C904.46 523.097 904.222 522.475 903.746 522.035C903.27 521.594 902.585 521.374 901.69 521.374C900.746 521.374 899.996 521.58 899.442 521.992C898.895 522.404 898.526 522.891 898.334 523.452L894.733 522.94C895.018 521.946 895.486 521.115 896.14 520.447C896.793 519.773 897.592 519.268 898.537 518.935C899.481 518.594 900.525 518.423 901.669 518.423C902.457 518.423 903.242 518.516 904.023 518.7C904.805 518.885 905.518 519.19 906.165 519.616C906.811 520.036 907.329 520.607 907.72 521.332C908.118 522.056 908.317 522.962 908.317 524.048V535H904.609V532.752H904.481C904.247 533.207 903.917 533.633 903.491 534.031C903.072 534.421 902.542 534.737 901.903 534.979C901.271 535.213 900.529 535.33 899.677 535.33ZM900.678 532.496C901.452 532.496 902.123 532.344 902.692 532.038C903.26 531.726 903.697 531.314 904.002 530.803C904.314 530.291 904.471 529.734 904.471 529.13V527.202C904.35 527.301 904.144 527.393 903.853 527.479C903.569 527.564 903.249 527.638 902.894 527.702C902.539 527.766 902.187 527.823 901.839 527.873C901.491 527.923 901.189 527.965 900.934 528.001C900.358 528.079 899.844 528.207 899.389 528.384C898.934 528.562 898.576 528.81 898.313 529.13C898.05 529.442 897.919 529.847 897.919 530.344C897.919 531.055 898.178 531.591 898.697 531.953C899.215 532.315 899.876 532.496 900.678 532.496ZM914.57 535.234C913.924 535.234 913.37 535.007 912.908 534.553C912.447 534.098 912.219 533.544 912.226 532.891C912.219 532.251 912.447 531.705 912.908 531.25C913.37 530.795 913.924 530.568 914.57 530.568C915.195 530.568 915.738 530.795 916.2 531.25C916.669 531.705 916.907 532.251 916.914 532.891C916.907 533.324 916.793 533.718 916.573 534.073C916.36 534.428 916.076 534.712 915.721 534.925C915.373 535.131 914.989 535.234 914.57 535.234ZM923.271 535.234C922.625 535.234 922.071 535.007 921.609 534.553C921.148 534.098 920.92 533.544 920.928 532.891C920.92 532.251 921.148 531.705 921.609 531.25C922.071 530.795 922.625 530.568 923.271 530.568C923.896 530.568 924.44 530.795 924.901 531.25C925.37 531.705 925.608 532.251 925.615 532.891C925.608 533.324 925.494 533.718 925.274 534.073C925.061 534.428 924.777 534.712 924.422 534.925C924.074 535.131 923.69 535.234 923.271 535.234ZM931.972 535.234C931.326 535.234 930.772 535.007 930.311 534.553C929.849 534.098 929.622 533.544 929.629 532.891C929.622 532.251 929.849 531.705 930.311 531.25C930.772 530.795 931.326 530.568 931.972 530.568C932.597 530.568 933.141 530.795 933.602 531.25C934.071 531.705 934.309 532.251 934.316 532.891C934.309 533.324 934.195 533.718 933.975 534.073C933.762 534.428 933.478 534.712 933.123 534.925C932.775 535.131 932.392 535.234 931.972 535.234Z" fill="#5A7DA0"/>
<path d="M954.692 368.2C952.046 428.636 903.559 476.212 844.698 476.212H598.016C563.103 476.212 539.116 440.006 552.041 406.674C569.27 361.134 625.41 394.833 599.688 356.535C574.755 319.404 559.91 274.092 581.187 252.267C630.441 201.746 688.582 268.75 720.54 259.043C730.733 255.733 771.206 229.572 786.946 224.885C887.241 187.751 963.298 275.632 954.692 368.2Z" fill="#E3F0FF"/>
<path d="M568.741 353.481C571.467 347.968 547.351 319.87 536.275 327.032C525.199 334.194 524.049 348.73 540.563 354.006C556.172 358.991 566.018 358.994 568.741 353.481Z" fill="#E3F0FF"/>
<path d="M622.728 235.56L619.348 215.682C619.271 215.24 618.837 214.939 618.377 215.011C617.919 215.085 617.607 215.504 617.681 215.946L620.984 235.363L606.724 246.828C606.365 247.116 606.316 247.631 606.614 247.977C606.782 248.169 607.022 248.27 607.265 248.27C607.455 248.27 607.646 248.209 607.803 248.081L622.433 236.317C622.665 236.133 622.775 235.842 622.728 235.56Z" fill="#C7DEFF"/>
<path d="M645.206 245.657L625.568 238.852C625.286 238.756 624.972 238.809 624.743 238.993L610.113 250.757C609.754 251.045 609.704 251.559 610.002 251.905C610.171 252.097 610.411 252.199 610.651 252.199C610.841 252.199 611.034 252.137 611.192 252.009L625.452 240.544L644.634 247.192C645.073 247.344 645.556 247.122 645.713 246.699C645.871 246.275 645.644 245.809 645.206 245.657Z" fill="#C7DEFF"/>
<path d="M616.407 234.256C616.476 234.656 616.832 234.938 617.237 234.938C617.284 234.938 617.328 234.936 617.375 234.928C617.836 234.856 618.148 234.437 618.071 233.992L615.485 218.786C615.411 218.344 614.975 218.043 614.517 218.115C614.056 218.189 613.744 218.608 613.821 219.05L616.407 234.256Z" fill="#C7DEFF"/>
<path d="M641.341 248.76L626.317 243.554C625.878 243.402 625.398 243.623 625.238 244.047C625.081 244.47 625.31 244.937 625.749 245.089L640.772 250.295C640.866 250.327 640.963 250.343 641.057 250.343C641.402 250.343 641.727 250.135 641.851 249.802C642.009 249.378 641.78 248.912 641.341 248.76Z" fill="#C7DEFF"/>
<path d="M811.805 360.293L791.384 356.173C790.925 356.08 790.478 356.362 790.385 356.805C790.288 357.244 790.581 357.676 791.036 357.766L810.988 361.793L816.924 378.769C817.073 379.195 817.553 379.424 817.994 379.28C818.24 379.198 818.425 379.019 818.51 378.801C818.579 378.63 818.587 378.436 818.524 378.247L812.431 360.831C812.335 360.556 812.098 360.354 811.805 360.293Z" fill="#C7DEFF"/>
<path d="M829.666 343.692L816.013 358.923C815.817 359.141 815.756 359.442 815.85 359.717L821.942 377.132C822.091 377.559 822.572 377.788 823.013 377.644C823.259 377.564 823.444 377.383 823.529 377.164C823.598 376.994 823.606 376.799 823.543 376.61L817.605 359.637L830.941 344.758C831.247 344.417 831.208 343.905 830.855 343.609C830.505 343.316 829.972 343.353 829.666 343.692Z" fill="#C7DEFF"/>
<path d="M831.271 348.288L820.825 359.94C820.519 360.281 820.557 360.796 820.91 361.089C821.264 361.384 821.796 361.347 822.1 361.006L832.546 349.354C832.612 349.282 832.662 349.2 832.695 349.114C832.819 348.803 832.736 348.438 832.46 348.206C832.107 347.913 831.575 347.947 831.271 348.288Z" fill="#C7DEFF"/>
<path d="M703.642 430.142C703.642 430.142 606.752 180.777 537.325 244.908C524.039 261.071 539.612 288.687 568.221 320.713C596.829 352.736 680.041 435.986 691.832 449.194L703.642 430.142Z" fill="#5A789F"/>
<path d="M703.641 430.142C703.641 430.142 643.679 275.822 584.296 241.207C585.609 244.511 586.415 248.079 585.149 250.343C582.246 255.534 569.156 257.914 565.414 266.525C562.213 273.898 567.299 302.359 555.814 306.036C559.589 310.803 563.745 315.703 568.22 320.713C596.829 352.736 680.041 435.985 691.831 449.194L703.641 430.142Z" fill="#5A789F"/>
<path d="M548.492 246.925C555.233 252.166 561.687 257.754 568.025 263.443C604.981 296.982 637.723 335.061 664.041 376.965C669.101 385.073 674.038 393.581 678.511 402.009C680.392 405.521 682.492 409.689 684.258 413.259C685.4 415.625 687.017 419.017 688.102 421.41L688.85 423.046L689.575 424.696L690.301 426.342L691.021 427.992C682.382 410.818 672.768 394.146 662.225 378.047C651.696 361.936 640.313 346.365 628.255 331.291C610.154 308.687 590.58 287.168 569.8 266.813C562.868 260.043 555.788 253.328 548.492 246.925Z" fill="#5AA5D1"/>
<path d="M558.635 365.366C558.635 365.366 539.949 358.004 527.297 372.432C516.63 384.602 533.754 417.637 551.438 433.627C551.438 433.627 534.091 444.12 533.503 456.21C532.915 468.296 553.331 481.054 582.229 484.662L585.149 382.15L558.635 365.366Z" fill="#5A789F"/>
<path d="M556.508 364.691C558.254 374.521 559.526 389.781 562.222 406.381C566.458 432.467 576.157 470.334 543.128 471.192C551.751 477.467 565.58 482.583 582.23 484.661L585.149 382.149L558.635 365.365C558.635 365.365 557.854 365.056 556.508 364.691Z" fill="#5A789F"/>
<path d="M536.188 374.43C550.076 388.131 563.467 402.376 576.653 416.707C580.483 420.85 584.553 425.169 588.275 429.39C595.436 437.573 602.353 446.028 608.818 454.736C609.155 455.199 609.494 455.658 609.828 456.124L609.619 456.292C599.922 446.593 590.552 436.334 581.628 425.969C578.811 422.643 575.547 418.838 572.683 415.55C563.643 405.233 554.507 394.91 545.288 384.745C542.209 381.35 539.118 377.963 535.992 374.611L536.188 374.43Z" fill="#5AA5D1"/>
<path d="M545.145 456.079C552.226 456.537 559.369 456.217 566.392 455.282C569.888 454.808 573.356 454.187 576.753 453.265C579.562 452.497 582.313 451.557 585.061 450.616C588.08 449.577 591.052 448.405 593.944 447.064C595.82 446.193 597.622 445.258 599.459 444.291L599.628 444.496C598.72 445.452 597.693 446.372 596.653 447.192C592.056 450.789 586.587 453.363 580.856 454.757C571.513 456.977 561.82 457.728 552.231 457.099C549.844 456.939 547.469 456.713 545.109 456.337L545.145 456.079Z" fill="#5AA5D1"/>
<mask id="mask0_1949_925" style="mask-type:luminance" maskUnits="userSpaceOnUse" x="573" y="260" width="138" height="227">
<path d="M573.81 260.346H710.141V486.239H573.81V260.346Z" fill="white"/>
</mask>
<g mask="url(#mask0_1949_925)">
<path d="M699.254 486.21H584.776C579.001 486.21 574.318 481.691 574.318 476.114V270.81C574.318 265.233 579.001 260.711 584.776 260.711H699.254C705.032 260.711 709.715 265.233 709.715 270.81V476.114C709.715 481.691 705.032 486.21 699.254 486.21Z" fill="#303C72"/>
</g>
<path d="M695.297 480.303H588.735C583.94 480.303 580.052 476.548 580.052 471.92V275.001C580.052 270.373 583.94 266.621 588.735 266.621H695.297C700.092 266.621 703.978 270.373 703.978 275.001V471.92C703.978 476.548 700.092 480.303 695.297 480.303Z" fill="#D4EBFF"/>
<path d="M695.297 266.621H588.735C583.94 266.621 580.052 270.373 580.052 275.001V285.303H703.978V275.001C703.978 270.373 700.092 266.621 695.297 266.621Z" fill="#8CCBFF"/>
<path d="M667.347 366.877C667.347 366.877 679.695 358.59 689.353 374.116C699.013 389.645 709.672 420.464 712.688 430.043C715.704 439.62 704.098 444.707 696.922 437.398C689.742 430.089 671.906 396.922 667.825 388.764C663.744 380.605 661.255 371.489 667.347 366.877Z" fill="#9E5959"/>
<path d="M699.944 424.727L709.88 421.598C708.939 418.883 706.644 412.544 706.644 412.544C706.644 412.544 701.131 419.334 699.944 424.727Z" fill="#914D4D"/>
<path d="M688.371 425.416C688.324 422.24 688.294 417.188 688.438 412.056C688.672 403.607 687.292 384.534 687.292 384.534L675.676 403.532C679.561 410.601 684.197 418.736 688.371 425.416Z" fill="#914D4D"/>
<path d="M668.983 364.667C668.983 364.667 658.47 369.122 663.743 382.419C669.016 395.718 685.949 423.371 691.018 431.775C696.087 440.179 703.344 444.173 708.868 441.343C714.392 438.511 714.707 433.584 712.505 426.03C710.3 418.479 695.866 383.897 692.232 376.828C688.596 369.762 679.341 359.255 668.983 364.667Z" fill="white"/>
<path d="M705.664 407.981C702.444 412.06 698.399 422.028 698.399 422.028L709.422 417.451C708.33 414.621 707.041 411.378 705.664 407.981Z" fill="#D4EBFF"/>
<path d="M690.967 431.688C691.072 425.652 691.246 412.148 690.909 404.546C690.471 394.546 688.465 382.419 688.465 382.419L680.507 414.187C684.883 421.669 688.887 428.24 690.967 431.688Z" fill="#D4EBFF"/>
<path d="M736.427 386.613C736.427 386.613 744.868 389.653 749.398 399.544L745.337 402.768L733.988 391.673L736.427 386.613Z" fill="#ABD3FC"/>
<path d="M702.072 440.377C705.907 441.658 710.168 440.518 712.894 437.614C720.286 429.734 744.634 403.515 749.656 394.743C755.597 384.37 747.794 382.87 740.534 389.305C733.277 395.74 721.404 405.484 715.871 409.974C706.865 417.285 698.079 422.729 695.259 428.266C693.284 432.141 696.33 438.458 702.072 440.377Z" fill="#9E5959"/>
<path d="M742.664 404.306C738.886 408.654 731.566 400.432 734.08 396.389C734.121 396.325 741.624 387.335 742.634 383.954C743.696 380.391 743.177 378.665 746.974 375.504C750.205 372.818 752.363 370.993 753.988 371.244C755.71 371.51 754.223 373.73 752.473 375.222C750.58 376.839 747.722 381.609 750.423 381.478C752.575 381.372 759.482 379.986 761.568 379.086C764.967 377.617 773.474 369.656 775.478 373.855C775.478 373.855 777.682 373.501 777.533 375.963C777.533 375.963 780.199 376.786 777.776 379.826C777.776 379.826 779.33 381.185 777.779 382.933C776.727 384.119 772.128 388.164 769.076 390.442C766.027 392.72 753.685 394.207 749.317 396.754C747.926 397.567 743.528 403.312 742.664 404.306Z" fill="#F6AF9A"/>
<path d="M749.325 380.689C749.524 383.221 750.404 385.272 749.535 387.814C751.684 385.808 749.794 382.826 749.325 380.689Z" fill="#E57E73"/>
<path d="M777.775 379.826C776.501 379.626 775.516 380.631 774.594 381.308C771.724 383.397 769.023 385.797 766.016 387.644C769.589 386.815 771.984 383.644 774.795 381.537C775.607 380.74 776.713 379.85 777.775 379.826Z" fill="#E57E73"/>
<path d="M777.533 375.963C774.84 376.197 772.889 378.254 770.798 379.688C768.679 381.095 766.794 383.173 764.664 384.316C765.994 384.164 767.128 383.317 768.13 382.51C771.184 380.333 773.902 376.909 777.533 375.963Z" fill="#E57E73"/>
<path d="M775.477 373.855C770.588 374.55 767.382 378.904 763.334 381.177C767.997 380.018 770.773 374.745 775.477 373.855Z" fill="#E57E73"/>
<path d="M764.14 388.519C758.997 386.925 752.082 385.86 747.599 389.427C752.527 386.635 758.757 387.759 764.14 388.519Z" fill="#EA9A88"/>
<path d="M763.005 381.044C763.938 381.825 764.236 383.032 764.528 384.143C765.461 384.99 765.646 386.371 765.88 387.538C766.355 387.873 766.366 388.537 766.371 389.054C766.242 388.526 766.04 387.959 765.56 387.695C765.171 386.661 764.923 385.297 764.087 384.535C763.571 383.549 763.596 382.153 762.737 381.297C762.47 380.757 762.307 380.117 761.838 379.675C762.376 379.979 762.732 380.509 763.005 381.044Z" fill="#EA9A88"/>
<path d="M736.428 386.613C736.428 386.613 739.69 396.885 749.4 399.544C749.4 399.544 721.87 432.521 714.707 438.263C707.546 444.008 696.785 441.418 692.966 432.945C689.288 424.783 736.428 386.613 736.428 386.613Z" fill="white"/>
<path d="M656.369 459.585C644.349 463.395 639.476 472.085 638.02 480.302H684.012C683.049 474.981 681.964 470.968 680.753 468.898C673.151 455.892 656.369 459.585 656.369 459.585Z" fill="#F6AF9A"/>
<path d="M656.77 453.857C642.789 456.558 635.661 465.733 635.189 480.303H687.487C687.406 479.751 687.326 479.215 687.246 478.696C683.359 453.633 656.77 453.857 656.77 453.857Z" fill="#384682"/>
<path d="M621.931 422.412C623.62 440.861 618.51 452.013 616.321 463.23C615.168 469.149 614.859 474.992 615.659 480.302H677.716C681.529 471.765 680.859 463.353 680.983 458.802C681.195 451.141 681.836 438.349 681.836 438.349C684.095 404.516 620.245 403.959 621.931 422.412Z" fill="#F6AF9A"/>
<path d="M617.844 453.198C617.844 453.198 611.837 467.536 614.055 480.302H678.808C682.331 468.703 682.069 453.856 682.069 453.856C673.816 455.14 617.844 453.198 617.844 453.198Z" fill="#384682"/>
<path d="M613.39 480.302H659.106C658.891 459.596 641.134 458.205 641.134 458.205C627.183 456.787 616.842 460.869 613.39 480.302Z" fill="#F6AF9A"/>
<path d="M611.031 480.254C611.028 480.27 611.028 480.286 611.025 480.302H663.996C663.703 465.476 653.899 455.897 637.506 453.877C637.506 453.877 614.055 452.156 611.031 480.254Z" fill="#384682"/>
<path d="M635.071 357.793C646.222 355.986 655.12 357.462 665.617 360.431C672.639 362.416 680.164 364.329 683.563 368.917C689.532 376.973 686.811 396.872 685.285 406.083C683.759 415.292 682.603 434.552 681.767 439.5C680.931 444.448 658.194 452.215 644.276 450.193C633.606 448.642 623.841 443.593 622.45 434.157C620.814 423.03 618.027 407.077 614.793 397.383C611.559 387.692 606.479 367.508 622.5 360.753C625.505 359.487 632.135 358.267 635.071 357.793Z" fill="#F6AF9A"/>
<path d="M661.38 347.534C661.38 347.534 661.019 357.587 663.328 362.195C665.635 366.799 657.735 369.663 652.6 369.621C647.465 369.578 639.579 366.802 638.657 360.83C637.739 354.856 641.522 357.116 640.807 340.88C640.25 328.184 662.818 335.024 661.38 347.534Z" fill="#F6AF9A"/>
<path d="M662.606 360.313C661.102 355.306 661.381 347.534 661.381 347.534C662.52 337.601 648.528 331.243 642.996 335.405C642.77 336.82 642.665 338.413 642.709 340.212C642.731 341.147 652.151 358.706 662.606 360.313Z" fill="#EA9A88"/>
<path d="M686.378 455.927C685.621 450.433 686.378 423.51 686.485 419.649C686.593 415.785 688.659 395.54 688.439 389.488C688.215 383.434 686.471 371.308 684.912 367.665C683.351 364.026 671.582 361.244 665.421 360.314L662.383 359.488C662.383 359.488 663.357 362.89 658.161 363.754C650.512 365.025 642.196 360.522 638.752 357.305C638.752 357.305 636.724 357.055 635.35 357.303C635.35 357.303 622.044 359.36 618.559 360.713C615.074 362.067 610.061 367.99 609.846 378.113C609.628 388.236 614.925 407.152 616.437 416.843C617.952 426.537 616.978 443.129 616.33 448.869C615.681 454.608 609.412 472.871 609.305 480.071C609.305 480.071 610.099 480.159 611.504 480.303H673.232C681.968 479.44 688.433 478.686 688.971 478.296C688.971 478.296 687.36 473.601 687.247 469.741C687.134 465.88 687.134 461.422 686.378 455.927Z" fill="#85B9F1"/>
<path d="M657.335 365.659C660.724 365.622 665.555 372.555 665.555 372.555C667.073 369.906 668.488 364.273 669.225 360.996C667.837 360.711 666.535 360.482 665.42 360.314L662.382 359.488C662.382 359.488 663.356 362.89 658.16 363.754C650.511 365.025 642.195 360.522 638.751 357.305C638.751 357.305 636.723 357.055 635.349 357.303C635.349 357.303 634.538 357.428 633.266 357.639L631.514 360.247L652.815 376.84C652.815 376.84 652.752 375.742 653.503 372.049C654.711 366.088 657.335 365.659 657.335 365.659Z" fill="#75AEEB"/>
<path d="M629.042 413.957C630.75 401.353 631.415 378.968 631.415 378.968C631.415 378.968 619.765 383.397 610.306 385.123C611.603 395.457 615.229 409.097 616.437 416.843C617.952 426.534 616.978 443.129 616.33 448.868C615.681 454.608 609.412 472.871 609.305 480.071C609.305 480.071 610.099 480.159 611.504 480.303H631.622C620.055 474.238 620.714 456.468 622.24 446.652C624.034 435.093 627.751 423.494 629.042 413.957Z" fill="#75AEEB"/>
<path d="M657.816 367.569C659.402 367.513 659.747 364.891 659.811 363.33C659.344 363.503 658.798 363.647 658.158 363.754C656.844 363.972 655.509 364.02 654.185 363.935C654.756 365.163 656.119 367.628 657.816 367.569Z" fill="#384682"/>
<path d="M656.492 366.069C656.492 366.069 664.82 402.856 665.554 410.956L670.727 420.461L672.905 407.98C672.905 407.98 664.254 378.206 658.542 365.698L656.492 366.069Z" fill="#384682"/>
<path d="M656.966 363.905C656.966 363.905 661.256 361.864 662.379 359.487C662.379 359.487 664.231 359.431 664.998 359.799C664.998 359.799 666.248 366.087 664.998 370.1C664.998 370.1 660.754 364.553 657.413 364.832C654.063 365.115 651.886 372.709 651.886 372.709C651.886 372.709 639.988 363.721 638.515 357.329L638.851 356.956C638.851 356.956 649.013 362.698 656.966 363.905Z" fill="#96C3F2"/>
<path d="M679.18 311.786C679.18 311.786 680.833 319.385 678.52 328.301L673.413 311.485L679.18 311.786Z" fill="#8C4949"/>
<path d="M658.162 297.184C658.162 297.184 674.726 298.124 677.402 312.348C680.079 326.571 678.404 352.301 668.782 355.117C660.002 357.688 646.454 348.911 640.75 340.102C634.749 330.832 632.619 319.015 636.151 310.077C639.244 302.254 645.138 296.507 658.162 297.184Z" fill="#F6AF9A"/>
<path d="M650.631 313.816C650.631 313.816 648.939 316.238 649.406 319.897C649.709 322.279 648.763 323.137 646.194 326.609C643.622 330.081 644.218 330.283 643.462 334.11C642.706 337.933 640.86 347.31 640.81 348.059C640.758 348.81 638.377 346.178 636.594 340.96C634.814 335.743 631.031 325.62 630.706 316.332C630.383 307.046 639.246 297.653 648.327 296.712C648.327 296.712 656.974 292.955 665.299 296.297C673.621 299.635 679.752 304.717 679.399 313.081L677.584 313.139C677.584 313.139 676.201 312.159 675.76 311.903C673.745 310.736 672.106 311.314 670.277 312.465C670.277 312.465 663.158 315.921 659.375 315.506C659.375 315.506 655.057 316.795 650.631 313.816Z" fill="#8C4949"/>
<path d="M643.224 305.346C643.224 305.346 642.15 312.209 649.683 315.996C650.072 314.621 650.629 313.816 650.629 313.816C650.629 313.816 644.098 309.905 643.224 305.346Z" fill="#7D4141"/>
<path d="M647.597 299.774C647.531 303.113 648.359 306.67 650.917 309.038C653.963 311.809 659.638 312.369 663.689 312.268C663.195 312.452 662.682 312.59 662.163 312.699C658.295 313.477 653.665 313.107 650.472 310.664C647.238 308.116 646.264 303.496 647.597 299.774Z" fill="#7D4141"/>
<path d="M651.793 298C654.025 297.28 656.393 297.03 658.743 297.04C663.498 297.083 668.401 298.538 671.888 301.751C673.632 303.345 674.959 305.324 675.721 307.456C675.037 306.539 674.336 305.663 673.563 304.858C671.301 302.463 668.401 300.675 665.233 299.62C660.931 298.175 656.329 297.856 651.793 298Z" fill="#7D4141"/>
<path d="M649.958 299.774C654.409 300.088 658.771 301.221 662.915 302.803C666.099 304.034 669.181 305.761 671.485 308.252C671.836 308.636 672.164 309.044 672.432 309.483C672.233 309.316 672.029 309.158 671.822 309.009C671.665 308.895 671.353 308.676 671.193 308.567C668.883 307.016 666.356 305.788 663.762 304.754C659.207 302.961 654.56 301.503 649.958 299.774Z" fill="#7D4141"/>
<path d="M652.845 303.741C655.758 306.392 659.533 307.765 663.252 309.033C664.513 309.459 665.799 309.84 667.099 310.328C666.406 310.402 665.716 310.41 665.021 310.389C661.55 310.227 658.04 309.155 655.334 306.989C654.28 306.105 653.278 305.044 652.845 303.741Z" fill="#7D4141"/>
<path d="M646.886 331.123C646.886 331.123 646.85 323.63 642.223 323.579C637.593 323.529 637.617 329.801 640.603 333.87C642.272 336.148 646.905 339.018 646.886 331.123Z" fill="#F6AF9A"/>
<path d="M641.792 328.632C642.702 328.682 643.42 329.165 643.922 329.655C643.792 328.794 643.425 327.963 642.584 327.446C642.366 327.313 642.302 327.036 642.44 326.825C642.578 326.615 642.862 326.553 643.083 326.687C646.088 328.528 644.52 333.028 644.452 333.217C644.369 333.452 644.104 333.577 643.861 333.494C643.856 333.494 643.853 333.492 643.847 333.492C643.613 333.406 643.489 333.156 643.571 332.924C643.577 332.906 643.844 332.138 643.944 331.158C643.938 331.15 643.927 331.142 643.922 331.131C643.913 331.118 643.061 329.602 641.739 329.53C641.483 329.516 641.287 329.303 641.3 329.055C641.314 328.808 641.535 328.618 641.792 328.632Z" fill="#E57E73"/>
<path d="M607.011 480.302H690.38C689.186 468.176 687.701 450.193 687.348 441.986C686.873 430.925 688.926 401.247 688.97 391.993C689.014 382.738 686.244 369.797 686.244 369.797C685.877 368.733 685.105 365.613 678.201 363.13C671.297 360.649 665.18 360.247 665.18 360.247C671.137 375.086 669.451 413.173 669.451 413.173C669.451 413.173 664.059 399.022 656.493 383.503C649.854 369.887 634.802 357.302 634.802 357.302C627.697 357.526 615.319 360.364 615.319 360.364C602.977 373.434 611.191 400.397 613.252 414.756C615.311 429.116 613.451 444.221 607.993 474.091C607.651 475.962 607.323 478.045 607.011 480.302Z" fill="white"/>
<path d="M669.556 409.966L669.451 413.979C674.462 380.669 671.683 363.069 671.223 361.164C667.649 360.41 665.18 360.248 665.18 360.248C670.088 372.473 669.807 400.483 669.556 409.966Z" fill="#ABD3FC"/>
<path d="M669.231 412.6C668.147 409.811 663.169 397.188 656.494 383.503C649.856 369.887 634.804 357.302 634.804 357.302C632.698 357.369 630.129 357.665 627.558 358.048C627.558 358.048 663.693 396.413 669.452 413.978L669.231 412.6Z" fill="#ABD3FC"/>
<path d="M667.704 480.303H668.808C669.903 457.878 670.676 435.452 669.451 413.174C670.107 435.514 668.846 457.992 667.704 480.303Z" fill="#ABD3FC"/>
<path d="M613.252 414.756C615.311 429.115 613.451 444.221 607.993 474.091C607.651 475.962 607.323 478.045 607.011 480.302H616.456L618.189 463.044C618.641 458.197 620.371 439.776 620.942 434.434C621.605 428.265 622.926 427.413 626.232 410.277C629.538 393.141 630.327 378.296 630.327 378.296L609.916 396.189C611.02 403.13 612.524 409.691 613.252 414.756Z" fill="#D4EBFF"/>
<path d="M663.691 359.525C663.691 359.525 668.101 376.357 669.45 413.174C669.45 413.174 671.624 391.143 671.075 376.994C670.523 362.848 670.115 360.942 670.115 360.942C670.115 360.942 665.507 359.16 663.691 359.525Z" fill="white"/>
<path d="M669.452 413.173C656.494 383.503 628.738 357.878 628.738 357.878C631.522 356.527 638.854 356.956 638.854 356.956C638.854 356.956 649.659 368.803 657.195 382.952C667.344 402.009 669.452 413.173 669.452 413.173Z" fill="white"/>
<path d="M616.157 360.946C616.157 360.946 631.149 362.108 628.403 380.027C625.658 397.944 613.63 428.291 609.665 437.542C605.699 446.791 593.892 443.772 593.153 433.724C592.411 423.678 599.924 386.958 602.137 378.151C604.347 369.347 608.417 360.778 616.157 360.946Z" fill="#F6AF9A"/>
<path d="M618.558 360.713C618.558 360.713 607.556 356.359 601.442 377.1C595.324 397.841 591.359 425.446 591.194 434.7C591.028 443.954 600.429 448.524 606.397 445.071C612.368 441.62 618.814 420.133 622.688 409.187C628.737 392.099 638.154 364.907 618.558 360.713Z" fill="white"/>
<path d="M593.029 432.831C593.029 432.831 592.927 462.266 594.285 480.303H607.239C608.197 472.133 609.4 463.186 610.084 458.275C611.654 447.017 613.081 438.05 613.249 430.883C613.47 421.517 593.694 419.55 593.029 432.831Z" fill="#F6AF9A"/>
<path d="M603.719 417.946C603.719 417.946 592.348 418.906 591.192 432.626C590.322 442.956 590.198 464.862 590.615 480.303H611.983C613.79 461.686 616.983 428.48 617.049 425.418C617.143 421.139 609.304 416.99 603.719 417.946Z" fill="white"/>
<path d="M703.301 442.071V471.92C703.301 476.181 699.708 479.647 695.296 479.647H588.735C584.32 479.647 580.73 476.181 580.73 471.92V275.001C580.73 270.741 584.32 267.274 588.735 267.274H695.296C699.708 267.274 703.301 270.741 703.301 275.001V402.206C703.69 403.15 704.076 404.088 704.457 405.023C704.581 404.903 704.656 404.74 704.656 404.559V275.001C704.656 270.019 700.456 265.966 695.296 265.966H588.735C583.572 265.966 579.375 270.019 579.375 275.001V471.92C579.375 476.903 583.572 480.956 588.735 480.956H695.296C700.456 480.956 704.656 476.903 704.656 471.92V442.234C704.209 442.212 703.756 442.159 703.301 442.071Z" fill="white"/>
<path d="M666.04 270.807H617.993C615.046 270.807 612.656 268.5 612.656 265.657V264.58H671.374V265.657C671.374 268.5 668.987 270.807 666.04 270.807Z" fill="#303C72"/>
<path d="M962.527 311.929C964.089 310.868 965.802 310.056 967.624 309.51C975.132 307.25 994.557 303.52 1009.28 319.262C1024.99 336.062 1002.25 383.697 977.905 407.161C977.905 407.161 1003.01 421.294 1004.42 438.422C1005.82 455.55 977.449 474.554 936.612 480.941L927.636 335.591L962.527 311.929Z" fill="#5A789F"/>
<path d="M967.464 309.559C965.449 323.585 964.359 345.296 961.316 368.971C956.534 406.179 944.553 460.345 991.469 460.113C979.527 469.394 960.138 477.263 936.612 480.942L927.636 335.592L962.53 311.927C964.025 310.912 965.664 310.11 967.406 309.577L967.464 309.559Z" fill="#5A789F"/>
<path d="M997.005 322.701C978.755 343.426 961.005 364.641 943.461 385.931C938.481 392.007 933.103 398.761 928.1 404.826C917.805 417.232 907.151 429.852 896.36 441.851L896.145 441.691C896.614 441.027 897.088 440.369 897.56 439.711C899.933 436.431 902.364 433.143 904.789 429.916C911.605 420.883 918.691 411.877 925.89 403.126C933.081 394.453 940.721 385.718 948.047 377.146C957.533 366.099 967.279 354.972 977.009 344.129C981.286 339.357 985.803 334.38 990.137 329.671C992.35 327.281 994.561 324.891 996.801 322.525L997.005 322.701Z" fill="#5AA5D1"/>
<path d="M987.948 439.063C972.048 441.682 955.628 441.466 939.803 438.436C938.15 438.114 936.426 437.736 934.801 437.32C927.784 435.484 921.018 432.548 915.05 428.529C914.236 427.983 913.256 427.277 912.486 426.675C911.664 426.038 910.836 425.353 910.063 424.663L910.224 424.453C911.708 425.249 913.17 426.051 914.663 426.792C916.095 427.512 917.701 428.274 919.175 428.921C923.327 430.77 927.632 432.316 931.986 433.659C936.349 435.01 940.761 436.249 945.253 437.147C957.606 439.51 970.313 440.075 982.87 439.26C984.551 439.148 986.234 439.009 987.903 438.804L987.948 439.063Z" fill="#5AA5D1"/>
<mask id="mask1_1949_925" style="mask-type:luminance" maskUnits="userSpaceOnUse" x="815" y="260" width="137" height="227">
<path d="M815.396 260.346H951.727V486.239H815.396V260.346Z" fill="white"/>
</mask>
<g mask="url(#mask1_1949_925)">
<path d="M940.77 486.209H826.293C820.517 486.209 815.832 481.69 815.832 476.113V270.809C815.832 265.232 820.517 260.71 826.293 260.71H940.77C946.548 260.71 951.231 265.232 951.231 270.809V476.113C951.231 481.69 946.548 486.209 940.77 486.209Z" fill="#303C72"/>
</g>
<path d="M936.808 480.303H830.249C825.453 480.303 821.565 476.548 821.565 471.92V275.001C821.565 270.373 825.453 266.621 830.249 266.621H936.808C941.603 266.621 945.491 270.373 945.491 275.001V471.92C945.491 476.548 941.603 480.303 936.808 480.303Z" fill="#D4EBFF"/>
<path d="M845.726 376.687C846.545 372.384 850.055 368.824 854.779 368.03C860.847 367.009 866.622 370.929 867.679 376.786C867.897 378.003 867.897 379.208 867.701 380.361C867.657 380.633 867.599 380.902 867.532 381.169C866.445 386.314 860.32 414.892 854.564 432.42C853.959 435.447 851.481 437.941 848.151 438.5C843.846 439.225 839.749 436.443 838.998 432.286C838.703 430.661 843.496 385.784 845.726 376.687Z" fill="#DE9681"/>
<path d="M856.176 378.289C856.176 378.289 860.894 374.092 867.699 376.904C867.897 378.081 867.889 379.246 867.702 380.362C867.657 380.634 867.599 380.903 867.533 381.17C866.595 385.609 861.907 407.496 856.94 424.674C856.49 422.564 855.111 420.456 854.427 419.931C853.353 419.108 850.558 416.662 849.187 412.364C848.204 409.292 850.075 397.789 852.219 391.74C854.363 385.689 856.176 378.289 856.176 378.289Z" fill="#EA9A88"/>
<path d="M859.671 367.569C859.671 367.569 855.443 366.724 849.701 369.173C847.982 369.906 846.338 372.776 845.22 375.001C840.952 383.514 837.701 409.376 837.701 409.376C837.701 409.376 848.827 419.393 860.485 422.606C860.485 422.606 869.166 386.075 868.992 378.422C868.818 370.772 863.037 368.355 859.671 367.569Z" fill="#FCF5F1"/>
<path d="M865.911 398.081L851.852 376.533C851.852 376.533 854.827 385.321 853.312 391.209C851.797 397.101 848.193 405.158 847.63 409.965C847.388 412.046 847.501 414.556 847.708 416.733C851.466 419.06 855.936 421.351 860.486 422.606C860.486 422.606 863.477 410.024 865.911 398.081Z" fill="#F0E2DA"/>
<path d="M850.175 422.424C845.898 420.874 841.124 422.963 839.519 427.093C839.201 427.905 839.033 428.734 838.997 429.555C838.994 429.555 835.918 469.532 835.09 480.302H844.8C845.804 475.671 847.694 467.275 849.72 459.987C853.177 447.546 854.364 436.363 854.91 431.212C855.064 430.533 855.125 429.851 855.095 429.179C854.954 426.072 853.379 423.586 850.175 422.424Z" fill="#DE9681"/>
<path d="M870.216 464.592C861.091 465.546 853.999 472.085 852.187 480.303H892.701C890.527 470.385 880.878 463.479 870.216 464.592Z" fill="#F6AF9A"/>
<path d="M850.992 480.303H893.563C890.461 462.367 876.452 462.351 874.689 462.375C874.689 462.375 855.225 461.179 850.992 480.303Z" fill="#8C4949"/>
<path d="M888.609 432.72C867.131 432.662 862.677 442.332 862.677 442.332C862.319 445.002 862.261 447.97 860.986 450.496C855.092 462.162 852.791 475.468 852.106 480.302H924.337C923.906 473.121 921.191 466.324 917.565 457.653C915.286 452.199 909.803 445.031 909.723 439.406C909.723 439.406 907.527 432.771 888.609 432.72Z" fill="#F6AF9A"/>
<path d="M862.427 444.48C862.427 444.48 861.037 446.484 857.452 455.847C854.842 462.66 852.301 474.409 851.111 480.303H925.259C924.329 472.213 921.835 463.34 919.007 458.331C915.627 452.341 910.801 442.492 910.801 442.492C901.253 444.84 862.427 444.48 862.427 444.48Z" fill="#8C4949"/>
<path d="M919.008 458.331C915.628 452.341 910.802 442.492 910.802 442.492C904.351 444.078 884.536 444.429 872.359 444.488C866.832 448.069 865.24 452.167 865.24 452.167C865.24 452.167 880.077 457.038 898.821 457.345C908.608 457.345 912.463 457.345 913.746 458.021C914.646 458.496 916.061 472.176 916.828 480.303H925.261C924.331 472.213 921.836 463.34 919.008 458.331Z" fill="#824444"/>
<path d="M883.407 480.303H923.801C921.855 472.048 914.579 465.586 905.377 464.821C894.944 463.955 885.656 470.715 883.407 480.303Z" fill="#F6AF9A"/>
<path d="M881.608 480.303H924.946C923.089 470.766 917.968 461.949 903.41 462.389C903.41 462.389 885.262 462.378 881.608 480.303Z" fill="#8C4949"/>
<path d="M915.144 464.771C915.773 469.504 916.402 475.768 916.829 480.303H924.947C923.714 473.977 921.046 467.972 915.144 464.771Z" fill="#824444"/>
<path d="M861.215 426.057C861.215 426.057 855.66 422.894 854.675 417.794C853.69 412.694 856.516 395.736 857.233 387.804C857.953 379.871 851.372 373.029 850.489 369.091C850.489 369.091 859.785 364.87 880.168 362.938C880.168 362.938 891.658 363.258 902.698 365.198C911.707 366.778 916.398 371.539 918.158 374.265C919.919 376.991 918.774 383.637 916.321 391.753C913.868 399.869 911.172 406.901 910.901 415.497C910.769 419.648 910.576 434.466 910.843 444.168C910.843 444.168 911.917 450.265 890.096 451.568C869.953 452.772 862.476 444.261 862.476 444.261C861.717 436.281 861.215 426.057 861.215 426.057Z" fill="#DE9681"/>
<path d="M914.083 398.948C912.447 404.301 911.087 409.521 910.899 415.498C910.808 418.391 910.686 426.465 910.711 434.379C905.924 421.903 899.52 384.658 899.52 384.658L914.083 398.948Z" fill="#E57E73"/>
<path d="M870.013 365.866L871.211 345.306C871.352 341.232 874.238 337.563 878.534 336.489C883.763 335.18 889.099 338.213 890.454 343.262C890.639 343.947 890.738 344.637 890.763 345.317L892.634 367.39C892.651 367.545 892.692 368.245 892.692 368.245C893.015 373.439 889.488 377.929 884.072 379.282C877.921 380.82 871.848 377.537 870.256 371.597C869.759 369.748 869.881 367.835 870.013 365.866Z" fill="#DE9681"/>
<path d="M871.212 345.306C871.352 341.232 874.239 337.563 878.535 336.489C883.764 335.18 889.1 338.213 890.455 343.262C890.64 343.947 890.739 344.637 890.764 345.317L890.861 346.465C886.495 355.946 878.549 363.001 870.083 364.709L871.212 345.306Z" fill="#D38475"/>
<path d="M862.943 365.491C862.943 365.491 864.361 371.681 874.488 373.277C884.614 374.873 905.157 365.557 905.157 365.557C905.157 365.557 909.564 365.499 912.599 367.324C912.599 367.324 918.347 370.793 919.313 375.051C920.278 379.312 918.99 386.853 918.209 389.605C917.428 392.355 912.599 416.709 912.599 422.811C912.599 427.072 915.154 439.193 916.697 446.121C917.315 448.903 915.383 451.608 912.472 452.037C902.818 453.457 881.593 455.732 860.868 452.298C857.474 451.736 855.079 448.775 855.302 445.46C855.821 437.802 856.679 425.055 856.66 424.522C856.66 424.522 852.378 421.993 851.456 414.804C850.534 407.618 856.185 389.781 855.578 386.72C854.971 383.658 849.596 372.086 849.704 369.173C849.704 369.173 855.537 366.477 862.943 365.491Z" fill="#FCF5F1"/>
<path d="M888.206 454.061C898.443 453.845 907.196 452.812 912.477 452.036C915.385 451.607 917.314 448.9 916.696 446.121C915.153 439.193 912.598 427.072 912.598 422.811C912.598 416.709 917.427 392.355 918.208 389.605C918.387 388.976 918.591 388.099 918.787 387.071C910.134 382.336 902.049 381.27 898.128 386.319C898.128 386.319 900.132 409.179 900.101 413.573C900.071 417.964 890.173 424.719 875.284 423.235C875.284 423.235 889.072 428.116 901.663 421.902L903.17 426.118H908.826C908.826 426.118 909.569 435.036 910.672 441.159C911.768 447.251 900.226 451.554 888.206 454.061Z" fill="#F0E2DA"/>
<path d="M898.21 381.281C898.08 380.228 898.1 379.144 898.287 378.046C899.355 371.792 905.473 367.558 911.951 368.587C917.327 369.442 921.264 373.657 921.838 378.64L935.193 433.12C935.477 434.186 935.543 435.324 935.345 436.48C934.589 440.92 930.246 443.925 925.649 443.195C921.775 442.577 918.955 439.505 918.615 435.897C918.615 435.897 901.748 397.489 898.516 382.831C898.378 382.325 898.276 381.806 898.21 381.281Z" fill="#DE9681"/>
<path d="M907.91 367.324C907.91 367.324 895.78 368.904 897.574 383.535C899.364 398.166 905.432 424.522 905.432 424.522C905.432 424.522 927.079 424.655 934.385 414.404C934.385 414.404 924.319 380.361 921.563 374.475C918.806 368.587 912.198 365.757 907.91 367.324Z" fill="#FCF5F1"/>
<path d="M925.079 427.853C921.685 428.626 919.257 431.277 918.697 434.4C918.575 435.077 918.542 435.775 918.606 436.481C918.462 441.757 918.65 452.881 920.465 465.895C921.133 470.678 921.688 475.893 922.104 480.303H932.965C933.853 464.432 935.421 436.473 935.421 436.473C935.495 435.636 935.435 434.776 935.225 433.918C934.157 429.537 929.615 426.822 925.079 427.853Z" fill="#DE9681"/>
<path d="M880.677 302.462C880.677 302.462 899.81 303.149 899.39 324.999C898.984 345.988 880.726 363.159 865.084 358.751C860.111 357.043 856.836 346.113 856.662 329.683C856.486 313.253 863.792 301.886 880.677 302.462Z" fill="#DE9681"/>
<path d="M906.073 353.915C903.738 346.46 905.634 332.242 904.688 325.828C904.663 325.66 904.624 325.506 904.58 325.362C903.984 316.795 901.065 309.91 894.304 304.714C887.031 299.121 875.177 301.722 875.177 301.722C869.791 301.332 858.61 305.884 855.511 313.035C852.413 320.187 853.356 330.462 854.57 333.193C855.782 335.924 854.165 338.525 853.491 340.345C852.818 342.165 854.165 343.985 855.376 346.327C856.59 348.666 854.57 351.397 854.57 351.397C856.59 350.358 857.531 347.496 856.725 345.026C855.917 342.554 855.511 341.645 856.038 339.769C856.563 337.891 856.993 336.702 857.263 333.843C857.531 330.981 856.858 325.26 858.475 321.36C860.092 317.456 866.422 313.035 866.422 313.035C868.309 318.628 871.002 323.049 874.504 324.219C878.008 325.388 880.163 327.08 880.836 328.77C881.509 330.462 880.431 333.582 880.836 337.352C881.239 341.125 882.856 341.253 884.067 342.945C885.281 344.635 881.912 347.627 881.104 348.927C880.295 350.228 880.836 352.437 881.777 354.129C882.721 355.818 882.047 357.768 882.047 357.768C883.664 357.118 883.394 353.998 882.856 351.397C882.318 348.797 884.338 348.147 885.549 346.196C886.763 344.246 885.146 341.514 884.876 340.084C884.605 338.653 886.791 333.785 887.599 334.174C888.066 334.4 888.62 337.083 889.053 340.267C888.838 341.589 888.805 342.919 889.009 344.23C889.009 344.23 889.357 345.018 889.666 346.279C889.688 346.638 889.71 346.99 889.727 347.326C889.762 348.072 889.92 348.938 890.124 349.78C890.149 351.451 889.884 353.319 889.009 355.131C886.498 360.332 883.35 358.592 884.048 366.338C884.746 374.086 882.715 380.319 880.295 384.281C877.875 388.246 877.831 399.813 882.792 406.341C882.792 406.341 883.615 401.22 887.301 399.674C890.988 398.129 896.746 390.54 896.365 385.723C895.982 380.905 899.329 367.052 907.852 365.637C907.852 365.637 908.407 361.371 906.073 353.915Z" fill="#8C4949"/>
<path d="M866.422 313.035C866.75 308.114 870.144 303.137 875.177 301.722C870.74 304.144 867.898 308.412 866.422 313.035Z" fill="#7A3D3D"/>
<path d="M869.791 311.997C876.159 314.408 875.042 317.414 878.659 321.69C879.881 323.321 881.879 323.723 883.634 324.546C885.869 325.887 887.378 328.434 887.301 330.981C887.05 328.844 885.77 326.793 883.993 325.532C881.89 324.232 879.752 324.381 878.049 322.202C874.388 317.861 875.85 315.175 869.791 311.997Z" fill="#7A3D3D"/>
<path d="M873.831 309.395C877.335 309.973 880.801 311.66 882.705 314.657C886.14 318.942 891.749 323.155 891.073 329.16C890.933 323.25 885.436 319.509 882.092 315.097C880.337 312.137 877.112 310.418 873.831 309.395Z" fill="#7A3D3D"/>
<path d="M873.831 305.365C879.764 304.675 886.264 305.996 890.472 310.337C892.539 312.298 894.324 314.611 895.365 317.241C895.825 318.458 896.154 319.761 896.154 321.064C896.129 321.803 896.148 322.706 896.231 323.441C896.617 327.515 897.613 331.752 896.46 335.794C897.442 330.835 895.392 325.863 895.423 320.907C895.039 316.087 891.551 312.045 887.848 309.044C883.922 306.089 878.701 305.266 873.831 305.365Z" fill="#7A3D3D"/>
<path d="M901.582 328.024C902.702 332.588 903.033 337.513 901.565 342.042C900.939 344.302 899.708 346.402 899.093 348.64C898.574 350.963 900.031 353.194 899.78 355.546C899.736 358.768 898.329 362.117 895.503 363.988C894.863 364.409 894.245 364.907 893.724 365.459C891.053 368.323 889.946 372.264 889.626 376.042C889.538 377.615 889.579 379.211 889.229 380.756C888.304 387.023 882.121 391.742 882.791 398.281C881.759 391.793 887.794 386.847 888.611 380.647C888.922 379.115 888.845 377.548 888.922 375.997C889.212 371.862 890.457 367.5 893.577 364.499C894.008 364.086 894.54 363.684 895.04 363.348C898.351 361.169 899.463 356.932 898.881 353.25C898.594 351.68 897.962 350.097 898.436 348.496C899.112 346.196 900.362 344.169 901.063 341.888C902.631 337.443 902.44 332.594 901.582 328.024Z" fill="#7A3D3D"/>
<path d="M893.165 345.212C895.631 352.945 892.572 354.051 889.583 360.288C888.982 361.604 889.04 362.921 888.918 364.344C888.242 366.987 887.136 367.65 887.301 370.858C886.794 368.332 887.497 366.949 888.237 364.663C888.422 363.414 888.162 362.092 888.579 360.858C888.631 360.619 888.769 360.256 888.849 360.022C891.835 353.432 894.644 353.614 893.165 345.212Z" fill="#7A3D3D"/>
<path d="M902.381 348.917C902.229 351.235 901.948 353.591 902.362 355.866C902.499 356.665 903.018 357.22 903.302 357.944C903.943 359.466 904.147 361.144 903.851 362.754C903.496 364.283 902.715 365.719 902.728 367.323C902.378 365.749 902.977 364.206 903.222 362.666C903.523 356.327 899.771 357.931 902.381 348.917Z" fill="#7A3D3D"/>
<path d="M896.847 369.002C895.112 371.225 893.395 373.857 893.517 376.724C893.986 381.009 894.179 386.359 891.798 390.153C893.442 386.045 893.108 381.448 892.772 377.137C892.51 373.964 894.552 371.073 896.847 369.002Z" fill="#7A3D3D"/>
<path d="M892.002 330.385C892.002 330.385 895.1 330.622 895.166 335.333C895.227 339.86 892.41 345.074 889.008 344.23C887.923 343.894 886.983 339.934 886.828 336.393C886.674 332.855 888.359 330.374 892.002 330.385Z" fill="#DE9681"/>
<path d="M889.559 340.855C888.188 334.732 891.438 332.995 891.576 332.923C891.745 332.835 891.952 332.899 892.043 333.059C892.131 333.221 892.068 333.421 891.902 333.509C891.808 333.56 890.081 334.511 889.924 337.586C890.881 336.501 892.407 336.31 892.49 336.299C892.677 336.278 892.848 336.408 892.873 336.589C892.895 336.773 892.76 336.938 892.573 336.96C892.484 336.97 890.434 337.237 889.951 338.929C889.998 339.472 890.086 340.064 890.233 340.714C890.269 340.877 890.175 341.039 890.015 341.095C890.001 341.1 889.984 341.106 889.968 341.108C889.783 341.148 889.598 341.034 889.559 340.855Z" fill="#BA6D5B"/>
<path d="M936.808 266.621H830.249C825.453 266.621 821.565 270.373 821.565 275.001V285.303H945.491V275.001C945.491 270.373 941.603 266.621 936.808 266.621Z" fill="#8CCBFF"/>
<path d="M937.268 275.547H925.348C924.62 275.547 924.026 274.977 924.026 274.271V274.069C924.026 273.365 924.62 272.795 925.348 272.795H937.268C937.999 272.795 938.589 273.365 938.589 274.069V274.271C938.589 274.977 937.999 275.547 937.268 275.547Z" fill="white"/>
<path d="M937.269 281.509H929.72C928.989 281.509 928.398 280.936 928.398 280.232V280.03C928.398 279.324 928.989 278.753 929.72 278.753H937.269C938 278.753 938.591 279.326 938.591 280.03V280.232C938.591 280.936 938 281.509 937.269 281.509Z" fill="white"/>
<path d="M936.809 480.956H830.25C825.087 480.956 820.888 476.903 820.888 471.92V275.001C820.888 270.019 825.087 265.966 830.25 265.966H936.809C941.971 265.966 946.171 270.019 946.171 275.001V471.92C946.171 476.903 941.971 480.956 936.809 480.956ZM830.25 267.274C825.835 267.274 822.245 270.741 822.245 275.001V471.92C822.245 476.181 825.835 479.647 830.25 479.647H936.809C941.224 479.647 944.814 476.181 944.814 471.92V275.001C944.814 270.741 941.224 267.274 936.809 267.274H830.25Z" fill="white"/>
<path d="M907.553 270.807H859.503C856.559 270.807 854.169 268.5 854.169 265.657V264.58H912.887V265.657C912.887 268.5 910.497 270.807 907.553 270.807Z" fill="#303C72"/>
<path d="M831.321 296.353H724.076C720.629 296.353 717.834 299.052 717.834 302.38V332.415C717.834 335.746 720.629 338.442 724.076 338.442H820.397L837.563 358.328V302.38C837.563 299.052 834.768 296.353 831.321 296.353Z" fill="white"/>
<path d="M788.235 310.019H825.248C826.299 310.019 827.152 309.196 827.152 308.18V306.683C827.152 305.668 826.299 304.844 825.248 304.844H788.235C787.181 304.844 786.328 305.668 786.328 306.683V308.18C786.328 309.196 787.181 310.019 788.235 310.019Z" fill="#D4E7FF"/>
<path d="M728.852 310.019H776.588C777.642 310.019 778.495 309.196 778.495 308.18V306.683C778.495 305.668 777.642 304.844 776.588 304.844H728.852C727.801 304.844 726.948 305.668 726.948 306.683V308.18C726.948 309.196 727.801 310.019 728.852 310.019Z" fill="#D4E7FF"/>
<path d="M802.684 320.134H825.249C826.3 320.134 827.153 319.311 827.153 318.296V316.801C827.153 315.783 826.3 314.96 825.249 314.96H802.684C801.633 314.96 800.777 315.783 800.777 316.801V318.296C800.777 319.311 801.633 320.134 802.684 320.134Z" fill="#D4E7FF"/>
<path d="M780.994 320.134H791.636C792.69 320.134 793.543 319.311 793.543 318.296V316.801C793.543 315.783 792.69 314.96 791.636 314.96H780.994C779.942 314.96 779.09 315.783 779.09 316.801V318.296C779.09 319.311 779.942 320.134 780.994 320.134Z" fill="#D4E7FF"/>
<path d="M728.852 320.135H770.377C771.431 320.135 772.284 319.311 772.284 318.296V316.801C772.284 315.783 771.431 314.96 770.377 314.96H728.852C727.801 314.96 726.948 315.783 726.948 316.801V318.296C726.948 319.311 727.801 320.135 728.852 320.135Z" fill="#D4E7FF"/>
<path d="M812.477 330.251H825.249C826.301 330.251 827.153 329.428 827.153 328.41V326.915C827.153 325.897 826.301 325.074 825.249 325.074H812.477C811.426 325.074 810.573 325.897 810.573 326.915V328.41C810.573 329.428 811.426 330.251 812.477 330.251Z" fill="#D4E7FF"/>
<path d="M728.852 330.251H802.396C803.447 330.251 804.3 329.428 804.3 328.41V326.915C804.3 325.897 803.447 325.074 802.396 325.074H728.852C727.801 325.074 726.948 325.897 726.948 326.915V328.41C726.948 329.428 727.801 330.251 728.852 330.251Z" fill="#D4E7FF"/>
<path d="M802.047 339.316H724.077C720.137 339.316 716.931 336.22 716.931 332.415V302.38C716.931 298.575 720.137 295.481 724.077 295.481H811.561C812.06 295.481 812.463 295.87 812.463 296.352C812.463 296.835 812.06 297.226 811.561 297.226H724.077C721.136 297.226 718.741 299.536 718.741 302.38V332.415C718.741 335.258 721.136 337.571 724.077 337.571H802.047C802.546 337.571 802.952 337.96 802.952 338.442C802.952 338.924 802.546 339.316 802.047 339.316Z" fill="#8CCBFF"/>
<path d="M801.848 245.48H694.605C691.158 245.48 688.363 248.18 688.363 251.508V307.456L705.529 287.57H801.848C805.297 287.57 808.092 284.871 808.092 281.543V251.508C808.092 248.18 805.297 245.48 801.848 245.48Z" fill="white"/>
<path d="M759.876 259.232H700.929C699.875 259.232 699.022 258.409 699.022 257.394V255.896C699.022 254.881 699.875 254.058 700.929 254.058H759.876C760.927 254.058 761.78 254.881 761.78 255.896V257.394C761.78 258.409 760.927 259.232 759.876 259.232Z" fill="#D4E7FF"/>
<path d="M797.324 259.232H771.522C770.471 259.232 769.618 258.409 769.618 257.394V255.896C769.618 254.881 770.471 254.058 771.522 254.058H797.324C798.378 254.058 799.231 254.881 799.231 255.896V257.394C799.231 258.409 798.378 259.232 797.324 259.232Z" fill="#D4E7FF"/>
<path d="M722.763 269.346H700.929C699.878 269.346 699.022 268.523 699.022 267.508V266.01C699.022 264.995 699.878 264.172 700.929 264.172H722.763C723.814 264.172 724.667 264.995 724.667 266.01V267.508C724.667 268.523 723.814 269.346 722.763 269.346Z" fill="#D4E7FF"/>
<path d="M779.704 269.347H734.54C733.488 269.347 732.636 268.523 732.636 267.508V266.01C732.636 264.995 733.488 264.172 734.54 264.172H779.704C780.755 264.172 781.608 264.995 781.608 266.01V267.508C781.608 268.523 780.755 269.347 779.704 269.347Z" fill="#D4E7FF"/>
<path d="M797.323 269.346H790.32C789.266 269.346 788.413 268.523 788.413 267.508V266.01C788.413 264.995 789.266 264.172 790.32 264.172H797.323C798.377 264.172 799.229 264.995 799.229 266.01V267.508C799.229 268.523 798.377 269.346 797.323 269.346Z" fill="#D4E7FF"/>
<path d="M747.995 279.464H700.929C699.878 279.464 699.022 278.638 699.022 277.623V276.128C699.022 275.11 699.878 274.287 700.929 274.287H747.995C749.046 274.287 749.898 275.11 749.898 276.128V277.623C749.898 278.638 749.046 279.464 747.995 279.464Z" fill="#D4E7FF"/>
<path d="M797.324 279.464H758.079C757.024 279.464 756.172 278.638 756.172 277.623V276.128C756.172 275.11 757.024 274.287 758.079 274.287H797.324C798.378 274.287 799.231 275.11 799.231 276.128V277.623C799.231 278.638 798.378 279.464 797.324 279.464Z" fill="#D4E7FF"/>
<path d="M801.848 288.442H717.835C717.336 288.442 716.93 288.053 716.93 287.57C716.93 287.088 717.336 286.696 717.835 286.696H801.848C804.792 286.696 807.187 284.386 807.187 281.543V251.508C807.187 248.665 804.792 246.352 801.848 246.352H694.605C691.663 246.352 689.268 248.665 689.268 251.508V256.645C689.268 257.127 688.862 257.519 688.363 257.519C687.864 257.519 687.458 257.127 687.458 256.645V251.508C687.458 247.703 690.664 244.606 694.605 244.606H801.848C805.791 244.606 808.997 247.703 808.997 251.508V281.543C808.997 285.348 805.791 288.442 801.848 288.442Z" fill="#8CCBFF"/>
</svg>
