<svg width="1716" height="814" viewBox="0 0 1716 814" fill="none" xmlns="http://www.w3.org/2000/svg">
<rect width="1715.89" height="814" fill="white"/>
<path d="M668.824 607.239H664.605L672.286 585.421H677.166L684.857 607.239H680.639L674.811 589.895H674.641L668.824 607.239ZM668.962 598.684H680.468V601.859H668.962V598.684ZM694.179 613.716C692.794 613.716 691.604 613.528 690.61 613.151C689.616 612.782 688.817 612.285 688.213 611.66C687.609 611.035 687.19 610.342 686.956 609.583L690.429 608.741C690.585 609.061 690.813 609.377 691.111 609.689C691.409 610.009 691.81 610.271 692.315 610.477C692.826 610.69 693.469 610.797 694.243 610.797C695.337 610.797 696.242 610.531 696.96 609.998C697.677 609.472 698.036 608.606 698.036 607.399V604.298H697.844C697.645 604.696 697.354 605.105 696.97 605.524C696.594 605.943 696.093 606.294 695.468 606.578C694.85 606.862 694.073 607.004 693.135 607.004C691.878 607.004 690.738 606.71 689.715 606.12C688.7 605.524 687.89 604.636 687.286 603.457C686.69 602.271 686.391 600.786 686.391 599.004C686.391 597.207 686.69 595.69 687.286 594.455C687.89 593.212 688.703 592.271 689.726 591.632C690.749 590.985 691.889 590.662 693.146 590.662C694.104 590.662 694.893 590.825 695.511 591.152C696.136 591.472 696.633 591.859 697.002 592.313C697.372 592.761 697.652 593.183 697.844 593.581H698.057V590.875H701.86V607.505C701.86 608.904 701.526 610.062 700.859 610.978C700.191 611.894 699.278 612.58 698.121 613.034C696.963 613.489 695.649 613.716 694.179 613.716ZM694.211 603.979C695.028 603.979 695.724 603.78 696.299 603.382C696.874 602.985 697.311 602.413 697.609 601.667C697.908 600.921 698.057 600.026 698.057 598.982C698.057 597.953 697.908 597.051 697.609 596.276C697.318 595.502 696.885 594.902 696.31 594.476C695.742 594.043 695.042 593.826 694.211 593.826C693.352 593.826 692.634 594.05 692.059 594.497C691.484 594.945 691.051 595.559 690.759 596.34C690.468 597.114 690.323 597.995 690.323 598.982C690.323 599.984 690.468 600.861 690.759 601.614C691.058 602.36 691.494 602.942 692.07 603.361C692.652 603.773 693.366 603.979 694.211 603.979ZM716.242 600.357V590.875H720.099V607.239H716.359V604.33H716.189C715.82 605.247 715.212 605.996 714.367 606.578C713.529 607.161 712.496 607.452 711.267 607.452C710.195 607.452 709.247 607.214 708.423 606.738C707.606 606.255 706.967 605.556 706.505 604.639C706.043 603.716 705.813 602.601 705.813 601.294V590.875H709.669V600.698C709.669 601.735 709.953 602.558 710.521 603.169C711.09 603.78 711.835 604.085 712.759 604.085C713.327 604.085 713.877 603.947 714.41 603.67C714.943 603.393 715.379 602.981 715.72 602.434C716.068 601.88 716.242 601.188 716.242 600.357ZM728.773 607.569C727.736 607.569 726.802 607.384 725.972 607.015C725.148 606.639 724.494 606.085 724.011 605.353C723.535 604.622 723.297 603.72 723.297 602.647C723.297 601.724 723.468 600.96 723.809 600.357C724.15 599.753 724.615 599.27 725.204 598.908C725.794 598.546 726.458 598.272 727.197 598.087C727.942 597.896 728.713 597.757 729.508 597.672C730.467 597.573 731.245 597.484 731.842 597.406C732.438 597.32 732.871 597.193 733.141 597.022C733.418 596.845 733.557 596.571 733.557 596.202V596.138C733.557 595.335 733.319 594.714 732.843 594.274C732.367 593.833 731.682 593.613 730.787 593.613C729.842 593.613 729.093 593.819 728.539 594.231C727.992 594.643 727.623 595.129 727.431 595.69L723.83 595.179C724.114 594.185 724.583 593.354 725.236 592.686C725.89 592.011 726.689 591.507 727.633 591.173C728.578 590.833 729.622 590.662 730.766 590.662C731.554 590.662 732.339 590.754 733.12 590.939C733.901 591.124 734.615 591.429 735.261 591.855C735.908 592.274 736.426 592.846 736.817 593.57C737.214 594.295 737.413 595.2 737.413 596.287V607.239H733.706V604.991H733.578C733.344 605.445 733.013 605.872 732.587 606.269C732.168 606.66 731.639 606.976 731 607.217C730.368 607.452 729.626 607.569 728.773 607.569ZM729.775 604.735C730.549 604.735 731.22 604.583 731.788 604.277C732.356 603.965 732.793 603.553 733.099 603.041C733.411 602.53 733.567 601.972 733.567 601.369V599.44C733.447 599.54 733.241 599.632 732.949 599.717C732.665 599.803 732.346 599.877 731.991 599.941C731.636 600.005 731.284 600.062 730.936 600.112C730.588 600.161 730.286 600.204 730.03 600.239C729.455 600.318 728.94 600.445 728.486 600.623C728.031 600.801 727.672 601.049 727.41 601.369C727.147 601.681 727.016 602.086 727.016 602.583C727.016 603.293 727.275 603.83 727.793 604.192C728.312 604.554 728.972 604.735 729.775 604.735ZM741.291 607.239V590.875H745.03V593.602H745.201C745.499 592.658 746.011 591.93 746.735 591.418C747.467 590.9 748.301 590.641 749.239 590.641C749.452 590.641 749.69 590.651 749.952 590.673C750.222 590.687 750.446 590.712 750.623 590.747V594.295C750.46 594.238 750.201 594.188 749.846 594.146C749.498 594.096 749.16 594.071 748.834 594.071C748.131 594.071 747.498 594.224 746.937 594.529C746.383 594.828 745.947 595.243 745.627 595.776C745.307 596.308 745.148 596.923 745.148 597.619V607.239H741.291ZM758.584 607.526C757.299 607.526 756.148 607.196 755.133 606.536C754.117 605.875 753.314 604.916 752.725 603.659C752.135 602.402 751.841 600.875 751.841 599.078C751.841 597.26 752.139 595.726 752.736 594.476C753.339 593.219 754.152 592.271 755.175 591.632C756.198 590.985 757.338 590.662 758.595 590.662C759.554 590.662 760.342 590.825 760.96 591.152C761.578 591.472 762.068 591.859 762.43 592.313C762.792 592.761 763.073 593.183 763.272 593.581H763.432V585.421H767.299V607.239H763.506V604.661H763.272C763.073 605.058 762.785 605.481 762.409 605.928C762.032 606.369 761.535 606.745 760.917 607.058C760.299 607.37 759.522 607.526 758.584 607.526ZM759.66 604.362C760.477 604.362 761.173 604.142 761.748 603.702C762.324 603.254 762.76 602.633 763.059 601.837C763.357 601.042 763.506 600.115 763.506 599.057C763.506 597.999 763.357 597.079 763.059 596.298C762.767 595.516 762.334 594.909 761.759 594.476C761.191 594.043 760.491 593.826 759.66 593.826C758.801 593.826 758.084 594.05 757.508 594.497C756.933 594.945 756.5 595.563 756.209 596.351C755.917 597.139 755.772 598.041 755.772 599.057C755.772 600.08 755.917 600.992 756.209 601.795C756.507 602.59 756.944 603.219 757.519 603.681C758.101 604.135 758.815 604.362 759.66 604.362ZM776.117 607.569C775.08 607.569 774.146 607.384 773.315 607.015C772.491 606.639 771.838 606.085 771.355 605.353C770.879 604.622 770.641 603.72 770.641 602.647C770.641 601.724 770.812 600.96 771.153 600.357C771.494 599.753 771.959 599.27 772.548 598.908C773.138 598.546 773.802 598.272 774.54 598.087C775.286 597.896 776.057 597.757 776.852 597.672C777.811 597.573 778.589 597.484 779.185 597.406C779.782 597.32 780.215 597.193 780.485 597.022C780.762 596.845 780.9 596.571 780.9 596.202V596.138C780.9 595.335 780.663 594.714 780.187 594.274C779.711 593.833 779.025 593.613 778.131 593.613C777.186 593.613 776.437 593.819 775.883 594.231C775.336 594.643 774.967 595.129 774.775 595.69L771.174 595.179C771.458 594.185 771.927 593.354 772.58 592.686C773.234 592.011 774.033 591.507 774.977 591.173C775.922 590.833 776.966 590.662 778.109 590.662C778.898 590.662 779.682 590.754 780.464 590.939C781.245 591.124 781.959 591.429 782.605 591.855C783.251 592.274 783.77 592.846 784.16 593.57C784.558 594.295 784.757 595.2 784.757 596.287V607.239H781.05V604.991H780.922C780.687 605.445 780.357 605.872 779.931 606.269C779.512 606.66 778.983 606.976 778.344 607.217C777.712 607.452 776.969 607.569 776.117 607.569ZM777.119 604.735C777.893 604.735 778.564 604.583 779.132 604.277C779.7 603.965 780.137 603.553 780.442 603.041C780.755 602.53 780.911 601.972 780.911 601.369V599.44C780.79 599.54 780.584 599.632 780.293 599.717C780.009 599.803 779.69 599.877 779.334 599.941C778.979 600.005 778.628 600.062 778.28 600.112C777.932 600.161 777.63 600.204 777.374 600.239C776.799 600.318 776.284 600.445 775.829 600.623C775.375 600.801 775.016 601.049 774.753 601.369C774.491 601.681 774.359 602.086 774.359 602.583C774.359 603.293 774.619 603.83 775.137 604.192C775.655 604.554 776.316 604.735 777.119 604.735ZM792.491 597.651V607.239H788.635V590.875H792.321V593.656H792.513C792.889 592.739 793.489 592.011 794.313 591.472C795.144 590.932 796.17 590.662 797.392 590.662C798.521 590.662 799.505 590.904 800.343 591.386C801.188 591.869 801.842 592.569 802.303 593.485C802.772 594.401 803.003 595.513 802.996 596.82V607.239H799.139V597.416C799.139 596.323 798.855 595.467 798.287 594.849C797.726 594.231 796.948 593.922 795.954 593.922C795.279 593.922 794.679 594.071 794.153 594.369C793.635 594.661 793.226 595.083 792.928 595.637C792.637 596.191 792.491 596.862 792.491 597.651ZM812.989 607.526C811.703 607.526 810.552 607.196 809.537 606.536C808.521 605.875 807.719 604.916 807.129 603.659C806.54 602.402 806.245 600.875 806.245 599.078C806.245 597.26 806.543 595.726 807.14 594.476C807.744 593.219 808.557 592.271 809.579 591.632C810.602 590.985 811.742 590.662 812.999 590.662C813.958 590.662 814.746 590.825 815.364 591.152C815.982 591.472 816.472 591.859 816.834 592.313C817.197 592.761 817.477 593.183 817.676 593.581H817.836V585.421H821.703V607.239H817.91V604.661H817.676C817.477 605.058 817.19 605.481 816.813 605.928C816.437 606.369 815.94 606.745 815.322 607.058C814.704 607.37 813.926 607.526 812.989 607.526ZM814.065 604.362C814.881 604.362 815.577 604.142 816.153 603.702C816.728 603.254 817.165 602.633 817.463 601.837C817.761 601.042 817.91 600.115 817.91 599.057C817.91 597.999 817.761 597.079 817.463 596.298C817.172 595.516 816.739 594.909 816.163 594.476C815.595 594.043 814.896 593.826 814.065 593.826C813.205 593.826 812.488 594.05 811.913 594.497C811.337 594.945 810.904 595.563 810.613 596.351C810.322 597.139 810.176 598.041 810.176 599.057C810.176 600.08 810.322 600.992 810.613 601.795C810.911 602.59 811.348 603.219 811.923 603.681C812.506 604.135 813.219 604.362 814.065 604.362ZM832.95 607.558C831.352 607.558 829.967 607.207 828.796 606.504C827.624 605.801 826.715 604.817 826.068 603.553C825.429 602.288 825.109 600.811 825.109 599.121C825.109 597.431 825.429 595.95 826.068 594.678C826.715 593.407 827.624 592.42 828.796 591.717C829.967 591.014 831.352 590.662 832.95 590.662C834.548 590.662 835.933 591.014 837.105 591.717C838.277 592.42 839.183 593.407 839.822 594.678C840.468 595.95 840.791 597.431 840.791 599.121C840.791 600.811 840.468 602.288 839.822 603.553C839.183 604.817 838.277 605.801 837.105 606.504C835.933 607.207 834.548 607.558 832.95 607.558ZM832.972 604.469C833.838 604.469 834.563 604.231 835.145 603.755C835.727 603.272 836.161 602.626 836.445 601.816C836.736 601.007 836.881 600.105 836.881 599.11C836.881 598.109 836.736 597.203 836.445 596.394C836.161 595.577 835.727 594.927 835.145 594.444C834.563 593.961 833.838 593.72 832.972 593.72C832.084 593.72 831.345 593.961 830.756 594.444C830.173 594.927 829.737 595.577 829.445 596.394C829.161 597.203 829.019 598.109 829.019 599.11C829.019 600.105 829.161 601.007 829.445 601.816C829.737 602.626 830.173 603.272 830.756 603.755C831.345 604.231 832.084 604.469 832.972 604.469ZM851.506 607.239V590.875H855.245V593.602H855.416C855.714 592.658 856.225 591.93 856.95 591.418C857.681 590.9 858.516 590.641 859.453 590.641C859.666 590.641 859.904 590.651 860.167 590.673C860.437 590.687 860.661 590.712 860.838 590.747V594.295C860.675 594.238 860.416 594.188 860.061 594.146C859.713 594.096 859.375 594.071 859.049 594.071C858.345 594.071 857.713 594.224 857.152 594.529C856.598 594.828 856.161 595.243 855.842 595.776C855.522 596.308 855.362 596.923 855.362 597.619V607.239H851.506ZM869.971 607.558C868.33 607.558 866.913 607.217 865.72 606.536C864.534 605.847 863.622 604.874 862.982 603.617C862.343 602.352 862.024 600.864 862.024 599.153C862.024 597.47 862.343 595.992 862.982 594.721C863.629 593.443 864.531 592.448 865.688 591.738C866.846 591.021 868.206 590.662 869.769 590.662C870.777 590.662 871.729 590.825 872.624 591.152C873.526 591.472 874.321 591.969 875.01 592.644C875.706 593.318 876.253 594.178 876.651 595.222C877.048 596.259 877.247 597.494 877.247 598.929V600.112H863.835V597.512H873.551C873.543 596.774 873.384 596.117 873.071 595.541C872.759 594.959 872.322 594.501 871.761 594.167C871.207 593.833 870.56 593.666 869.822 593.666C869.033 593.666 868.341 593.858 867.744 594.242C867.148 594.618 866.683 595.115 866.349 595.733C866.022 596.344 865.855 597.015 865.848 597.747V600.016C865.848 600.967 866.022 601.784 866.37 602.466C866.718 603.141 867.205 603.659 867.83 604.021C868.455 604.377 869.186 604.554 870.024 604.554C870.585 604.554 871.093 604.476 871.548 604.32C872.002 604.156 872.396 603.918 872.73 603.606C873.064 603.293 873.316 602.906 873.487 602.445L877.087 602.85C876.86 603.801 876.427 604.632 875.788 605.342C875.156 606.046 874.346 606.592 873.359 606.983C872.372 607.367 871.242 607.558 869.971 607.558ZM893.443 595.2L889.927 595.584C889.828 595.229 889.654 594.895 889.405 594.583C889.164 594.27 888.837 594.018 888.425 593.826C888.013 593.634 887.509 593.538 886.913 593.538C886.11 593.538 885.435 593.712 884.888 594.061C884.349 594.409 884.082 594.86 884.089 595.413C884.082 595.889 884.256 596.276 884.611 596.575C884.974 596.873 885.57 597.118 886.401 597.31L889.192 597.906C890.741 598.24 891.891 598.769 892.644 599.494C893.404 600.218 893.788 601.166 893.795 602.338C893.788 603.368 893.486 604.277 892.889 605.065C892.3 605.847 891.479 606.458 890.428 606.898C889.377 607.338 888.17 607.558 886.806 607.558C884.803 607.558 883.191 607.139 881.969 606.301C880.748 605.456 880.02 604.281 879.785 602.775L883.546 602.413C883.717 603.151 884.079 603.709 884.633 604.085C885.187 604.462 885.908 604.65 886.795 604.65C887.712 604.65 888.447 604.462 889.001 604.085C889.562 603.709 889.842 603.244 889.842 602.69C889.842 602.221 889.661 601.834 889.299 601.529C888.944 601.223 888.39 600.989 887.637 600.825L884.846 600.239C883.276 599.913 882.115 599.362 881.362 598.588C880.609 597.807 880.236 596.82 880.244 595.627C880.236 594.618 880.51 593.744 881.064 593.006C881.625 592.26 882.403 591.685 883.397 591.28C884.398 590.868 885.552 590.662 886.859 590.662C888.777 590.662 890.286 591.07 891.387 591.887C892.495 592.704 893.18 593.808 893.443 595.2ZM896.975 613.375V590.875H900.767V593.581H900.991C901.19 593.183 901.47 592.761 901.833 592.313C902.195 591.859 902.685 591.472 903.303 591.152C903.921 590.825 904.709 590.662 905.668 590.662C906.932 590.662 908.072 590.985 909.088 591.632C910.11 592.271 910.92 593.219 911.517 594.476C912.12 595.726 912.422 597.26 912.422 599.078C912.422 600.875 912.127 602.402 911.538 603.659C910.948 604.916 910.146 605.875 909.13 606.536C908.115 607.196 906.964 607.526 905.679 607.526C904.741 607.526 903.963 607.37 903.345 607.058C902.728 606.745 902.23 606.369 901.854 605.928C901.485 605.481 901.197 605.058 900.991 604.661H900.831V613.375H896.975ZM900.757 599.057C900.757 600.115 900.906 601.042 901.204 601.837C901.509 602.633 901.946 603.254 902.514 603.702C903.09 604.142 903.786 604.362 904.603 604.362C905.455 604.362 906.169 604.135 906.744 603.681C907.319 603.219 907.752 602.59 908.044 601.795C908.342 600.992 908.491 600.08 908.491 599.057C908.491 598.041 908.345 597.139 908.054 596.351C907.763 595.563 907.33 594.945 906.755 594.497C906.179 594.05 905.462 593.826 904.603 593.826C903.779 593.826 903.079 594.043 902.504 594.476C901.929 594.909 901.492 595.516 901.193 596.298C900.902 597.079 900.757 597.999 900.757 599.057ZM922.862 607.558C921.264 607.558 919.88 607.207 918.708 606.504C917.536 605.801 916.627 604.817 915.98 603.553C915.341 602.288 915.022 600.811 915.022 599.121C915.022 597.431 915.341 595.95 915.98 594.678C916.627 593.407 917.536 592.42 918.708 591.717C919.88 591.014 921.264 590.662 922.862 590.662C924.46 590.662 925.845 591.014 927.017 591.717C928.189 592.42 929.095 593.407 929.734 594.678C930.38 595.95 930.703 597.431 930.703 599.121C930.703 600.811 930.38 602.288 929.734 603.553C929.095 604.817 928.189 605.801 927.017 606.504C925.845 607.207 924.46 607.558 922.862 607.558ZM922.884 604.469C923.75 604.469 924.475 604.231 925.057 603.755C925.639 603.272 926.073 602.626 926.357 601.816C926.648 601.007 926.794 600.105 926.794 599.11C926.794 598.109 926.648 597.203 926.357 596.394C926.073 595.577 925.639 594.927 925.057 594.444C924.475 593.961 923.75 593.72 922.884 593.72C921.996 593.72 921.257 593.961 920.668 594.444C920.085 594.927 919.649 595.577 919.358 596.394C919.073 597.203 918.931 598.109 918.931 599.11C918.931 600.105 919.073 601.007 919.358 601.816C919.649 602.626 920.085 603.272 920.668 603.755C921.257 604.231 921.996 604.469 922.884 604.469ZM946.91 595.2L943.394 595.584C943.295 595.229 943.121 594.895 942.872 594.583C942.631 594.27 942.304 594.018 941.892 593.826C941.48 593.634 940.976 593.538 940.379 593.538C939.577 593.538 938.902 593.712 938.355 594.061C937.815 594.409 937.549 594.86 937.556 595.413C937.549 595.889 937.723 596.276 938.078 596.575C938.44 596.873 939.037 597.118 939.868 597.31L942.659 597.906C944.207 598.24 945.358 598.769 946.111 599.494C946.871 600.218 947.254 601.166 947.261 602.338C947.254 603.368 946.953 604.277 946.356 605.065C945.766 605.847 944.946 606.458 943.895 606.898C942.844 607.338 941.636 607.558 940.273 607.558C938.27 607.558 936.658 607.139 935.436 606.301C934.215 605.456 933.487 604.281 933.252 602.775L937.013 602.413C937.183 603.151 937.546 603.709 938.1 604.085C938.653 604.462 939.374 604.65 940.262 604.65C941.178 604.65 941.913 604.462 942.467 604.085C943.028 603.709 943.309 603.244 943.309 602.69C943.309 602.221 943.128 601.834 942.766 601.529C942.411 601.223 941.857 600.989 941.104 600.825L938.313 600.239C936.743 599.913 935.582 599.362 934.829 598.588C934.076 597.807 933.703 596.82 933.71 595.627C933.703 594.618 933.977 593.744 934.531 593.006C935.092 592.26 935.869 591.685 936.864 591.28C937.865 590.868 939.019 590.662 940.326 590.662C942.244 590.662 943.753 591.07 944.854 591.887C945.962 592.704 946.647 593.808 946.91 595.2ZM958.613 590.875V593.858H949.206V590.875H958.613ZM951.528 586.955H955.385V602.317C955.385 602.835 955.463 603.233 955.619 603.51C955.782 603.78 955.995 603.965 956.258 604.064C956.521 604.163 956.812 604.213 957.132 604.213C957.373 604.213 957.593 604.195 957.792 604.16C957.998 604.124 958.155 604.092 958.261 604.064L958.911 607.079C958.705 607.15 958.41 607.228 958.027 607.313C957.65 607.399 957.189 607.448 956.642 607.462C955.676 607.491 954.806 607.345 954.032 607.026C953.258 606.699 952.643 606.195 952.189 605.513C951.741 604.831 951.521 603.979 951.528 602.956V586.955ZM966.547 607.569C965.51 607.569 964.576 607.384 963.745 607.015C962.921 606.639 962.268 606.085 961.785 605.353C961.309 604.622 961.071 603.72 961.071 602.647C961.071 601.724 961.241 600.96 961.582 600.357C961.923 599.753 962.388 599.27 962.978 598.908C963.567 598.546 964.231 598.272 964.97 598.087C965.716 597.896 966.486 597.757 967.282 597.672C968.241 597.573 969.018 597.484 969.615 597.406C970.212 597.32 970.645 597.193 970.915 597.022C971.192 596.845 971.33 596.571 971.33 596.202V596.138C971.33 595.335 971.092 594.714 970.616 594.274C970.141 593.833 969.455 593.613 968.56 593.613C967.616 593.613 966.866 593.819 966.312 594.231C965.766 594.643 965.396 595.129 965.204 595.69L961.604 595.179C961.888 594.185 962.356 593.354 963.01 592.686C963.663 592.011 964.462 591.507 965.407 591.173C966.351 590.833 967.396 590.662 968.539 590.662C969.327 590.662 970.112 590.754 970.893 590.939C971.675 591.124 972.388 591.429 973.035 591.855C973.681 592.274 974.199 592.846 974.59 593.57C974.988 594.295 975.187 595.2 975.187 596.287V607.239H971.479V604.991H971.351C971.117 605.445 970.787 605.872 970.361 606.269C969.942 606.66 969.413 606.976 968.773 607.217C968.141 607.452 967.399 607.569 966.547 607.569ZM967.548 604.735C968.322 604.735 968.994 604.583 969.562 604.277C970.13 603.965 970.567 603.553 970.872 603.041C971.185 602.53 971.341 601.972 971.341 601.369V599.44C971.22 599.54 971.014 599.632 970.723 599.717C970.439 599.803 970.119 599.877 969.764 599.941C969.409 600.005 969.057 600.062 968.709 600.112C968.361 600.161 968.06 600.204 967.804 600.239C967.229 600.318 966.714 600.445 966.259 600.623C965.805 600.801 965.446 601.049 965.183 601.369C964.92 601.681 964.789 602.086 964.789 602.583C964.789 603.293 965.048 603.83 965.567 604.192C966.085 604.554 966.746 604.735 967.548 604.735ZM981.44 607.473C980.794 607.473 980.24 607.246 979.778 606.791C979.317 606.337 979.089 605.783 979.097 605.129C979.089 604.49 979.317 603.943 979.778 603.489C980.24 603.034 980.794 602.807 981.44 602.807C982.065 602.807 982.609 603.034 983.07 603.489C983.539 603.943 983.777 604.49 983.784 605.129C983.777 605.563 983.663 605.957 983.443 606.312C983.23 606.667 982.946 606.951 982.591 607.164C982.243 607.37 981.859 607.473 981.44 607.473ZM990.141 607.473C989.495 607.473 988.941 607.246 988.479 606.791C988.018 606.337 987.791 605.783 987.798 605.129C987.791 604.49 988.018 603.943 988.479 603.489C988.941 603.034 989.495 602.807 990.141 602.807C990.766 602.807 991.31 603.034 991.771 603.489C992.24 603.943 992.478 604.49 992.485 605.129C992.478 605.563 992.364 605.957 992.144 606.312C991.931 606.667 991.647 606.951 991.292 607.164C990.944 607.37 990.56 607.473 990.141 607.473ZM998.843 607.473C998.196 607.473 997.642 607.246 997.181 606.791C996.719 606.337 996.492 605.783 996.499 605.129C996.492 604.49 996.719 603.943 997.181 603.489C997.642 603.034 998.196 602.807 998.843 602.807C999.468 602.807 1000.01 603.034 1000.47 603.489C1000.94 603.943 1001.18 604.49 1001.19 605.129C1001.18 605.563 1001.07 605.957 1000.85 606.312C1000.63 606.667 1000.35 606.951 999.993 607.164C999.645 607.37 999.262 607.473 998.843 607.473Z" fill="#5A7DA0"/>
<path d="M1061.63 411.696C1058.69 479.271 1004.77 532.467 939.313 532.467H665.001C626.177 532.467 599.503 491.984 613.876 454.715C633.034 403.795 695.464 441.475 666.86 398.652C639.134 357.135 622.627 306.471 646.287 282.067C701.057 225.578 765.711 300.497 801.249 289.643C812.583 285.943 857.59 256.692 875.092 251.451C986.621 209.931 1071.2 308.193 1061.63 411.696Z" fill="#E3F0FF"/>
<path d="M632.447 395.237C635.478 389.073 608.66 357.656 596.344 365.664C584.028 373.673 582.748 389.925 601.112 395.824C618.47 401.399 629.418 401.402 632.447 395.237Z" fill="#E3F0FF"/>
<path d="M692.481 263.387L688.722 241.161C688.636 240.666 688.154 240.329 687.642 240.41C687.132 240.493 686.786 240.961 686.869 241.456L690.541 263.166L674.684 275.986C674.285 276.308 674.23 276.883 674.561 277.271C674.748 277.485 675.015 277.598 675.285 277.598C675.497 277.598 675.709 277.53 675.884 277.387L692.152 264.233C692.41 264.027 692.533 263.702 692.481 263.387Z" fill="#C7DEFF"/>
<path d="M717.476 274.677L695.639 267.068C695.326 266.96 694.976 267.02 694.721 267.225L678.453 280.379C678.054 280.701 677.998 281.276 678.33 281.663C678.517 281.878 678.784 281.991 679.051 281.991C679.263 281.991 679.477 281.923 679.652 281.78L695.51 268.959L716.841 276.393C717.329 276.563 717.866 276.316 718.041 275.842C718.216 275.368 717.964 274.847 717.476 274.677Z" fill="#C7DEFF"/>
<path d="M685.452 261.928C685.528 262.375 685.924 262.691 686.375 262.691C686.427 262.691 686.476 262.688 686.528 262.679C687.041 262.599 687.388 262.131 687.302 261.633L684.427 244.631C684.344 244.136 683.859 243.8 683.35 243.88C682.837 243.963 682.491 244.431 682.577 244.926L685.452 261.928Z" fill="#C7DEFF"/>
<path d="M713.178 278.147L696.472 272.325C695.984 272.155 695.45 272.403 695.272 272.876C695.097 273.35 695.352 273.871 695.84 274.041L712.546 279.863C712.651 279.898 712.758 279.916 712.862 279.916C713.246 279.916 713.608 279.684 713.746 279.311C713.921 278.838 713.666 278.316 713.178 278.147Z" fill="#C7DEFF"/>
<path d="M902.736 402.854L880.027 398.248C879.517 398.144 879.02 398.459 878.916 398.954C878.809 399.446 879.134 399.928 879.64 400.03L901.828 404.531L908.428 423.513C908.593 423.99 909.127 424.246 909.618 424.085C909.891 423.993 910.097 423.793 910.192 423.549C910.269 423.358 910.278 423.141 910.207 422.929L903.432 403.456C903.325 403.149 903.061 402.923 902.736 402.854Z" fill="#C7DEFF"/>
<path d="M922.597 384.293L907.415 401.323C907.197 401.567 907.129 401.904 907.234 402.211L914.009 421.684C914.174 422.161 914.708 422.417 915.199 422.256C915.472 422.167 915.678 421.964 915.773 421.72C915.85 421.529 915.859 421.311 915.788 421.1L909.185 402.121L924.015 385.485C924.355 385.103 924.312 384.531 923.919 384.2C923.53 383.873 922.938 383.914 922.597 384.293Z" fill="#C7DEFF"/>
<path d="M924.382 389.432L912.766 402.46C912.425 402.842 912.468 403.417 912.861 403.744C913.254 404.075 913.846 404.033 914.184 403.652L925.8 390.624C925.874 390.543 925.929 390.451 925.966 390.356C926.104 390.007 926.012 389.599 925.705 389.34C925.312 389.012 924.72 389.051 924.382 389.432Z" fill="#C7DEFF"/>
<path d="M782.457 480.956C782.457 480.956 674.714 202.132 597.511 273.84C582.737 291.912 600.055 322.791 631.868 358.6C663.68 394.405 756.213 487.49 769.324 502.258L782.457 480.956Z" fill="#5A789F"/>
<path d="M782.456 480.955C782.456 480.955 715.777 308.406 649.743 269.701C651.204 273.395 652.1 277.384 650.691 279.917C647.463 285.721 632.907 288.381 628.746 298.011C625.187 306.254 630.842 338.077 618.071 342.189C622.269 347.519 626.89 352.998 631.867 358.599C663.68 394.405 756.212 487.489 769.324 502.258L782.456 480.955Z" fill="#5A789F"/>
<path d="M609.93 276.094C617.426 281.955 624.603 288.202 631.651 294.563C672.745 332.065 709.155 374.643 738.421 421.496C744.048 430.562 749.538 440.075 754.511 449.499C756.604 453.426 758.939 458.086 760.903 462.078C762.173 464.724 763.971 468.516 765.177 471.192L766.009 473.021L766.816 474.865L767.623 476.707L768.423 478.551C758.816 459.349 748.126 440.707 736.402 422.706C724.693 404.692 712.036 387.281 698.627 370.427C678.499 345.153 656.732 321.092 633.624 298.332C625.916 290.762 618.042 283.254 609.93 276.094Z" fill="#5AA5D1"/>
<path d="M621.207 408.527C621.207 408.527 600.428 400.295 586.36 416.428C574.498 430.035 593.54 466.973 613.205 484.853C613.205 484.853 593.914 496.585 593.261 510.103C592.607 523.617 615.31 537.882 647.445 541.916L650.691 427.294L621.207 408.527Z" fill="#5A789F"/>
<path d="M618.842 407.772C620.785 418.763 622.199 435.826 625.197 454.388C629.907 483.556 640.692 525.895 603.964 526.855C613.553 533.871 628.931 539.591 647.446 541.915L650.692 427.293L621.208 408.526C621.208 408.526 620.34 408.181 618.842 407.772Z" fill="#5A789F"/>
<path d="M596.246 418.663C611.689 433.982 626.58 449.91 641.244 465.933C645.503 470.566 650.029 475.396 654.168 480.115C662.13 489.265 669.823 498.718 677.012 508.455C677.386 508.973 677.764 509.486 678.135 510.007L677.902 510.195C667.119 499.35 656.699 487.879 646.776 476.289C643.643 472.571 640.013 468.317 636.828 464.64C626.776 453.104 616.617 441.562 606.366 430.196C602.941 426.4 599.505 422.613 596.028 418.865L596.246 418.663Z" fill="#5AA5D1"/>
<path d="M606.207 509.956C614.08 510.468 622.024 510.111 629.833 509.065C633.721 508.534 637.578 507.84 641.355 506.809C644.479 505.951 647.538 504.9 650.594 503.848C653.951 502.686 657.255 501.375 660.471 499.876C662.558 498.902 664.561 497.856 666.605 496.775L666.792 497.004C665.782 498.074 664.641 499.102 663.484 500.019C658.372 504.042 652.291 506.92 645.918 508.478C635.528 510.96 624.749 511.8 614.086 511.097C611.432 510.918 608.79 510.665 606.167 510.245L606.207 509.956Z" fill="#5AA5D1"/>
<mask id="mask0_1949_925" style="mask-type:luminance" maskUnits="userSpaceOnUse" x="638" y="291" width="152" height="253">
<path d="M638.083 291.101H789.685V543.679H638.083V291.101Z" fill="white"/>
</mask>
<g mask="url(#mask0_1949_925)">
<path d="M777.579 543.647H650.279C643.856 543.647 638.649 538.594 638.649 532.358V302.802C638.649 296.566 643.856 291.51 650.279 291.51H777.579C784.004 291.51 789.211 296.566 789.211 302.802V532.358C789.211 538.594 784.004 543.647 777.579 543.647Z" fill="#303C72"/>
</g>
<path d="M773.177 537.041H654.68C649.347 537.041 645.023 532.843 645.023 527.668V307.487C645.023 302.312 649.347 298.117 654.68 298.117H773.177C778.51 298.117 782.83 302.312 782.83 307.487V527.668C782.83 532.843 778.51 537.041 773.177 537.041Z" fill="#D4EBFF"/>
<path d="M773.177 298.117H654.68C649.347 298.117 645.023 302.312 645.023 307.487V319.006H782.83V307.487C782.83 302.312 778.51 298.117 773.177 298.117Z" fill="#8CCBFF"/>
<path d="M742.097 410.216C742.097 410.216 755.828 400.95 766.567 418.311C777.309 435.675 789.162 470.134 792.516 480.845C795.87 491.553 782.964 497.24 774.983 489.068C766.999 480.896 747.166 443.811 742.627 434.689C738.089 425.566 735.322 415.373 742.097 410.216Z" fill="#9E5959"/>
<path d="M778.346 474.9L789.395 471.402C788.348 468.366 785.795 461.278 785.795 461.278C785.795 461.278 779.665 468.869 778.346 474.9Z" fill="#914D4D"/>
<path d="M765.476 475.672C765.424 472.12 765.39 466.472 765.55 460.733C765.81 451.286 764.276 429.959 764.276 429.959L751.358 451.202C755.679 459.107 760.834 468.203 765.476 475.672Z" fill="#914D4D"/>
<path d="M743.916 407.746C743.916 407.746 732.225 412.727 738.089 427.594C743.953 442.464 762.783 473.384 768.42 482.781C774.056 492.178 782.126 496.644 788.269 493.48C794.412 490.313 794.762 484.804 792.313 476.358C789.862 467.914 773.811 429.248 769.77 421.344C765.726 413.442 755.435 401.695 743.916 407.746Z" fill="white"/>
<path d="M784.707 456.176C781.126 460.738 776.628 471.883 776.628 471.883L788.886 466.765C787.671 463.601 786.238 459.975 784.707 456.176Z" fill="#D4EBFF"/>
<path d="M768.364 482.683C768.48 475.935 768.674 460.835 768.299 452.335C767.811 441.154 765.581 427.595 765.581 427.595L756.731 463.115C761.598 471.481 766.05 478.828 768.364 482.683Z" fill="#D4EBFF"/>
<path d="M818.915 432.284C818.915 432.284 828.301 435.683 833.339 446.742L828.823 450.347L816.203 437.941L818.915 432.284Z" fill="#ABD3FC"/>
<path d="M780.712 492.399C784.977 493.833 789.715 492.557 792.746 489.31C800.966 480.5 828.042 451.183 833.626 441.375C840.232 429.776 831.555 428.099 823.482 435.294C815.412 442.489 802.209 453.385 796.057 458.405C786.042 466.58 776.272 472.667 773.136 478.858C770.939 483.19 774.327 490.254 780.712 492.399Z" fill="#9E5959"/>
<path d="M825.85 452.067C821.649 456.929 813.509 447.735 816.304 443.215C816.35 443.144 824.693 433.091 825.816 429.31C826.998 425.327 826.421 423.396 830.643 419.863C834.236 416.86 836.635 414.819 838.443 415.099C840.357 415.397 838.703 417.879 836.758 419.547C834.653 421.356 831.474 426.689 834.478 426.543C836.872 426.423 844.552 424.874 846.871 423.867C850.652 422.226 860.111 413.323 862.339 418.019C862.339 418.019 864.791 417.622 864.625 420.375C864.625 420.375 867.589 421.296 864.895 424.695C864.895 424.695 866.623 426.215 864.898 428.169C863.729 429.495 858.614 434.018 855.22 436.565C851.83 439.113 838.105 440.775 833.248 443.623C831.701 444.532 826.81 450.956 825.85 452.067Z" fill="#F6AF9A"/>
<path d="M833.258 425.661C833.479 428.491 834.458 430.785 833.491 433.627C835.881 431.384 833.779 428.05 833.258 425.661Z" fill="#E57E73"/>
<path d="M864.894 424.695C863.477 424.472 862.381 425.595 861.357 426.352C858.166 428.688 855.162 431.372 851.817 433.437C855.791 432.51 858.454 428.965 861.581 426.608C862.483 425.717 863.713 424.722 864.894 424.695Z" fill="#E57E73"/>
<path d="M864.626 420.375C861.631 420.638 859.462 422.938 857.136 424.541C854.78 426.114 852.684 428.437 850.315 429.715C851.794 429.546 853.055 428.598 854.169 427.696C857.566 425.261 860.588 421.433 864.626 420.375Z" fill="#E57E73"/>
<path d="M862.339 418.019C856.902 418.797 853.337 423.665 848.836 426.206C854.021 424.91 857.108 419.014 862.339 418.019Z" fill="#E57E73"/>
<path d="M849.732 434.415C844.013 432.634 836.324 431.442 831.338 435.431C836.818 432.309 843.746 433.566 849.732 434.415Z" fill="#EA9A88"/>
<path d="M848.47 426.058C849.507 426.931 849.838 428.28 850.163 429.523C851.201 430.47 851.406 432.013 851.667 433.318C852.195 433.694 852.207 434.435 852.213 435.013C852.069 434.423 851.845 433.789 851.311 433.494C850.878 432.338 850.602 430.813 849.673 429.961C849.099 428.858 849.126 427.297 848.172 426.341C847.875 425.736 847.693 425.021 847.172 424.526C847.77 424.866 848.166 425.459 848.47 426.058Z" fill="#EA9A88"/>
<path d="M818.916 432.284C818.916 432.284 822.543 443.769 833.34 446.743C833.34 446.743 802.727 483.615 794.762 490.036C786.799 496.459 774.833 493.563 770.586 484.089C766.496 474.963 818.916 432.284 818.916 432.284Z" fill="white"/>
<path d="M729.888 513.877C716.522 518.137 711.103 527.853 709.483 537.041H760.627C759.556 531.091 758.35 526.605 757.003 524.29C748.55 509.747 729.888 513.877 729.888 513.877Z" fill="#F6AF9A"/>
<path d="M730.336 507.471C714.788 510.492 706.863 520.75 706.338 537.041H764.493C764.404 536.424 764.315 535.825 764.226 535.244C759.902 507.221 730.336 507.471 730.336 507.471Z" fill="#384682"/>
<path d="M691.595 472.311C693.473 492.94 687.79 505.409 685.357 517.952C684.074 524.569 683.73 531.103 684.62 537.041H753.628C757.868 527.495 757.123 518.089 757.261 513C757.497 504.435 758.209 490.131 758.209 490.131C760.722 452.302 689.72 451.679 691.595 472.311Z" fill="#F6AF9A"/>
<path d="M687.049 506.734C687.049 506.734 680.369 522.766 682.836 537.04H754.841C758.76 524.071 758.468 507.47 758.468 507.47C749.291 508.906 687.049 506.734 687.049 506.734Z" fill="#384682"/>
<path d="M682.096 537.04H732.932C732.693 513.888 712.948 512.333 712.948 512.333C697.434 510.748 685.934 515.312 682.096 537.04Z" fill="#F6AF9A"/>
<path d="M679.473 536.987C679.47 537.005 679.47 537.023 679.467 537.041H738.37C738.045 520.464 727.143 509.753 708.914 507.495C708.914 507.495 682.836 505.57 679.473 536.987Z" fill="#384682"/>
<path d="M706.206 400.059C718.605 398.039 728.501 399.69 740.173 403.009C747.982 405.228 756.349 407.368 760.13 412.498C766.767 421.505 763.741 443.755 762.044 454.054C760.348 464.351 759.062 485.886 758.132 491.418C757.202 496.951 731.919 505.636 716.442 503.375C704.577 501.641 693.718 495.995 692.171 485.445C690.352 473.003 687.253 455.166 683.657 444.327C680.061 433.491 674.412 410.922 692.227 403.369C695.568 401.954 702.941 400.59 706.206 400.059Z" fill="#F6AF9A"/>
<path d="M735.462 388.588C735.462 388.588 735.06 399.829 737.629 404.981C740.194 410.129 731.409 413.332 725.699 413.284C719.988 413.237 711.219 410.132 710.194 403.455C709.172 396.776 713.379 399.302 712.584 381.149C711.965 366.952 737.061 374.6 735.462 388.588Z" fill="#F6AF9A"/>
<path d="M736.824 402.877C735.152 397.279 735.462 388.589 735.462 388.589C736.729 377.482 721.169 370.373 715.018 375.027C714.766 376.609 714.649 378.39 714.699 380.401C714.723 381.447 725.198 401.081 736.824 402.877Z" fill="#EA9A88"/>
<path d="M763.259 509.787C762.419 503.643 763.259 473.54 763.379 469.223C763.499 464.903 765.797 442.265 765.552 435.499C765.303 428.73 763.364 415.171 761.63 411.098C759.893 407.028 746.807 403.918 739.955 402.878L736.577 401.955C736.577 401.955 737.66 405.759 731.882 406.725C723.377 408.146 714.129 403.111 710.299 399.515C710.299 399.515 708.044 399.234 706.516 399.512C706.516 399.512 691.72 401.812 687.845 403.325C683.97 404.839 678.394 411.462 678.155 422.78C677.913 434.099 683.804 455.249 685.485 466.085C687.17 476.924 686.087 495.477 685.366 501.894C684.645 508.312 677.673 528.732 677.554 536.783C677.554 536.783 678.437 536.881 679.999 537.042H748.642C758.356 536.077 765.545 535.233 766.144 534.798C766.144 534.798 764.352 529.549 764.226 525.232C764.1 520.915 764.1 515.93 763.259 509.787Z" fill="#85B9F1"/>
<path d="M730.964 408.855C734.732 408.813 740.105 416.565 740.105 416.565C741.792 413.604 743.366 407.306 744.185 403.641C742.642 403.322 741.194 403.066 739.954 402.878L736.576 401.955C736.576 401.955 737.659 405.759 731.881 406.725C723.376 408.146 714.128 403.111 710.298 399.515C710.298 399.515 708.043 399.234 706.515 399.512C706.515 399.512 705.613 399.652 704.198 399.887L702.25 402.804L725.938 421.356C725.938 421.356 725.867 420.129 726.702 415.999C728.046 409.334 730.964 408.855 730.964 408.855Z" fill="#75AEEB"/>
<path d="M699.502 462.858C701.401 448.765 702.141 423.736 702.141 423.736C702.141 423.736 689.186 428.688 678.668 430.618C680.11 442.172 684.142 457.423 685.485 466.085C687.17 476.92 686.087 495.476 685.366 501.893C684.645 508.311 677.673 528.732 677.554 536.782C677.554 536.782 678.437 536.88 679.999 537.041H702.371C689.508 530.26 690.241 510.391 691.938 499.415C693.933 486.49 698.066 473.521 699.502 462.858Z" fill="#75AEEB"/>
<path d="M731.498 410.991C733.262 410.928 733.646 407.997 733.716 406.251C733.198 406.445 732.59 406.606 731.878 406.725C730.418 406.969 728.933 407.023 727.46 406.927C728.095 408.301 729.611 411.057 731.498 410.991Z" fill="#384682"/>
<path d="M730.026 409.313C730.026 409.313 739.287 450.446 740.103 459.503L745.856 470.13L748.277 456.175C748.277 456.175 738.658 422.884 732.306 408.898L730.026 409.313Z" fill="#384682"/>
<path d="M730.553 406.894C730.553 406.894 735.324 404.612 736.573 401.954C736.573 401.954 738.631 401.892 739.484 402.303C739.484 402.303 740.874 409.334 739.484 413.821C739.484 413.821 734.765 407.618 731.05 407.931C727.325 408.247 724.904 416.737 724.904 416.737C724.904 416.737 711.674 406.688 710.035 399.541L710.409 399.124C710.409 399.124 721.71 405.544 730.553 406.894Z" fill="#96C3F2"/>
<path d="M755.254 348.618C755.254 348.618 757.092 357.115 754.521 367.083L748.842 348.281L755.254 348.618Z" fill="#8C4949"/>
<path d="M731.883 332.29C731.883 332.29 750.303 333.342 753.279 349.246C756.255 365.149 754.393 393.918 743.693 397.067C733.93 399.942 718.864 390.128 712.522 380.279C705.848 369.913 703.479 356.7 707.407 346.707C710.846 337.96 717.4 331.533 731.883 332.29Z" fill="#F6AF9A"/>
<path d="M723.509 350.888C723.509 350.888 721.628 353.596 722.147 357.687C722.484 360.35 721.432 361.31 718.575 365.192C715.715 369.074 716.378 369.3 715.537 373.579C714.697 377.854 712.644 388.338 712.589 389.176C712.53 390.016 709.882 387.072 707.9 381.239C705.921 375.405 701.714 364.086 701.352 353.7C700.993 343.317 710.849 332.815 720.947 331.763C720.947 331.763 730.563 327.562 739.82 331.298C749.075 335.032 755.893 340.713 755.5 350.066L753.481 350.131C753.481 350.131 751.944 349.035 751.453 348.749C749.213 347.444 747.39 348.09 745.356 349.377C745.356 349.377 737.439 353.242 733.233 352.777C733.233 352.777 728.431 354.219 723.509 350.888Z" fill="#8C4949"/>
<path d="M715.272 341.417C715.272 341.417 714.078 349.091 722.454 353.325C722.887 351.787 723.507 350.888 723.507 350.888C723.507 350.888 716.244 346.514 715.272 341.417Z" fill="#7D4141"/>
<path d="M720.136 335.187C720.062 338.92 720.982 342.897 723.827 345.545C727.214 348.644 733.526 349.27 738.03 349.156C737.481 349.362 736.91 349.517 736.333 349.639C732.031 350.509 726.883 350.095 723.333 347.363C719.737 344.515 718.654 339.349 720.136 335.187Z" fill="#7D4141"/>
<path d="M724.801 333.203C727.283 332.398 729.916 332.118 732.53 332.13C737.816 332.178 743.269 333.805 747.147 337.398C749.086 339.179 750.562 341.393 751.409 343.776C750.648 342.751 749.869 341.771 749.009 340.871C746.493 338.193 743.269 336.194 739.746 335.014C734.963 333.399 729.845 333.042 724.801 333.203Z" fill="#7D4141"/>
<path d="M722.76 335.187C727.709 335.538 732.56 336.804 737.168 338.574C740.709 339.95 744.136 341.881 746.698 344.667C747.088 345.096 747.453 345.551 747.751 346.043C747.53 345.855 747.303 345.679 747.073 345.513C746.898 345.385 746.551 345.14 746.373 345.018C743.805 343.284 740.995 341.911 738.11 340.755C733.045 338.75 727.878 337.12 722.76 335.187Z" fill="#7D4141"/>
<path d="M725.97 339.623C729.21 342.587 733.407 344.121 737.543 345.539C738.945 346.016 740.375 346.442 741.82 346.987C741.05 347.071 740.283 347.08 739.51 347.056C735.65 346.874 731.747 345.676 728.737 343.254C727.565 342.265 726.451 341.079 725.97 339.623Z" fill="#7D4141"/>
<path d="M719.343 370.238C719.343 370.238 719.303 361.861 714.157 361.804C709.009 361.747 709.036 368.761 712.356 373.31C714.212 375.857 719.364 379.066 719.343 370.238Z" fill="#F6AF9A"/>
<path d="M713.679 367.453C714.691 367.51 715.489 368.049 716.047 368.597C715.903 367.635 715.495 366.705 714.559 366.127C714.317 365.979 714.246 365.669 714.4 365.433C714.553 365.198 714.869 365.129 715.115 365.278C718.456 367.337 716.713 372.369 716.637 372.581C716.545 372.843 716.25 372.983 715.98 372.89C715.974 372.89 715.971 372.887 715.965 372.887C715.704 372.792 715.566 372.512 715.658 372.253C715.664 372.232 715.962 371.374 716.072 370.278C716.066 370.269 716.054 370.26 716.047 370.248C716.038 370.233 715.09 368.538 713.62 368.457C713.335 368.442 713.117 368.204 713.133 367.927C713.148 367.65 713.393 367.438 713.679 367.453Z" fill="#E57E73"/>
<path d="M675.002 537.041H767.71C766.381 523.482 764.73 503.374 764.338 494.197C763.81 481.83 766.093 448.646 766.142 438.299C766.191 427.951 763.11 413.48 763.11 413.48C762.702 412.292 761.843 408.803 754.166 406.026C746.489 403.252 739.686 402.802 739.686 402.802C746.311 419.395 744.436 461.982 744.436 461.982C744.436 461.982 738.441 446.158 730.027 428.806C722.645 413.582 705.907 399.51 705.907 399.51C698.006 399.761 684.241 402.934 684.241 402.934C670.516 417.547 679.651 447.695 681.943 463.751C684.232 479.807 682.164 496.697 676.094 530.096C675.714 532.187 675.349 534.517 675.002 537.041Z" fill="white"/>
<path d="M744.553 458.396L744.436 462.883C750.009 425.638 746.919 405.959 746.406 403.829C742.433 402.986 739.687 402.804 739.687 402.804C745.145 416.474 744.832 447.793 744.553 458.396Z" fill="#ABD3FC"/>
<path d="M744.192 461.341C742.986 458.222 737.451 444.108 730.029 428.806C722.646 413.582 705.908 399.51 705.908 399.51C703.567 399.585 700.71 399.915 697.851 400.344C697.851 400.344 738.034 443.241 744.438 462.881L744.192 461.341Z" fill="#ABD3FC"/>
<path d="M742.494 537.042H743.721C744.94 511.967 745.799 486.893 744.436 461.982C745.167 486.961 743.764 512.095 742.494 537.042Z" fill="#ABD3FC"/>
<path d="M681.943 463.752C684.232 479.808 682.164 496.698 676.094 530.096C675.714 532.188 675.349 534.518 675.002 537.041H685.505L687.432 517.744C687.935 512.325 689.859 491.728 690.494 485.755C691.231 478.857 692.7 477.904 696.376 458.744C700.052 439.583 700.93 422.985 700.93 422.985L678.233 442.992C679.46 450.753 681.133 458.088 681.943 463.752Z" fill="#D4EBFF"/>
<path d="M738.031 401.996C738.031 401.996 742.935 420.816 744.435 461.982C744.435 461.982 746.853 437.349 746.242 421.528C745.629 405.711 745.174 403.581 745.174 403.581C745.174 403.581 740.05 401.587 738.031 401.996Z" fill="white"/>
<path d="M744.437 461.982C730.028 428.807 699.163 400.154 699.163 400.154C702.259 398.644 710.412 399.124 710.412 399.124C710.412 399.124 722.427 412.37 730.807 428.19C742.093 449.499 744.437 461.982 744.437 461.982Z" fill="white"/>
<path d="M685.173 403.585C685.173 403.585 701.844 404.884 698.791 424.92C695.738 444.953 682.363 478.885 677.953 489.23C673.544 499.571 660.415 496.195 659.592 484.96C658.767 473.728 667.122 432.669 669.583 422.822C672.041 412.979 676.566 403.397 685.173 403.585Z" fill="#F6AF9A"/>
<path d="M687.843 403.324C687.843 403.324 675.609 398.456 668.809 421.647C662.007 444.839 657.598 475.705 657.414 486.052C657.229 496.399 667.683 501.509 674.32 497.648C680.96 493.789 688.128 469.764 692.436 457.525C699.162 438.418 709.634 408.014 687.843 403.324Z" fill="white"/>
<path d="M659.455 483.962C659.455 483.962 659.342 516.875 660.851 537.042H675.257C676.322 527.907 677.66 517.902 678.421 512.411C680.167 499.824 681.753 489.798 681.94 481.784C682.186 471.311 660.195 469.112 659.455 483.962Z" fill="#F6AF9A"/>
<path d="M671.342 467.319C671.342 467.319 658.698 468.391 657.412 483.732C656.445 495.283 656.307 519.776 656.771 537.042H680.532C682.542 516.225 686.092 479.096 686.166 475.673C686.27 470.888 677.553 466.249 671.342 467.319Z" fill="white"/>
<path d="M782.078 494.294V527.669C782.078 532.433 778.083 536.309 773.177 536.309H654.679C649.77 536.309 645.778 532.433 645.778 527.669V307.488C645.778 302.724 649.77 298.848 654.679 298.848H773.177C778.083 298.848 782.078 302.724 782.078 307.488V449.72C782.511 450.774 782.94 451.823 783.364 452.869C783.502 452.735 783.585 452.553 783.585 452.35V307.488C783.585 301.916 778.915 297.385 773.177 297.385H654.679C648.938 297.385 644.271 301.916 644.271 307.488V527.669C644.271 533.24 648.938 537.772 654.679 537.772H773.177C778.915 537.772 783.585 533.24 783.585 527.669V494.476C783.088 494.452 782.584 494.392 782.078 494.294Z" fill="white"/>
<path d="M740.644 302.798H687.215C683.937 302.798 681.28 300.218 681.28 297.039V295.835H746.575V297.039C746.575 300.218 743.921 302.798 740.644 302.798Z" fill="#303C72"/>
<path d="M1070.34 348.777C1072.08 347.591 1073.98 346.683 1076.01 346.072C1084.36 343.545 1105.96 339.374 1122.33 356.976C1139.8 375.761 1114.51 429.023 1087.44 455.26C1087.44 455.26 1115.36 471.062 1116.92 490.213C1118.48 509.365 1086.93 530.614 1041.52 537.755L1031.54 375.234L1070.34 348.777Z" fill="#5A789F"/>
<path d="M1075.83 346.127C1073.59 361.811 1072.38 386.087 1068.99 412.558C1063.68 454.162 1050.35 514.727 1102.52 514.467C1089.24 524.845 1067.68 533.643 1041.52 537.757L1031.54 375.236L1070.34 348.776C1072.01 347.641 1073.83 346.744 1075.77 346.148L1075.83 346.127Z" fill="#5A789F"/>
<path d="M1108.68 360.822C1088.39 383.995 1068.65 407.717 1049.14 431.522C1043.6 438.315 1037.62 445.868 1032.06 452.649C1020.61 466.521 1008.76 480.631 996.761 494.047L996.521 493.868C997.043 493.126 997.571 492.39 998.096 491.654C1000.73 487.987 1003.44 484.31 1006.13 480.702C1013.71 470.602 1021.59 460.532 1029.6 450.748C1037.59 441.05 1046.09 431.284 1054.24 421.699C1064.79 409.347 1075.62 396.905 1086.44 384.782C1091.2 379.446 1096.22 373.88 1101.04 368.616C1103.5 365.943 1105.96 363.271 1108.45 360.625L1108.68 360.822Z" fill="#5AA5D1"/>
<path d="M1098.61 490.929C1080.93 493.858 1062.67 493.616 1045.07 490.229C1043.23 489.868 1041.32 489.445 1039.51 488.981C1031.71 486.928 1024.18 483.645 1017.54 479.152C1016.64 478.541 1015.55 477.751 1014.69 477.078C1013.78 476.366 1012.86 475.6 1012 474.829L1012.18 474.593C1013.83 475.484 1015.45 476.381 1017.11 477.209C1018.71 478.014 1020.49 478.866 1022.13 479.59C1026.75 481.657 1031.54 483.385 1036.38 484.887C1041.23 486.397 1046.14 487.783 1051.13 488.787C1064.87 491.43 1079 492.061 1092.96 491.15C1094.83 491.024 1096.7 490.87 1098.56 490.64L1098.61 490.929Z" fill="#5AA5D1"/>
<mask id="mask1_1949_925" style="mask-type:luminance" maskUnits="userSpaceOnUse" x="906" y="291" width="153" height="253">
<path d="M906.728 291.101H1058.33V543.68H906.728V291.101Z" fill="white"/>
</mask>
<g mask="url(#mask1_1949_925)">
<path d="M1046.15 543.646H918.846C912.424 543.646 907.214 538.593 907.214 532.357V302.801C907.214 296.565 912.424 291.509 918.846 291.509H1046.15C1052.57 291.509 1057.78 296.565 1057.78 302.801V532.357C1057.78 538.593 1052.57 543.646 1046.15 543.646Z" fill="#303C72"/>
</g>
<path d="M1041.74 537.041H923.245C917.912 537.041 913.589 532.843 913.589 527.668V307.487C913.589 302.312 917.912 298.117 923.245 298.117H1041.74C1047.07 298.117 1051.4 302.312 1051.4 307.487V527.668C1051.4 532.843 1047.07 537.041 1041.74 537.041Z" fill="#D4EBFF"/>
<path d="M940.455 421.185C941.366 416.374 945.269 412.393 950.522 411.505C957.27 410.364 963.692 414.747 964.867 421.296C965.11 422.657 965.11 424.004 964.892 425.294C964.843 425.598 964.778 425.899 964.704 426.197C963.496 431.95 956.684 463.903 950.283 483.502C949.611 486.886 946.856 489.675 943.152 490.301C938.366 491.111 933.809 488.001 932.974 483.353C932.646 481.535 937.976 431.357 940.455 421.185Z" fill="#DE9681"/>
<path d="M952.077 422.977C952.077 422.977 957.324 418.285 964.89 421.428C965.111 422.745 965.102 424.047 964.893 425.295C964.844 425.599 964.78 425.9 964.706 426.198C963.663 431.161 958.45 455.634 952.927 474.842C952.427 472.482 950.892 470.125 950.131 469.538C948.938 468.618 945.83 465.883 944.305 461.077C943.212 457.642 945.293 444.78 947.677 438.017C950.061 431.251 952.077 422.977 952.077 422.977Z" fill="#EA9A88"/>
<path d="M955.964 410.99C955.964 410.99 951.263 410.046 944.878 412.784C942.966 413.603 941.137 416.812 939.895 419.3C935.148 428.819 931.533 457.737 931.533 457.737C931.533 457.737 943.905 468.936 956.869 472.529C956.869 472.529 966.522 431.682 966.329 423.125C966.135 414.572 959.707 411.869 955.964 410.99Z" fill="#FCF5F1"/>
<path d="M962.902 445.107L947.268 421.013C947.268 421.013 950.576 430.839 948.891 437.424C947.207 444.011 943.2 453.02 942.574 458.395C942.304 460.722 942.429 463.529 942.659 465.963C946.839 468.564 951.809 471.126 956.869 472.529C956.869 472.529 960.195 458.461 962.902 445.107Z" fill="#F0E2DA"/>
<path d="M945.404 472.326C940.648 470.592 935.339 472.927 933.554 477.545C933.201 478.454 933.014 479.381 932.974 480.298C932.971 480.298 929.549 524.998 928.629 537.04H939.427C940.543 531.862 942.645 522.474 944.897 514.326C948.742 500.415 950.061 487.911 950.669 482.152C950.841 481.392 950.908 480.629 950.875 479.878C950.718 476.404 948.966 473.625 945.404 472.326Z" fill="#DE9681"/>
<path d="M967.689 519.475C957.542 520.542 949.657 527.853 947.641 537.041H992.694C990.276 525.952 979.546 518.23 967.689 519.475Z" fill="#F6AF9A"/>
<path d="M946.312 537.042H993.65C990.202 516.988 974.623 516.97 972.663 516.997C972.663 516.997 951.018 515.659 946.312 537.042Z" fill="#8C4949"/>
<path d="M988.142 483.838C964.258 483.773 959.306 494.585 959.306 494.585C958.907 497.57 958.842 500.889 957.425 503.714C950.871 516.757 948.312 531.636 947.551 537.041H1027.87C1027.39 529.011 1024.37 521.411 1020.34 511.716C1017.81 505.617 1011.71 497.603 1011.62 491.313C1011.62 491.313 1009.18 483.895 988.142 483.838Z" fill="#F6AF9A"/>
<path d="M959.028 496.987C959.028 496.987 957.481 499.228 953.495 509.697C950.593 517.315 947.767 530.451 946.444 537.042H1028.9C1027.86 527.996 1025.09 518.075 1021.94 512.474C1018.19 505.776 1012.82 494.765 1012.82 494.765C1002.2 497.389 959.028 496.987 959.028 496.987Z" fill="#8C4949"/>
<path d="M1021.95 512.474C1018.19 505.776 1012.82 494.765 1012.82 494.765C1005.65 496.537 983.613 496.931 970.073 496.996C963.927 501 962.156 505.583 962.156 505.583C962.156 505.583 978.655 511.029 999.498 511.372C1010.38 511.372 1014.67 511.372 1016.1 512.128C1017.1 512.659 1018.67 527.955 1019.52 537.042H1028.9C1027.87 527.996 1025.09 518.075 1021.95 512.474Z" fill="#824444"/>
<path d="M982.357 537.041H1027.28C1025.11 527.811 1017.02 520.586 1006.79 519.731C995.186 518.763 984.858 526.321 982.357 537.041Z" fill="#F6AF9A"/>
<path d="M980.357 537.042H1028.55C1026.48 526.378 1020.79 516.52 1004.6 517.011C1004.6 517.011 984.42 516.999 980.357 537.042Z" fill="#8C4949"/>
<path d="M1017.65 519.676C1018.35 524.967 1019.05 531.971 1019.52 537.042H1028.55C1027.18 529.969 1024.21 523.254 1017.65 519.676Z" fill="#824444"/>
<path d="M957.679 476.388C957.679 476.388 951.502 472.851 950.407 467.149C949.311 461.446 952.453 442.485 953.251 433.616C954.052 424.746 946.734 417.095 945.752 412.692C945.752 412.692 956.089 407.973 978.755 405.812C978.755 405.812 991.532 406.17 1003.81 408.339C1013.83 410.106 1019.04 415.43 1021 418.478C1022.96 421.526 1021.68 428.956 1018.96 438.031C1016.23 447.106 1013.23 454.969 1012.93 464.58C1012.78 469.222 1012.57 485.791 1012.87 496.638C1012.87 496.638 1014.06 503.455 989.795 504.912C967.396 506.259 959.081 496.743 959.081 496.743C958.237 487.819 957.679 476.388 957.679 476.388Z" fill="#DE9681"/>
<path d="M1016.47 446.076C1014.65 452.062 1013.14 457.899 1012.93 464.581C1012.83 467.817 1012.69 476.844 1012.72 485.693C1007.4 471.744 1000.28 430.098 1000.28 430.098L1016.47 446.076Z" fill="#E57E73"/>
<path d="M967.464 409.086L968.796 386.097C968.952 381.542 972.162 377.439 976.939 376.239C982.754 374.776 988.688 378.166 990.194 383.812C990.4 384.578 990.51 385.35 990.538 386.109L992.618 410.79C992.637 410.963 992.683 411.747 992.683 411.747C993.042 417.553 989.12 422.574 983.097 424.087C976.258 425.806 969.504 422.136 967.734 415.495C967.182 413.427 967.317 411.288 967.464 409.086Z" fill="#DE9681"/>
<path d="M968.797 386.097C968.953 381.542 972.163 377.439 976.94 376.239C982.755 374.776 988.689 378.166 990.196 383.812C990.401 384.578 990.512 385.35 990.539 386.109L990.647 387.393C985.793 397.994 976.956 405.883 967.542 407.793L968.797 386.097Z" fill="#D38475"/>
<path d="M959.602 408.667C959.602 408.667 961.179 415.588 972.44 417.372C983.701 419.157 1006.54 408.741 1006.54 408.741C1006.54 408.741 1011.44 408.675 1014.82 410.716C1014.82 410.716 1021.21 414.595 1022.29 419.356C1023.36 424.12 1021.93 432.552 1021.06 435.63C1020.19 438.704 1014.82 465.936 1014.82 472.759C1014.82 477.523 1017.66 491.076 1019.38 498.822C1020.06 501.932 1017.92 504.957 1014.68 505.436C1003.94 507.024 980.341 509.569 957.294 505.728C953.52 505.1 950.857 501.789 951.105 498.083C951.682 489.52 952.637 475.267 952.615 474.671C952.615 474.671 947.853 471.844 946.828 463.806C945.803 455.77 952.087 435.826 951.412 432.403C950.737 428.98 944.76 416.04 944.88 412.784C944.88 412.784 951.366 409.769 959.602 408.667Z" fill="#FCF5F1"/>
<path d="M987.694 507.701C999.078 507.459 1008.81 506.303 1014.68 505.436C1017.92 504.957 1020.06 501.93 1019.38 498.822C1017.66 491.076 1014.82 477.523 1014.82 472.759C1014.82 465.936 1020.19 438.705 1021.06 435.63C1021.26 434.927 1021.48 433.947 1021.7 432.797C1012.08 427.502 1003.09 426.31 998.728 431.956C998.728 431.956 1000.96 457.516 1000.92 462.429C1000.89 467.339 989.882 474.892 973.325 473.232C973.325 473.232 988.658 478.691 1002.66 471.743L1004.33 476.456H1010.62C1010.62 476.456 1011.45 486.428 1012.68 493.275C1013.9 500.085 1001.06 504.897 987.694 507.701Z" fill="#F0E2DA"/>
<path d="M998.818 426.322C998.674 425.145 998.695 423.932 998.904 422.705C1000.09 415.712 1006.89 410.978 1014.1 412.128C1020.08 413.085 1024.45 417.798 1025.09 423.369L1039.94 484.285C1040.26 485.477 1040.33 486.749 1040.11 488.042C1039.27 493.006 1034.44 496.367 1029.33 495.55C1025.02 494.859 1021.89 491.424 1021.51 487.39C1021.51 487.39 1002.75 444.445 999.159 428.056C999.005 427.49 998.892 426.909 998.818 426.322Z" fill="#DE9681"/>
<path d="M1009.61 410.716C1009.61 410.716 996.117 412.483 998.111 428.842C1000.1 445.202 1006.85 474.671 1006.85 474.671C1006.85 474.671 1030.92 474.82 1039.05 463.358C1039.05 463.358 1027.85 425.294 1024.79 418.712C1021.72 412.128 1014.37 408.964 1009.61 410.716Z" fill="#FCF5F1"/>
<path d="M1028.7 478.396C1024.92 479.26 1022.22 482.224 1021.6 485.716C1021.47 486.473 1021.43 487.253 1021.5 488.043C1021.34 493.942 1021.55 506.381 1023.57 520.932C1024.31 526.28 1024.93 532.111 1025.39 537.042H1037.47C1038.46 519.297 1040.2 488.034 1040.2 488.034C1040.28 487.099 1040.21 486.136 1039.98 485.177C1038.79 480.279 1033.74 477.243 1028.7 478.396Z" fill="#DE9681"/>
<path d="M979.321 338.192C979.321 338.192 1000.6 338.961 1000.13 363.391C999.679 386.86 979.376 406.059 961.981 401.131C956.452 399.221 952.81 387 952.617 368.629C952.42 350.258 960.545 337.548 979.321 338.192Z" fill="#DE9681"/>
<path d="M1007.56 395.724C1004.97 387.388 1007.07 371.49 1006.02 364.318C1005.99 364.131 1005.95 363.958 1005.9 363.797C1005.24 354.218 1001.99 346.52 994.475 340.71C986.387 334.456 973.205 337.364 973.205 337.364C967.216 336.929 954.783 342.018 951.337 350.015C947.891 358.011 948.94 369.5 950.29 372.553C951.637 375.607 949.839 378.515 949.091 380.55C948.342 382.585 949.839 384.62 951.186 387.239C952.536 389.855 950.29 392.908 950.29 392.908C952.536 391.746 953.583 388.547 952.687 385.785C951.788 383.02 951.337 382.004 951.923 379.906C952.506 377.806 952.984 376.477 953.285 373.28C953.583 370.081 952.834 363.684 954.632 359.322C956.43 354.957 963.469 350.015 963.469 350.015C965.568 356.268 968.563 361.211 972.456 362.519C976.353 363.827 978.75 365.719 979.498 367.608C980.247 369.5 979.047 372.988 979.498 377.204C979.946 381.423 981.744 381.566 983.091 383.458C984.441 385.347 980.695 388.693 979.796 390.147C978.897 391.6 979.498 394.07 980.545 395.962C981.594 397.851 980.845 400.032 980.845 400.032C982.643 399.305 982.343 395.816 981.744 392.908C981.146 390.001 983.392 389.274 984.739 387.093C986.089 384.912 984.291 381.858 983.99 380.258C983.69 378.658 986.12 373.215 987.019 373.65C987.537 373.903 988.154 376.903 988.636 380.464C988.397 381.941 988.36 383.428 988.587 384.894C988.587 384.894 988.973 385.776 989.317 387.185C989.342 387.587 989.366 387.981 989.385 388.356C989.424 389.19 989.599 390.158 989.826 391.1C989.854 392.968 989.559 395.057 988.587 397.082C985.795 402.898 982.294 400.953 983.07 409.614C983.846 418.278 981.588 425.246 978.897 429.677C976.206 434.11 976.157 447.043 981.674 454.343C981.674 454.343 982.588 448.616 986.687 446.888C990.787 445.16 997.19 436.675 996.767 431.289C996.341 425.902 1000.06 410.412 1009.54 408.83C1009.54 408.83 1010.16 404.06 1007.56 395.724Z" fill="#8C4949"/>
<path d="M963.47 350.015C963.835 344.512 967.609 338.947 973.205 337.365C968.272 340.073 965.111 344.846 963.47 350.015Z" fill="#7A3D3D"/>
<path d="M967.218 348.853C974.299 351.549 973.057 354.91 977.079 359.692C978.438 361.515 980.66 361.965 982.611 362.885C985.097 364.384 986.775 367.232 986.689 370.08C986.41 367.691 984.986 365.397 983.01 363.988C980.672 362.534 978.294 362.701 976.401 360.264C972.33 355.41 973.956 352.407 967.218 348.853Z" fill="#7A3D3D"/>
<path d="M971.709 345.944C975.606 346.59 979.459 348.476 981.577 351.828C985.397 356.619 991.634 361.329 990.883 368.044C990.726 361.436 984.614 357.253 980.895 352.319C978.944 349.01 975.357 347.088 971.709 345.944Z" fill="#7A3D3D"/>
<path d="M971.709 341.438C978.306 340.666 985.535 342.144 990.214 346.997C992.513 349.19 994.498 351.776 995.655 354.717C996.167 356.078 996.532 357.535 996.532 358.992C996.505 359.818 996.526 360.828 996.618 361.65C997.048 366.205 998.155 370.942 996.873 375.462C997.965 369.918 995.685 364.358 995.719 358.816C995.292 353.427 991.414 348.907 987.296 345.552C982.93 342.248 977.125 341.328 971.709 341.438Z" fill="#7A3D3D"/>
<path d="M1002.57 366.773C1003.81 371.877 1004.18 377.383 1002.55 382.448C1001.85 384.974 1000.49 387.322 999.802 389.825C999.225 392.423 1000.84 394.916 1000.57 397.547C1000.52 401.149 998.952 404.894 995.81 406.986C995.098 407.457 994.41 408.014 993.83 408.631C990.86 411.833 989.63 416.24 989.274 420.465C989.176 422.222 989.222 424.007 988.832 425.735C987.804 432.742 980.928 438.019 981.674 445.33C980.526 438.076 987.237 432.546 988.145 425.613C988.492 423.9 988.406 422.148 988.492 420.414C988.814 415.79 990.198 410.913 993.668 407.558C994.147 407.096 994.739 406.646 995.294 406.271C998.976 403.834 1000.21 399.097 999.565 394.979C999.246 393.224 998.543 391.454 999.071 389.664C999.823 387.093 1001.21 384.825 1001.99 382.275C1003.74 377.305 1003.52 371.883 1002.57 366.773Z" fill="#7A3D3D"/>
<path d="M993.209 385.992C995.952 394.638 992.549 395.874 989.226 402.849C988.557 404.321 988.622 405.792 988.487 407.383C987.735 410.339 986.505 411.081 986.689 414.668C986.124 411.843 986.907 410.297 987.729 407.741C987.935 406.344 987.646 404.866 988.11 403.486C988.168 403.218 988.321 402.813 988.41 402.551C991.73 395.183 994.854 395.386 993.209 385.992Z" fill="#7A3D3D"/>
<path d="M1003.46 390.135C1003.29 392.727 1002.97 395.36 1003.44 397.905C1003.59 398.798 1004.17 399.418 1004.48 400.229C1005.19 401.93 1005.42 403.807 1005.09 405.606C1004.7 407.316 1003.83 408.922 1003.84 410.716C1003.45 408.955 1004.12 407.23 1004.39 405.508C1004.73 398.42 1000.55 400.214 1003.46 390.135Z" fill="#7A3D3D"/>
<path d="M997.303 412.593C995.373 415.078 993.465 418.021 993.6 421.227C994.122 426.018 994.336 432 991.688 436.243C993.517 431.649 993.146 426.509 992.772 421.689C992.48 418.141 994.751 414.908 997.303 412.593Z" fill="#7A3D3D"/>
<path d="M991.914 369.414C991.914 369.414 995.36 369.679 995.434 374.947C995.501 380.008 992.368 385.839 988.585 384.894C987.379 384.519 986.333 380.092 986.161 376.132C985.989 372.176 987.864 369.402 991.914 369.414Z" fill="#DE9681"/>
<path d="M989.2 381.121C987.675 374.274 991.289 372.332 991.443 372.251C991.63 372.153 991.86 372.225 991.961 372.403C992.059 372.585 991.989 372.808 991.805 372.907C991.7 372.963 989.78 374.027 989.605 377.465C990.669 376.253 992.366 376.038 992.458 376.026C992.667 376.002 992.857 376.148 992.885 376.351C992.909 376.556 992.759 376.741 992.55 376.765C992.452 376.777 990.172 377.075 989.635 378.967C989.688 379.574 989.786 380.236 989.948 380.963C989.988 381.144 989.884 381.326 989.706 381.389C989.691 381.395 989.672 381.401 989.654 381.404C989.448 381.448 989.243 381.32 989.2 381.121Z" fill="#BA6D5B"/>
<path d="M1041.74 298.117H923.245C917.912 298.117 913.589 302.312 913.589 307.487V319.006H1051.4V307.487C1051.4 302.312 1047.07 298.117 1041.74 298.117Z" fill="#8CCBFF"/>
<path d="M1042.25 308.098H1029C1028.19 308.098 1027.53 307.461 1027.53 306.671V306.445C1027.53 305.658 1028.19 305.021 1029 305.021H1042.25C1043.06 305.021 1043.72 305.658 1043.72 306.445V306.671C1043.72 307.461 1043.06 308.098 1042.25 308.098Z" fill="white"/>
<path d="M1042.25 314.764H1033.86C1033.05 314.764 1032.39 314.123 1032.39 313.337V313.11C1032.39 312.321 1033.05 311.683 1033.86 311.683H1042.25C1043.07 311.683 1043.72 312.324 1043.72 313.11V313.337C1043.72 314.123 1043.07 314.764 1042.25 314.764Z" fill="white"/>
<path d="M1041.74 537.772H923.247C917.506 537.772 912.836 533.24 912.836 527.669V307.488C912.836 301.916 917.506 297.385 923.247 297.385H1041.74C1047.48 297.385 1052.15 301.916 1052.15 307.488V527.669C1052.15 533.24 1047.48 537.772 1041.74 537.772ZM923.247 298.848C918.338 298.848 914.346 302.724 914.346 307.488V527.669C914.346 532.433 918.338 536.309 923.247 536.309H1041.74C1046.65 536.309 1050.64 532.433 1050.64 527.669V307.488C1050.64 302.724 1046.65 298.848 1041.74 298.848H923.247Z" fill="white"/>
<path d="M1009.21 302.798H955.777C952.503 302.798 949.846 300.218 949.846 297.039V295.835H1015.14V297.039C1015.14 300.218 1012.48 302.798 1009.21 302.798Z" fill="#303C72"/>
<path d="M924.438 331.361H805.18C801.348 331.361 798.239 334.379 798.239 338.1V371.684C798.239 375.408 801.348 378.423 805.18 378.423H912.291L931.379 400.658V338.1C931.379 334.379 928.271 331.361 924.438 331.361Z" fill="white"/>
<path d="M876.525 346.642H917.684C918.853 346.642 919.801 345.721 919.801 344.586V342.912C919.801 341.777 918.853 340.856 917.684 340.856H876.525C875.352 340.856 874.404 341.777 874.404 342.912V344.586C874.404 345.721 875.352 346.642 876.525 346.642Z" fill="#D4E7FF"/>
<path d="M810.492 346.642H863.575C864.747 346.642 865.695 345.721 865.695 344.586V342.912C865.695 341.777 864.747 340.856 863.575 340.856H810.492C809.323 340.856 808.375 341.777 808.375 342.912V344.586C808.375 345.721 809.323 346.642 810.492 346.642Z" fill="#D4E7FF"/>
<path d="M892.594 357.952H917.686C918.855 357.952 919.803 357.032 919.803 355.897V354.225C919.803 353.087 918.855 352.167 917.686 352.167H892.594C891.425 352.167 890.474 353.087 890.474 354.225V355.897C890.474 357.032 891.425 357.952 892.594 357.952Z" fill="#D4E7FF"/>
<path d="M868.474 357.952H880.308C881.48 357.952 882.428 357.032 882.428 355.897V354.225C882.428 353.087 881.48 352.167 880.308 352.167H868.474C867.305 352.167 866.356 353.087 866.356 354.225V355.897C866.356 357.032 867.305 357.952 868.474 357.952Z" fill="#D4E7FF"/>
<path d="M810.492 357.952H856.668C857.84 357.952 858.788 357.032 858.788 355.897V354.225C858.788 353.087 857.84 352.167 856.668 352.167H810.492C809.323 352.167 808.375 353.087 808.375 354.225V355.897C808.375 357.032 809.323 357.952 810.492 357.952Z" fill="#D4E7FF"/>
<path d="M903.483 369.264H917.686C918.855 369.264 919.803 368.343 919.803 367.205V365.534C919.803 364.396 918.855 363.475 917.686 363.475H903.483C902.314 363.475 901.366 364.396 901.366 365.534V367.205C901.366 368.343 902.314 369.264 903.483 369.264Z" fill="#D4E7FF"/>
<path d="M810.492 369.264H892.273C893.443 369.264 894.391 368.343 894.391 367.205V365.534C894.391 364.396 893.443 363.475 892.273 363.475H810.492C809.323 363.475 808.375 364.396 808.375 365.534V367.205C808.375 368.343 809.323 369.264 810.492 369.264Z" fill="#D4E7FF"/>
<path d="M891.884 379.4H805.181C800.8 379.4 797.234 375.938 797.234 371.683V338.1C797.234 333.845 800.8 330.386 805.181 330.386H902.464C903.02 330.386 903.468 330.821 903.468 331.36C903.468 331.9 903.02 332.338 902.464 332.338H805.181C801.911 332.338 799.247 334.921 799.247 338.1V371.683C799.247 374.862 801.911 377.448 805.181 377.448H891.884C892.44 377.448 892.891 377.883 892.891 378.423C892.891 378.962 892.44 379.4 891.884 379.4Z" fill="#8CCBFF"/>
<path d="M891.664 274.479H772.408C768.576 274.479 765.468 277.498 765.468 281.219V343.776L784.556 321.542H891.664C895.499 321.542 898.607 318.523 898.607 314.802V281.219C898.607 277.498 895.499 274.479 891.664 274.479Z" fill="white"/>
<path d="M844.99 289.856H779.441C778.268 289.856 777.32 288.935 777.32 287.8V286.126C777.32 284.99 778.268 284.07 779.441 284.07H844.99C846.159 284.07 847.107 284.99 847.107 286.126V287.8C847.107 288.935 846.159 289.856 844.99 289.856Z" fill="#D4E7FF"/>
<path d="M886.633 289.856H857.94C856.771 289.856 855.823 288.935 855.823 287.8V286.126C855.823 284.99 856.771 284.07 857.94 284.07H886.633C887.805 284.07 888.753 284.99 888.753 286.126V287.8C888.753 288.935 887.805 289.856 886.633 289.856Z" fill="#D4E7FF"/>
<path d="M803.72 301.165H779.44C778.271 301.165 777.32 300.244 777.32 299.109V297.435C777.32 296.299 778.271 295.379 779.44 295.379H803.72C804.889 295.379 805.837 296.299 805.837 297.435V299.109C805.837 300.244 804.889 301.165 803.72 301.165Z" fill="#D4E7FF"/>
<path d="M867.04 301.165H816.816C815.647 301.165 814.699 300.244 814.699 299.109V297.435C814.699 296.3 815.647 295.379 816.816 295.379H867.04C868.209 295.379 869.157 296.3 869.157 297.435V299.109C869.157 300.244 868.209 301.165 867.04 301.165Z" fill="#D4E7FF"/>
<path d="M886.631 301.165H878.844C877.672 301.165 876.724 300.244 876.724 299.109V297.435C876.724 296.299 877.672 295.379 878.844 295.379H886.631C887.803 295.379 888.751 296.299 888.751 297.435V299.109C888.751 300.244 887.803 301.165 886.631 301.165Z" fill="#D4E7FF"/>
<path d="M831.778 312.478H779.441C778.272 312.478 777.32 311.554 777.32 310.419V308.748C777.32 307.61 778.272 306.689 779.441 306.689H831.778C832.947 306.689 833.895 307.61 833.895 308.748V310.419C833.895 311.554 832.947 312.478 831.778 312.478Z" fill="#D4E7FF"/>
<path d="M886.633 312.478H842.991C841.819 312.478 840.871 311.554 840.871 310.419V308.748C840.871 307.61 841.819 306.689 842.991 306.689H886.633C887.805 306.689 888.753 307.61 888.753 308.748V310.419C888.753 311.554 887.805 312.478 886.633 312.478Z" fill="#D4E7FF"/>
<path d="M891.662 322.515H798.24C797.684 322.515 797.233 322.08 797.233 321.541C797.233 321.002 797.684 320.564 798.24 320.564H891.662C894.936 320.564 897.6 317.981 897.6 314.802V281.219C897.6 278.04 894.936 275.453 891.662 275.453H772.407C769.136 275.453 766.473 278.04 766.473 281.219V286.963C766.473 287.502 766.022 287.94 765.466 287.94C764.911 287.94 764.46 287.502 764.46 286.963V281.219C764.46 276.964 768.025 273.502 772.407 273.502H891.662C896.047 273.502 899.613 276.964 899.613 281.219V314.802C899.613 319.056 896.047 322.515 891.662 322.515Z" fill="#8CCBFF"/>
</svg>
