<svg width="1712" height="807" viewBox="0 0 1712 807" fill="none" xmlns="http://www.w3.org/2000/svg">
<rect x="0.361328" width="1711.52" height="807" fill="white"/>
<path d="M667.498 601.498H663.279L670.96 579.68H675.839L683.531 601.498H679.312L673.485 584.154H673.315L667.498 601.498ZM667.636 592.943H679.142V596.118H667.636V592.943ZM692.853 607.975C691.468 607.975 690.278 607.787 689.284 607.411C688.29 607.041 687.491 606.544 686.887 605.919C686.283 605.294 685.864 604.602 685.63 603.842L689.103 603C689.259 603.32 689.486 603.636 689.785 603.948C690.083 604.268 690.484 604.531 690.989 604.737C691.5 604.95 692.143 605.056 692.917 605.056C694.011 605.056 694.916 604.79 695.633 604.257C696.351 603.732 696.709 602.865 696.709 601.658V598.558H696.518C696.319 598.955 696.028 599.364 695.644 599.783C695.268 600.202 694.767 600.553 694.142 600.838C693.524 601.122 692.746 601.264 691.809 601.264C690.552 601.264 689.412 600.969 688.389 600.379C687.373 599.783 686.564 598.895 685.96 597.716C685.364 596.53 685.065 595.046 685.065 593.263C685.065 591.466 685.364 589.95 685.96 588.714C686.564 587.471 687.377 586.53 688.4 585.891C689.422 585.244 690.562 584.921 691.82 584.921C692.778 584.921 693.567 585.085 694.185 585.411C694.81 585.731 695.307 586.118 695.676 586.573C696.045 587.02 696.326 587.443 696.518 587.84H696.731V585.134H700.534V601.764C700.534 603.164 700.2 604.321 699.533 605.237C698.865 606.154 697.952 606.839 696.795 607.294C695.637 607.748 694.323 607.975 692.853 607.975ZM692.885 598.238C693.702 598.238 694.398 598.039 694.973 597.642C695.548 597.244 695.985 596.672 696.283 595.926C696.582 595.181 696.731 594.286 696.731 593.242C696.731 592.212 696.582 591.31 696.283 590.536C695.992 589.762 695.559 589.161 694.984 588.735C694.415 588.302 693.716 588.085 692.885 588.085C692.025 588.085 691.308 588.309 690.733 588.757C690.158 589.204 689.724 589.818 689.433 590.6C689.142 591.374 688.996 592.254 688.996 593.242C688.996 594.243 689.142 595.12 689.433 595.873C689.731 596.619 690.168 597.201 690.744 597.62C691.326 598.032 692.04 598.238 692.885 598.238ZM714.916 594.616V585.134H718.773V601.498H715.033V598.59H714.863C714.494 599.506 713.886 600.255 713.041 600.838C712.203 601.42 711.17 601.711 709.941 601.711C708.869 601.711 707.92 601.473 707.097 600.997C706.28 600.514 705.641 599.815 705.179 598.899C704.717 597.975 704.486 596.86 704.486 595.553V585.134H708.343V594.957C708.343 595.994 708.627 596.818 709.195 597.428C709.763 598.039 710.509 598.345 711.432 598.345C712.001 598.345 712.551 598.206 713.084 597.929C713.616 597.652 714.053 597.24 714.394 596.693C714.742 596.139 714.916 595.447 714.916 594.616ZM727.447 601.828C726.41 601.828 725.476 601.644 724.645 601.274C723.821 600.898 723.168 600.344 722.685 599.612C722.209 598.881 721.971 597.979 721.971 596.906C721.971 595.983 722.142 595.22 722.483 594.616C722.824 594.012 723.289 593.529 723.878 593.167C724.468 592.805 725.132 592.531 725.87 592.347C726.616 592.155 727.387 592.017 728.182 591.931C729.141 591.832 729.919 591.743 730.515 591.665C731.112 591.58 731.545 591.452 731.815 591.281C732.092 591.104 732.231 590.83 732.231 590.461V590.397C732.231 589.595 731.993 588.973 731.517 588.533C731.041 588.093 730.356 587.872 729.461 587.872C728.516 587.872 727.767 588.078 727.213 588.49C726.666 588.902 726.297 589.389 726.105 589.95L722.504 589.438C722.788 588.444 723.257 587.613 723.91 586.945C724.564 586.271 725.363 585.767 726.307 585.433C727.252 585.092 728.296 584.921 729.439 584.921C730.228 584.921 731.013 585.014 731.794 585.198C732.575 585.383 733.289 585.688 733.935 586.115C734.581 586.534 735.1 587.105 735.491 587.83C735.888 588.554 736.087 589.46 736.087 590.546V601.498H732.38V599.25H732.252C732.017 599.705 731.687 600.131 731.261 600.529C730.842 600.919 730.313 601.235 729.674 601.477C729.042 601.711 728.299 601.828 727.447 601.828ZM728.449 598.994C729.223 598.994 729.894 598.842 730.462 598.536C731.03 598.224 731.467 597.812 731.772 597.301C732.085 596.789 732.241 596.232 732.241 595.628V593.7C732.12 593.799 731.915 593.892 731.623 593.977C731.339 594.062 731.02 594.137 730.665 594.2C730.309 594.264 729.958 594.321 729.61 594.371C729.262 594.421 728.96 594.463 728.704 594.499C728.129 594.577 727.614 594.705 727.16 594.882C726.705 595.06 726.346 595.308 726.084 595.628C725.821 595.941 725.689 596.345 725.689 596.843C725.689 597.553 725.949 598.089 726.467 598.451C726.986 598.813 727.646 598.994 728.449 598.994ZM739.965 601.498V585.134H743.704V587.862H743.875C744.173 586.917 744.684 586.189 745.409 585.678C746.14 585.159 746.975 584.9 747.912 584.9C748.125 584.9 748.363 584.911 748.626 584.932C748.896 584.946 749.12 584.971 749.297 585.007V588.554C749.134 588.497 748.875 588.448 748.52 588.405C748.172 588.355 747.834 588.33 747.508 588.33C746.804 588.33 746.172 588.483 745.611 588.789C745.057 589.087 744.62 589.502 744.301 590.035C743.981 590.568 743.821 591.182 743.821 591.878V601.498H739.965ZM757.258 601.786C755.973 601.786 754.822 601.455 753.806 600.795C752.791 600.134 751.988 599.176 751.399 597.919C750.809 596.661 750.514 595.134 750.514 593.338C750.514 591.519 750.813 589.985 751.409 588.735C752.013 587.478 752.826 586.53 753.849 585.891C754.872 585.244 756.012 584.921 757.269 584.921C758.228 584.921 759.016 585.085 759.634 585.411C760.252 585.731 760.742 586.118 761.104 586.573C761.466 587.02 761.747 587.443 761.946 587.84H762.105V579.68H765.973V601.498H762.18V598.92H761.946C761.747 599.318 761.459 599.74 761.083 600.188C760.706 600.628 760.209 601.004 759.591 601.317C758.973 601.629 758.196 601.786 757.258 601.786ZM758.334 598.622C759.151 598.622 759.847 598.401 760.422 597.961C760.997 597.514 761.434 596.892 761.733 596.097C762.031 595.301 762.18 594.374 762.18 593.316C762.18 592.258 762.031 591.338 761.733 590.557C761.441 589.776 761.008 589.169 760.433 588.735C759.865 588.302 759.165 588.085 758.334 588.085C757.475 588.085 756.757 588.309 756.182 588.757C755.607 589.204 755.174 589.822 754.882 590.61C754.591 591.399 754.446 592.301 754.446 593.316C754.446 594.339 754.591 595.252 754.882 596.054C755.181 596.85 755.617 597.478 756.193 597.94C756.775 598.394 757.489 598.622 758.334 598.622ZM774.791 601.828C773.754 601.828 772.82 601.644 771.989 601.274C771.165 600.898 770.512 600.344 770.029 599.612C769.553 598.881 769.315 597.979 769.315 596.906C769.315 595.983 769.486 595.22 769.826 594.616C770.167 594.012 770.633 593.529 771.222 593.167C771.812 592.805 772.476 592.531 773.214 592.347C773.96 592.155 774.731 592.017 775.526 591.931C776.485 591.832 777.263 591.743 777.859 591.665C778.456 591.58 778.889 591.452 779.159 591.281C779.436 591.104 779.574 590.83 779.574 590.461V590.397C779.574 589.595 779.336 588.973 778.861 588.533C778.385 588.093 777.699 587.872 776.804 587.872C775.86 587.872 775.111 588.078 774.557 588.49C774.01 588.902 773.64 589.389 773.449 589.95L769.848 589.438C770.132 588.444 770.601 587.613 771.254 586.945C771.907 586.271 772.706 585.767 773.651 585.433C774.596 585.092 775.64 584.921 776.783 584.921C777.571 584.921 778.356 585.014 779.138 585.198C779.919 585.383 780.633 585.688 781.279 586.115C781.925 586.534 782.444 587.105 782.834 587.83C783.232 588.554 783.431 589.46 783.431 590.546V601.498H779.723V599.25H779.596C779.361 599.705 779.031 600.131 778.605 600.529C778.186 600.919 777.657 601.235 777.017 601.477C776.385 601.711 775.643 601.828 774.791 601.828ZM775.792 598.994C776.566 598.994 777.238 598.842 777.806 598.536C778.374 598.224 778.811 597.812 779.116 597.301C779.429 596.789 779.585 596.232 779.585 595.628V593.7C779.464 593.799 779.258 593.892 778.967 593.977C778.683 594.062 778.363 594.137 778.008 594.2C777.653 594.264 777.302 594.321 776.954 594.371C776.606 594.421 776.304 594.463 776.048 594.499C775.473 594.577 774.958 594.705 774.503 594.882C774.049 595.06 773.69 595.308 773.427 595.628C773.165 595.941 773.033 596.345 773.033 596.843C773.033 597.553 773.292 598.089 773.811 598.451C774.329 598.813 774.99 598.994 775.792 598.994ZM791.165 591.91V601.498H787.309V585.134H790.995V587.915H791.187C791.563 586.999 792.163 586.271 792.987 585.731C793.818 585.191 794.844 584.921 796.066 584.921C797.195 584.921 798.179 585.163 799.017 585.646C799.862 586.129 800.515 586.828 800.977 587.744C801.446 588.661 801.677 589.772 801.669 591.079V601.498H797.813V591.676C797.813 590.582 797.529 589.726 796.961 589.108C796.4 588.49 795.622 588.181 794.628 588.181C793.953 588.181 793.353 588.33 792.827 588.629C792.309 588.92 791.9 589.343 791.602 589.896C791.311 590.45 791.165 591.122 791.165 591.91ZM811.662 601.786C810.377 601.786 809.226 601.455 808.211 600.795C807.195 600.134 806.392 599.176 805.803 597.919C805.214 596.661 804.919 595.134 804.919 593.338C804.919 591.519 805.217 589.985 805.814 588.735C806.417 587.478 807.231 586.53 808.253 585.891C809.276 585.244 810.416 584.921 811.673 584.921C812.632 584.921 813.42 585.085 814.038 585.411C814.656 585.731 815.146 586.118 815.508 586.573C815.87 587.02 816.151 587.443 816.35 587.84H816.51V579.68H820.377V601.498H816.584V598.92H816.35C816.151 599.318 815.863 599.74 815.487 600.188C815.111 600.628 814.613 601.004 813.995 601.317C813.378 601.629 812.6 601.786 811.662 601.786ZM812.738 598.622C813.555 598.622 814.251 598.401 814.826 597.961C815.402 597.514 815.839 596.892 816.137 596.097C816.435 595.301 816.584 594.374 816.584 593.316C816.584 592.258 816.435 591.338 816.137 590.557C815.846 589.776 815.412 589.169 814.837 588.735C814.269 588.302 813.569 588.085 812.738 588.085C811.879 588.085 811.162 588.309 810.586 588.757C810.011 589.204 809.578 589.822 809.287 590.61C808.995 591.399 808.85 592.301 808.85 593.316C808.85 594.339 808.995 595.252 809.287 596.054C809.585 596.85 810.022 597.478 810.597 597.94C811.179 598.394 811.893 598.622 812.738 598.622ZM831.624 601.818C830.026 601.818 828.641 601.466 827.469 600.763C826.297 600.06 825.388 599.076 824.742 597.812C824.103 596.548 823.783 595.07 823.783 593.38C823.783 591.69 824.103 590.209 824.742 588.938C825.388 587.666 826.297 586.679 827.469 585.976C828.641 585.273 830.026 584.921 831.624 584.921C833.222 584.921 834.607 585.273 835.779 585.976C836.951 586.679 837.856 587.666 838.496 588.938C839.142 590.209 839.465 591.69 839.465 593.38C839.465 595.07 839.142 596.548 838.496 597.812C837.856 599.076 836.951 600.06 835.779 600.763C834.607 601.466 833.222 601.818 831.624 601.818ZM831.646 598.728C832.512 598.728 833.236 598.49 833.819 598.014C834.401 597.531 834.834 596.885 835.119 596.075C835.41 595.266 835.555 594.364 835.555 593.369C835.555 592.368 835.41 591.463 835.119 590.653C834.834 589.836 834.401 589.186 833.819 588.703C833.236 588.22 832.512 587.979 831.646 587.979C830.758 587.979 830.019 588.22 829.43 588.703C828.847 589.186 828.41 589.836 828.119 590.653C827.835 591.463 827.693 592.368 827.693 593.369C827.693 594.364 827.835 595.266 828.119 596.075C828.41 596.885 828.847 597.531 829.43 598.014C830.019 598.49 830.758 598.728 831.646 598.728ZM850.18 601.498V585.134H853.919V587.862H854.09C854.388 586.917 854.899 586.189 855.624 585.678C856.355 585.159 857.19 584.9 858.127 584.9C858.34 584.9 858.578 584.911 858.841 584.932C859.111 584.946 859.335 584.971 859.512 585.007V588.554C859.349 588.497 859.09 588.448 858.734 588.405C858.386 588.355 858.049 588.33 857.722 588.33C857.019 588.33 856.387 588.483 855.826 588.789C855.272 589.087 854.835 589.502 854.516 590.035C854.196 590.568 854.036 591.182 854.036 591.878V601.498H850.18ZM868.645 601.818C867.004 601.818 865.587 601.477 864.394 600.795C863.208 600.106 862.295 599.133 861.656 597.876C861.017 596.612 860.697 595.124 860.697 593.412C860.697 591.729 861.017 590.252 861.656 588.98C862.302 587.702 863.204 586.708 864.362 585.997C865.52 585.28 866.88 584.921 868.442 584.921C869.451 584.921 870.403 585.085 871.297 585.411C872.199 585.731 872.995 586.228 873.684 586.903C874.38 587.578 874.927 588.437 875.324 589.481C875.722 590.518 875.921 591.754 875.921 593.188V594.371H862.508V591.771H872.224C872.217 591.033 872.057 590.376 871.745 589.801C871.432 589.218 870.996 588.76 870.435 588.426C869.881 588.093 869.234 587.926 868.496 587.926C867.707 587.926 867.015 588.117 866.418 588.501C865.822 588.877 865.356 589.374 865.023 589.992C864.696 590.603 864.529 591.274 864.522 592.006V594.275C864.522 595.227 864.696 596.044 865.044 596.725C865.392 597.4 865.878 597.919 866.503 598.281C867.128 598.636 867.86 598.813 868.698 598.813C869.259 598.813 869.767 598.735 870.222 598.579C870.676 598.416 871.07 598.178 871.404 597.865C871.738 597.553 871.99 597.166 872.16 596.704L875.761 597.109C875.534 598.061 875.101 598.892 874.462 599.602C873.829 600.305 873.02 600.852 872.033 601.242C871.045 601.626 869.916 601.818 868.645 601.818ZM892.117 589.46L888.601 589.843C888.502 589.488 888.328 589.154 888.079 588.842C887.838 588.529 887.511 588.277 887.099 588.085C886.687 587.894 886.183 587.798 885.586 587.798C884.784 587.798 884.109 587.972 883.562 588.32C883.022 588.668 882.756 589.119 882.763 589.673C882.756 590.149 882.93 590.536 883.285 590.834C883.647 591.132 884.244 591.377 885.075 591.569L887.866 592.166C889.415 592.499 890.565 593.029 891.318 593.753C892.078 594.477 892.461 595.426 892.468 596.597C892.461 597.627 892.16 598.536 891.563 599.325C890.973 600.106 890.153 600.717 889.102 601.157C888.051 601.597 886.843 601.818 885.48 601.818C883.477 601.818 881.865 601.399 880.643 600.561C879.422 599.715 878.694 598.54 878.459 597.034L882.22 596.672C882.39 597.411 882.753 597.968 883.307 598.345C883.861 598.721 884.581 598.909 885.469 598.909C886.385 598.909 887.12 598.721 887.674 598.345C888.236 597.968 888.516 597.503 888.516 596.949C888.516 596.48 888.335 596.093 887.973 595.788C887.618 595.482 887.064 595.248 886.311 595.085L883.52 594.499C881.95 594.172 880.789 593.622 880.036 592.847C879.283 592.066 878.91 591.079 878.917 589.886C878.91 588.877 879.184 588.004 879.738 587.265C880.299 586.519 881.076 585.944 882.071 585.539C883.072 585.127 884.226 584.921 885.533 584.921C887.451 584.921 888.96 585.33 890.061 586.146C891.169 586.963 891.854 588.068 892.117 589.46ZM895.649 607.634V585.134H899.441V587.84H899.665C899.864 587.443 900.144 587.02 900.506 586.573C900.869 586.118 901.359 585.731 901.977 585.411C902.595 585.085 903.383 584.921 904.342 584.921C905.606 584.921 906.746 585.244 907.761 585.891C908.784 586.53 909.594 587.478 910.19 588.735C910.794 589.985 911.096 591.519 911.096 593.338C911.096 595.134 910.801 596.661 910.212 597.919C909.622 599.176 908.82 600.134 907.804 600.795C906.788 601.455 905.638 601.786 904.352 601.786C903.415 601.786 902.637 601.629 902.019 601.317C901.401 601.004 900.904 600.628 900.528 600.188C900.158 599.74 899.871 599.318 899.665 598.92H899.505V607.634H895.649ZM899.43 593.316C899.43 594.374 899.58 595.301 899.878 596.097C900.183 596.892 900.62 597.514 901.188 597.961C901.764 598.401 902.46 598.622 903.276 598.622C904.129 598.622 904.842 598.394 905.418 597.94C905.993 597.478 906.426 596.85 906.717 596.054C907.016 595.252 907.165 594.339 907.165 593.316C907.165 592.301 907.019 591.399 906.728 590.61C906.437 589.822 906.004 589.204 905.428 588.757C904.853 588.309 904.136 588.085 903.276 588.085C902.453 588.085 901.753 588.302 901.178 588.735C900.602 589.169 900.166 589.776 899.867 590.557C899.576 591.338 899.43 592.258 899.43 593.316ZM921.536 601.818C919.938 601.818 918.553 601.466 917.381 600.763C916.21 600.06 915.301 599.076 914.654 597.812C914.015 596.548 913.695 595.07 913.695 593.38C913.695 591.69 914.015 590.209 914.654 588.938C915.301 587.666 916.21 586.679 917.381 585.976C918.553 585.273 919.938 584.921 921.536 584.921C923.134 584.921 924.519 585.273 925.691 585.976C926.863 586.679 927.769 587.666 928.408 588.938C929.054 590.209 929.377 591.69 929.377 593.38C929.377 595.07 929.054 596.548 928.408 597.812C927.769 599.076 926.863 600.06 925.691 600.763C924.519 601.466 923.134 601.818 921.536 601.818ZM921.558 598.728C922.424 598.728 923.149 598.49 923.731 598.014C924.313 597.531 924.747 596.885 925.031 596.075C925.322 595.266 925.467 594.364 925.467 593.369C925.467 592.368 925.322 591.463 925.031 590.653C924.747 589.836 924.313 589.186 923.731 588.703C923.149 588.22 922.424 587.979 921.558 587.979C920.67 587.979 919.931 588.22 919.342 588.703C918.759 589.186 918.323 589.836 918.031 590.653C917.747 591.463 917.605 592.368 917.605 593.369C917.605 594.364 917.747 595.266 918.031 596.075C918.323 596.885 918.759 597.531 919.342 598.014C919.931 598.49 920.67 598.728 921.558 598.728ZM945.584 589.46L942.068 589.843C941.969 589.488 941.795 589.154 941.546 588.842C941.305 588.529 940.978 588.277 940.566 588.085C940.154 587.894 939.65 587.798 939.053 587.798C938.251 587.798 937.576 587.972 937.029 588.32C936.489 588.668 936.223 589.119 936.23 589.673C936.223 590.149 936.397 590.536 936.752 590.834C937.114 591.132 937.711 591.377 938.542 591.569L941.333 592.166C942.881 592.499 944.032 593.029 944.785 593.753C945.545 594.477 945.928 595.426 945.935 596.597C945.928 597.627 945.626 598.536 945.03 599.325C944.44 600.106 943.62 600.717 942.569 601.157C941.518 601.597 940.31 601.818 938.947 601.818C936.944 601.818 935.332 601.399 934.11 600.561C932.888 599.715 932.16 598.54 931.926 597.034L935.687 596.672C935.857 597.411 936.219 597.968 936.773 598.345C937.327 598.721 938.048 598.909 938.936 598.909C939.852 598.909 940.587 598.721 941.141 598.345C941.702 597.968 941.983 597.503 941.983 596.949C941.983 596.48 941.802 596.093 941.44 595.788C941.084 595.482 940.53 595.248 939.778 595.085L936.986 594.499C935.417 594.172 934.256 593.622 933.503 592.847C932.75 592.066 932.377 591.079 932.384 589.886C932.377 588.877 932.65 588.004 933.204 587.265C933.766 586.519 934.543 585.944 935.538 585.539C936.539 585.127 937.693 584.921 939 584.921C940.918 584.921 942.427 585.33 943.528 586.146C944.636 586.963 945.321 588.068 945.584 589.46ZM957.286 585.134V588.117H947.88V585.134H957.286ZM950.202 581.214H954.059V596.576C954.059 597.095 954.137 597.492 954.293 597.769C954.456 598.039 954.669 598.224 954.932 598.323C955.195 598.423 955.486 598.472 955.806 598.472C956.047 598.472 956.267 598.455 956.466 598.419C956.672 598.384 956.828 598.352 956.935 598.323L957.585 601.338C957.379 601.409 957.084 601.487 956.701 601.573C956.324 601.658 955.862 601.708 955.316 601.722C954.35 601.75 953.48 601.605 952.706 601.285C951.931 600.958 951.317 600.454 950.862 599.772C950.415 599.09 950.195 598.238 950.202 597.215V581.214ZM965.221 601.828C964.184 601.828 963.25 601.644 962.419 601.274C961.595 600.898 960.941 600.344 960.459 599.612C959.983 598.881 959.745 597.979 959.745 596.906C959.745 595.983 959.915 595.22 960.256 594.616C960.597 594.012 961.062 593.529 961.652 593.167C962.241 592.805 962.905 592.531 963.644 592.347C964.39 592.155 965.16 592.017 965.956 591.931C966.915 591.832 967.692 591.743 968.289 591.665C968.885 591.58 969.319 591.452 969.589 591.281C969.866 591.104 970.004 590.83 970.004 590.461V590.397C970.004 589.595 969.766 588.973 969.29 588.533C968.814 588.093 968.129 587.872 967.234 587.872C966.29 587.872 965.54 588.078 964.986 588.49C964.439 588.902 964.07 589.389 963.878 589.95L960.277 589.438C960.562 588.444 961.03 587.613 961.684 586.945C962.337 586.271 963.136 585.767 964.081 585.433C965.025 585.092 966.069 584.921 967.213 584.921C968.001 584.921 968.786 585.014 969.567 585.198C970.348 585.383 971.062 585.688 971.709 586.115C972.355 586.534 972.873 587.105 973.264 587.83C973.662 588.554 973.861 589.46 973.861 590.546V601.498H970.153V599.25H970.025C969.791 599.705 969.461 600.131 969.035 600.529C968.616 600.919 968.086 601.235 967.447 601.477C966.815 601.711 966.073 601.828 965.221 601.828ZM966.222 598.994C966.996 598.994 967.667 598.842 968.236 598.536C968.804 598.224 969.241 597.812 969.546 597.301C969.858 596.789 970.015 596.232 970.015 595.628V593.7C969.894 593.799 969.688 593.892 969.397 593.977C969.113 594.062 968.793 594.137 968.438 594.2C968.083 594.264 967.731 594.321 967.383 594.371C967.035 594.421 966.733 594.463 966.478 594.499C965.902 594.577 965.388 594.705 964.933 594.882C964.478 595.06 964.12 595.308 963.857 595.628C963.594 595.941 963.463 596.345 963.463 596.843C963.463 597.553 963.722 598.089 964.241 598.451C964.759 598.813 965.419 598.994 966.222 598.994ZM980.114 601.732C979.468 601.732 978.914 601.505 978.452 601.051C977.991 600.596 977.763 600.042 977.77 599.389C977.763 598.749 977.991 598.203 978.452 597.748C978.914 597.294 979.468 597.066 980.114 597.066C980.739 597.066 981.282 597.294 981.744 597.748C982.213 598.203 982.451 598.749 982.458 599.389C982.451 599.822 982.337 600.216 982.117 600.571C981.904 600.926 981.62 601.21 981.265 601.423C980.917 601.629 980.533 601.732 980.114 601.732ZM988.815 601.732C988.169 601.732 987.615 601.505 987.153 601.051C986.692 600.596 986.464 600.042 986.472 599.389C986.464 598.749 986.692 598.203 987.153 597.748C987.615 597.294 988.169 597.066 988.815 597.066C989.44 597.066 989.984 597.294 990.445 597.748C990.914 598.203 991.152 598.749 991.159 599.389C991.152 599.822 991.038 600.216 990.818 600.571C990.605 600.926 990.321 601.21 989.966 601.423C989.618 601.629 989.234 601.732 988.815 601.732ZM997.516 601.732C996.87 601.732 996.316 601.505 995.854 601.051C995.393 600.596 995.166 600.042 995.173 599.389C995.166 598.749 995.393 598.203 995.854 597.748C996.316 597.294 996.87 597.066 997.516 597.066C998.141 597.066 998.685 597.294 999.146 597.748C999.615 598.203 999.853 598.749 999.86 599.389C999.853 599.822 999.739 600.216 999.519 600.571C999.306 600.926 999.022 601.21 998.667 601.423C998.319 601.629 997.935 601.732 997.516 601.732Z" fill="#5A7DA0"/>
<path d="M1059.29 408.156C1056.36 475.15 1002.58 527.889 937.287 527.889H663.672C624.947 527.889 598.341 487.754 612.677 450.805C631.787 400.323 694.058 437.679 665.527 395.225C637.872 354.064 621.406 303.836 645.006 279.642C699.637 223.639 764.126 297.914 799.574 287.153C810.88 283.485 855.772 254.485 873.229 249.289C984.475 208.126 1068.84 305.543 1059.29 408.156Z" fill="#E3F0FF"/>
<path d="M631.201 391.84C634.224 385.728 607.475 354.581 595.19 362.521C582.905 370.46 581.629 386.573 599.946 392.422C617.26 397.948 628.18 397.951 631.201 391.84Z" fill="#E3F0FF"/>
<path d="M691.081 261.122L687.332 239.087C687.246 238.597 686.766 238.263 686.254 238.343C685.746 238.426 685.401 238.889 685.483 239.38L689.147 260.904L673.33 273.613C672.932 273.932 672.877 274.503 673.207 274.887C673.394 275.099 673.66 275.211 673.929 275.211C674.141 275.211 674.352 275.144 674.526 275.002L690.753 261.961C691.011 261.757 691.133 261.435 691.081 261.122Z" fill="#C7DEFF"/>
<path d="M716.014 272.316L694.232 264.772C693.919 264.665 693.571 264.724 693.317 264.928L677.089 277.969C676.692 278.288 676.636 278.858 676.967 279.242C677.154 279.455 677.42 279.567 677.686 279.567C677.897 279.567 678.112 279.499 678.286 279.357L694.103 266.647L715.38 274.017C715.867 274.185 716.402 273.94 716.577 273.47C716.751 273.001 716.5 272.484 716.014 272.316Z" fill="#C7DEFF"/>
<path d="M684.071 259.676C684.148 260.12 684.542 260.433 684.992 260.433C685.044 260.433 685.093 260.43 685.145 260.421C685.656 260.341 686.002 259.877 685.917 259.384L683.049 242.528C682.966 242.037 682.483 241.704 681.975 241.783C681.464 241.866 681.118 242.33 681.203 242.82L684.071 259.676Z" fill="#C7DEFF"/>
<path d="M711.727 275.755L695.063 269.983C694.577 269.815 694.044 270.06 693.867 270.53C693.692 270.999 693.946 271.516 694.433 271.685L711.097 277.456C711.201 277.491 711.308 277.509 711.412 277.509C711.795 277.509 712.156 277.279 712.294 276.91C712.468 276.44 712.214 275.923 711.727 275.755Z" fill="#C7DEFF"/>
<path d="M900.802 399.39L878.151 394.823C877.643 394.72 877.147 395.033 877.043 395.523C876.936 396.011 877.26 396.489 877.765 396.59L899.896 401.053L906.479 419.871C906.645 420.344 907.177 420.598 907.667 420.438C907.939 420.347 908.144 420.149 908.239 419.907C908.316 419.718 908.325 419.502 908.255 419.292L901.497 399.987C901.39 399.682 901.127 399.458 900.802 399.39Z" fill="#C7DEFF"/>
<path d="M920.613 380.988L905.469 397.872C905.252 398.114 905.184 398.448 905.288 398.752L912.046 418.058C912.211 418.53 912.744 418.784 913.233 418.625C913.506 418.536 913.711 418.336 913.806 418.093C913.882 417.904 913.892 417.689 913.821 417.479L907.235 398.664L922.026 382.17C922.366 381.792 922.323 381.225 921.932 380.897C921.543 380.572 920.952 380.613 920.613 380.988Z" fill="#C7DEFF"/>
<path d="M922.394 386.084L910.807 399C910.468 399.378 910.511 399.948 910.902 400.273C911.294 400.601 911.885 400.559 912.221 400.181L923.808 387.265C923.882 387.185 923.937 387.094 923.974 386.999C924.111 386.654 924.019 386.249 923.713 385.992C923.322 385.667 922.731 385.706 922.394 386.084Z" fill="#C7DEFF"/>
<path d="M780.83 476.82C780.83 476.82 673.361 200.394 596.354 271.484C581.617 289.402 598.891 320.014 630.623 355.515C662.355 391.013 754.653 483.297 767.731 497.939L780.83 476.82Z" fill="#5A789F"/>
<path d="M780.828 476.82C780.828 476.82 714.319 305.754 648.453 267.382C649.909 271.044 650.803 275 649.398 277.51C646.179 283.264 631.659 285.902 627.509 295.448C623.959 303.621 629.599 335.17 616.861 339.246C621.048 344.531 625.657 349.963 630.622 355.516C662.354 391.014 754.651 483.297 767.729 497.939L780.828 476.82Z" fill="#5A789F"/>
<path d="M608.741 273.721C616.218 279.531 623.377 285.725 630.407 292.031C671.397 329.21 707.714 371.422 736.906 417.872C742.519 426.86 747.994 436.292 752.955 445.634C755.043 449.527 757.372 454.147 759.33 458.105C760.598 460.728 762.391 464.488 763.594 467.141L764.423 468.954L765.228 470.783L766.033 472.608L766.832 474.436C757.249 455.399 746.586 436.918 734.892 419.071C723.213 401.213 710.588 383.951 697.213 367.242C677.136 342.185 655.424 318.331 632.375 295.767C624.687 288.262 616.833 280.819 608.741 273.721Z" fill="#5AA5D1"/>
<path d="M619.99 405.015C619.99 405.015 599.264 396.853 585.231 412.848C573.399 426.338 592.393 462.958 612.008 480.683C612.008 480.683 592.766 492.315 592.115 505.716C591.463 519.115 614.108 533.257 646.161 537.256L649.399 423.62L619.99 405.015Z" fill="#5A789F"/>
<path d="M617.631 404.267C619.568 415.163 620.979 432.079 623.969 450.481C628.667 479.398 639.425 521.374 602.79 522.325C612.354 529.281 627.694 534.952 646.161 537.256L649.399 423.62L619.99 405.014C619.99 405.014 619.124 404.671 617.631 404.267Z" fill="#5A789F"/>
<path d="M595.092 415.062C610.496 430.25 625.349 446.041 639.976 461.926C644.224 466.519 648.738 471.307 652.867 475.986C660.809 485.057 668.482 494.429 675.653 504.082C676.026 504.596 676.402 505.104 676.773 505.621L676.54 505.807C665.785 495.055 655.392 483.683 645.494 472.193C642.369 468.507 638.748 464.289 635.571 460.644C625.545 449.207 615.411 437.764 605.186 426.496C601.77 422.733 598.343 418.979 594.875 415.263L595.092 415.062Z" fill="#5AA5D1"/>
<path d="M605.029 505.571C612.882 506.079 620.806 505.724 628.595 504.688C632.473 504.162 636.32 503.474 640.088 502.452C643.204 501.601 646.255 500.558 649.303 499.516C652.652 498.364 655.948 497.064 659.155 495.578C661.236 494.612 663.235 493.576 665.273 492.503L665.46 492.731C664.453 493.791 663.315 494.81 662.161 495.72C657.062 499.708 650.996 502.561 644.639 504.106C634.276 506.566 623.524 507.399 612.889 506.702C610.241 506.525 607.606 506.274 604.989 505.857L605.029 505.571Z" fill="#5AA5D1"/>
<mask id="mask0_1949_925" style="mask-type:luminance" maskUnits="userSpaceOnUse" x="636" y="288" width="153" height="252">
<path d="M636.822 288.597H788.039V539.004H636.822V288.597Z" fill="white"/>
</mask>
<g mask="url(#mask0_1949_925)">
<path d="M775.965 538.972H648.988C642.582 538.972 637.389 533.962 637.389 527.78V300.197C637.389 294.015 642.582 289.002 648.988 289.002H775.965C782.374 289.002 787.568 294.015 787.568 300.197V527.78C787.568 533.962 782.374 538.972 775.965 538.972Z" fill="#303C72"/>
</g>
<path d="M771.571 532.424H653.375C648.056 532.424 643.743 528.262 643.743 523.131V304.844C643.743 299.713 648.056 295.554 653.375 295.554H771.571C776.89 295.554 781.199 299.713 781.199 304.844V523.131C781.199 528.262 776.89 532.424 771.571 532.424Z" fill="#D4EBFF"/>
<path d="M771.571 295.554H653.375C648.056 295.554 643.743 299.713 643.743 304.844V316.263H781.199V304.844C781.199 299.713 776.89 295.554 771.571 295.554Z" fill="#8CCBFF"/>
<path d="M740.573 406.689C740.573 406.689 754.269 397.502 764.981 414.714C775.696 431.928 787.519 466.091 790.864 476.71C794.209 487.326 781.336 492.964 773.376 484.862C765.412 476.76 745.629 439.995 741.102 430.951C736.575 421.906 733.815 411.801 740.573 406.689Z" fill="#9E5959"/>
<path d="M776.729 470.816L787.75 467.349C786.707 464.339 784.16 457.312 784.16 457.312C784.16 457.312 778.045 464.838 776.729 470.816Z" fill="#914D4D"/>
<path d="M763.89 471.581C763.838 468.061 763.805 462.46 763.964 456.771C764.224 447.405 762.694 426.262 762.694 426.262L749.809 447.322C754.118 455.159 759.26 464.176 763.89 471.581Z" fill="#914D4D"/>
<path d="M742.386 404.239C742.386 404.239 730.725 409.178 736.574 423.917C742.423 438.659 761.206 469.313 766.828 478.629C772.45 487.945 780.499 492.373 786.627 489.236C792.754 486.096 793.103 480.635 790.66 472.261C788.215 463.89 772.205 425.557 768.174 417.72C764.141 409.887 753.876 398.24 742.386 404.239Z" fill="white"/>
<path d="M783.075 452.253C779.503 456.775 775.017 467.825 775.017 467.825L787.243 462.751C786.031 459.614 784.602 456.019 783.075 452.253Z" fill="#D4EBFF"/>
<path d="M766.772 478.533C766.888 471.842 767.081 456.873 766.707 448.446C766.221 437.36 763.996 423.918 763.996 423.918L755.169 459.132C760.023 467.427 764.464 474.711 766.772 478.533Z" fill="#D4EBFF"/>
<path d="M817.195 428.566C817.195 428.566 826.557 431.937 831.582 442.9L827.077 446.474L814.489 434.175L817.195 428.566Z" fill="#ABD3FC"/>
<path d="M779.09 488.165C783.345 489.586 788.07 488.321 791.094 485.102C799.293 476.368 826.3 447.303 831.87 437.579C838.459 426.08 829.804 424.417 821.752 431.55C813.702 438.684 800.533 449.486 794.396 454.463C784.407 462.568 774.662 468.602 771.534 474.74C769.343 479.035 772.721 486.038 779.09 488.165Z" fill="#9E5959"/>
<path d="M824.111 448.18C819.921 453 811.802 443.885 814.59 439.404C814.636 439.333 822.958 429.367 824.078 425.619C825.256 421.67 824.681 419.756 828.892 416.253C832.476 413.275 834.869 411.252 836.672 411.53C838.582 411.825 836.932 414.286 834.992 415.94C832.892 417.733 829.721 423.02 832.718 422.875C835.105 422.757 842.766 421.221 845.079 420.223C848.85 418.595 858.286 409.769 860.508 414.424C860.508 414.424 862.953 414.032 862.788 416.761C862.788 416.761 865.744 417.674 863.057 421.044C863.057 421.044 864.78 422.55 863.06 424.488C861.894 425.802 856.792 430.286 853.407 432.812C850.025 435.337 836.335 436.985 831.49 439.809C829.948 440.71 825.069 447.078 824.111 448.18Z" fill="#F6AF9A"/>
<path d="M831.501 422C831.721 424.806 832.698 427.081 831.734 429.899C834.118 427.674 832.021 424.369 831.501 422Z" fill="#E57E73"/>
<path d="M863.056 421.043C861.642 420.821 860.55 421.935 859.528 422.685C856.345 425.001 853.349 427.662 850.013 429.709C853.976 428.79 856.632 425.275 859.751 422.939C860.651 422.056 861.878 421.069 863.056 421.043Z" fill="#E57E73"/>
<path d="M862.791 416.761C859.804 417.021 857.64 419.301 855.32 420.89C852.97 422.449 850.879 424.753 848.517 426.02C849.992 425.852 851.25 424.913 852.361 424.018C855.748 421.605 858.763 417.809 862.791 416.761Z" fill="#E57E73"/>
<path d="M860.51 414.425C855.087 415.196 851.531 420.022 847.041 422.542C852.213 421.257 855.292 415.412 860.51 414.425Z" fill="#E57E73"/>
<path d="M847.934 430.68C842.23 428.914 834.56 427.732 829.587 431.687C835.053 428.592 841.963 429.838 847.934 430.68Z" fill="#EA9A88"/>
<path d="M846.674 422.395C847.709 423.26 848.039 424.598 848.364 425.83C849.398 426.769 849.603 428.299 849.863 429.593C850.39 429.965 850.402 430.7 850.408 431.273C850.264 430.688 850.041 430.059 849.508 429.767C849.077 428.621 848.801 427.109 847.874 426.264C847.302 425.171 847.329 423.623 846.378 422.675C846.081 422.076 845.9 421.367 845.38 420.876C845.977 421.213 846.371 421.801 846.674 422.395Z" fill="#EA9A88"/>
<path d="M817.196 428.566C817.196 428.566 820.813 439.953 831.583 442.901C831.583 442.901 801.048 479.456 793.103 485.822C785.161 492.19 773.224 489.319 768.989 479.926C764.909 470.879 817.196 428.566 817.196 428.566Z" fill="white"/>
<path d="M728.395 509.458C715.063 513.682 709.658 523.314 708.042 532.424H759.056C757.987 526.525 756.785 522.077 755.441 519.782C747.009 505.365 728.395 509.458 728.395 509.458Z" fill="#F6AF9A"/>
<path d="M728.84 503.107C713.332 506.102 705.427 516.272 704.903 532.423H762.91C762.822 531.811 762.733 531.218 762.644 530.642C758.332 502.859 728.84 503.107 728.84 503.107Z" fill="#384682"/>
<path d="M690.197 468.25C692.07 488.701 686.402 501.063 683.975 513.498C682.695 520.058 682.353 526.536 683.24 532.423H752.072C756.302 522.959 755.558 513.634 755.696 508.589C755.932 500.097 756.642 485.916 756.642 485.916C759.148 448.412 688.327 447.795 690.197 468.25Z" fill="#F6AF9A"/>
<path d="M685.665 502.377C685.665 502.377 679.002 518.271 681.462 532.422H753.285C757.193 519.565 756.902 503.107 756.902 503.107C747.748 504.53 685.665 502.377 685.665 502.377Z" fill="#384682"/>
<path d="M680.723 532.423H731.43C731.191 509.47 711.497 507.928 711.497 507.928C696.022 506.356 684.551 510.881 680.723 532.423Z" fill="#F6AF9A"/>
<path d="M678.108 532.37C678.105 532.388 678.105 532.406 678.102 532.423H736.855C736.531 515.989 725.657 505.37 707.474 503.131C707.474 503.131 681.462 501.223 678.108 532.37Z" fill="#384682"/>
<path d="M704.772 396.62C717.14 394.617 727.01 396.253 738.652 399.544C746.442 401.744 754.788 403.865 758.558 408.951C765.178 417.881 762.161 439.939 760.468 450.15C758.776 460.358 757.493 481.708 756.566 487.193C755.639 492.678 730.42 501.288 714.982 499.046C703.147 497.327 692.315 491.73 690.773 481.271C688.958 468.936 685.867 451.252 682.28 440.506C678.693 429.763 673.058 407.389 690.828 399.901C694.161 398.498 701.516 397.145 704.772 396.62Z" fill="#F6AF9A"/>
<path d="M733.955 385.247C733.955 385.247 733.554 396.392 736.116 401.499C738.675 406.603 729.912 409.778 724.216 409.731C718.521 409.684 709.774 406.606 708.751 399.986C707.732 393.364 711.928 395.869 711.136 377.872C710.517 363.797 735.55 371.379 733.955 385.247Z" fill="#F6AF9A"/>
<path d="M735.313 399.413C733.645 393.863 733.955 385.248 733.955 385.248C735.219 374.236 719.699 367.189 713.563 371.803C713.312 373.371 713.195 375.137 713.244 377.131C713.269 378.168 723.717 397.632 735.313 399.413Z" fill="#EA9A88"/>
<path d="M761.681 505.403C760.843 499.313 761.681 469.468 761.801 465.188C761.92 460.905 764.212 438.463 763.967 431.755C763.72 425.044 761.785 411.601 760.056 407.564C758.324 403.529 745.27 400.445 738.436 399.414L735.066 398.498C735.066 398.498 736.147 402.27 730.384 403.227C721.9 404.636 712.675 399.645 708.856 396.079C708.856 396.079 706.606 395.802 705.082 396.076C705.082 396.076 690.324 398.357 686.459 399.857C682.593 401.358 677.032 407.924 676.793 419.145C676.551 430.366 682.428 451.335 684.105 462.078C685.785 472.823 684.705 491.216 683.986 497.579C683.266 503.941 676.313 524.186 676.193 532.167C676.193 532.167 677.075 532.265 678.633 532.424H747.101C756.79 531.467 763.961 530.631 764.558 530.2C764.558 530.2 762.771 524.995 762.645 520.715C762.52 516.435 762.52 511.494 761.681 505.403Z" fill="#85B9F1"/>
<path d="M729.467 405.339C733.225 405.298 738.584 412.984 738.584 412.984C740.268 410.048 741.838 403.803 742.655 400.17C741.116 399.854 739.671 399.6 738.434 399.414L735.065 398.498C735.065 398.498 736.145 402.27 730.382 403.227C721.898 404.636 712.674 399.645 708.854 396.079C708.854 396.079 706.605 395.802 705.08 396.076C705.08 396.076 704.181 396.215 702.77 396.449L700.826 399.34L724.454 417.733C724.454 417.733 724.383 416.516 725.216 412.422C726.556 405.815 729.467 405.339 729.467 405.339Z" fill="#75AEEB"/>
<path d="M698.086 458.878C699.98 444.907 700.718 420.093 700.718 420.093C700.718 420.093 687.796 425.002 677.304 426.916C678.743 438.371 682.764 453.491 684.105 462.077C685.785 472.82 684.705 491.216 683.986 497.578C683.266 503.941 676.313 524.186 676.193 532.167C676.193 532.167 677.075 532.264 678.633 532.424H700.947C688.117 525.701 688.849 506.002 690.541 495.121C692.531 482.307 696.653 469.45 698.086 458.878Z" fill="#75AEEB"/>
<path d="M730 407.457C731.76 407.395 732.143 404.489 732.213 402.758C731.696 402.95 731.09 403.109 730.38 403.227C728.923 403.47 727.442 403.523 725.973 403.428C726.606 404.79 728.118 407.522 730 407.457Z" fill="#384682"/>
<path d="M728.533 405.793C728.533 405.793 737.77 446.572 738.584 455.552L744.323 466.088L746.737 452.252C746.737 452.252 737.143 419.247 730.807 405.382L728.533 405.793Z" fill="#384682"/>
<path d="M729.058 403.395C729.058 403.395 733.817 401.133 735.063 398.498C735.063 398.498 737.116 398.436 737.967 398.843C737.967 398.843 739.354 405.814 737.967 410.262C737.967 410.262 733.26 404.113 729.554 404.423C725.839 404.736 723.424 413.154 723.424 413.154C723.424 413.154 710.227 403.191 708.593 396.105L708.966 395.692C708.966 395.692 720.238 402.057 729.058 403.395Z" fill="#96C3F2"/>
<path d="M753.698 345.62C753.698 345.62 755.531 354.044 752.967 363.927L747.302 345.287L753.698 345.62Z" fill="#8C4949"/>
<path d="M730.384 329.433C730.384 329.433 748.757 330.475 751.726 346.242C754.695 362.009 752.837 390.531 742.165 393.653C732.426 396.503 717.398 386.774 711.072 377.008C704.415 366.732 702.053 353.633 705.97 343.726C709.401 335.054 715.939 328.682 730.384 329.433Z" fill="#F6AF9A"/>
<path d="M722.031 347.871C722.031 347.871 720.155 350.556 720.672 354.611C721.009 357.252 719.959 358.203 717.109 362.052C714.257 365.9 714.918 366.125 714.079 370.366C713.241 374.605 711.193 384.999 711.138 385.829C711.08 386.662 708.439 383.744 706.462 377.96C704.488 372.177 700.292 360.956 699.93 350.659C699.572 340.365 709.403 329.953 719.475 328.911C719.475 328.911 729.067 324.746 738.301 328.45C747.531 332.151 754.332 337.784 753.94 347.055L751.926 347.12C751.926 347.12 750.393 346.033 749.903 345.75C747.669 344.456 745.851 345.097 743.822 346.373C743.822 346.373 735.926 350.204 731.73 349.743C731.73 349.743 726.94 351.173 722.031 347.871Z" fill="#8C4949"/>
<path d="M713.815 338.481C713.815 338.481 712.625 346.09 720.98 350.287C721.411 348.763 722.03 347.871 722.03 347.871C722.03 347.871 714.786 343.535 713.815 338.481Z" fill="#7D4141"/>
<path d="M718.668 332.305C718.595 336.006 719.513 339.949 722.35 342.575C725.729 345.647 732.024 346.267 736.517 346.155C735.969 346.359 735.4 346.512 734.824 346.633C730.534 347.496 725.398 347.085 721.857 344.377C718.27 341.553 717.19 336.431 718.668 332.305Z" fill="#7D4141"/>
<path d="M723.319 330.337C725.795 329.54 728.421 329.262 731.029 329.274C736.302 329.321 741.74 330.934 745.609 334.496C747.543 336.262 749.015 338.457 749.86 340.82C749.101 339.804 748.323 338.832 747.466 337.94C744.957 335.284 741.74 333.303 738.227 332.133C733.456 330.532 728.351 330.178 723.319 330.337Z" fill="#7D4141"/>
<path d="M721.285 332.305C726.222 332.654 731.06 333.909 735.657 335.663C739.189 337.028 742.607 338.942 745.163 341.704C745.552 342.129 745.916 342.581 746.213 343.068C745.992 342.882 745.766 342.708 745.536 342.543C745.362 342.416 745.016 342.173 744.839 342.052C742.277 340.333 739.474 338.972 736.597 337.826C731.544 335.838 726.39 334.222 721.285 332.305Z" fill="#7D4141"/>
<path d="M724.485 336.703C727.717 339.642 731.904 341.163 736.029 342.569C737.428 343.042 738.854 343.464 740.296 344.005C739.528 344.087 738.762 344.096 737.991 344.072C734.141 343.892 730.248 342.705 727.246 340.304C726.077 339.323 724.966 338.147 724.485 336.703Z" fill="#7D4141"/>
<path d="M717.876 367.055C717.876 367.055 717.836 358.749 712.703 358.693C707.568 358.637 707.595 365.59 710.907 370.1C712.758 372.626 717.897 375.807 717.876 367.055Z" fill="#F6AF9A"/>
<path d="M712.226 364.294C713.236 364.35 714.032 364.884 714.589 365.428C714.445 364.474 714.038 363.552 713.105 362.979C712.863 362.832 712.792 362.525 712.945 362.291C713.098 362.058 713.414 361.99 713.658 362.138C716.991 364.179 715.253 369.167 715.176 369.377C715.085 369.637 714.791 369.776 714.522 369.684C714.515 369.684 714.512 369.681 714.506 369.681C714.246 369.587 714.108 369.309 714.2 369.052C714.206 369.031 714.503 368.181 714.613 367.094C714.607 367.085 714.595 367.076 714.589 367.064C714.58 367.049 713.634 365.369 712.168 365.289C711.883 365.274 711.666 365.038 711.681 364.763C711.697 364.489 711.942 364.279 712.226 364.294Z" fill="#E57E73"/>
<path d="M673.647 532.423H766.12C764.794 518.98 763.148 499.046 762.756 489.948C762.23 477.687 764.507 444.788 764.556 434.53C764.605 424.272 761.532 409.925 761.532 409.925C761.125 408.747 760.268 405.288 752.61 402.535C744.953 399.785 738.167 399.339 738.167 399.339C744.775 415.788 742.905 458.009 742.905 458.009C742.905 458.009 736.925 442.322 728.533 425.119C721.169 410.026 704.474 396.075 704.474 396.075C696.593 396.323 682.863 399.469 682.863 399.469C669.173 413.957 678.284 443.846 680.57 459.764C682.854 475.681 680.791 492.426 674.737 525.538C674.358 527.611 673.993 529.921 673.647 532.423Z" fill="white"/>
<path d="M743.022 454.455L742.906 458.903C748.464 421.978 745.382 402.469 744.871 400.357C740.907 399.521 738.168 399.341 738.168 399.341C743.613 412.893 743.301 443.942 743.022 454.455Z" fill="#ABD3FC"/>
<path d="M742.663 457.374C741.46 454.282 735.939 440.29 728.536 425.119C721.172 410.026 704.477 396.075 704.477 396.075C702.141 396.149 699.292 396.477 696.439 396.902C696.439 396.902 736.521 439.43 742.908 458.901L742.663 457.374Z" fill="#ABD3FC"/>
<path d="M740.97 532.423H742.194C743.409 507.565 744.266 482.706 742.907 458.01C743.635 482.774 742.237 507.692 740.97 532.423Z" fill="#ABD3FC"/>
<path d="M680.57 459.764C682.854 475.682 680.791 492.427 674.737 525.538C674.358 527.612 673.993 529.921 673.647 532.423H684.124L686.046 513.292C686.548 507.919 688.467 487.5 689.1 481.578C689.835 474.74 691.301 473.794 694.967 454.799C698.634 435.803 699.509 419.348 699.509 419.348L676.87 439.183C678.094 446.877 679.762 454.149 680.57 459.764Z" fill="#D4EBFF"/>
<path d="M736.518 398.539C736.518 398.539 741.408 417.198 742.905 458.01C742.905 458.01 745.317 433.588 744.708 417.904C744.096 402.222 743.643 400.11 743.643 400.11C743.643 400.11 738.531 398.134 736.518 398.539Z" fill="white"/>
<path d="M742.906 458.01C728.533 425.12 697.747 396.714 697.747 396.714C700.835 395.216 708.967 395.692 708.967 395.692C708.967 395.692 720.952 408.824 729.311 424.509C740.568 445.634 742.906 458.01 742.906 458.01Z" fill="white"/>
<path d="M683.793 400.115C683.793 400.115 700.421 401.403 697.375 421.267C694.33 441.128 680.989 474.768 676.591 485.024C672.193 495.276 659.097 491.93 658.277 480.791C657.453 469.655 665.787 428.95 668.242 419.188C670.693 409.429 675.208 399.929 683.793 400.115Z" fill="#F6AF9A"/>
<path d="M686.457 399.856C686.457 399.856 674.254 395.03 667.472 418.022C660.687 441.014 656.289 471.614 656.105 481.873C655.921 492.131 666.349 497.197 672.969 493.369C679.592 489.543 686.741 465.725 691.038 453.591C697.747 434.648 708.193 404.505 686.457 399.856Z" fill="white"/>
<path d="M658.141 479.8C658.141 479.8 658.027 512.43 659.533 532.424H673.903C674.965 523.368 676.299 513.449 677.058 508.005C678.799 495.526 680.382 485.587 680.568 477.641C680.813 467.259 658.878 465.079 658.141 479.8Z" fill="#F6AF9A"/>
<path d="M669.998 463.3C669.998 463.3 657.385 464.363 656.103 479.572C655.139 491.024 655.001 515.306 655.463 532.423H679.164C681.169 511.786 684.71 474.976 684.784 471.582C684.888 466.838 676.193 462.239 669.998 463.3Z" fill="white"/>
<path d="M780.452 490.044V523.132C780.452 527.855 776.468 531.698 771.574 531.698H653.378C648.481 531.698 644.499 527.855 644.499 523.132V304.844C644.499 300.121 648.481 296.278 653.378 296.278H771.574C776.468 296.278 780.452 300.121 780.452 304.844V445.853C780.884 446.899 781.312 447.938 781.735 448.975C781.872 448.842 781.955 448.662 781.955 448.461V304.844C781.955 299.321 777.297 294.828 771.574 294.828H653.378C647.651 294.828 642.996 299.321 642.996 304.844V523.132C642.996 528.655 647.651 533.148 653.378 533.148H771.574C777.297 533.148 781.955 528.655 781.955 523.132V490.224C781.459 490.2 780.957 490.141 780.452 490.044Z" fill="white"/>
<path d="M739.124 300.194H685.83C682.562 300.194 679.911 297.636 679.911 294.484V293.291H745.04V294.484C745.04 297.636 742.393 300.194 739.124 300.194Z" fill="#303C72"/>
<path d="M1067.98 345.778C1069.71 344.603 1071.62 343.702 1073.64 343.096C1081.96 340.592 1103.51 336.456 1119.84 353.907C1137.27 372.53 1112.04 425.334 1085.04 451.345C1085.04 451.345 1112.89 467.012 1114.45 485.998C1116 504.985 1084.53 526.051 1039.24 533.131L1029.28 372.008L1067.98 345.778Z" fill="#5A789F"/>
<path d="M1073.46 343.151C1071.22 358.7 1070.01 382.767 1066.64 409.011C1061.33 450.257 1048.05 510.301 1100.08 510.044C1086.84 520.332 1065.33 529.054 1039.24 533.133L1029.28 372.009L1067.99 345.777C1069.64 344.652 1071.46 343.763 1073.39 343.172L1073.46 343.151Z" fill="#5A789F"/>
<path d="M1106.22 357.72C1085.98 380.694 1066.29 404.212 1046.83 427.812C1041.31 434.547 1035.34 442.034 1029.79 448.757C1018.38 462.51 1006.56 476.499 994.588 489.799L994.35 489.622C994.87 488.887 995.396 488.157 995.92 487.428C998.552 483.791 1001.25 480.147 1003.94 476.57C1011.5 466.556 1019.36 456.573 1027.34 446.873C1035.32 437.258 1043.79 427.576 1051.92 418.074C1062.44 405.827 1073.25 393.493 1084.04 381.474C1088.79 376.184 1093.8 370.666 1098.6 365.447C1101.06 362.797 1103.51 360.148 1106 357.525L1106.22 357.72Z" fill="#5AA5D1"/>
<path d="M1096.18 486.707C1078.54 489.611 1060.33 489.371 1042.78 486.013C1040.94 485.656 1039.03 485.236 1037.23 484.775C1029.44 482.74 1021.94 479.485 1015.32 475.031C1014.42 474.425 1013.33 473.643 1012.48 472.975C1011.56 472.269 1010.65 471.51 1009.79 470.745L1009.97 470.512C1011.61 471.395 1013.24 472.284 1014.89 473.105C1016.48 473.903 1018.26 474.747 1019.9 475.465C1024.5 477.515 1029.28 479.228 1034.11 480.717C1038.94 482.214 1043.84 483.588 1048.82 484.583C1062.52 487.203 1076.62 487.83 1090.55 486.926C1092.41 486.802 1094.28 486.648 1096.13 486.421L1096.18 486.707Z" fill="#5AA5D1"/>
<mask id="mask1_1949_925" style="mask-type:luminance" maskUnits="userSpaceOnUse" x="904" y="288" width="152" height="252">
<path d="M904.783 288.598H1056V539.004H904.783V288.598Z" fill="white"/>
</mask>
<g mask="url(#mask1_1949_925)">
<path d="M1043.85 538.97H916.871C910.465 538.97 905.269 533.96 905.269 527.778V300.195C905.269 294.013 910.465 289 916.871 289H1043.85C1050.26 289 1055.45 294.013 1055.45 300.195V527.778C1055.45 533.96 1050.26 538.97 1043.85 538.97Z" fill="#303C72"/>
</g>
<path d="M1039.45 532.424H921.261C915.941 532.424 911.629 528.262 911.629 523.131V304.844C911.629 299.713 915.941 295.554 921.261 295.554H1039.45C1044.77 295.554 1049.09 299.713 1049.09 304.844V523.131C1049.09 528.262 1044.77 532.424 1039.45 532.424Z" fill="#D4EBFF"/>
<path d="M938.428 417.564C939.337 412.794 943.23 408.847 948.47 407.967C955.2 406.836 961.606 411.181 962.778 417.673C963.02 419.023 963.02 420.358 962.803 421.637C962.754 421.938 962.689 422.237 962.616 422.532C961.41 428.236 954.616 459.915 948.231 479.344C947.561 482.7 944.813 485.465 941.119 486.085C936.344 486.888 931.799 483.805 930.967 479.197C930.639 477.395 935.955 427.648 938.428 417.564Z" fill="#DE9681"/>
<path d="M950.019 419.341C950.019 419.341 955.253 414.688 962.8 417.805C963.02 419.11 963.011 420.401 962.803 421.639C962.754 421.94 962.69 422.238 962.616 422.534C961.576 427.455 956.376 451.717 950.867 470.759C950.368 468.42 948.838 466.084 948.079 465.502C946.888 464.589 943.788 461.877 942.267 457.113C941.177 453.707 943.252 440.956 945.63 434.251C948.008 427.543 950.019 419.341 950.019 419.341Z" fill="#EA9A88"/>
<path d="M953.895 407.456C953.895 407.456 949.206 406.52 942.837 409.234C940.93 410.047 939.106 413.228 937.866 415.694C933.132 425.132 929.526 453.801 929.526 453.801C929.526 453.801 941.867 464.904 954.797 468.466C954.797 468.466 964.426 427.97 964.233 419.487C964.04 411.007 957.629 408.328 953.895 407.456Z" fill="#FCF5F1"/>
<path d="M960.815 441.28L945.222 417.393C945.222 417.393 948.521 427.135 946.841 433.662C945.16 440.193 941.163 449.125 940.539 454.454C940.27 456.761 940.395 459.543 940.625 461.956C944.793 464.535 949.751 467.075 954.798 468.466C954.798 468.466 958.116 454.519 960.815 441.28Z" fill="#F0E2DA"/>
<path d="M943.362 468.264C938.618 466.545 933.323 468.861 931.542 473.439C931.19 474.34 931.003 475.259 930.964 476.168C930.961 476.168 927.548 520.483 926.63 532.422H937.4C938.514 527.289 940.611 517.981 942.857 509.903C946.692 496.112 948.008 483.715 948.614 478.006C948.785 477.252 948.853 476.496 948.819 475.752C948.663 472.308 946.915 469.552 943.362 468.264Z" fill="#DE9681"/>
<path d="M965.592 515.008C955.471 516.065 947.606 523.314 945.595 532.423H990.533C988.121 521.429 977.419 513.773 965.592 515.008Z" fill="#F6AF9A"/>
<path d="M944.269 532.424H991.487C988.047 512.542 972.508 512.524 970.553 512.551C970.553 512.551 948.963 511.225 944.269 532.424Z" fill="#8C4949"/>
<path d="M985.993 479.678C962.17 479.613 957.23 490.332 957.23 490.332C956.832 493.292 956.768 496.582 955.354 499.382C948.816 512.314 946.264 527.065 945.505 532.423H1025.62C1025.14 524.463 1022.13 516.928 1018.11 507.316C1015.58 501.27 1009.5 493.324 1009.41 487.089C1009.41 487.089 1006.98 479.734 985.993 479.678Z" fill="#F6AF9A"/>
<path d="M956.952 492.714C956.952 492.714 955.409 494.935 951.434 505.314C948.538 512.867 945.719 525.89 944.4 532.424H1026.64C1025.61 523.456 1022.85 513.62 1019.71 508.067C1015.96 501.427 1010.61 490.51 1010.61 490.51C1000.02 493.112 956.952 492.714 956.952 492.714Z" fill="#8C4949"/>
<path d="M1019.71 508.067C1015.96 501.427 1010.61 490.51 1010.61 490.51C1003.45 492.268 981.474 492.658 967.968 492.723C961.837 496.692 960.071 501.235 960.071 501.235C960.071 501.235 976.528 506.635 997.318 506.974C1008.17 506.974 1012.45 506.974 1013.87 507.725C1014.87 508.25 1016.44 523.415 1017.29 532.424H1026.64C1025.61 523.456 1022.85 513.62 1019.71 508.067Z" fill="#824444"/>
<path d="M980.221 532.423H1025.02C1022.87 523.273 1014.8 516.11 1004.59 515.262C993.017 514.302 982.715 521.796 980.221 532.423Z" fill="#F6AF9A"/>
<path d="M978.226 532.424H1026.29C1024.24 521.852 1018.55 512.078 1002.41 512.566C1002.41 512.566 982.278 512.554 978.226 532.424Z" fill="#8C4949"/>
<path d="M1015.42 515.208C1016.12 520.454 1016.82 527.398 1017.29 532.425H1026.3C1024.93 525.413 1021.97 518.755 1015.42 515.208Z" fill="#824444"/>
<path d="M955.606 472.291C955.606 472.291 949.445 468.785 948.353 463.132C947.26 457.478 950.394 438.681 951.19 429.888C951.989 421.094 944.689 413.509 943.71 409.143C943.71 409.143 954.021 404.465 976.629 402.323C976.629 402.323 989.374 402.678 1001.62 404.828C1011.61 406.58 1016.81 411.858 1018.77 414.88C1020.72 417.901 1019.45 425.268 1016.73 434.265C1014.01 443.262 1011.02 451.057 1010.72 460.586C1010.57 465.188 1010.36 481.613 1010.65 492.368C1010.65 492.368 1011.84 499.126 987.641 500.571C965.299 501.906 957.005 492.471 957.005 492.471C956.163 483.625 955.606 472.291 955.606 472.291Z" fill="#DE9681"/>
<path d="M1014.25 442.24C1012.43 448.174 1010.92 453.961 1010.72 460.586C1010.62 463.794 1010.48 472.744 1010.51 481.516C1005.2 467.687 998.095 426.399 998.095 426.399L1014.25 442.24Z" fill="#E57E73"/>
<path d="M965.367 405.569L966.695 382.778C966.851 378.261 970.053 374.194 974.818 373.004C980.618 371.553 986.537 374.915 988.04 380.512C988.245 381.271 988.355 382.036 988.382 382.789L990.457 407.258C990.476 407.43 990.522 408.206 990.522 408.206C990.88 413.963 986.968 418.94 980.96 420.441C974.138 422.145 967.402 418.506 965.636 411.922C965.085 409.872 965.22 407.752 965.367 405.569Z" fill="#DE9681"/>
<path d="M966.696 382.778C966.852 378.261 970.054 374.194 974.819 373.004C980.619 371.553 986.538 374.915 988.041 380.512C988.246 381.271 988.356 382.036 988.383 382.789L988.49 384.063C983.649 394.572 974.834 402.393 965.444 404.287L966.696 382.778Z" fill="#D38475"/>
<path d="M957.524 405.152C957.524 405.152 959.097 412.014 970.33 413.783C981.562 415.552 1004.35 405.226 1004.35 405.226C1004.35 405.226 1009.24 405.161 1012.6 407.185C1012.6 407.185 1018.98 411.03 1020.05 415.75C1021.12 420.473 1019.69 428.832 1018.82 431.884C1017.96 434.932 1012.6 461.929 1012.6 468.693C1012.6 473.416 1015.44 486.853 1017.15 494.533C1017.83 497.616 1015.69 500.614 1012.46 501.09C1001.75 502.664 978.211 505.187 955.223 501.379C951.458 500.756 948.802 497.475 949.05 493.8C949.625 485.311 950.577 471.18 950.555 470.59C950.555 470.59 945.805 467.786 944.783 459.817C943.761 451.851 950.029 432.079 949.356 428.685C948.682 425.291 942.72 412.463 942.84 409.234C942.84 409.234 949.31 406.245 957.524 405.152Z" fill="#FCF5F1"/>
<path d="M985.546 503.334C996.9 503.095 1006.61 501.949 1012.47 501.089C1015.69 500.614 1017.83 497.613 1017.15 494.532C1015.44 486.852 1012.6 473.416 1012.6 468.693C1012.6 461.929 1017.96 434.932 1018.82 431.883C1019.02 431.186 1019.25 430.214 1019.47 429.074C1009.87 423.825 1000.9 422.644 996.551 428.241C996.551 428.241 998.773 453.581 998.74 458.452C998.706 463.32 987.728 470.808 971.213 469.162C971.213 469.162 986.507 474.574 1000.47 467.686L1002.14 472.358H1008.42C1008.42 472.358 1009.24 482.245 1010.46 489.032C1011.68 495.785 998.877 500.555 985.546 503.334Z" fill="#F0E2DA"/>
<path d="M996.642 422.656C996.498 421.489 996.52 420.287 996.728 419.07C997.912 412.138 1004.7 407.444 1011.88 408.584C1017.85 409.532 1022.21 414.205 1022.85 419.729L1037.66 480.121C1037.98 481.302 1038.05 482.564 1037.83 483.846C1036.99 488.766 1032.18 492.098 1027.08 491.289C1022.78 490.604 1019.65 487.198 1019.27 483.199C1019.27 483.199 1000.57 440.623 996.982 424.375C996.829 423.814 996.715 423.238 996.642 422.656Z" fill="#DE9681"/>
<path d="M1007.4 407.184C1007.4 407.184 993.946 408.935 995.935 425.154C997.921 441.373 1004.65 470.589 1004.65 470.589C1004.65 470.589 1028.66 470.737 1036.77 459.374C1036.77 459.374 1025.6 421.637 1022.54 415.112C1019.49 408.584 1012.16 405.447 1007.4 407.184Z" fill="#FCF5F1"/>
<path d="M1026.44 474.282C1022.68 475.139 1019.99 478.078 1019.36 481.54C1019.23 482.29 1019.19 483.064 1019.26 483.847C1019.1 489.695 1019.31 502.027 1021.33 516.453C1022.07 521.755 1022.68 527.535 1023.14 532.424H1035.19C1036.18 514.831 1037.91 483.838 1037.91 483.838C1038 482.91 1037.93 481.956 1037.7 481.005C1036.51 476.149 1031.47 473.139 1026.44 474.282Z" fill="#DE9681"/>
<path d="M977.194 335.284C977.194 335.284 998.416 336.046 997.951 360.267C997.501 383.533 977.249 402.567 959.899 397.682C954.384 395.788 950.751 383.672 950.558 365.459C950.362 347.247 958.467 334.646 977.194 335.284Z" fill="#DE9681"/>
<path d="M1005.36 392.321C1002.77 384.057 1004.88 368.295 1003.83 361.186C1003.8 361 1003.76 360.828 1003.71 360.669C1003.05 351.173 999.808 343.54 992.309 337.78C984.242 331.58 971.093 334.463 971.093 334.463C965.119 334.032 952.718 339.077 949.281 347.005C945.844 354.933 946.89 366.322 948.237 369.35C949.581 372.378 947.787 375.26 947.04 377.278C946.294 379.295 947.787 381.313 949.131 383.909C950.477 386.502 948.237 389.53 948.237 389.53C950.477 388.378 951.521 385.206 950.627 382.468C949.731 379.726 949.281 378.719 949.865 376.64C950.447 374.557 950.924 373.24 951.224 370.071C951.521 366.898 950.774 360.557 952.568 356.232C954.361 351.905 961.382 347.005 961.382 347.005C963.476 353.205 966.463 358.105 970.347 359.402C974.234 360.698 976.624 362.574 977.371 364.447C978.117 366.322 976.921 369.781 977.371 373.961C977.817 378.143 979.611 378.285 980.955 380.161C982.301 382.033 978.564 385.35 977.668 386.792C976.771 388.233 977.371 390.682 978.414 392.557C979.461 394.43 978.714 396.592 978.714 396.592C980.508 395.872 980.208 392.413 979.611 389.53C979.014 386.647 981.255 385.926 982.598 383.764C983.945 381.602 982.151 378.574 981.851 376.988C981.551 375.402 983.975 370.006 984.872 370.437C985.389 370.688 986.005 373.662 986.485 377.192C986.246 378.657 986.21 380.131 986.436 381.584C986.436 381.584 986.822 382.459 987.164 383.856C987.189 384.255 987.213 384.644 987.232 385.017C987.272 385.844 987.446 386.804 987.673 387.737C987.7 389.589 987.406 391.66 986.436 393.668C983.651 399.434 980.159 397.505 980.933 406.092C981.707 414.681 979.455 421.59 976.771 425.982C974.087 430.377 974.038 443.199 979.541 450.436C979.541 450.436 980.453 444.759 984.542 443.046C988.63 441.333 995.018 432.92 994.596 427.58C994.17 422.24 997.883 406.883 1007.34 405.315C1007.34 405.315 1007.95 400.586 1005.36 392.321Z" fill="#8C4949"/>
<path d="M961.382 347.005C961.746 341.55 965.51 336.032 971.093 334.464C966.171 337.149 963.019 341.88 961.382 347.005Z" fill="#7A3D3D"/>
<path d="M965.122 345.853C972.186 348.526 970.946 351.857 974.958 356.598C976.314 358.406 978.53 358.852 980.476 359.764C982.955 361.25 984.63 364.074 984.544 366.897C984.265 364.528 982.845 362.254 980.874 360.857C978.542 359.416 976.17 359.581 974.282 357.165C970.221 352.354 971.843 349.376 965.122 345.853Z" fill="#7A3D3D"/>
<path d="M969.602 342.97C973.488 343.611 977.332 345.481 979.444 348.804C983.254 353.553 989.476 358.223 988.726 364.88C988.57 358.329 982.474 354.182 978.765 349.291C976.818 346.01 973.24 344.104 969.602 342.97Z" fill="#7A3D3D"/>
<path d="M969.602 338.502C976.182 337.737 983.392 339.202 988.06 344.014C990.352 346.188 992.332 348.752 993.486 351.667C993.997 353.017 994.362 354.461 994.362 355.906C994.334 356.724 994.355 357.725 994.447 358.54C994.876 363.057 995.981 367.753 994.701 372.234C995.791 366.737 993.517 361.225 993.551 355.731C993.125 350.388 989.257 345.907 985.149 342.581C980.794 339.305 975.003 338.393 969.602 338.502Z" fill="#7A3D3D"/>
<path d="M1000.38 363.62C1001.63 368.68 1001.99 374.138 1000.36 379.16C999.67 381.665 998.305 383.992 997.622 386.473C997.047 389.049 998.663 391.521 998.384 394.129C998.335 397.7 996.775 401.413 993.64 403.487C992.93 403.953 992.245 404.506 991.666 405.117C988.704 408.293 987.476 412.661 987.121 416.849C987.024 418.592 987.069 420.361 986.681 422.075C985.655 429.022 978.797 434.253 979.54 441.501C978.396 434.309 985.089 428.827 985.995 421.954C986.341 420.255 986.255 418.518 986.341 416.799C986.662 412.215 988.043 407.38 991.504 404.054C991.982 403.596 992.572 403.15 993.126 402.778C996.799 400.362 998.032 395.665 997.387 391.583C997.068 389.843 996.367 388.089 996.894 386.314C997.644 383.765 999.03 381.517 999.808 378.988C1001.55 374.062 1001.33 368.686 1000.38 363.62Z" fill="#7A3D3D"/>
<path d="M991.046 382.673C993.782 391.245 990.388 392.471 987.074 399.385C986.407 400.844 986.471 402.303 986.336 403.881C985.587 406.811 984.359 407.546 984.543 411.102C983.98 408.302 984.76 406.769 985.58 404.235C985.785 402.85 985.498 401.385 985.96 400.017C986.018 399.751 986.171 399.35 986.26 399.09C989.571 391.785 992.687 391.986 991.046 382.673Z" fill="#7A3D3D"/>
<path d="M1001.27 386.781C1001.1 389.35 1000.79 391.961 1001.25 394.484C1001.4 395.37 1001.97 395.984 1002.29 396.788C1003 398.474 1003.23 400.335 1002.9 402.119C1002.5 403.814 1001.64 405.406 1001.65 407.185C1001.26 405.439 1001.93 403.729 1002.2 402.022C1002.53 394.995 998.372 396.773 1001.27 386.781Z" fill="#7A3D3D"/>
<path d="M995.131 409.045C993.206 411.509 991.302 414.427 991.437 417.605C991.957 422.355 992.171 428.285 989.53 432.491C991.354 427.937 990.984 422.842 990.611 418.063C990.32 414.545 992.585 411.34 995.131 409.045Z" fill="#7A3D3D"/>
<path d="M989.754 366.237C989.754 366.237 993.191 366.5 993.264 371.722C993.332 376.741 990.207 382.521 986.433 381.584C985.231 381.212 984.187 376.823 984.016 372.898C983.844 368.975 985.714 366.226 989.754 366.237Z" fill="#DE9681"/>
<path d="M987.047 377.843C985.526 371.056 989.132 369.13 989.285 369.05C989.471 368.953 989.701 369.024 989.802 369.201C989.9 369.381 989.829 369.603 989.646 369.7C989.542 369.756 987.626 370.811 987.451 374.219C988.513 373.017 990.206 372.804 990.298 372.793C990.506 372.769 990.695 372.914 990.723 373.115C990.748 373.318 990.598 373.501 990.389 373.525C990.292 373.537 988.018 373.832 987.482 375.708C987.534 376.31 987.632 376.966 987.794 377.687C987.834 377.867 987.73 378.047 987.552 378.109C987.537 378.115 987.519 378.121 987.5 378.124C987.295 378.168 987.09 378.041 987.047 377.843Z" fill="#BA6D5B"/>
<path d="M1039.45 295.554H921.261C915.941 295.554 911.629 299.713 911.629 304.844V316.263H1049.09V304.844C1049.09 299.713 1044.77 295.554 1039.45 295.554Z" fill="#8CCBFF"/>
<path d="M1039.96 305.449H1026.74C1025.93 305.449 1025.28 304.817 1025.28 304.034V303.81C1025.28 303.03 1025.93 302.398 1026.74 302.398H1039.96C1040.77 302.398 1041.43 303.03 1041.43 303.81V304.034C1041.43 304.817 1040.77 305.449 1039.96 305.449Z" fill="white"/>
<path d="M1039.97 312.057H1031.59C1030.78 312.057 1030.13 311.422 1030.13 310.642V310.418C1030.13 309.635 1030.78 309.003 1031.59 309.003H1039.97C1040.78 309.003 1041.43 309.638 1041.43 310.418V310.642C1041.43 311.422 1040.78 312.057 1039.97 312.057Z" fill="white"/>
<path d="M1039.45 533.148H921.261C915.535 533.148 910.877 528.655 910.877 523.132V304.844C910.877 299.321 915.535 294.828 921.261 294.828H1039.45C1045.18 294.828 1049.84 299.321 1049.84 304.844V523.132C1049.84 528.655 1045.18 533.148 1039.45 533.148ZM921.261 296.278C916.365 296.278 912.383 300.121 912.383 304.844V523.132C912.383 527.855 916.365 531.698 921.261 531.698H1039.45C1044.35 531.698 1048.33 527.855 1048.33 523.132V304.844C1048.33 300.121 1044.35 296.278 1039.45 296.278H921.261Z" fill="white"/>
<path d="M1007.01 300.194H953.709C950.443 300.194 947.793 297.636 947.793 294.484V293.291H1012.92V294.484C1012.92 297.636 1010.27 300.194 1007.01 300.194Z" fill="#303C72"/>
<path d="M922.449 328.512H803.493C799.671 328.512 796.57 331.504 796.57 335.193V368.488C796.57 372.18 799.671 375.169 803.493 375.169H910.332L929.372 397.213V335.193C929.372 331.504 926.271 328.512 922.449 328.512Z" fill="white"/>
<path d="M874.659 343.661H915.713C916.879 343.661 917.825 342.749 917.825 341.623V339.963C917.825 338.838 916.879 337.925 915.713 337.925H874.659C873.49 337.925 872.544 338.838 872.544 339.963V341.623C872.544 342.749 873.49 343.661 874.659 343.661Z" fill="#D4E7FF"/>
<path d="M808.794 343.661H861.742C862.911 343.661 863.857 342.749 863.857 341.623V339.963C863.857 338.838 862.911 337.925 861.742 337.925H808.794C807.628 337.925 806.683 338.838 806.683 339.963V341.623C806.683 342.749 807.628 343.661 808.794 343.661Z" fill="#D4E7FF"/>
<path d="M890.686 354.875H915.715C916.881 354.875 917.826 353.962 917.826 352.837V351.18C917.826 350.051 916.881 349.139 915.715 349.139H890.686C889.52 349.139 888.571 350.051 888.571 351.18V352.837C888.571 353.962 889.52 354.875 890.686 354.875Z" fill="#D4E7FF"/>
<path d="M866.627 354.875H878.432C879.601 354.875 880.546 353.962 880.546 352.837V351.18C880.546 350.051 879.601 349.139 878.432 349.139H866.627C865.461 349.139 864.516 350.051 864.516 351.18V352.837C864.516 353.962 865.461 354.875 866.627 354.875Z" fill="#D4E7FF"/>
<path d="M808.794 354.875H854.853C856.022 354.875 856.968 353.962 856.968 352.837V351.18C856.968 350.051 856.022 349.139 854.853 349.139H808.794C807.628 349.139 806.683 350.051 806.683 351.18V352.837C806.683 353.962 807.628 354.875 808.794 354.875Z" fill="#D4E7FF"/>
<path d="M901.548 366.089H915.715C916.881 366.089 917.827 365.176 917.827 364.048V362.391C917.827 361.263 916.881 360.35 915.715 360.35H901.548C900.382 360.35 899.437 361.263 899.437 362.391V364.048C899.437 365.176 900.382 366.089 901.548 366.089Z" fill="#D4E7FF"/>
<path d="M808.794 366.089H890.368C891.534 366.089 892.48 365.177 892.48 364.048V362.391C892.48 361.263 891.534 360.35 890.368 360.35H808.794C807.628 360.35 806.683 361.263 806.683 362.391V364.048C806.683 365.177 807.628 366.089 808.794 366.089Z" fill="#D4E7FF"/>
<path d="M889.978 376.137H803.495C799.125 376.137 795.568 372.705 795.568 368.487V335.192C795.568 330.974 799.125 327.545 803.495 327.545H900.531C901.085 327.545 901.531 327.976 901.531 328.511C901.531 329.045 901.085 329.48 900.531 329.48H803.495C800.233 329.48 797.576 332.041 797.576 335.192V368.487C797.576 371.638 800.233 374.202 803.495 374.202H889.978C890.532 374.202 890.982 374.633 890.982 375.168C890.982 375.703 890.532 376.137 889.978 376.137Z" fill="#8CCBFF"/>
<path d="M889.758 272.12H770.806C766.983 272.12 763.883 275.112 763.883 278.801V340.821L782.923 318.777H889.758C893.584 318.777 896.684 315.785 896.684 312.096V278.801C896.684 275.112 893.584 272.12 889.758 272.12Z" fill="white"/>
<path d="M843.206 287.364H777.823C776.654 287.364 775.708 286.451 775.708 285.326V283.666C775.708 282.541 776.654 281.628 777.823 281.628H843.206C844.372 281.628 845.318 282.541 845.318 283.666V285.326C845.318 286.451 844.372 287.364 843.206 287.364Z" fill="#D4E7FF"/>
<path d="M884.741 287.364H856.122C854.955 287.364 854.01 286.451 854.01 285.326V283.666C854.01 282.541 854.955 281.628 856.122 281.628H884.741C885.91 281.628 886.856 282.541 886.856 283.666V285.326C886.856 286.451 885.91 287.364 884.741 287.364Z" fill="#D4E7FF"/>
<path d="M802.04 298.575H777.823C776.657 298.575 775.708 297.662 775.708 296.537V294.877C775.708 293.752 776.657 292.839 777.823 292.839H802.04C803.206 292.839 804.152 293.752 804.152 294.877V296.537C804.152 297.662 803.206 298.575 802.04 298.575Z" fill="#D4E7FF"/>
<path d="M865.196 298.575H815.101C813.935 298.575 812.989 297.662 812.989 296.537V294.877C812.989 293.752 813.935 292.839 815.101 292.839H865.196C866.363 292.839 867.308 293.752 867.308 294.877V296.537C867.308 297.662 866.363 298.575 865.196 298.575Z" fill="#D4E7FF"/>
<path d="M884.74 298.575H876.972C875.803 298.575 874.857 297.662 874.857 296.537V294.877C874.857 293.752 875.803 292.839 876.972 292.839H884.74C885.909 292.839 886.854 293.752 886.854 294.877V296.537C886.854 297.662 885.909 298.575 884.74 298.575Z" fill="#D4E7FF"/>
<path d="M830.027 309.791H777.823C776.657 309.791 775.708 308.875 775.708 307.75V306.093C775.708 304.964 776.657 304.052 777.823 304.052H830.027C831.193 304.052 832.139 304.964 832.139 306.093V307.75C832.139 308.875 831.193 309.791 830.027 309.791Z" fill="#D4E7FF"/>
<path d="M884.741 309.791H841.211C840.041 309.791 839.096 308.875 839.096 307.75V306.093C839.096 304.964 840.041 304.052 841.211 304.052H884.741C885.91 304.052 886.856 304.964 886.856 306.093V307.75C886.856 308.875 885.91 309.791 884.741 309.791Z" fill="#D4E7FF"/>
<path d="M889.758 319.742H796.573C796.019 319.742 795.569 319.311 795.569 318.776C795.569 318.241 796.019 317.807 796.573 317.807H889.758C893.024 317.807 895.68 315.246 895.68 312.095V278.8C895.68 275.648 893.024 273.085 889.758 273.085H770.806C767.543 273.085 764.887 275.648 764.887 278.8V284.495C764.887 285.03 764.437 285.464 763.883 285.464C763.329 285.464 762.879 285.03 762.879 284.495V278.8C762.879 274.582 766.435 271.15 770.806 271.15H889.758C894.131 271.15 897.688 274.582 897.688 278.8V312.095C897.688 316.313 894.131 319.742 889.758 319.742Z" fill="#8CCBFF"/>
</svg>
