<svg width="1716" height="838" viewBox="0 0 1716 838" fill="none" xmlns="http://www.w3.org/2000/svg">
<rect width="1715.89" height="838" fill="white"/>
<path d="M668.824 624.492H664.605L672.286 602.674H677.166L684.857 624.492H680.639L674.811 607.148H674.641L668.824 624.492ZM668.962 615.937H680.468V619.112H668.962V615.937ZM694.179 630.969C692.794 630.969 691.604 630.781 690.61 630.404C689.616 630.035 688.817 629.538 688.213 628.913C687.609 628.288 687.19 627.595 686.956 626.835L690.429 625.994C690.585 626.313 690.813 626.629 691.111 626.942C691.409 627.262 691.81 627.524 692.315 627.73C692.826 627.943 693.469 628.05 694.243 628.05C695.337 628.05 696.242 627.784 696.96 627.251C697.677 626.725 698.036 625.859 698.036 624.652V621.551H697.844C697.645 621.949 697.354 622.357 696.97 622.777C696.594 623.196 696.093 623.547 695.468 623.831C694.85 624.115 694.073 624.257 693.135 624.257C691.878 624.257 690.738 623.963 689.715 623.373C688.7 622.777 687.89 621.889 687.286 620.71C686.69 619.524 686.391 618.039 686.391 616.257C686.391 614.46 686.69 612.943 687.286 611.708C687.89 610.465 688.703 609.524 689.726 608.884C690.749 608.238 691.889 607.915 693.146 607.915C694.104 607.915 694.893 608.078 695.511 608.405C696.136 608.725 696.633 609.112 697.002 609.566C697.372 610.014 697.652 610.436 697.844 610.834H698.057V608.128H701.86V624.758C701.86 626.157 701.526 627.315 700.859 628.231C700.191 629.147 699.278 629.833 698.121 630.287C696.963 630.742 695.649 630.969 694.179 630.969ZM694.211 621.232C695.028 621.232 695.724 621.033 696.299 620.635C696.874 620.237 697.311 619.666 697.609 618.92C697.908 618.174 698.057 617.279 698.057 616.235C698.057 615.205 697.908 614.303 697.609 613.529C697.318 612.755 696.885 612.155 696.31 611.729C695.742 611.296 695.042 611.079 694.211 611.079C693.352 611.079 692.634 611.303 692.059 611.75C691.484 612.198 691.051 612.812 690.759 613.593C690.468 614.367 690.323 615.248 690.323 616.235C690.323 617.237 690.468 618.114 690.759 618.867C691.058 619.612 691.494 620.195 692.07 620.614C692.652 621.026 693.366 621.232 694.211 621.232ZM716.242 617.61V608.128H720.099V624.492H716.359V621.583H716.189C715.82 622.5 715.212 623.249 714.367 623.831C713.529 624.414 712.496 624.705 711.267 624.705C710.195 624.705 709.247 624.467 708.423 623.991C707.606 623.508 706.967 622.808 706.505 621.892C706.043 620.969 705.813 619.854 705.813 618.547V608.128H709.669V617.951C709.669 618.987 709.953 619.811 710.521 620.422C711.09 621.033 711.835 621.338 712.759 621.338C713.327 621.338 713.877 621.2 714.41 620.923C714.943 620.646 715.379 620.234 715.72 619.687C716.068 619.133 716.242 618.441 716.242 617.61ZM728.773 624.822C727.736 624.822 726.802 624.637 725.972 624.268C725.148 623.892 724.494 623.338 724.011 622.606C723.535 621.875 723.297 620.973 723.297 619.9C723.297 618.977 723.468 618.213 723.809 617.61C724.15 617.006 724.615 616.523 725.204 616.161C725.794 615.799 726.458 615.525 727.197 615.34C727.942 615.149 728.713 615.01 729.508 614.925C730.467 614.826 731.245 614.737 731.842 614.659C732.438 614.573 732.871 614.446 733.141 614.275C733.418 614.098 733.557 613.824 733.557 613.455V613.391C733.557 612.588 733.319 611.967 732.843 611.526C732.367 611.086 731.682 610.866 730.787 610.866C729.842 610.866 729.093 611.072 728.539 611.484C727.992 611.896 727.623 612.382 727.431 612.943L723.83 612.432C724.114 611.438 724.583 610.607 725.236 609.939C725.89 609.264 726.689 608.76 727.633 608.426C728.578 608.085 729.622 607.915 730.766 607.915C731.554 607.915 732.339 608.007 733.12 608.192C733.901 608.377 734.615 608.682 735.261 609.108C735.908 609.527 736.426 610.099 736.817 610.823C737.214 611.548 737.413 612.453 737.413 613.54V624.492H733.706V622.244H733.578C733.344 622.698 733.013 623.125 732.587 623.522C732.168 623.913 731.639 624.229 731 624.47C730.368 624.705 729.626 624.822 728.773 624.822ZM729.775 621.988C730.549 621.988 731.22 621.835 731.788 621.53C732.356 621.218 732.793 620.806 733.099 620.294C733.411 619.783 733.567 619.225 733.567 618.622V616.693C733.447 616.793 733.241 616.885 732.949 616.97C732.665 617.056 732.346 617.13 731.991 617.194C731.636 617.258 731.284 617.315 730.936 617.365C730.588 617.414 730.286 617.457 730.03 617.492C729.455 617.571 728.94 617.698 728.486 617.876C728.031 618.053 727.672 618.302 727.41 618.622C727.147 618.934 727.016 619.339 727.016 619.836C727.016 620.546 727.275 621.083 727.793 621.445C728.312 621.807 728.972 621.988 729.775 621.988ZM741.291 624.492V608.128H745.03V610.855H745.201C745.499 609.911 746.011 609.183 746.735 608.671C747.467 608.153 748.301 607.894 749.239 607.894C749.452 607.894 749.69 607.904 749.952 607.926C750.222 607.94 750.446 607.965 750.623 608V611.548C750.46 611.491 750.201 611.441 749.846 611.399C749.498 611.349 749.16 611.324 748.834 611.324C748.131 611.324 747.498 611.477 746.937 611.782C746.383 612.08 745.947 612.496 745.627 613.029C745.307 613.561 745.148 614.176 745.148 614.872V624.492H741.291ZM758.584 624.779C757.299 624.779 756.148 624.449 755.133 623.789C754.117 623.128 753.314 622.169 752.725 620.912C752.135 619.655 751.841 618.128 751.841 616.331C751.841 614.513 752.139 612.979 752.736 611.729C753.339 610.472 754.152 609.524 755.175 608.884C756.198 608.238 757.338 607.915 758.595 607.915C759.554 607.915 760.342 608.078 760.96 608.405C761.578 608.725 762.068 609.112 762.43 609.566C762.792 610.014 763.073 610.436 763.272 610.834H763.432V602.674H767.299V624.492H763.506V621.914H763.272C763.073 622.311 762.785 622.734 762.409 623.181C762.032 623.622 761.535 623.998 760.917 624.311C760.299 624.623 759.522 624.779 758.584 624.779ZM759.66 621.615C760.477 621.615 761.173 621.395 761.748 620.955C762.324 620.507 762.76 619.886 763.059 619.09C763.357 618.295 763.506 617.368 763.506 616.31C763.506 615.252 763.357 614.332 763.059 613.551C762.767 612.769 762.334 612.162 761.759 611.729C761.191 611.296 760.491 611.079 759.66 611.079C758.801 611.079 758.084 611.303 757.508 611.75C756.933 612.198 756.5 612.816 756.209 613.604C755.917 614.392 755.772 615.294 755.772 616.31C755.772 617.333 755.917 618.245 756.209 619.048C756.507 619.843 756.944 620.472 757.519 620.933C758.101 621.388 758.815 621.615 759.66 621.615ZM776.117 624.822C775.08 624.822 774.146 624.637 773.315 624.268C772.491 623.892 771.838 623.338 771.355 622.606C770.879 621.875 770.641 620.973 770.641 619.9C770.641 618.977 770.812 618.213 771.153 617.61C771.494 617.006 771.959 616.523 772.548 616.161C773.138 615.799 773.802 615.525 774.54 615.34C775.286 615.149 776.057 615.01 776.852 614.925C777.811 614.826 778.589 614.737 779.185 614.659C779.782 614.573 780.215 614.446 780.485 614.275C780.762 614.098 780.9 613.824 780.9 613.455V613.391C780.9 612.588 780.663 611.967 780.187 611.526C779.711 611.086 779.025 610.866 778.131 610.866C777.186 610.866 776.437 611.072 775.883 611.484C775.336 611.896 774.967 612.382 774.775 612.943L771.174 612.432C771.458 611.438 771.927 610.607 772.58 609.939C773.234 609.264 774.033 608.76 774.977 608.426C775.922 608.085 776.966 607.915 778.109 607.915C778.898 607.915 779.682 608.007 780.464 608.192C781.245 608.377 781.959 608.682 782.605 609.108C783.251 609.527 783.77 610.099 784.16 610.823C784.558 611.548 784.757 612.453 784.757 613.54V624.492H781.05V622.244H780.922C780.687 622.698 780.357 623.125 779.931 623.522C779.512 623.913 778.983 624.229 778.344 624.47C777.712 624.705 776.969 624.822 776.117 624.822ZM777.119 621.988C777.893 621.988 778.564 621.835 779.132 621.53C779.7 621.218 780.137 620.806 780.442 620.294C780.755 619.783 780.911 619.225 780.911 618.622V616.693C780.79 616.793 780.584 616.885 780.293 616.97C780.009 617.056 779.69 617.13 779.334 617.194C778.979 617.258 778.628 617.315 778.28 617.365C777.932 617.414 777.63 617.457 777.374 617.492C776.799 617.571 776.284 617.698 775.829 617.876C775.375 618.053 775.016 618.302 774.753 618.622C774.491 618.934 774.359 619.339 774.359 619.836C774.359 620.546 774.619 621.083 775.137 621.445C775.655 621.807 776.316 621.988 777.119 621.988ZM792.491 614.904V624.492H788.635V608.128H792.321V610.909H792.513C792.889 609.992 793.489 609.264 794.313 608.725C795.144 608.185 796.17 607.915 797.392 607.915C798.521 607.915 799.505 608.156 800.343 608.639C801.188 609.122 801.842 609.822 802.303 610.738C802.772 611.654 803.003 612.766 802.996 614.073V624.492H799.139V614.669C799.139 613.576 798.855 612.72 798.287 612.102C797.726 611.484 796.948 611.175 795.954 611.175C795.279 611.175 794.679 611.324 794.153 611.622C793.635 611.914 793.226 612.336 792.928 612.89C792.637 613.444 792.491 614.115 792.491 614.904ZM812.989 624.779C811.703 624.779 810.552 624.449 809.537 623.789C808.521 623.128 807.719 622.169 807.129 620.912C806.54 619.655 806.245 618.128 806.245 616.331C806.245 614.513 806.543 612.979 807.14 611.729C807.744 610.472 808.557 609.524 809.579 608.884C810.602 608.238 811.742 607.915 812.999 607.915C813.958 607.915 814.746 608.078 815.364 608.405C815.982 608.725 816.472 609.112 816.834 609.566C817.197 610.014 817.477 610.436 817.676 610.834H817.836V602.674H821.703V624.492H817.91V621.914H817.676C817.477 622.311 817.19 622.734 816.813 623.181C816.437 623.622 815.94 623.998 815.322 624.311C814.704 624.623 813.926 624.779 812.989 624.779ZM814.065 621.615C814.881 621.615 815.577 621.395 816.153 620.955C816.728 620.507 817.165 619.886 817.463 619.09C817.761 618.295 817.91 617.368 817.91 616.31C817.91 615.252 817.761 614.332 817.463 613.551C817.172 612.769 816.739 612.162 816.163 611.729C815.595 611.296 814.896 611.079 814.065 611.079C813.205 611.079 812.488 611.303 811.913 611.75C811.337 612.198 810.904 612.816 810.613 613.604C810.322 614.392 810.176 615.294 810.176 616.31C810.176 617.333 810.322 618.245 810.613 619.048C810.911 619.843 811.348 620.472 811.923 620.933C812.506 621.388 813.219 621.615 814.065 621.615ZM832.95 624.811C831.352 624.811 829.967 624.46 828.796 623.757C827.624 623.053 826.715 622.07 826.068 620.806C825.429 619.541 825.109 618.064 825.109 616.374C825.109 614.683 825.429 613.203 826.068 611.931C826.715 610.66 827.624 609.673 828.796 608.97C829.967 608.267 831.352 607.915 832.95 607.915C834.548 607.915 835.933 608.267 837.105 608.97C838.277 609.673 839.183 610.66 839.822 611.931C840.468 613.203 840.791 614.683 840.791 616.374C840.791 618.064 840.468 619.541 839.822 620.806C839.183 622.07 838.277 623.053 837.105 623.757C835.933 624.46 834.548 624.811 832.95 624.811ZM832.972 621.722C833.838 621.722 834.563 621.484 835.145 621.008C835.727 620.525 836.161 619.879 836.445 619.069C836.736 618.259 836.881 617.357 836.881 616.363C836.881 615.362 836.736 614.456 836.445 613.647C836.161 612.83 835.727 612.18 835.145 611.697C834.563 611.214 833.838 610.973 832.972 610.973C832.084 610.973 831.345 611.214 830.756 611.697C830.173 612.18 829.737 612.83 829.445 613.647C829.161 614.456 829.019 615.362 829.019 616.363C829.019 617.357 829.161 618.259 829.445 619.069C829.737 619.879 830.173 620.525 830.756 621.008C831.345 621.484 832.084 621.722 832.972 621.722ZM851.506 624.492V608.128H855.245V610.855H855.416C855.714 609.911 856.225 609.183 856.95 608.671C857.681 608.153 858.516 607.894 859.453 607.894C859.666 607.894 859.904 607.904 860.167 607.926C860.437 607.94 860.661 607.965 860.838 608V611.548C860.675 611.491 860.416 611.441 860.061 611.399C859.713 611.349 859.375 611.324 859.049 611.324C858.345 611.324 857.713 611.477 857.152 611.782C856.598 612.08 856.161 612.496 855.842 613.029C855.522 613.561 855.362 614.176 855.362 614.872V624.492H851.506ZM869.971 624.811C868.33 624.811 866.913 624.47 865.72 623.789C864.534 623.1 863.622 622.127 862.982 620.87C862.343 619.605 862.024 618.117 862.024 616.406C862.024 614.723 862.343 613.245 862.982 611.974C863.629 610.696 864.531 609.701 865.688 608.991C866.846 608.274 868.206 607.915 869.769 607.915C870.777 607.915 871.729 608.078 872.624 608.405C873.526 608.725 874.321 609.222 875.01 609.897C875.706 610.571 876.253 611.431 876.651 612.475C877.048 613.512 877.247 614.747 877.247 616.182V617.365H863.835V614.765H873.551C873.543 614.026 873.384 613.37 873.071 612.794C872.759 612.212 872.322 611.754 871.761 611.42C871.207 611.086 870.56 610.919 869.822 610.919C869.033 610.919 868.341 611.111 867.744 611.495C867.148 611.871 866.683 612.368 866.349 612.986C866.022 613.597 865.855 614.268 865.848 615V617.269C865.848 618.22 866.022 619.037 866.37 619.719C866.718 620.394 867.205 620.912 867.83 621.274C868.455 621.629 869.186 621.807 870.024 621.807C870.585 621.807 871.093 621.729 871.548 621.573C872.002 621.409 872.396 621.171 872.73 620.859C873.064 620.546 873.316 620.159 873.487 619.698L877.087 620.102C876.86 621.054 876.427 621.885 875.788 622.595C875.156 623.299 874.346 623.845 873.359 624.236C872.372 624.62 871.242 624.811 869.971 624.811ZM893.443 612.453L889.927 612.837C889.828 612.482 889.654 612.148 889.405 611.835C889.164 611.523 888.837 611.271 888.425 611.079C888.013 610.887 887.509 610.791 886.913 610.791C886.11 610.791 885.435 610.965 884.888 611.313C884.349 611.661 884.082 612.112 884.089 612.666C884.082 613.142 884.256 613.529 884.611 613.828C884.974 614.126 885.57 614.371 886.401 614.563L889.192 615.159C890.741 615.493 891.891 616.022 892.644 616.747C893.404 617.471 893.788 618.419 893.795 619.591C893.788 620.621 893.486 621.53 892.889 622.318C892.3 623.1 891.479 623.71 890.428 624.151C889.377 624.591 888.17 624.811 886.806 624.811C884.803 624.811 883.191 624.392 881.969 623.554C880.748 622.709 880.02 621.534 879.785 620.028L883.546 619.666C883.717 620.404 884.079 620.962 884.633 621.338C885.187 621.715 885.908 621.903 886.795 621.903C887.712 621.903 888.447 621.715 889.001 621.338C889.562 620.962 889.842 620.497 889.842 619.943C889.842 619.474 889.661 619.087 889.299 618.781C888.944 618.476 888.39 618.242 887.637 618.078L884.846 617.492C883.276 617.166 882.115 616.615 881.362 615.841C880.609 615.06 880.236 614.073 880.244 612.879C880.236 611.871 880.51 610.997 881.064 610.259C881.625 609.513 882.403 608.938 883.397 608.533C884.398 608.121 885.552 607.915 886.859 607.915C888.777 607.915 890.286 608.323 891.387 609.14C892.495 609.957 893.18 611.061 893.443 612.453ZM896.975 630.628V608.128H900.767V610.834H900.991C901.19 610.436 901.47 610.014 901.833 609.566C902.195 609.112 902.685 608.725 903.303 608.405C903.921 608.078 904.709 607.915 905.668 607.915C906.932 607.915 908.072 608.238 909.088 608.884C910.11 609.524 910.92 610.472 911.517 611.729C912.12 612.979 912.422 614.513 912.422 616.331C912.422 618.128 912.127 619.655 911.538 620.912C910.948 622.169 910.146 623.128 909.13 623.789C908.115 624.449 906.964 624.779 905.679 624.779C904.741 624.779 903.963 624.623 903.345 624.311C902.728 623.998 902.23 623.622 901.854 623.181C901.485 622.734 901.197 622.311 900.991 621.914H900.831V630.628H896.975ZM900.757 616.31C900.757 617.368 900.906 618.295 901.204 619.09C901.509 619.886 901.946 620.507 902.514 620.955C903.09 621.395 903.786 621.615 904.603 621.615C905.455 621.615 906.169 621.388 906.744 620.933C907.319 620.472 907.752 619.843 908.044 619.048C908.342 618.245 908.491 617.333 908.491 616.31C908.491 615.294 908.345 614.392 908.054 613.604C907.763 612.816 907.33 612.198 906.755 611.75C906.179 611.303 905.462 611.079 904.603 611.079C903.779 611.079 903.079 611.296 902.504 611.729C901.929 612.162 901.492 612.769 901.193 613.551C900.902 614.332 900.757 615.252 900.757 616.31ZM922.862 624.811C921.264 624.811 919.88 624.46 918.708 623.757C917.536 623.053 916.627 622.07 915.98 620.806C915.341 619.541 915.022 618.064 915.022 616.374C915.022 614.683 915.341 613.203 915.98 611.931C916.627 610.66 917.536 609.673 918.708 608.97C919.88 608.267 921.264 607.915 922.862 607.915C924.46 607.915 925.845 608.267 927.017 608.97C928.189 609.673 929.095 610.66 929.734 611.931C930.38 613.203 930.703 614.683 930.703 616.374C930.703 618.064 930.38 619.541 929.734 620.806C929.095 622.07 928.189 623.053 927.017 623.757C925.845 624.46 924.46 624.811 922.862 624.811ZM922.884 621.722C923.75 621.722 924.475 621.484 925.057 621.008C925.639 620.525 926.073 619.879 926.357 619.069C926.648 618.259 926.794 617.357 926.794 616.363C926.794 615.362 926.648 614.456 926.357 613.647C926.073 612.83 925.639 612.18 925.057 611.697C924.475 611.214 923.75 610.973 922.884 610.973C921.996 610.973 921.257 611.214 920.668 611.697C920.085 612.18 919.649 612.83 919.358 613.647C919.073 614.456 918.931 615.362 918.931 616.363C918.931 617.357 919.073 618.259 919.358 619.069C919.649 619.879 920.085 620.525 920.668 621.008C921.257 621.484 921.996 621.722 922.884 621.722ZM946.91 612.453L943.394 612.837C943.295 612.482 943.121 612.148 942.872 611.835C942.631 611.523 942.304 611.271 941.892 611.079C941.48 610.887 940.976 610.791 940.379 610.791C939.577 610.791 938.902 610.965 938.355 611.313C937.815 611.661 937.549 612.112 937.556 612.666C937.549 613.142 937.723 613.529 938.078 613.828C938.44 614.126 939.037 614.371 939.868 614.563L942.659 615.159C944.207 615.493 945.358 616.022 946.111 616.747C946.871 617.471 947.254 618.419 947.261 619.591C947.254 620.621 946.953 621.53 946.356 622.318C945.766 623.1 944.946 623.71 943.895 624.151C942.844 624.591 941.636 624.811 940.273 624.811C938.27 624.811 936.658 624.392 935.436 623.554C934.215 622.709 933.487 621.534 933.252 620.028L937.013 619.666C937.183 620.404 937.546 620.962 938.1 621.338C938.653 621.715 939.374 621.903 940.262 621.903C941.178 621.903 941.913 621.715 942.467 621.338C943.028 620.962 943.309 620.497 943.309 619.943C943.309 619.474 943.128 619.087 942.766 618.781C942.411 618.476 941.857 618.242 941.104 618.078L938.313 617.492C936.743 617.166 935.582 616.615 934.829 615.841C934.076 615.06 933.703 614.073 933.71 612.879C933.703 611.871 933.977 610.997 934.531 610.259C935.092 609.513 935.869 608.938 936.864 608.533C937.865 608.121 939.019 607.915 940.326 607.915C942.244 607.915 943.753 608.323 944.854 609.14C945.962 609.957 946.647 611.061 946.91 612.453ZM958.613 608.128V611.111H949.206V608.128H958.613ZM951.528 604.208H955.385V619.57C955.385 620.088 955.463 620.486 955.619 620.763C955.782 621.033 955.995 621.218 956.258 621.317C956.521 621.416 956.812 621.466 957.132 621.466C957.373 621.466 957.593 621.448 957.792 621.413C957.998 621.377 958.155 621.345 958.261 621.317L958.911 624.332C958.705 624.403 958.41 624.481 958.027 624.566C957.65 624.652 957.189 624.701 956.642 624.715C955.676 624.744 954.806 624.598 954.032 624.279C953.258 623.952 952.643 623.448 952.189 622.766C951.741 622.084 951.521 621.232 951.528 620.209V604.208ZM966.547 624.822C965.51 624.822 964.576 624.637 963.745 624.268C962.921 623.892 962.268 623.338 961.785 622.606C961.309 621.875 961.071 620.973 961.071 619.9C961.071 618.977 961.241 618.213 961.582 617.61C961.923 617.006 962.388 616.523 962.978 616.161C963.567 615.799 964.231 615.525 964.97 615.34C965.716 615.149 966.486 615.01 967.282 614.925C968.241 614.826 969.018 614.737 969.615 614.659C970.212 614.573 970.645 614.446 970.915 614.275C971.192 614.098 971.33 613.824 971.33 613.455V613.391C971.33 612.588 971.092 611.967 970.616 611.526C970.141 611.086 969.455 610.866 968.56 610.866C967.616 610.866 966.866 611.072 966.312 611.484C965.766 611.896 965.396 612.382 965.204 612.943L961.604 612.432C961.888 611.438 962.356 610.607 963.01 609.939C963.663 609.264 964.462 608.76 965.407 608.426C966.351 608.085 967.396 607.915 968.539 607.915C969.327 607.915 970.112 608.007 970.893 608.192C971.675 608.377 972.388 608.682 973.035 609.108C973.681 609.527 974.199 610.099 974.59 610.823C974.988 611.548 975.187 612.453 975.187 613.54V624.492H971.479V622.244H971.351C971.117 622.698 970.787 623.125 970.361 623.522C969.942 623.913 969.413 624.229 968.773 624.47C968.141 624.705 967.399 624.822 966.547 624.822ZM967.548 621.988C968.322 621.988 968.994 621.835 969.562 621.53C970.13 621.218 970.567 620.806 970.872 620.294C971.185 619.783 971.341 619.225 971.341 618.622V616.693C971.22 616.793 971.014 616.885 970.723 616.97C970.439 617.056 970.119 617.13 969.764 617.194C969.409 617.258 969.057 617.315 968.709 617.365C968.361 617.414 968.06 617.457 967.804 617.492C967.229 617.571 966.714 617.698 966.259 617.876C965.805 618.053 965.446 618.302 965.183 618.622C964.92 618.934 964.789 619.339 964.789 619.836C964.789 620.546 965.048 621.083 965.567 621.445C966.085 621.807 966.746 621.988 967.548 621.988ZM981.44 624.726C980.794 624.726 980.24 624.499 979.778 624.044C979.317 623.59 979.089 623.036 979.097 622.382C979.089 621.743 979.317 621.196 979.778 620.742C980.24 620.287 980.794 620.06 981.44 620.06C982.065 620.06 982.609 620.287 983.07 620.742C983.539 621.196 983.777 621.743 983.784 622.382C983.777 622.816 983.663 623.21 983.443 623.565C983.23 623.92 982.946 624.204 982.591 624.417C982.243 624.623 981.859 624.726 981.44 624.726ZM990.141 624.726C989.495 624.726 988.941 624.499 988.479 624.044C988.018 623.59 987.791 623.036 987.798 622.382C987.791 621.743 988.018 621.196 988.479 620.742C988.941 620.287 989.495 620.06 990.141 620.06C990.766 620.06 991.31 620.287 991.771 620.742C992.24 621.196 992.478 621.743 992.485 622.382C992.478 622.816 992.364 623.21 992.144 623.565C991.931 623.92 991.647 624.204 991.292 624.417C990.944 624.623 990.56 624.726 990.141 624.726ZM998.843 624.726C998.196 624.726 997.642 624.499 997.181 624.044C996.719 623.59 996.492 623.036 996.499 622.382C996.492 621.743 996.719 621.196 997.181 620.742C997.642 620.287 998.196 620.06 998.843 620.06C999.468 620.06 1000.01 620.287 1000.47 620.742C1000.94 621.196 1001.18 621.743 1001.19 622.382C1001.18 622.816 1001.07 623.21 1000.85 623.565C1000.63 623.92 1000.35 624.204 999.993 624.417C999.645 624.623 999.262 624.726 998.843 624.726Z" fill="#5A7DA0"/>
<path d="M1061.63 423.835C1058.69 493.402 1004.77 548.167 939.313 548.167H665.001C626.177 548.167 599.503 506.49 613.876 468.122C633.034 415.7 695.464 454.491 666.86 410.406C639.134 367.665 622.627 315.507 646.287 290.383C701.057 232.229 765.711 309.357 801.249 298.183C812.583 294.374 857.59 264.26 875.092 258.865C986.621 216.12 1071.2 317.28 1061.63 423.835Z" fill="#E3F0FF"/>
<path d="M632.447 406.891C635.478 400.545 608.66 368.201 596.344 376.446C584.028 384.69 582.748 401.422 601.112 407.495C618.47 413.234 629.418 413.237 632.447 406.891Z" fill="#E3F0FF"/>
<path d="M692.481 271.152L688.722 248.271C688.636 247.762 688.154 247.415 687.642 247.498C687.132 247.584 686.786 248.066 686.869 248.575L690.541 270.925L674.684 284.124C674.285 284.455 674.23 285.047 674.561 285.446C674.748 285.666 675.015 285.783 675.285 285.783C675.497 285.783 675.709 285.712 675.884 285.565L692.152 272.023C692.41 271.812 692.533 271.477 692.481 271.152Z" fill="#C7DEFF"/>
<path d="M717.476 282.775L695.639 274.942C695.326 274.831 694.976 274.893 694.721 275.104L678.453 288.646C678.054 288.977 677.998 289.569 678.33 289.968C678.517 290.189 678.784 290.305 679.051 290.305C679.263 290.305 679.477 290.235 679.652 290.088L695.51 276.889L716.841 284.542C717.329 284.717 717.866 284.462 718.041 283.975C718.216 283.487 717.964 282.95 717.476 282.775Z" fill="#C7DEFF"/>
<path d="M685.452 269.651C685.528 270.111 685.924 270.437 686.375 270.437C686.427 270.437 686.476 270.433 686.528 270.424C687.041 270.341 687.388 269.86 687.302 269.348L684.427 251.844C684.344 251.335 683.859 250.988 683.35 251.071C682.837 251.157 682.491 251.638 682.577 252.147L685.452 269.651Z" fill="#C7DEFF"/>
<path d="M713.178 286.348L696.472 280.354C695.984 280.18 695.45 280.434 695.272 280.922C695.097 281.41 695.352 281.946 695.84 282.121L712.546 288.114C712.651 288.151 712.758 288.169 712.862 288.169C713.246 288.169 713.608 287.93 713.746 287.547C713.921 287.059 713.666 286.522 713.178 286.348Z" fill="#C7DEFF"/>
<path d="M902.736 414.732L880.027 409.99C879.517 409.882 879.02 410.207 878.916 410.717C878.809 411.223 879.134 411.72 879.64 411.824L901.828 416.458L908.428 436C908.593 436.49 909.127 436.754 909.618 436.589C909.891 436.493 910.097 436.288 910.192 436.036C910.269 435.84 910.278 435.616 910.207 435.398L903.432 415.351C903.325 415.035 903.061 414.802 902.736 414.732Z" fill="#C7DEFF"/>
<path d="M922.597 395.623L907.415 413.156C907.197 413.407 907.129 413.754 907.234 414.07L914.009 434.117C914.174 434.608 914.708 434.871 915.199 434.706C915.472 434.614 915.678 434.405 915.773 434.154C915.85 433.957 915.859 433.733 915.788 433.516L909.185 413.978L924.015 396.85C924.355 396.458 924.312 395.869 923.919 395.528C923.53 395.191 922.938 395.234 922.597 395.623Z" fill="#C7DEFF"/>
<path d="M924.382 400.914L912.766 414.326C912.425 414.719 912.468 415.311 912.861 415.648C913.254 415.989 913.846 415.946 914.184 415.553L925.8 402.141C925.874 402.058 925.929 401.963 925.966 401.865C926.104 401.506 926.012 401.086 925.705 400.819C925.312 400.481 924.72 400.521 924.382 400.914Z" fill="#C7DEFF"/>
<path d="M782.457 495.136C782.457 495.136 674.714 208.092 597.511 281.913C582.737 300.519 600.055 332.308 631.868 369.172C663.68 406.034 756.213 501.863 769.324 517.067L782.457 495.136Z" fill="#5A789F"/>
<path d="M782.456 495.136C782.456 495.136 715.777 317.498 649.743 277.652C651.204 281.456 652.1 285.563 650.691 288.17C647.463 294.145 632.907 296.884 628.746 306.797C625.187 315.284 630.842 348.045 618.071 352.277C622.269 357.765 626.89 363.405 631.867 369.172C663.68 406.033 756.212 501.862 769.324 517.066L782.456 495.136Z" fill="#5A789F"/>
<path d="M609.93 284.234C617.426 290.268 624.603 296.7 631.651 303.248C672.745 341.855 709.155 385.688 738.421 433.923C744.048 443.257 749.538 453.05 754.511 462.752C756.604 466.794 758.939 471.592 760.903 475.702C762.173 478.425 763.971 482.33 765.177 485.084L766.009 486.968L766.816 488.866L767.623 490.762L768.423 492.66C758.816 472.892 748.126 453.701 736.402 435.169C724.693 416.624 712.036 398.699 698.627 381.348C678.499 355.329 656.732 330.558 633.624 307.128C625.916 299.334 618.042 291.605 609.93 284.234Z" fill="#5AA5D1"/>
<path d="M621.207 420.572C621.207 420.572 600.428 412.097 586.36 428.706C574.498 442.714 593.54 480.741 613.205 499.148C613.205 499.148 593.914 511.226 593.261 525.142C592.607 539.055 615.31 553.741 647.445 557.894L650.691 439.892L621.207 420.572Z" fill="#5A789F"/>
<path d="M618.842 419.795C620.785 431.11 622.199 448.676 625.197 467.785C629.907 497.813 640.692 541.401 603.964 542.389C613.553 549.612 628.931 555.501 647.446 557.893L650.692 439.892L621.208 420.571C621.208 420.571 620.34 420.216 618.842 419.795Z" fill="#5A789F"/>
<path d="M596.246 431.006C611.689 446.778 626.58 463.175 641.244 479.671C645.503 484.44 650.029 489.412 654.168 494.271C662.13 503.69 669.823 513.422 677.012 523.446C677.386 523.98 677.764 524.507 678.135 525.044L677.902 525.237C667.119 514.072 656.699 502.264 646.776 490.332C643.643 486.504 640.013 482.124 636.828 478.339C626.776 466.463 616.617 454.581 606.366 442.88C602.941 438.972 599.505 435.073 596.028 431.215L596.246 431.006Z" fill="#5AA5D1"/>
<path d="M606.207 524.991C614.08 525.519 622.024 525.151 629.833 524.074C633.721 523.528 637.578 522.813 641.355 521.752C644.479 520.869 647.538 519.786 650.594 518.703C653.951 517.507 657.255 516.158 660.471 514.615C662.558 513.612 664.561 512.535 666.605 511.422L666.792 511.658C665.782 512.759 664.641 513.817 663.484 514.762C658.372 518.903 652.291 521.866 645.918 523.47C635.528 526.025 624.749 526.89 614.086 526.166C611.432 525.982 608.79 525.721 606.167 525.289L606.207 524.991Z" fill="#5AA5D1"/>
<mask id="mask0_1949_925" style="mask-type:luminance" maskUnits="userSpaceOnUse" x="638" y="299" width="152" height="261">
<path d="M638.083 299.684H789.685V559.709H638.083V299.684Z" fill="white"/>
</mask>
<g mask="url(#mask0_1949_925)">
<path d="M777.579 559.676H650.279C643.856 559.676 638.649 554.474 638.649 548.054V311.729C638.649 305.31 643.856 300.104 650.279 300.104H777.579C784.004 300.104 789.211 305.31 789.211 311.729V548.054C789.211 554.474 784.004 559.676 777.579 559.676Z" fill="#303C72"/>
</g>
<path d="M773.177 552.875H654.68C649.347 552.875 645.023 548.554 645.023 543.226V316.553C645.023 311.225 649.347 306.907 654.68 306.907H773.177C778.51 306.907 782.83 311.225 782.83 316.553V543.226C782.83 548.554 778.51 552.875 773.177 552.875Z" fill="#D4EBFF"/>
<path d="M773.177 306.907H654.68C649.347 306.907 645.023 311.225 645.023 316.553V328.411H782.83V316.553C782.83 311.225 778.51 306.907 773.177 306.907Z" fill="#8CCBFF"/>
<path d="M742.097 422.311C742.097 422.311 755.828 412.772 766.567 430.645C777.309 448.52 789.162 483.996 792.516 495.022C795.87 506.046 782.964 511.901 774.983 503.488C766.999 495.074 747.166 456.897 742.627 447.505C738.089 438.113 735.322 427.62 742.097 422.311Z" fill="#9E5959"/>
<path d="M778.346 488.902L789.395 485.301C788.348 482.176 785.795 474.879 785.795 474.879C785.795 474.879 779.665 482.694 778.346 488.902Z" fill="#914D4D"/>
<path d="M765.476 489.696C765.424 486.04 765.39 480.225 765.55 474.317C765.81 464.591 764.276 442.636 764.276 442.636L751.358 464.505C755.679 472.643 760.834 482.007 765.476 489.696Z" fill="#914D4D"/>
<path d="M743.916 419.768C743.916 419.768 732.225 424.896 738.089 440.202C743.953 455.51 762.783 487.341 768.42 497.015C774.056 506.689 782.126 511.287 788.269 508.03C794.412 504.769 794.762 499.098 792.313 490.403C789.862 481.71 773.811 441.904 769.77 433.767C765.726 425.632 755.435 413.538 743.916 419.768Z" fill="white"/>
<path d="M784.707 469.626C781.126 474.322 776.628 485.796 776.628 485.796L788.886 480.526C787.671 477.269 786.238 473.537 784.707 469.626Z" fill="#D4EBFF"/>
<path d="M768.364 496.915C768.48 489.968 768.674 474.423 768.299 465.672C767.811 454.161 765.581 440.202 765.581 440.202L756.731 476.769C761.598 485.382 766.05 492.946 768.364 496.915Z" fill="#D4EBFF"/>
<path d="M818.915 445.029C818.915 445.029 828.301 448.529 833.339 459.914L828.823 463.625L816.203 450.854L818.915 445.029Z" fill="#ABD3FC"/>
<path d="M780.712 506.917C784.977 508.393 789.715 507.08 792.746 503.737C800.966 494.667 828.042 464.485 833.626 454.388C840.232 442.448 831.555 440.721 823.482 448.128C815.412 455.535 802.209 466.752 796.057 471.92C786.042 480.337 776.272 486.603 773.136 492.977C770.939 497.436 774.327 504.709 780.712 506.917Z" fill="#9E5959"/>
<path d="M825.85 465.396C821.649 470.402 813.509 460.936 816.304 456.283C816.35 456.21 824.693 445.861 825.816 441.969C826.998 437.868 826.421 435.88 830.643 432.242C834.236 429.151 836.635 427.05 838.443 427.338C840.357 427.645 838.703 430.2 836.758 431.917C834.653 433.779 831.474 439.269 834.478 439.119C836.872 438.996 844.552 437.401 846.871 436.365C850.652 434.675 860.111 425.51 862.339 430.344C862.339 430.344 864.791 429.936 864.625 432.77C864.625 432.77 867.589 433.718 864.895 437.217C864.895 437.217 866.623 438.782 864.898 440.794C863.729 442.159 858.614 446.815 855.22 449.437C851.83 452.06 838.105 453.771 833.248 456.703C831.701 457.639 826.81 464.252 825.85 465.396Z" fill="#F6AF9A"/>
<path d="M833.258 438.211C833.479 441.125 834.458 443.486 833.491 446.412C835.881 444.103 833.779 440.671 833.258 438.211Z" fill="#E57E73"/>
<path d="M864.894 437.217C863.477 436.987 862.381 438.143 861.357 438.923C858.166 441.327 855.162 444.091 851.817 446.216C855.791 445.262 858.454 441.612 861.581 439.186C862.483 438.269 863.713 437.245 864.894 437.217Z" fill="#E57E73"/>
<path d="M864.626 432.77C861.631 433.04 859.462 435.408 857.136 437.058C854.78 438.677 852.684 441.07 850.315 442.385C851.794 442.211 853.055 441.235 854.169 440.306C857.566 437.8 860.588 433.859 864.626 432.77Z" fill="#E57E73"/>
<path d="M862.339 430.344C856.902 431.144 853.337 436.156 848.836 438.772C854.021 437.438 857.108 431.368 862.339 430.344Z" fill="#E57E73"/>
<path d="M849.732 447.224C844.013 445.389 836.324 444.163 831.338 448.269C836.818 445.055 843.746 446.349 849.732 447.224Z" fill="#EA9A88"/>
<path d="M848.47 438.619C849.507 439.518 849.838 440.908 850.163 442.187C851.201 443.162 851.406 444.751 851.667 446.094C852.195 446.48 852.207 447.244 852.213 447.839C852.069 447.232 851.845 446.579 851.311 446.275C850.878 445.085 850.602 443.515 849.673 442.637C849.099 441.503 849.126 439.895 848.172 438.911C847.875 438.288 847.693 437.552 847.172 437.043C847.77 437.393 848.166 438.003 848.47 438.619Z" fill="#EA9A88"/>
<path d="M818.916 445.029C818.916 445.029 822.543 456.853 833.34 459.914C833.34 459.914 802.727 497.874 794.762 504.484C786.799 511.097 774.833 508.116 770.586 498.362C766.496 488.967 818.916 445.029 818.916 445.029Z" fill="white"/>
<path d="M729.888 529.028C716.522 533.414 711.103 543.416 709.483 552.875H760.627C759.556 546.75 758.35 542.131 757.003 539.748C748.55 524.777 729.888 529.028 729.888 529.028Z" fill="#F6AF9A"/>
<path d="M730.336 522.433C714.788 525.543 706.863 536.104 706.338 552.875H764.493C764.404 552.24 764.315 551.624 764.226 551.026C759.902 522.176 730.336 522.433 730.336 522.433Z" fill="#384682"/>
<path d="M691.595 486.237C693.473 507.474 687.79 520.311 685.357 533.224C684.074 540.036 683.73 546.762 684.62 552.875H753.628C757.868 543.048 757.123 533.365 757.261 528.126C757.497 519.308 758.209 504.582 758.209 504.582C760.722 465.638 689.72 464.997 691.595 486.237Z" fill="#F6AF9A"/>
<path d="M687.049 521.675C687.049 521.675 680.369 538.179 682.836 552.874H754.841C758.76 539.523 758.468 522.432 758.468 522.432C749.291 523.911 687.049 521.675 687.049 521.675Z" fill="#384682"/>
<path d="M682.096 552.875H732.932C732.693 529.039 712.948 527.438 712.948 527.438C697.434 525.806 685.934 530.505 682.096 552.875Z" fill="#F6AF9A"/>
<path d="M679.473 552.82C679.47 552.838 679.47 552.857 679.467 552.875H738.37C738.045 535.809 727.143 524.783 708.914 522.458C708.914 522.458 682.836 520.476 679.473 552.82Z" fill="#384682"/>
<path d="M706.206 411.855C718.605 409.775 728.501 411.474 740.173 414.891C747.982 417.176 756.349 419.379 760.13 424.66C766.767 433.932 763.741 456.838 762.044 467.442C760.348 478.042 759.062 500.212 758.132 505.908C757.202 511.603 731.919 520.544 716.442 518.216C704.577 516.431 693.718 510.619 692.171 499.758C690.352 486.949 687.253 468.586 683.657 457.427C680.061 446.272 674.412 423.038 692.227 415.262C695.568 413.805 702.941 412.401 706.206 411.855Z" fill="#F6AF9A"/>
<path d="M735.462 400.046C735.462 400.046 735.06 411.618 737.629 416.921C740.194 422.221 731.409 425.519 725.699 425.47C719.988 425.421 711.219 422.225 710.194 415.351C709.172 408.474 713.379 411.075 712.584 392.387C711.965 377.772 737.061 385.645 735.462 400.046Z" fill="#F6AF9A"/>
<path d="M736.824 414.756C735.152 408.992 735.462 400.046 735.462 400.046C736.729 388.612 721.169 381.293 715.018 386.084C714.766 387.713 714.649 389.547 714.699 391.617C714.723 392.694 725.198 412.906 736.824 414.756Z" fill="#EA9A88"/>
<path d="M763.259 524.817C762.419 518.492 763.259 487.501 763.379 483.057C763.499 478.61 765.797 455.305 765.552 448.339C765.303 441.371 763.364 427.412 761.63 423.219C759.893 419.029 746.807 415.827 739.955 414.756L736.577 413.806C736.577 413.806 737.66 417.722 731.882 418.716C723.377 420.179 714.129 414.996 710.299 411.294C710.299 411.294 708.044 411.005 706.516 411.291C706.516 411.291 691.72 413.658 687.845 415.217C683.97 416.775 678.394 423.593 678.155 435.245C677.913 446.898 683.804 468.672 685.485 479.827C687.17 490.986 686.087 510.085 685.366 516.692C684.645 523.299 677.673 544.321 677.554 552.609C677.554 552.609 678.437 552.71 679.999 552.876H748.642C758.356 551.882 765.545 551.014 766.144 550.566C766.144 550.566 764.352 545.162 764.226 540.717C764.1 536.273 764.1 531.142 763.259 524.817Z" fill="#85B9F1"/>
<path d="M730.964 420.909C734.732 420.866 740.105 428.847 740.105 428.847C741.792 425.798 743.366 419.314 744.185 415.542C742.642 415.213 741.194 414.95 739.954 414.756L736.576 413.806C736.576 413.806 737.659 417.722 731.881 418.716C723.376 420.179 714.128 414.996 710.298 411.294C710.298 411.294 708.043 411.005 706.515 411.291C706.515 411.291 705.613 411.435 704.198 411.677L702.25 414.68L725.938 433.779C725.938 433.779 725.867 432.516 726.702 428.264C728.046 421.403 730.964 420.909 730.964 420.909Z" fill="#75AEEB"/>
<path d="M699.502 476.505C701.401 461.997 702.141 436.229 702.141 436.229C702.141 436.229 689.186 441.327 678.668 443.315C680.11 455.209 684.142 470.91 685.485 479.827C687.17 490.982 686.087 510.085 685.366 516.692C684.645 523.298 677.673 544.321 677.554 552.609C677.554 552.609 678.437 552.71 679.999 552.875H702.371C689.508 545.894 690.241 525.439 691.938 514.14C693.933 500.834 698.066 487.483 699.502 476.505Z" fill="#75AEEB"/>
<path d="M731.498 423.109C733.262 423.044 733.646 420.026 733.716 418.229C733.198 418.428 732.59 418.594 731.878 418.717C730.418 418.968 728.933 419.023 727.46 418.925C728.095 420.339 729.611 423.176 731.498 423.109Z" fill="#384682"/>
<path d="M730.026 421.381C730.026 421.381 739.287 463.727 740.103 473.051L745.856 483.992L748.277 469.625C748.277 469.625 738.658 435.352 732.306 420.955L730.026 421.381Z" fill="#384682"/>
<path d="M730.553 418.891C730.553 418.891 735.324 416.541 736.573 413.805C736.573 413.805 738.631 413.741 739.484 414.164C739.484 414.164 740.874 421.403 739.484 426.022C739.484 426.022 734.765 419.636 731.05 419.958C727.325 420.283 724.904 429.024 724.904 429.024C724.904 429.024 711.674 418.679 710.035 411.321L710.409 410.892C710.409 410.892 721.71 417.501 730.553 418.891Z" fill="#96C3F2"/>
<path d="M755.254 358.896C755.254 358.896 757.092 367.644 754.521 377.906L748.842 358.55L755.254 358.896Z" fill="#8C4949"/>
<path d="M731.883 342.087C731.883 342.087 750.303 343.17 753.279 359.543C756.255 375.915 754.393 405.532 743.693 408.774C733.93 411.734 718.864 401.631 712.522 391.491C705.848 380.82 703.479 367.217 707.407 356.929C710.846 347.924 717.4 341.308 731.883 342.087Z" fill="#F6AF9A"/>
<path d="M723.509 361.233C723.509 361.233 721.628 364.021 722.147 368.233C722.484 370.975 721.432 371.962 718.575 375.959C715.715 379.955 716.378 380.189 715.537 384.593C714.697 388.994 712.644 399.788 712.589 400.65C712.53 401.515 709.882 398.484 707.9 392.479C705.921 386.473 701.714 374.821 701.352 364.129C700.993 353.439 710.849 342.628 720.947 341.545C720.947 341.545 730.563 337.22 739.82 341.066C749.075 344.91 755.893 350.759 755.5 360.387L753.481 360.454C753.481 360.454 751.944 359.325 751.453 359.031C749.213 357.687 747.39 358.353 745.356 359.678C745.356 359.678 737.439 363.656 733.233 363.178C733.233 363.178 728.431 364.662 723.509 361.233Z" fill="#8C4949"/>
<path d="M715.272 351.483C715.272 351.483 714.078 359.384 722.454 363.742C722.887 362.16 723.507 361.233 723.507 361.233C723.507 361.233 716.244 356.731 715.272 351.483Z" fill="#7D4141"/>
<path d="M720.136 345.069C720.062 348.912 720.982 353.007 723.827 355.734C727.214 358.923 733.526 359.568 738.03 359.451C737.481 359.663 736.91 359.822 736.333 359.948C732.031 360.843 726.883 360.417 723.333 357.605C719.737 354.672 718.654 349.354 720.136 345.069Z" fill="#7D4141"/>
<path d="M724.801 343.027C727.283 342.199 729.916 341.91 732.53 341.923C737.816 341.972 743.269 343.646 747.147 347.345C749.086 349.18 750.562 351.458 751.409 353.912C750.648 352.857 749.869 351.848 749.009 350.922C746.493 348.164 743.269 346.106 739.746 344.892C734.963 343.229 729.845 342.861 724.801 343.027Z" fill="#7D4141"/>
<path d="M722.76 345.069C727.709 345.431 732.56 346.735 737.168 348.557C740.709 349.974 744.136 351.961 746.698 354.829C747.088 355.271 747.453 355.74 747.751 356.246C747.53 356.053 747.303 355.872 747.073 355.7C746.898 355.568 746.551 355.317 746.373 355.191C743.805 353.406 740.995 351.992 738.11 350.802C733.045 348.738 727.878 347.06 722.76 345.069Z" fill="#7D4141"/>
<path d="M725.97 349.636C729.21 352.688 733.407 354.268 737.543 355.728C738.945 356.218 740.375 356.657 741.82 357.218C741.05 357.304 740.283 357.313 739.51 357.289C735.65 357.102 731.747 355.869 728.737 353.375C727.565 352.357 726.451 351.136 725.97 349.636Z" fill="#7D4141"/>
<path d="M719.343 381.155C719.343 381.155 719.303 372.53 714.157 372.472C709.009 372.413 709.036 379.633 712.356 384.317C714.212 386.939 719.364 390.242 719.343 381.155Z" fill="#F6AF9A"/>
<path d="M713.679 378.287C714.691 378.346 715.489 378.901 716.047 379.465C715.903 378.474 715.495 377.517 714.559 376.922C714.317 376.769 714.246 376.45 714.4 376.208C714.553 375.965 714.869 375.895 715.115 376.048C718.456 378.168 716.713 383.348 716.637 383.566C716.545 383.836 716.25 383.98 715.98 383.885C715.974 383.885 715.971 383.882 715.965 383.882C715.704 383.784 715.566 383.495 715.658 383.228C715.664 383.207 715.962 382.324 716.072 381.195C716.066 381.186 716.054 381.176 716.047 381.164C716.038 381.149 715.09 379.404 713.62 379.321C713.335 379.306 713.117 379.06 713.133 378.775C713.148 378.49 713.393 378.272 713.679 378.287Z" fill="#E57E73"/>
<path d="M675.002 552.875H767.71C766.381 538.916 764.73 518.215 764.338 508.768C763.81 496.036 766.093 461.874 766.142 451.222C766.191 440.569 763.11 425.672 763.11 425.672C762.702 424.448 761.843 420.856 754.166 417.998C746.489 415.142 739.686 414.679 739.686 414.679C746.311 431.76 744.436 475.603 744.436 475.603C744.436 475.603 738.441 459.313 730.027 441.449C722.645 425.776 705.907 411.29 705.907 411.29C698.006 411.547 684.241 414.814 684.241 414.814C670.516 429.858 679.651 460.895 681.943 477.425C684.232 493.954 682.164 511.342 676.094 545.725C675.714 547.878 675.349 550.277 675.002 552.875Z" fill="white"/>
<path d="M744.553 471.912L744.436 476.531C750.009 438.188 746.919 417.929 746.406 415.736C742.433 414.868 739.687 414.681 739.687 414.681C745.145 428.753 744.832 460.995 744.553 471.912Z" fill="#ABD3FC"/>
<path d="M744.192 474.943C742.986 471.732 737.451 457.203 730.029 441.449C722.646 425.776 705.908 411.29 705.908 411.29C703.567 411.366 700.71 411.707 697.851 412.148C697.851 412.148 738.034 456.31 744.438 476.529L744.192 474.943Z" fill="#ABD3FC"/>
<path d="M742.494 552.876H743.721C744.94 527.062 745.799 501.248 744.436 475.604C745.167 501.319 743.764 527.194 742.494 552.876Z" fill="#ABD3FC"/>
<path d="M681.943 477.425C684.232 493.954 682.164 511.342 676.094 545.726C675.714 547.879 675.349 550.277 675.002 552.875H685.505L687.432 533.009C687.935 527.43 689.859 506.226 690.494 500.076C691.231 492.976 692.7 491.994 696.376 472.269C700.052 452.544 700.93 435.457 700.93 435.457L678.233 456.053C679.46 464.043 681.133 471.594 681.943 477.425Z" fill="#D4EBFF"/>
<path d="M738.031 413.848C738.031 413.848 742.935 433.224 744.435 475.603C744.435 475.603 746.853 450.244 746.242 433.957C745.629 417.673 745.174 415.48 745.174 415.48C745.174 415.48 740.05 413.428 738.031 413.848Z" fill="white"/>
<path d="M744.437 475.603C730.028 441.45 699.163 411.953 699.163 411.953C702.259 410.398 710.412 410.891 710.412 410.891C710.412 410.891 722.427 424.528 730.807 440.815C742.093 462.752 744.437 475.603 744.437 475.603Z" fill="white"/>
<path d="M685.173 415.484C685.173 415.484 701.844 416.822 698.791 437.449C695.738 458.072 682.363 493.005 677.953 503.654C673.544 514.3 660.415 510.825 659.592 499.259C658.767 487.695 667.122 445.426 669.583 435.289C672.041 425.155 676.566 415.291 685.173 415.484Z" fill="#F6AF9A"/>
<path d="M687.843 415.216C687.843 415.216 675.609 410.204 668.809 434.079C662.007 457.954 657.598 489.73 657.414 500.383C657.229 511.035 667.683 516.295 674.32 512.32C680.96 508.348 688.128 483.614 692.436 471.014C699.162 451.344 709.634 420.043 687.843 415.216Z" fill="white"/>
<path d="M659.455 498.231C659.455 498.231 659.342 532.114 660.851 552.876H675.257C676.322 543.472 677.66 533.172 678.421 527.519C680.167 514.56 681.753 504.239 681.94 495.988C682.186 485.207 660.195 482.944 659.455 498.231Z" fill="#F6AF9A"/>
<path d="M671.342 481.097C671.342 481.097 658.698 482.201 657.412 497.995C656.445 509.886 656.307 535.102 656.771 552.876H680.532C682.542 531.445 686.092 493.222 686.166 489.698C686.27 484.772 677.553 479.996 671.342 481.097Z" fill="white"/>
<path d="M782.078 508.868V543.226C782.078 548.131 778.083 552.121 773.177 552.121H654.679C649.77 552.121 645.778 548.131 645.778 543.226V316.554C645.778 311.649 649.77 307.659 654.679 307.659H773.177C778.083 307.659 782.078 311.649 782.078 316.554V462.979C782.511 464.065 782.94 465.145 783.364 466.221C783.502 466.083 783.585 465.896 783.585 465.687V316.554C783.585 310.818 778.915 306.153 773.177 306.153H654.679C648.938 306.153 644.271 310.818 644.271 316.554V543.226C644.271 548.962 648.938 553.627 654.679 553.627H773.177C778.915 553.627 783.585 548.962 783.585 543.226V509.055C783.088 509.03 782.584 508.969 782.078 508.868Z" fill="white"/>
<path d="M740.644 311.726H687.215C683.937 311.726 681.28 309.069 681.28 305.797V304.558H746.575V305.797C746.575 309.069 743.921 311.726 740.644 311.726Z" fill="#303C72"/>
<path d="M1070.34 359.061C1072.08 357.84 1073.98 356.904 1076.01 356.276C1084.36 353.675 1105.96 349.381 1122.33 367.502C1139.8 386.84 1114.51 441.673 1087.44 468.683C1087.44 468.683 1115.36 484.951 1116.92 504.667C1118.48 524.383 1086.93 546.258 1041.52 553.611L1031.54 386.297L1070.34 359.061Z" fill="#5A789F"/>
<path d="M1075.83 356.333C1073.59 372.478 1072.38 397.47 1068.99 424.722C1063.68 467.552 1050.35 529.903 1102.52 529.636C1089.24 540.319 1067.68 549.376 1041.52 553.612L1031.54 386.299L1070.34 359.059C1072.01 357.891 1073.83 356.967 1075.77 356.354L1075.83 356.333Z" fill="#5A789F"/>
<path d="M1108.68 371.46C1088.39 395.317 1068.65 419.738 1049.14 444.245C1043.6 451.238 1037.62 459.014 1032.06 465.995C1020.61 480.276 1008.76 494.802 996.761 508.613L996.521 508.429C997.043 507.666 997.571 506.908 998.096 506.151C1000.73 502.375 1003.44 498.59 1006.13 494.875C1013.71 484.478 1021.59 474.11 1029.6 464.038C1037.59 454.054 1046.09 444 1054.24 434.132C1064.79 421.416 1075.62 408.607 1086.44 396.127C1091.2 390.633 1096.22 384.904 1101.04 379.484C1103.5 376.733 1105.96 373.981 1108.45 371.258L1108.68 371.46Z" fill="#5AA5D1"/>
<path d="M1098.61 505.404C1080.93 508.419 1062.67 508.171 1045.07 504.683C1043.23 504.312 1041.32 503.876 1039.51 503.398C1031.71 501.285 1024.18 497.905 1017.54 493.279C1016.64 492.65 1015.55 491.838 1014.69 491.144C1013.78 490.411 1012.86 489.623 1012 488.829L1012.18 488.586C1013.83 489.504 1015.45 490.427 1017.11 491.279C1018.71 492.108 1020.49 492.985 1022.13 493.73C1026.75 495.859 1031.54 497.638 1036.38 499.184C1041.23 500.739 1046.14 502.165 1051.13 503.199C1064.87 505.919 1079 506.569 1092.96 505.631C1094.83 505.502 1096.7 505.343 1098.56 505.106L1098.61 505.404Z" fill="#5AA5D1"/>
<mask id="mask1_1949_925" style="mask-type:luminance" maskUnits="userSpaceOnUse" x="906" y="299" width="153" height="261">
<path d="M906.728 299.684H1058.33V559.71H906.728V299.684Z" fill="white"/>
</mask>
<g mask="url(#mask1_1949_925)">
<path d="M1046.15 559.675H918.846C912.424 559.675 907.214 554.473 907.214 548.053V311.728C907.214 305.309 912.424 300.104 918.846 300.104H1046.15C1052.57 300.104 1057.78 305.309 1057.78 311.728V548.053C1057.78 554.473 1052.57 559.675 1046.15 559.675Z" fill="#303C72"/>
</g>
<path d="M1041.74 552.875H923.245C917.912 552.875 913.589 548.554 913.589 543.226V316.553C913.589 311.225 917.912 306.907 923.245 306.907H1041.74C1047.07 306.907 1051.4 311.225 1051.4 316.553V543.226C1051.4 548.554 1047.07 552.875 1041.74 552.875Z" fill="#D4EBFF"/>
<path d="M940.455 433.604C941.366 428.65 945.269 424.552 950.522 423.638C957.27 422.463 963.692 426.975 964.867 433.717C965.11 435.119 965.11 436.505 964.892 437.833C964.843 438.146 964.778 438.456 964.704 438.763C963.496 444.685 956.684 477.581 950.283 497.757C949.611 501.242 946.856 504.112 943.152 504.757C938.366 505.591 933.809 502.389 932.974 497.604C932.646 495.733 937.976 444.075 940.455 433.604Z" fill="#DE9681"/>
<path d="M952.077 435.448C952.077 435.448 957.324 430.617 964.89 433.853C965.111 435.209 965.102 436.549 964.893 437.834C964.844 438.147 964.78 438.457 964.706 438.764C963.663 443.874 958.45 469.068 952.927 488.842C952.427 486.413 950.892 483.987 950.131 483.383C948.938 482.435 945.83 479.619 944.305 474.672C943.212 471.135 945.293 457.894 947.677 450.931C950.061 443.966 952.077 435.448 952.077 435.448Z" fill="#EA9A88"/>
<path d="M955.964 423.108C955.964 423.108 951.263 422.136 944.878 424.954C942.966 425.798 941.137 429.101 939.895 431.662C935.148 441.462 931.533 471.232 931.533 471.232C931.533 471.232 943.905 482.762 956.869 486.461C956.869 486.461 966.522 444.41 966.329 435.601C966.135 426.795 959.707 424.013 955.964 423.108Z" fill="#FCF5F1"/>
<path d="M962.902 458.231L947.268 433.426C947.268 433.426 950.576 443.542 948.891 450.32C947.207 457.102 943.2 466.377 942.574 471.911C942.304 474.306 942.429 477.195 942.659 479.701C946.839 482.379 951.809 485.017 956.869 486.461C956.869 486.461 960.195 471.978 962.902 458.231Z" fill="#F0E2DA"/>
<path d="M945.404 486.252C940.648 484.467 935.339 486.871 933.554 491.625C933.201 492.561 933.014 493.515 932.974 494.46C932.971 494.46 929.549 540.477 928.629 552.875H939.427C940.543 547.544 942.645 537.879 944.897 529.49C948.742 515.169 950.061 502.296 950.669 496.367C950.841 495.585 950.908 494.8 950.875 494.027C950.718 490.451 948.966 487.589 945.404 486.252Z" fill="#DE9681"/>
<path d="M967.689 534.791C957.542 535.889 949.657 543.416 947.641 552.876H992.694C990.276 541.459 979.546 533.509 967.689 534.791Z" fill="#F6AF9A"/>
<path d="M946.312 552.876H993.65C990.202 532.23 974.623 532.212 972.663 532.24C972.663 532.24 951.018 530.863 946.312 552.876Z" fill="#8C4949"/>
<path d="M988.142 498.104C964.258 498.036 959.306 509.167 959.306 509.167C958.907 512.241 958.842 515.657 957.425 518.565C950.871 531.993 948.312 547.311 947.551 552.875H1027.87C1027.39 544.609 1024.37 536.784 1020.34 526.804C1017.81 520.525 1011.71 512.274 1011.62 505.799C1011.62 505.799 1009.18 498.162 988.142 498.104Z" fill="#F6AF9A"/>
<path d="M959.028 511.64C959.028 511.64 957.481 513.947 953.495 524.725C950.593 532.568 947.767 546.091 946.444 552.876H1028.9C1027.86 543.564 1025.09 533.35 1021.94 527.584C1018.19 520.688 1012.82 509.352 1012.82 509.352C1002.2 512.054 959.028 511.64 959.028 511.64Z" fill="#8C4949"/>
<path d="M1021.95 527.584C1018.19 520.688 1012.82 509.352 1012.82 509.352C1005.65 511.177 983.613 511.582 970.073 511.649C963.927 515.772 962.156 520.489 962.156 520.489C962.156 520.489 978.655 526.096 999.498 526.449C1010.38 526.449 1014.67 526.449 1016.1 527.228C1017.1 527.774 1018.67 543.521 1019.52 552.876H1028.9C1027.87 543.564 1025.09 533.35 1021.95 527.584Z" fill="#824444"/>
<path d="M982.357 552.875H1027.28C1025.11 543.373 1017.02 535.935 1006.79 535.055C995.186 534.058 984.858 541.839 982.357 552.875Z" fill="#F6AF9A"/>
<path d="M980.357 552.876H1028.55C1026.48 541.898 1020.79 531.749 1004.6 532.255C1004.6 532.255 984.42 532.243 980.357 552.876Z" fill="#8C4949"/>
<path d="M1017.65 534.998C1018.35 540.445 1019.05 547.656 1019.52 552.876H1028.55C1027.18 545.595 1024.21 538.682 1017.65 534.998Z" fill="#824444"/>
<path d="M957.679 490.433C957.679 490.433 951.502 486.793 950.407 480.922C949.311 475.051 952.453 455.532 953.251 446.401C954.052 437.269 946.734 429.393 945.752 424.86C945.752 424.86 956.089 420.001 978.755 417.777C978.755 417.777 991.532 418.145 1003.81 420.378C1013.83 422.197 1019.04 427.678 1021 430.816C1022.96 433.954 1021.68 441.603 1018.96 450.946C1016.23 460.289 1013.23 468.383 1012.93 478.278C1012.78 483.057 1012.57 500.113 1012.87 511.281C1012.87 511.281 1014.06 518.299 989.795 519.799C967.396 521.185 959.081 511.388 959.081 511.388C958.237 502.202 957.679 490.433 957.679 490.433Z" fill="#DE9681"/>
<path d="M1016.47 459.229C1014.65 465.391 1013.14 471.399 1012.93 478.279C1012.83 481.61 1012.69 490.904 1012.72 500.013C1007.4 485.653 1000.28 442.779 1000.28 442.779L1016.47 459.229Z" fill="#E57E73"/>
<path d="M967.464 421.148L968.796 397.481C968.952 392.791 972.162 388.568 976.939 387.332C982.754 385.826 988.688 389.316 990.194 395.128C990.4 395.917 990.51 396.711 990.538 397.493L992.618 422.902C992.637 423.08 992.683 423.887 992.683 423.887C993.042 429.865 989.12 435.033 983.097 436.591C976.258 438.361 969.504 434.582 967.734 427.745C967.182 425.617 967.317 423.414 967.464 421.148Z" fill="#DE9681"/>
<path d="M968.797 397.481C968.953 392.791 972.163 388.568 976.94 387.332C982.755 385.826 988.689 389.316 990.196 395.128C990.401 395.917 990.512 396.711 990.539 397.493L990.647 398.815C985.793 409.728 976.956 417.85 967.542 419.816L968.797 397.481Z" fill="#D38475"/>
<path d="M959.602 420.716C959.602 420.716 961.179 427.841 972.44 429.678C983.701 431.515 1006.54 420.793 1006.54 420.793C1006.54 420.793 1011.44 420.725 1014.82 422.826C1014.82 422.826 1021.21 426.82 1022.29 431.721C1023.36 436.625 1021.93 445.306 1021.06 448.474C1020.19 451.639 1014.82 479.674 1014.82 486.698C1014.82 491.602 1017.66 505.555 1019.38 513.529C1020.06 516.732 1017.92 519.845 1014.68 520.339C1003.94 521.974 980.341 524.593 957.294 520.639C953.52 519.992 950.857 516.584 951.105 512.769C951.682 503.954 952.637 489.28 952.615 488.667C952.615 488.667 947.853 485.756 946.828 477.481C945.803 469.208 952.087 448.676 951.412 445.152C950.737 441.628 944.76 428.307 944.88 424.955C944.88 424.955 951.366 421.851 959.602 420.716Z" fill="#FCF5F1"/>
<path d="M987.694 522.67C999.078 522.421 1008.81 521.231 1014.68 520.338C1017.92 519.845 1020.06 516.728 1019.38 513.529C1017.66 505.555 1014.82 491.602 1014.82 486.697C1014.82 479.673 1020.19 451.639 1021.06 448.474C1021.26 447.75 1021.48 446.741 1021.7 445.557C1012.08 440.106 1003.09 438.88 998.728 444.692C998.728 444.692 1000.96 471.006 1000.92 476.063C1000.89 481.118 989.882 488.893 973.325 487.185C973.325 487.185 988.658 492.804 1002.66 485.651L1004.33 490.504H1010.62C1010.62 490.504 1011.45 500.77 1012.68 507.818C1013.9 514.83 1001.06 519.783 987.694 522.67Z" fill="#F0E2DA"/>
<path d="M998.818 438.891C998.674 437.68 998.695 436.432 998.904 435.168C1000.09 427.969 1006.89 423.095 1014.1 424.279C1020.08 425.264 1024.45 430.116 1025.09 435.852L1039.94 498.564C1040.26 499.791 1040.33 501.101 1040.11 502.432C1039.27 507.542 1034.44 511.001 1029.33 510.161C1025.02 509.449 1021.89 505.913 1021.51 501.76C1021.51 501.76 1002.75 457.549 999.159 440.677C999.005 440.094 998.892 439.496 998.818 438.891Z" fill="#DE9681"/>
<path d="M1009.61 422.826C1009.61 422.826 996.117 424.644 998.111 441.486C1000.1 458.328 1006.85 488.666 1006.85 488.666C1006.85 488.666 1030.92 488.82 1039.05 477.02C1039.05 477.02 1027.85 437.833 1024.79 431.058C1021.72 424.279 1014.37 421.022 1009.61 422.826Z" fill="#FCF5F1"/>
<path d="M1028.7 492.501C1024.92 493.39 1022.22 496.442 1021.6 500.037C1021.47 500.816 1021.43 501.62 1021.5 502.432C1021.34 508.505 1021.55 521.311 1023.57 536.291C1024.31 541.797 1024.93 547.799 1025.39 552.876H1037.47C1038.46 534.607 1040.2 502.423 1040.2 502.423C1040.28 501.46 1040.21 500.469 1039.98 499.482C1038.79 494.439 1033.74 491.314 1028.7 492.501Z" fill="#DE9681"/>
<path d="M979.321 348.163C979.321 348.163 1000.6 348.955 1000.13 374.106C999.679 398.266 979.376 418.031 961.981 412.958C956.452 410.992 952.81 398.41 952.617 379.498C952.42 360.585 960.545 347.501 979.321 348.163Z" fill="#DE9681"/>
<path d="M1007.56 407.391C1004.97 398.809 1007.07 382.443 1006.02 375.06C1005.99 374.867 1005.95 374.689 1005.9 374.523C1005.24 364.662 1001.99 356.736 994.475 350.755C986.387 344.317 973.205 347.311 973.205 347.311C967.216 346.863 954.783 352.102 951.337 360.334C947.891 368.567 948.94 380.394 950.29 383.538C951.637 386.681 949.839 389.675 949.091 391.77C948.342 393.865 949.839 395.96 951.186 398.656C952.536 401.349 950.29 404.493 950.29 404.493C952.536 403.297 953.583 400.002 952.687 397.159C951.788 394.313 951.337 393.267 951.923 391.107C952.506 388.945 952.984 387.577 953.285 384.286C953.583 380.992 952.834 374.406 954.632 369.916C956.43 365.423 963.469 360.334 963.469 360.334C965.568 366.772 968.563 371.861 972.456 373.207C976.353 374.554 978.75 376.501 979.498 378.446C980.247 380.394 979.047 383.985 979.498 388.325C979.946 392.669 981.744 392.816 983.091 394.764C984.441 396.708 980.695 400.153 979.796 401.649C978.897 403.146 979.498 405.689 980.545 407.637C981.594 409.581 980.845 411.826 980.845 411.826C982.643 411.078 982.343 407.486 981.744 404.493C981.146 401.499 983.392 400.751 984.739 398.506C986.089 396.26 984.291 393.116 983.99 391.469C983.69 389.822 986.12 384.218 987.019 384.666C987.537 384.927 988.154 388.016 988.636 391.681C988.397 393.202 988.36 394.733 988.587 396.242C988.587 396.242 988.973 397.15 989.317 398.601C989.342 399.015 989.366 399.42 989.385 399.806C989.424 400.665 989.599 401.662 989.826 402.631C989.854 404.554 989.559 406.704 988.587 408.79C985.795 414.777 982.294 412.774 983.07 421.691C983.846 430.61 981.588 437.784 978.897 442.345C976.206 446.909 976.157 460.224 981.674 467.739C981.674 467.739 982.588 461.843 986.687 460.064C990.787 458.285 997.19 449.55 996.767 444.004C996.341 438.459 1000.06 422.513 1009.54 420.884C1009.54 420.884 1010.16 415.973 1007.56 407.391Z" fill="#8C4949"/>
<path d="M963.47 360.334C963.835 354.67 967.609 348.94 973.205 347.312C968.272 350.1 965.111 355.013 963.47 360.334Z" fill="#7A3D3D"/>
<path d="M967.218 359.139C974.299 361.914 973.057 365.374 977.079 370.297C978.438 372.174 980.66 372.637 982.611 373.585C985.097 375.127 986.775 378.06 986.689 380.992C986.41 378.532 984.986 376.17 983.01 374.72C980.672 373.223 978.294 373.395 976.401 370.886C972.33 365.889 973.956 362.798 967.218 359.139Z" fill="#7A3D3D"/>
<path d="M971.709 356.144C975.606 356.809 979.459 358.751 981.577 362.201C985.397 367.133 991.634 371.982 990.883 378.895C990.726 372.093 984.614 367.786 980.895 362.707C978.944 359.3 975.357 357.321 971.709 356.144Z" fill="#7A3D3D"/>
<path d="M971.709 351.505C978.306 350.71 985.535 352.231 990.214 357.228C992.513 359.485 994.498 362.148 995.655 365.175C996.167 366.577 996.532 368.077 996.532 369.577C996.505 370.426 996.526 371.466 996.618 372.312C997.048 377.002 998.155 381.879 996.873 386.532C997.965 380.824 995.685 375.101 995.719 369.396C995.292 363.847 991.414 359.194 987.296 355.74C982.93 352.339 977.125 351.391 971.709 351.505Z" fill="#7A3D3D"/>
<path d="M1002.57 377.587C1003.81 382.842 1004.18 388.51 1002.55 393.724C1001.85 396.325 1000.49 398.742 999.802 401.318C999.225 403.993 1000.84 406.56 1000.57 409.269C1000.52 412.977 998.952 416.832 995.81 418.985C995.098 419.47 994.41 420.044 993.83 420.679C990.86 423.976 989.63 428.512 989.274 432.862C989.176 434.671 989.222 436.508 988.832 438.287C987.804 445.501 980.928 450.934 981.674 458.46C980.526 450.992 987.237 445.299 988.145 438.162C988.492 436.398 988.406 434.594 988.492 432.809C988.814 428.049 990.198 423.028 993.668 419.574C994.147 419.099 994.739 418.636 995.294 418.249C998.976 415.74 1000.21 410.864 999.565 406.625C999.246 404.818 998.543 402.996 999.071 401.153C999.823 398.506 1001.21 396.172 1001.99 393.546C1003.74 388.43 1003.52 382.848 1002.57 377.587Z" fill="#7A3D3D"/>
<path d="M993.209 397.373C995.952 406.274 992.549 407.547 989.226 414.727C988.557 416.242 988.622 417.757 988.487 419.395C987.735 422.437 986.505 423.201 986.689 426.894C986.124 423.986 986.907 422.395 987.729 419.763C987.935 418.324 987.646 416.803 988.11 415.383C988.168 415.107 988.321 414.69 988.41 414.42C991.73 406.835 994.854 407.044 993.209 397.373Z" fill="#7A3D3D"/>
<path d="M1003.46 401.638C1003.29 404.306 1002.97 407.017 1003.44 409.637C1003.59 410.557 1004.17 411.195 1004.48 412.029C1005.19 413.78 1005.42 415.713 1005.09 417.565C1004.7 419.326 1003.83 420.979 1003.84 422.825C1003.45 421.013 1004.12 419.237 1004.39 417.464C1004.73 410.167 1000.55 412.014 1003.46 401.638Z" fill="#7A3D3D"/>
<path d="M997.303 424.758C995.373 427.316 993.465 430.347 993.6 433.647C994.122 438.579 994.336 444.737 991.688 449.105C993.517 444.376 993.146 439.085 992.772 434.122C992.48 430.469 994.751 427.141 997.303 424.758Z" fill="#7A3D3D"/>
<path d="M991.914 380.306C991.914 380.306 995.36 380.579 995.434 386.001C995.501 391.212 992.368 397.215 988.585 396.242C987.379 395.856 986.333 391.298 986.161 387.222C985.989 383.149 987.864 380.293 991.914 380.306Z" fill="#DE9681"/>
<path d="M989.2 392.358C987.675 385.309 991.289 383.31 991.443 383.227C991.63 383.126 991.86 383.199 991.961 383.383C992.059 383.57 991.989 383.8 991.805 383.902C991.7 383.96 989.78 385.055 989.605 388.594C990.669 387.346 992.366 387.125 992.458 387.113C992.667 387.088 992.857 387.239 992.885 387.447C992.909 387.659 992.759 387.849 992.55 387.873C992.452 387.886 990.172 388.192 989.635 390.14C989.688 390.766 989.786 391.447 989.948 392.195C989.988 392.382 989.884 392.569 989.706 392.634C989.691 392.64 989.672 392.646 989.654 392.649C989.448 392.695 989.243 392.563 989.2 392.358Z" fill="#BA6D5B"/>
<path d="M1041.74 306.907H923.245C917.912 306.907 913.589 311.225 913.589 316.553V328.411H1051.4V316.553C1051.4 311.225 1047.07 306.907 1041.74 306.907Z" fill="#8CCBFF"/>
<path d="M1042.25 317.182H1029C1028.19 317.182 1027.53 316.526 1027.53 315.713V315.48C1027.53 314.67 1028.19 314.014 1029 314.014H1042.25C1043.06 314.014 1043.72 314.67 1043.72 315.48V315.713C1043.72 316.526 1043.06 317.182 1042.25 317.182Z" fill="white"/>
<path d="M1042.25 324.044H1033.86C1033.05 324.044 1032.39 323.385 1032.39 322.575V322.342C1032.39 321.529 1033.05 320.873 1033.86 320.873H1042.25C1043.07 320.873 1043.72 321.532 1043.72 322.342V322.575C1043.72 323.385 1043.07 324.044 1042.25 324.044Z" fill="white"/>
<path d="M1041.74 553.627H923.247C917.506 553.627 912.836 548.962 912.836 543.226V316.554C912.836 310.818 917.506 306.153 923.247 306.153H1041.74C1047.48 306.153 1052.15 310.818 1052.15 316.554V543.226C1052.15 548.962 1047.48 553.627 1041.74 553.627ZM923.247 307.659C918.338 307.659 914.346 311.649 914.346 316.554V543.226C914.346 548.131 918.338 552.121 923.247 552.121H1041.74C1046.65 552.121 1050.64 548.131 1050.64 543.226V316.554C1050.64 311.649 1046.65 307.659 1041.74 307.659H923.247Z" fill="white"/>
<path d="M1009.21 311.726H955.777C952.503 311.726 949.846 309.069 949.846 305.797V304.558H1015.14V305.797C1015.14 309.069 1012.48 311.726 1009.21 311.726Z" fill="#303C72"/>
<path d="M924.438 341.131H805.18C801.348 341.131 798.239 344.238 798.239 348.069V382.642C798.239 386.476 801.348 389.58 805.18 389.58H912.291L931.379 412.471V348.069C931.379 344.238 928.271 341.131 924.438 341.131Z" fill="white"/>
<path d="M876.525 356.862H917.684C918.853 356.862 919.801 355.915 919.801 354.746V353.022C919.801 351.854 918.853 350.906 917.684 350.906H876.525C875.352 350.906 874.404 351.854 874.404 353.022V354.746C874.404 355.915 875.352 356.862 876.525 356.862Z" fill="#D4E7FF"/>
<path d="M810.492 356.862H863.575C864.747 356.862 865.695 355.915 865.695 354.746V353.022C865.695 351.854 864.747 350.906 863.575 350.906H810.492C809.323 350.906 808.375 351.854 808.375 353.022V354.746C808.375 355.915 809.323 356.862 810.492 356.862Z" fill="#D4E7FF"/>
<path d="M892.594 368.506H917.686C918.855 368.506 919.803 367.558 919.803 366.39V364.669C919.803 363.498 918.855 362.55 917.686 362.55H892.594C891.425 362.55 890.474 363.498 890.474 364.669V366.39C890.474 367.558 891.425 368.506 892.594 368.506Z" fill="#D4E7FF"/>
<path d="M868.474 368.506H880.308C881.48 368.506 882.428 367.558 882.428 366.39V364.669C882.428 363.498 881.48 362.55 880.308 362.55H868.474C867.305 362.55 866.356 363.498 866.356 364.669V366.39C866.356 367.558 867.305 368.506 868.474 368.506Z" fill="#D4E7FF"/>
<path d="M810.492 368.506H856.668C857.84 368.506 858.788 367.559 858.788 366.39V364.669C858.788 363.498 857.84 362.55 856.668 362.55H810.492C809.323 362.55 808.375 363.498 808.375 364.669V366.39C808.375 367.559 809.323 368.506 810.492 368.506Z" fill="#D4E7FF"/>
<path d="M903.483 380.151H917.686C918.855 380.151 919.803 379.204 919.803 378.032V376.311C919.803 375.14 918.855 374.192 917.686 374.192H903.483C902.314 374.192 901.366 375.14 901.366 376.311V378.032C901.366 379.204 902.314 380.151 903.483 380.151Z" fill="#D4E7FF"/>
<path d="M810.492 380.151H892.273C893.443 380.151 894.391 379.204 894.391 378.032V376.311C894.391 375.14 893.443 374.192 892.273 374.192H810.492C809.323 374.192 808.375 375.14 808.375 376.311V378.032C808.375 379.204 809.323 380.151 810.492 380.151Z" fill="#D4E7FF"/>
<path d="M891.884 390.586H805.181C800.8 390.586 797.234 387.022 797.234 382.642V348.068C797.234 343.688 800.8 340.127 805.181 340.127H902.464C903.02 340.127 903.468 340.575 903.468 341.13C903.468 341.686 903.02 342.136 902.464 342.136H805.181C801.911 342.136 799.247 344.796 799.247 348.068V382.642C799.247 385.915 801.911 388.577 805.181 388.577H891.884C892.44 388.577 892.891 389.025 892.891 389.58C892.891 390.135 892.44 390.586 891.884 390.586Z" fill="#8CCBFF"/>
<path d="M891.664 282.572H772.408C768.576 282.572 765.468 285.679 765.468 289.51V353.912L784.556 331.022H891.664C895.499 331.022 898.607 327.915 898.607 324.084V289.51C898.607 285.679 895.499 282.572 891.664 282.572Z" fill="white"/>
<path d="M844.99 298.402H779.441C778.268 298.402 777.32 297.454 777.32 296.285V294.562C777.32 293.393 778.268 292.445 779.441 292.445H844.99C846.159 292.445 847.107 293.393 847.107 294.562V296.285C847.107 297.454 846.159 298.402 844.99 298.402Z" fill="#D4E7FF"/>
<path d="M886.633 298.402H857.94C856.771 298.402 855.823 297.454 855.823 296.285V294.562C855.823 293.393 856.771 292.445 857.94 292.445H886.633C887.805 292.445 888.753 293.393 888.753 294.562V296.285C888.753 297.454 887.805 298.402 886.633 298.402Z" fill="#D4E7FF"/>
<path d="M803.72 310.044H779.44C778.271 310.044 777.32 309.096 777.32 307.928V306.204C777.32 305.036 778.271 304.088 779.44 304.088H803.72C804.889 304.088 805.837 305.036 805.837 306.204V307.928C805.837 309.096 804.889 310.044 803.72 310.044Z" fill="#D4E7FF"/>
<path d="M867.04 310.044H816.816C815.647 310.044 814.699 309.097 814.699 307.928V306.204C814.699 305.036 815.647 304.088 816.816 304.088H867.04C868.209 304.088 869.157 305.036 869.157 306.204V307.928C869.157 309.097 868.209 310.044 867.04 310.044Z" fill="#D4E7FF"/>
<path d="M886.631 310.044H878.844C877.672 310.044 876.724 309.096 876.724 307.928V306.204C876.724 305.036 877.672 304.088 878.844 304.088H886.631C887.803 304.088 888.751 305.036 888.751 306.204V307.928C888.751 309.096 887.803 310.044 886.631 310.044Z" fill="#D4E7FF"/>
<path d="M831.778 321.691H779.441C778.272 321.691 777.32 320.74 777.32 319.572V317.851C777.32 316.679 778.272 315.731 779.441 315.731H831.778C832.947 315.731 833.895 316.679 833.895 317.851V319.572C833.895 320.74 832.947 321.691 831.778 321.691Z" fill="#D4E7FF"/>
<path d="M886.633 321.691H842.991C841.819 321.691 840.871 320.74 840.871 319.572V317.851C840.871 316.679 841.819 315.731 842.991 315.731H886.633C887.805 315.731 888.753 316.679 888.753 317.851V319.572C888.753 320.74 887.805 321.691 886.633 321.691Z" fill="#D4E7FF"/>
<path d="M891.662 332.025H798.24C797.684 332.025 797.233 331.577 797.233 331.022C797.233 330.466 797.684 330.016 798.24 330.016H891.662C894.936 330.016 897.6 327.356 897.6 324.084V289.51C897.6 286.237 894.936 283.575 891.662 283.575H772.407C769.136 283.575 766.473 286.237 766.473 289.51V295.424C766.473 295.979 766.022 296.43 765.466 296.43C764.911 296.43 764.46 295.979 764.46 295.424V289.51C764.46 285.13 768.025 281.566 772.407 281.566H891.662C896.047 281.566 899.613 285.13 899.613 289.51V324.084C899.613 328.464 896.047 332.025 891.662 332.025Z" fill="#8CCBFF"/>
</svg>
