<svg width="1702" height="803" viewBox="0 0 1702 803" fill="none" xmlns="http://www.w3.org/2000/svg">
<rect x="0.0712891" width="1701.81" height="802.422" fill="white"/>
<path d="M663.451 598.398H659.232L666.913 576.58H671.793L679.484 598.398H675.266L669.438 581.054H669.268L663.451 598.398ZM663.589 589.843H675.095V593.018H663.589V589.843ZM688.806 604.875C687.421 604.875 686.231 604.687 685.237 604.311C684.243 603.941 683.444 603.444 682.84 602.819C682.236 602.194 681.817 601.502 681.583 600.742L685.056 599.9C685.212 600.22 685.44 600.536 685.738 600.848C686.036 601.168 686.437 601.431 686.942 601.637C687.453 601.85 688.096 601.956 688.87 601.956C689.964 601.956 690.869 601.69 691.587 601.157C692.304 600.632 692.663 599.765 692.663 598.558V595.458H692.471C692.272 595.855 691.981 596.264 691.597 596.683C691.221 597.102 690.72 597.453 690.095 597.737C689.477 598.022 688.699 598.164 687.762 598.164C686.505 598.164 685.365 597.869 684.342 597.279C683.327 596.683 682.517 595.795 681.913 594.616C681.317 593.43 681.018 591.946 681.018 590.163C681.018 588.366 681.317 586.85 681.913 585.614C682.517 584.371 683.33 583.43 684.353 582.791C685.376 582.144 686.516 581.821 687.773 581.821C688.731 581.821 689.52 581.985 690.138 582.311C690.763 582.631 691.26 583.018 691.629 583.473C691.998 583.92 692.279 584.343 692.471 584.74H692.684V582.034H696.487V598.664C696.487 600.063 696.153 601.221 695.486 602.137C694.818 603.053 693.905 603.739 692.748 604.193C691.59 604.648 690.276 604.875 688.806 604.875ZM688.838 595.138C689.655 595.138 690.351 594.939 690.926 594.541C691.501 594.144 691.938 593.572 692.236 592.826C692.535 592.08 692.684 591.186 692.684 590.142C692.684 589.112 692.535 588.21 692.236 587.436C691.945 586.661 691.512 586.061 690.937 585.635C690.369 585.202 689.669 584.985 688.838 584.985C687.979 584.985 687.261 585.209 686.686 585.656C686.111 586.104 685.677 586.718 685.386 587.5C685.095 588.274 684.949 589.154 684.949 590.142C684.949 591.143 685.095 592.02 685.386 592.773C685.685 593.519 686.121 594.101 686.697 594.52C687.279 594.932 687.993 595.138 688.838 595.138ZM710.869 591.516V582.034H714.726V598.398H710.986V595.49H710.816C710.447 596.406 709.839 597.155 708.994 597.737C708.156 598.32 707.123 598.611 705.894 598.611C704.822 598.611 703.873 598.373 703.05 597.897C702.233 597.414 701.594 596.715 701.132 595.799C700.67 594.875 700.44 593.76 700.44 592.453V582.034H704.296V591.857C704.296 592.894 704.58 593.718 705.148 594.328C705.717 594.939 706.462 595.245 707.386 595.245C707.954 595.245 708.504 595.106 709.037 594.829C709.57 594.552 710.006 594.14 710.347 593.593C710.695 593.039 710.869 592.347 710.869 591.516ZM723.4 598.728C722.363 598.728 721.429 598.544 720.598 598.174C719.775 597.798 719.121 597.244 718.638 596.512C718.162 595.781 717.924 594.879 717.924 593.806C717.924 592.883 718.095 592.12 718.436 591.516C718.777 590.912 719.242 590.429 719.831 590.067C720.421 589.705 721.085 589.431 721.824 589.247C722.569 589.055 723.34 588.916 724.135 588.831C725.094 588.732 725.872 588.643 726.468 588.565C727.065 588.48 727.498 588.352 727.768 588.181C728.045 588.004 728.184 587.73 728.184 587.361V587.297C728.184 586.495 727.946 585.873 727.47 585.433C726.994 584.992 726.309 584.772 725.414 584.772C724.469 584.772 723.72 584.978 723.166 585.39C722.619 585.802 722.25 586.289 722.058 586.85L718.457 586.338C718.741 585.344 719.21 584.513 719.863 583.845C720.517 583.171 721.316 582.666 722.26 582.333C723.205 581.992 724.249 581.821 725.392 581.821C726.181 581.821 726.966 581.914 727.747 582.098C728.528 582.283 729.242 582.588 729.888 583.014C730.535 583.433 731.053 584.005 731.444 584.73C731.841 585.454 732.04 586.36 732.04 587.446V598.398H728.333V596.15H728.205C727.971 596.605 727.64 597.031 727.214 597.428C726.795 597.819 726.266 598.135 725.627 598.377C724.995 598.611 724.253 598.728 723.4 598.728ZM724.402 595.894C725.176 595.894 725.847 595.742 726.415 595.436C726.983 595.124 727.42 594.712 727.726 594.201C728.038 593.689 728.194 593.132 728.194 592.528V590.6C728.074 590.699 727.868 590.791 727.576 590.877C727.292 590.962 726.973 591.036 726.618 591.1C726.263 591.164 725.911 591.221 725.563 591.271C725.215 591.321 724.913 591.363 724.657 591.399C724.082 591.477 723.567 591.605 723.113 591.782C722.658 591.96 722.299 592.208 722.037 592.528C721.774 592.84 721.642 593.245 721.642 593.742C721.642 594.453 721.902 594.989 722.42 595.351C722.939 595.713 723.599 595.894 724.402 595.894ZM735.918 598.398V582.034H739.657V584.762H739.828C740.126 583.817 740.638 583.089 741.362 582.578C742.093 582.059 742.928 581.8 743.866 581.8C744.079 581.8 744.316 581.811 744.579 581.832C744.849 581.846 745.073 581.871 745.25 581.906V585.454C745.087 585.397 744.828 585.348 744.473 585.305C744.125 585.255 743.787 585.23 743.461 585.23C742.758 585.23 742.125 585.383 741.564 585.688C741.01 585.987 740.574 586.402 740.254 586.935C739.934 587.468 739.775 588.082 739.775 588.778V598.398H735.918ZM753.211 598.686C751.926 598.686 750.775 598.355 749.759 597.695C748.744 597.034 747.941 596.076 747.352 594.818C746.762 593.561 746.468 592.034 746.468 590.237C746.468 588.419 746.766 586.885 747.362 585.635C747.966 584.378 748.779 583.43 749.802 582.791C750.825 582.144 751.965 581.821 753.222 581.821C754.181 581.821 754.969 581.985 755.587 582.311C756.205 582.631 756.695 583.018 757.057 583.473C757.419 583.92 757.7 584.343 757.899 584.74H758.059V576.58H761.926V598.398H758.133V595.82H757.899C757.7 596.218 757.412 596.64 757.036 597.088C756.659 597.528 756.162 597.904 755.544 598.217C754.926 598.529 754.149 598.686 753.211 598.686ZM754.287 595.522C755.104 595.522 755.8 595.301 756.375 594.861C756.951 594.414 757.387 593.792 757.686 592.997C757.984 592.201 758.133 591.274 758.133 590.216C758.133 589.158 757.984 588.238 757.686 587.457C757.394 586.676 756.961 586.068 756.386 585.635C755.818 585.202 755.118 584.985 754.287 584.985C753.428 584.985 752.71 585.209 752.135 585.656C751.56 586.104 751.127 586.722 750.835 587.51C750.544 588.299 750.399 589.201 750.399 590.216C750.399 591.239 750.544 592.152 750.835 592.954C751.134 593.75 751.571 594.378 752.146 594.84C752.728 595.294 753.442 595.522 754.287 595.522ZM770.744 598.728C769.707 598.728 768.773 598.544 767.942 598.174C767.118 597.798 766.465 597.244 765.982 596.512C765.506 595.781 765.268 594.879 765.268 593.806C765.268 592.883 765.439 592.12 765.78 591.516C766.12 590.912 766.586 590.429 767.175 590.067C767.765 589.705 768.429 589.431 769.167 589.247C769.913 589.055 770.684 588.916 771.479 588.831C772.438 588.732 773.216 588.643 773.812 588.565C774.409 588.48 774.842 588.352 775.112 588.181C775.389 588.004 775.527 587.73 775.527 587.361V587.297C775.527 586.495 775.29 585.873 774.814 585.433C774.338 584.992 773.652 584.772 772.758 584.772C771.813 584.772 771.064 584.978 770.51 585.39C769.963 585.802 769.593 586.289 769.402 586.85L765.801 586.338C766.085 585.344 766.554 584.513 767.207 583.845C767.861 583.171 768.66 582.666 769.604 582.333C770.549 581.992 771.593 581.821 772.736 581.821C773.525 581.821 774.309 581.914 775.091 582.098C775.872 582.283 776.586 582.588 777.232 583.014C777.878 583.433 778.397 584.005 778.787 584.73C779.185 585.454 779.384 586.36 779.384 587.446V598.398H775.677V596.15H775.549C775.314 596.605 774.984 597.031 774.558 597.428C774.139 597.819 773.61 598.135 772.971 598.377C772.339 598.611 771.596 598.728 770.744 598.728ZM771.745 595.894C772.52 595.894 773.191 595.742 773.759 595.436C774.327 595.124 774.764 594.712 775.069 594.201C775.382 593.689 775.538 593.132 775.538 592.528V590.6C775.417 590.699 775.211 590.791 774.92 590.877C774.636 590.962 774.316 591.036 773.961 591.1C773.606 591.164 773.255 591.221 772.907 591.271C772.559 591.321 772.257 591.363 772.001 591.399C771.426 591.477 770.911 591.605 770.456 591.782C770.002 591.96 769.643 592.208 769.38 592.528C769.118 592.84 768.986 593.245 768.986 593.742C768.986 594.453 769.245 594.989 769.764 595.351C770.282 595.713 770.943 595.894 771.745 595.894ZM787.118 588.81V598.398H783.262V582.034H786.948V584.815H787.14C787.516 583.899 788.116 583.171 788.94 582.631C789.771 582.091 790.797 581.821 792.019 581.821C793.148 581.821 794.132 582.063 794.97 582.546C795.815 583.029 796.468 583.728 796.93 584.644C797.399 585.561 797.63 586.672 797.623 587.979V598.398H793.766V588.576C793.766 587.482 793.482 586.626 792.914 586.008C792.353 585.39 791.575 585.081 790.581 585.081C789.906 585.081 789.306 585.23 788.78 585.529C788.262 585.82 787.853 586.242 787.555 586.796C787.264 587.35 787.118 588.022 787.118 588.81ZM807.616 598.686C806.33 598.686 805.179 598.355 804.164 597.695C803.148 597.034 802.346 596.076 801.756 594.818C801.167 593.561 800.872 592.034 800.872 590.237C800.872 588.419 801.17 586.885 801.767 585.635C802.37 584.378 803.184 583.43 804.206 582.791C805.229 582.144 806.369 581.821 807.626 581.821C808.585 581.821 809.373 581.985 809.991 582.311C810.609 582.631 811.099 583.018 811.461 583.473C811.824 583.92 812.104 584.343 812.303 584.74H812.463V576.58H816.33V598.398H812.537V595.82H812.303C812.104 596.218 811.816 596.64 811.44 597.088C811.064 597.528 810.566 597.904 809.949 598.217C809.331 598.529 808.553 598.686 807.616 598.686ZM808.691 595.522C809.508 595.522 810.204 595.301 810.78 594.861C811.355 594.414 811.792 593.792 812.09 592.997C812.388 592.201 812.537 591.274 812.537 590.216C812.537 589.158 812.388 588.238 812.09 587.457C811.799 586.676 811.366 586.068 810.79 585.635C810.222 585.202 809.522 584.985 808.691 584.985C807.832 584.985 807.115 585.209 806.54 585.656C805.964 586.104 805.531 586.722 805.24 587.51C804.949 588.299 804.803 589.201 804.803 590.216C804.803 591.239 804.949 592.152 805.24 592.954C805.538 593.75 805.975 594.378 806.55 594.84C807.133 595.294 807.846 595.522 808.691 595.522ZM827.577 598.718C825.979 598.718 824.594 598.366 823.422 597.663C822.251 596.96 821.342 595.976 820.695 594.712C820.056 593.448 819.736 591.97 819.736 590.28C819.736 588.59 820.056 587.109 820.695 585.838C821.342 584.566 822.251 583.579 823.422 582.876C824.594 582.173 825.979 581.821 827.577 581.821C829.175 581.821 830.56 582.173 831.732 582.876C832.904 583.579 833.81 584.566 834.449 585.838C835.095 587.109 835.418 588.59 835.418 590.28C835.418 591.97 835.095 593.448 834.449 594.712C833.81 595.976 832.904 596.96 831.732 597.663C830.56 598.366 829.175 598.718 827.577 598.718ZM827.599 595.628C828.465 595.628 829.19 595.39 829.772 594.914C830.354 594.431 830.788 593.785 831.072 592.975C831.363 592.166 831.508 591.264 831.508 590.269C831.508 589.268 831.363 588.362 831.072 587.553C830.788 586.736 830.354 586.086 829.772 585.603C829.19 585.12 828.465 584.879 827.599 584.879C826.711 584.879 825.972 585.12 825.383 585.603C824.8 586.086 824.364 586.736 824.072 587.553C823.788 588.362 823.646 589.268 823.646 590.269C823.646 591.264 823.788 592.166 824.072 592.975C824.364 593.785 824.8 594.431 825.383 594.914C825.972 595.39 826.711 595.628 827.599 595.628ZM846.133 598.398V582.034H849.872V584.762H850.043C850.341 583.817 850.852 583.089 851.577 582.578C852.308 582.059 853.143 581.8 854.08 581.8C854.293 581.8 854.531 581.811 854.794 581.832C855.064 581.846 855.288 581.871 855.465 581.906V585.454C855.302 585.397 855.043 585.348 854.688 585.305C854.34 585.255 854.002 585.23 853.676 585.23C852.972 585.23 852.34 585.383 851.779 585.688C851.225 585.987 850.788 586.402 850.469 586.935C850.149 587.468 849.989 588.082 849.989 588.778V598.398H846.133ZM864.598 598.718C862.957 598.718 861.54 598.377 860.347 597.695C859.161 597.006 858.248 596.033 857.609 594.776C856.97 593.512 856.65 592.024 856.65 590.312C856.65 588.629 856.97 587.152 857.609 585.88C858.256 584.602 859.158 583.607 860.315 582.897C861.473 582.18 862.833 581.821 864.396 581.821C865.404 581.821 866.356 581.985 867.251 582.311C868.153 582.631 868.948 583.128 869.637 583.803C870.333 584.477 870.88 585.337 871.278 586.381C871.675 587.418 871.874 588.654 871.874 590.088V591.271H858.462V588.671H868.177C868.17 587.933 868.011 587.276 867.698 586.701C867.386 586.118 866.949 585.66 866.388 585.326C865.834 584.992 865.187 584.826 864.449 584.826C863.66 584.826 862.968 585.017 862.371 585.401C861.775 585.777 861.31 586.274 860.976 586.892C860.649 587.503 860.482 588.174 860.475 588.906V591.175C860.475 592.127 860.649 592.943 860.997 593.625C861.345 594.3 861.832 594.818 862.457 595.181C863.082 595.536 863.813 595.713 864.651 595.713C865.212 595.713 865.72 595.635 866.175 595.479C866.629 595.316 867.023 595.078 867.357 594.765C867.691 594.453 867.943 594.066 868.114 593.604L871.714 594.009C871.487 594.96 871.054 595.791 870.415 596.502C869.783 597.205 868.973 597.752 867.986 598.142C866.998 598.526 865.869 598.718 864.598 598.718ZM888.07 586.36L884.554 586.743C884.455 586.388 884.281 586.054 884.032 585.742C883.791 585.429 883.464 585.177 883.052 584.985C882.64 584.794 882.136 584.698 881.54 584.698C880.737 584.698 880.062 584.872 879.515 585.22C878.976 585.568 878.709 586.019 878.716 586.573C878.709 587.049 878.883 587.436 879.238 587.734C879.601 588.032 880.197 588.277 881.028 588.469L883.819 589.066C885.368 589.399 886.518 589.928 887.271 590.653C888.031 591.377 888.415 592.326 888.422 593.497C888.415 594.527 888.113 595.436 887.516 596.225C886.927 597.006 886.106 597.617 885.055 598.057C884.004 598.497 882.797 598.718 881.433 598.718C879.43 598.718 877.818 598.299 876.596 597.46C875.375 596.615 874.647 595.44 874.412 593.934L878.173 593.572C878.343 594.311 878.706 594.868 879.26 595.245C879.814 595.621 880.535 595.809 881.422 595.809C882.339 595.809 883.074 595.621 883.628 595.245C884.189 594.868 884.469 594.403 884.469 593.849C884.469 593.38 884.288 592.993 883.926 592.688C883.571 592.382 883.017 592.148 882.264 591.985L879.473 591.399C877.903 591.072 876.742 590.522 875.989 589.747C875.236 588.966 874.863 587.979 874.87 586.786C874.863 585.777 875.137 584.904 875.691 584.165C876.252 583.419 877.03 582.844 878.024 582.439C879.025 582.027 880.179 581.821 881.486 581.821C883.404 581.821 884.913 582.23 886.014 583.046C887.122 583.863 887.807 584.968 888.07 586.36ZM891.602 604.534V582.034H895.394V584.74H895.618C895.817 584.343 896.097 583.92 896.46 583.473C896.822 583.018 897.312 582.631 897.93 582.311C898.548 581.985 899.336 581.821 900.295 581.821C901.559 581.821 902.699 582.144 903.715 582.791C904.737 583.43 905.547 584.378 906.144 585.635C906.747 586.885 907.049 588.419 907.049 590.237C907.049 592.034 906.754 593.561 906.165 594.818C905.575 596.076 904.773 597.034 903.757 597.695C902.742 598.355 901.591 598.686 900.305 598.686C899.368 598.686 898.59 598.529 897.972 598.217C897.354 597.904 896.857 597.528 896.481 597.088C896.112 596.64 895.824 596.218 895.618 595.82H895.458V604.534H891.602ZM895.384 590.216C895.384 591.274 895.533 592.201 895.831 592.997C896.136 593.792 896.573 594.414 897.141 594.861C897.717 595.301 898.413 595.522 899.229 595.522C900.082 595.522 900.796 595.294 901.371 594.84C901.946 594.378 902.379 593.75 902.671 592.954C902.969 592.152 903.118 591.239 903.118 590.216C903.118 589.201 902.972 588.299 902.681 587.51C902.39 586.722 901.957 586.104 901.381 585.656C900.806 585.209 900.089 584.985 899.229 584.985C898.406 584.985 897.706 585.202 897.131 585.635C896.555 586.068 896.119 586.676 895.82 587.457C895.529 588.238 895.384 589.158 895.384 590.216ZM917.489 598.718C915.891 598.718 914.506 598.366 913.335 597.663C912.163 596.96 911.254 595.976 910.607 594.712C909.968 593.448 909.649 591.97 909.649 590.28C909.649 588.59 909.968 587.109 910.607 585.838C911.254 584.566 912.163 583.579 913.335 582.876C914.506 582.173 915.891 581.821 917.489 581.821C919.087 581.821 920.472 582.173 921.644 582.876C922.816 583.579 923.722 584.566 924.361 585.838C925.007 587.109 925.33 588.59 925.33 590.28C925.33 591.97 925.007 593.448 924.361 594.712C923.722 595.976 922.816 596.96 921.644 597.663C920.472 598.366 919.087 598.718 917.489 598.718ZM917.511 595.628C918.377 595.628 919.102 595.39 919.684 594.914C920.266 594.431 920.7 593.785 920.984 592.975C921.275 592.166 921.421 591.264 921.421 590.269C921.421 589.268 921.275 588.362 920.984 587.553C920.7 586.736 920.266 586.086 919.684 585.603C919.102 585.12 918.377 584.879 917.511 584.879C916.623 584.879 915.884 585.12 915.295 585.603C914.712 586.086 914.276 586.736 913.984 587.553C913.7 588.362 913.558 589.268 913.558 590.269C913.558 591.264 913.7 592.166 913.984 592.975C914.276 593.785 914.712 594.431 915.295 594.914C915.884 595.39 916.623 595.628 917.511 595.628ZM941.537 586.36L938.021 586.743C937.922 586.388 937.748 586.054 937.499 585.742C937.258 585.429 936.931 585.177 936.519 584.985C936.107 584.794 935.603 584.698 935.006 584.698C934.204 584.698 933.529 584.872 932.982 585.22C932.442 585.568 932.176 586.019 932.183 586.573C932.176 587.049 932.35 587.436 932.705 587.734C933.067 588.032 933.664 588.277 934.495 588.469L937.286 589.066C938.834 589.399 939.985 589.928 940.738 590.653C941.498 591.377 941.881 592.326 941.888 593.497C941.881 594.527 941.579 595.436 940.983 596.225C940.393 597.006 939.573 597.617 938.522 598.057C937.471 598.497 936.263 598.718 934.9 598.718C932.897 598.718 931.285 598.299 930.063 597.46C928.842 596.615 928.114 595.44 927.879 593.934L931.64 593.572C931.81 594.311 932.172 594.868 932.726 595.245C933.28 595.621 934.001 595.809 934.889 595.809C935.805 595.809 936.54 595.621 937.094 595.245C937.655 594.868 937.936 594.403 937.936 593.849C937.936 593.38 937.755 592.993 937.393 592.688C937.038 592.382 936.484 592.148 935.731 591.985L932.94 591.399C931.37 591.072 930.209 590.522 929.456 589.747C928.703 588.966 928.33 587.979 928.337 586.786C928.33 585.777 928.604 584.904 929.158 584.165C929.719 583.419 930.496 582.844 931.491 582.439C932.492 582.027 933.646 581.821 934.953 581.821C936.871 581.821 938.38 582.23 939.481 583.046C940.589 583.863 941.274 584.968 941.537 586.36ZM953.24 582.034V585.017H943.833V582.034H953.24ZM946.155 578.114H950.012V593.476C950.012 593.995 950.09 594.392 950.246 594.669C950.409 594.939 950.622 595.124 950.885 595.223C951.148 595.323 951.439 595.372 951.759 595.372C952 595.372 952.22 595.355 952.419 595.319C952.625 595.284 952.782 595.252 952.888 595.223L953.538 598.238C953.332 598.309 953.037 598.387 952.654 598.473C952.277 598.558 951.816 598.607 951.269 598.622C950.303 598.65 949.433 598.504 948.659 598.185C947.884 597.858 947.27 597.354 946.816 596.672C946.368 595.99 946.148 595.138 946.155 594.115V578.114ZM961.174 598.728C960.137 598.728 959.203 598.544 958.372 598.174C957.548 597.798 956.895 597.244 956.412 596.512C955.936 595.781 955.698 594.879 955.698 593.806C955.698 592.883 955.868 592.12 956.209 591.516C956.55 590.912 957.015 590.429 957.605 590.067C958.194 589.705 958.858 589.431 959.597 589.247C960.343 589.055 961.113 588.916 961.909 588.831C962.868 588.732 963.645 588.643 964.242 588.565C964.839 588.48 965.272 588.352 965.542 588.181C965.819 588.004 965.957 587.73 965.957 587.361V587.297C965.957 586.495 965.719 585.873 965.243 585.433C964.767 584.992 964.082 584.772 963.187 584.772C962.243 584.772 961.493 584.978 960.939 585.39C960.392 585.802 960.023 586.289 959.831 586.85L956.231 586.338C956.515 585.344 956.983 584.513 957.637 583.845C958.29 583.171 959.089 582.666 960.034 582.333C960.978 581.992 962.022 581.821 963.166 581.821C963.954 581.821 964.739 581.914 965.52 582.098C966.302 582.283 967.015 582.588 967.662 583.014C968.308 583.433 968.826 584.005 969.217 584.73C969.615 585.454 969.814 586.36 969.814 587.446V598.398H966.106V596.15H965.978C965.744 596.605 965.414 597.031 964.988 597.428C964.569 597.819 964.04 598.135 963.4 598.377C962.768 598.611 962.026 598.728 961.174 598.728ZM962.175 595.894C962.949 595.894 963.62 595.742 964.189 595.436C964.757 595.124 965.194 594.712 965.499 594.201C965.812 593.689 965.968 593.132 965.968 592.528V590.6C965.847 590.699 965.641 590.791 965.35 590.877C965.066 590.962 964.746 591.036 964.391 591.1C964.036 591.164 963.684 591.221 963.336 591.271C962.988 591.321 962.687 591.363 962.431 591.399C961.856 591.477 961.341 591.605 960.886 591.782C960.432 591.96 960.073 592.208 959.81 592.528C959.547 592.84 959.416 593.245 959.416 593.742C959.416 594.453 959.675 594.989 960.194 595.351C960.712 595.713 961.373 595.894 962.175 595.894ZM976.067 598.632C975.421 598.632 974.867 598.405 974.405 597.951C973.944 597.496 973.716 596.942 973.723 596.289C973.716 595.649 973.944 595.102 974.405 594.648C974.867 594.193 975.421 593.966 976.067 593.966C976.692 593.966 977.236 594.193 977.697 594.648C978.166 595.102 978.404 595.649 978.411 596.289C978.404 596.722 978.29 597.116 978.07 597.471C977.857 597.826 977.573 598.11 977.218 598.323C976.87 598.529 976.486 598.632 976.067 598.632ZM984.768 598.632C984.122 598.632 983.568 598.405 983.106 597.951C982.645 597.496 982.418 596.942 982.425 596.289C982.418 595.649 982.645 595.102 983.106 594.648C983.568 594.193 984.122 593.966 984.768 593.966C985.393 593.966 985.937 594.193 986.398 594.648C986.867 595.102 987.105 595.649 987.112 596.289C987.105 596.722 986.991 597.116 986.771 597.471C986.558 597.826 986.274 598.11 985.919 598.323C985.571 598.529 985.187 598.632 984.768 598.632ZM993.47 598.632C992.823 598.632 992.269 598.405 991.808 597.951C991.346 597.496 991.119 596.942 991.126 596.289C991.119 595.649 991.346 595.102 991.808 594.648C992.269 594.193 992.823 593.966 993.47 593.966C994.095 593.966 994.638 594.193 995.1 594.648C995.568 595.102 995.806 595.649 995.813 596.289C995.806 596.722 995.693 597.116 995.472 597.471C995.259 597.826 994.975 598.11 994.62 598.323C994.272 598.529 993.889 598.632 993.47 598.632Z" fill="#5A7DA0"/>
<path d="M1052.99 405.841C1050.07 472.454 996.599 524.894 931.681 524.894H659.618C621.113 524.894 594.658 484.987 608.912 448.248C627.914 398.052 689.831 435.196 661.463 392.983C633.964 352.056 617.592 302.112 641.058 278.055C695.379 222.37 759.503 296.224 794.749 285.524C805.991 281.876 850.628 253.041 867.987 247.875C978.601 206.945 1062.48 303.81 1052.99 405.841Z" fill="#E3F0FF"/>
<path d="M627.331 389.617C630.338 383.54 603.74 352.57 591.525 360.464C579.309 368.359 578.04 384.38 596.254 390.195C613.469 395.69 624.328 395.693 627.331 389.617Z" fill="#E3F0FF"/>
<path d="M686.872 259.641L683.144 237.731C683.059 237.243 682.581 236.911 682.073 236.991C681.568 237.073 681.224 237.534 681.306 238.022L684.949 259.423L669.221 272.061C668.826 272.378 668.771 272.945 669.1 273.327C669.285 273.539 669.55 273.65 669.818 273.65C670.028 273.65 670.238 273.583 670.411 273.442L686.546 260.475C686.802 260.272 686.924 259.952 686.872 259.641Z" fill="#C7DEFF"/>
<path d="M711.663 270.771L690.005 263.269C689.694 263.164 689.347 263.222 689.095 263.425L672.96 276.392C672.564 276.709 672.509 277.276 672.838 277.658C673.023 277.869 673.288 277.981 673.553 277.981C673.763 277.981 673.976 277.913 674.149 277.772L689.877 265.134L711.033 272.462C711.517 272.63 712.05 272.386 712.223 271.919C712.396 271.452 712.147 270.938 711.663 270.771Z" fill="#C7DEFF"/>
<path d="M679.901 258.203C679.978 258.644 680.37 258.955 680.817 258.955C680.869 258.955 680.918 258.952 680.97 258.943C681.478 258.864 681.822 258.403 681.736 257.913L678.885 241.152C678.803 240.664 678.322 240.332 677.817 240.412C677.309 240.494 676.965 240.955 677.05 241.442L679.901 258.203Z" fill="#C7DEFF"/>
<path d="M707.401 274.19L690.832 268.452C690.348 268.284 689.818 268.528 689.642 268.995C689.468 269.462 689.721 269.976 690.205 270.143L706.774 275.882C706.878 275.917 706.984 275.935 707.088 275.935C707.468 275.935 707.827 275.706 707.964 275.339C708.138 274.872 707.885 274.358 707.401 274.19Z" fill="#C7DEFF"/>
<path d="M895.404 397.124L872.881 392.584C872.376 392.481 871.883 392.792 871.779 393.28C871.673 393.764 871.995 394.24 872.497 394.34L894.503 398.778L901.049 417.489C901.213 417.959 901.743 418.212 902.229 418.053C902.5 417.962 902.704 417.765 902.799 417.524C902.875 417.336 902.884 417.122 902.814 416.914L896.094 397.717C895.988 397.415 895.726 397.192 895.404 397.124Z" fill="#C7DEFF"/>
<path d="M915.101 378.827L900.044 395.615C899.828 395.856 899.761 396.187 899.864 396.49L906.584 415.686C906.748 416.156 907.277 416.409 907.764 416.25C908.035 416.162 908.239 415.962 908.333 415.721C908.409 415.533 908.419 415.319 908.349 415.11L901.8 396.402L916.507 380.002C916.845 379.626 916.803 379.062 916.413 378.736C916.027 378.413 915.439 378.454 915.101 378.827Z" fill="#C7DEFF"/>
<path d="M916.873 383.893L905.352 396.736C905.014 397.112 905.057 397.679 905.446 398.002C905.836 398.328 906.423 398.287 906.758 397.911L918.279 385.068C918.352 384.989 918.407 384.898 918.443 384.804C918.58 384.46 918.489 384.058 918.185 383.802C917.795 383.479 917.208 383.517 916.873 383.893Z" fill="#C7DEFF"/>
<path d="M776.111 474.115C776.111 474.115 669.252 199.257 592.682 269.944C578.029 287.76 595.205 318.199 626.757 353.499C658.309 388.795 750.083 480.556 763.087 495.114L776.111 474.115Z" fill="#5A789F"/>
<path d="M776.11 474.115C776.11 474.115 709.978 304.02 644.485 265.865C645.934 269.507 646.822 273.44 645.426 275.936C642.224 281.657 627.787 284.28 623.661 293.772C620.13 301.899 625.739 333.269 613.073 337.322C617.236 342.576 621.819 347.977 626.756 353.499C658.307 388.796 750.082 480.556 763.085 495.115L776.11 474.115Z" fill="#5A789F"/>
<path d="M604.999 272.168C612.434 277.945 619.552 284.104 626.542 290.374C667.3 327.342 703.41 369.315 732.436 415.502C738.018 424.439 743.462 433.817 748.395 443.106C750.47 446.977 752.786 451.571 754.734 455.506C755.994 458.114 757.777 461.853 758.973 464.491L759.798 466.294L760.598 468.112L761.399 469.927L762.193 471.745C752.665 452.816 742.062 434.439 730.434 416.694C718.821 398.937 706.268 381.773 692.969 365.159C673.006 340.244 651.417 316.525 628.499 294.09C620.854 286.627 613.045 279.226 604.999 272.168Z" fill="#5AA5D1"/>
<path d="M616.184 402.717C616.184 402.717 595.576 394.602 581.623 410.506C569.858 423.919 588.744 460.332 608.248 477.957C608.248 477.957 589.115 489.523 588.467 502.848C587.819 516.17 610.335 530.232 642.207 534.209L645.427 421.217L616.184 402.717Z" fill="#5A789F"/>
<path d="M613.839 401.973C615.765 412.808 617.168 429.628 620.141 447.925C624.812 476.678 635.509 518.416 599.082 519.362C608.592 526.278 623.845 531.917 642.207 534.208L645.427 421.216L616.185 402.716C616.185 402.716 615.324 402.376 613.839 401.973Z" fill="#5A789F"/>
<path d="M591.428 412.708C606.744 427.81 621.513 443.511 636.057 459.306C640.281 463.873 644.769 468.634 648.875 473.286C656.772 482.305 664.401 491.624 671.531 501.222C671.903 501.733 672.277 502.239 672.645 502.753L672.414 502.938C661.72 492.247 651.385 480.94 641.544 469.515C638.436 465.849 634.836 461.655 631.677 458.031C621.708 446.659 611.632 435.281 601.464 424.077C598.068 420.335 594.66 416.602 591.212 412.907L591.428 412.708Z" fill="#5AA5D1"/>
<path d="M601.308 502.703C609.117 503.208 616.996 502.855 624.741 501.825C628.597 501.302 632.422 500.617 636.168 499.601C639.266 498.755 642.3 497.719 645.331 496.682C648.66 495.536 651.938 494.244 655.127 492.767C657.197 491.806 659.184 490.776 661.211 489.709L661.396 489.936C660.395 490.99 659.263 492.003 658.116 492.908C653.046 496.873 647.014 499.71 640.693 501.246C630.389 503.692 619.698 504.521 609.123 503.828C606.491 503.651 603.87 503.402 601.269 502.988L601.308 502.703Z" fill="#5AA5D1"/>
<mask id="mask0_1949_925" style="mask-type:luminance" maskUnits="userSpaceOnUse" x="632" y="286" width="152" height="250">
<path d="M632.921 286.96H783.28V535.946H632.921V286.96Z" fill="white"/>
</mask>
<g mask="url(#mask0_1949_925)">
<path d="M771.275 535.914H645.018C638.649 535.914 633.484 530.933 633.484 524.786V298.494C633.484 292.347 638.649 287.363 645.018 287.363H771.275C777.647 287.363 782.812 292.347 782.812 298.494V524.786C782.812 530.933 777.647 535.914 771.275 535.914Z" fill="#303C72"/>
</g>
<path d="M766.905 529.403H649.38C644.091 529.403 639.803 525.265 639.803 520.163V303.114C639.803 298.013 644.091 293.877 649.38 293.877H766.905C772.194 293.877 776.479 298.013 776.479 303.114V520.163C776.479 525.265 772.194 529.403 766.905 529.403Z" fill="#D4EBFF"/>
<path d="M766.905 293.877H649.38C644.091 293.877 639.803 298.013 639.803 303.114V314.469H776.479V303.114C776.479 298.013 772.194 293.877 766.905 293.877Z" fill="#8CCBFF"/>
<path d="M736.083 404.382C736.083 404.382 749.701 395.248 760.352 412.361C771.007 429.478 782.763 463.447 786.089 474.006C789.415 484.561 776.615 490.168 768.7 482.112C760.781 474.056 741.11 437.499 736.609 428.506C732.108 419.513 729.363 409.466 736.083 404.382Z" fill="#9E5959"/>
<path d="M772.034 468.145L782.992 464.697C781.955 461.705 779.423 454.718 779.423 454.718C779.423 454.718 773.343 462.201 772.034 468.145Z" fill="#914D4D"/>
<path d="M759.268 468.906C759.217 465.406 759.183 459.837 759.341 454.18C759.6 444.867 758.079 423.844 758.079 423.844L745.267 444.785C749.551 452.577 754.664 461.543 759.268 468.906Z" fill="#914D4D"/>
<path d="M737.886 401.946C737.886 401.946 726.291 406.857 732.107 421.512C737.922 436.171 756.599 466.651 762.189 475.914C767.779 485.178 775.783 489.58 781.875 486.461C787.968 483.339 788.315 477.908 785.886 469.582C783.455 461.259 767.536 423.143 763.528 415.351C759.517 407.562 749.31 395.981 737.886 401.946Z" fill="white"/>
<path d="M778.344 449.688C774.792 454.184 770.331 465.171 770.331 465.171L782.488 460.126C781.283 457.007 779.862 453.433 778.344 449.688Z" fill="#D4EBFF"/>
<path d="M762.133 475.818C762.249 469.166 762.441 454.281 762.07 445.902C761.586 434.879 759.373 421.513 759.373 421.513L750.597 456.528C755.423 464.775 759.839 472.018 762.133 475.818Z" fill="#D4EBFF"/>
<path d="M812.27 426.135C812.27 426.135 821.579 429.486 826.576 440.388L822.096 443.942L809.58 431.712L812.27 426.135Z" fill="#ABD3FC"/>
<path d="M774.382 485.396C778.612 486.808 783.31 485.551 786.317 482.35C794.47 473.665 821.323 444.765 826.862 435.097C833.414 423.663 824.808 422.01 816.801 429.102C808.797 436.195 795.702 446.936 789.601 451.885C779.668 459.944 769.978 465.944 766.868 472.047C764.689 476.317 768.049 483.281 774.382 485.396Z" fill="#9E5959"/>
<path d="M819.148 445.637C814.982 450.43 806.908 441.367 809.68 436.912C809.726 436.841 818.001 426.932 819.114 423.205C820.286 419.278 819.714 417.375 823.901 413.891C827.465 410.931 829.845 408.919 831.637 409.195C833.536 409.489 831.896 411.935 829.966 413.58C827.879 415.363 824.726 420.62 827.705 420.476C830.079 420.359 837.696 418.831 839.997 417.839C843.746 416.22 853.128 407.445 855.338 412.073C855.338 412.073 857.769 411.683 857.605 414.397C857.605 414.397 860.545 415.304 857.873 418.655C857.873 418.655 859.586 420.153 857.876 422.08C856.716 423.387 851.643 427.845 848.277 430.356C844.915 432.867 831.302 434.506 826.485 437.314C824.951 438.21 820.1 444.542 819.148 445.637Z" fill="#F6AF9A"/>
<path d="M826.495 419.606C826.714 422.396 827.685 424.658 826.726 427.46C829.097 425.248 827.012 421.962 826.495 419.606Z" fill="#E57E73"/>
<path d="M857.872 418.654C856.466 418.434 855.38 419.541 854.363 420.287C851.199 422.59 848.219 425.236 844.902 427.271C848.843 426.358 851.485 422.863 854.586 420.54C855.48 419.662 856.7 418.681 857.872 418.654Z" fill="#E57E73"/>
<path d="M857.607 414.396C854.637 414.655 852.486 416.922 850.179 418.502C847.842 420.053 845.763 422.344 843.414 423.604C844.881 423.436 846.132 422.502 847.236 421.612C850.605 419.213 853.602 415.439 857.607 414.396Z" fill="#E57E73"/>
<path d="M855.34 412.074C849.948 412.841 846.412 417.64 841.947 420.145C847.09 418.867 850.151 413.055 855.34 412.074Z" fill="#E57E73"/>
<path d="M842.835 428.237C837.163 426.48 829.537 425.306 824.592 429.238C830.027 426.16 836.898 427.4 842.835 428.237Z" fill="#EA9A88"/>
<path d="M841.583 419.998C842.612 420.859 842.94 422.189 843.263 423.414C844.292 424.348 844.495 425.869 844.754 427.156C845.277 427.526 845.29 428.257 845.296 428.827C845.153 428.245 844.931 427.62 844.401 427.329C843.972 426.189 843.698 424.686 842.776 423.846C842.207 422.759 842.234 421.22 841.288 420.277C840.993 419.681 840.813 418.976 840.296 418.489C840.889 418.824 841.282 419.408 841.583 419.998Z" fill="#EA9A88"/>
<path d="M812.271 426.135C812.271 426.135 815.869 437.457 826.578 440.388C826.578 440.388 796.216 476.737 788.315 483.066C780.418 489.398 768.55 486.543 764.338 477.204C760.281 468.208 812.271 426.135 812.271 426.135Z" fill="white"/>
<path d="M723.974 506.568C710.717 510.768 705.343 520.346 703.736 529.403H754.461C753.398 523.538 752.202 519.115 750.866 516.833C742.482 502.498 723.974 506.568 723.974 506.568Z" fill="#F6AF9A"/>
<path d="M724.417 500.253C708.997 503.231 701.137 513.343 700.616 529.403H758.294C758.206 528.795 758.118 528.204 758.029 527.632C753.742 500.006 724.417 500.253 724.417 500.253Z" fill="#384682"/>
<path d="M685.992 465.593C687.855 485.929 682.219 498.22 679.806 510.585C678.533 517.108 678.193 523.549 679.075 529.402H747.517C751.723 519.992 750.983 510.72 751.12 505.704C751.354 497.26 752.06 483.159 752.06 483.159C754.553 445.869 684.133 445.255 685.992 465.593Z" fill="#F6AF9A"/>
<path d="M681.486 499.527C681.486 499.527 674.861 515.331 677.308 529.402H748.723C752.609 516.617 752.32 500.252 752.32 500.252C743.218 501.668 681.486 499.527 681.486 499.527Z" fill="#384682"/>
<path d="M676.572 529.403H726.992C726.755 506.579 707.172 505.046 707.172 505.046C691.785 503.484 680.379 507.983 676.572 529.403Z" fill="#F6AF9A"/>
<path d="M673.972 529.35C673.969 529.368 673.969 529.385 673.966 529.403H732.386C732.064 513.062 721.251 502.503 703.171 500.277C703.171 500.277 677.307 498.38 673.972 529.35Z" fill="#384682"/>
<path d="M700.485 394.369C712.783 392.378 722.597 394.005 734.174 397.277C741.919 399.465 750.217 401.574 753.967 406.631C760.549 415.51 757.548 437.443 755.866 447.596C754.183 457.747 752.908 478.975 751.985 484.429C751.063 489.883 725.987 498.444 710.637 496.215C698.869 494.506 688.099 488.94 686.566 478.541C684.761 466.276 681.687 448.692 678.121 438.007C674.554 427.325 668.952 405.078 686.62 397.632C689.934 396.237 697.247 394.892 700.485 394.369Z" fill="#F6AF9A"/>
<path d="M729.503 383.062C729.503 383.062 729.104 394.143 731.651 399.221C734.195 404.296 725.483 407.453 719.819 407.406C714.156 407.359 705.458 404.299 704.442 397.717C703.429 391.133 707.601 393.623 706.813 375.728C706.198 361.733 731.088 369.273 729.503 383.062Z" fill="#F6AF9A"/>
<path d="M730.853 397.147C729.195 391.629 729.502 383.062 729.502 383.062C730.759 372.113 715.327 365.106 709.226 369.693C708.976 371.253 708.861 373.009 708.909 374.991C708.934 376.022 719.323 395.376 730.853 397.147Z" fill="#EA9A88"/>
<path d="M757.071 502.536C756.237 496.48 757.071 466.805 757.19 462.549C757.309 458.291 759.588 435.975 759.345 429.305C759.098 422.633 757.175 409.266 755.455 405.252C753.733 401.24 740.754 398.173 733.958 397.148L730.608 396.238C730.608 396.238 731.682 399.988 725.951 400.94C717.516 402.341 708.343 397.378 704.545 393.833C704.545 393.833 702.309 393.556 700.793 393.83C700.793 393.83 686.119 396.097 682.275 397.589C678.432 399.081 672.902 405.61 672.665 416.767C672.424 427.925 678.267 448.775 679.935 459.457C681.606 470.141 680.532 488.43 679.816 494.756C679.101 501.082 672.187 521.213 672.068 529.148C672.068 529.148 672.945 529.245 674.494 529.404H742.573C752.208 528.452 759.338 527.621 759.932 527.192C759.932 527.192 758.155 522.017 758.03 517.762C757.905 513.506 757.905 508.592 757.071 502.536Z" fill="#85B9F1"/>
<path d="M725.04 403.04C728.777 402.999 734.106 410.641 734.106 410.641C735.779 407.722 737.341 401.513 738.153 397.9C736.622 397.586 735.186 397.333 733.956 397.148L730.606 396.238C730.606 396.238 731.68 399.988 725.95 400.94C717.514 402.341 708.342 397.378 704.544 393.833C704.544 393.833 702.307 393.556 700.792 393.83C700.792 393.83 699.897 393.968 698.494 394.2L696.562 397.075L720.055 415.364C720.055 415.364 719.985 414.154 720.813 410.083C722.146 403.513 725.04 403.04 725.04 403.04Z" fill="#75AEEB"/>
<path d="M693.836 456.275C695.72 442.383 696.454 417.709 696.454 417.709C696.454 417.709 683.605 422.591 673.173 424.494C674.603 435.884 678.602 450.918 679.935 459.456C681.606 470.138 680.532 488.429 679.816 494.755C679.101 501.082 672.187 521.212 672.068 529.148C672.068 529.148 672.945 529.244 674.494 529.403H696.682C683.925 522.718 684.652 503.132 686.335 492.312C688.313 479.571 692.412 466.787 693.836 456.275Z" fill="#75AEEB"/>
<path d="M725.57 405.146C727.32 405.084 727.7 402.194 727.77 400.473C727.256 400.664 726.654 400.823 725.948 400.94C724.499 401.181 723.026 401.234 721.565 401.14C722.195 402.494 723.699 405.21 725.57 405.146Z" fill="#384682"/>
<path d="M724.111 403.491C724.111 403.491 733.296 444.039 734.105 452.967L739.811 463.443L742.212 449.687C742.212 449.687 732.672 416.869 726.372 403.083L724.111 403.491Z" fill="#384682"/>
<path d="M724.633 401.107C724.633 401.107 729.365 398.857 730.604 396.237C730.604 396.237 732.646 396.176 733.492 396.581C733.492 396.581 734.87 403.512 733.492 407.935C733.492 407.935 728.812 401.82 725.126 402.129C721.432 402.44 719.031 410.81 719.031 410.81C719.031 410.81 705.909 400.904 704.284 393.858L704.655 393.447C704.655 393.447 715.863 399.776 724.633 401.107Z" fill="#96C3F2"/>
<path d="M749.134 343.66C749.134 343.66 750.956 352.036 748.406 361.862L742.773 343.328L749.134 343.66Z" fill="#8C4949"/>
<path d="M725.952 327.564C725.952 327.564 744.22 328.6 747.172 344.278C750.124 359.956 748.277 388.315 737.665 391.42C727.982 394.254 713.04 384.579 706.749 374.87C700.13 364.652 697.781 351.626 701.676 341.776C705.088 333.153 711.588 326.818 725.952 327.564Z" fill="#F6AF9A"/>
<path d="M717.647 345.897C717.647 345.897 715.781 348.567 716.295 352.599C716.63 355.225 715.586 356.171 712.753 359.998C709.917 363.825 710.574 364.048 709.74 368.265C708.906 372.48 706.871 382.815 706.816 383.64C706.758 384.469 704.132 381.567 702.166 375.816C700.203 370.066 696.031 358.908 695.672 348.67C695.315 338.434 705.09 328.081 715.105 327.045C715.105 327.045 724.643 322.904 733.824 326.587C743.003 330.267 749.765 335.867 749.375 345.087L747.373 345.151C747.373 345.151 745.848 344.07 745.361 343.788C743.14 342.502 741.332 343.139 739.314 344.408C739.314 344.408 731.463 348.217 727.29 347.759C727.29 347.759 722.528 349.181 717.647 345.897Z" fill="#8C4949"/>
<path d="M709.477 336.561C709.477 336.561 708.293 344.126 716.601 348.3C717.03 346.784 717.645 345.897 717.645 345.897C717.645 345.897 710.442 341.586 709.477 336.561Z" fill="#7D4141"/>
<path d="M714.302 330.42C714.229 334.1 715.142 338.021 717.963 340.631C721.323 343.686 727.582 344.303 732.05 344.191C731.505 344.394 730.939 344.546 730.367 344.667C726.1 345.524 720.994 345.116 717.473 342.423C713.907 339.615 712.832 334.523 714.302 330.42Z" fill="#7D4141"/>
<path d="M718.928 328.463C721.39 327.67 724.001 327.394 726.593 327.406C731.837 327.453 737.244 329.056 741.091 332.598C743.014 334.354 744.478 336.536 745.318 338.886C744.563 337.876 743.79 336.909 742.938 336.022C740.443 333.382 737.244 331.412 733.751 330.249C729.007 328.657 723.931 328.304 718.928 328.463Z" fill="#7D4141"/>
<path d="M716.904 330.42C721.813 330.766 726.624 332.015 731.195 333.759C734.706 335.116 738.106 337.019 740.647 339.765C741.033 340.188 741.395 340.637 741.69 341.122C741.471 340.937 741.246 340.764 741.018 340.599C740.844 340.473 740.501 340.232 740.324 340.112C737.777 338.402 734.989 337.048 732.129 335.909C727.105 333.932 721.98 332.326 716.904 330.42Z" fill="#7D4141"/>
<path d="M720.087 334.793C723.3 337.715 727.463 339.228 731.566 340.626C732.956 341.096 734.374 341.516 735.808 342.053C735.044 342.135 734.283 342.144 733.516 342.121C729.688 341.941 725.817 340.761 722.832 338.373C721.669 337.398 720.565 336.229 720.087 334.793Z" fill="#7D4141"/>
<path d="M713.514 364.973C713.514 364.973 713.475 356.714 708.372 356.659C703.265 356.603 703.293 363.516 706.585 368.001C708.426 370.512 713.536 373.675 713.514 364.973Z" fill="#F6AF9A"/>
<path d="M707.897 362.227C708.901 362.283 709.692 362.815 710.246 363.355C710.103 362.407 709.698 361.49 708.77 360.92C708.53 360.774 708.46 360.468 708.612 360.236C708.764 360.004 709.078 359.937 709.321 360.083C712.635 362.113 710.907 367.073 710.83 367.282C710.739 367.54 710.447 367.678 710.179 367.587C710.173 367.587 710.17 367.584 710.164 367.584C709.905 367.49 709.768 367.214 709.86 366.959C709.866 366.938 710.161 366.092 710.271 365.012C710.264 365.003 710.252 364.994 710.246 364.982C710.237 364.967 709.297 363.296 707.839 363.217C707.556 363.202 707.34 362.967 707.355 362.694C707.37 362.421 707.614 362.213 707.897 362.227Z" fill="#E57E73"/>
<path d="M669.537 529.402H761.485C760.167 516.036 758.53 496.214 758.14 487.168C757.617 474.977 759.881 442.265 759.93 432.065C759.978 421.865 756.923 407.6 756.923 407.6C756.518 406.428 755.666 402.989 748.052 400.251C740.438 397.517 733.691 397.073 733.691 397.073C740.261 413.43 738.402 455.411 738.402 455.411C738.402 455.411 732.455 439.813 724.111 422.708C716.789 407.7 700.188 393.828 700.188 393.828C692.352 394.075 678.7 397.203 678.7 397.203C665.088 411.609 674.148 441.328 676.421 457.155C678.691 472.983 676.64 489.633 670.62 522.556C670.243 524.618 669.881 526.915 669.537 529.402Z" fill="white"/>
<path d="M738.518 451.876L738.402 456.3C743.929 419.584 740.864 400.185 740.356 398.086C736.415 397.254 733.691 397.075 733.691 397.075C739.105 410.55 738.795 441.424 738.518 451.876Z" fill="#ABD3FC"/>
<path d="M738.162 454.779C736.966 451.704 731.476 437.792 724.114 422.708C716.792 407.7 700.192 393.828 700.192 393.828C697.87 393.902 695.036 394.228 692.2 394.65C692.2 394.65 732.054 436.937 738.405 456.298L738.162 454.779Z" fill="#ABD3FC"/>
<path d="M736.478 529.403H737.695C738.903 504.685 739.755 479.968 738.404 455.412C739.128 480.035 737.737 504.812 736.478 529.403Z" fill="#ABD3FC"/>
<path d="M676.421 457.156C678.691 472.983 676.64 489.633 670.62 522.557C670.243 524.619 669.881 526.915 669.537 529.403H679.954L681.865 510.38C682.364 505.038 684.272 484.734 684.902 478.846C685.633 472.047 687.09 471.107 690.736 452.219C694.382 433.331 695.252 416.969 695.252 416.969L672.742 436.691C673.959 444.342 675.617 451.573 676.421 457.156Z" fill="#D4EBFF"/>
<path d="M732.051 396.278C732.051 396.278 736.914 414.831 738.402 455.411C738.402 455.411 740.8 431.128 740.194 415.533C739.586 399.94 739.135 397.84 739.135 397.84C739.135 397.84 734.053 395.876 732.051 396.278Z" fill="white"/>
<path d="M738.403 455.412C724.112 422.709 693.5 394.464 693.5 394.464C696.571 392.974 704.656 393.447 704.656 393.447C704.656 393.447 716.574 406.505 724.885 422.101C736.078 443.106 738.403 455.412 738.403 455.412Z" fill="white"/>
<path d="M679.625 397.845C679.625 397.845 696.159 399.126 693.131 418.877C690.103 438.625 676.838 472.075 672.464 482.272C668.091 492.466 655.069 489.139 654.254 478.063C653.435 466.991 661.722 426.516 664.163 416.81C666.6 407.106 671.089 397.66 679.625 397.845Z" fill="#F6AF9A"/>
<path d="M682.274 397.588C682.274 397.588 670.14 392.789 663.397 415.65C656.65 438.512 652.277 468.939 652.094 479.139C651.912 489.339 662.28 494.376 668.862 490.57C675.448 486.766 682.557 463.082 686.829 451.017C693.5 432.182 703.887 402.21 682.274 397.588Z" fill="white"/>
<path d="M654.118 477.079C654.118 477.079 654.006 509.523 655.503 529.404H669.791C670.847 520.399 672.173 510.537 672.928 505.124C674.66 492.715 676.233 482.832 676.419 474.932C676.662 464.608 654.852 462.441 654.118 477.079Z" fill="#F6AF9A"/>
<path d="M665.908 460.672C665.908 460.672 653.367 461.729 652.092 476.851C651.133 488.238 650.996 512.383 651.456 529.403H675.023C677.016 508.882 680.537 472.281 680.61 468.907C680.713 464.19 672.068 459.617 665.908 460.672Z" fill="white"/>
<path d="M775.736 487.264V520.164C775.736 524.86 771.774 528.681 766.908 528.681H649.382C644.513 528.681 640.554 524.86 640.554 520.164V303.115C640.554 298.419 644.513 294.598 649.382 294.598H766.908C771.774 294.598 775.736 298.419 775.736 303.115V443.324C776.165 444.364 776.591 445.397 777.011 446.428C777.148 446.296 777.23 446.117 777.23 445.917V303.115C777.23 297.623 772.599 293.156 766.908 293.156H649.382C643.688 293.156 639.06 297.623 639.06 303.115V520.164C639.06 525.656 643.688 530.124 649.382 530.124H766.908C772.599 530.124 777.23 525.656 777.23 520.164V487.443C776.737 487.42 776.238 487.361 775.736 487.264Z" fill="white"/>
<path d="M734.643 298.491H681.651C678.401 298.491 675.766 295.948 675.766 292.814V291.627H740.525V292.814C740.525 295.948 737.893 298.491 734.643 298.491Z" fill="#303C72"/>
<path d="M1061.63 343.817C1063.36 342.648 1065.25 341.752 1067.26 341.15C1075.54 338.66 1096.96 334.548 1113.2 351.9C1130.53 370.417 1105.44 422.922 1078.59 448.785C1078.59 448.785 1106.29 464.363 1107.84 483.242C1109.38 502.12 1078.09 523.067 1033.05 530.107L1023.15 369.897L1061.63 343.817Z" fill="#5A789F"/>
<path d="M1067.08 341.205C1064.86 356.665 1063.66 380.595 1060.3 406.691C1055.02 447.703 1041.81 507.406 1093.55 507.15C1080.38 517.38 1059 526.053 1033.05 530.109L1023.15 369.899L1061.64 343.816C1063.29 342.697 1065.09 341.813 1067.02 341.225L1067.08 341.205Z" fill="#5A789F"/>
<path d="M1099.66 355.69C1079.53 378.534 1059.95 401.919 1040.6 425.385C1035.11 432.081 1029.18 439.527 1023.66 446.211C1012.31 459.886 1000.56 473.795 988.657 487.021L988.42 486.844C988.937 486.113 989.461 485.388 989.981 484.662C992.598 481.047 995.279 477.423 997.954 473.866C1005.47 463.91 1013.29 453.983 1021.23 444.337C1029.16 434.778 1037.58 425.15 1045.66 415.702C1056.13 403.525 1066.87 391.26 1077.6 379.31C1082.32 374.05 1087.3 368.563 1092.08 363.374C1094.52 360.739 1096.96 358.105 1099.43 355.497L1099.66 355.69Z" fill="#5AA5D1"/>
<path d="M1089.67 483.946C1072.14 486.833 1054.02 486.595 1036.57 483.256C1034.75 482.901 1032.85 482.484 1031.05 482.025C1023.32 480.002 1015.85 476.765 1009.27 472.336C1008.37 471.734 1007.29 470.956 1006.44 470.292C1005.54 469.59 1004.62 468.835 1003.77 468.075L1003.95 467.843C1005.59 468.721 1007.2 469.605 1008.85 470.421C1010.42 471.214 1012.2 472.054 1013.82 472.768C1018.4 474.806 1023.15 476.51 1027.95 477.99C1032.76 479.479 1037.63 480.845 1042.58 481.835C1056.21 484.44 1070.22 485.062 1084.07 484.164C1085.92 484.04 1087.78 483.888 1089.62 483.661L1089.67 483.946Z" fill="#5AA5D1"/>
<mask id="mask1_1949_925" style="mask-type:luminance" maskUnits="userSpaceOnUse" x="899" y="286" width="151" height="250">
<path d="M899.362 286.96H1049.72V535.946H899.362V286.96Z" fill="white"/>
</mask>
<g mask="url(#mask1_1949_925)">
<path d="M1037.64 535.912H911.381C905.011 535.912 899.844 530.931 899.844 524.784V298.493C899.844 292.345 905.011 287.361 911.381 287.361H1037.64C1044.01 287.361 1049.17 292.345 1049.17 298.493V524.784C1049.17 530.931 1044.01 535.912 1037.64 535.912Z" fill="#303C72"/>
</g>
<path d="M1033.27 529.403H915.746C910.457 529.403 906.169 525.265 906.169 520.163V303.114C906.169 298.013 910.457 293.877 915.746 293.877H1033.27C1038.56 293.877 1042.85 298.013 1042.85 303.114V520.163C1042.85 525.265 1038.56 529.403 1033.27 529.403Z" fill="#D4EBFF"/>
<path d="M932.816 415.195C933.719 410.452 937.59 406.528 942.8 405.653C949.492 404.528 955.862 408.848 957.027 415.304C957.268 416.646 957.268 417.973 957.052 419.245C957.003 419.545 956.939 419.841 956.866 420.135C955.667 425.806 948.911 457.305 942.563 476.625C941.896 479.961 939.164 482.71 935.491 483.327C930.743 484.126 926.224 481.06 925.396 476.478C925.071 474.687 930.357 425.222 932.816 415.195Z" fill="#DE9681"/>
<path d="M944.341 416.962C944.341 416.962 949.545 412.336 957.049 415.434C957.268 416.732 957.259 418.016 957.052 419.246C957.003 419.546 956.94 419.843 956.867 420.136C955.832 425.029 950.661 449.154 945.184 468.089C944.688 465.762 943.166 463.439 942.411 462.861C941.227 461.953 938.145 459.257 936.632 454.52C935.549 451.133 937.612 438.454 939.977 431.787C942.341 425.118 944.341 416.962 944.341 416.962Z" fill="#EA9A88"/>
<path d="M948.195 405.145C948.195 405.145 943.533 404.214 937.2 406.913C935.304 407.721 933.49 410.884 932.258 413.336C927.55 422.72 923.965 451.226 923.965 451.226C923.965 451.226 936.235 462.266 949.093 465.808C949.093 465.808 958.667 425.542 958.475 417.107C958.283 408.675 951.908 406.011 948.195 405.145Z" fill="#FCF5F1"/>
<path d="M955.076 438.777L939.571 415.025C939.571 415.025 942.852 424.712 941.181 431.202C939.51 437.696 935.536 446.577 934.915 451.876C934.647 454.17 934.772 456.936 935 459.336C939.145 461.9 944.075 464.425 949.093 465.809C949.093 465.809 952.392 451.94 955.076 438.777Z" fill="#F0E2DA"/>
<path d="M937.722 465.608C933.005 463.898 927.74 466.201 925.969 470.753C925.619 471.649 925.434 472.562 925.394 473.467C925.391 473.467 921.998 517.531 921.085 529.402H931.794C932.902 524.297 934.986 515.043 937.22 507.01C941.033 493.297 942.342 480.971 942.944 475.294C943.115 474.545 943.182 473.793 943.148 473.053C942.993 469.628 941.255 466.888 937.722 465.608Z" fill="#DE9681"/>
<path d="M959.826 512.086C949.762 513.138 941.941 520.345 939.941 529.403H984.625C982.227 518.471 971.585 510.859 959.826 512.086Z" fill="#F6AF9A"/>
<path d="M938.623 529.403H985.574C982.153 509.634 966.703 509.617 964.758 509.643C964.758 509.643 943.291 508.325 938.623 529.403Z" fill="#8C4949"/>
<path d="M980.111 476.957C956.423 476.892 951.511 487.551 951.511 487.551C951.115 490.493 951.052 493.765 949.646 496.549C943.145 509.408 940.607 524.075 939.853 529.403H1019.51C1019.04 521.487 1016.05 513.995 1012.05 504.438C1009.53 498.426 1003.49 490.526 1003.4 484.326C1003.4 484.326 1000.98 477.013 980.111 476.957Z" fill="#F6AF9A"/>
<path d="M951.234 489.919C951.234 489.919 949.7 492.127 945.747 502.448C942.868 509.958 940.066 522.907 938.754 529.403H1020.53C1019.51 520.487 1016.75 510.707 1013.64 505.185C1009.91 498.583 1004.58 487.728 1004.58 487.728C994.055 490.315 951.234 489.919 951.234 489.919Z" fill="#8C4949"/>
<path d="M1013.64 505.185C1009.91 498.583 1004.59 487.728 1004.59 487.728C997.47 489.475 975.617 489.863 962.187 489.927C956.092 493.875 954.336 498.392 954.336 498.392C954.336 498.392 970.699 503.761 991.372 504.098C1002.17 504.098 1006.42 504.098 1007.83 504.844C1008.82 505.367 1010.39 520.446 1011.23 529.403H1020.53C1019.51 520.487 1016.76 510.707 1013.64 505.185Z" fill="#824444"/>
<path d="M974.371 529.403H1018.92C1016.78 520.304 1008.75 513.182 998.601 512.339C987.095 511.385 976.851 518.836 974.371 529.403Z" fill="#F6AF9A"/>
<path d="M972.388 529.403H1020.18C1018.14 518.892 1012.49 509.173 996.432 509.658C996.432 509.658 976.417 509.646 972.388 529.403Z" fill="#8C4949"/>
<path d="M1009.38 512.285C1010.07 517.501 1010.76 524.406 1011.23 529.404H1020.19C1018.83 522.432 1015.88 515.812 1009.38 512.285Z" fill="#824444"/>
<path d="M949.896 469.612C949.896 469.612 943.77 466.126 942.684 460.505C941.598 454.883 944.714 436.192 945.505 427.449C946.299 418.706 939.041 411.163 938.067 406.823C938.067 406.823 948.32 402.17 970.8 400.041C970.8 400.041 983.472 400.393 995.648 402.532C1005.58 404.273 1010.76 409.522 1012.7 412.526C1014.64 415.531 1013.38 422.856 1010.67 431.802C1007.97 440.748 1004.99 448.498 1004.7 457.973C1004.55 462.549 1004.34 478.881 1004.63 489.575C1004.63 489.575 1005.82 496.295 981.75 497.731C959.534 499.059 951.287 489.678 951.287 489.678C950.45 480.882 949.896 469.612 949.896 469.612Z" fill="#DE9681"/>
<path d="M1008.21 439.732C1006.4 445.632 1004.9 451.385 1004.69 457.973C1004.59 461.163 1004.46 470.062 1004.49 478.785C999.207 465.034 992.144 423.98 992.144 423.98L1008.21 439.732Z" fill="#E57E73"/>
<path d="M959.601 403.268L960.922 380.606C961.077 376.115 964.261 372.071 968.999 370.888C974.766 369.446 980.651 372.788 982.146 378.353C982.349 379.108 982.459 379.869 982.486 380.618L984.55 404.948C984.568 405.118 984.614 405.891 984.614 405.891C984.97 411.615 981.08 416.564 975.107 418.056C968.323 419.75 961.625 416.132 959.869 409.585C959.321 407.547 959.455 405.438 959.601 403.268Z" fill="#DE9681"/>
<path d="M960.923 380.606C961.079 376.115 964.262 372.071 969 370.888C974.767 369.446 980.653 372.788 982.147 378.353C982.351 379.108 982.46 379.869 982.488 380.618L982.594 381.884C977.78 392.333 969.015 400.111 959.679 401.993L960.923 380.606Z" fill="#D38475"/>
<path d="M951.803 402.854C951.803 402.854 953.367 409.677 964.536 411.436C975.705 413.195 998.361 402.927 998.361 402.927C998.361 402.927 1003.22 402.863 1006.57 404.875C1006.57 404.875 1012.91 408.699 1013.97 413.392C1015.04 418.088 1013.62 426.4 1012.76 429.434C1011.89 432.465 1006.57 459.309 1006.57 466.034C1006.57 470.731 1009.39 484.091 1011.09 491.727C1011.77 494.793 1009.64 497.774 1006.43 498.247C995.781 499.813 972.372 502.321 949.515 498.535C945.772 497.915 943.13 494.652 943.377 490.999C943.949 482.558 944.895 468.507 944.874 467.92C944.874 467.92 940.151 465.133 939.134 457.209C938.118 449.288 944.35 429.628 943.681 426.253C943.011 422.878 937.083 410.123 937.202 406.913C937.202 406.913 943.635 403.941 951.803 402.854Z" fill="#FCF5F1"/>
<path d="M979.666 500.479C990.957 500.241 1000.61 499.102 1006.43 498.247C1009.64 497.774 1011.77 494.79 1011.09 491.727C1009.39 484.091 1006.57 470.73 1006.57 466.034C1006.57 459.309 1011.89 432.464 1012.76 429.433C1012.95 428.74 1013.18 427.774 1013.39 426.64C1003.85 421.421 994.934 420.247 990.61 425.812C990.61 425.812 992.819 451.009 992.786 455.852C992.752 460.692 981.836 468.137 965.415 466.501C965.415 466.501 980.622 471.882 994.508 465.033L996.17 469.679H1002.41C1002.41 469.679 1003.23 479.509 1004.44 486.258C1005.65 492.972 992.923 497.715 979.666 500.479Z" fill="#F0E2DA"/>
<path d="M990.699 420.258C990.556 419.098 990.577 417.903 990.784 416.693C991.962 409.8 998.709 405.133 1005.85 406.266C1011.78 407.209 1016.13 411.855 1016.76 417.348L1031.49 477.397C1031.8 478.572 1031.87 479.826 1031.65 481.101C1030.82 485.994 1026.03 489.307 1020.96 488.502C1016.69 487.821 1013.58 484.434 1013.2 480.458C1013.2 480.458 994.6 438.124 991.037 421.967C990.885 421.409 990.772 420.837 990.699 420.258Z" fill="#DE9681"/>
<path d="M1001.4 404.874C1001.4 404.874 988.018 406.616 989.996 422.743C991.971 438.87 998.664 467.919 998.664 467.919C998.664 467.919 1022.54 468.066 1030.6 456.768C1030.6 456.768 1019.49 419.245 1016.45 412.757C1013.41 406.266 1006.13 403.147 1001.4 404.874Z" fill="#FCF5F1"/>
<path d="M1020.33 471.592C1016.59 472.444 1013.91 475.366 1013.29 478.808C1013.16 479.554 1013.12 480.324 1013.19 481.102C1013.03 486.917 1013.24 499.179 1015.24 513.523C1015.98 518.795 1016.59 524.543 1017.05 529.404H1029.03C1030.01 511.911 1031.74 481.093 1031.74 481.093C1031.82 480.171 1031.75 479.222 1031.52 478.277C1030.34 473.448 1025.33 470.455 1020.33 471.592Z" fill="#DE9681"/>
<path d="M971.363 333.382C971.363 333.382 992.464 334.14 992.002 358.223C991.554 381.358 971.417 400.284 954.165 395.426C948.681 393.543 945.069 381.496 944.877 363.386C944.683 345.277 952.741 332.748 971.363 333.382Z" fill="#DE9681"/>
<path d="M999.37 390.096C996.796 381.878 998.887 366.206 997.843 359.137C997.815 358.952 997.773 358.781 997.724 358.623C997.067 349.18 993.847 341.591 986.391 335.864C978.369 329.699 965.296 332.566 965.296 332.566C959.355 332.137 947.024 337.154 943.607 345.036C940.189 352.919 941.23 364.244 942.569 367.255C943.905 370.265 942.122 373.132 941.379 375.138C940.637 377.144 942.122 379.149 943.458 381.731C944.797 384.31 942.569 387.32 942.569 387.32C944.797 386.175 945.834 383.02 944.946 380.298C944.054 377.572 943.607 376.571 944.188 374.503C944.766 372.433 945.241 371.123 945.539 367.971C945.834 364.817 945.092 358.511 946.875 354.212C948.658 349.909 955.64 345.036 955.64 345.036C957.721 351.201 960.691 356.074 964.553 357.363C968.418 358.652 970.795 360.517 971.537 362.379C972.28 364.244 971.09 367.683 971.537 371.839C971.982 375.998 973.765 376.139 975.101 378.004C976.44 379.866 972.724 383.164 971.832 384.598C970.941 386.031 971.537 388.466 972.575 390.331C973.616 392.193 972.873 394.342 972.873 394.342C974.657 393.626 974.358 390.187 973.765 387.32C973.172 384.454 975.399 383.737 976.735 381.587C978.074 379.437 976.291 376.427 975.993 374.85C975.694 373.273 978.105 367.907 978.996 368.335C979.511 368.585 980.122 371.543 980.6 375.052C980.363 376.509 980.326 377.975 980.551 379.42C980.551 379.42 980.935 380.289 981.276 381.678C981.3 382.075 981.324 382.462 981.343 382.832C981.382 383.655 981.556 384.609 981.781 385.537C981.808 387.379 981.516 389.438 980.551 391.435C977.782 397.168 974.31 395.25 975.08 403.788C975.85 412.329 973.61 419.198 970.941 423.565C968.272 427.936 968.223 440.685 973.695 447.881C973.695 447.881 974.602 442.236 978.668 440.532C982.733 438.829 989.084 430.464 988.664 425.154C988.241 419.844 991.933 404.575 1001.33 403.015C1001.33 403.015 1001.95 398.313 999.37 390.096Z" fill="#8C4949"/>
<path d="M955.64 345.036C956.002 339.612 959.745 334.126 965.295 332.566C960.402 335.236 957.268 339.941 955.64 345.036Z" fill="#7A3D3D"/>
<path d="M959.358 343.891C966.382 346.549 965.149 349.861 969.139 354.575C970.487 356.372 972.69 356.816 974.626 357.723C977.091 359.201 978.755 362.008 978.67 364.816C978.393 362.461 976.981 360.199 975.021 358.81C972.702 357.377 970.344 357.541 968.466 355.139C964.428 350.355 966.041 347.394 959.358 343.891Z" fill="#7A3D3D"/>
<path d="M963.812 341.024C967.677 341.662 971.499 343.521 973.599 346.825C977.388 351.547 983.574 356.191 982.829 362.81C982.674 356.296 976.612 352.173 972.924 347.309C970.988 344.046 967.431 342.152 963.812 341.024Z" fill="#7A3D3D"/>
<path d="M963.812 336.582C970.355 335.821 977.525 337.278 982.166 342.062C984.445 344.224 986.414 346.773 987.562 349.672C988.07 351.014 988.432 352.45 988.432 353.886C988.405 354.7 988.426 355.695 988.517 356.506C988.943 360.997 990.042 365.667 988.77 370.122C989.853 364.656 987.592 359.176 987.626 353.713C987.203 348.4 983.356 343.945 979.272 340.638C974.942 337.38 969.184 336.473 963.812 336.582Z" fill="#7A3D3D"/>
<path d="M994.419 361.557C995.655 366.588 996.02 372.016 994.401 377.009C993.71 379.499 992.353 381.814 991.674 384.281C991.102 386.842 992.709 389.3 992.432 391.893C992.383 395.444 990.831 399.136 987.715 401.198C987.009 401.662 986.327 402.211 985.752 402.819C982.806 405.976 981.586 410.32 981.233 414.485C981.136 416.217 981.181 417.977 980.795 419.68C979.775 426.588 972.955 431.789 973.695 438.997C972.557 431.845 979.212 426.394 980.113 419.56C980.457 417.871 980.372 416.144 980.457 414.435C980.777 409.876 982.149 405.069 985.591 401.762C986.066 401.306 986.653 400.863 987.204 400.493C990.856 398.09 992.082 393.42 991.44 389.362C991.123 387.632 990.427 385.887 990.95 384.122C991.696 381.587 993.074 379.352 993.847 376.838C995.576 371.939 995.366 366.594 994.419 361.557Z" fill="#7A3D3D"/>
<path d="M985.135 380.502C987.856 389.025 984.481 390.244 981.185 397.119C980.522 398.57 980.586 400.021 980.452 401.589C979.706 404.503 978.486 405.234 978.669 408.77C978.109 405.986 978.885 404.462 979.7 401.942C979.904 400.564 979.618 399.108 980.078 397.748C980.136 397.484 980.288 397.084 980.376 396.826C983.669 389.563 986.766 389.762 985.135 380.502Z" fill="#7A3D3D"/>
<path d="M995.299 384.586C995.131 387.142 994.821 389.738 995.277 392.246C995.43 393.127 996.002 393.738 996.315 394.537C997.021 396.214 997.246 398.064 996.921 399.838C996.528 401.523 995.667 403.106 995.682 404.874C995.296 403.139 995.956 401.438 996.227 399.741C996.558 392.754 992.42 394.522 995.299 384.586Z" fill="#7A3D3D"/>
<path d="M989.197 406.725C987.283 409.174 985.39 412.076 985.524 415.236C986.041 419.959 986.254 425.856 983.628 430.038C985.442 425.509 985.073 420.443 984.702 415.691C984.413 412.194 986.665 409.007 989.197 406.725Z" fill="#7A3D3D"/>
<path d="M983.85 364.16C983.85 364.16 987.268 364.421 987.341 369.614C987.408 374.603 984.301 380.351 980.549 379.42C979.353 379.05 978.315 374.686 978.145 370.782C977.974 366.882 979.833 364.148 983.85 364.16Z" fill="#DE9681"/>
<path d="M981.16 375.7C979.647 368.951 983.232 367.036 983.384 366.957C983.57 366.86 983.798 366.93 983.898 367.107C983.996 367.286 983.926 367.506 983.743 367.603C983.64 367.659 981.735 368.707 981.561 372.096C982.617 370.901 984.3 370.69 984.391 370.678C984.598 370.654 984.787 370.798 984.814 370.998C984.839 371.201 984.69 371.383 984.483 371.406C984.385 371.418 982.124 371.712 981.592 373.577C981.643 374.176 981.741 374.828 981.902 375.544C981.942 375.723 981.838 375.903 981.662 375.964C981.646 375.97 981.628 375.976 981.61 375.979C981.406 376.023 981.202 375.897 981.16 375.7Z" fill="#BA6D5B"/>
<path d="M1033.27 293.877H915.746C910.457 293.877 906.169 298.013 906.169 303.114V314.469H1042.85V303.114C1042.85 298.013 1038.56 293.877 1033.27 293.877Z" fill="#8CCBFF"/>
<path d="M1033.78 303.716H1020.63C1019.83 303.716 1019.17 303.088 1019.17 302.31V302.086C1019.17 301.311 1019.83 300.683 1020.63 300.683H1033.78C1034.58 300.683 1035.23 301.311 1035.23 302.086V302.31C1035.23 303.088 1034.58 303.716 1033.78 303.716Z" fill="white"/>
<path d="M1033.78 310.287H1025.45C1024.64 310.287 1023.99 309.655 1023.99 308.88V308.657C1023.99 307.878 1024.64 307.25 1025.45 307.25H1033.78C1034.58 307.25 1035.23 307.881 1035.23 308.657V308.88C1035.23 309.655 1034.58 310.287 1033.78 310.287Z" fill="white"/>
<path d="M1033.27 530.124H915.747C910.053 530.124 905.421 525.656 905.421 520.164V303.115C905.421 297.623 910.053 293.156 915.747 293.156H1033.27C1038.96 293.156 1043.59 297.623 1043.59 303.115V520.164C1043.59 525.656 1038.96 530.124 1033.27 530.124ZM915.747 294.598C910.877 294.598 906.918 298.419 906.918 303.115V520.164C906.918 524.86 910.877 528.681 915.747 528.681H1033.27C1038.14 528.681 1042.1 524.86 1042.1 520.164V303.115C1042.1 298.419 1038.14 294.598 1033.27 294.598H915.747Z" fill="white"/>
<path d="M1001 298.491H948.01C944.763 298.491 942.128 295.948 942.128 292.814V291.627H1006.89V292.814C1006.89 295.948 1004.25 298.491 1001 298.491Z" fill="#303C72"/>
<path d="M916.927 326.648H798.646C794.845 326.648 791.763 329.623 791.763 333.291V366.397C791.763 370.068 794.845 373.041 798.646 373.041H904.879L923.811 394.959V333.291C923.811 329.623 920.728 326.648 916.927 326.648Z" fill="white"/>
<path d="M869.409 341.712H910.23C911.39 341.712 912.33 340.804 912.33 339.685V338.035C912.33 336.916 911.39 336.008 910.23 336.008H869.409C868.246 336.008 867.306 336.916 867.306 338.035V339.685C867.306 340.804 868.246 341.712 869.409 341.712Z" fill="#D4E7FF"/>
<path d="M803.917 341.712H856.565C857.727 341.712 858.668 340.804 858.668 339.685V338.035C858.668 336.916 857.727 336.008 856.565 336.008H803.917C802.758 336.008 801.817 336.916 801.817 338.035V339.685C801.817 340.804 802.758 341.712 803.917 341.712Z" fill="#D4E7FF"/>
<path d="M885.345 352.862H910.232C911.391 352.862 912.331 351.954 912.331 350.835V349.188C912.331 348.066 911.391 347.158 910.232 347.158H885.345C884.186 347.158 883.242 348.066 883.242 349.188V350.835C883.242 351.954 884.186 352.862 885.345 352.862Z" fill="#D4E7FF"/>
<path d="M861.422 352.862H873.159C874.322 352.862 875.262 351.954 875.262 350.835V349.188C875.262 348.066 874.322 347.158 873.159 347.158H861.422C860.263 347.158 859.322 348.066 859.322 349.188V350.835C859.322 351.954 860.263 352.862 861.422 352.862Z" fill="#D4E7FF"/>
<path d="M803.917 352.862H849.714C850.877 352.862 851.817 351.954 851.817 350.835V349.188C851.817 348.066 850.877 347.158 849.714 347.158H803.917C802.758 347.158 801.817 348.066 801.817 349.188V350.835C801.817 351.954 802.758 352.862 803.917 352.862Z" fill="#D4E7FF"/>
<path d="M896.146 364.012H910.232C911.392 364.012 912.332 363.105 912.332 361.983V360.335C912.332 359.213 911.392 358.306 910.232 358.306H896.146C894.986 358.306 894.046 359.213 894.046 360.335V361.983C894.046 363.105 894.986 364.012 896.146 364.012Z" fill="#D4E7FF"/>
<path d="M803.917 364.012H885.028C886.187 364.012 887.128 363.105 887.128 361.983V360.335C887.128 359.213 886.187 358.306 885.028 358.306H803.917C802.758 358.306 801.817 359.213 801.817 360.335V361.983C801.817 363.105 802.758 364.012 803.917 364.012Z" fill="#D4E7FF"/>
<path d="M884.64 374.003H798.649C794.303 374.003 790.767 370.591 790.767 366.397V333.291C790.767 329.097 794.303 325.687 798.649 325.687H895.133C895.684 325.687 896.129 326.116 896.129 326.647C896.129 327.179 895.684 327.611 895.133 327.611H798.649C795.404 327.611 792.763 330.157 792.763 333.291V366.397C792.763 369.53 795.404 372.08 798.649 372.08H884.64C885.191 372.08 885.639 372.508 885.639 373.04C885.639 373.572 885.191 374.003 884.64 374.003Z" fill="#8CCBFF"/>
<path d="M884.422 270.576H766.144C762.344 270.576 759.261 273.551 759.261 277.22V338.888L778.193 316.969H884.422C888.226 316.969 891.309 313.994 891.309 310.325V277.22C891.309 273.551 888.226 270.576 884.422 270.576Z" fill="white"/>
<path d="M838.133 285.734H773.121C771.959 285.734 771.019 284.826 771.019 283.707V282.057C771.019 280.938 771.959 280.03 773.121 280.03H838.133C839.293 280.03 840.233 280.938 840.233 282.057V283.707C840.233 284.826 839.293 285.734 838.133 285.734Z" fill="#D4E7FF"/>
<path d="M879.433 285.734H850.976C849.816 285.734 848.876 284.826 848.876 283.707V282.057C848.876 280.938 849.816 280.03 850.976 280.03H879.433C880.595 280.03 881.536 280.938 881.536 282.057V283.707C881.536 284.826 880.595 285.734 879.433 285.734Z" fill="#D4E7FF"/>
<path d="M797.201 296.881H773.121C771.962 296.881 771.019 295.974 771.019 294.855V293.204C771.019 292.085 771.962 291.178 773.121 291.178H797.201C798.361 291.178 799.301 292.085 799.301 293.204V294.855C799.301 295.974 798.361 296.881 797.201 296.881Z" fill="#D4E7FF"/>
<path d="M860 296.881H810.189C809.029 296.881 808.089 295.974 808.089 294.855V293.204C808.089 292.085 809.029 291.178 810.189 291.178H860C861.159 291.178 862.1 292.085 862.1 293.204V294.855C862.1 295.974 861.159 296.881 860 296.881Z" fill="#D4E7FF"/>
<path d="M879.432 296.881H871.708C870.546 296.881 869.605 295.974 869.605 294.855V293.204C869.605 292.085 870.546 291.178 871.708 291.178H879.432C880.594 291.178 881.534 292.085 881.534 293.204V294.855C881.534 295.974 880.594 296.881 879.432 296.881Z" fill="#D4E7FF"/>
<path d="M825.029 308.034H773.121C771.962 308.034 771.019 307.123 771.019 306.004V304.357C771.019 303.235 771.962 302.327 773.121 302.327H825.029C826.189 302.327 827.129 303.235 827.129 304.357V306.004C827.129 307.123 826.189 308.034 825.029 308.034Z" fill="#D4E7FF"/>
<path d="M879.433 308.034H836.15C834.987 308.034 834.047 307.123 834.047 306.004V304.357C834.047 303.235 834.987 302.327 836.15 302.327H879.433C880.596 302.327 881.536 303.235 881.536 304.357V306.004C881.536 307.123 880.596 308.034 879.433 308.034Z" fill="#D4E7FF"/>
<path d="M884.422 317.928H791.765C791.215 317.928 790.767 317.499 790.767 316.968C790.767 316.436 791.215 316.004 791.765 316.004H884.422C887.669 316.004 890.311 313.458 890.311 310.324V277.219C890.311 274.085 887.669 271.536 884.422 271.536H766.145C762.901 271.536 760.259 274.085 760.259 277.219V282.881C760.259 283.413 759.812 283.844 759.261 283.844C758.71 283.844 758.263 283.413 758.263 282.881V277.219C758.263 273.025 761.799 269.612 766.145 269.612H884.422C888.771 269.612 892.307 273.025 892.307 277.219V310.324C892.307 314.518 888.771 317.928 884.422 317.928Z" fill="#8CCBFF"/>
</svg>
