<svg width="1544" height="728" viewBox="0 0 1544 728" fill="none" xmlns="http://www.w3.org/2000/svg">
<rect width="1543.05" height="728" fill="white"/>
<path d="M601.954 542H597.735L605.416 520.182H610.295L617.987 542H613.768L607.941 524.656H607.771L601.954 542ZM602.092 533.445H613.598V536.62H602.092V533.445ZM627.309 548.477C625.924 548.477 624.734 548.289 623.74 547.913C622.746 547.543 621.947 547.046 621.343 546.421C620.739 545.796 620.32 545.104 620.086 544.344L623.559 543.502C623.715 543.822 623.942 544.138 624.241 544.45C624.539 544.77 624.94 545.033 625.445 545.239C625.956 545.452 626.599 545.558 627.373 545.558C628.467 545.558 629.372 545.292 630.089 544.759C630.807 544.234 631.165 543.367 631.165 542.16V539.06H630.974C630.775 539.457 630.484 539.866 630.1 540.285C629.724 540.704 629.223 541.055 628.598 541.339C627.98 541.624 627.202 541.766 626.265 541.766C625.008 541.766 623.868 541.471 622.845 540.881C621.83 540.285 621.02 539.397 620.416 538.218C619.82 537.032 619.521 535.548 619.521 533.765C619.521 531.968 619.82 530.452 620.416 529.216C621.02 527.973 621.833 527.032 622.856 526.393C623.879 525.746 625.018 525.423 626.276 525.423C627.234 525.423 628.023 525.587 628.641 525.913C629.266 526.233 629.763 526.62 630.132 527.075C630.501 527.522 630.782 527.945 630.974 528.342H631.187V525.636H634.99V542.266C634.99 543.665 634.656 544.823 633.989 545.739C633.321 546.656 632.408 547.341 631.251 547.795C630.093 548.25 628.779 548.477 627.309 548.477ZM627.341 538.74C628.158 538.74 628.854 538.541 629.429 538.143C630.004 537.746 630.441 537.174 630.739 536.428C631.038 535.683 631.187 534.788 631.187 533.744C631.187 532.714 631.038 531.812 630.739 531.038C630.448 530.263 630.015 529.663 629.44 529.237C628.871 528.804 628.172 528.587 627.341 528.587C626.482 528.587 625.764 528.811 625.189 529.259C624.614 529.706 624.18 530.32 623.889 531.102C623.598 531.876 623.452 532.756 623.452 533.744C623.452 534.745 623.598 535.622 623.889 536.375C624.188 537.121 624.624 537.703 625.2 538.122C625.782 538.534 626.496 538.74 627.341 538.74ZM649.372 535.118V525.636H653.229V542H649.489V539.092H649.319C648.95 540.008 648.342 540.757 647.497 541.339C646.659 541.922 645.626 542.213 644.397 542.213C643.325 542.213 642.376 541.975 641.553 541.499C640.736 541.016 640.097 540.317 639.635 539.401C639.173 538.477 638.942 537.362 638.942 536.055V525.636H642.799V535.459C642.799 536.496 643.083 537.32 643.651 537.93C644.219 538.541 644.965 538.847 645.888 538.847C646.457 538.847 647.007 538.708 647.54 538.431C648.072 538.154 648.509 537.742 648.85 537.195C649.198 536.641 649.372 535.949 649.372 535.118ZM661.903 542.33C660.866 542.33 659.932 542.146 659.101 541.776C658.278 541.4 657.624 540.846 657.141 540.114C656.665 539.383 656.427 538.481 656.427 537.408C656.427 536.485 656.598 535.722 656.939 535.118C657.28 534.514 657.745 534.031 658.334 533.669C658.924 533.307 659.588 533.033 660.327 532.849C661.072 532.657 661.843 532.518 662.638 532.433C663.597 532.334 664.375 532.245 664.971 532.167C665.568 532.082 666.001 531.954 666.271 531.783C666.548 531.606 666.687 531.332 666.687 530.963V530.899C666.687 530.097 666.449 529.475 665.973 529.035C665.497 528.594 664.812 528.374 663.917 528.374C662.972 528.374 662.223 528.58 661.669 528.992C661.122 529.404 660.753 529.891 660.561 530.452L656.96 529.94C657.244 528.946 657.713 528.115 658.366 527.447C659.02 526.773 659.819 526.268 660.763 525.935C661.708 525.594 662.752 525.423 663.895 525.423C664.684 525.423 665.469 525.516 666.25 525.7C667.031 525.885 667.745 526.19 668.391 526.616C669.037 527.036 669.556 527.607 669.947 528.332C670.344 529.056 670.543 529.962 670.543 531.048V542H666.836V539.752H666.708C666.474 540.207 666.143 540.633 665.717 541.031C665.298 541.421 664.769 541.737 664.13 541.979C663.498 542.213 662.756 542.33 661.903 542.33ZM662.905 539.496C663.679 539.496 664.35 539.344 664.918 539.038C665.486 538.726 665.923 538.314 666.229 537.803C666.541 537.291 666.697 536.734 666.697 536.13V534.202C666.577 534.301 666.371 534.393 666.079 534.479C665.795 534.564 665.476 534.638 665.121 534.702C664.765 534.766 664.414 534.823 664.066 534.873C663.718 534.923 663.416 534.965 663.16 535.001C662.585 535.079 662.07 535.207 661.616 535.384C661.161 535.562 660.802 535.81 660.54 536.13C660.277 536.442 660.145 536.847 660.145 537.344C660.145 538.055 660.405 538.591 660.923 538.953C661.442 539.315 662.102 539.496 662.905 539.496ZM674.421 542V525.636H678.16V528.364H678.331C678.629 527.419 679.14 526.691 679.865 526.18C680.596 525.661 681.431 525.402 682.368 525.402C682.581 525.402 682.819 525.413 683.082 525.434C683.352 525.448 683.576 525.473 683.753 525.509V529.056C683.59 528.999 683.331 528.95 682.976 528.907C682.628 528.857 682.29 528.832 681.964 528.832C681.26 528.832 680.628 528.985 680.067 529.29C679.513 529.589 679.077 530.004 678.757 530.537C678.437 531.07 678.278 531.684 678.278 532.38V542H674.421ZM691.714 542.288C690.429 542.288 689.278 541.957 688.262 541.297C687.247 540.636 686.444 539.678 685.855 538.42C685.265 537.163 684.971 535.636 684.971 533.839C684.971 532.021 685.269 530.487 685.865 529.237C686.469 527.98 687.282 527.032 688.305 526.393C689.328 525.746 690.468 525.423 691.725 525.423C692.684 525.423 693.472 525.587 694.09 525.913C694.708 526.233 695.198 526.62 695.56 527.075C695.922 527.522 696.203 527.945 696.402 528.342H696.561V520.182H700.429V542H696.636V539.422H696.402C696.203 539.82 695.915 540.242 695.539 540.69C695.162 541.13 694.665 541.506 694.047 541.819C693.429 542.131 692.652 542.288 691.714 542.288ZM692.79 539.124C693.607 539.124 694.303 538.903 694.878 538.463C695.453 538.016 695.89 537.394 696.189 536.599C696.487 535.803 696.636 534.876 696.636 533.818C696.636 532.76 696.487 531.84 696.189 531.059C695.897 530.278 695.464 529.67 694.889 529.237C694.321 528.804 693.621 528.587 692.79 528.587C691.931 528.587 691.213 528.811 690.638 529.259C690.063 529.706 689.63 530.324 689.338 531.112C689.047 531.901 688.902 532.803 688.902 533.818C688.902 534.841 689.047 535.754 689.338 536.556C689.637 537.352 690.074 537.98 690.649 538.442C691.231 538.896 691.945 539.124 692.79 539.124ZM709.247 542.33C708.21 542.33 707.276 542.146 706.445 541.776C705.621 541.4 704.968 540.846 704.485 540.114C704.009 539.383 703.771 538.481 703.771 537.408C703.771 536.485 703.942 535.722 704.282 535.118C704.623 534.514 705.089 534.031 705.678 533.669C706.268 533.307 706.932 533.033 707.67 532.849C708.416 532.657 709.187 532.518 709.982 532.433C710.941 532.334 711.719 532.245 712.315 532.167C712.912 532.082 713.345 531.954 713.615 531.783C713.892 531.606 714.03 531.332 714.03 530.963V530.899C714.03 530.097 713.792 529.475 713.317 529.035C712.841 528.594 712.155 528.374 711.26 528.374C710.316 528.374 709.567 528.58 709.013 528.992C708.466 529.404 708.096 529.891 707.905 530.452L704.304 529.94C704.588 528.946 705.057 528.115 705.71 527.447C706.363 526.773 707.162 526.268 708.107 525.935C709.052 525.594 710.096 525.423 711.239 525.423C712.028 525.423 712.812 525.516 713.594 525.7C714.375 525.885 715.089 526.19 715.735 526.616C716.381 527.036 716.9 527.607 717.29 528.332C717.688 529.056 717.887 529.962 717.887 531.048V542H714.18V539.752H714.052C713.817 540.207 713.487 540.633 713.061 541.031C712.642 541.421 712.113 541.737 711.474 541.979C710.841 542.213 710.099 542.33 709.247 542.33ZM710.248 539.496C711.023 539.496 711.694 539.344 712.262 539.038C712.83 538.726 713.267 538.314 713.572 537.803C713.885 537.291 714.041 536.734 714.041 536.13V534.202C713.92 534.301 713.714 534.393 713.423 534.479C713.139 534.564 712.819 534.638 712.464 534.702C712.109 534.766 711.758 534.823 711.41 534.873C711.062 534.923 710.76 534.965 710.504 535.001C709.929 535.079 709.414 535.207 708.959 535.384C708.505 535.562 708.146 535.81 707.883 536.13C707.621 536.442 707.489 536.847 707.489 537.344C707.489 538.055 707.748 538.591 708.267 538.953C708.785 539.315 709.446 539.496 710.248 539.496ZM725.621 532.412V542H721.765V525.636H725.451V528.417H725.643C726.019 527.501 726.619 526.773 727.443 526.233C728.274 525.693 729.3 525.423 730.522 525.423C731.651 525.423 732.635 525.665 733.473 526.148C734.318 526.631 734.971 527.33 735.433 528.246C735.902 529.163 736.133 530.274 736.126 531.581V542H732.269V532.178C732.269 531.084 731.985 530.228 731.417 529.61C730.856 528.992 730.078 528.683 729.084 528.683C728.409 528.683 727.809 528.832 727.283 529.131C726.765 529.422 726.356 529.844 726.058 530.398C725.767 530.952 725.621 531.624 725.621 532.412ZM746.118 542.288C744.833 542.288 743.682 541.957 742.667 541.297C741.651 540.636 740.849 539.678 740.259 538.42C739.67 537.163 739.375 535.636 739.375 533.839C739.375 532.021 739.673 530.487 740.27 529.237C740.873 527.98 741.687 527.032 742.709 526.393C743.732 525.746 744.872 525.423 746.129 525.423C747.088 525.423 747.876 525.587 748.494 525.913C749.112 526.233 749.602 526.62 749.964 527.075C750.327 527.522 750.607 527.945 750.806 528.342H750.966V520.182H754.833V542H751.04V539.422H750.806C750.607 539.82 750.319 540.242 749.943 540.69C749.567 541.13 749.069 541.506 748.452 541.819C747.834 542.131 747.056 542.288 746.118 542.288ZM747.194 539.124C748.011 539.124 748.707 538.903 749.282 538.463C749.858 538.016 750.295 537.394 750.593 536.599C750.891 535.803 751.04 534.876 751.04 533.818C751.04 532.76 750.891 531.84 750.593 531.059C750.302 530.278 749.868 529.67 749.293 529.237C748.725 528.804 748.025 528.587 747.194 528.587C746.335 528.587 745.618 528.811 745.042 529.259C744.467 529.706 744.034 530.324 743.743 531.112C743.452 531.901 743.306 532.803 743.306 533.818C743.306 534.841 743.452 535.754 743.743 536.556C744.041 537.352 744.478 537.98 745.053 538.442C745.635 538.896 746.349 539.124 747.194 539.124ZM766.08 542.32C764.482 542.32 763.097 541.968 761.925 541.265C760.754 540.562 759.844 539.578 759.198 538.314C758.559 537.05 758.239 535.572 758.239 533.882C758.239 532.192 758.559 530.711 759.198 529.44C759.844 528.168 760.754 527.181 761.925 526.478C763.097 525.775 764.482 525.423 766.08 525.423C767.678 525.423 769.063 525.775 770.235 526.478C771.407 527.181 772.313 528.168 772.952 529.44C773.598 530.711 773.921 532.192 773.921 533.882C773.921 535.572 773.598 537.05 772.952 538.314C772.313 539.578 771.407 540.562 770.235 541.265C769.063 541.968 767.678 542.32 766.08 542.32ZM766.102 539.23C766.968 539.23 767.692 538.992 768.275 538.516C768.857 538.033 769.29 537.387 769.575 536.577C769.866 535.768 770.011 534.866 770.011 533.871C770.011 532.87 769.866 531.964 769.575 531.155C769.29 530.338 768.857 529.688 768.275 529.205C767.692 528.722 766.968 528.481 766.102 528.481C765.214 528.481 764.475 528.722 763.886 529.205C763.303 529.688 762.866 530.338 762.575 531.155C762.291 531.964 762.149 532.87 762.149 533.871C762.149 534.866 762.291 535.768 762.575 536.577C762.866 537.387 763.303 538.033 763.886 538.516C764.475 538.992 765.214 539.23 766.102 539.23ZM784.636 542V525.636H788.375V528.364H788.546C788.844 527.419 789.355 526.691 790.08 526.18C790.811 525.661 791.646 525.402 792.583 525.402C792.796 525.402 793.034 525.413 793.297 525.434C793.567 525.448 793.791 525.473 793.968 525.509V529.056C793.805 528.999 793.546 528.95 793.191 528.907C792.843 528.857 792.505 528.832 792.178 528.832C791.475 528.832 790.843 528.985 790.282 529.29C789.728 529.589 789.291 530.004 788.972 530.537C788.652 531.07 788.492 531.684 788.492 532.38V542H784.636ZM803.101 542.32C801.46 542.32 800.043 541.979 798.85 541.297C797.664 540.608 796.751 539.635 796.112 538.378C795.473 537.114 795.153 535.626 795.153 533.914C795.153 532.231 795.473 530.754 796.112 529.482C796.759 528.204 797.661 527.21 798.818 526.499C799.976 525.782 801.336 525.423 802.898 525.423C803.907 525.423 804.859 525.587 805.754 525.913C806.656 526.233 807.451 526.73 808.14 527.405C808.836 528.08 809.383 528.939 809.781 529.983C810.178 531.02 810.377 532.256 810.377 533.69V534.873H796.964V532.273H806.68C806.673 531.535 806.513 530.878 806.201 530.303C805.888 529.72 805.452 529.262 804.891 528.928C804.337 528.594 803.69 528.428 802.952 528.428C802.163 528.428 801.471 528.619 800.874 529.003C800.278 529.379 799.813 529.876 799.479 530.494C799.152 531.105 798.985 531.776 798.978 532.508V534.777C798.978 535.729 799.152 536.545 799.5 537.227C799.848 537.902 800.335 538.42 800.96 538.783C801.585 539.138 802.316 539.315 803.154 539.315C803.715 539.315 804.223 539.237 804.678 539.081C805.132 538.918 805.526 538.68 805.86 538.367C806.194 538.055 806.446 537.668 806.616 537.206L810.217 537.611C809.99 538.562 809.557 539.393 808.918 540.104C808.286 540.807 807.476 541.354 806.489 541.744C805.501 542.128 804.372 542.32 803.101 542.32ZM826.573 529.962L823.057 530.345C822.958 529.99 822.784 529.656 822.535 529.344C822.294 529.031 821.967 528.779 821.555 528.587C821.143 528.396 820.639 528.3 820.042 528.3C819.24 528.3 818.565 528.474 818.018 528.822C817.479 529.17 817.212 529.621 817.219 530.175C817.212 530.651 817.386 531.038 817.741 531.336C818.104 531.634 818.7 531.879 819.531 532.071L822.322 532.668C823.871 533.001 825.021 533.531 825.774 534.255C826.534 534.979 826.917 535.928 826.925 537.099C826.917 538.129 826.616 539.038 826.019 539.827C825.43 540.608 824.609 541.219 823.558 541.659C822.507 542.099 821.3 542.32 819.936 542.32C817.933 542.32 816.321 541.901 815.099 541.062C813.878 540.217 813.15 539.042 812.915 537.536L816.676 537.174C816.846 537.913 817.209 538.47 817.763 538.847C818.317 539.223 819.037 539.411 819.925 539.411C820.841 539.411 821.577 539.223 822.131 538.847C822.692 538.47 822.972 538.005 822.972 537.451C822.972 536.982 822.791 536.595 822.429 536.29C822.074 535.984 821.52 535.75 820.767 535.587L817.976 535.001C816.406 534.674 815.245 534.124 814.492 533.349C813.739 532.568 813.366 531.581 813.373 530.388C813.366 529.379 813.64 528.506 814.194 527.767C814.755 527.021 815.532 526.446 816.527 526.041C817.528 525.629 818.682 525.423 819.989 525.423C821.907 525.423 823.416 525.832 824.517 526.648C825.625 527.465 826.31 528.57 826.573 529.962ZM830.105 548.136V525.636H833.897V528.342H834.121C834.32 527.945 834.6 527.522 834.963 527.075C835.325 526.62 835.815 526.233 836.433 525.913C837.051 525.587 837.839 525.423 838.798 525.423C840.062 525.423 841.202 525.746 842.218 526.393C843.24 527.032 844.05 527.98 844.646 529.237C845.25 530.487 845.552 532.021 845.552 533.839C845.552 535.636 845.257 537.163 844.668 538.42C844.078 539.678 843.276 540.636 842.26 541.297C841.244 541.957 840.094 542.288 838.808 542.288C837.871 542.288 837.093 542.131 836.475 541.819C835.857 541.506 835.36 541.13 834.984 540.69C834.615 540.242 834.327 539.82 834.121 539.422H833.961V548.136H830.105ZM833.887 533.818C833.887 534.876 834.036 535.803 834.334 536.599C834.639 537.394 835.076 538.016 835.644 538.463C836.22 538.903 836.916 539.124 837.732 539.124C838.585 539.124 839.298 538.896 839.874 538.442C840.449 537.98 840.882 537.352 841.173 536.556C841.472 535.754 841.621 534.841 841.621 533.818C841.621 532.803 841.475 531.901 841.184 531.112C840.893 530.324 840.46 529.706 839.884 529.259C839.309 528.811 838.592 528.587 837.732 528.587C836.909 528.587 836.209 528.804 835.634 529.237C835.058 529.67 834.622 530.278 834.323 531.059C834.032 531.84 833.887 532.76 833.887 533.818ZM855.992 542.32C854.394 542.32 853.009 541.968 851.838 541.265C850.666 540.562 849.757 539.578 849.11 538.314C848.471 537.05 848.151 535.572 848.151 533.882C848.151 532.192 848.471 530.711 849.11 529.44C849.757 528.168 850.666 527.181 851.838 526.478C853.009 525.775 854.394 525.423 855.992 525.423C857.59 525.423 858.975 525.775 860.147 526.478C861.319 527.181 862.225 528.168 862.864 529.44C863.51 530.711 863.833 532.192 863.833 533.882C863.833 535.572 863.51 537.05 862.864 538.314C862.225 539.578 861.319 540.562 860.147 541.265C858.975 541.968 857.59 542.32 855.992 542.32ZM856.014 539.23C856.88 539.23 857.605 538.992 858.187 538.516C858.769 538.033 859.203 537.387 859.487 536.577C859.778 535.768 859.923 534.866 859.923 533.871C859.923 532.87 859.778 531.964 859.487 531.155C859.203 530.338 858.769 529.688 858.187 529.205C857.605 528.722 856.88 528.481 856.014 528.481C855.126 528.481 854.387 528.722 853.798 529.205C853.215 529.688 852.779 530.338 852.487 531.155C852.203 531.964 852.061 532.87 852.061 533.871C852.061 534.866 852.203 535.768 852.487 536.577C852.779 537.387 853.215 538.033 853.798 538.516C854.387 538.992 855.126 539.23 856.014 539.23ZM880.04 529.962L876.524 530.345C876.425 529.99 876.251 529.656 876.002 529.344C875.761 529.031 875.434 528.779 875.022 528.587C874.61 528.396 874.106 528.3 873.509 528.3C872.707 528.3 872.032 528.474 871.485 528.822C870.945 529.17 870.679 529.621 870.686 530.175C870.679 530.651 870.853 531.038 871.208 531.336C871.57 531.634 872.167 531.879 872.998 532.071L875.789 532.668C877.337 533.001 878.488 533.531 879.241 534.255C880.001 534.979 880.384 535.928 880.391 537.099C880.384 538.129 880.082 539.038 879.486 539.827C878.896 540.608 878.076 541.219 877.025 541.659C875.974 542.099 874.766 542.32 873.403 542.32C871.4 542.32 869.788 541.901 868.566 541.062C867.344 540.217 866.616 539.042 866.382 537.536L870.143 537.174C870.313 537.913 870.675 538.47 871.229 538.847C871.783 539.223 872.504 539.411 873.392 539.411C874.308 539.411 875.043 539.223 875.597 538.847C876.158 538.47 876.439 538.005 876.439 537.451C876.439 536.982 876.258 536.595 875.896 536.29C875.54 535.984 874.987 535.75 874.234 535.587L871.442 535.001C869.873 534.674 868.712 534.124 867.959 533.349C867.206 532.568 866.833 531.581 866.84 530.388C866.833 529.379 867.107 528.506 867.661 527.767C868.222 527.021 868.999 526.446 869.994 526.041C870.995 525.629 872.149 525.423 873.456 525.423C875.374 525.423 876.883 525.832 877.984 526.648C879.092 527.465 879.777 528.57 880.04 529.962ZM891.743 525.636V528.619H882.336V525.636H891.743ZM884.658 521.716H888.515V537.078C888.515 537.597 888.593 537.994 888.749 538.271C888.912 538.541 889.125 538.726 889.388 538.825C889.651 538.925 889.942 538.974 890.262 538.974C890.503 538.974 890.723 538.957 890.922 538.921C891.128 538.886 891.284 538.854 891.391 538.825L892.041 541.84C891.835 541.911 891.54 541.989 891.157 542.075C890.78 542.16 890.319 542.21 889.772 542.224C888.806 542.252 887.936 542.107 887.162 541.787C886.387 541.46 885.773 540.956 885.319 540.274C884.871 539.592 884.651 538.74 884.658 537.717V521.716ZM899.677 542.33C898.64 542.33 897.706 542.146 896.875 541.776C896.051 541.4 895.398 540.846 894.915 540.114C894.439 539.383 894.201 538.481 894.201 537.408C894.201 536.485 894.371 535.722 894.712 535.118C895.053 534.514 895.518 534.031 896.108 533.669C896.697 533.307 897.361 533.033 898.1 532.849C898.846 532.657 899.616 532.518 900.412 532.433C901.371 532.334 902.148 532.245 902.745 532.167C903.341 532.082 903.775 531.954 904.045 531.783C904.322 531.606 904.46 531.332 904.46 530.963V530.899C904.46 530.097 904.222 529.475 903.746 529.035C903.27 528.594 902.585 528.374 901.69 528.374C900.746 528.374 899.996 528.58 899.442 528.992C898.895 529.404 898.526 529.891 898.334 530.452L894.733 529.94C895.018 528.946 895.486 528.115 896.14 527.447C896.793 526.773 897.592 526.268 898.537 525.935C899.481 525.594 900.525 525.423 901.669 525.423C902.457 525.423 903.242 525.516 904.023 525.7C904.805 525.885 905.518 526.19 906.165 526.616C906.811 527.036 907.329 527.607 907.72 528.332C908.118 529.056 908.317 529.962 908.317 531.048V542H904.609V539.752H904.481C904.247 540.207 903.917 540.633 903.491 541.031C903.072 541.421 902.542 541.737 901.903 541.979C901.271 542.213 900.529 542.33 899.677 542.33ZM900.678 539.496C901.452 539.496 902.123 539.344 902.692 539.038C903.26 538.726 903.697 538.314 904.002 537.803C904.314 537.291 904.471 536.734 904.471 536.13V534.202C904.35 534.301 904.144 534.393 903.853 534.479C903.569 534.564 903.249 534.638 902.894 534.702C902.539 534.766 902.187 534.823 901.839 534.873C901.491 534.923 901.189 534.965 900.934 535.001C900.358 535.079 899.844 535.207 899.389 535.384C898.934 535.562 898.576 535.81 898.313 536.13C898.05 536.442 897.919 536.847 897.919 537.344C897.919 538.055 898.178 538.591 898.697 538.953C899.215 539.315 899.876 539.496 900.678 539.496ZM914.57 542.234C913.924 542.234 913.37 542.007 912.908 541.553C912.447 541.098 912.219 540.544 912.226 539.891C912.219 539.251 912.447 538.705 912.908 538.25C913.37 537.795 913.924 537.568 914.57 537.568C915.195 537.568 915.738 537.795 916.2 538.25C916.669 538.705 916.907 539.251 916.914 539.891C916.907 540.324 916.793 540.718 916.573 541.073C916.36 541.428 916.076 541.712 915.721 541.925C915.373 542.131 914.989 542.234 914.57 542.234ZM923.271 542.234C922.625 542.234 922.071 542.007 921.609 541.553C921.148 541.098 920.92 540.544 920.928 539.891C920.92 539.251 921.148 538.705 921.609 538.25C922.071 537.795 922.625 537.568 923.271 537.568C923.896 537.568 924.44 537.795 924.901 538.25C925.37 538.705 925.608 539.251 925.615 539.891C925.608 540.324 925.494 540.718 925.274 541.073C925.061 541.428 924.777 541.712 924.422 541.925C924.074 542.131 923.69 542.234 923.271 542.234ZM931.972 542.234C931.326 542.234 930.772 542.007 930.311 541.553C929.849 541.098 929.622 540.544 929.629 539.891C929.622 539.251 929.849 538.705 930.311 538.25C930.772 537.795 931.326 537.568 931.972 537.568C932.597 537.568 933.141 537.795 933.602 538.25C934.071 538.705 934.309 539.251 934.316 539.891C934.309 540.324 934.195 540.718 933.975 541.073C933.762 541.428 933.478 541.712 933.123 541.925C932.775 542.131 932.392 542.234 931.972 542.234Z" fill="#5A7DA0"/>
<path d="M954.692 368.2C952.046 428.636 903.559 476.212 844.698 476.212H598.016C563.103 476.212 539.116 440.006 552.041 406.674C569.27 361.134 625.41 394.833 599.688 356.535C574.755 319.404 559.91 274.092 581.187 252.267C630.441 201.746 688.582 268.75 720.54 259.043C730.733 255.733 771.206 229.572 786.946 224.885C887.241 187.751 963.298 275.632 954.692 368.2Z" fill="#E3F0FF"/>
<path d="M568.741 353.481C571.467 347.968 547.351 319.87 536.275 327.032C525.199 334.194 524.049 348.73 540.563 354.006C556.172 358.991 566.018 358.994 568.741 353.481Z" fill="#E3F0FF"/>
<path d="M622.728 235.56L619.348 215.682C619.271 215.24 618.837 214.939 618.377 215.011C617.919 215.085 617.607 215.504 617.681 215.946L620.984 235.363L606.724 246.828C606.365 247.116 606.316 247.631 606.614 247.977C606.782 248.169 607.022 248.27 607.265 248.27C607.455 248.27 607.646 248.209 607.803 248.081L622.433 236.317C622.665 236.133 622.775 235.842 622.728 235.56Z" fill="#C7DEFF"/>
<path d="M645.206 245.657L625.568 238.852C625.286 238.756 624.972 238.809 624.743 238.993L610.113 250.757C609.754 251.045 609.704 251.559 610.002 251.905C610.171 252.097 610.411 252.199 610.651 252.199C610.841 252.199 611.034 252.137 611.192 252.009L625.452 240.544L644.634 247.192C645.073 247.344 645.556 247.122 645.713 246.699C645.871 246.275 645.644 245.809 645.206 245.657Z" fill="#C7DEFF"/>
<path d="M616.407 234.256C616.476 234.656 616.832 234.938 617.237 234.938C617.284 234.938 617.328 234.936 617.375 234.928C617.836 234.856 618.148 234.437 618.071 233.992L615.485 218.786C615.411 218.344 614.975 218.043 614.517 218.115C614.056 218.189 613.744 218.608 613.821 219.05L616.407 234.256Z" fill="#C7DEFF"/>
<path d="M641.341 248.76L626.317 243.554C625.878 243.402 625.398 243.623 625.238 244.047C625.081 244.47 625.31 244.937 625.749 245.089L640.772 250.295C640.866 250.327 640.963 250.343 641.057 250.343C641.402 250.343 641.727 250.135 641.851 249.802C642.009 249.378 641.78 248.912 641.341 248.76Z" fill="#C7DEFF"/>
<path d="M811.805 360.293L791.384 356.173C790.925 356.08 790.478 356.362 790.385 356.805C790.288 357.244 790.581 357.676 791.036 357.766L810.988 361.793L816.924 378.769C817.073 379.195 817.553 379.424 817.994 379.28C818.24 379.198 818.425 379.019 818.51 378.801C818.579 378.63 818.587 378.436 818.524 378.247L812.431 360.831C812.335 360.556 812.098 360.354 811.805 360.293Z" fill="#C7DEFF"/>
<path d="M829.666 343.692L816.013 358.923C815.817 359.141 815.756 359.442 815.85 359.717L821.942 377.132C822.091 377.559 822.572 377.788 823.013 377.644C823.259 377.564 823.444 377.383 823.529 377.164C823.598 376.994 823.606 376.799 823.543 376.61L817.605 359.637L830.941 344.758C831.247 344.417 831.208 343.905 830.855 343.609C830.505 343.316 829.972 343.353 829.666 343.692Z" fill="#C7DEFF"/>
<path d="M831.271 348.288L820.825 359.94C820.519 360.281 820.557 360.796 820.91 361.089C821.264 361.384 821.796 361.347 822.1 361.006L832.546 349.354C832.612 349.282 832.662 349.2 832.695 349.114C832.819 348.803 832.736 348.438 832.46 348.206C832.107 347.913 831.575 347.947 831.271 348.288Z" fill="#C7DEFF"/>
<path d="M703.642 430.142C703.642 430.142 606.752 180.777 537.325 244.908C524.039 261.071 539.612 288.687 568.221 320.713C596.829 352.736 680.041 435.986 691.832 449.194L703.642 430.142Z" fill="#5A789F"/>
<path d="M703.641 430.142C703.641 430.142 643.679 275.822 584.296 241.207C585.609 244.511 586.415 248.079 585.149 250.343C582.246 255.534 569.156 257.914 565.414 266.525C562.213 273.898 567.299 302.359 555.814 306.036C559.589 310.803 563.745 315.703 568.22 320.713C596.829 352.736 680.041 435.985 691.831 449.194L703.641 430.142Z" fill="#5A789F"/>
<path d="M548.492 246.925C555.233 252.166 561.687 257.754 568.025 263.443C604.981 296.982 637.723 335.061 664.041 376.965C669.101 385.073 674.038 393.581 678.511 402.009C680.392 405.521 682.492 409.689 684.258 413.259C685.4 415.625 687.017 419.017 688.102 421.41L688.85 423.046L689.575 424.696L690.301 426.342L691.021 427.992C682.382 410.818 672.768 394.146 662.225 378.047C651.696 361.936 640.313 346.365 628.255 331.291C610.154 308.687 590.58 287.168 569.8 266.813C562.868 260.043 555.788 253.328 548.492 246.925Z" fill="#5AA5D1"/>
<path d="M558.635 365.366C558.635 365.366 539.949 358.004 527.297 372.432C516.63 384.602 533.754 417.637 551.438 433.627C551.438 433.627 534.091 444.12 533.503 456.21C532.915 468.296 553.331 481.054 582.229 484.662L585.149 382.15L558.635 365.366Z" fill="#5A789F"/>
<path d="M556.508 364.691C558.254 374.521 559.526 389.781 562.222 406.381C566.458 432.467 576.157 470.334 543.128 471.192C551.751 477.467 565.58 482.583 582.23 484.661L585.149 382.149L558.635 365.365C558.635 365.365 557.854 365.056 556.508 364.691Z" fill="#5A789F"/>
<path d="M536.188 374.43C550.076 388.131 563.467 402.376 576.653 416.707C580.483 420.85 584.553 425.169 588.275 429.39C595.436 437.573 602.353 446.028 608.818 454.736C609.155 455.199 609.494 455.658 609.828 456.124L609.619 456.292C599.922 446.593 590.552 436.334 581.628 425.969C578.811 422.643 575.547 418.838 572.683 415.55C563.643 405.233 554.507 394.91 545.288 384.745C542.209 381.35 539.118 377.963 535.992 374.611L536.188 374.43Z" fill="#5AA5D1"/>
<path d="M545.145 456.079C552.226 456.537 559.369 456.217 566.392 455.282C569.888 454.808 573.356 454.187 576.753 453.265C579.562 452.497 582.313 451.557 585.061 450.616C588.08 449.577 591.052 448.405 593.944 447.064C595.82 446.193 597.622 445.258 599.459 444.291L599.628 444.496C598.72 445.452 597.693 446.372 596.653 447.192C592.056 450.789 586.587 453.363 580.856 454.757C571.513 456.977 561.82 457.728 552.231 457.099C549.844 456.939 547.469 456.713 545.109 456.337L545.145 456.079Z" fill="#5AA5D1"/>
<mask id="mask0_1949_925" style="mask-type:luminance" maskUnits="userSpaceOnUse" x="573" y="260" width="138" height="227">
<path d="M573.81 260.346H710.141V486.239H573.81V260.346Z" fill="white"/>
</mask>
<g mask="url(#mask0_1949_925)">
<path d="M699.254 486.21H584.776C579.001 486.21 574.318 481.691 574.318 476.114V270.81C574.318 265.233 579.001 260.711 584.776 260.711H699.254C705.032 260.711 709.715 265.233 709.715 270.81V476.114C709.715 481.691 705.032 486.21 699.254 486.21Z" fill="#303C72"/>
</g>
<path d="M695.297 480.303H588.735C583.94 480.303 580.052 476.548 580.052 471.92V275.001C580.052 270.373 583.94 266.621 588.735 266.621H695.297C700.092 266.621 703.978 270.373 703.978 275.001V471.92C703.978 476.548 700.092 480.303 695.297 480.303Z" fill="#D4EBFF"/>
<path d="M695.297 266.621H588.735C583.94 266.621 580.052 270.373 580.052 275.001V285.303H703.978V275.001C703.978 270.373 700.092 266.621 695.297 266.621Z" fill="#8CCBFF"/>
<path d="M667.347 366.877C667.347 366.877 679.695 358.59 689.353 374.116C699.013 389.645 709.672 420.464 712.688 430.043C715.704 439.62 704.098 444.707 696.922 437.398C689.742 430.089 671.906 396.922 667.825 388.764C663.744 380.605 661.255 371.489 667.347 366.877Z" fill="#9E5959"/>
<path d="M699.944 424.727L709.88 421.598C708.939 418.883 706.644 412.544 706.644 412.544C706.644 412.544 701.131 419.334 699.944 424.727Z" fill="#914D4D"/>
<path d="M688.371 425.416C688.324 422.24 688.294 417.188 688.438 412.056C688.672 403.607 687.292 384.534 687.292 384.534L675.676 403.532C679.561 410.601 684.197 418.736 688.371 425.416Z" fill="#914D4D"/>
<path d="M668.983 364.667C668.983 364.667 658.47 369.122 663.743 382.419C669.016 395.718 685.949 423.371 691.018 431.775C696.087 440.179 703.344 444.173 708.868 441.343C714.392 438.511 714.707 433.584 712.505 426.03C710.3 418.479 695.866 383.897 692.232 376.828C688.596 369.762 679.341 359.255 668.983 364.667Z" fill="white"/>
<path d="M705.664 407.981C702.444 412.06 698.399 422.028 698.399 422.028L709.422 417.451C708.33 414.621 707.041 411.378 705.664 407.981Z" fill="#D4EBFF"/>
<path d="M690.967 431.688C691.072 425.652 691.246 412.148 690.909 404.546C690.471 394.546 688.465 382.419 688.465 382.419L680.507 414.187C684.883 421.669 688.887 428.24 690.967 431.688Z" fill="#D4EBFF"/>
<path d="M736.427 386.613C736.427 386.613 744.868 389.653 749.398 399.544L745.337 402.768L733.988 391.673L736.427 386.613Z" fill="#ABD3FC"/>
<path d="M702.072 440.377C705.907 441.658 710.168 440.518 712.894 437.614C720.286 429.734 744.634 403.515 749.656 394.743C755.597 384.37 747.794 382.87 740.534 389.305C733.277 395.74 721.404 405.484 715.871 409.974C706.865 417.285 698.079 422.729 695.259 428.266C693.284 432.141 696.33 438.458 702.072 440.377Z" fill="#9E5959"/>
<path d="M742.664 404.306C738.886 408.654 731.566 400.432 734.08 396.389C734.121 396.325 741.624 387.335 742.634 383.954C743.696 380.391 743.177 378.665 746.974 375.504C750.205 372.818 752.363 370.993 753.988 371.244C755.71 371.51 754.223 373.73 752.473 375.222C750.58 376.839 747.722 381.609 750.423 381.478C752.575 381.372 759.482 379.986 761.568 379.086C764.967 377.617 773.474 369.656 775.478 373.855C775.478 373.855 777.682 373.501 777.533 375.963C777.533 375.963 780.199 376.786 777.776 379.826C777.776 379.826 779.33 381.185 777.779 382.933C776.727 384.119 772.128 388.164 769.076 390.442C766.027 392.72 753.685 394.207 749.317 396.754C747.926 397.567 743.528 403.312 742.664 404.306Z" fill="#F6AF9A"/>
<path d="M749.325 380.689C749.524 383.221 750.404 385.272 749.535 387.814C751.684 385.808 749.794 382.826 749.325 380.689Z" fill="#E57E73"/>
<path d="M777.775 379.826C776.501 379.626 775.516 380.631 774.594 381.308C771.724 383.397 769.023 385.797 766.016 387.644C769.589 386.815 771.984 383.644 774.795 381.537C775.607 380.74 776.713 379.85 777.775 379.826Z" fill="#E57E73"/>
<path d="M777.533 375.963C774.84 376.197 772.889 378.254 770.798 379.688C768.679 381.095 766.794 383.173 764.664 384.316C765.994 384.164 767.128 383.317 768.13 382.51C771.184 380.333 773.902 376.909 777.533 375.963Z" fill="#E57E73"/>
<path d="M775.477 373.855C770.588 374.55 767.382 378.904 763.334 381.177C767.997 380.018 770.773 374.745 775.477 373.855Z" fill="#E57E73"/>
<path d="M764.14 388.519C758.997 386.925 752.082 385.86 747.599 389.427C752.527 386.635 758.757 387.759 764.14 388.519Z" fill="#EA9A88"/>
<path d="M763.005 381.044C763.938 381.825 764.236 383.032 764.528 384.143C765.461 384.99 765.646 386.371 765.88 387.538C766.355 387.873 766.366 388.537 766.371 389.054C766.242 388.526 766.04 387.959 765.56 387.695C765.171 386.661 764.923 385.297 764.087 384.535C763.571 383.549 763.596 382.153 762.737 381.297C762.47 380.757 762.307 380.117 761.838 379.675C762.376 379.979 762.732 380.509 763.005 381.044Z" fill="#EA9A88"/>
<path d="M736.428 386.613C736.428 386.613 739.69 396.885 749.4 399.544C749.4 399.544 721.87 432.521 714.707 438.263C707.546 444.008 696.785 441.418 692.966 432.945C689.288 424.783 736.428 386.613 736.428 386.613Z" fill="white"/>
<path d="M656.369 459.585C644.349 463.395 639.476 472.085 638.02 480.302H684.012C683.049 474.981 681.964 470.968 680.753 468.898C673.151 455.892 656.369 459.585 656.369 459.585Z" fill="#F6AF9A"/>
<path d="M656.77 453.857C642.789 456.558 635.661 465.733 635.189 480.303H687.487C687.406 479.751 687.326 479.215 687.246 478.696C683.359 453.633 656.77 453.857 656.77 453.857Z" fill="#384682"/>
<path d="M621.931 422.412C623.62 440.861 618.51 452.013 616.321 463.23C615.168 469.149 614.859 474.992 615.659 480.302H677.716C681.529 471.765 680.859 463.353 680.983 458.802C681.195 451.141 681.836 438.349 681.836 438.349C684.095 404.516 620.245 403.959 621.931 422.412Z" fill="#F6AF9A"/>
<path d="M617.844 453.198C617.844 453.198 611.837 467.536 614.055 480.302H678.808C682.331 468.703 682.069 453.856 682.069 453.856C673.816 455.14 617.844 453.198 617.844 453.198Z" fill="#384682"/>
<path d="M613.39 480.302H659.106C658.891 459.596 641.134 458.205 641.134 458.205C627.183 456.787 616.842 460.869 613.39 480.302Z" fill="#F6AF9A"/>
<path d="M611.031 480.254C611.028 480.27 611.028 480.286 611.025 480.302H663.996C663.703 465.476 653.899 455.897 637.506 453.877C637.506 453.877 614.055 452.156 611.031 480.254Z" fill="#384682"/>
<path d="M635.071 357.793C646.222 355.986 655.12 357.462 665.617 360.431C672.639 362.416 680.164 364.329 683.563 368.917C689.532 376.973 686.811 396.872 685.285 406.083C683.759 415.292 682.603 434.552 681.767 439.5C680.931 444.448 658.194 452.215 644.276 450.193C633.606 448.642 623.841 443.593 622.45 434.157C620.814 423.03 618.027 407.077 614.793 397.383C611.559 387.692 606.479 367.508 622.5 360.753C625.505 359.487 632.135 358.267 635.071 357.793Z" fill="#F6AF9A"/>
<path d="M661.38 347.534C661.38 347.534 661.019 357.587 663.328 362.195C665.635 366.799 657.735 369.663 652.6 369.621C647.465 369.578 639.579 366.802 638.657 360.83C637.739 354.856 641.522 357.116 640.807 340.88C640.25 328.184 662.818 335.024 661.38 347.534Z" fill="#F6AF9A"/>
<path d="M662.606 360.313C661.102 355.306 661.381 347.534 661.381 347.534C662.52 337.601 648.528 331.243 642.996 335.405C642.77 336.82 642.665 338.413 642.709 340.212C642.731 341.147 652.151 358.706 662.606 360.313Z" fill="#EA9A88"/>
<path d="M686.378 455.927C685.621 450.433 686.378 423.51 686.485 419.649C686.593 415.785 688.659 395.54 688.439 389.488C688.215 383.434 686.471 371.308 684.912 367.665C683.351 364.026 671.582 361.244 665.421 360.314L662.383 359.488C662.383 359.488 663.357 362.89 658.161 363.754C650.512 365.025 642.196 360.522 638.752 357.305C638.752 357.305 636.724 357.055 635.35 357.303C635.35 357.303 622.044 359.36 618.559 360.713C615.074 362.067 610.061 367.99 609.846 378.113C609.628 388.236 614.925 407.152 616.437 416.843C617.952 426.537 616.978 443.129 616.33 448.869C615.681 454.608 609.412 472.871 609.305 480.071C609.305 480.071 610.099 480.159 611.504 480.303H673.232C681.968 479.44 688.433 478.686 688.971 478.297C688.971 478.297 687.36 473.601 687.247 469.741C687.134 465.88 687.134 461.422 686.378 455.927Z" fill="#85B9F1"/>
<path d="M657.335 365.659C660.724 365.622 665.555 372.555 665.555 372.555C667.073 369.906 668.488 364.273 669.225 360.996C667.837 360.711 666.535 360.482 665.42 360.314L662.382 359.488C662.382 359.488 663.356 362.89 658.16 363.754C650.511 365.025 642.195 360.522 638.751 357.305C638.751 357.305 636.723 357.055 635.349 357.303C635.349 357.303 634.538 357.428 633.266 357.639L631.514 360.247L652.815 376.84C652.815 376.84 652.752 375.742 653.503 372.049C654.711 366.088 657.335 365.659 657.335 365.659Z" fill="#75AEEB"/>
<path d="M629.042 413.957C630.75 401.353 631.415 378.968 631.415 378.968C631.415 378.968 619.765 383.397 610.306 385.123C611.603 395.457 615.229 409.097 616.437 416.843C617.952 426.534 616.978 443.129 616.33 448.868C615.681 454.608 609.412 472.871 609.305 480.071C609.305 480.071 610.099 480.159 611.504 480.303H631.622C620.055 474.238 620.714 456.468 622.24 446.652C624.034 435.093 627.751 423.494 629.042 413.957Z" fill="#75AEEB"/>
<path d="M657.816 367.569C659.402 367.513 659.747 364.891 659.811 363.33C659.344 363.503 658.798 363.647 658.158 363.754C656.844 363.972 655.509 364.02 654.185 363.935C654.756 365.163 656.119 367.628 657.816 367.569Z" fill="#384682"/>
<path d="M656.492 366.069C656.492 366.069 664.82 402.856 665.554 410.956L670.727 420.461L672.905 407.98C672.905 407.98 664.254 378.206 658.542 365.698L656.492 366.069Z" fill="#384682"/>
<path d="M656.966 363.905C656.966 363.905 661.256 361.864 662.379 359.487C662.379 359.487 664.231 359.431 664.998 359.799C664.998 359.799 666.248 366.087 664.998 370.1C664.998 370.1 660.754 364.553 657.413 364.832C654.063 365.115 651.886 372.709 651.886 372.709C651.886 372.709 639.988 363.721 638.515 357.329L638.851 356.956C638.851 356.956 649.013 362.698 656.966 363.905Z" fill="#96C3F2"/>
<path d="M679.18 311.786C679.18 311.786 680.833 319.385 678.52 328.301L673.413 311.485L679.18 311.786Z" fill="#8C4949"/>
<path d="M658.162 297.184C658.162 297.184 674.726 298.124 677.402 312.348C680.079 326.571 678.404 352.301 668.782 355.117C660.002 357.688 646.454 348.911 640.75 340.102C634.749 330.832 632.619 319.015 636.151 310.077C639.244 302.254 645.138 296.507 658.162 297.184Z" fill="#F6AF9A"/>
<path d="M650.631 313.816C650.631 313.816 648.939 316.238 649.406 319.897C649.709 322.279 648.763 323.137 646.194 326.609C643.622 330.081 644.218 330.283 643.462 334.11C642.706 337.933 640.86 347.31 640.81 348.059C640.758 348.81 638.377 346.178 636.594 340.96C634.814 335.743 631.031 325.62 630.706 316.332C630.383 307.046 639.246 297.653 648.327 296.712C648.327 296.712 656.974 292.955 665.299 296.297C673.621 299.635 679.752 304.717 679.399 313.081L677.584 313.139C677.584 313.139 676.201 312.159 675.76 311.903C673.745 310.736 672.106 311.314 670.277 312.465C670.277 312.465 663.158 315.921 659.375 315.506C659.375 315.506 655.057 316.795 650.631 313.816Z" fill="#8C4949"/>
<path d="M643.224 305.346C643.224 305.346 642.15 312.209 649.683 315.996C650.072 314.621 650.629 313.816 650.629 313.816C650.629 313.816 644.098 309.905 643.224 305.346Z" fill="#7D4141"/>
<path d="M647.597 299.774C647.531 303.113 648.359 306.67 650.917 309.038C653.963 311.809 659.638 312.369 663.689 312.268C663.195 312.452 662.682 312.59 662.163 312.699C658.295 313.477 653.665 313.107 650.472 310.664C647.238 308.116 646.264 303.496 647.597 299.774Z" fill="#7D4141"/>
<path d="M651.793 298C654.025 297.28 656.393 297.03 658.743 297.04C663.498 297.083 668.401 298.538 671.888 301.751C673.632 303.345 674.959 305.324 675.721 307.456C675.037 306.539 674.336 305.663 673.563 304.858C671.301 302.463 668.401 300.675 665.233 299.62C660.931 298.175 656.329 297.856 651.793 298Z" fill="#7D4141"/>
<path d="M649.958 299.774C654.409 300.088 658.771 301.221 662.915 302.803C666.099 304.034 669.181 305.761 671.485 308.252C671.836 308.636 672.164 309.044 672.432 309.483C672.233 309.316 672.029 309.158 671.822 309.009C671.665 308.895 671.353 308.676 671.193 308.567C668.883 307.016 666.356 305.788 663.762 304.754C659.207 302.961 654.56 301.503 649.958 299.774Z" fill="#7D4141"/>
<path d="M652.845 303.741C655.758 306.392 659.533 307.765 663.252 309.033C664.513 309.459 665.799 309.84 667.099 310.328C666.406 310.402 665.716 310.41 665.021 310.389C661.55 310.227 658.04 309.155 655.334 306.989C654.28 306.105 653.278 305.044 652.845 303.741Z" fill="#7D4141"/>
<path d="M646.886 331.123C646.886 331.123 646.85 323.63 642.223 323.579C637.593 323.529 637.617 329.801 640.603 333.87C642.272 336.148 646.905 339.018 646.886 331.123Z" fill="#F6AF9A"/>
<path d="M641.792 328.632C642.702 328.682 643.42 329.165 643.922 329.655C643.792 328.794 643.425 327.963 642.584 327.446C642.366 327.313 642.302 327.036 642.44 326.825C642.578 326.615 642.862 326.553 643.083 326.687C646.088 328.528 644.52 333.028 644.452 333.217C644.369 333.452 644.104 333.577 643.861 333.494C643.856 333.494 643.853 333.492 643.847 333.492C643.613 333.406 643.489 333.156 643.571 332.924C643.577 332.906 643.844 332.138 643.944 331.158C643.938 331.15 643.927 331.142 643.922 331.131C643.913 331.118 643.061 329.602 641.739 329.53C641.483 329.516 641.287 329.303 641.3 329.055C641.314 328.808 641.535 328.618 641.792 328.632Z" fill="#E57E73"/>
<path d="M607.011 480.302H690.38C689.186 468.176 687.701 450.193 687.348 441.986C686.873 430.925 688.926 401.247 688.97 391.993C689.014 382.738 686.244 369.797 686.244 369.797C685.877 368.733 685.105 365.613 678.201 363.13C671.297 360.649 665.18 360.247 665.18 360.247C671.137 375.086 669.451 413.173 669.451 413.173C669.451 413.173 664.059 399.022 656.493 383.503C649.854 369.887 634.802 357.302 634.802 357.302C627.697 357.526 615.319 360.364 615.319 360.364C602.977 373.434 611.191 400.397 613.252 414.756C615.311 429.116 613.451 444.221 607.993 474.091C607.651 475.962 607.323 478.045 607.011 480.302Z" fill="white"/>
<path d="M669.556 409.966L669.451 413.979C674.462 380.669 671.683 363.069 671.223 361.164C667.649 360.41 665.18 360.248 665.18 360.248C670.088 372.473 669.807 400.483 669.556 409.966Z" fill="#ABD3FC"/>
<path d="M669.231 412.6C668.147 409.811 663.169 397.188 656.494 383.503C649.856 369.887 634.804 357.302 634.804 357.302C632.698 357.369 630.129 357.665 627.558 358.048C627.558 358.048 663.693 396.413 669.452 413.978L669.231 412.6Z" fill="#ABD3FC"/>
<path d="M667.704 480.303H668.808C669.903 457.878 670.676 435.452 669.451 413.174C670.107 435.514 668.846 457.992 667.704 480.303Z" fill="#ABD3FC"/>
<path d="M613.252 414.756C615.311 429.115 613.451 444.221 607.993 474.091C607.651 475.962 607.323 478.045 607.011 480.302H616.456L618.189 463.044C618.641 458.197 620.371 439.776 620.942 434.434C621.605 428.265 622.926 427.413 626.232 410.277C629.538 393.141 630.327 378.296 630.327 378.296L609.916 396.189C611.02 403.13 612.524 409.691 613.252 414.756Z" fill="#D4EBFF"/>
<path d="M663.691 359.525C663.691 359.525 668.101 376.357 669.45 413.174C669.45 413.174 671.624 391.143 671.075 376.994C670.523 362.848 670.115 360.942 670.115 360.942C670.115 360.942 665.507 359.16 663.691 359.525Z" fill="white"/>
<path d="M669.452 413.173C656.494 383.503 628.738 357.878 628.738 357.878C631.522 356.527 638.854 356.956 638.854 356.956C638.854 356.956 649.659 368.803 657.195 382.952C667.344 402.009 669.452 413.173 669.452 413.173Z" fill="white"/>
<path d="M616.157 360.946C616.157 360.946 631.149 362.108 628.403 380.027C625.658 397.944 613.63 428.291 609.665 437.542C605.699 446.791 593.892 443.772 593.153 433.724C592.411 423.678 599.924 386.958 602.137 378.151C604.347 369.347 608.417 360.778 616.157 360.946Z" fill="#F6AF9A"/>
<path d="M618.558 360.713C618.558 360.713 607.556 356.359 601.442 377.1C595.324 397.841 591.359 425.446 591.194 434.7C591.028 443.954 600.429 448.524 606.397 445.071C612.368 441.62 618.814 420.133 622.688 409.187C628.737 392.099 638.154 364.907 618.558 360.713Z" fill="white"/>
<path d="M593.029 432.831C593.029 432.831 592.927 462.266 594.285 480.303H607.239C608.197 472.133 609.4 463.186 610.084 458.275C611.654 447.017 613.081 438.05 613.249 430.883C613.47 421.517 593.694 419.55 593.029 432.831Z" fill="#F6AF9A"/>
<path d="M603.719 417.946C603.719 417.946 592.348 418.906 591.192 432.626C590.322 442.956 590.198 464.862 590.615 480.303H611.983C613.79 461.686 616.983 428.48 617.049 425.418C617.143 421.139 609.304 416.99 603.719 417.946Z" fill="white"/>
<path d="M703.301 442.071V471.92C703.301 476.181 699.708 479.647 695.296 479.647H588.735C584.32 479.647 580.73 476.181 580.73 471.92V275.001C580.73 270.741 584.32 267.274 588.735 267.274H695.296C699.708 267.274 703.301 270.741 703.301 275.001V402.206C703.69 403.15 704.076 404.088 704.457 405.023C704.581 404.903 704.656 404.74 704.656 404.559V275.001C704.656 270.019 700.456 265.966 695.296 265.966H588.735C583.572 265.966 579.375 270.019 579.375 275.001V471.92C579.375 476.903 583.572 480.956 588.735 480.956H695.296C700.456 480.956 704.656 476.903 704.656 471.92V442.234C704.209 442.212 703.756 442.159 703.301 442.071Z" fill="white"/>
<path d="M666.04 270.807H617.993C615.046 270.807 612.656 268.5 612.656 265.657V264.58H671.374V265.657C671.374 268.5 668.987 270.807 666.04 270.807Z" fill="#303C72"/>
<path d="M962.527 311.929C964.089 310.868 965.802 310.056 967.624 309.51C975.132 307.25 994.557 303.52 1009.28 319.262C1024.99 336.062 1002.25 383.697 977.905 407.161C977.905 407.161 1003.01 421.294 1004.42 438.422C1005.82 455.55 977.449 474.554 936.612 480.941L927.636 335.591L962.527 311.929Z" fill="#5A789F"/>
<path d="M967.464 309.559C965.449 323.585 964.359 345.296 961.316 368.971C956.534 406.179 944.553 460.345 991.469 460.113C979.527 469.394 960.138 477.263 936.612 480.942L927.636 335.592L962.53 311.927C964.025 310.912 965.664 310.11 967.406 309.577L967.464 309.559Z" fill="#5A789F"/>
<path d="M997.005 322.701C978.755 343.426 961.005 364.641 943.461 385.931C938.481 392.007 933.103 398.761 928.1 404.826C917.805 417.232 907.151 429.852 896.36 441.851L896.145 441.691C896.614 441.027 897.088 440.369 897.56 439.711C899.933 436.431 902.364 433.143 904.789 429.916C911.605 420.883 918.691 411.877 925.89 403.126C933.081 394.453 940.721 385.718 948.047 377.146C957.533 366.099 967.279 354.972 977.009 344.129C981.286 339.357 985.803 334.38 990.137 329.671C992.35 327.281 994.561 324.891 996.801 322.525L997.005 322.701Z" fill="#5AA5D1"/>
<path d="M987.948 439.063C972.048 441.682 955.628 441.466 939.803 438.436C938.15 438.114 936.426 437.736 934.801 437.32C927.784 435.484 921.018 432.548 915.05 428.529C914.236 427.983 913.256 427.277 912.486 426.675C911.664 426.038 910.836 425.353 910.063 424.663L910.224 424.453C911.708 425.249 913.17 426.051 914.663 426.792C916.095 427.512 917.701 428.274 919.175 428.921C923.327 430.77 927.632 432.316 931.986 433.659C936.349 435.01 940.761 436.249 945.253 437.147C957.606 439.51 970.313 440.075 982.87 439.26C984.551 439.148 986.234 439.009 987.903 438.804L987.948 439.063Z" fill="#5AA5D1"/>
<mask id="mask1_1949_925" style="mask-type:luminance" maskUnits="userSpaceOnUse" x="815" y="260" width="137" height="227">
<path d="M815.396 260.346H951.727V486.24H815.396V260.346Z" fill="white"/>
</mask>
<g mask="url(#mask1_1949_925)">
<path d="M940.77 486.209H826.293C820.517 486.209 815.832 481.69 815.832 476.113V270.809C815.832 265.232 820.517 260.71 826.293 260.71H940.77C946.548 260.71 951.231 265.232 951.231 270.809V476.113C951.231 481.69 946.548 486.209 940.77 486.209Z" fill="#303C72"/>
</g>
<path d="M936.808 480.303H830.249C825.453 480.303 821.565 476.548 821.565 471.92V275.001C821.565 270.373 825.453 266.621 830.249 266.621H936.808C941.603 266.621 945.491 270.373 945.491 275.001V471.92C945.491 476.548 941.603 480.303 936.808 480.303Z" fill="#D4EBFF"/>
<path d="M845.726 376.687C846.545 372.384 850.055 368.824 854.779 368.03C860.847 367.009 866.622 370.929 867.679 376.786C867.897 378.003 867.897 379.208 867.701 380.361C867.657 380.633 867.599 380.902 867.532 381.169C866.445 386.314 860.32 414.892 854.564 432.42C853.959 435.447 851.481 437.941 848.151 438.5C843.846 439.225 839.749 436.443 838.998 432.286C838.703 430.661 843.496 385.784 845.726 376.687Z" fill="#DE9681"/>
<path d="M856.176 378.289C856.176 378.289 860.894 374.092 867.699 376.904C867.897 378.081 867.889 379.246 867.702 380.362C867.657 380.634 867.599 380.903 867.533 381.17C866.595 385.609 861.907 407.496 856.94 424.674C856.49 422.564 855.111 420.456 854.427 419.931C853.353 419.108 850.558 416.662 849.187 412.364C848.204 409.292 850.075 397.789 852.219 391.74C854.363 385.689 856.176 378.289 856.176 378.289Z" fill="#EA9A88"/>
<path d="M859.671 367.569C859.671 367.569 855.443 366.724 849.701 369.173C847.982 369.906 846.338 372.776 845.22 375.001C840.952 383.514 837.701 409.376 837.701 409.376C837.701 409.376 848.827 419.393 860.485 422.606C860.485 422.606 869.166 386.075 868.992 378.422C868.818 370.772 863.037 368.355 859.671 367.569Z" fill="#FCF5F1"/>
<path d="M865.911 398.081L851.852 376.533C851.852 376.533 854.827 385.321 853.312 391.209C851.797 397.101 848.193 405.158 847.63 409.965C847.388 412.046 847.501 414.556 847.708 416.733C851.466 419.06 855.936 421.351 860.486 422.606C860.486 422.606 863.477 410.024 865.911 398.081Z" fill="#F0E2DA"/>
<path d="M850.175 422.424C845.898 420.874 841.124 422.963 839.519 427.093C839.201 427.905 839.033 428.734 838.997 429.555C838.994 429.555 835.918 469.532 835.09 480.302H844.8C845.804 475.671 847.694 467.275 849.72 459.987C853.177 447.546 854.364 436.363 854.91 431.212C855.064 430.533 855.125 429.851 855.095 429.179C854.954 426.072 853.379 423.586 850.175 422.424Z" fill="#DE9681"/>
<path d="M870.216 464.592C861.091 465.546 853.999 472.085 852.187 480.303H892.701C890.527 470.385 880.878 463.479 870.216 464.592Z" fill="#F6AF9A"/>
<path d="M850.992 480.303H893.563C890.461 462.367 876.452 462.351 874.689 462.375C874.689 462.375 855.225 461.179 850.992 480.303Z" fill="#8C4949"/>
<path d="M888.609 432.72C867.131 432.662 862.677 442.332 862.677 442.332C862.319 445.002 862.261 447.97 860.986 450.496C855.092 462.162 852.791 475.468 852.106 480.302H924.337C923.906 473.121 921.191 466.324 917.565 457.653C915.286 452.199 909.803 445.031 909.723 439.406C909.723 439.406 907.527 432.771 888.609 432.72Z" fill="#F6AF9A"/>
<path d="M862.427 444.48C862.427 444.48 861.037 446.484 857.452 455.847C854.842 462.66 852.301 474.409 851.111 480.303H925.259C924.329 472.213 921.835 463.34 919.007 458.331C915.627 452.341 910.801 442.492 910.801 442.492C901.253 444.84 862.427 444.48 862.427 444.48Z" fill="#8C4949"/>
<path d="M919.008 458.331C915.628 452.341 910.802 442.492 910.802 442.492C904.351 444.078 884.536 444.429 872.359 444.488C866.832 448.069 865.24 452.167 865.24 452.167C865.24 452.167 880.077 457.038 898.821 457.345C908.608 457.345 912.463 457.345 913.746 458.021C914.646 458.496 916.061 472.176 916.828 480.303H925.261C924.331 472.213 921.836 463.34 919.008 458.331Z" fill="#824444"/>
<path d="M883.407 480.303H923.801C921.855 472.048 914.579 465.586 905.377 464.821C894.944 463.955 885.656 470.715 883.407 480.303Z" fill="#F6AF9A"/>
<path d="M881.608 480.303H924.946C923.089 470.766 917.968 461.949 903.41 462.389C903.41 462.389 885.262 462.378 881.608 480.303Z" fill="#8C4949"/>
<path d="M915.144 464.771C915.773 469.504 916.402 475.768 916.829 480.303H924.947C923.714 473.977 921.046 467.972 915.144 464.771Z" fill="#824444"/>
<path d="M861.215 426.057C861.215 426.057 855.66 422.894 854.675 417.794C853.69 412.694 856.516 395.736 857.233 387.804C857.953 379.871 851.372 373.029 850.489 369.091C850.489 369.091 859.785 364.87 880.168 362.938C880.168 362.938 891.658 363.258 902.698 365.198C911.707 366.778 916.398 371.539 918.158 374.265C919.919 376.991 918.774 383.637 916.321 391.753C913.868 399.869 911.172 406.901 910.901 415.497C910.769 419.648 910.576 434.466 910.843 444.168C910.843 444.168 911.917 450.265 890.096 451.568C869.953 452.772 862.476 444.261 862.476 444.261C861.717 436.281 861.215 426.057 861.215 426.057Z" fill="#DE9681"/>
<path d="M914.083 398.948C912.447 404.301 911.087 409.521 910.899 415.498C910.808 418.391 910.686 426.465 910.711 434.379C905.924 421.903 899.52 384.658 899.52 384.658L914.083 398.948Z" fill="#E57E73"/>
<path d="M870.013 365.866L871.211 345.306C871.352 341.232 874.238 337.563 878.534 336.489C883.763 335.18 889.099 338.213 890.454 343.262C890.639 343.947 890.738 344.637 890.763 345.317L892.634 367.39C892.651 367.545 892.692 368.245 892.692 368.245C893.015 373.439 889.488 377.929 884.072 379.282C877.921 380.82 871.848 377.537 870.256 371.597C869.759 369.748 869.881 367.835 870.013 365.866Z" fill="#DE9681"/>
<path d="M871.212 345.306C871.352 341.232 874.239 337.563 878.535 336.489C883.764 335.18 889.1 338.213 890.455 343.262C890.64 343.947 890.739 344.637 890.764 345.317L890.861 346.465C886.495 355.946 878.549 363.001 870.083 364.709L871.212 345.306Z" fill="#D38475"/>
<path d="M862.943 365.491C862.943 365.491 864.361 371.681 874.488 373.277C884.614 374.873 905.157 365.557 905.157 365.557C905.157 365.557 909.564 365.499 912.599 367.324C912.599 367.324 918.347 370.793 919.313 375.051C920.278 379.312 918.99 386.853 918.209 389.605C917.428 392.355 912.599 416.709 912.599 422.811C912.599 427.072 915.154 439.193 916.697 446.121C917.315 448.903 915.383 451.608 912.472 452.037C902.818 453.457 881.593 455.732 860.868 452.298C857.474 451.736 855.079 448.775 855.302 445.46C855.821 437.802 856.679 425.055 856.66 424.522C856.66 424.522 852.378 421.993 851.456 414.804C850.534 407.618 856.185 389.781 855.578 386.72C854.971 383.658 849.596 372.086 849.704 369.173C849.704 369.173 855.537 366.477 862.943 365.491Z" fill="#FCF5F1"/>
<path d="M888.206 454.061C898.443 453.845 907.196 452.812 912.477 452.036C915.385 451.607 917.314 448.9 916.696 446.121C915.153 439.193 912.598 427.072 912.598 422.811C912.598 416.709 917.427 392.355 918.208 389.605C918.387 388.976 918.591 388.099 918.787 387.071C910.134 382.336 902.049 381.27 898.128 386.319C898.128 386.319 900.132 409.179 900.101 413.573C900.071 417.964 890.173 424.719 875.284 423.235C875.284 423.235 889.072 428.116 901.663 421.902L903.17 426.118H908.826C908.826 426.118 909.569 435.036 910.672 441.159C911.768 447.251 900.226 451.554 888.206 454.061Z" fill="#F0E2DA"/>
<path d="M898.21 381.281C898.08 380.228 898.1 379.144 898.287 378.046C899.355 371.792 905.473 367.558 911.951 368.587C917.327 369.442 921.264 373.657 921.838 378.64L935.193 433.12C935.477 434.186 935.543 435.324 935.345 436.48C934.589 440.92 930.246 443.925 925.649 443.195C921.775 442.577 918.955 439.505 918.615 435.897C918.615 435.897 901.748 397.489 898.516 382.831C898.378 382.325 898.276 381.806 898.21 381.281Z" fill="#DE9681"/>
<path d="M907.91 367.324C907.91 367.324 895.78 368.904 897.574 383.535C899.364 398.166 905.432 424.522 905.432 424.522C905.432 424.522 927.079 424.655 934.385 414.404C934.385 414.404 924.319 380.361 921.563 374.475C918.806 368.587 912.198 365.757 907.91 367.324Z" fill="#FCF5F1"/>
<path d="M925.079 427.853C921.685 428.626 919.257 431.277 918.697 434.4C918.575 435.077 918.542 435.775 918.606 436.481C918.462 441.757 918.65 452.881 920.465 465.895C921.133 470.678 921.688 475.893 922.104 480.303H932.965C933.853 464.432 935.421 436.473 935.421 436.473C935.495 435.636 935.435 434.776 935.225 433.918C934.157 429.537 929.615 426.822 925.079 427.853Z" fill="#DE9681"/>
<path d="M880.677 302.462C880.677 302.462 899.81 303.149 899.39 324.999C898.984 345.988 880.726 363.159 865.084 358.751C860.111 357.043 856.836 346.113 856.662 329.683C856.486 313.253 863.792 301.886 880.677 302.462Z" fill="#DE9681"/>
<path d="M906.073 353.915C903.738 346.46 905.634 332.242 904.688 325.828C904.663 325.66 904.624 325.506 904.58 325.362C903.984 316.795 901.065 309.91 894.304 304.714C887.031 299.121 875.177 301.722 875.177 301.722C869.791 301.332 858.61 305.884 855.511 313.035C852.413 320.187 853.356 330.462 854.57 333.193C855.782 335.924 854.165 338.525 853.491 340.345C852.818 342.165 854.165 343.985 855.376 346.327C856.59 348.666 854.57 351.397 854.57 351.397C856.59 350.358 857.531 347.496 856.725 345.026C855.917 342.554 855.511 341.645 856.038 339.769C856.563 337.891 856.993 336.702 857.263 333.843C857.531 330.981 856.858 325.26 858.475 321.36C860.092 317.456 866.422 313.035 866.422 313.035C868.309 318.628 871.002 323.049 874.504 324.219C878.008 325.388 880.163 327.08 880.836 328.77C881.509 330.462 880.431 333.582 880.836 337.352C881.239 341.125 882.856 341.253 884.067 342.945C885.281 344.635 881.912 347.627 881.104 348.927C880.295 350.228 880.836 352.437 881.777 354.129C882.721 355.818 882.047 357.768 882.047 357.768C883.664 357.118 883.394 353.998 882.856 351.397C882.318 348.797 884.338 348.147 885.549 346.196C886.763 344.246 885.146 341.514 884.876 340.084C884.605 338.653 886.791 333.785 887.599 334.174C888.066 334.4 888.62 337.083 889.053 340.267C888.838 341.589 888.805 342.919 889.009 344.23C889.009 344.23 889.357 345.018 889.666 346.279C889.688 346.638 889.71 346.99 889.727 347.326C889.762 348.072 889.92 348.938 890.124 349.78C890.149 351.451 889.884 353.319 889.009 355.131C886.498 360.332 883.35 358.592 884.048 366.338C884.746 374.086 882.715 380.319 880.295 384.281C877.875 388.246 877.831 399.813 882.792 406.341C882.792 406.341 883.615 401.22 887.301 399.674C890.988 398.129 896.746 390.54 896.365 385.723C895.982 380.905 899.329 367.052 907.852 365.637C907.852 365.637 908.407 361.371 906.073 353.915Z" fill="#8C4949"/>
<path d="M866.422 313.035C866.75 308.114 870.144 303.137 875.177 301.722C870.74 304.144 867.898 308.412 866.422 313.035Z" fill="#7A3D3D"/>
<path d="M869.791 311.997C876.159 314.408 875.042 317.414 878.659 321.69C879.881 323.321 881.879 323.723 883.634 324.546C885.869 325.887 887.378 328.434 887.301 330.981C887.05 328.844 885.77 326.793 883.993 325.532C881.89 324.232 879.752 324.381 878.049 322.202C874.388 317.861 875.85 315.175 869.791 311.997Z" fill="#7A3D3D"/>
<path d="M873.831 309.395C877.335 309.973 880.801 311.66 882.705 314.657C886.14 318.942 891.749 323.155 891.073 329.16C890.933 323.25 885.436 319.509 882.092 315.097C880.337 312.137 877.112 310.418 873.831 309.395Z" fill="#7A3D3D"/>
<path d="M873.831 305.365C879.764 304.675 886.264 305.996 890.472 310.337C892.539 312.298 894.324 314.611 895.365 317.241C895.825 318.458 896.154 319.761 896.154 321.064C896.129 321.803 896.148 322.706 896.231 323.441C896.617 327.515 897.613 331.752 896.46 335.794C897.442 330.835 895.392 325.863 895.423 320.907C895.039 316.087 891.551 312.045 887.848 309.044C883.922 306.089 878.701 305.266 873.831 305.365Z" fill="#7A3D3D"/>
<path d="M901.582 328.024C902.702 332.588 903.033 337.513 901.565 342.042C900.939 344.302 899.708 346.402 899.093 348.64C898.574 350.963 900.031 353.194 899.78 355.546C899.736 358.768 898.329 362.117 895.503 363.988C894.863 364.409 894.245 364.907 893.724 365.459C891.053 368.323 889.946 372.264 889.626 376.042C889.538 377.615 889.579 379.211 889.229 380.756C888.304 387.023 882.121 391.742 882.791 398.281C881.759 391.793 887.794 386.847 888.611 380.647C888.922 379.115 888.845 377.548 888.922 375.997C889.212 371.862 890.457 367.5 893.577 364.499C894.008 364.086 894.54 363.684 895.04 363.348C898.351 361.169 899.463 356.932 898.881 353.25C898.594 351.68 897.962 350.097 898.436 348.496C899.112 346.196 900.362 344.169 901.063 341.888C902.631 337.443 902.44 332.594 901.582 328.024Z" fill="#7A3D3D"/>
<path d="M893.165 345.212C895.631 352.945 892.572 354.051 889.583 360.288C888.982 361.604 889.04 362.921 888.918 364.344C888.242 366.987 887.136 367.65 887.301 370.858C886.794 368.332 887.497 366.949 888.237 364.663C888.422 363.414 888.162 362.092 888.579 360.858C888.631 360.619 888.769 360.256 888.849 360.022C891.835 353.432 894.644 353.614 893.165 345.212Z" fill="#7A3D3D"/>
<path d="M902.381 348.917C902.229 351.235 901.948 353.591 902.362 355.866C902.499 356.665 903.018 357.22 903.302 357.944C903.943 359.466 904.147 361.144 903.851 362.754C903.496 364.283 902.715 365.719 902.728 367.323C902.378 365.749 902.977 364.206 903.222 362.666C903.523 356.327 899.771 357.931 902.381 348.917Z" fill="#7A3D3D"/>
<path d="M896.847 369.002C895.112 371.225 893.395 373.857 893.517 376.724C893.986 381.009 894.179 386.359 891.798 390.153C893.442 386.045 893.108 381.448 892.772 377.137C892.51 373.964 894.552 371.073 896.847 369.002Z" fill="#7A3D3D"/>
<path d="M892.002 330.385C892.002 330.385 895.1 330.622 895.166 335.333C895.227 339.86 892.41 345.074 889.008 344.23C887.923 343.894 886.983 339.934 886.828 336.393C886.674 332.855 888.359 330.374 892.002 330.385Z" fill="#DE9681"/>
<path d="M889.559 340.855C888.188 334.732 891.438 332.995 891.576 332.923C891.745 332.835 891.952 332.899 892.043 333.059C892.131 333.221 892.068 333.421 891.902 333.509C891.808 333.56 890.081 334.511 889.924 337.586C890.881 336.501 892.407 336.31 892.49 336.299C892.677 336.278 892.848 336.408 892.873 336.589C892.895 336.773 892.76 336.938 892.573 336.96C892.484 336.97 890.434 337.237 889.951 338.929C889.998 339.472 890.086 340.064 890.233 340.714C890.269 340.877 890.175 341.039 890.015 341.095C890.001 341.1 889.984 341.106 889.968 341.108C889.783 341.148 889.598 341.034 889.559 340.855Z" fill="#BA6D5B"/>
<path d="M936.808 266.621H830.249C825.453 266.621 821.565 270.373 821.565 275.001V285.303H945.491V275.001C945.491 270.373 941.603 266.621 936.808 266.621Z" fill="#8CCBFF"/>
<path d="M937.268 275.547H925.348C924.62 275.547 924.026 274.977 924.026 274.271V274.069C924.026 273.365 924.62 272.795 925.348 272.795H937.268C937.999 272.795 938.589 273.365 938.589 274.069V274.271C938.589 274.977 937.999 275.547 937.268 275.547Z" fill="white"/>
<path d="M937.269 281.509H929.72C928.989 281.509 928.398 280.936 928.398 280.232V280.03C928.398 279.324 928.989 278.753 929.72 278.753H937.269C938 278.753 938.591 279.326 938.591 280.03V280.232C938.591 280.936 938 281.509 937.269 281.509Z" fill="white"/>
<path d="M936.809 480.956H830.25C825.087 480.956 820.888 476.903 820.888 471.92V275.001C820.888 270.019 825.087 265.966 830.25 265.966H936.809C941.971 265.966 946.171 270.019 946.171 275.001V471.92C946.171 476.903 941.971 480.956 936.809 480.956ZM830.25 267.274C825.835 267.274 822.245 270.741 822.245 275.001V471.92C822.245 476.181 825.835 479.647 830.25 479.647H936.809C941.224 479.647 944.814 476.181 944.814 471.92V275.001C944.814 270.741 941.224 267.274 936.809 267.274H830.25Z" fill="white"/>
<path d="M907.553 270.807H859.503C856.559 270.807 854.169 268.5 854.169 265.657V264.58H912.887V265.657C912.887 268.5 910.497 270.807 907.553 270.807Z" fill="#303C72"/>
<path d="M831.321 296.353H724.076C720.629 296.353 717.834 299.052 717.834 302.38V332.415C717.834 335.746 720.629 338.442 724.076 338.442H820.397L837.563 358.328V302.38C837.563 299.052 834.768 296.353 831.321 296.353Z" fill="white"/>
<path d="M788.235 310.019H825.248C826.299 310.019 827.152 309.196 827.152 308.18V306.683C827.152 305.668 826.299 304.844 825.248 304.844H788.235C787.181 304.844 786.328 305.668 786.328 306.683V308.18C786.328 309.196 787.181 310.019 788.235 310.019Z" fill="#D4E7FF"/>
<path d="M728.852 310.019H776.588C777.642 310.019 778.495 309.196 778.495 308.18V306.683C778.495 305.668 777.642 304.844 776.588 304.844H728.852C727.801 304.844 726.948 305.668 726.948 306.683V308.18C726.948 309.196 727.801 310.019 728.852 310.019Z" fill="#D4E7FF"/>
<path d="M802.684 320.134H825.249C826.3 320.134 827.153 319.311 827.153 318.296V316.801C827.153 315.783 826.3 314.96 825.249 314.96H802.684C801.633 314.96 800.777 315.783 800.777 316.801V318.296C800.777 319.311 801.633 320.134 802.684 320.134Z" fill="#D4E7FF"/>
<path d="M780.994 320.134H791.636C792.69 320.134 793.543 319.311 793.543 318.296V316.801C793.543 315.783 792.69 314.96 791.636 314.96H780.994C779.942 314.96 779.09 315.783 779.09 316.801V318.296C779.09 319.311 779.942 320.134 780.994 320.134Z" fill="#D4E7FF"/>
<path d="M728.852 320.135H770.377C771.431 320.135 772.284 319.311 772.284 318.296V316.801C772.284 315.783 771.431 314.96 770.377 314.96H728.852C727.801 314.96 726.948 315.783 726.948 316.801V318.296C726.948 319.311 727.801 320.135 728.852 320.135Z" fill="#D4E7FF"/>
<path d="M812.477 330.251H825.249C826.301 330.251 827.153 329.428 827.153 328.41V326.915C827.153 325.897 826.301 325.074 825.249 325.074H812.477C811.426 325.074 810.573 325.897 810.573 326.915V328.41C810.573 329.428 811.426 330.251 812.477 330.251Z" fill="#D4E7FF"/>
<path d="M728.852 330.251H802.396C803.447 330.251 804.3 329.428 804.3 328.41V326.915C804.3 325.897 803.447 325.074 802.396 325.074H728.852C727.801 325.074 726.948 325.897 726.948 326.915V328.41C726.948 329.428 727.801 330.251 728.852 330.251Z" fill="#D4E7FF"/>
<path d="M802.047 339.316H724.077C720.137 339.316 716.931 336.22 716.931 332.415V302.38C716.931 298.575 720.137 295.481 724.077 295.481H811.561C812.06 295.481 812.463 295.87 812.463 296.352C812.463 296.835 812.06 297.226 811.561 297.226H724.077C721.136 297.226 718.741 299.536 718.741 302.38V332.415C718.741 335.258 721.136 337.571 724.077 337.571H802.047C802.546 337.571 802.952 337.96 802.952 338.442C802.952 338.924 802.546 339.316 802.047 339.316Z" fill="#8CCBFF"/>
<path d="M801.848 245.48H694.605C691.158 245.48 688.363 248.18 688.363 251.508V307.456L705.529 287.57H801.848C805.297 287.57 808.092 284.871 808.092 281.543V251.508C808.092 248.18 805.297 245.48 801.848 245.48Z" fill="white"/>
<path d="M759.876 259.232H700.929C699.875 259.232 699.022 258.409 699.022 257.394V255.896C699.022 254.881 699.875 254.058 700.929 254.058H759.876C760.927 254.058 761.78 254.881 761.78 255.896V257.394C761.78 258.409 760.927 259.232 759.876 259.232Z" fill="#D4E7FF"/>
<path d="M797.324 259.232H771.522C770.471 259.232 769.618 258.409 769.618 257.394V255.896C769.618 254.881 770.471 254.058 771.522 254.058H797.324C798.378 254.058 799.231 254.881 799.231 255.896V257.394C799.231 258.409 798.378 259.232 797.324 259.232Z" fill="#D4E7FF"/>
<path d="M722.763 269.346H700.929C699.878 269.346 699.022 268.523 699.022 267.508V266.01C699.022 264.995 699.878 264.172 700.929 264.172H722.763C723.814 264.172 724.667 264.995 724.667 266.01V267.508C724.667 268.523 723.814 269.346 722.763 269.346Z" fill="#D4E7FF"/>
<path d="M779.704 269.347H734.54C733.488 269.347 732.636 268.523 732.636 267.508V266.01C732.636 264.995 733.488 264.172 734.54 264.172H779.704C780.755 264.172 781.608 264.995 781.608 266.01V267.508C781.608 268.523 780.755 269.347 779.704 269.347Z" fill="#D4E7FF"/>
<path d="M797.323 269.346H790.32C789.266 269.346 788.413 268.523 788.413 267.508V266.01C788.413 264.995 789.266 264.172 790.32 264.172H797.323C798.377 264.172 799.229 264.995 799.229 266.01V267.508C799.229 268.523 798.377 269.346 797.323 269.346Z" fill="#D4E7FF"/>
<path d="M747.995 279.464H700.929C699.878 279.464 699.022 278.638 699.022 277.623V276.128C699.022 275.11 699.878 274.287 700.929 274.287H747.995C749.046 274.287 749.898 275.11 749.898 276.128V277.623C749.898 278.638 749.046 279.464 747.995 279.464Z" fill="#D4E7FF"/>
<path d="M797.324 279.464H758.079C757.024 279.464 756.172 278.638 756.172 277.623V276.128C756.172 275.11 757.024 274.287 758.079 274.287H797.324C798.378 274.287 799.231 275.11 799.231 276.128V277.623C799.231 278.638 798.378 279.464 797.324 279.464Z" fill="#D4E7FF"/>
<path d="M801.848 288.442H717.835C717.336 288.442 716.93 288.053 716.93 287.57C716.93 287.088 717.336 286.696 717.835 286.696H801.848C804.792 286.696 807.187 284.386 807.187 281.543V251.508C807.187 248.665 804.792 246.352 801.848 246.352H694.605C691.663 246.352 689.268 248.665 689.268 251.508V256.645C689.268 257.127 688.862 257.519 688.363 257.519C687.864 257.519 687.458 257.127 687.458 256.645V251.508C687.458 247.703 690.664 244.606 694.605 244.606H801.848C805.791 244.606 808.997 247.703 808.997 251.508V281.543C808.997 285.348 805.791 288.442 801.848 288.442Z" fill="#8CCBFF"/>
</svg>
