<svg width="418" height="477" viewBox="0 0 418 477" fill="none" xmlns="http://www.w3.org/2000/svg">
<g clip-path="url(#clip0_1643_2768)">
<path d="M348.403 406.191C339.12 407.156 329.448 407.508 328.292 404.279C325.074 395.288 313.765 392.635 314.949 391.512C315.42 391.066 319.434 391.289 326.1 392.505C329.383 393.099 339.175 396.29 342.421 396.977C344.094 397.33 345.481 397.905 346.665 398.517C351.455 400.967 359.675 401.728 365.981 403.24C369.402 404.066 372.241 405.996 373.702 406.469C372.01 404.419 369.439 403.695 368.052 403.166C365.602 402.229 363.466 401.301 361.219 400.911C357.493 400.262 355.153 400.048 352.425 398.694C345.86 395.446 342.171 393.924 335.8 392.931C336.068 392.236 347.257 391.308 352.037 391.503C357.03 391.707 365.195 392.959 371.242 392.625C373.424 392.505 375.283 392.124 377.345 391.902C379.407 391.679 381.876 392.282 384.151 392.792C382.172 391.595 378.14 391.169 375.052 391.261C371.954 391.345 369.116 391.79 365.842 391.605C361.043 391.336 356.337 389.777 351.519 389.443C345.185 389.007 340.322 390.797 333.988 390.398C330.455 390.166 327.154 389.118 323.604 388.635C314.745 387.411 300.043 389.285 287.265 388.561C280.662 388.181 273.136 388.301 267.505 386.668C262.955 385.341 253.588 379.468 253.098 378.67C251.693 376.425 258.064 374.764 262.955 375.246C267.837 375.747 271.536 376.397 276.437 376.87C282.364 377.445 288.707 377.241 294.634 376.963C299.516 376.731 309.688 376.369 314.598 376.777C323.141 377.473 326.489 378.874 335.023 379.607C330.206 378.549 325.305 377.584 320.562 376.452C314.847 375.088 306.803 375.293 303.502 375.302C270.288 375.478 271.786 369.8 251.97 368.556C242.788 368.009 226.708 367.814 217.49 368.102C211.442 368.287 205.395 369.642 199.338 369.697C196.213 369.716 193.088 369.735 189.962 369.762C188.455 369.762 186.597 367.61 185.986 368.176C183.129 367.888 175.76 369.326 175.39 369.354C171.229 369.679 166.522 369.512 162.555 370.152C159.338 370.662 153.54 372.064 151.7 373.511C147.225 375.432 142.869 377.594 137.238 378.568C134.871 378.976 132.356 379.171 130.072 379.681C125.033 380.804 121.843 383.3 117.053 384.683C112.365 386.028 106.706 386.167 101.435 386.028C96.1647 385.889 90.8849 385.508 85.5866 385.972C80.2883 386.427 74.7588 387.94 72.7615 390.315C77.5513 387.392 86.4927 387.077 93.853 387.541C101.213 387.995 109.11 388.877 116.073 387.253C121.232 386.056 124.986 383.616 130.368 382.697C132.263 382.372 134.649 382.326 135.851 383.031C136.933 383.671 136.341 384.608 135.962 385.444C134.067 389.517 130.34 390.074 126.281 391.948C123.35 393.303 120.16 393.896 116.544 394.778C110.478 396.253 103.645 397.246 97.0431 397.849C90.441 398.434 83.5061 399.445 78.7996 401.811C76.0995 403.166 74.3612 404.873 71.8368 406.293C66.0485 409.568 57.671 411.842 55.1375 415.794C53.695 418.021 53.5285 419.961 53.4083 422.234C53.2974 424.433 51.6422 426.678 48.748 428.534C52.0583 426.326 55.0635 424.776 56.3858 422.215C57.8467 419.385 56.959 416.583 61.0091 414.236C64.495 412.222 70.6625 409.318 74.5276 407.434C76.9687 406.247 78.6331 405.43 80.8708 404.159C85.9287 401.301 92.1054 400.874 99.5859 399.881C107.066 398.898 116.258 397.228 123.461 395.789C130.655 394.351 137.95 390.937 140.16 387.429C141.177 385.815 140.715 384.961 141.852 383.365C143.877 380.526 149.287 378.438 154.918 377.018C160.558 375.608 163.203 374.142 172.893 374.04C174.974 374.012 185.718 373.01 190.194 375.654C192.616 377.074 190.018 378.818 187.993 380.433C183.37 384.126 174.816 386.241 167.234 388.654C159.643 391.057 152.051 394.453 151.58 398.684C151.302 401.097 151.681 403.342 154.067 405.736C156.212 407.88 158.811 409.68 150.692 411.099C146.402 411.851 139.004 411.526 134.834 412.454C130.414 413.428 128.38 415.544 124.792 417.131C119.873 419.302 113.178 419.33 106.613 419.756C96.5808 420.424 87.6208 424.155 84.2458 428.599C86.2616 426.808 90.6352 425.713 94.2414 424.461C102.388 421.612 112.994 422.475 119.392 421.482C117.016 424.776 120.428 430.204 122.083 433.517C123.905 437.163 120.696 437.2 120.021 441.766C119.549 444.958 122.36 448.66 128.694 449.718C124.829 448.27 123.923 445.644 124.441 443.278C124.959 440.921 126.614 438.602 126.762 436.235C127.067 431.355 120.076 425.667 126.004 421.547C130.368 418.513 131.542 416.138 138.486 414.904C148.722 413.094 159.541 414.254 162.916 410.162C164.386 408.371 161.464 405.903 160.678 404.057C156.129 393.33 177.017 390.797 178.645 391.54C180.956 392.579 175.815 395.956 179.421 399.055C181.853 401.143 187.826 402.062 189.176 404.372C190.425 406.534 186.393 408.566 185.2 410.765C182.732 415.312 192.727 419.886 189.324 424.303C186.06 428.534 173.975 428.942 165.782 431.271C153.595 434.751 151.284 443.946 161.455 448.391C154.603 442.359 157.294 435.27 168.769 433.424C173.818 432.617 179.837 431.884 184.424 430.585C188.918 429.314 192.015 425.416 197.184 425.296C201.04 425.203 203.869 429.796 205.728 431.383C207.586 432.969 208.53 434.779 210.471 436.338C213.643 438.898 219.644 441.098 218.83 444.057C218.433 445.533 217.896 446.6 217.841 448.372C221.974 445.635 222.344 441.756 218.719 438.908C216.509 437.173 212.968 435.799 211.738 433.851C210.924 432.57 207.855 427.319 206.625 426.122C202.149 421.77 196.981 422.688 193.698 418.114C186.939 408.696 201.354 409.086 198.229 404.818C195.473 401.032 183.906 399.055 185.015 395.066C185.774 392.31 192.339 390.779 195.085 388.311C196.278 387.234 196.703 386 197.933 384.933C200.05 383.096 204.609 381.964 208.964 382.187C213.319 382.419 214.401 384.729 215.539 386.724C218.035 391.113 210.915 394.834 213.523 399.213C214.336 400.568 216.334 401.811 216.149 403.222C215.964 404.558 213.883 405.634 212.533 406.813C209.417 409.513 210.333 413.113 214.697 415.349C219.145 417.632 226.043 418.337 231.859 419.775C237.675 421.222 243.01 424.359 240.393 427.207C243.972 424.795 243.436 421.222 239.173 419.079C235.631 417.288 230.315 416.611 225.756 415.46C221.188 414.3 216.861 412.083 218.081 409.689C219.145 407.592 224.055 406.237 224.572 404.103C224.794 403.194 224.831 402.21 224.064 401.366C217.536 394.231 225.858 388.023 244.332 395.492C250.481 397.979 245.377 402.479 250.204 404.252C255.743 406.265 270.232 403.686 273.413 406.646C276.409 409.411 265.766 414.56 266.044 417.669C266.33 420.777 272.544 423.125 273.94 426.168C275.891 430.39 268.226 434.194 266.7 438.462C265.378 442.146 269.197 446.108 275.928 448.057C269.927 445.932 270.251 441.589 272.71 438.24C275.179 434.89 279.229 431.633 278.721 428.098C278.249 424.878 274.033 422.02 272.738 418.847C271.434 415.664 275.484 412.37 282.281 411.934C298.684 410.895 292.507 419.812 299.544 423.292C306.128 426.548 323.058 428.655 323.04 434.714C323.03 437.46 322.429 441.005 317.335 442.397C327.413 440.03 330.576 433.146 323.41 428.989C317.492 425.556 298.915 421.566 301.939 418.263C300.959 419.339 318.675 420.257 333.109 418.597C341.598 417.613 350.484 420.146 352.86 424.052C350.863 420.777 346.526 418.207 340.322 417.335C334.117 416.462 329.485 417.158 323.077 417.279C316.678 417.381 307.903 417.826 303.381 415.646C300.062 414.05 300.228 410.812 296.252 409.568C292.591 408.427 287.57 408.529 284.222 407.193C281.596 406.154 280.607 404.474 278.379 403.249C271.712 399.566 255.401 404.78 254.975 400.02C254.43 393.943 246.487 390.807 238.535 389.712C233.311 388.997 228.021 387.81 225.21 385.62C222.4 383.421 222.954 380.164 227.457 378.726C231.979 377.297 238.359 378.234 242.465 379.96C246.561 381.676 249.178 384.033 252.664 386.037C260.995 390.807 276.501 392.532 289.373 391.957C293.145 391.735 316.132 391.085 321.588 402.628C322.966 405.532 325.795 408.724 331.648 410.004C338.648 411.517 347.811 407.239 354.682 408.947C360.35 410.348 361.348 415.6 364.714 418.077C368.496 420.861 375.856 421.696 382.255 423.18C372.509 420.926 367.525 417.26 364.4 413.92C360.849 410.144 358.852 405.105 348.403 406.191Z" fill="white"/>
<mask id="mask0_1643_2768" style="mask-type:luminance" maskUnits="userSpaceOnUse" x="86" y="370" width="268" height="107">
<path d="M86.7334 370.783H353.554V476.282H86.7334V370.783Z" fill="white"/>
</mask>
<g mask="url(#mask0_1643_2768)">
<path d="M115.611 420.285C122.99 421.797 130.664 422.419 131.58 418.114C134.123 406.153 143.101 402.85 142.158 401.319C141.779 400.716 138.598 400.939 133.3 402.414C130.692 403.147 122.916 407.192 120.336 408.037C119.014 408.473 117.913 409.206 116.97 409.995C113.179 413.177 106.642 413.984 101.63 415.859C98.9208 416.879 96.6554 419.413 95.5088 420.016C96.8403 417.278 98.8838 416.378 99.9842 415.701C101.926 414.495 103.627 413.307 105.412 412.843C108.371 412.064 110.229 411.841 112.393 410.097C117.608 405.884 120.539 403.936 125.597 402.776C125.375 401.829 116.489 400.289 112.689 400.41C108.713 400.521 102.231 401.959 97.4136 401.291C95.6753 401.05 94.1958 400.465 92.5499 400.085C90.9132 399.704 88.9437 400.419 87.1406 401.031C88.7033 399.473 91.9119 399.055 94.3715 399.296C96.8403 399.537 99.0965 400.233 101.704 400.094C105.523 399.89 109.259 397.932 113.096 397.645C118.126 397.255 122 399.788 127.031 399.408C129.842 399.194 132.458 397.867 135.279 397.301C142.324 395.891 153.984 398.665 164.119 397.839C169.362 397.413 175.335 397.654 179.801 395.548C183.407 393.84 190.841 386.176 191.23 385.146C192.349 382.195 187.291 379.969 183.416 380.562C179.533 381.156 176.611 381.973 172.718 382.539C168.021 383.216 162.981 382.854 158.275 382.372C154.401 381.982 146.319 381.286 142.417 381.704C135.63 382.409 132.976 384.19 126.189 384.923C130.017 383.652 133.91 382.492 137.683 381.11C142.223 379.449 148.612 379.913 151.238 379.996C177.61 380.85 176.407 373.269 192.136 371.868C199.422 371.237 212.164 371.052 219.478 371.404C224.268 371.636 229.067 373.371 233.866 373.408C236.344 373.418 238.822 373.418 241.3 373.418C242.493 373.408 243.982 370.597 244.453 371.321C246.719 370.912 251.379 372.861 251.98 372.722C252.257 372.657 252.553 372.694 252.849 372.722C256.15 373.093 259.877 372.815 263.021 373.575C265.563 374.179 270.159 375.895 271.611 377.732C275.152 380.136 278.601 382.836 283.067 383.977C284.935 384.45 286.923 384.626 288.735 385.239C292.73 386.566 295.245 389.702 299.036 391.354C302.753 392.968 307.238 392.968 311.427 392.616C315.606 392.254 319.785 391.586 323.993 391.985C328.2 392.384 332.574 394.128 334.145 397.125C330.364 393.525 323.271 393.46 317.428 394.314C311.584 395.167 305.315 396.559 299.813 394.657C295.726 393.256 292.748 390.212 288.495 389.155C286.988 388.783 285.101 388.774 284.149 389.721C283.289 390.565 283.751 391.78 284.057 392.847C285.536 398.081 288.486 398.702 291.704 401.022C294.015 402.692 296.54 403.379 299.406 404.418C304.205 406.153 309.623 407.22 314.848 407.768C320.081 408.315 325.583 409.373 329.3 412.249C331.436 413.91 332.805 416.044 334.802 417.798C339.379 421.816 346.018 424.423 348.006 429.434C349.144 432.264 349.264 434.778 349.338 437.72C349.421 440.577 350.725 443.417 353.018 445.699C350.401 442.981 348.025 441.097 346.98 437.822C345.833 434.203 346.554 430.538 343.355 427.661C340.609 425.193 335.727 421.667 332.666 419.385C330.733 417.937 329.42 416.926 327.645 415.367C323.651 411.86 318.759 411.526 312.823 410.496C306.896 409.466 299.619 407.582 293.923 405.921C288.227 404.27 282.448 400.011 280.709 395.52C279.914 393.46 280.284 392.337 279.387 390.296C277.797 386.668 273.515 384.079 269.049 382.344C264.592 380.618 262.493 378.772 254.819 378.772C253.173 378.772 244.647 377.602 241.097 381.082C239.183 382.966 241.235 385.192 242.826 387.28C246.488 392.031 253.256 394.666 259.257 397.654C265.267 400.642 271.269 404.882 271.629 410.356C271.833 413.483 271.537 416.406 269.632 419.561C267.93 422.382 265.868 424.776 272.295 426.446C275.688 427.318 281.551 426.715 284.843 427.801C288.347 428.96 289.956 431.642 292.785 433.591C296.669 436.272 301.977 436.105 307.173 436.458C315.125 436.996 322.208 441.515 324.862 447.156C323.281 444.901 319.813 443.639 316.956 442.136C310.52 438.731 302.106 440.169 297.048 439.074C298.916 443.268 296.188 450.394 294.866 454.728C293.405 459.497 295.957 459.469 296.466 465.352C296.826 469.472 294.588 474.343 289.577 475.902C292.647 473.916 293.359 470.483 292.961 467.449C292.563 464.405 291.26 461.455 291.158 458.393C290.927 452.083 296.484 444.512 291.805 439.334C288.365 435.53 287.441 432.486 281.939 431.076C273.848 428.988 265.277 430.714 262.623 425.49C261.449 423.189 263.779 419.932 264.408 417.52C268.041 403.527 251.499 400.614 250.205 401.588C248.374 402.961 252.442 407.276 249.576 411.359C247.643 414.105 242.909 415.386 241.837 418.42C240.847 421.24 244.028 423.839 244.962 426.659C246.913 432.523 238.989 438.638 241.67 444.335C244.241 449.782 253.802 450.088 260.274 452.937C269.918 457.168 271.722 469.026 263.649 475.039C269.096 467.05 266.987 457.929 257.907 455.785C253.913 454.848 249.16 454.004 245.526 452.408C241.975 450.849 239.534 445.829 235.447 445.746C232.396 445.69 230.14 451.712 228.669 453.809C227.19 455.897 226.45 458.272 224.906 460.341C222.382 463.719 217.638 466.679 218.276 470.539C218.591 472.45 219.016 473.842 219.053 476.152C215.789 472.654 215.502 467.579 218.369 463.821C220.125 461.52 222.927 459.673 223.907 457.121C224.555 455.433 226.996 448.539 227.976 446.961C231.527 441.246 235.604 442.35 238.221 436.346C243.593 424.015 232.183 424.72 234.661 419.106C236.853 414.152 246.025 411.433 245.156 406.255C244.555 402.692 239.358 400.781 237.195 397.589C236.252 396.206 235.909 394.601 234.939 393.228C233.274 390.862 229.659 389.414 226.21 389.739C222.761 390.064 221.892 393.079 220.995 395.687C219.007 401.43 224.638 406.246 222.557 411.962C221.91 413.743 220.329 415.376 220.477 417.214C220.625 418.949 222.261 420.35 223.334 421.871C225.794 425.36 225.054 430.055 221.596 433.025C218.082 436.049 212.617 437.033 208.003 438.972C203.398 440.902 199.173 445.05 201.235 448.771C198.414 445.634 198.84 440.939 202.215 438.109C205.026 435.743 209.233 434.825 212.848 433.275C216.464 431.725 219.894 428.784 218.933 425.666C218.1 422.957 214.208 421.213 213.801 418.429C213.634 417.241 213.607 415.961 214.208 414.857C219.395 405.494 212.811 397.45 198.165 407.23C193.283 410.496 197.323 416.388 193.495 418.717C189.112 421.389 177.628 417.956 175.104 421.825C172.727 425.472 181.169 432.282 180.938 436.365C180.707 440.457 175.788 443.565 174.678 447.583C173.134 453.15 179.2 458.142 180.402 463.747C181.447 468.581 178.423 473.833 173.097 476.458C177.85 473.601 177.6 467.894 175.649 463.487C173.698 459.079 170.48 454.793 170.896 450.125C171.266 445.885 174.604 442.099 175.64 437.914C176.666 433.73 173.458 429.378 168.076 428.775C155.076 427.327 159.967 439.149 154.401 443.741C149.176 448.047 135.769 450.766 135.787 458.857C135.796 462.522 136.277 467.272 140.318 469.137C132.329 465.973 129.814 456.713 135.482 451.22C140.179 446.664 154.9 441.468 152.496 437.061C153.272 438.49 139.227 439.622 127.78 437.209C121.039 435.79 113.993 439.046 112.116 444.28C113.697 439.882 117.127 436.504 122.047 435.428C126.975 434.342 130.655 435.344 135.732 435.567C140.808 435.78 147.771 436.448 151.349 433.581C153.984 431.484 153.846 427.179 156.999 425.574C159.902 424.08 163.878 424.247 166.541 422.502C168.622 421.148 169.399 418.93 171.174 417.325C176.454 412.537 189.38 419.422 189.723 413.168C190.157 405.179 196.463 401.087 202.76 399.658C206.903 398.721 211.101 397.162 213.329 394.276C215.558 391.409 215.132 387.15 211.563 385.285C207.975 383.42 202.918 384.626 199.663 386.872C196.417 389.117 194.327 392.198 191.563 394.805C184.951 401.041 172.672 403.24 162.454 402.303C159.468 402.006 141.215 400.725 136.897 416.026C135.806 419.877 133.559 424.108 128.926 425.722C123.369 427.652 116.083 421.723 110.636 423.857C106.133 425.62 105.356 432.7 102.684 435.994C99.6975 439.696 93.8444 440.67 88.768 442.554C96.4982 439.687 100.447 434.806 102.925 430.371C105.736 425.323 107.307 418.587 115.611 420.285Z" fill="white"/>
</g>
<path d="M323.298 194.681L324.63 194.18L325.24 194.375C331.352 196.314 336.715 197.706 341.635 198.624C346.461 199.497 351.38 200.109 356.346 200.48C354.913 200.267 353.47 200.026 352.055 199.775C346.526 198.782 340.063 197.056 332.85 194.644L327.839 192.964L334.108 190.635C352.638 183.816 364.64 175.233 372.352 167.448C365.842 171.818 358.241 175.557 350.816 178.898L347.497 180.392L348.237 176.819C349.365 171.438 350.872 166.919 352.721 163.393C351.741 164.822 350.816 166.353 349.984 167.995C348.348 171.196 346.998 175.288 345.98 180.141L345.777 181.097L344.88 181.477C334.283 185.931 322.818 190.255 311.74 194.43C300.626 198.615 290.131 202.577 281.171 206.409L276.021 208.599L278.841 203.746C280.838 200.304 282.512 197.093 283.926 193.939C285.951 189.448 288.032 183.769 290.242 177.756L290.815 176.188L291.999 176.096C297.99 175.613 302.9 174.862 307.024 173.822C308.402 173.479 309.743 173.099 311.047 172.69C306.423 173.683 300.746 174.379 294.116 174.75L291.277 174.917L292.276 172.245C296.345 161.333 302.512 144.761 312.609 131.075C306.007 137.292 299.581 145.374 295.216 155.58C294.717 156.74 294.236 157.881 293.774 159.004L291.657 164.107L290.26 158.754C288.651 152.555 287.727 146.997 287.523 142.219C287.394 139.203 287.394 135.148 287.838 130.435C286.525 136.679 285.831 143.75 286.386 151.405C286.747 156.341 287.828 162.048 289.622 168.357L289.798 168.96L289.391 170.018C283.751 184.539 279.738 197.381 267.486 212.236L265.461 213.786C258.461 217.525 251.498 221.942 244.776 226.897L242.483 228.586L241.863 225.793C239.801 216.393 238.895 208.08 239.182 201.083C239.348 196.852 239.894 190.84 241.392 183.843C238.609 192.009 236.519 201.566 236.408 212.023C236.353 217.46 236.991 223.714 238.322 230.608L238.535 231.703L237.675 232.408C229.787 238.839 224.018 244.601 220.559 248.303L218.211 250.817L217.406 247.459C216.167 242.365 215.048 236.259 214.142 231.341C213.347 227.073 212.672 223.38 212.228 221.951C210.111 215.224 214.031 174.184 222.483 148.027L222.621 147.601L223.833 146.385C228.243 141.987 231.72 138.507 236.094 134.378L238.396 132.17C247.689 123.216 261.041 110.365 272.84 94.0342C267.773 100.501 261.882 106.95 255.068 113.046C245.636 121.527 236.88 129.581 229.048 136.995L223.722 141.467C224.711 138.609 227.984 129.368 228.964 126.621C232.867 115.552 239.617 96.3817 242.104 73.2498C241.004 80.515 239.311 88.003 236.824 95.5095L235.881 98.3581L232.229 94.7301C227.503 90.0629 223.426 86.0359 220.541 81.0718C219.32 78.9933 218.118 76.8592 216.99 74.6323C218.47 78.084 220.356 81.712 222.76 85.4792C224.942 88.9309 228.918 93.8765 234.281 99.7778L235.03 100.604L232.164 108.5C217.203 149.521 206.403 179.158 203.009 201.872L202.26 206.855L199.597 202.586C192.921 191.879 186.652 180.095 180.947 167.559L180.521 166.613L181.085 165.759C184.914 159.96 187.863 154.643 189.861 149.92C194.299 139.482 195.871 129.711 196.065 121.434C194.844 129.414 192.671 136.113 190.933 140.576C188.788 146.097 185.293 152.49 180.558 159.579L178.654 162.437L177.313 159.273C172.162 147.127 167.474 134.193 163.36 120.813L163.092 119.941L163.619 119.198C167.585 113.529 170.396 108.648 172.227 104.287C173.873 100.362 174.964 96.5859 175.648 93.0321C175.075 94.9435 174.483 96.623 173.956 98.0055C172.135 102.728 169 108.305 164.645 114.577L162.426 117.779L161.344 114.03C156.277 96.5673 152.893 80.8027 150.71 68.397C151.154 75.7086 152.153 84.5235 154.15 94.9992L155.001 99.453L151.284 96.8828C143.1 91.2413 136.924 86.1287 132.421 81.2666C132.171 80.9883 131.912 80.7192 131.662 80.4315C133.743 83.1595 136.064 85.8596 138.662 88.5041C142.814 92.7723 148.195 97.189 155.093 102.023L155.685 102.441L155.842 103.146C158.801 116.424 163.045 130.917 168.455 146.199L169.86 150.161L165.995 148.547C150.766 142.182 113.502 125.508 96.3864 108.119C95.9703 107.702 95.5542 107.256 95.1566 106.811C97.3296 109.595 99.7799 112.35 102.545 115.023C118.828 130.722 147.677 145.253 168.75 155.849L169.897 156.425L170.156 157.102C170.988 159.31 171.839 161.565 172.699 163.848C177.572 176.801 183.092 191.48 190.6 207.3L192.228 210.743L188.52 209.917C177.821 207.532 171.118 204.674 163.35 201.362L161.973 200.777C151.903 196.49 142.435 191.313 133.955 185.514C143.332 193.605 156.194 202.41 172.921 209.165C175.556 210.251 177.609 211.253 179.597 212.236C183.268 214.046 186.439 215.605 192.218 216.969L193.069 217.173L193.457 217.952C194.142 219.335 199.218 247.644 199.274 247.923L199.856 251.105C200.032 251.615 196.194 249.621 196.241 249.648C195.751 249.296 192.561 247.607 188.871 245.658C165.57 233.346 103.691 200.647 79.9644 172.356C77.1904 168.886 74.6199 164.905 72.299 160.517C75.5815 167.633 79.9922 174.954 85.9193 181.988C99.8447 198.615 121.214 211.206 141.871 223.38L149.259 228.632L142.037 227.658C107.186 221.626 76.6172 212.663 50.7451 200.916C60.8147 206.196 74.7124 212.134 94.084 218.11L98.7813 219.557L94.1303 221.654C90.8292 222.777 87.7501 223.631 84.9576 224.197C82.6367 224.67 80.2788 225.06 77.8839 225.366C83.7648 225.18 89.5532 224.475 95.1196 223.278C95.9518 223.102 101.454 220.801 101.999 220.55C118.615 225.542 138.736 230.748 163.489 236.463L163.794 236.528L164.062 236.704C167.65 238.969 170.812 241.075 173.725 243.135L177.84 246.039L172.837 246.512C167.937 246.967 163.064 248.266 158.357 250.354C155.953 251.411 153.697 252.868 151.311 254.39C149.49 255.559 147.603 256.774 145.569 257.86C136.147 262.889 125.763 264.773 118.171 266.137C113.9 266.907 109.461 267.491 105.004 267.881C105.051 267.881 105.097 267.881 105.143 267.881C113.308 267.881 121.445 267.12 129.295 265.636L129.434 265.599L135.768 264.624L130.904 268.92C125.06 273.318 118.615 277.884 111.394 281.159C115.24 279.86 119.753 277.976 124.986 275.304C128.102 273.708 131.366 271.955 134.51 270.247C148.029 262.945 161.991 255.392 174.317 255.392C182.916 255.392 189.925 259.196 195.159 266.693C200.263 274.005 201.484 283.507 201.955 290.03C204.11 319.712 198.904 354.406 182.824 369.029C186.347 369.344 190.841 371.711 194.271 371.711C195.214 371.711 199.153 373.594 199.856 373.548C214.993 372.499 227.198 370.514 242.076 369.818C239.237 361.077 230.314 329.52 233.042 309.264C237.638 275.137 263.39 271.194 282.364 271.194C284.426 271.194 286.589 271.24 289.16 271.333L289.918 271.361L290.445 271.908C293.173 274.794 295.864 277.271 298.444 279.294C302.891 282.764 307.561 285.604 312.073 287.905C309.253 285.938 306.803 284.1 304.861 282.625C302.531 280.881 299.997 278.44 296.899 274.961L293.839 271.518L298.425 271.862C300.108 271.992 301.819 272.122 303.566 272.261C309.031 272.697 314.681 273.151 320.737 273.365C323.668 273.486 326.498 273.55 329.161 273.55C332.961 273.55 336.308 273.43 339.277 273.216C327.839 273.207 315.605 271.138 303.77 269.134C295.596 267.761 287.144 266.332 279.211 265.636L272.479 265.051L278.563 262.1C281.088 260.876 283.455 259.567 285.665 258.222C279.793 260.848 274.56 262.462 270.824 263.409C266.922 264.383 258.942 265.942 255.937 266.526C255.465 266.619 254.901 266.731 254.901 266.731C242.418 269.394 234.605 274.887 230.25 279.016L227.846 281.298L227.004 277.336C225.895 272.066 224.933 267.519 226.126 264.077C230.795 250.604 251.582 231.508 264.851 222.248L265.526 221.784L270.87 222.99C294.403 228.344 323.687 234.997 346.017 234.997C347.34 234.988 348.634 234.969 349.919 234.923C330.677 234.004 302.808 228.623 273.755 220.133L269.659 218.936L273.33 216.746C288.383 207.745 304.565 201.696 323.298 194.681Z" fill="white"/>
<path d="M141.677 11.1938C141.668 11.2402 128.759 28.7122 148.011 41.8416C148.002 41.8973 161.113 25.0934 141.677 11.1938Z" fill="white"/>
<path d="M7.44326 151.312C7.46176 151.377 5.92681 165.407 24.0779 164.321C24.0964 164.395 25.918 150.032 7.44326 151.312Z" fill="white"/>
<path d="M26.7133 136.893C26.7226 136.939 25.9273 148.148 40.4815 147.118C40.5 147.164 41.5541 135.789 26.7133 136.893Z" fill="white"/>
<path d="M159.078 16.4453C159.078 16.4453 149.998 24.7405 158.607 34.1306C158.607 34.1306 167.696 26.3086 159.078 16.4453Z" fill="white"/>
<path d="M165.284 11.1289C165.284 11.1382 162.861 17.6426 170.166 22.217C170.637 20.12 172.616 15.8425 165.284 11.1289Z" fill="white"/>
<path d="M217.028 8.08516C217.018 8.02949 198.636 19.5259 211.304 39.4567C211.304 39.3824 229.557 28.9253 217.028 8.08516Z" fill="white"/>
<path d="M236.39 4.71729C236.381 4.72656 223.593 20.4077 243.094 36.3579C243.075 36.3672 256.067 21.5675 236.39 4.71729Z" fill="white"/>
<path d="M128.51 34.0195C128.51 34.1123 119.115 52.9389 141.03 62.394C141.03 62.4868 150.748 43.9664 128.51 34.0195Z" fill="white"/>
<path d="M169.287 30.6511C169.277 30.5583 148.297 39.4845 155.13 60.8442C155.121 60.7607 175.759 52.8181 169.287 30.6511Z" fill="white"/>
<path d="M186.328 34.5297C186.319 34.474 170.766 40.5794 175.806 56.5853C175.796 56.5389 191.109 51.083 186.328 34.5297Z" fill="white"/>
<path d="M226.737 38.8906C226.727 38.8349 211.147 43.9104 216.14 60.241C216.14 60.1946 231.462 55.7223 226.737 38.8906Z" fill="white"/>
<path d="M184.868 6.60988C184.868 6.54493 169.278 12.7153 174.327 28.7026C174.327 28.6469 189.658 23.1446 184.868 6.60988Z" fill="white"/>
<path d="M197.628 63.3867C197.628 63.3217 181.003 65.4373 181.095 82.2968C181.095 82.2318 197.314 80.5617 197.628 63.3867Z" fill="white"/>
<path d="M230.62 47.752C230.62 47.7705 223.149 58.172 236.824 66.3188C236.815 66.328 244.444 56.3719 230.62 47.752Z" fill="white"/>
<path d="M55.9142 69.6315C55.9234 69.6872 52.8166 82.13 68.166 82.0465C68.1752 82.0929 71.5317 69.5851 55.9142 69.6315Z" fill="white"/>
<path d="M192.635 85.1917C192.635 85.1453 178.349 86.333 179.209 100.52C179.209 100.483 193.162 99.6758 192.635 85.1917Z" fill="white"/>
<path d="M259.617 30.2334C259.617 30.187 245.294 29.788 246.09 44.0217C246.09 43.9753 260.08 44.6619 259.617 30.2334Z" fill="white"/>
<path d="M209.418 86.3143C209.418 86.2865 197.878 87.7433 199.579 99.2211C199.579 99.1933 210.888 98.0705 209.418 86.3143Z" fill="white"/>
<path d="M209.519 62.3659C209.519 62.3937 208.928 52.0201 195.788 52.5768C195.788 52.6139 196.075 62.5236 209.519 62.3659Z" fill="white"/>
<path d="M212.117 74.7439C212.117 74.7717 211.599 65.7249 200.143 66.1424C200.143 66.161 200.392 74.8366 212.117 74.7439Z" fill="white"/>
<path d="M216.435 81.8701C216.435 81.8793 213.486 75.1058 204.914 77.9266C204.914 77.9359 207.605 84.4774 216.435 81.8701Z" fill="white"/>
<path d="M226.459 97.6902C226.459 97.7181 222.52 88.597 211.082 92.2529C211.082 92.2807 214.67 101.021 226.459 97.6902Z" fill="white"/>
<path d="M201.382 74.5582C201.382 74.5304 190.656 78.678 195.668 89.3208C195.668 89.2929 206.255 85.5629 201.382 74.5582Z" fill="white"/>
<path d="M231.249 32.0151C231.24 32.0337 226.57 41.164 238.554 46.5178C238.545 46.5364 243.408 37.703 231.249 32.0151Z" fill="white"/>
<mask id="mask1_1643_2768" style="mask-type:luminance" maskUnits="userSpaceOnUse" x="190" y="0" width="13" height="17">
<path d="M190.887 0.615723H202.722V16.436H190.887V0.615723Z" fill="white"/>
</mask>
<g mask="url(#mask1_1643_2768)">
<path d="M193.873 0.894043C193.873 0.92188 189.204 10.3491 201.234 14.9978C201.234 15.0163 206.088 5.8489 193.873 0.894043Z" fill="white"/>
</g>
<path d="M124.691 17.8652C124.691 17.9024 120.095 27.775 132.06 30.9854C132.06 31.0132 136.822 21.3169 124.691 17.8652Z" fill="white"/>
<path d="M187.901 122.808C187.901 122.817 196.639 112.629 184.036 104.102C184.036 104.111 175.214 113.882 187.901 122.808Z" fill="white"/>
<path d="M207.54 49.2924C207.54 49.3295 210.213 36.8031 194.364 34.1309C194.355 34.1773 191.396 46.119 207.54 49.2924Z" fill="white"/>
<path d="M200.984 113.075C200.984 113.047 213.384 112.462 212.746 100.159C212.746 100.131 200.605 100.409 200.984 113.075Z" fill="white"/>
<path d="M152.328 170.557C152.328 170.529 164.654 169.211 163.979 156.945C163.979 156.926 151.922 157.965 152.328 170.557Z" fill="white"/>
<path d="M179.255 66.2724C179.255 66.2352 191.691 65.261 191.035 52.9759C191.035 52.9388 178.857 53.6254 179.255 66.2724Z" fill="white"/>
<path d="M186.661 30.3541C186.661 30.317 199.126 29.4819 198.479 17.1875C198.479 17.1504 186.273 17.6979 186.661 30.3541Z" fill="white"/>
<path d="M176.998 123.476C176.998 123.504 171.145 135.882 186.661 141.468C186.661 141.495 192.755 129.414 176.998 123.476Z" fill="white"/>
<path d="M160.956 74.5117C160.956 74.5488 155.103 87.0566 170.665 92.2249C170.665 92.262 176.767 80.014 160.956 74.5117Z" fill="white"/>
<path d="M163.905 61.5493C163.905 61.5864 160.503 72.3684 174.114 75.2355C174.114 75.2633 177.757 64.6391 163.905 61.5493Z" fill="white"/>
<path d="M224.832 63.8413C224.832 63.8691 218.914 75.8387 234.476 82.4823C234.476 82.5102 240.644 70.9024 224.832 63.8413Z" fill="white"/>
<path d="M227.42 170.956C227.411 170.965 220.014 181.515 233.569 189.392C233.56 189.402 241.124 179.288 227.42 170.956Z" fill="white"/>
<path d="M232.58 159.858C232.58 159.858 227.939 169.081 239.811 174.24C239.811 174.249 244.629 165.351 232.58 159.858Z" fill="white"/>
<path d="M221.688 187.147C221.688 187.166 215.826 199.256 231.249 205.612C231.249 205.63 237.361 193.93 221.688 187.147Z" fill="white"/>
<path d="M221.484 205.834C221.484 205.853 215.631 217.962 231.036 224.281C231.036 224.299 237.138 212.58 221.484 205.834Z" fill="white"/>
<path d="M211.1 137.264C211.1 137.218 196.102 135.956 194.299 150.941C194.299 150.904 208.881 152.426 211.1 137.264Z" fill="white"/>
<path d="M200.337 128.088C200.337 128.06 214.262 131.697 219.071 118.039C219.071 118.011 205.561 113.956 200.337 128.088Z" fill="white"/>
<path d="M240.93 98.9245C240.93 98.8966 254.827 103.434 259.802 90.2024C259.802 90.1746 246.339 85.2012 240.93 98.9245Z" fill="white"/>
<path d="M245.951 84.6352C245.96 84.5981 260.422 86.927 262.308 72.8883C262.308 72.8511 248.217 70.1232 245.951 84.6352Z" fill="white"/>
<path d="M246.533 68.7965C246.533 68.7501 260.93 71.6914 263.547 57.8382C263.556 57.7918 249.538 54.4422 246.533 68.7965Z" fill="white"/>
<path d="M247.708 54.934C247.717 54.8969 262.123 57.9032 264.74 44.0593C264.75 44.0222 250.722 40.589 247.708 54.934Z" fill="white"/>
<path d="M301.708 23.2005C301.708 23.1449 288.208 29.8998 297.889 45.8314C297.889 45.7758 311.287 39.7539 301.708 23.2005Z" fill="white"/>
<path d="M287.394 113.576C287.394 113.585 275.854 103.694 263.325 113.084C263.325 113.112 274.338 122.465 287.394 113.576Z" fill="white"/>
<path d="M278.027 123.597C278.036 123.597 265.045 115.561 254.624 126.993C254.633 127.002 267.088 134.648 278.027 123.597Z" fill="white"/>
<path d="M261.698 134.889C261.698 134.88 248.18 127.967 238.767 140.326C238.776 140.326 251.749 146.97 261.698 134.889Z" fill="white"/>
<path d="M281.763 51.4264C281.763 51.3985 270.806 58.1442 280.958 70.1973C280.949 70.1695 291.888 63.9991 281.763 51.4264Z" fill="white"/>
<path d="M313.618 50.3872C313.618 50.3593 300.913 45.1632 296.835 57.0493C296.844 57.0308 309.161 62.1248 313.618 50.3872Z" fill="white"/>
<path d="M288.097 37.6567C288.097 37.6475 280.274 44.1055 289.826 53.1616C289.826 53.1523 297.695 47.1489 288.097 37.6567Z" fill="white"/>
<path d="M316.614 109.604C316.614 109.586 307.034 113.742 314.108 124.255C314.108 124.227 323.613 120.507 316.614 109.604Z" fill="white"/>
<path d="M325.907 101.495C325.907 101.476 316.346 105.429 323.401 116.035C323.401 116.007 332.906 112.481 325.907 101.495Z" fill="white"/>
<mask id="mask2_1643_2768" style="mask-type:luminance" maskUnits="userSpaceOnUse" x="221" y="0" width="11" height="17">
<path d="M221.66 0.615723H231.129V16.436H221.66V0.615723Z" fill="white"/>
</mask>
<g mask="url(#mask2_1643_2768)">
<path d="M224.721 0.606445C224.721 0.606445 217.055 7.75109 226.478 15.7308C226.468 15.7216 234.18 9.00373 224.721 0.606445Z" fill="white"/>
</g>
<path d="M352.61 64.6485C352.61 64.6021 339.841 65.066 344.076 78.5109C344.076 78.4553 356.642 78.3439 352.61 64.6485Z" fill="white"/>
<path d="M360.276 133.98C360.276 133.961 352.787 139.463 361.867 148.677C361.867 148.659 369.393 143.611 360.276 133.98Z" fill="white"/>
<path d="M398.446 152.398C398.455 152.38 387.544 148.649 386.203 158.847C386.203 158.838 396.837 162.549 398.446 152.398Z" fill="white"/>
<path d="M387.1 106.273C387.11 106.236 374.09 102.293 373.351 114.763C373.36 114.726 386.065 118.67 387.1 106.273Z" fill="white"/>
<path d="M374.331 86.8156C374.34 86.7784 361.802 85.2103 363.808 97.913C363.808 97.8666 376.088 99.6295 374.331 86.8156Z" fill="white"/>
<path d="M393.656 164.46C393.666 164.46 383.55 158.318 378.594 166.966C378.594 166.966 388.386 172.904 393.656 164.46Z" fill="white"/>
<path d="M375.348 149.28C375.358 149.243 365.103 150.542 369.597 161.472C369.606 161.435 379.704 160.461 375.348 149.28Z" fill="white"/>
<path d="M336.013 51.4449C336.013 51.4263 327.746 56.242 336.133 66.1146C336.133 66.096 344.39 61.735 336.013 51.4449Z" fill="white"/>
<path d="M315.735 36.0421C315.745 36.005 304.602 35.5225 306.387 46.7776C306.387 46.7498 317.298 47.4643 315.735 36.0421Z" fill="white"/>
<path d="M363.781 158.095C363.79 158.058 353.508 159.617 358.011 170.519C358.02 170.491 368.154 169.248 363.781 158.095Z" fill="white"/>
<path d="M379.814 185.124C379.805 185.152 373.286 176.105 363.18 180.411C363.18 180.438 369.366 189.123 379.814 185.124Z" fill="white"/>
<path d="M370.956 193.67C370.956 193.698 366.832 184.02 355.218 185.857C355.218 185.894 359.009 195.191 370.956 193.67Z" fill="white"/>
<path d="M352.296 209.481C352.296 209.509 348.154 199.878 336.503 202.142C336.503 202.169 340.303 211.457 352.296 209.481Z" fill="white"/>
<path d="M370.411 212.422C370.411 212.45 366.296 202.828 354.691 204.804C354.682 204.832 358.473 214.102 370.411 212.422Z" fill="white"/>
<path d="M387.1 189.411C387.109 189.383 376.106 187.332 376.318 198.031C376.328 198.012 387.072 200.156 387.1 189.411Z" fill="white"/>
<path d="M389.856 207.44C389.856 207.458 381.626 199.479 373.313 205.816C373.313 205.835 381.192 213.508 389.856 207.44Z" fill="white"/>
<path d="M387.665 174.491C387.674 174.5 378.437 167.253 371.585 174.732C371.585 174.751 380.48 181.719 387.665 174.491Z" fill="white"/>
<path d="M321.274 182.638C321.274 182.656 315.292 173.572 304.584 178.147C304.584 178.175 310.215 186.924 321.274 182.638Z" fill="white"/>
<path d="M333.072 179.25C333.072 179.269 327.127 170.111 316.419 174.463C316.419 174.49 322.013 183.296 333.072 179.25Z" fill="white"/>
<path d="M342.661 173.312C342.661 173.34 337.289 164.98 327.589 168.728C327.589 168.756 332.656 176.801 342.661 173.312Z" fill="white"/>
<path d="M346.434 164.2C346.434 164.2 340.257 159.375 335.319 164.59C335.319 164.59 341.246 169.313 346.434 164.2Z" fill="white"/>
<path d="M320.507 150.552C320.507 150.514 307.95 154.449 315.042 167.81C315.042 167.764 327.451 164.33 320.507 150.552Z" fill="white"/>
<path d="M330.964 147.193C330.964 147.165 320.858 150.32 326.803 161.194C326.803 161.166 336.808 158.392 330.964 147.193Z" fill="white"/>
<path d="M307.293 154.968C307.293 154.94 297.149 158.503 303.132 169.257C303.132 169.239 313.174 166.075 307.293 154.968Z" fill="white"/>
<path d="M263.982 80.0606C263.982 80.0513 256.169 86.9454 265.73 95.5654C265.73 95.5561 273.599 89.1074 263.982 80.0606Z" fill="white"/>
<path d="M243.14 102.654C243.131 102.654 235.327 109.836 244.906 118.168C244.906 118.168 252.766 111.395 243.14 102.654Z" fill="white"/>
<path d="M270.371 63.8321C270.371 63.8135 260.329 72.7026 272.84 83.9484C272.831 83.9299 282.937 75.6439 270.371 63.8321Z" fill="white"/>
<path d="M274.199 101.244C274.208 101.253 285.97 109.771 295.624 99.6016C295.624 99.6109 284.38 90.6198 274.199 101.244Z" fill="white"/>
<path d="M245.442 168.626C245.451 168.552 264.656 165.397 259.469 145.986C259.478 145.912 240.56 148.621 245.442 168.626Z" fill="white"/>
<path d="M329.559 116.09C329.568 116.034 348.884 122.502 352.934 104.854C352.953 104.798 334.191 97.5512 329.559 116.09Z" fill="white"/>
<path d="M344.723 98.6366C344.742 98.5346 364.095 100.613 361.395 81.341C361.413 81.2389 342.412 78.6223 344.723 98.6366Z" fill="white"/>
<path d="M337.28 159.237C337.289 159.144 355.986 157.576 349.818 138.248C349.837 138.164 331.39 139.269 337.28 159.237Z" fill="white"/>
<path d="M367.942 147.508C367.951 147.453 381.691 147.026 377.17 132.727C377.17 132.671 363.633 132.764 367.942 147.508Z" fill="white"/>
<path d="M343.142 136.058C343.151 136.012 356.984 135.093 352.425 120.73C352.435 120.674 338.787 121.249 343.142 136.058Z" fill="white"/>
<path d="M386.305 148.259C386.314 148.157 402.662 145.272 393.305 127.039C393.323 126.937 377.086 129.526 386.305 148.259Z" fill="white"/>
<path d="M320.331 70.6521C320.331 70.5872 335.07 63.2662 322.014 46.2026C322.014 46.1376 307.293 53.1802 320.331 70.6521Z" fill="white"/>
<path d="M251.295 26.8006C251.295 26.7542 265.119 24.6572 260.976 10.6555C260.985 10.5998 247.365 12.3999 251.295 26.8006Z" fill="white"/>
<path d="M288.106 33.9638C288.097 33.9824 294.792 23.8963 280.654 15.2485C280.644 15.2578 273.802 24.9448 288.106 33.9638Z" fill="white"/>
<path d="M297.399 101.003C297.418 100.938 316.873 106.644 320.951 88.5044C320.96 88.4395 302.032 82 297.399 101.003Z" fill="white"/>
<path d="M281.31 88.6435C281.31 88.6528 292.202 96.6882 301.144 87.4001C301.144 87.4094 290.732 78.9564 281.31 88.6435Z" fill="white"/>
<path d="M288.892 77.5367C288.892 77.5274 300.82 84.403 307.866 73.9551C307.866 73.9551 296.4 66.6527 288.892 77.5367Z" fill="white"/>
<path d="M322.541 72.1367C322.55 72.0903 309.429 72.0068 312.074 85.3589C312.083 85.3126 324.945 85.693 322.541 72.1367Z" fill="white"/>
<path d="M355.653 118.41C355.671 118.317 374.756 120.757 371.908 101.856C371.918 101.764 353.184 98.7944 355.653 118.41Z" fill="white"/>
<path d="M360.738 130.045C360.748 130.008 379.056 136.902 382.403 120.358C382.422 120.312 364.65 112.685 360.738 130.045Z" fill="white"/>
<path d="M294.616 66.5138C294.616 66.5045 306.535 73.5193 313.581 63.2013C313.581 63.2013 302.124 55.7504 294.616 66.5138Z" fill="white"/>
<path d="M260.912 169.202C260.912 169.183 249.594 166.817 247.282 177.97C247.291 177.961 258.276 180.438 260.912 169.202Z" fill="white"/>
<path d="M243.232 200.712C243.232 200.694 256.529 203.904 260.08 190.951C260.089 190.932 247.162 187.342 243.232 200.712Z" fill="white"/>
<path d="M243.769 211.216C243.778 211.207 256.825 216.31 262.835 203.747C262.835 203.737 250.213 198.254 243.769 211.216Z" fill="white"/>
<path d="M244.915 188.399C244.924 188.381 256.307 191.127 259.294 180.039C259.294 180.021 248.235 176.968 244.915 188.399Z" fill="white"/>
<path d="M311.907 106.106C311.907 106.097 301.533 100.641 296.354 110.17C296.354 110.161 306.378 115.505 311.907 106.106Z" fill="white"/>
<path d="M293.885 121.407C293.885 121.407 304.038 127.345 310.242 118.372C310.242 118.372 300.487 112.119 293.885 121.407Z" fill="white"/>
<path d="M321.348 125.36C321.348 125.36 331.445 131.614 337.622 123.012C337.622 123.022 327.931 116.434 321.348 125.36Z" fill="white"/>
<path d="M316.632 133.21C316.632 133.219 325.943 140.354 333.544 132.69C333.544 132.699 324.658 125.258 316.632 133.21Z" fill="white"/>
<path d="M310.945 142.72C310.955 142.729 320.266 149.763 327.876 141.978C327.876 141.987 318.981 134.657 310.945 142.72Z" fill="white"/>
<path d="M270.084 134.675C270.084 134.694 269.678 144.715 282.623 146.459C282.614 146.487 283.344 136.624 270.084 134.675Z" fill="white"/>
<path d="M268.772 146.784C268.762 146.821 268.291 158.717 283.659 160.739C283.65 160.777 284.509 149.039 268.772 146.784Z" fill="white"/>
<path d="M290.649 133.989C290.659 133.98 301.699 138.025 305.426 127.744C305.426 127.735 294.727 123.365 290.649 133.989Z" fill="white"/>
<mask id="mask3_1643_2768" style="mask-type:luminance" maskUnits="userSpaceOnUse" x="0" y="166" width="26" height="20">
<path d="M0 166.084H25.1878V185.087H0V166.084Z" fill="white"/>
</mask>
<g mask="url(#mask3_1643_2768)">
<path d="M0.323242 168.626C0.341734 168.738 0.147554 186.887 24.799 183.871C24.8268 183.992 25.4001 164.989 0.323242 168.626Z" fill="white"/>
</g>
<path d="M62.0351 82.3989C62.0351 82.4268 46.51 98.1357 60.4539 112.082C60.4539 112.11 75.979 97.18 62.0351 82.3989Z" fill="white"/>
<path d="M334.404 69.6036C334.404 69.5201 318.528 78.7339 332.324 98.4977C332.324 98.4049 348.126 90.221 334.404 69.6036Z" fill="white"/>
<path d="M272.794 23.1077C272.784 23.0428 256.732 33.8896 270.787 52.8647C270.778 52.7998 286.784 42.955 272.794 23.1077Z" fill="white"/>
<path d="M93.9174 48.5591C93.9174 48.5591 84.5691 56.9935 92.0681 65.8176C92.0681 65.8176 101.379 57.8471 93.9174 48.5591Z" fill="white"/>
<path d="M94.1764 39.9673C94.1764 40.0044 92.2531 50.7121 105.596 51.8534C105.605 51.8998 107.769 41.2014 94.1764 39.9673Z" fill="white"/>
<path d="M110.59 26.7075C110.581 26.7632 98.7914 44.0031 117.359 55.1191C117.359 55.1748 129.351 38.4544 110.59 26.7075Z" fill="white"/>
<path d="M16.9033 123.931C16.9218 123.986 19.4739 137.468 38.8825 132.235C38.901 132.309 36.7096 118.196 16.9033 123.931Z" fill="white"/>
<path d="M90.5984 146.923C90.6076 146.979 89.9049 161.38 108.528 161.742C108.537 161.797 109.628 147.239 90.5984 146.923Z" fill="white"/>
<path d="M76.8391 52.1963C76.8391 52.2612 62.9137 70.1136 80.6672 82.4172C80.658 82.4822 94.7221 65.2422 76.8391 52.1963Z" fill="white"/>
<path d="M3.63379 193.391C3.64304 193.419 10.9016 208.915 35.174 199.209C35.2017 199.265 28.4425 182.739 3.63379 193.391Z" fill="white"/>
<path d="M31.7902 163.087C31.7994 163.198 23.0521 182.164 44.6707 188.771C44.6799 188.891 53.6954 169.898 31.7902 163.087Z" fill="white"/>
<path d="M102.785 176.708C102.785 176.736 106.012 188.334 121.528 183.779C121.537 183.806 118.708 171.995 102.785 176.708Z" fill="white"/>
<path d="M105.365 89.3208C105.365 89.3208 93.9452 99.1099 104.2 109.029C104.2 109.029 115.601 99.778 105.365 89.3208Z" fill="white"/>
<path d="M94.8053 201.176C94.8146 201.204 90.2375 187.629 72.373 194.588C72.3823 194.616 76.3676 207.523 94.8053 201.176Z" fill="white"/>
<path d="M96.8768 79.8564C96.8676 79.8564 86.9275 87.9011 95.046 96.4933C95.046 96.4933 104.958 88.894 96.8768 79.8564Z" fill="white"/>
<path d="M117.164 67.4506C117.173 67.4785 112.568 56.1213 97.4131 62.9504C97.4223 62.9876 101.509 73.7416 117.164 67.4506Z" fill="white"/>
<path d="M125.246 80.9422C125.255 80.97 120.65 69.52 105.477 76.0801C105.486 76.1172 109.573 86.9827 125.246 80.9422Z" fill="white"/>
<path d="M133.706 91.0005C133.715 91.019 130.497 82.9465 119.836 87.2982C119.836 87.3075 122.712 95.0739 133.706 91.0005Z" fill="white"/>
<path d="M143.776 86.2682C143.766 86.2682 151.275 79.7916 143.914 72.916C143.905 72.916 136.425 79.1142 143.776 86.2682Z" fill="white"/>
<path d="M156.083 140.104C156.083 140.113 163.564 133.822 156.231 126.733C156.231 126.733 148.751 132.736 156.083 140.104Z" fill="white"/>
<path d="M283.298 172.654C283.298 172.663 284.86 164.126 273.811 161.556C273.811 161.565 272.054 169.796 283.298 172.654Z" fill="white"/>
<path d="M143.425 100.27C143.425 100.288 140.207 92.151 129.536 96.3172C129.536 96.3357 132.412 104.167 143.425 100.27Z" fill="white"/>
<path d="M129.73 69.7333C129.73 69.7426 135.935 63.0155 128.306 57.6616C128.297 57.6709 122.074 64.1104 129.73 69.7333Z" fill="white"/>
<path d="M137.737 106.654C137.737 106.663 142.194 113.344 151.348 108.343C151.358 108.352 147.206 101.532 137.737 106.654Z" fill="white"/>
<path d="M135.38 77.704C135.38 77.704 143.221 72.6286 137.812 65.3354C137.802 65.3354 130.026 70.1511 135.38 77.704Z" fill="white"/>
<path d="M76.6911 127.614C76.6819 127.596 64.2544 134.443 70.0151 145.708C70.0058 145.699 82.2946 139.398 76.6911 127.614Z" fill="white"/>
<path d="M82.813 139.584C82.813 139.575 70.367 146.246 76.1277 157.631C76.1184 157.613 88.4257 151.479 82.813 139.584Z" fill="white"/>
<path d="M85.2999 153.576C85.2999 153.585 76.3584 160.609 83.5153 168.441C83.5153 168.441 92.4105 161.797 85.2999 153.576Z" fill="white"/>
<path d="M46.677 206.595C46.6863 206.586 40.9719 199.479 30.4492 207.013C30.4585 207.013 35.7383 213.935 46.677 206.595Z" fill="white"/>
<path d="M75.0825 218.379C75.0917 218.37 69.3496 210.91 58.7529 218.082C58.7529 218.082 64.079 225.348 75.0825 218.379Z" fill="white"/>
<path d="M56.7651 198.95C56.7651 198.977 61.4901 189.467 50.4312 186.692C50.4404 186.72 45.5674 195.813 56.7651 198.95Z" fill="white"/>
<path d="M68.2867 203.774C68.2867 203.793 73.0302 194.319 61.9435 191.332C61.9527 191.35 57.0613 200.415 68.2867 203.774Z" fill="white"/>
<path d="M71.5416 176.254C71.5416 176.263 66.3172 166.13 52.3086 173.702C52.3178 173.72 57.0336 183.426 71.5416 176.254Z" fill="white"/>
<path d="M71.6982 114.986C71.689 114.977 61.2958 121.249 66.6496 130.509C66.6403 130.5 76.9318 124.682 71.6982 114.986Z" fill="white"/>
<path d="M107.825 208.859C107.834 208.859 102.065 201.668 92.1152 208.488C92.1152 208.488 97.4968 215.494 107.825 208.859Z" fill="white"/>
<path d="M106.789 277.355C106.799 277.355 101.047 270.053 91.1348 276.622C91.1348 276.613 96.4978 283.767 106.789 277.355Z" fill="white"/>
<path d="M31.9473 151.934C31.9473 151.962 33.4545 161.277 46.1871 157.25C46.1963 157.278 44.9665 147.777 31.9473 151.934Z" fill="white"/>
<path d="M93.2242 67.4043C93.2149 67.3858 82.0358 73.4355 87.1029 83.6051C87.1029 83.5865 98.1434 78.0285 93.2242 67.4043Z" fill="white"/>
<path d="M165.838 211.875C165.838 211.875 156.934 203.45 145.736 212.923C145.736 212.923 154.151 221.135 165.838 211.875Z" fill="white"/>
<path d="M110.534 228.141C110.525 228.141 100.409 234.886 107.64 244.351C107.64 244.36 117.7 238.032 110.534 228.141Z" fill="white"/>
<path d="M121.704 231.388C121.704 231.388 113.891 236.51 119.467 243.896C119.457 243.896 127.224 239.09 121.704 231.388Z" fill="white"/>
<path d="M197.591 162.4C197.591 162.382 186.301 166.641 191.331 177.887C191.322 177.859 202.473 174.036 197.591 162.4Z" fill="white"/>
<path d="M95.3047 166.195C95.3047 166.205 99.4194 175.019 111.542 169.693C111.551 169.712 107.778 160.721 95.3047 166.195Z" fill="white"/>
<path d="M116.073 190.227C116.082 190.246 121.547 201.872 137.248 195.395C137.248 195.423 132.246 183.528 116.073 190.227Z" fill="white"/>
<path d="M130.627 202.531C130.636 202.54 138.154 213.304 152.782 205.111C152.782 205.129 145.745 194.06 130.627 202.531Z" fill="white"/>
<path d="M166.809 198.81C166.8 198.81 176.999 189.401 165.728 179.557C165.728 179.566 155.529 188.566 166.809 198.81Z" fill="white"/>
<path d="M151.071 191.406C151.071 191.424 160.068 180.846 147.474 172.523C147.474 172.542 138.413 182.665 151.071 191.406Z" fill="white"/>
<path d="M136.776 181.533C136.776 181.543 145.19 172.143 134.215 164.516C134.205 164.535 125.745 173.535 136.776 181.533Z" fill="white"/>
<path d="M123.22 171.856C123.22 171.874 131.089 161.992 119.614 155.209C119.614 155.228 111.681 164.683 123.22 171.856Z" fill="white"/>
<path d="M145.412 135.464C145.412 135.473 155.648 124.079 142.277 114.81C142.277 114.828 131.986 125.749 145.412 135.464Z" fill="white"/>
<path d="M128.768 125.582C128.768 125.591 139.781 115.348 128.25 105.457C128.25 105.466 117.247 115.283 128.768 125.582Z" fill="white"/>
<path d="M115.25 116.248C115.241 116.248 126.272 107.693 117.145 97.7554C117.136 97.7554 106.17 105.958 115.25 116.248Z" fill="white"/>
<path d="M371.982 216.783C371.973 216.839 376.763 230.108 360.174 230.701C360.165 230.757 355.126 217.451 371.982 216.783Z" fill="white"/>
<path d="M386.536 214.909C386.536 214.946 391.114 226.118 377.419 226.842C377.419 226.888 372.648 215.744 386.536 214.909Z" fill="white"/>
<path d="M398.298 209.323C398.298 209.36 405.483 219.975 393.768 223.306C393.768 223.353 386.472 212.905 398.298 209.323Z" fill="white"/>
<path d="M303.233 223.844C303.233 223.891 301.097 209.249 319.775 210.771C319.775 210.817 322.3 224.754 303.233 223.844Z" fill="white"/>
<path d="M325.508 228.577C325.499 228.632 321.745 214.566 339.249 214.686C339.24 214.742 343.327 228.113 325.508 228.577Z" fill="white"/>
<path d="M344.65 230.052C344.65 230.098 339.647 217.386 354.987 216.18C354.987 216.227 360.23 228.335 344.65 230.052Z" fill="white"/>
<path d="M129.166 159.209C129.166 159.19 142.084 167.086 153.799 153.623C153.799 153.604 141.399 145.226 129.166 159.209Z" fill="white"/>
<path d="M111.894 150.82C111.894 150.793 124.783 158.345 136.471 144.641C136.48 144.622 124.09 136.587 111.894 150.82Z" fill="white"/>
<path d="M59.3359 184.948C59.3452 184.948 66.049 194.959 80.6124 186.358C80.6217 186.367 74.3432 176.012 59.3359 184.948Z" fill="white"/>
<path d="M40.6484 214.139C40.6577 214.12 49.8951 222.081 62.4797 211.142C62.4889 211.132 53.6769 202.837 40.6484 214.139Z" fill="white"/>
<mask id="mask4_1643_2768" style="mask-type:luminance" maskUnits="userSpaceOnUse" x="0" y="204" width="23" height="12">
<path d="M0 204.09H22.8207V215.967H0V204.09Z" fill="white"/>
</mask>
<g mask="url(#mask4_1643_2768)">
<path d="M0.711914 212.394C0.711914 212.367 9.83832 219.586 22.2935 208.219C22.2935 208.191 13.5832 200.61 0.711914 212.394Z" fill="white"/>
</g>
<path d="M101.944 140.54C101.944 140.53 111.81 146.116 120.733 135.446C120.733 135.427 111.265 129.526 101.944 140.54Z" fill="white"/>
<path d="M88.0273 129.284C88.0366 129.275 95.8592 137.162 107.713 127.985C107.713 127.985 100.288 119.755 88.0273 129.284Z" fill="white"/>
<path d="M67.3244 250.354C67.3336 250.391 65.1052 263.122 81.2221 263.669C81.2221 263.706 83.7556 250.985 67.3244 250.354Z" fill="white"/>
<path d="M128.574 259.837C128.574 259.855 130.904 248.971 117.46 247.561C117.469 247.589 114.88 258.027 128.574 259.837Z" fill="white"/>
<path d="M74.6477 270.554C74.6569 270.544 66.15 264.291 56.7832 273.773C56.7832 273.755 64.837 279.981 74.6477 270.554Z" fill="white"/>
<path d="M149.86 250.669C149.86 250.688 154.668 242.699 144.997 238.31C144.997 238.329 140.077 245.984 149.86 250.669Z" fill="white"/>
<path d="M114.797 262.769C114.797 262.797 117.497 250.27 102.055 248.851C102.055 248.878 99.0687 260.857 114.797 262.769Z" fill="white"/>
<path d="M98.7169 264.374C98.7169 264.411 101.315 252.237 86.3171 251.105C86.3264 251.143 83.4322 262.76 98.7169 264.374Z" fill="white"/>
<path d="M131.136 242.365C131.136 242.383 128.196 252.618 140.937 254.928C140.937 254.947 144.118 244.879 131.136 242.365Z" fill="white"/>
<path d="M48.1289 157.77C48.1382 157.807 49.368 170.566 66.4649 166.529C66.4742 166.566 65.605 153.521 48.1289 157.77Z" fill="white"/>
<path d="M45.0127 144.892C45.0219 144.929 46.6493 156.796 62.7385 152.333C62.7477 152.37 61.4624 140.206 45.0127 144.892Z" fill="white"/>
<path d="M43.1914 131.512C43.2007 131.539 44.6709 142.191 59.1141 137.997C59.1233 138.034 57.9675 127.141 43.1914 131.512Z" fill="white"/>
<path d="M47.7866 114.522C47.7866 114.541 45.0311 123.439 55.8219 123.949C55.8219 123.977 58.7531 115.134 47.7866 114.522Z" fill="white"/>
<path d="M10.3564 142.998C10.3657 143.008 13.0472 150.375 23.7918 145.142C23.7918 145.151 21.3692 137.598 10.3564 142.998Z" fill="white"/>
<path d="M78.1436 119.783C78.1436 119.783 85.9569 127.494 97.7834 118.132C97.7926 118.132 90.3676 110.059 78.1436 119.783Z" fill="white"/>
<path d="M71.9482 104.974C71.9482 105.002 75.1846 115.264 89.4151 109.855C89.4244 109.883 86.5394 99.342 71.9482 104.974Z" fill="white"/>
<path d="M28.757 102.45C28.7755 102.534 22.2937 118.419 41.0273 120.367C41.0365 120.46 47.7588 104.492 28.757 102.45Z" fill="white"/>
<path d="M43.6348 84.5703C43.6441 84.6074 34.2587 97.375 47.7773 103.453C47.7773 103.499 57.2643 91.0469 43.6348 84.5703Z" fill="white"/>
<path d="M70.1729 92.5406C70.1729 92.5592 71.7355 101.161 83.377 97.6532C83.377 97.6811 82.101 88.9312 70.1729 92.5406Z" fill="white"/>
<path d="M296.355 255.55C296.345 255.559 299.683 247.236 312.804 252.015C312.804 252.024 309.873 260.05 296.355 255.55Z" fill="white"/>
<path d="M306.424 265.868C306.424 265.896 306.341 256.831 320.063 257.666C320.053 257.684 320.469 266.341 306.424 265.868Z" fill="white"/>
<path d="M320.081 268.16C320.081 268.178 318.038 259.169 331.362 257.805C331.362 257.833 333.683 266.406 320.081 268.16Z" fill="white"/>
<path d="M334.256 269.422C334.247 269.44 330.752 260.672 343.447 257.712C343.447 257.74 347.164 266.063 334.256 269.422Z" fill="white"/>
<path d="M348.062 267.612C348.062 267.64 345.685 258.714 358.852 257.341C358.843 257.369 361.479 265.849 348.062 267.612Z" fill="white"/>
<path d="M361.386 268.809C361.377 268.846 360.211 257.795 376.892 258.519C376.883 258.565 378.455 268.985 361.386 268.809Z" fill="white"/>
<path d="M328.311 296.265C328.311 296.219 341.293 289.353 354.247 305.47C354.247 305.423 341.931 312.447 328.311 296.265Z" fill="white"/>
<path d="M284.722 252.544C284.731 252.562 279.414 242.383 290.972 234.821C290.982 234.849 296.428 244.518 284.722 252.544Z" fill="white"/>
<path d="M274.273 258.77C274.273 258.779 266.496 250.873 275.161 239.331C275.161 239.34 282.955 246.781 274.273 258.77Z" fill="white"/>
<path d="M323.853 250.753C323.853 250.725 309.216 250.855 309.993 235.823C309.993 235.786 324.325 235.452 323.853 250.753Z" fill="white"/>
<path d="M342.125 252.256C342.134 252.228 327.534 252.089 328.32 237.187C328.329 237.159 342.615 237.104 342.125 252.256Z" fill="white"/>
<mask id="mask5_1643_2768" style="mask-type:luminance" maskUnits="userSpaceOnUse" x="402" y="211" width="16" height="13">
<path d="M402.736 211.494H417.161V223.835H402.736V211.494Z" fill="white"/>
</mask>
<g mask="url(#mask5_1643_2768)">
<path d="M416.634 212.264C416.624 212.32 421.035 224.707 404.317 223.065C404.308 223.13 399.657 210.575 416.634 212.264Z" fill="white"/>
</g>
<path d="M413.167 189.68C413.148 189.763 415.367 206.233 392.602 200.146C392.584 200.239 390.013 183.166 413.167 189.68Z" fill="white"/>
<path d="M356.42 251.3C356.43 251.282 345.278 250.966 345.888 239.683C345.888 239.656 356.799 239.804 356.42 251.3Z" fill="white"/>
<path d="M374.562 247.672C374.562 247.645 363.235 249.695 360.535 238.375C360.535 238.347 371.557 236.148 374.562 247.672Z" fill="white"/>
<path d="M388.57 245.603C388.58 245.575 377.289 247.394 374.599 236.129C374.599 236.092 385.584 234.144 388.57 245.603Z" fill="white"/>
<path d="M403.356 238.792C403.365 238.755 393.841 243.961 386.518 234.376C386.518 234.348 395.681 228.994 403.356 238.792Z" fill="white"/>
<path d="M340.969 287.45C340.978 287.432 329.235 289.241 327.7 277.8C327.7 277.772 339.138 275.824 340.969 287.45Z" fill="white"/>
<path d="M329.041 306.565C329.05 306.546 316.937 307.047 317.298 295.634C317.298 295.616 329.134 294.957 329.041 306.565Z" fill="white"/>
<path d="M311.213 303.02C311.213 303.011 299.322 299.671 304.399 289.399C304.399 289.399 316.133 292.498 311.213 303.02Z" fill="white"/>
<path d="M295.883 296.646C295.892 296.655 285.73 289.965 294.69 282.087C294.69 282.097 304.815 288.462 295.883 296.646Z" fill="white"/>
<path d="M280.32 289.649C280.32 289.668 274.781 279.619 287.274 276.826C287.274 276.845 292.96 286.504 280.32 289.649Z" fill="white"/>
<path d="M327.219 286.059C327.219 286.031 315.457 287.998 313.913 276.502C313.913 276.474 325.37 274.367 327.219 286.059Z" fill="white"/>
<path d="M355.486 285.632C355.495 285.613 343.78 287.237 342.254 275.861C342.254 275.833 353.664 274.07 355.486 285.632Z" fill="white"/>
<path d="M371.363 278.997C371.363 278.97 361.044 284.073 354.599 274.321C354.599 274.293 364.557 269.069 371.363 278.997Z" fill="white"/>
<path d="M413.092 231.889C413.092 231.871 406.028 236.529 399.324 229.291C399.324 229.273 406.093 224.485 413.092 231.889Z" fill="white"/>
<path d="M5.55762 221.933C5.56687 221.886 17.0142 234.088 36.5985 219.465C36.6078 219.437 25.6968 206.549 5.55762 221.933Z" fill="white"/>
<path d="M39.1035 261.953C39.1035 261.934 48.5998 273.486 65.6228 262.138C65.6321 262.12 56.6628 250.168 39.1035 261.953Z" fill="white"/>
<path d="M59.5664 283.85C59.5664 283.822 70.4312 294.02 85.3552 281.92C85.3552 281.902 75.0268 271.389 59.5664 283.85Z" fill="white"/>
<path d="M51.7998 243.32C51.7906 243.283 65.642 243.97 69.2389 229.838C69.2389 229.801 55.7666 228.873 51.7998 243.32Z" fill="white"/>
<path d="M91.0333 244.239C91.0333 244.221 104.737 239.275 100.4 226.034C100.391 226.016 86.9094 230.664 91.0333 244.239Z" fill="white"/>
<path d="M71.2175 247.218C71.2083 247.18 87.1402 244.861 84.6621 229.727C84.6529 229.69 69.0261 231.778 71.2175 247.218Z" fill="white"/>
<path d="M36.7461 236.027C36.7461 235.999 47.278 240.639 55.7017 229.068C55.7017 229.049 45.5581 224.169 36.7461 236.027Z" fill="white"/>
<path d="M27.1387 230.209C27.1387 230.191 34.9336 234.57 42.599 225.709C42.599 225.691 35.1278 221.126 27.1387 230.209Z" fill="white"/>
<path d="M77.6533 292.127C77.6533 292.117 85.5129 297.314 93.2431 288.888C93.2431 288.879 85.7256 283.544 77.6533 292.127Z" fill="white"/>
<path d="M127.668 295.987C127.659 295.978 140.567 289.77 133.817 277.132C133.817 277.123 121.057 282.969 127.668 295.987Z" fill="white"/>
<path d="M147.779 289.585C147.779 289.585 160.16 279.907 147.391 269.44C147.381 269.44 135.009 278.682 147.779 289.585Z" fill="white"/>
<path d="M108.759 297.601C108.759 297.592 121.704 296.098 121.112 283.163C121.112 283.145 108.444 284.37 108.759 297.601Z" fill="white"/>
<path d="M95.6836 297.75C95.6744 297.731 106.058 297.37 106.78 286.949C106.78 286.94 96.6452 287.098 95.6836 297.75Z" fill="white"/>
</g>
<defs>
<clipPath id="clip0_1643_2768">
<rect width="418" height="477" fill="white"/>
</clipPath>
</defs>
</svg>
