<svg width="1711" height="770" viewBox="0 0 1711 770" fill="none" xmlns="http://www.w3.org/2000/svg">
<rect x="0.0966797" width="1710.79" height="770" fill="white"/>
<path d="M666.949 573.442H662.73L670.411 551.624H675.291L682.982 573.442H678.764L672.936 556.099H672.766L666.949 573.442ZM667.087 564.888H678.593V568.062H667.087V564.888ZM692.304 579.92C690.919 579.92 689.729 579.731 688.735 579.355C687.741 578.986 686.942 578.489 686.338 577.864C685.734 577.239 685.315 576.546 685.081 575.786L688.554 574.945C688.71 575.264 688.938 575.58 689.236 575.893C689.534 576.212 689.935 576.475 690.44 576.681C690.951 576.894 691.594 577.001 692.368 577.001C693.462 577.001 694.367 576.734 695.085 576.202C695.802 575.676 696.161 574.81 696.161 573.602V570.502H695.969C695.77 570.9 695.479 571.308 695.095 571.727C694.719 572.146 694.218 572.498 693.593 572.782C692.975 573.066 692.198 573.208 691.26 573.208C690.003 573.208 688.863 572.913 687.84 572.324C686.825 571.727 686.015 570.839 685.411 569.66C684.815 568.474 684.516 566.99 684.516 565.207C684.516 563.41 684.815 561.894 685.411 560.658C686.015 559.415 686.828 558.474 687.851 557.835C688.874 557.189 690.014 556.866 691.271 556.866C692.229 556.866 693.018 557.029 693.636 557.356C694.261 557.675 694.758 558.062 695.127 558.517C695.497 558.964 695.777 559.387 695.969 559.785H696.182V557.079H699.985V573.709C699.985 575.108 699.651 576.266 698.984 577.182C698.316 578.098 697.403 578.783 696.246 579.238C695.088 579.692 693.774 579.92 692.304 579.92ZM692.336 570.182C693.153 570.182 693.849 569.984 694.424 569.586C694.999 569.188 695.436 568.616 695.734 567.871C696.033 567.125 696.182 566.23 696.182 565.186C696.182 564.156 696.033 563.254 695.734 562.48C695.443 561.706 695.01 561.106 694.435 560.68C693.867 560.246 693.167 560.03 692.336 560.03C691.477 560.03 690.759 560.253 690.184 560.701C689.609 561.148 689.176 561.763 688.884 562.544C688.593 563.318 688.448 564.199 688.448 565.186C688.448 566.187 688.593 567.065 688.884 567.817C689.183 568.563 689.619 569.146 690.195 569.565C690.777 569.976 691.491 570.182 692.336 570.182ZM714.367 566.56V557.079H718.224V573.442H714.484V570.534H714.314C713.945 571.45 713.337 572.199 712.492 572.782C711.654 573.364 710.621 573.655 709.392 573.655C708.32 573.655 707.372 573.418 706.548 572.942C705.731 572.459 705.092 571.759 704.63 570.843C704.168 569.92 703.938 568.805 703.938 567.498V557.079H707.794V566.901C707.794 567.938 708.078 568.762 708.646 569.373C709.215 569.984 709.96 570.289 710.884 570.289C711.452 570.289 712.002 570.15 712.535 569.873C713.068 569.597 713.504 569.185 713.845 568.638C714.193 568.084 714.367 567.391 714.367 566.56ZM726.898 573.773C725.861 573.773 724.927 573.588 724.097 573.219C723.273 572.842 722.619 572.288 722.136 571.557C721.66 570.825 721.422 569.923 721.422 568.851C721.422 567.927 721.593 567.164 721.934 566.56C722.275 565.957 722.74 565.474 723.329 565.111C723.919 564.749 724.583 564.476 725.322 564.291C726.067 564.099 726.838 563.961 727.633 563.876C728.592 563.776 729.37 563.687 729.967 563.609C730.563 563.524 730.996 563.396 731.266 563.226C731.543 563.048 731.682 562.775 731.682 562.405V562.342C731.682 561.539 731.444 560.918 730.968 560.477C730.492 560.037 729.807 559.817 728.912 559.817C727.967 559.817 727.218 560.023 726.664 560.435C726.117 560.847 725.748 561.333 725.556 561.894L721.955 561.383C722.239 560.388 722.708 559.557 723.361 558.89C724.015 558.215 724.814 557.711 725.758 557.377C726.703 557.036 727.747 556.866 728.891 556.866C729.679 556.866 730.464 556.958 731.245 557.143C732.026 557.327 732.74 557.633 733.386 558.059C734.033 558.478 734.551 559.05 734.942 559.774C735.339 560.498 735.538 561.404 735.538 562.491V573.442H731.831V571.195H731.703C731.469 571.649 731.138 572.075 730.712 572.473C730.293 572.864 729.764 573.18 729.125 573.421C728.493 573.655 727.751 573.773 726.898 573.773ZM727.9 570.939C728.674 570.939 729.345 570.786 729.913 570.481C730.481 570.168 730.918 569.756 731.224 569.245C731.536 568.734 731.692 568.176 731.692 567.572V565.644C731.572 565.744 731.366 565.836 731.074 565.921C730.79 566.006 730.471 566.081 730.116 566.145C729.761 566.209 729.409 566.266 729.061 566.315C728.713 566.365 728.411 566.408 728.155 566.443C727.58 566.521 727.065 566.649 726.611 566.827C726.156 567.004 725.797 567.253 725.535 567.572C725.272 567.885 725.141 568.29 725.141 568.787C725.141 569.497 725.4 570.033 725.918 570.396C726.437 570.758 727.097 570.939 727.9 570.939ZM739.416 573.442V557.079H743.155V559.806H743.326C743.624 558.861 744.136 558.133 744.86 557.622C745.592 557.104 746.426 556.844 747.364 556.844C747.577 556.844 747.815 556.855 748.077 556.876C748.347 556.891 748.571 556.915 748.748 556.951V560.498C748.585 560.442 748.326 560.392 747.971 560.349C747.623 560.3 747.285 560.275 746.959 560.275C746.256 560.275 745.623 560.427 745.062 560.733C744.508 561.031 744.072 561.447 743.752 561.979C743.432 562.512 743.273 563.126 743.273 563.822V573.442H739.416ZM756.709 573.73C755.424 573.73 754.273 573.4 753.258 572.739C752.242 572.079 751.439 571.12 750.85 569.863C750.26 568.606 749.966 567.079 749.966 565.282C749.966 563.464 750.264 561.93 750.861 560.68C751.464 559.422 752.277 558.474 753.3 557.835C754.323 557.189 755.463 556.866 756.72 556.866C757.679 556.866 758.467 557.029 759.085 557.356C759.703 557.675 760.193 558.062 760.555 558.517C760.917 558.964 761.198 559.387 761.397 559.785H761.557V551.624H765.424V573.442H761.631V570.864H761.397C761.198 571.262 760.91 571.685 760.534 572.132C760.157 572.572 759.66 572.949 759.042 573.261C758.424 573.574 757.647 573.73 756.709 573.73ZM757.785 570.566C758.602 570.566 759.298 570.346 759.873 569.905C760.449 569.458 760.885 568.837 761.184 568.041C761.482 567.246 761.631 566.319 761.631 565.261C761.631 564.202 761.482 563.283 761.184 562.501C760.892 561.72 760.459 561.113 759.884 560.68C759.316 560.246 758.616 560.03 757.785 560.03C756.926 560.03 756.209 560.253 755.633 560.701C755.058 561.148 754.625 561.766 754.334 562.555C754.042 563.343 753.897 564.245 753.897 565.261C753.897 566.283 754.042 567.196 754.334 567.998C754.632 568.794 755.069 569.422 755.644 569.884C756.226 570.339 756.94 570.566 757.785 570.566ZM774.242 573.773C773.205 573.773 772.271 573.588 771.44 573.219C770.616 572.842 769.963 572.288 769.48 571.557C769.004 570.825 768.766 569.923 768.766 568.851C768.766 567.927 768.937 567.164 769.278 566.56C769.619 565.957 770.084 565.474 770.673 565.111C771.263 564.749 771.927 564.476 772.665 564.291C773.411 564.099 774.182 563.961 774.977 563.876C775.936 563.776 776.714 563.687 777.31 563.609C777.907 563.524 778.34 563.396 778.61 563.226C778.887 563.048 779.025 562.775 779.025 562.405V562.342C779.025 561.539 778.788 560.918 778.312 560.477C777.836 560.037 777.15 559.817 776.256 559.817C775.311 559.817 774.562 560.023 774.008 560.435C773.461 560.847 773.092 561.333 772.9 561.894L769.299 561.383C769.583 560.388 770.052 559.557 770.705 558.89C771.359 558.215 772.158 557.711 773.102 557.377C774.047 557.036 775.091 556.866 776.234 556.866C777.023 556.866 777.807 556.958 778.589 557.143C779.37 557.327 780.084 557.633 780.73 558.059C781.376 558.478 781.895 559.05 782.285 559.774C782.683 560.498 782.882 561.404 782.882 562.491V573.442H779.175V571.195H779.047C778.812 571.649 778.482 572.075 778.056 572.473C777.637 572.864 777.108 573.18 776.469 573.421C775.837 573.655 775.094 573.773 774.242 573.773ZM775.244 570.939C776.018 570.939 776.689 570.786 777.257 570.481C777.825 570.168 778.262 569.756 778.567 569.245C778.88 568.734 779.036 568.176 779.036 567.572V565.644C778.915 565.744 778.709 565.836 778.418 565.921C778.134 566.006 777.815 566.081 777.459 566.145C777.104 566.209 776.753 566.266 776.405 566.315C776.057 566.365 775.755 566.408 775.499 566.443C774.924 566.521 774.409 566.649 773.954 566.827C773.5 567.004 773.141 567.253 772.878 567.572C772.616 567.885 772.484 568.29 772.484 568.787C772.484 569.497 772.744 570.033 773.262 570.396C773.78 570.758 774.441 570.939 775.244 570.939ZM790.616 563.854V573.442H786.76V557.079H790.446V559.859H790.638C791.014 558.943 791.614 558.215 792.438 557.675C793.269 557.136 794.295 556.866 795.517 556.866C796.646 556.866 797.63 557.107 798.468 557.59C799.313 558.073 799.967 558.773 800.428 559.689C800.897 560.605 801.128 561.717 801.121 563.023V573.442H797.264V563.62C797.264 562.526 796.98 561.67 796.412 561.052C795.851 560.435 795.073 560.126 794.079 560.126C793.404 560.126 792.804 560.275 792.278 560.573C791.76 560.864 791.351 561.287 791.053 561.841C790.762 562.395 790.616 563.066 790.616 563.854ZM811.114 573.73C809.828 573.73 808.677 573.4 807.662 572.739C806.646 572.079 805.844 571.12 805.254 569.863C804.665 568.606 804.37 567.079 804.37 565.282C804.37 563.464 804.668 561.93 805.265 560.68C805.869 559.422 806.682 558.474 807.704 557.835C808.727 557.189 809.867 556.866 811.124 556.866C812.083 556.866 812.871 557.029 813.489 557.356C814.107 557.675 814.597 558.062 814.959 558.517C815.322 558.964 815.602 559.387 815.801 559.785H815.961V551.624H819.828V573.442H816.035V570.864H815.801C815.602 571.262 815.315 571.685 814.938 572.132C814.562 572.572 814.065 572.949 813.447 573.261C812.829 573.574 812.051 573.73 811.114 573.73ZM812.19 570.566C813.006 570.566 813.702 570.346 814.278 569.905C814.853 569.458 815.29 568.837 815.588 568.041C815.886 567.246 816.035 566.319 816.035 565.261C816.035 564.202 815.886 563.283 815.588 562.501C815.297 561.72 814.864 561.113 814.288 560.68C813.72 560.246 813.021 560.03 812.19 560.03C811.33 560.03 810.613 560.253 810.038 560.701C809.462 561.148 809.029 561.766 808.738 562.555C808.447 563.343 808.301 564.245 808.301 565.261C808.301 566.283 808.447 567.196 808.738 567.998C809.036 568.794 809.473 569.422 810.048 569.884C810.631 570.339 811.344 570.566 812.19 570.566ZM831.075 573.762C829.477 573.762 828.092 573.41 826.921 572.707C825.749 572.004 824.84 571.021 824.193 569.756C823.554 568.492 823.234 567.015 823.234 565.324C823.234 563.634 823.554 562.153 824.193 560.882C824.84 559.611 825.749 558.623 826.921 557.92C828.092 557.217 829.477 556.866 831.075 556.866C832.673 556.866 834.058 557.217 835.23 557.92C836.402 558.623 837.308 559.611 837.947 560.882C838.593 562.153 838.916 563.634 838.916 565.324C838.916 567.015 838.593 568.492 837.947 569.756C837.308 571.021 836.402 572.004 835.23 572.707C834.058 573.41 832.673 573.762 831.075 573.762ZM831.097 570.672C831.963 570.672 832.688 570.435 833.27 569.959C833.852 569.476 834.286 568.829 834.57 568.02C834.861 567.21 835.006 566.308 835.006 565.314C835.006 564.312 834.861 563.407 834.57 562.597C834.286 561.78 833.852 561.131 833.27 560.648C832.688 560.165 831.963 559.923 831.097 559.923C830.209 559.923 829.47 560.165 828.881 560.648C828.298 561.131 827.862 561.78 827.57 562.597C827.286 563.407 827.144 564.312 827.144 565.314C827.144 566.308 827.286 567.21 827.57 568.02C827.862 568.829 828.298 569.476 828.881 569.959C829.47 570.435 830.209 570.672 831.097 570.672ZM849.631 573.442V557.079H853.37V559.806H853.541C853.839 558.861 854.35 558.133 855.075 557.622C855.806 557.104 856.641 556.844 857.578 556.844C857.791 556.844 858.029 556.855 858.292 556.876C858.562 556.891 858.786 556.915 858.963 556.951V560.498C858.8 560.442 858.541 560.392 858.186 560.349C857.838 560.3 857.5 560.275 857.174 560.275C856.47 560.275 855.838 560.427 855.277 560.733C854.723 561.031 854.286 561.447 853.967 561.979C853.647 562.512 853.487 563.126 853.487 563.822V573.442H849.631ZM868.096 573.762C866.455 573.762 865.038 573.421 863.845 572.739C862.659 572.05 861.747 571.077 861.107 569.82C860.468 568.556 860.149 567.068 860.149 565.356C860.149 563.673 860.468 562.196 861.107 560.925C861.754 559.646 862.656 558.652 863.813 557.942C864.971 557.224 866.331 556.866 867.894 556.866C868.902 556.866 869.854 557.029 870.749 557.356C871.651 557.675 872.446 558.172 873.135 558.847C873.831 559.522 874.378 560.381 874.776 561.425C875.173 562.462 875.372 563.698 875.372 565.133V566.315H861.96V563.716H871.676C871.668 562.977 871.509 562.32 871.196 561.745C870.884 561.163 870.447 560.704 869.886 560.371C869.332 560.037 868.685 559.87 867.947 559.87C867.158 559.87 866.466 560.062 865.869 560.445C865.273 560.822 864.808 561.319 864.474 561.937C864.147 562.547 863.98 563.219 863.973 563.95V566.219C863.973 567.171 864.147 567.988 864.495 568.67C864.843 569.344 865.33 569.863 865.955 570.225C866.58 570.58 867.311 570.758 868.149 570.758C868.71 570.758 869.218 570.68 869.673 570.523C870.127 570.36 870.521 570.122 870.855 569.81C871.189 569.497 871.441 569.11 871.612 568.648L875.212 569.053C874.985 570.005 874.552 570.836 873.913 571.546C873.281 572.249 872.471 572.796 871.484 573.187C870.497 573.57 869.367 573.762 868.096 573.762ZM891.568 561.404L888.052 561.788C887.953 561.432 887.779 561.099 887.53 560.786C887.289 560.474 886.962 560.222 886.55 560.03C886.138 559.838 885.634 559.742 885.038 559.742C884.235 559.742 883.56 559.916 883.013 560.264C882.474 560.612 882.207 561.063 882.214 561.617C882.207 562.093 882.381 562.48 882.736 562.778C883.099 563.077 883.695 563.322 884.526 563.513L887.317 564.11C888.866 564.444 890.016 564.973 890.769 565.697C891.529 566.422 891.913 567.37 891.92 568.542C891.913 569.572 891.611 570.481 891.014 571.269C890.425 572.05 889.604 572.661 888.553 573.101C887.502 573.542 886.295 573.762 884.931 573.762C882.928 573.762 881.316 573.343 880.094 572.505C878.873 571.66 878.145 570.484 877.91 568.979L881.671 568.616C881.842 569.355 882.204 569.913 882.758 570.289C883.312 570.665 884.033 570.854 884.92 570.854C885.837 570.854 886.572 570.665 887.126 570.289C887.687 569.913 887.967 569.447 887.967 568.893C887.967 568.425 887.786 568.038 887.424 567.732C887.069 567.427 886.515 567.192 885.762 567.029L882.971 566.443C881.401 566.116 880.24 565.566 879.487 564.792C878.734 564.011 878.361 563.023 878.369 561.83C878.361 560.822 878.635 559.948 879.189 559.209C879.75 558.464 880.528 557.888 881.522 557.484C882.523 557.072 883.677 556.866 884.984 556.866C886.902 556.866 888.411 557.274 889.512 558.091C890.62 558.908 891.305 560.012 891.568 561.404ZM895.1 579.579V557.079H898.892V559.785H899.116C899.315 559.387 899.595 558.964 899.958 558.517C900.32 558.062 900.81 557.675 901.428 557.356C902.046 557.029 902.834 556.866 903.793 556.866C905.057 556.866 906.197 557.189 907.213 557.835C908.235 558.474 909.045 559.422 909.642 560.68C910.245 561.93 910.547 563.464 910.547 565.282C910.547 567.079 910.252 568.606 909.663 569.863C909.073 571.12 908.271 572.079 907.255 572.739C906.24 573.4 905.089 573.73 903.804 573.73C902.866 573.73 902.088 573.574 901.47 573.261C900.853 572.949 900.355 572.572 899.979 572.132C899.61 571.685 899.322 571.262 899.116 570.864H898.956V579.579H895.1ZM898.882 565.261C898.882 566.319 899.031 567.246 899.329 568.041C899.634 568.837 900.071 569.458 900.639 569.905C901.215 570.346 901.911 570.566 902.728 570.566C903.58 570.566 904.294 570.339 904.869 569.884C905.444 569.422 905.877 568.794 906.169 567.998C906.467 567.196 906.616 566.283 906.616 565.261C906.616 564.245 906.47 563.343 906.179 562.555C905.888 561.766 905.455 561.148 904.88 560.701C904.304 560.253 903.587 560.03 902.728 560.03C901.904 560.03 901.204 560.246 900.629 560.68C900.054 561.113 899.617 561.72 899.318 562.501C899.027 563.283 898.882 564.202 898.882 565.261ZM920.987 573.762C919.389 573.762 918.005 573.41 916.833 572.707C915.661 572.004 914.752 571.021 914.105 569.756C913.466 568.492 913.147 567.015 913.147 565.324C913.147 563.634 913.466 562.153 914.105 560.882C914.752 559.611 915.661 558.623 916.833 557.92C918.005 557.217 919.389 556.866 920.987 556.866C922.585 556.866 923.97 557.217 925.142 557.92C926.314 558.623 927.22 559.611 927.859 560.882C928.505 562.153 928.828 563.634 928.828 565.324C928.828 567.015 928.505 568.492 927.859 569.756C927.22 571.021 926.314 572.004 925.142 572.707C923.97 573.41 922.585 573.762 920.987 573.762ZM921.009 570.672C921.875 570.672 922.6 570.435 923.182 569.959C923.764 569.476 924.198 568.829 924.482 568.02C924.773 567.21 924.919 566.308 924.919 565.314C924.919 564.312 924.773 563.407 924.482 562.597C924.198 561.78 923.764 561.131 923.182 560.648C922.6 560.165 921.875 559.923 921.009 559.923C920.121 559.923 919.382 560.165 918.793 560.648C918.21 561.131 917.774 561.78 917.483 562.597C917.198 563.407 917.056 564.312 917.056 565.314C917.056 566.308 917.198 567.21 917.483 568.02C917.774 568.829 918.21 569.476 918.793 569.959C919.382 570.435 920.121 570.672 921.009 570.672ZM945.035 561.404L941.519 561.788C941.42 561.432 941.246 561.099 940.997 560.786C940.756 560.474 940.429 560.222 940.017 560.03C939.605 559.838 939.101 559.742 938.504 559.742C937.702 559.742 937.027 559.916 936.48 560.264C935.94 560.612 935.674 561.063 935.681 561.617C935.674 562.093 935.848 562.48 936.203 562.778C936.565 563.077 937.162 563.322 937.993 563.513L940.784 564.11C942.332 564.444 943.483 564.973 944.236 565.697C944.996 566.422 945.379 567.37 945.386 568.542C945.379 569.572 945.078 570.481 944.481 571.269C943.891 572.05 943.071 572.661 942.02 573.101C940.969 573.542 939.761 573.762 938.398 573.762C936.395 573.762 934.783 573.343 933.561 572.505C932.34 571.66 931.612 570.484 931.377 568.979L935.138 568.616C935.308 569.355 935.671 569.913 936.225 570.289C936.778 570.665 937.499 570.854 938.387 570.854C939.303 570.854 940.038 570.665 940.592 570.289C941.153 569.913 941.434 569.447 941.434 568.893C941.434 568.425 941.253 568.038 940.891 567.732C940.536 567.427 939.982 567.192 939.229 567.029L936.438 566.443C934.868 566.116 933.707 565.566 932.954 564.792C932.201 564.011 931.828 563.023 931.835 561.83C931.828 560.822 932.102 559.948 932.656 559.209C933.217 558.464 933.994 557.888 934.989 557.484C935.99 557.072 937.144 556.866 938.451 556.866C940.369 556.866 941.878 557.274 942.979 558.091C944.087 558.908 944.772 560.012 945.035 561.404ZM956.738 557.079V560.062H947.331V557.079H956.738ZM949.653 553.158H953.51V568.521C953.51 569.039 953.588 569.437 953.744 569.714C953.907 569.984 954.12 570.168 954.383 570.268C954.646 570.367 954.937 570.417 955.257 570.417C955.498 570.417 955.718 570.399 955.917 570.364C956.123 570.328 956.28 570.296 956.386 570.268L957.036 573.283C956.83 573.354 956.535 573.432 956.152 573.517C955.775 573.602 955.314 573.652 954.767 573.666C953.801 573.695 952.931 573.549 952.157 573.229C951.383 572.903 950.768 572.398 950.314 571.717C949.866 571.035 949.646 570.182 949.653 569.16V553.158ZM964.672 573.773C963.635 573.773 962.701 573.588 961.87 573.219C961.046 572.842 960.393 572.288 959.91 571.557C959.434 570.825 959.196 569.923 959.196 568.851C959.196 567.927 959.366 567.164 959.707 566.56C960.048 565.957 960.513 565.474 961.103 565.111C961.692 564.749 962.356 564.476 963.095 564.291C963.841 564.099 964.611 563.961 965.407 563.876C966.366 563.776 967.143 563.687 967.74 563.609C968.337 563.524 968.77 563.396 969.04 563.226C969.317 563.048 969.455 562.775 969.455 562.405V562.342C969.455 561.539 969.217 560.918 968.741 560.477C968.266 560.037 967.58 559.817 966.685 559.817C965.741 559.817 964.991 560.023 964.437 560.435C963.891 560.847 963.521 561.333 963.329 561.894L959.729 561.383C960.013 560.388 960.481 559.557 961.135 558.89C961.788 558.215 962.587 557.711 963.532 557.377C964.476 557.036 965.521 556.866 966.664 556.866C967.452 556.866 968.237 556.958 969.018 557.143C969.8 557.327 970.513 557.633 971.16 558.059C971.806 558.478 972.324 559.05 972.715 559.774C973.113 560.498 973.312 561.404 973.312 562.491V573.442H969.604V571.195H969.476C969.242 571.649 968.912 572.075 968.486 572.473C968.067 572.864 967.538 573.18 966.898 573.421C966.266 573.655 965.524 573.773 964.672 573.773ZM965.673 570.939C966.447 570.939 967.119 570.786 967.687 570.481C968.255 570.168 968.692 569.756 968.997 569.245C969.31 568.734 969.466 568.176 969.466 567.572V565.644C969.345 565.744 969.139 565.836 968.848 565.921C968.564 566.006 968.244 566.081 967.889 566.145C967.534 566.209 967.182 566.266 966.834 566.315C966.486 566.365 966.185 566.408 965.929 566.443C965.354 566.521 964.839 566.649 964.384 566.827C963.93 567.004 963.571 567.253 963.308 567.572C963.045 567.885 962.914 568.29 962.914 568.787C962.914 569.497 963.173 570.033 963.692 570.396C964.21 570.758 964.871 570.939 965.673 570.939ZM979.565 573.677C978.919 573.677 978.365 573.449 977.903 572.995C977.442 572.54 977.214 571.986 977.222 571.333C977.214 570.694 977.442 570.147 977.903 569.692C978.365 569.238 978.919 569.011 979.565 569.011C980.19 569.011 980.734 569.238 981.195 569.692C981.664 570.147 981.902 570.694 981.909 571.333C981.902 571.766 981.788 572.16 981.568 572.516C981.355 572.871 981.071 573.155 980.716 573.368C980.368 573.574 979.984 573.677 979.565 573.677ZM988.266 573.677C987.62 573.677 987.066 573.449 986.604 572.995C986.143 572.54 985.916 571.986 985.923 571.333C985.916 570.694 986.143 570.147 986.604 569.692C987.066 569.238 987.62 569.011 988.266 569.011C988.891 569.011 989.435 569.238 989.896 569.692C990.365 570.147 990.603 570.694 990.61 571.333C990.603 571.766 990.489 572.16 990.269 572.516C990.056 572.871 989.772 573.155 989.417 573.368C989.069 573.574 988.685 573.677 988.266 573.677ZM996.968 573.677C996.321 573.677 995.767 573.449 995.306 572.995C994.844 572.54 994.617 571.986 994.624 571.333C994.617 570.694 994.844 570.147 995.306 569.692C995.767 569.238 996.321 569.011 996.968 569.011C997.593 569.011 998.136 569.238 998.598 569.692C999.066 570.147 999.304 570.694 999.311 571.333C999.304 571.766 999.191 572.16 998.97 572.516C998.757 572.871 998.473 573.155 998.118 573.368C997.77 573.574 997.387 573.677 996.968 573.677Z" fill="#5A7DA0"/>
<path d="M1058.57 389.442C1055.64 453.365 1001.88 503.686 936.619 503.686H663.121C624.413 503.686 597.818 465.39 612.148 430.136C631.25 381.968 693.494 417.611 664.975 377.104C637.332 337.831 620.873 289.905 644.463 266.82C699.071 213.385 763.532 284.254 798.965 273.987C810.266 270.487 855.139 242.817 872.589 237.859C983.787 198.583 1068.11 291.534 1058.57 389.442Z" fill="#E3F0FF"/>
<path d="M630.664 373.874C633.686 368.043 606.948 338.324 594.668 345.899C582.389 353.475 581.113 368.849 599.423 374.429C616.729 379.702 627.644 379.705 630.664 373.874Z" fill="#E3F0FF"/>
<path d="M690.519 249.15L686.772 228.125C686.686 227.657 686.206 227.339 685.695 227.415C685.187 227.494 684.841 227.936 684.924 228.404L688.586 248.941L672.776 261.069C672.378 261.373 672.323 261.917 672.653 262.283C672.84 262.486 673.106 262.593 673.375 262.593C673.586 262.593 673.798 262.528 673.972 262.393L690.192 249.95C690.449 249.756 690.571 249.449 690.519 249.15Z" fill="#C7DEFF"/>
<path d="M715.441 259.83L693.668 252.632C693.356 252.53 693.008 252.587 692.754 252.781L676.534 265.224C676.136 265.528 676.081 266.072 676.411 266.439C676.598 266.641 676.864 266.749 677.13 266.749C677.341 266.749 677.555 266.684 677.73 266.548L693.54 254.421L714.808 261.453C715.294 261.614 715.83 261.38 716.004 260.932C716.179 260.483 715.928 259.99 715.441 259.83Z" fill="#C7DEFF"/>
<path d="M683.511 247.771C683.588 248.193 683.982 248.492 684.432 248.492C684.484 248.492 684.533 248.489 684.585 248.481C685.096 248.405 685.442 247.962 685.356 247.492L682.49 231.408C682.407 230.94 681.924 230.622 681.416 230.698C680.905 230.777 680.559 231.219 680.645 231.687L683.511 247.771Z" fill="#C7DEFF"/>
<path d="M711.156 263.112L694.499 257.605C694.013 257.445 693.481 257.679 693.303 258.127C693.129 258.575 693.383 259.068 693.869 259.229L710.526 264.735C710.63 264.769 710.737 264.786 710.841 264.786C711.224 264.786 711.585 264.566 711.722 264.214C711.897 263.766 711.643 263.273 711.156 263.112Z" fill="#C7DEFF"/>
<path d="M900.15 381.078L877.509 376.721C877.001 376.622 876.505 376.921 876.401 377.389C876.294 377.854 876.619 378.311 877.123 378.406L899.245 382.665L905.825 400.62C905.99 401.071 906.523 401.314 907.012 401.161C907.285 401.074 907.489 400.885 907.584 400.654C907.661 400.474 907.67 400.268 907.6 400.068L900.845 381.647C900.738 381.357 900.475 381.143 900.15 381.078Z" fill="#C7DEFF"/>
<path d="M919.953 363.521L904.815 379.63C904.598 379.861 904.531 380.18 904.635 380.47L911.39 398.89C911.555 399.341 912.087 399.584 912.577 399.432C912.849 399.347 913.054 399.155 913.149 398.924C913.225 398.744 913.234 398.538 913.164 398.338L906.581 380.385L921.366 364.648C921.706 364.287 921.663 363.746 921.271 363.433C920.883 363.123 920.292 363.163 919.953 363.521Z" fill="#C7DEFF"/>
<path d="M921.733 368.382L910.151 380.706C909.811 381.067 909.854 381.611 910.246 381.921C910.637 382.234 911.228 382.194 911.564 381.834L923.146 369.51C923.22 369.434 923.275 369.346 923.312 369.256C923.449 368.926 923.357 368.54 923.052 368.295C922.66 367.985 922.07 368.022 921.733 368.382Z" fill="#C7DEFF"/>
<path d="M780.229 454.959C780.229 454.959 672.806 191.207 595.832 259.038C581.102 276.134 598.368 305.343 630.087 339.216C661.805 373.087 754.063 461.139 767.135 475.11L780.229 454.959Z" fill="#5A789F"/>
<path d="M780.228 454.958C780.228 454.958 713.747 291.735 647.909 255.123C649.365 258.617 650.258 262.391 648.854 264.787C645.636 270.277 631.123 272.793 626.974 281.902C623.425 289.7 629.064 319.803 616.331 323.692C620.516 328.734 625.123 333.917 630.085 339.215C661.804 373.086 754.062 461.139 767.134 475.109L780.228 454.958Z" fill="#5A789F"/>
<path d="M608.214 261.17C615.688 266.714 622.843 272.624 629.87 278.641C670.843 314.115 707.144 354.392 736.323 398.713C741.934 407.289 747.407 416.288 752.366 425.202C754.452 428.917 756.781 433.324 758.739 437.101C760.005 439.604 761.798 443.191 763 445.722L763.829 447.453L764.634 449.197L765.438 450.939L766.237 452.683C756.658 434.519 746 416.885 734.31 399.857C722.636 382.817 710.017 366.347 696.648 350.404C676.579 326.496 654.877 303.735 631.837 282.206C624.153 275.045 616.303 267.943 608.214 261.17Z" fill="#5AA5D1"/>
<path d="M619.458 386.445C619.458 386.445 598.741 378.658 584.714 393.919C572.887 406.79 591.873 441.732 611.48 458.645C611.48 458.645 592.246 469.743 591.594 482.53C590.943 495.314 613.578 508.808 645.618 512.624L648.855 404.198L619.458 386.445Z" fill="#5A789F"/>
<path d="M617.1 385.731C619.036 396.128 620.447 412.268 623.436 429.826C628.132 457.418 638.885 497.469 602.266 498.376C611.826 505.013 627.159 510.425 645.618 512.623L648.855 404.197L619.459 386.444C619.459 386.444 618.593 386.117 617.1 385.731Z" fill="#5A789F"/>
<path d="M594.571 396.032C609.968 410.524 624.815 425.591 639.435 440.748C643.681 445.13 648.193 449.699 652.32 454.163C660.259 462.818 667.929 471.76 675.096 480.971C675.47 481.461 675.846 481.946 676.216 482.439L675.984 482.617C665.233 472.358 654.844 461.507 644.951 450.544C641.827 447.027 638.208 443.002 635.032 439.524C625.01 428.612 614.881 417.694 604.66 406.942C601.246 403.351 597.82 399.769 594.354 396.224L594.571 396.032Z" fill="#5AA5D1"/>
<path d="M604.503 482.391C612.353 482.875 620.273 482.537 628.059 481.548C631.935 481.046 635.781 480.39 639.546 479.414C642.661 478.603 645.711 477.608 648.758 476.613C652.105 475.514 655.4 474.274 658.606 472.856C660.686 471.935 662.684 470.945 664.721 469.922L664.908 470.139C663.901 471.151 662.763 472.123 661.61 472.992C656.513 476.796 650.45 479.519 644.096 480.993C633.737 483.34 622.99 484.135 612.359 483.47C609.713 483.301 607.079 483.061 604.463 482.664L604.503 482.391Z" fill="#5AA5D1"/>
<mask id="mask0_1949_925" style="mask-type:luminance" maskUnits="userSpaceOnUse" x="636" y="275" width="152" height="240">
<path d="M636.284 275.366H787.436V514.291H636.284V275.366Z" fill="white"/>
</mask>
<g mask="url(#mask0_1949_925)">
<path d="M775.367 514.26H648.444C642.041 514.26 636.85 509.48 636.85 503.582V286.433C636.85 280.535 642.041 275.752 648.444 275.752H775.367C781.773 275.752 786.964 280.535 786.964 286.433V503.582C786.964 509.48 781.773 514.26 775.367 514.26Z" fill="#303C72"/>
</g>
<path d="M770.976 508.012H652.831C647.514 508.012 643.203 504.041 643.203 499.146V290.867C643.203 285.971 647.514 282.003 652.831 282.003H770.976C776.293 282.003 780.601 285.971 780.601 290.867V499.146C780.601 504.041 776.293 508.012 770.976 508.012Z" fill="#D4EBFF"/>
<path d="M770.976 282.003H652.831C647.514 282.003 643.203 285.971 643.203 290.867V301.762H780.601V290.867C780.601 285.971 776.293 282.003 770.976 282.003Z" fill="#8CCBFF"/>
<path d="M739.989 388.043C739.989 388.043 753.679 379.278 764.386 395.7C775.097 412.125 786.915 444.722 790.259 454.854C793.602 464.983 780.735 470.363 772.778 462.632C764.818 454.902 745.043 419.822 740.518 411.192C735.993 402.563 733.234 392.921 739.989 388.043Z" fill="#9E5959"/>
<path d="M776.13 449.23L787.146 445.921C786.103 443.049 783.558 436.345 783.558 436.345C783.558 436.345 777.445 443.526 776.13 449.23Z" fill="#914D4D"/>
<path d="M763.298 449.96C763.246 446.601 763.213 441.257 763.372 435.829C763.632 426.892 762.102 406.719 762.102 406.719L749.223 426.813C753.53 434.29 758.67 442.895 763.298 449.96Z" fill="#914D4D"/>
<path d="M741.802 385.706C741.802 385.706 730.146 390.418 735.992 404.482C741.839 418.548 760.613 447.796 766.233 456.685C771.853 465.574 779.899 469.799 786.023 466.806C792.148 463.81 792.497 458.599 790.056 450.609C787.611 442.622 771.608 406.046 767.579 398.569C763.547 391.095 753.286 379.982 741.802 385.706Z" fill="white"/>
<path d="M782.472 431.519C778.902 435.833 774.417 446.376 774.417 446.376L786.638 441.535C785.427 438.542 783.998 435.112 782.472 431.519Z" fill="#D4EBFF"/>
<path d="M766.178 456.593C766.294 450.209 766.487 435.926 766.113 427.885C765.627 417.308 763.403 404.482 763.403 404.482L754.58 438.082C759.432 445.996 763.871 452.946 766.178 456.593Z" fill="#D4EBFF"/>
<path d="M816.579 408.917C816.579 408.917 825.937 412.133 830.96 422.594L826.457 426.004L813.875 414.269L816.579 408.917Z" fill="#ABD3FC"/>
<path d="M778.489 465.783C782.742 467.139 787.465 465.933 790.488 462.861C798.683 454.527 825.678 426.795 831.246 417.517C837.833 406.545 829.181 404.958 821.132 411.765C813.086 418.571 799.922 428.878 793.789 433.626C783.803 441.36 774.063 447.118 770.936 452.974C768.746 457.072 772.123 463.754 778.489 465.783Z" fill="#9E5959"/>
<path d="M823.493 427.631C819.305 432.231 811.188 423.533 813.975 419.258C814.021 419.19 822.339 409.681 823.459 406.105C824.637 402.337 824.062 400.51 828.271 397.168C831.854 394.327 834.246 392.397 836.048 392.661C837.957 392.943 836.308 395.291 834.368 396.869C832.27 398.58 829.1 403.625 832.095 403.487C834.482 403.374 842.139 401.908 844.452 400.956C848.221 399.403 857.652 390.982 859.874 395.423C859.874 395.423 862.318 395.049 862.153 397.653C862.153 397.653 865.108 398.524 862.422 401.739C862.422 401.739 864.144 403.177 862.425 405.025C861.259 406.28 856.16 410.558 852.776 412.967C849.396 415.377 835.711 416.95 830.869 419.644C829.327 420.504 824.45 426.58 823.493 427.631Z" fill="#F6AF9A"/>
<path d="M830.879 402.652C831.099 405.329 832.075 407.499 831.111 410.188C833.494 408.066 831.399 404.912 830.879 402.652Z" fill="#E57E73"/>
<path d="M862.421 401.739C861.008 401.527 859.915 402.59 858.894 403.306C855.712 405.515 852.717 408.054 849.383 410.007C853.344 409.131 856 405.777 859.117 403.548C860.016 402.705 861.243 401.764 862.421 401.739Z" fill="#E57E73"/>
<path d="M862.154 397.653C859.168 397.901 857.005 400.077 854.686 401.593C852.337 403.081 850.247 405.279 847.886 406.488C849.36 406.327 850.618 405.431 851.728 404.577C855.115 402.275 858.128 398.653 862.154 397.653Z" fill="#E57E73"/>
<path d="M859.874 395.424C854.453 396.159 850.898 400.764 846.41 403.168C851.58 401.942 854.658 396.365 859.874 395.424Z" fill="#E57E73"/>
<path d="M847.305 410.934C841.602 409.248 833.936 408.121 828.965 411.895C834.429 408.941 841.336 410.131 847.305 410.934Z" fill="#EA9A88"/>
<path d="M846.046 403.028C847.08 403.853 847.41 405.13 847.735 406.305C848.769 407.201 848.974 408.661 849.234 409.896C849.76 410.251 849.772 410.953 849.778 411.499C849.634 410.941 849.411 410.341 848.879 410.062C848.447 408.968 848.172 407.526 847.245 406.72C846.673 405.677 846.701 404.2 845.749 403.295C845.453 402.723 845.272 402.047 844.752 401.579C845.348 401.9 845.743 402.461 846.046 403.028Z" fill="#EA9A88"/>
<path d="M816.579 408.917C816.579 408.917 820.195 419.782 830.961 422.595C830.961 422.595 800.439 457.474 792.497 463.548C784.558 469.624 772.627 466.885 768.393 457.922C764.315 449.29 816.579 408.917 816.579 408.917Z" fill="white"/>
<path d="M727.816 486.1C714.49 490.13 709.087 499.321 707.472 508.012H758.463C757.396 502.384 756.193 498.14 754.85 495.95C746.422 482.194 727.816 486.1 727.816 486.1Z" fill="#F6AF9A"/>
<path d="M728.262 480.04C712.761 482.898 704.859 492.601 704.336 508.012H762.318C762.229 507.429 762.141 506.862 762.052 506.312C757.741 479.803 728.262 480.04 728.262 480.04Z" fill="#384682"/>
<path d="M689.636 446.781C691.508 466.295 685.842 478.09 683.416 489.955C682.138 496.214 681.795 502.395 682.682 508.012H751.485C755.713 498.982 754.969 490.084 755.107 485.271C755.343 477.168 756.052 463.637 756.052 463.637C758.558 427.853 687.767 427.264 689.636 446.781Z" fill="#F6AF9A"/>
<path d="M685.104 479.343C685.104 479.343 678.444 494.509 680.904 508.011H752.695C756.602 495.743 756.311 480.039 756.311 480.039C747.161 481.398 685.104 479.343 685.104 479.343Z" fill="#384682"/>
<path d="M680.166 508.012H730.852C730.613 486.111 710.927 484.639 710.927 484.639C695.459 483.14 683.993 487.458 680.166 508.012Z" fill="#F6AF9A"/>
<path d="M677.551 507.961C677.548 507.978 677.548 507.995 677.545 508.012H736.273C735.949 492.331 725.08 482.199 706.905 480.063C706.905 480.063 680.904 478.242 677.551 507.961Z" fill="#384682"/>
<path d="M704.204 378.435C716.567 376.524 726.433 378.085 738.07 381.225C745.856 383.325 754.198 385.348 757.967 390.201C764.585 398.721 761.568 419.768 759.876 429.511C758.185 439.251 756.903 459.622 755.976 464.856C755.049 470.089 729.841 478.305 714.41 476.166C702.58 474.525 691.753 469.185 690.211 459.205C688.397 447.436 685.307 430.563 681.722 420.309C678.136 410.059 672.504 388.711 690.266 381.566C693.598 380.227 700.949 378.937 704.204 378.435Z" fill="#F6AF9A"/>
<path d="M733.374 367.584C733.374 367.584 732.973 378.217 735.534 383.09C738.091 387.96 729.333 390.99 723.639 390.945C717.946 390.9 709.203 387.963 708.181 381.647C707.162 375.329 711.357 377.719 710.564 360.547C709.946 347.117 734.968 354.352 733.374 367.584Z" fill="#F6AF9A"/>
<path d="M734.732 381.1C733.064 375.805 733.373 367.584 733.373 367.584C734.637 357.077 719.124 350.353 712.99 354.755C712.739 356.252 712.623 357.937 712.672 359.839C712.697 360.829 723.141 379.401 734.732 381.1Z" fill="#EA9A88"/>
<path d="M761.088 482.231C760.25 476.419 761.088 447.943 761.207 443.859C761.327 439.773 763.618 418.359 763.373 411.959C763.125 405.556 761.192 392.73 759.463 388.877C757.732 385.027 744.684 382.085 737.853 381.101L734.485 380.228C734.485 380.228 735.565 383.827 729.804 384.74C721.324 386.084 712.103 381.321 708.285 377.919C708.285 377.919 706.037 377.654 704.513 377.917C704.513 377.917 689.761 380.092 685.897 381.524C682.034 382.956 676.475 389.221 676.236 399.928C675.995 410.634 681.868 430.642 683.545 440.892C685.224 451.145 684.145 468.694 683.426 474.765C682.707 480.836 675.756 500.153 675.637 507.768C675.637 507.768 676.518 507.861 678.075 508.013H746.514C756.199 507.1 763.367 506.302 763.964 505.891C763.964 505.891 762.177 500.925 762.052 496.841C761.926 492.757 761.926 488.042 761.088 482.231Z" fill="#85B9F1"/>
<path d="M728.888 386.755C732.645 386.715 738.002 394.049 738.002 394.049C739.684 391.247 741.254 385.289 742.071 381.823C740.532 381.521 739.088 381.279 737.852 381.101L734.484 380.228C734.484 380.228 735.564 383.827 729.803 384.74C721.323 386.084 712.102 381.321 708.284 377.919C708.284 377.919 706.036 377.654 704.512 377.917C704.512 377.917 703.613 378.049 702.202 378.272L700.26 381.031L723.877 398.58C723.877 398.58 723.807 397.419 724.639 393.513C725.979 387.209 728.888 386.755 728.888 386.755Z" fill="#75AEEB"/>
<path d="M697.52 437.839C699.413 424.508 700.151 400.832 700.151 400.832C700.151 400.832 687.234 405.516 676.747 407.342C678.185 418.271 682.205 432.698 683.545 440.891C685.224 451.141 684.145 468.694 683.426 474.764C682.707 480.835 675.756 500.152 675.637 507.767C675.637 507.767 676.518 507.86 678.075 508.012H700.38C687.556 501.598 688.287 482.802 689.979 472.42C691.967 460.194 696.088 447.926 697.52 437.839Z" fill="#75AEEB"/>
<path d="M729.421 388.775C731.18 388.716 731.563 385.943 731.633 384.292C731.116 384.475 730.51 384.627 729.801 384.74C728.345 384.971 726.864 385.021 725.396 384.931C726.029 386.23 727.54 388.837 729.421 388.775Z" fill="#384682"/>
<path d="M727.954 387.188C727.954 387.188 737.187 426.098 738.001 434.665L743.737 444.718L746.151 431.517C746.151 431.517 736.56 400.026 730.227 386.796L727.954 387.188Z" fill="#384682"/>
<path d="M728.479 384.9C728.479 384.9 733.236 382.741 734.481 380.227C734.481 380.227 736.534 380.168 737.384 380.557C737.384 380.557 738.77 387.208 737.384 391.452C737.384 391.452 732.679 385.585 728.975 385.88C725.261 386.179 722.847 394.211 722.847 394.211C722.847 394.211 709.656 384.705 708.022 377.944L708.396 377.55C708.396 377.55 719.663 383.623 728.479 384.9Z" fill="#96C3F2"/>
<path d="M753.108 329.774C753.108 329.774 754.94 337.812 752.376 347.241L746.714 329.456L753.108 329.774Z" fill="#8C4949"/>
<path d="M729.805 314.329C729.805 314.329 748.169 315.324 751.137 330.368C754.104 345.412 752.247 372.626 741.58 375.605C731.845 378.324 716.824 369.041 710.501 359.723C703.847 349.918 701.485 337.419 705.401 327.967C708.831 319.692 715.365 313.613 729.805 314.329Z" fill="#F6AF9A"/>
<path d="M721.456 331.921C721.456 331.921 719.581 334.483 720.098 338.352C720.434 340.872 719.385 341.779 716.537 345.452C713.685 349.124 714.346 349.338 713.508 353.385C712.67 357.43 710.623 367.347 710.568 368.139C710.51 368.934 707.87 366.149 705.893 360.631C703.92 355.113 699.726 344.406 699.365 334.582C699.007 324.76 708.833 314.825 718.901 313.83C718.901 313.83 728.489 309.856 737.719 313.391C746.946 316.922 753.743 322.296 753.352 331.143L751.339 331.205C751.339 331.205 749.806 330.168 749.317 329.897C747.083 328.663 745.266 329.275 743.238 330.492C743.238 330.492 735.345 334.148 731.151 333.708C731.151 333.708 726.363 335.072 721.456 331.921Z" fill="#8C4949"/>
<path d="M713.243 322.962C713.243 322.962 712.053 330.222 720.405 334.226C720.836 332.772 721.454 331.921 721.454 331.921C721.454 331.921 714.213 327.784 713.243 322.962Z" fill="#7D4141"/>
<path d="M718.093 317.069C718.019 320.6 718.937 324.362 721.773 326.868C725.15 329.799 731.443 330.391 735.934 330.284C735.386 330.478 734.817 330.625 734.242 330.74C729.953 331.563 724.82 331.171 721.28 328.587C717.695 325.893 716.615 321.006 718.093 317.069Z" fill="#7D4141"/>
<path d="M722.744 315.192C725.219 314.431 727.844 314.166 730.45 314.178C735.721 314.223 741.157 315.761 745.024 319.16C746.957 320.846 748.429 322.939 749.273 325.194C748.514 324.225 747.737 323.297 746.881 322.446C744.372 319.913 741.157 318.022 737.645 316.906C732.876 315.378 727.773 315.04 722.744 315.192Z" fill="#7D4141"/>
<path d="M720.709 317.069C725.643 317.401 730.48 318.599 735.075 320.273C738.605 321.575 742.022 323.401 744.577 326.036C744.965 326.442 745.329 326.873 745.626 327.338C745.406 327.161 745.179 326.995 744.95 326.837C744.775 326.716 744.43 326.485 744.252 326.369C741.692 324.729 738.89 323.43 736.014 322.336C730.963 320.439 725.812 318.898 720.709 317.069Z" fill="#7D4141"/>
<path d="M723.909 321.265C727.14 324.069 731.325 325.521 735.448 326.862C736.846 327.313 738.272 327.716 739.713 328.232C738.945 328.311 738.18 328.319 737.409 328.297C733.561 328.125 729.67 326.992 726.669 324.701C725.5 323.765 724.389 322.643 723.909 321.265Z" fill="#7D4141"/>
<path d="M717.302 350.226C717.302 350.226 717.262 342.301 712.132 342.247C706.999 342.194 707.027 348.828 710.337 353.131C712.187 355.541 717.324 358.576 717.302 350.226Z" fill="#F6AF9A"/>
<path d="M711.655 347.591C712.664 347.645 713.46 348.155 714.016 348.673C713.873 347.763 713.466 346.884 712.533 346.337C712.291 346.196 712.221 345.903 712.374 345.68C712.527 345.458 712.842 345.393 713.086 345.534C716.418 347.481 714.68 352.241 714.604 352.441C714.512 352.689 714.218 352.822 713.949 352.734C713.943 352.734 713.94 352.732 713.934 352.732C713.674 352.641 713.536 352.377 713.628 352.131C713.634 352.112 713.931 351.3 714.041 350.263C714.035 350.254 714.022 350.246 714.016 350.235C714.007 350.221 713.062 348.617 711.597 348.541C711.312 348.527 711.095 348.301 711.11 348.039C711.125 347.777 711.37 347.577 711.655 347.591Z" fill="#E57E73"/>
<path d="M673.093 508.011H765.525C764.201 495.185 762.555 476.164 762.163 467.484C761.637 455.785 763.913 424.395 763.962 414.607C764.011 404.819 760.939 391.13 760.939 391.13C760.532 390.006 759.676 386.705 752.022 384.079C744.367 381.455 737.585 381.029 737.585 381.029C744.19 396.724 742.321 437.009 742.321 437.009C742.321 437.009 736.343 422.041 727.954 405.628C720.594 391.226 703.906 377.915 703.906 377.915C696.028 378.152 682.304 381.153 682.304 381.153C668.62 394.977 677.728 423.496 680.013 438.684C682.295 453.871 680.233 469.849 674.182 501.442C673.803 503.42 673.438 505.624 673.093 508.011Z" fill="white"/>
<path d="M742.438 433.618L742.322 437.863C747.877 402.631 744.797 384.016 744.286 382.001C740.324 381.203 737.586 381.031 737.586 381.031C743.028 393.962 742.716 423.588 742.438 433.618Z" fill="#ABD3FC"/>
<path d="M742.078 436.404C740.876 433.453 735.357 420.102 727.956 405.628C720.596 391.226 703.908 377.915 703.908 377.915C701.573 377.985 698.725 378.298 695.874 378.704C695.874 378.704 735.938 419.282 742.323 437.861L742.078 436.404Z" fill="#ABD3FC"/>
<path d="M740.385 508.013H741.608C742.823 484.294 743.68 460.575 742.321 437.011C743.049 460.64 741.651 484.415 740.385 508.013Z" fill="#ABD3FC"/>
<path d="M680.013 438.685C682.295 453.873 680.233 469.85 674.182 501.443C673.803 503.421 673.438 505.625 673.093 508.012H683.565L685.486 489.758C685.988 484.632 687.906 465.149 688.539 459.498C689.273 452.973 690.739 452.072 694.404 433.947C698.069 415.822 698.944 400.122 698.944 400.122L676.314 419.047C677.538 426.388 679.205 433.327 680.013 438.685Z" fill="#D4EBFF"/>
<path d="M735.936 380.266C735.936 380.266 740.824 398.07 742.32 437.01C742.32 437.01 744.731 413.709 744.122 398.743C743.51 383.781 743.057 381.766 743.057 381.766C743.057 381.766 737.949 379.88 735.936 380.266Z" fill="white"/>
<path d="M742.322 437.011C727.956 405.629 697.183 378.525 697.183 378.525C700.269 377.096 708.398 377.55 708.398 377.55C708.398 377.55 720.378 390.08 728.733 405.045C739.985 425.202 742.322 437.011 742.322 437.011Z" fill="white"/>
<path d="M683.234 381.77C683.234 381.77 699.855 382.998 696.811 401.952C693.767 420.902 680.432 453 676.035 462.785C671.639 472.567 658.549 469.374 657.729 458.746C656.906 448.121 665.236 409.282 667.69 399.968C670.14 390.656 674.653 381.592 683.234 381.77Z" fill="#F6AF9A"/>
<path d="M685.896 381.523C685.896 381.523 673.698 376.918 666.919 398.855C660.137 420.793 655.741 449.991 655.557 459.779C655.374 469.567 665.796 474.4 672.414 470.748C679.034 467.098 686.18 444.371 690.475 432.794C697.181 414.72 707.623 385.959 685.896 381.523Z" fill="white"/>
<path d="M657.593 457.802C657.593 457.802 657.48 488.936 658.985 508.013H673.348C674.409 499.372 675.743 489.908 676.502 484.714C678.243 472.807 679.824 463.323 680.011 455.742C680.256 445.835 658.33 443.755 657.593 457.802Z" fill="#F6AF9A"/>
<path d="M669.444 442.058C669.444 442.058 656.837 443.073 655.555 457.585C654.591 468.511 654.453 491.681 654.915 508.013H678.606C680.61 488.321 684.15 453.199 684.223 449.961C684.327 445.435 675.636 441.047 669.444 442.058Z" fill="white"/>
<path d="M779.851 467.576V499.147C779.851 503.653 775.868 507.32 770.977 507.32H652.831C647.936 507.32 643.956 503.653 643.956 499.147V290.867C643.956 286.361 647.936 282.694 652.831 282.694H770.977C775.868 282.694 779.851 286.361 779.851 290.867V425.411C780.283 426.409 780.711 427.401 781.133 428.39C781.271 428.263 781.354 428.091 781.354 427.9V290.867C781.354 285.597 776.697 281.311 770.977 281.311H652.831C647.107 281.311 642.454 285.597 642.454 290.867V499.147C642.454 504.417 647.107 508.704 652.831 508.704H770.977C776.697 508.704 781.354 504.417 781.354 499.147V467.748C780.858 467.725 780.356 467.669 779.851 467.576Z" fill="white"/>
<path d="M738.54 286.431H685.269C682.002 286.431 679.353 283.99 679.353 280.983V279.844H744.454V280.983C744.454 283.99 741.807 286.431 738.54 286.431Z" fill="#303C72"/>
<path d="M1067.26 329.925C1068.99 328.803 1070.89 327.943 1072.91 327.366C1081.23 324.976 1102.77 321.03 1119.09 337.681C1136.51 355.45 1111.3 405.833 1084.31 430.651C1084.31 430.651 1112.15 445.6 1113.7 463.716C1115.26 481.832 1083.8 501.932 1038.53 508.688L1028.57 354.951L1067.26 329.925Z" fill="#5A789F"/>
<path d="M1072.73 327.418C1070.5 342.254 1069.29 365.217 1065.91 390.258C1060.61 429.613 1047.33 486.904 1099.35 486.658C1086.11 496.475 1064.61 504.797 1038.53 508.689L1028.57 354.953L1067.26 329.923C1068.92 328.85 1070.74 328.001 1072.67 327.438L1072.73 327.418Z" fill="#5A789F"/>
<path d="M1105.48 341.318C1085.25 363.239 1065.57 385.679 1046.12 408.197C1040.6 414.623 1034.63 421.767 1029.09 428.182C1017.67 441.304 1005.86 454.651 993.896 467.342L993.657 467.173C994.177 466.471 994.703 465.775 995.227 465.079C997.858 461.61 1000.55 458.132 1003.24 454.719C1010.8 445.165 1018.65 435.639 1026.64 426.384C1034.61 417.21 1043.08 407.972 1051.2 398.905C1061.72 387.22 1072.52 375.451 1083.31 363.983C1088.05 358.936 1093.06 353.671 1097.87 348.691C1100.32 346.163 1102.77 343.635 1105.26 341.132L1105.48 341.318Z" fill="#5AA5D1"/>
<path d="M1095.44 464.393C1077.81 467.163 1059.61 466.935 1042.06 463.73C1040.23 463.389 1038.32 462.989 1036.52 462.55C1028.74 460.608 1021.24 457.502 1014.62 453.252C1013.72 452.674 1012.63 451.927 1011.78 451.29C1010.86 450.617 1009.95 449.893 1009.09 449.163L1009.27 448.94C1010.91 449.783 1012.53 450.631 1014.19 451.414C1015.78 452.175 1017.56 452.981 1019.19 453.666C1023.8 455.622 1028.57 457.257 1033.4 458.677C1038.23 460.106 1043.12 461.417 1048.1 462.366C1061.8 464.866 1075.89 465.464 1089.81 464.601C1091.67 464.483 1093.54 464.336 1095.39 464.119L1095.44 464.393Z" fill="#5AA5D1"/>
<mask id="mask1_1949_925" style="mask-type:luminance" maskUnits="userSpaceOnUse" x="904" y="275" width="152" height="240">
<path d="M904.13 275.366H1055.28V514.292H904.13V275.366Z" fill="white"/>
</mask>
<g mask="url(#mask1_1949_925)">
<path d="M1043.13 514.26H916.212C909.809 514.26 904.614 509.48 904.614 503.581V286.433C904.614 280.534 909.809 275.751 916.212 275.751H1043.13C1049.54 275.751 1054.73 280.534 1054.73 286.433V503.581C1054.73 509.48 1049.54 514.26 1043.13 514.26Z" fill="#303C72"/>
</g>
<path d="M1038.74 508.012H920.599C915.282 508.012 910.972 504.041 910.972 499.146V290.867C910.972 285.971 915.282 282.003 920.599 282.003H1038.74C1044.06 282.003 1048.37 285.971 1048.37 290.867V499.146C1048.37 504.041 1044.06 508.012 1038.74 508.012Z" fill="#D4EBFF"/>
<path d="M937.758 398.419C938.667 393.867 942.558 390.102 947.796 389.262C954.523 388.183 960.926 392.329 962.098 398.523C962.339 399.811 962.339 401.085 962.122 402.305C962.073 402.593 962.009 402.878 961.935 403.159C960.73 408.602 953.938 438.828 947.557 457.367C946.887 460.568 944.14 463.206 940.447 463.798C935.675 464.565 931.132 461.622 930.3 457.226C929.972 455.507 935.286 408.041 937.758 398.419Z" fill="#DE9681"/>
<path d="M949.345 400.113C949.345 400.113 954.576 395.675 962.12 398.648C962.341 399.894 962.331 401.125 962.123 402.306C962.074 402.594 962.01 402.878 961.937 403.16C960.897 407.855 955.699 431.005 950.192 449.175C949.694 446.943 948.164 444.713 947.405 444.158C946.215 443.287 943.116 440.7 941.596 436.154C940.507 432.905 942.581 420.738 944.958 414.34C947.335 407.94 949.345 400.113 949.345 400.113Z" fill="#EA9A88"/>
<path d="M953.22 388.775C953.22 388.775 948.533 387.881 942.167 390.471C940.261 391.247 938.438 394.282 937.199 396.635C932.466 405.64 928.862 432.994 928.862 432.994C928.862 432.994 941.197 443.588 954.123 446.987C954.123 446.987 963.747 408.348 963.554 400.254C963.362 392.162 956.952 389.606 953.22 388.775Z" fill="#FCF5F1"/>
<path d="M960.138 421.048L944.551 398.256C944.551 398.256 947.849 407.551 946.169 413.78C944.489 420.011 940.494 428.534 939.87 433.618C939.601 435.819 939.726 438.474 939.956 440.776C944.122 443.237 949.078 445.66 954.123 446.988C954.123 446.988 957.439 433.68 960.138 421.048Z" fill="#F0E2DA"/>
<path d="M942.692 446.795C937.95 445.154 932.657 447.364 930.877 451.732C930.525 452.592 930.338 453.468 930.299 454.336C930.296 454.336 926.885 496.62 925.967 508.011H936.732C937.846 503.113 939.941 494.233 942.187 486.524C946.02 473.366 947.336 461.537 947.941 456.089C948.113 455.371 948.18 454.649 948.146 453.939C947.99 450.653 946.244 448.023 942.692 446.795Z" fill="#DE9681"/>
<path d="M964.911 491.396C954.794 492.404 946.932 499.321 944.922 508.012H989.841C987.43 497.523 976.732 490.217 964.911 491.396Z" fill="#F6AF9A"/>
<path d="M943.597 508.012H990.795C987.356 489.042 971.824 489.025 969.87 489.051C969.87 489.051 948.29 487.785 943.597 508.012Z" fill="#8C4949"/>
<path d="M985.303 457.685C961.49 457.623 956.552 467.851 956.552 467.851C956.154 470.674 956.09 473.814 954.677 476.486C948.142 488.824 945.591 502.899 944.832 508.012H1024.91C1024.44 500.416 1021.43 493.227 1017.41 484.056C1014.88 478.287 1008.8 470.705 1008.71 464.756C1008.71 464.756 1006.28 457.738 985.303 457.685Z" fill="#F6AF9A"/>
<path d="M956.276 470.123C956.276 470.123 954.734 472.243 950.76 482.146C947.866 489.353 945.048 501.779 943.729 508.013H1025.94C1024.91 499.456 1022.14 490.072 1019.01 484.773C1015.26 478.437 1009.91 468.021 1009.91 468.021C999.322 470.504 956.276 470.123 956.276 470.123Z" fill="#8C4949"/>
<path d="M1019.01 484.773C1015.26 478.437 1009.91 468.021 1009.91 468.021C1002.76 469.698 980.788 470.07 967.287 470.132C961.16 473.92 959.395 478.254 959.395 478.254C959.395 478.254 975.844 483.406 996.626 483.73C1007.48 483.73 1011.75 483.73 1013.17 484.446C1014.17 484.948 1015.74 499.417 1016.59 508.013H1025.94C1024.91 499.456 1022.14 490.072 1019.01 484.773Z" fill="#824444"/>
<path d="M979.535 508.012H1024.32C1022.16 499.281 1014.1 492.446 1003.89 491.638C992.326 490.722 982.028 497.872 979.535 508.012Z" fill="#F6AF9A"/>
<path d="M977.541 508.013H1025.59C1023.53 497.926 1017.85 488.6 1001.71 489.065C1001.71 489.065 981.591 489.054 977.541 508.013Z" fill="#8C4949"/>
<path d="M1014.72 491.586C1015.42 496.591 1016.12 503.217 1016.59 508.013H1025.59C1024.22 501.323 1021.27 494.971 1014.72 491.586Z" fill="#824444"/>
<path d="M954.93 450.637C954.93 450.637 948.772 447.292 947.68 441.898C946.588 436.503 949.72 418.568 950.516 410.177C951.314 401.787 944.018 394.55 943.039 390.384C943.039 390.384 953.346 385.92 975.944 383.877C975.944 383.877 988.683 384.215 1000.92 386.267C1010.91 387.938 1016.11 392.974 1018.06 395.858C1020.02 398.741 1018.75 405.77 1016.03 414.354C1013.31 422.939 1010.32 430.376 1010.02 439.468C1009.87 443.859 1009.66 459.532 1009.95 469.793C1009.95 469.793 1011.14 476.242 986.952 477.62C964.619 478.894 956.328 469.892 956.328 469.892C955.487 461.451 954.93 450.637 954.93 450.637Z" fill="#DE9681"/>
<path d="M1013.55 421.964C1011.73 427.626 1010.22 433.147 1010.02 439.469C1009.92 442.529 1009.78 451.069 1009.81 459.439C1004.5 446.244 997.4 406.85 997.4 406.85L1013.55 421.964Z" fill="#E57E73"/>
<path d="M964.686 386.974L966.014 365.228C966.17 360.918 969.37 357.038 974.133 355.902C979.93 354.518 985.847 357.725 987.349 363.066C987.554 363.79 987.664 364.52 987.692 365.239L989.766 388.586C989.784 388.749 989.83 389.491 989.83 389.491C990.188 394.983 986.278 399.732 980.273 401.164C973.454 402.79 966.721 399.318 964.955 393.036C964.405 391.08 964.539 389.057 964.686 386.974Z" fill="#DE9681"/>
<path d="M966.015 365.228C966.171 360.918 969.371 357.038 974.134 355.902C979.931 354.518 985.848 357.725 987.35 363.066C987.555 363.79 987.665 364.52 987.693 365.239L987.8 366.454C982.96 376.481 974.149 383.944 964.764 385.751L966.015 365.228Z" fill="#D38475"/>
<path d="M956.847 386.577C956.847 386.577 958.42 393.124 969.647 394.812C980.874 396.5 1003.65 386.647 1003.65 386.647C1003.65 386.647 1008.54 386.585 1011.9 388.516C1011.9 388.516 1018.27 392.185 1019.34 396.689C1020.42 401.195 1018.99 409.171 1018.12 412.082C1017.26 414.991 1011.9 440.75 1011.9 447.204C1011.9 451.711 1014.73 464.531 1016.44 471.859C1017.13 474.801 1014.99 477.662 1011.76 478.116C1001.06 479.618 977.525 482.025 954.547 478.392C950.784 477.797 948.128 474.666 948.376 471.16C948.951 463.06 949.903 449.577 949.881 449.014C949.881 449.014 945.133 446.339 944.111 438.735C943.09 431.134 949.355 412.268 948.682 409.03C948.009 405.792 942.049 393.552 942.169 390.472C942.169 390.472 948.636 387.619 956.847 386.577Z" fill="#FCF5F1"/>
<path d="M984.857 480.258C996.207 480.029 1005.91 478.936 1011.77 478.116C1014.99 477.662 1017.13 474.798 1016.44 471.859C1014.73 464.531 1011.9 451.711 1011.9 447.204C1011.9 440.75 1017.25 414.991 1018.12 412.082C1018.32 411.417 1018.55 410.49 1018.76 409.402C1009.17 404.394 1000.21 403.267 995.858 408.607C995.858 408.607 998.079 432.786 998.045 437.433C998.012 442.078 987.038 449.222 970.53 447.652C970.53 447.652 985.817 452.816 999.777 446.243L1001.45 450.702H1007.72C1007.72 450.702 1008.54 460.135 1009.77 466.611C1010.98 473.054 998.183 477.605 984.857 480.258Z" fill="#F0E2DA"/>
<path d="M995.948 403.278C995.804 402.165 995.825 401.017 996.033 399.856C997.217 393.242 1004 388.763 1011.18 389.851C1017.14 390.756 1021.51 395.215 1022.14 400.485L1036.95 458.108C1037.27 459.235 1037.34 460.439 1037.12 461.662C1036.28 466.357 1031.47 469.536 1026.37 468.764C1022.07 468.11 1018.95 464.861 1018.57 461.045C1018.57 461.045 999.87 420.422 996.287 404.918C996.134 404.383 996.021 403.833 995.948 403.278Z" fill="#DE9681"/>
<path d="M1006.7 388.515C1006.7 388.515 993.254 390.186 995.243 405.662C997.228 421.137 1003.96 449.013 1003.96 449.013C1003.96 449.013 1027.96 449.154 1036.06 438.312C1036.06 438.312 1024.9 402.305 1021.84 396.08C1018.78 389.851 1011.46 386.858 1006.7 388.515Z" fill="#FCF5F1"/>
<path d="M1025.74 452.537C1021.97 453.354 1019.28 456.158 1018.66 459.462C1018.53 460.177 1018.49 460.916 1018.56 461.663C1018.4 467.243 1018.61 479.009 1020.62 492.774C1021.36 497.833 1021.98 503.348 1022.44 508.013H1034.48C1035.47 491.227 1037.2 461.654 1037.2 461.654C1037.29 460.769 1037.22 459.859 1036.99 458.951C1035.8 454.318 1030.77 451.446 1025.74 452.537Z" fill="#DE9681"/>
<path d="M976.508 319.912C976.508 319.912 997.721 320.639 997.256 343.749C996.806 365.949 976.563 384.11 959.22 379.449C953.707 377.642 950.076 366.081 949.883 348.704C949.688 331.326 957.788 319.303 976.508 319.912Z" fill="#DE9681"/>
<path d="M1004.66 374.334C1002.08 366.448 1004.18 351.409 1003.13 344.626C1003.1 344.448 1003.06 344.285 1003.01 344.133C1002.35 335.072 999.112 327.789 991.617 322.293C983.553 316.378 970.41 319.128 970.41 319.128C964.438 318.717 952.042 323.531 948.607 331.095C945.171 338.659 946.218 349.527 947.564 352.416C948.907 355.304 947.114 358.055 946.367 359.98C945.621 361.905 947.114 363.83 948.457 366.307C949.803 368.782 947.564 371.67 947.564 371.67C949.803 370.571 950.846 367.544 949.953 364.932C949.057 362.316 948.607 361.355 949.191 359.371C949.772 357.384 950.25 356.127 950.549 353.103C950.846 350.076 950.1 344.025 951.892 339.899C953.685 335.771 960.703 331.095 960.703 331.095C962.796 337.011 965.782 341.686 969.664 342.923C973.549 344.161 975.938 345.95 976.685 347.737C977.431 349.527 976.235 352.827 976.685 356.815C977.131 360.806 978.924 360.941 980.267 362.731C981.613 364.517 977.878 367.682 976.981 369.058C976.085 370.433 976.685 372.769 977.728 374.559C978.774 376.346 978.028 378.409 978.028 378.409C979.82 377.721 979.521 374.421 978.924 371.67C978.328 368.92 980.567 368.232 981.91 366.169C983.256 364.106 981.463 361.217 981.163 359.704C980.864 358.19 983.287 353.041 984.183 353.453C984.7 353.692 985.315 356.53 985.795 359.898C985.557 361.296 985.52 362.702 985.746 364.089C985.746 364.089 986.132 364.923 986.474 366.256C986.499 366.637 986.523 367.009 986.542 367.364C986.581 368.153 986.756 369.069 986.982 369.96C987.01 371.727 986.716 373.702 985.746 375.619C982.962 381.12 979.472 379.28 980.246 387.473C981.02 395.668 978.768 402.26 976.085 406.451C973.402 410.645 973.353 422.879 978.854 429.784C978.854 429.784 979.765 424.367 983.853 422.733C987.94 421.098 994.324 413.071 993.902 407.976C993.477 402.88 997.188 388.228 1006.64 386.731C1006.64 386.731 1007.25 382.219 1004.66 374.334Z" fill="#8C4949"/>
<path d="M960.704 331.096C961.068 325.89 964.831 320.626 970.411 319.129C965.492 321.691 962.341 326.206 960.704 331.096Z" fill="#7A3D3D"/>
<path d="M964.44 329.996C971.501 332.547 970.262 335.726 974.273 340.249C975.628 341.974 977.843 342.399 979.788 343.27C982.266 344.687 983.94 347.382 983.854 350.076C983.575 347.816 982.156 345.646 980.186 344.313C977.855 342.937 975.484 343.095 973.596 340.79C969.537 336.199 971.158 333.358 964.44 329.996Z" fill="#7A3D3D"/>
<path d="M968.919 327.245C972.804 327.856 976.646 329.64 978.757 332.811C982.566 337.342 988.785 341.798 988.036 348.15C987.88 341.899 981.786 337.943 978.078 333.276C976.132 330.145 972.556 328.327 968.919 327.245Z" fill="#7A3D3D"/>
<path d="M968.919 322.982C975.496 322.252 982.704 323.65 987.369 328.241C989.661 330.315 991.64 332.762 992.793 335.543C993.304 336.831 993.668 338.209 993.668 339.588C993.641 340.368 993.662 341.324 993.754 342.102C994.182 346.411 995.287 350.892 994.008 355.167C995.097 349.922 992.824 344.663 992.858 339.421C992.432 334.323 988.566 330.048 984.46 326.874C980.107 323.749 974.319 322.878 968.919 322.982Z" fill="#7A3D3D"/>
<path d="M999.687 346.948C1000.93 351.776 1001.3 356.984 999.669 361.775C998.975 364.165 997.61 366.386 996.928 368.754C996.353 371.211 997.968 373.57 997.69 376.059C997.641 379.466 996.081 383.009 992.948 384.987C992.238 385.432 991.553 385.959 990.975 386.543C988.013 389.572 986.787 393.741 986.432 397.737C986.334 399.4 986.38 401.088 985.991 402.723C984.966 409.351 978.11 414.343 978.854 421.259C977.71 414.396 984.4 409.165 985.306 402.607C985.652 400.987 985.566 399.329 985.652 397.689C985.973 393.315 987.352 388.702 990.812 385.528C991.29 385.091 991.88 384.666 992.434 384.311C996.105 382.005 997.338 377.524 996.692 373.629C996.374 371.969 995.674 370.295 996.2 368.601C996.949 366.169 998.335 364.024 999.112 361.612C1000.85 356.911 1000.64 351.782 999.687 346.948Z" fill="#7A3D3D"/>
<path d="M990.355 365.128C993.09 373.306 989.697 374.476 986.384 381.073C985.717 382.466 985.782 383.858 985.647 385.363C984.898 388.158 983.671 388.86 983.854 392.253C983.291 389.582 984.072 388.119 984.891 385.701C985.096 384.379 984.809 382.981 985.271 381.677C985.329 381.423 985.482 381.04 985.571 380.792C988.881 373.822 991.995 374.014 990.355 365.128Z" fill="#7A3D3D"/>
<path d="M1000.57 369.047C1000.4 371.499 1000.09 373.99 1000.55 376.397C1000.7 377.242 1001.28 377.828 1001.59 378.595C1002.3 380.204 1002.53 381.98 1002.2 383.682C1001.81 385.3 1000.94 386.819 1000.96 388.515C1000.57 386.85 1001.23 385.218 1001.5 383.589C1001.84 376.884 997.678 378.581 1000.57 369.047Z" fill="#7A3D3D"/>
<path d="M994.437 390.291C992.513 392.641 990.61 395.426 990.745 398.458C991.265 402.99 991.479 408.649 988.839 412.662C990.662 408.316 990.292 403.455 989.919 398.895C989.628 395.539 991.892 392.481 994.437 390.291Z" fill="#7A3D3D"/>
<path d="M989.064 349.446C989.064 349.446 992.5 349.697 992.573 354.679C992.64 359.467 989.517 364.983 985.745 364.089C984.543 363.734 983.499 359.546 983.328 355.801C983.157 352.058 985.026 349.435 989.064 349.446Z" fill="#DE9681"/>
<path d="M986.358 360.52C984.837 354.043 988.441 352.206 988.594 352.13C988.781 352.037 989.01 352.104 989.111 352.274C989.209 352.445 989.139 352.657 988.955 352.75C988.851 352.803 986.936 353.809 986.762 357.062C987.823 355.915 989.515 355.712 989.607 355.701C989.815 355.678 990.004 355.816 990.032 356.008C990.056 356.202 989.906 356.377 989.698 356.399C989.6 356.411 987.328 356.693 986.792 358.482C986.844 359.057 986.942 359.683 987.104 360.37C987.144 360.542 987.04 360.714 986.863 360.773C986.847 360.779 986.829 360.785 986.811 360.787C986.606 360.83 986.401 360.709 986.358 360.52Z" fill="#BA6D5B"/>
<path d="M1038.74 282.003H920.599C915.282 282.003 910.972 285.971 910.972 290.867V301.762H1048.37V290.867C1048.37 285.971 1044.06 282.003 1038.74 282.003Z" fill="#8CCBFF"/>
<path d="M1039.25 291.444H1026.04C1025.23 291.444 1024.57 290.841 1024.57 290.095V289.88C1024.57 289.136 1025.23 288.533 1026.04 288.533H1039.25C1040.06 288.533 1040.72 289.136 1040.72 289.88V290.095C1040.72 290.841 1040.06 291.444 1039.25 291.444Z" fill="white"/>
<path d="M1039.25 297.749H1030.88C1030.07 297.749 1029.42 297.144 1029.42 296.4V296.185C1029.42 295.439 1030.07 294.835 1030.88 294.835H1039.25C1040.06 294.835 1040.72 295.441 1040.72 296.185V296.4C1040.72 297.144 1040.06 297.749 1039.25 297.749Z" fill="white"/>
<path d="M1038.74 508.704H920.601C914.877 508.704 910.221 504.417 910.221 499.147V290.867C910.221 285.597 914.877 281.311 920.601 281.311H1038.74C1044.47 281.311 1049.12 285.597 1049.12 290.867V499.147C1049.12 504.417 1044.47 508.704 1038.74 508.704ZM920.601 282.694C915.706 282.694 911.726 286.361 911.726 290.867V499.147C911.726 503.653 915.706 507.32 920.601 507.32H1038.74C1043.64 507.32 1047.62 503.653 1047.62 499.147V290.867C1047.62 286.361 1043.64 282.694 1038.74 282.694H920.601Z" fill="white"/>
<path d="M1006.31 286.431H953.034C949.769 286.431 947.12 283.99 947.12 280.983V279.844H1012.22V280.983C1012.22 283.99 1009.57 286.431 1006.31 286.431Z" fill="#303C72"/>
<path d="M921.788 313.45H802.884C799.063 313.45 795.964 316.305 795.964 319.825V351.593C795.964 355.116 799.063 357.968 802.884 357.968H909.676L928.708 379.001V319.825C928.708 316.305 925.609 313.45 921.788 313.45Z" fill="white"/>
<path d="M874.017 327.905H915.054C916.22 327.905 917.165 327.034 917.165 325.96V324.376C917.165 323.302 916.22 322.432 915.054 322.432H874.017C872.849 322.432 871.903 323.302 871.903 324.376V325.96C871.903 327.034 872.849 327.905 874.017 327.905Z" fill="#D4E7FF"/>
<path d="M808.181 327.905H861.106C862.275 327.905 863.22 327.034 863.22 325.96V324.376C863.22 323.302 862.275 322.432 861.106 322.432H808.181C807.016 322.432 806.07 323.302 806.07 324.376V325.96C806.07 327.034 807.016 327.905 808.181 327.905Z" fill="#D4E7FF"/>
<path d="M890.039 338.604H915.056C916.222 338.604 917.167 337.733 917.167 336.659V335.078C917.167 334.002 916.222 333.131 915.056 333.131H890.039C888.873 333.131 887.925 334.002 887.925 335.078V336.659C887.925 337.733 888.873 338.604 890.039 338.604Z" fill="#D4E7FF"/>
<path d="M865.99 338.604H877.789C878.957 338.604 879.903 337.733 879.903 336.659V335.078C879.903 334.002 878.957 333.131 877.789 333.131H865.99C864.824 333.131 863.879 334.002 863.879 335.078V336.659C863.879 337.733 864.824 338.604 865.99 338.604Z" fill="#D4E7FF"/>
<path d="M808.181 338.604H854.22C855.389 338.604 856.334 337.733 856.334 336.659V335.078C856.334 334.002 855.389 333.131 854.22 333.131H808.181C807.016 333.131 806.07 334.002 806.07 335.078V336.659C806.07 337.733 807.016 338.604 808.181 338.604Z" fill="#D4E7FF"/>
<path d="M900.896 349.304H915.057C916.222 349.304 917.168 348.433 917.168 347.357V345.776C917.168 344.699 916.222 343.828 915.057 343.828H900.896C899.73 343.828 898.785 344.699 898.785 345.776V347.357C898.785 348.433 899.73 349.304 900.896 349.304Z" fill="#D4E7FF"/>
<path d="M808.181 349.304H889.72C890.885 349.304 891.83 348.433 891.83 347.357V345.776C891.83 344.699 890.885 343.828 889.72 343.828H808.181C807.016 343.828 806.07 344.699 806.07 345.776V347.357C806.07 348.433 807.016 349.304 808.181 349.304Z" fill="#D4E7FF"/>
<path d="M889.331 358.892H802.885C798.517 358.892 794.962 355.617 794.962 351.593V319.824C794.962 315.8 798.517 312.528 802.885 312.528H899.879C900.433 312.528 900.88 312.939 900.88 313.449C900.88 313.96 900.433 314.374 899.879 314.374H802.885C799.624 314.374 796.969 316.817 796.969 319.824V351.593C796.969 354.6 799.624 357.046 802.885 357.046H889.331C889.885 357.046 890.334 357.457 890.334 357.968C890.334 358.478 889.885 358.892 889.331 358.892Z" fill="#8CCBFF"/>
<path d="M889.111 259.643H770.21C766.389 259.643 763.29 262.498 763.29 266.018V325.194L782.322 304.161H889.111C892.935 304.161 896.034 301.306 896.034 297.786V266.018C896.034 262.498 892.935 259.643 889.111 259.643Z" fill="white"/>
<path d="M842.576 274.189H777.221C776.053 274.189 775.107 273.318 775.107 272.244V270.66C775.107 269.586 776.053 268.715 777.221 268.715H842.576C843.742 268.715 844.687 269.586 844.687 270.66V272.244C844.687 273.318 843.742 274.189 842.576 274.189Z" fill="#D4E7FF"/>
<path d="M884.095 274.189H855.488C854.322 274.189 853.377 273.318 853.377 272.244V270.66C853.377 269.586 854.322 268.715 855.488 268.715H884.095C885.264 268.715 886.209 269.586 886.209 270.66V272.244C886.209 273.318 885.264 274.189 884.095 274.189Z" fill="#D4E7FF"/>
<path d="M801.428 284.886H777.221C776.056 284.886 775.107 284.015 775.107 282.941V281.357C775.107 280.283 776.056 279.413 777.221 279.413H801.428C802.594 279.413 803.539 280.283 803.539 281.357V282.941C803.539 284.015 802.594 284.886 801.428 284.886Z" fill="#D4E7FF"/>
<path d="M864.56 284.886H814.486C813.32 284.886 812.375 284.015 812.375 282.941V281.357C812.375 280.283 813.32 279.413 814.486 279.413H864.56C865.725 279.413 866.671 280.283 866.671 281.357V282.941C866.671 284.015 865.725 284.886 864.56 284.886Z" fill="#D4E7FF"/>
<path d="M884.094 284.886H876.33C875.161 284.886 874.216 284.015 874.216 282.941V281.357C874.216 280.283 875.161 279.413 876.33 279.413H884.094C885.262 279.413 886.208 280.283 886.208 281.357V282.941C886.208 284.015 885.262 284.886 884.094 284.886Z" fill="#D4E7FF"/>
<path d="M829.403 295.587H777.221C776.056 295.587 775.107 294.714 775.107 293.64V292.059C775.107 290.982 776.056 290.111 777.221 290.111H829.403C830.569 290.111 831.514 290.982 831.514 292.059V293.64C831.514 294.714 830.569 295.587 829.403 295.587Z" fill="#D4E7FF"/>
<path d="M884.096 295.587H840.584C839.415 295.587 838.47 294.714 838.47 293.64V292.059C838.47 290.982 839.415 290.111 840.584 290.111H884.096C885.264 290.111 886.209 290.982 886.209 292.059V293.64C886.209 294.714 885.264 295.587 884.096 295.587Z" fill="#D4E7FF"/>
<path d="M889.11 305.082H795.965C795.411 305.082 794.961 304.671 794.961 304.161C794.961 303.651 795.411 303.236 795.965 303.236H889.11C892.374 303.236 895.029 300.793 895.029 297.786V266.018C895.029 263.011 892.374 260.564 889.11 260.564H770.209C766.947 260.564 764.292 263.011 764.292 266.018V271.451C764.292 271.962 763.842 272.376 763.289 272.376C762.735 272.376 762.285 271.962 762.285 271.451V266.018C762.285 261.993 765.84 258.718 770.209 258.718H889.11C893.481 258.718 897.036 261.993 897.036 266.018V297.786C897.036 301.81 893.481 305.082 889.11 305.082Z" fill="#8CCBFF"/>
</svg>
