<svg width="1647" height="838" viewBox="0 0 1647 838" fill="none" xmlns="http://www.w3.org/2000/svg">
<rect width="1647" height="838" fill="white"/>
<path d="M642.172 624.492H637.953L645.634 602.674H650.513L658.205 624.492H653.986L648.159 607.148H647.988L642.172 624.492ZM642.31 615.937H653.816V619.112H642.31V615.937ZM667.527 630.969C666.142 630.969 664.952 630.781 663.958 630.404C662.964 630.035 662.165 629.538 661.561 628.913C660.957 628.288 660.538 627.595 660.304 626.835L663.777 625.994C663.933 626.313 664.16 626.629 664.459 626.942C664.757 627.262 665.158 627.524 665.662 627.73C666.174 627.943 666.816 628.05 667.591 628.05C668.684 628.05 669.59 627.784 670.307 627.251C671.025 626.725 671.383 625.859 671.383 624.652V621.551H671.191C670.993 621.949 670.701 622.357 670.318 622.777C669.941 623.196 669.441 623.547 668.816 623.831C668.198 624.115 667.42 624.257 666.483 624.257C665.226 624.257 664.086 623.963 663.063 623.373C662.047 622.777 661.238 621.889 660.634 620.71C660.037 619.524 659.739 618.039 659.739 616.257C659.739 614.46 660.037 612.943 660.634 611.708C661.238 610.465 662.051 609.524 663.074 608.884C664.096 608.238 665.236 607.915 666.493 607.915C667.452 607.915 668.241 608.078 668.858 608.405C669.483 608.725 669.981 609.112 670.35 609.566C670.719 610.014 671 610.436 671.191 610.834H671.405V608.128H675.208V624.758C675.208 626.157 674.874 627.315 674.206 628.231C673.539 629.147 672.626 629.833 671.468 630.287C670.311 630.742 668.997 630.969 667.527 630.969ZM667.559 621.232C668.375 621.232 669.071 621.033 669.647 620.635C670.222 620.237 670.659 619.666 670.957 618.92C671.255 618.174 671.405 617.279 671.405 616.235C671.405 615.205 671.255 614.303 670.957 613.529C670.666 612.755 670.233 612.155 669.657 611.729C669.089 611.296 668.39 611.079 667.559 611.079C666.699 611.079 665.982 611.303 665.407 611.75C664.831 612.198 664.398 612.812 664.107 613.593C663.816 614.367 663.67 615.248 663.67 616.235C663.67 617.237 663.816 618.114 664.107 618.867C664.405 619.612 664.842 620.195 665.417 620.614C666 621.026 666.714 621.232 667.559 621.232ZM689.59 617.61V608.128H693.446V624.492H689.707V621.583H689.537C689.167 622.5 688.56 623.249 687.715 623.831C686.877 624.414 685.843 624.705 684.615 624.705C683.542 624.705 682.594 624.467 681.77 623.991C680.954 623.508 680.314 622.808 679.853 621.892C679.391 620.969 679.16 619.854 679.16 618.547V608.128H683.017V617.951C683.017 618.987 683.301 619.811 683.869 620.422C684.437 621.033 685.183 621.338 686.106 621.338C686.674 621.338 687.225 621.2 687.758 620.923C688.29 620.646 688.727 620.234 689.068 619.687C689.416 619.133 689.59 618.441 689.59 617.61ZM702.121 624.822C701.084 624.822 700.15 624.637 699.319 624.268C698.495 623.892 697.842 623.338 697.359 622.606C696.883 621.875 696.645 620.973 696.645 619.9C696.645 618.977 696.816 618.213 697.157 617.61C697.497 617.006 697.963 616.523 698.552 616.161C699.142 615.799 699.806 615.525 700.544 615.34C701.29 615.149 702.061 615.01 702.856 614.925C703.815 614.826 704.593 614.737 705.189 614.659C705.786 614.573 706.219 614.446 706.489 614.275C706.766 614.098 706.904 613.824 706.904 613.455V613.391C706.904 612.588 706.666 611.967 706.191 611.526C705.715 611.086 705.029 610.866 704.134 610.866C703.19 610.866 702.441 611.072 701.887 611.484C701.34 611.896 700.97 612.382 700.779 612.943L697.178 612.432C697.462 611.438 697.931 610.607 698.584 609.939C699.237 609.264 700.036 608.76 700.981 608.426C701.926 608.085 702.97 607.915 704.113 607.915C704.902 607.915 705.686 608.007 706.468 608.192C707.249 608.377 707.963 608.682 708.609 609.108C709.255 609.527 709.774 610.099 710.164 610.823C710.562 611.548 710.761 612.453 710.761 613.54V624.492H707.054V622.244H706.926C706.691 622.698 706.361 623.125 705.935 623.522C705.516 623.913 704.987 624.229 704.348 624.47C703.715 624.705 702.973 624.822 702.121 624.822ZM703.122 621.988C703.897 621.988 704.568 621.835 705.136 621.53C705.704 621.218 706.141 620.806 706.446 620.294C706.759 619.783 706.915 619.225 706.915 618.622V616.693C706.794 616.793 706.588 616.885 706.297 616.97C706.013 617.056 705.693 617.13 705.338 617.194C704.983 617.258 704.632 617.315 704.284 617.365C703.936 617.414 703.634 617.457 703.378 617.492C702.803 617.571 702.288 617.698 701.833 617.876C701.379 618.053 701.02 618.302 700.757 618.622C700.495 618.934 700.363 619.339 700.363 619.836C700.363 620.546 700.622 621.083 701.141 621.445C701.659 621.807 702.32 621.988 703.122 621.988ZM714.639 624.492V608.128H718.378V610.855H718.549C718.847 609.911 719.358 609.183 720.083 608.671C720.814 608.153 721.649 607.894 722.586 607.894C722.799 607.894 723.037 607.904 723.3 607.926C723.57 607.94 723.794 607.965 723.971 608V611.548C723.808 611.491 723.549 611.441 723.193 611.399C722.845 611.349 722.508 611.324 722.181 611.324C721.478 611.324 720.846 611.477 720.285 611.782C719.731 612.08 719.294 612.496 718.975 613.029C718.655 613.561 718.495 614.176 718.495 614.872V624.492H714.639ZM731.932 624.779C730.646 624.779 729.496 624.449 728.48 623.789C727.465 623.128 726.662 622.169 726.073 620.912C725.483 619.655 725.188 618.128 725.188 616.331C725.188 614.513 725.487 612.979 726.083 611.729C726.687 610.472 727.5 609.524 728.523 608.884C729.546 608.238 730.685 607.915 731.943 607.915C732.901 607.915 733.69 608.078 734.308 608.405C734.926 608.725 735.416 609.112 735.778 609.566C736.14 610.014 736.421 610.436 736.619 610.834H736.779V602.674H740.646V624.492H736.854V621.914H736.619C736.421 622.311 736.133 622.734 735.756 623.181C735.38 623.622 734.883 623.998 734.265 624.311C733.647 624.623 732.869 624.779 731.932 624.779ZM733.008 621.615C733.825 621.615 734.521 621.395 735.096 620.955C735.671 620.507 736.108 619.886 736.406 619.09C736.705 618.295 736.854 617.368 736.854 616.31C736.854 615.252 736.705 614.332 736.406 613.551C736.115 612.769 735.682 612.162 735.107 611.729C734.538 611.296 733.839 611.079 733.008 611.079C732.149 611.079 731.431 611.303 730.856 611.75C730.281 612.198 729.847 612.816 729.556 613.604C729.265 614.392 729.119 615.294 729.119 616.31C729.119 617.333 729.265 618.245 729.556 619.048C729.854 619.843 730.291 620.472 730.867 620.933C731.449 621.388 732.163 621.615 733.008 621.615ZM749.465 624.822C748.428 624.822 747.494 624.637 746.663 624.268C745.839 623.892 745.186 623.338 744.703 622.606C744.227 621.875 743.989 620.973 743.989 619.9C743.989 618.977 744.159 618.213 744.5 617.61C744.841 617.006 745.306 616.523 745.896 616.161C746.485 615.799 747.149 615.525 747.888 615.34C748.634 615.149 749.404 615.01 750.2 614.925C751.159 614.826 751.936 614.737 752.533 614.659C753.13 614.573 753.563 614.446 753.833 614.275C754.11 614.098 754.248 613.824 754.248 613.455V613.391C754.248 612.588 754.01 611.967 753.534 611.526C753.059 611.086 752.373 610.866 751.478 610.866C750.534 610.866 749.784 611.072 749.23 611.484C748.684 611.896 748.314 612.382 748.122 612.943L744.522 612.432C744.806 611.438 745.274 610.607 745.928 609.939C746.581 609.264 747.38 608.76 748.325 608.426C749.269 608.085 750.313 607.915 751.457 607.915C752.245 607.915 753.03 608.007 753.811 608.192C754.593 608.377 755.306 608.682 755.953 609.108C756.599 609.527 757.117 610.099 757.508 610.823C757.906 611.548 758.105 612.453 758.105 613.54V624.492H754.397V622.244H754.269C754.035 622.698 753.705 623.125 753.279 623.522C752.86 623.913 752.331 624.229 751.691 624.47C751.059 624.705 750.317 624.822 749.465 624.822ZM750.466 621.988C751.24 621.988 751.911 621.835 752.48 621.53C753.048 621.218 753.485 620.806 753.79 620.294C754.103 619.783 754.259 619.225 754.259 618.622V616.693C754.138 616.793 753.932 616.885 753.641 616.97C753.357 617.056 753.037 617.13 752.682 617.194C752.327 617.258 751.975 617.315 751.627 617.365C751.279 617.414 750.978 617.457 750.722 617.492C750.147 617.571 749.632 617.698 749.177 617.876C748.723 618.053 748.364 618.302 748.101 618.622C747.838 618.934 747.707 619.339 747.707 619.836C747.707 620.546 747.966 621.083 748.485 621.445C749.003 621.807 749.664 621.988 750.466 621.988ZM765.839 614.904V624.492H761.983V608.128H765.669V610.909H765.86C766.237 609.992 766.837 609.264 767.661 608.725C768.492 608.185 769.518 607.915 770.74 607.915C771.869 607.915 772.853 608.156 773.691 608.639C774.536 609.122 775.189 609.822 775.651 610.738C776.12 611.654 776.35 612.766 776.343 614.073V624.492H772.487V614.669C772.487 613.576 772.203 612.72 771.634 612.102C771.073 611.484 770.296 611.175 769.301 611.175C768.627 611.175 768.027 611.324 767.501 611.622C766.983 611.914 766.574 612.336 766.276 612.89C765.985 613.444 765.839 614.115 765.839 614.904ZM786.336 624.779C785.051 624.779 783.9 624.449 782.884 623.789C781.869 623.128 781.066 622.169 780.477 620.912C779.887 619.655 779.593 618.128 779.593 616.331C779.593 614.513 779.891 612.979 780.487 611.729C781.091 610.472 781.904 609.524 782.927 608.884C783.95 608.238 785.09 607.915 786.347 607.915C787.306 607.915 788.094 608.078 788.712 608.405C789.33 608.725 789.82 609.112 790.182 609.566C790.544 610.014 790.825 610.436 791.024 610.834H791.184V602.674H795.051V624.492H791.258V621.914H791.024C790.825 622.311 790.537 622.734 790.161 623.181C789.784 623.622 789.287 623.998 788.669 624.311C788.051 624.623 787.274 624.779 786.336 624.779ZM787.412 621.615C788.229 621.615 788.925 621.395 789.5 620.955C790.076 620.507 790.512 619.886 790.811 619.09C791.109 618.295 791.258 617.368 791.258 616.31C791.258 615.252 791.109 614.332 790.811 613.551C790.519 612.769 790.086 612.162 789.511 611.729C788.943 611.296 788.243 611.079 787.412 611.079C786.553 611.079 785.835 611.303 785.26 611.75C784.685 612.198 784.252 612.816 783.96 613.604C783.669 614.392 783.524 615.294 783.524 616.31C783.524 617.333 783.669 618.245 783.96 619.048C784.259 619.843 784.696 620.472 785.271 620.933C785.853 621.388 786.567 621.615 787.412 621.615ZM806.298 624.811C804.7 624.811 803.315 624.46 802.143 623.757C800.971 623.053 800.062 622.07 799.416 620.806C798.777 619.541 798.457 618.064 798.457 616.374C798.457 614.683 798.777 613.203 799.416 611.931C800.062 610.66 800.971 609.673 802.143 608.97C803.315 608.267 804.7 607.915 806.298 607.915C807.896 607.915 809.281 608.267 810.453 608.97C811.625 609.673 812.53 610.66 813.169 611.931C813.816 613.203 814.139 614.683 814.139 616.374C814.139 618.064 813.816 619.541 813.169 620.806C812.53 622.07 811.625 623.053 810.453 623.757C809.281 624.46 807.896 624.811 806.298 624.811ZM806.319 621.722C807.186 621.722 807.91 621.484 808.493 621.008C809.075 620.525 809.508 619.879 809.792 619.069C810.084 618.259 810.229 617.357 810.229 616.363C810.229 615.362 810.084 614.456 809.792 613.647C809.508 612.83 809.075 612.18 808.493 611.697C807.91 611.214 807.186 610.973 806.319 610.973C805.432 610.973 804.693 611.214 804.103 611.697C803.521 612.18 803.084 612.83 802.793 613.647C802.509 614.456 802.367 615.362 802.367 616.363C802.367 617.357 802.509 618.259 802.793 619.069C803.084 619.879 803.521 620.525 804.103 621.008C804.693 621.484 805.432 621.722 806.319 621.722ZM824.854 624.492V608.128H828.593V610.855H828.763C829.062 609.911 829.573 609.183 830.297 608.671C831.029 608.153 831.864 607.894 832.801 607.894C833.014 607.894 833.252 607.904 833.515 607.926C833.785 607.94 834.008 607.965 834.186 608V611.548C834.023 611.491 833.763 611.441 833.408 611.399C833.06 611.349 832.723 611.324 832.396 611.324C831.693 611.324 831.061 611.477 830.5 611.782C829.946 612.08 829.509 612.496 829.19 613.029C828.87 613.561 828.71 614.176 828.71 614.872V624.492H824.854ZM843.319 624.811C841.678 624.811 840.261 624.47 839.068 623.789C837.882 623.1 836.969 622.127 836.33 620.87C835.691 619.605 835.371 618.117 835.371 616.406C835.371 614.723 835.691 613.245 836.33 611.974C836.976 610.696 837.878 609.701 839.036 608.991C840.194 608.274 841.554 607.915 843.116 607.915C844.125 607.915 845.076 608.078 845.971 608.405C846.873 608.725 847.669 609.222 848.358 609.897C849.054 610.571 849.601 611.431 849.998 612.475C850.396 613.512 850.595 614.747 850.595 616.182V617.365H837.182V614.765H846.898C846.891 614.026 846.731 613.37 846.419 612.794C846.106 612.212 845.669 611.754 845.108 611.42C844.554 611.086 843.908 610.919 843.169 610.919C842.381 610.919 841.689 611.111 841.092 611.495C840.495 611.871 840.03 612.368 839.696 612.986C839.37 613.597 839.203 614.268 839.196 615V617.269C839.196 618.22 839.37 619.037 839.718 619.719C840.066 620.394 840.552 620.912 841.177 621.274C841.802 621.629 842.534 621.807 843.372 621.807C843.933 621.807 844.441 621.729 844.895 621.573C845.35 621.409 845.744 621.171 846.078 620.859C846.412 620.546 846.664 620.159 846.834 619.698L850.435 620.102C850.208 621.054 849.775 621.885 849.135 622.595C848.503 623.299 847.694 623.845 846.706 624.236C845.719 624.62 844.59 624.811 843.319 624.811ZM866.791 612.453L863.275 612.837C863.176 612.482 863.002 612.148 862.753 611.835C862.512 611.523 862.185 611.271 861.773 611.079C861.361 610.887 860.857 610.791 860.26 610.791C859.458 610.791 858.783 610.965 858.236 611.313C857.696 611.661 857.43 612.112 857.437 612.666C857.43 613.142 857.604 613.529 857.959 613.828C858.321 614.126 858.918 614.371 859.749 614.563L862.54 615.159C864.088 615.493 865.239 616.022 865.992 616.747C866.752 617.471 867.135 618.419 867.142 619.591C867.135 620.621 866.833 621.53 866.237 622.318C865.647 623.1 864.827 623.71 863.776 624.151C862.725 624.591 861.517 624.811 860.154 624.811C858.151 624.811 856.539 624.392 855.317 623.554C854.095 622.709 853.367 621.534 853.133 620.028L856.894 619.666C857.064 620.404 857.426 620.962 857.98 621.338C858.534 621.715 859.255 621.903 860.143 621.903C861.059 621.903 861.794 621.715 862.348 621.338C862.909 620.962 863.19 620.497 863.19 619.943C863.19 619.474 863.009 619.087 862.647 618.781C862.291 618.476 861.737 618.242 860.985 618.078L858.193 617.492C856.624 617.166 855.463 616.615 854.71 615.841C853.957 615.06 853.584 614.073 853.591 612.879C853.584 611.871 853.858 610.997 854.411 610.259C854.973 609.513 855.75 608.938 856.745 608.533C857.746 608.121 858.9 607.915 860.207 607.915C862.125 607.915 863.634 608.323 864.735 609.14C865.843 609.957 866.528 611.061 866.791 612.453ZM870.322 630.628V608.128H874.115V610.834H874.339C874.538 610.436 874.818 610.014 875.18 609.566C875.543 609.112 876.033 608.725 876.65 608.405C877.268 608.078 878.057 607.915 879.016 607.915C880.28 607.915 881.42 608.238 882.435 608.884C883.458 609.524 884.268 610.472 884.864 611.729C885.468 612.979 885.77 614.513 885.77 616.331C885.77 618.128 885.475 619.655 884.886 620.912C884.296 622.169 883.494 623.128 882.478 623.789C881.462 624.449 880.312 624.779 879.026 624.779C878.089 624.779 877.311 624.623 876.693 624.311C876.075 623.998 875.578 623.622 875.202 623.181C874.832 622.734 874.545 622.311 874.339 621.914H874.179V630.628H870.322ZM874.104 616.31C874.104 617.368 874.253 618.295 874.552 619.09C874.857 619.886 875.294 620.507 875.862 620.955C876.437 621.395 877.133 621.615 877.95 621.615C878.802 621.615 879.516 621.388 880.092 620.933C880.667 620.472 881.1 619.843 881.391 619.048C881.69 618.245 881.839 617.333 881.839 616.31C881.839 615.294 881.693 614.392 881.402 613.604C881.111 612.816 880.677 612.198 880.102 611.75C879.527 611.303 878.81 611.079 877.95 611.079C877.126 611.079 876.427 611.296 875.851 611.729C875.276 612.162 874.839 612.769 874.541 613.551C874.25 614.332 874.104 615.252 874.104 616.31ZM896.21 624.811C894.612 624.811 893.227 624.46 892.055 623.757C890.883 623.053 889.974 622.07 889.328 620.806C888.689 619.541 888.369 618.064 888.369 616.374C888.369 614.683 888.689 613.203 889.328 611.931C889.974 610.66 890.883 609.673 892.055 608.97C893.227 608.267 894.612 607.915 896.21 607.915C897.808 607.915 899.193 608.267 900.365 608.97C901.537 609.673 902.442 610.66 903.082 611.931C903.728 613.203 904.051 614.683 904.051 616.374C904.051 618.064 903.728 619.541 903.082 620.806C902.442 622.07 901.537 623.053 900.365 623.757C899.193 624.46 897.808 624.811 896.21 624.811ZM896.231 621.722C897.098 621.722 897.822 621.484 898.405 621.008C898.987 620.525 899.42 619.879 899.704 619.069C899.996 618.259 900.141 617.357 900.141 616.363C900.141 615.362 899.996 614.456 899.704 613.647C899.42 612.83 898.987 612.18 898.405 611.697C897.822 611.214 897.098 610.973 896.231 610.973C895.344 610.973 894.605 611.214 894.016 611.697C893.433 612.18 892.996 612.83 892.705 613.647C892.421 614.456 892.279 615.362 892.279 616.363C892.279 617.357 892.421 618.259 892.705 619.069C892.996 619.879 893.433 620.525 894.016 621.008C894.605 621.484 895.344 621.722 896.231 621.722ZM920.258 612.453L916.742 612.837C916.642 612.482 916.468 612.148 916.22 611.835C915.978 611.523 915.652 611.271 915.24 611.079C914.828 610.887 914.324 610.791 913.727 610.791C912.924 610.791 912.25 610.965 911.703 611.313C911.163 611.661 910.897 612.112 910.904 612.666C910.897 613.142 911.071 613.529 911.426 613.828C911.788 614.126 912.385 614.371 913.216 614.563L916.007 615.159C917.555 615.493 918.706 616.022 919.459 616.747C920.218 617.471 920.602 618.419 920.609 619.591C920.602 620.621 920.3 621.53 919.704 622.318C919.114 623.1 918.294 623.71 917.243 624.151C916.191 624.591 914.984 624.811 913.62 624.811C911.618 624.811 910.005 624.392 908.784 623.554C907.562 622.709 906.834 621.534 906.6 620.028L910.361 619.666C910.531 620.404 910.893 620.962 911.447 621.338C912.001 621.715 912.722 621.903 913.61 621.903C914.526 621.903 915.261 621.715 915.815 621.338C916.376 620.962 916.657 620.497 916.657 619.943C916.657 619.474 916.476 619.087 916.113 618.781C915.758 618.476 915.204 618.242 914.451 618.078L911.66 617.492C910.091 617.166 908.929 616.615 908.177 615.841C907.424 615.06 907.051 614.073 907.058 612.879C907.051 611.871 907.324 610.997 907.878 610.259C908.439 609.513 909.217 608.938 910.211 608.533C911.213 608.121 912.367 607.915 913.674 607.915C915.591 607.915 917.101 608.323 918.201 609.14C919.309 609.957 919.995 611.061 920.258 612.453ZM931.96 608.128V611.111H922.553V608.128H931.96ZM924.876 604.208H928.732V619.57C928.732 620.088 928.81 620.486 928.967 620.763C929.13 621.033 929.343 621.218 929.606 621.317C929.869 621.416 930.16 621.466 930.479 621.466C930.721 621.466 930.941 621.448 931.14 621.413C931.346 621.377 931.502 621.345 931.609 621.317L932.259 624.332C932.053 624.403 931.758 624.481 931.374 624.566C930.998 624.652 930.536 624.701 929.989 624.715C929.024 624.744 928.153 624.598 927.379 624.279C926.605 623.952 925.991 623.448 925.536 622.766C925.089 622.084 924.869 621.232 924.876 620.209V604.208ZM939.894 624.822C938.858 624.822 937.924 624.637 937.093 624.268C936.269 623.892 935.615 623.338 935.132 622.606C934.657 621.875 934.419 620.973 934.419 619.9C934.419 618.977 934.589 618.213 934.93 617.61C935.271 617.006 935.736 616.523 936.326 616.161C936.915 615.799 937.579 615.525 938.318 615.34C939.063 615.149 939.834 615.01 940.63 614.925C941.588 614.826 942.366 614.737 942.963 614.659C943.559 614.573 943.992 614.446 944.262 614.275C944.539 614.098 944.678 613.824 944.678 613.455V613.391C944.678 612.588 944.44 611.967 943.964 611.526C943.488 611.086 942.803 610.866 941.908 610.866C940.963 610.866 940.214 611.072 939.66 611.484C939.113 611.896 938.744 612.382 938.552 612.943L934.951 612.432C935.235 611.438 935.704 610.607 936.358 609.939C937.011 609.264 937.81 608.76 938.755 608.426C939.699 608.085 940.743 607.915 941.887 607.915C942.675 607.915 943.46 608.007 944.241 608.192C945.022 608.377 945.736 608.682 946.382 609.108C947.029 609.527 947.547 610.099 947.938 610.823C948.335 611.548 948.534 612.453 948.534 613.54V624.492H944.827V622.244H944.699C944.465 622.698 944.134 623.125 943.708 623.522C943.289 623.913 942.76 624.229 942.121 624.47C941.489 624.705 940.747 624.822 939.894 624.822ZM940.896 621.988C941.67 621.988 942.341 621.835 942.909 621.53C943.478 621.218 943.914 620.806 944.22 620.294C944.532 619.783 944.688 619.225 944.688 618.622V616.693C944.568 616.793 944.362 616.885 944.071 616.97C943.786 617.056 943.467 617.13 943.112 617.194C942.757 617.258 942.405 617.315 942.057 617.365C941.709 617.414 941.407 617.457 941.152 617.492C940.576 617.571 940.061 617.698 939.607 617.876C939.152 618.053 938.794 618.302 938.531 618.622C938.268 618.934 938.137 619.339 938.137 619.836C938.137 620.546 938.396 621.083 938.914 621.445C939.433 621.807 940.093 621.988 940.896 621.988ZM954.788 624.726C954.142 624.726 953.588 624.499 953.126 624.044C952.664 623.59 952.437 623.036 952.444 622.382C952.437 621.743 952.664 621.196 953.126 620.742C953.588 620.287 954.142 620.06 954.788 620.06C955.413 620.06 955.956 620.287 956.418 620.742C956.887 621.196 957.125 621.743 957.132 622.382C957.125 622.816 957.011 623.21 956.791 623.565C956.578 623.92 956.294 624.204 955.938 624.417C955.59 624.623 955.207 624.726 954.788 624.726ZM963.489 624.726C962.843 624.726 962.289 624.499 961.827 624.044C961.366 623.59 961.138 623.036 961.145 622.382C961.138 621.743 961.366 621.196 961.827 620.742C962.289 620.287 962.843 620.06 963.489 620.06C964.114 620.06 964.657 620.287 965.119 620.742C965.588 621.196 965.826 621.743 965.833 622.382C965.826 622.816 965.712 623.21 965.492 623.565C965.279 623.92 964.995 624.204 964.64 624.417C964.292 624.623 963.908 624.726 963.489 624.726ZM972.19 624.726C971.544 624.726 970.99 624.499 970.528 624.044C970.067 623.59 969.839 623.036 969.847 622.382C969.839 621.743 970.067 621.196 970.528 620.742C970.99 620.287 971.544 620.06 972.19 620.06C972.815 620.06 973.359 620.287 973.82 620.742C974.289 621.196 974.527 621.743 974.534 622.382C974.527 622.816 974.413 623.21 974.193 623.565C973.98 623.92 973.696 624.204 973.341 624.417C972.993 624.623 972.609 624.726 972.19 624.726Z" fill="#5A7DA0"/>
<path d="M1019.01 423.835C1016.18 493.402 964.429 548.167 901.602 548.167H638.303C601.037 548.167 575.435 506.49 589.23 468.122C607.62 415.7 667.542 454.491 640.087 410.406C613.475 367.665 597.629 315.507 620.34 290.383C672.911 232.229 734.969 309.357 769.081 298.183C779.96 294.374 823.16 264.26 839.96 258.865C947.011 216.12 1028.19 317.28 1019.01 423.835Z" fill="#E3F0FF"/>
<path d="M607.055 406.891C609.965 400.545 584.224 368.201 572.402 376.446C560.58 384.69 559.352 401.422 576.979 407.495C593.64 413.234 604.148 413.237 607.055 406.891Z" fill="#E3F0FF"/>
<path d="M664.679 271.152L661.071 248.271C660.989 247.762 660.527 247.415 660.035 247.498C659.546 247.584 659.213 248.066 659.292 248.575L662.818 270.925L647.597 284.124C647.214 284.455 647.161 285.047 647.479 285.446C647.659 285.666 647.915 285.783 648.174 285.783C648.378 285.783 648.581 285.712 648.749 285.565L664.364 272.023C664.611 271.812 664.729 271.477 664.679 271.152Z" fill="#C7DEFF"/>
<path d="M688.671 282.775L667.71 274.942C667.41 274.831 667.074 274.893 666.83 275.104L651.214 288.646C650.831 288.977 650.778 289.569 651.097 289.968C651.276 290.189 651.532 290.305 651.789 290.305C651.992 290.305 652.198 290.235 652.366 290.088L667.587 276.889L688.062 284.542C688.53 284.717 689.045 284.462 689.213 283.975C689.381 283.487 689.14 282.95 688.671 282.775Z" fill="#C7DEFF"/>
<path d="M657.932 269.651C658.006 270.111 658.386 270.437 658.819 270.437C658.869 270.437 658.916 270.433 658.966 270.424C659.458 270.341 659.791 269.86 659.708 269.348L656.949 251.844C656.869 251.335 656.404 250.988 655.915 251.071C655.423 251.157 655.09 251.638 655.173 252.147L657.932 269.651Z" fill="#C7DEFF"/>
<path d="M684.546 286.348L668.51 280.354C668.042 280.18 667.529 280.434 667.359 280.922C667.191 281.41 667.435 281.946 667.903 282.121L683.94 288.114C684.04 288.151 684.143 288.169 684.243 288.169C684.611 288.169 684.959 287.93 685.091 287.547C685.259 287.059 685.014 286.522 684.546 286.348Z" fill="#C7DEFF"/>
<path d="M866.494 414.732L844.696 409.99C844.207 409.882 843.73 410.207 843.63 410.717C843.527 411.223 843.839 411.72 844.325 411.824L865.622 416.458L871.957 436C872.116 436.49 872.628 436.754 873.1 436.589C873.362 436.493 873.559 436.288 873.65 436.036C873.724 435.84 873.733 435.616 873.665 435.398L867.162 415.351C867.059 415.035 866.806 414.802 866.494 414.732Z" fill="#C7DEFF"/>
<path d="M885.557 395.623L870.985 413.156C870.775 413.407 870.711 413.754 870.811 414.07L877.314 434.117C877.473 434.608 877.985 434.871 878.457 434.706C878.719 434.614 878.916 434.405 879.007 434.154C879.081 433.957 879.09 433.733 879.022 433.516L872.684 413.978L886.918 396.85C887.245 396.458 887.204 395.869 886.827 395.528C886.453 395.191 885.884 395.234 885.557 395.623Z" fill="#C7DEFF"/>
<path d="M887.271 400.914L876.121 414.326C875.794 414.719 875.835 415.311 876.212 415.648C876.589 415.989 877.158 415.946 877.482 415.553L888.632 402.141C888.702 402.058 888.755 401.963 888.791 401.865C888.923 401.506 888.835 401.086 888.54 400.819C888.164 400.481 887.595 400.521 887.271 400.914Z" fill="#C7DEFF"/>
<path d="M751.043 495.136C751.043 495.136 647.626 208.092 573.522 281.913C559.341 300.519 575.964 332.308 606.5 369.172C637.035 406.034 725.853 501.863 738.438 517.067L751.043 495.136Z" fill="#5A789F"/>
<path d="M751.043 495.136C751.043 495.136 687.041 317.498 623.658 277.652C625.06 281.456 625.92 285.563 624.568 288.17C621.47 294.145 607.498 296.884 603.504 306.797C600.088 315.284 605.516 348.045 593.258 352.277C597.287 357.765 601.722 363.405 606.499 369.172C637.035 406.033 725.853 501.862 738.438 517.066L751.043 495.136Z" fill="#5A789F"/>
<path d="M585.442 284.234C592.637 290.268 599.526 296.7 606.291 303.248C645.736 341.855 680.684 385.688 708.775 433.923C714.177 443.257 719.445 453.05 724.22 462.752C726.228 466.794 728.47 471.592 730.354 475.702C731.574 478.425 733.3 482.33 734.457 485.084L735.255 486.968L736.03 488.866L736.804 490.762L737.573 492.66C728.352 472.892 718.091 453.701 706.837 435.169C695.598 416.624 683.449 398.699 670.579 381.348C651.258 355.329 630.365 330.558 608.185 307.128C600.787 299.334 593.229 291.605 585.442 284.234Z" fill="#5AA5D1"/>
<path d="M596.268 420.572C596.268 420.572 576.323 412.097 562.819 428.706C551.433 442.714 569.711 480.741 588.587 499.148C588.587 499.148 570.07 511.226 569.443 525.142C568.815 539.055 590.607 553.741 621.452 557.894L624.568 439.892L596.268 420.572Z" fill="#5A789F"/>
<path d="M593.998 419.795C595.862 431.11 597.22 448.676 600.097 467.785C604.618 497.813 614.971 541.401 579.717 542.389C588.921 549.612 603.682 555.501 621.453 557.893L624.569 439.892L596.269 420.571C596.269 420.571 595.435 420.216 593.998 419.795Z" fill="#5A789F"/>
<path d="M572.309 431.006C587.132 446.778 601.425 463.175 615.5 479.671C619.588 484.44 623.932 489.412 627.905 494.271C635.548 503.69 642.931 513.422 649.832 523.446C650.191 523.98 650.554 524.507 650.91 525.044L650.686 525.237C640.337 514.072 630.335 502.264 620.81 490.332C617.803 486.504 614.319 482.124 611.262 478.339C601.613 466.463 591.862 454.581 582.022 442.88C578.735 438.972 575.437 435.073 572.1 431.215L572.309 431.006Z" fill="#5AA5D1"/>
<path d="M581.869 524.991C589.427 525.519 597.052 525.151 604.547 524.074C608.279 523.528 611.981 522.813 615.606 521.752C618.605 520.869 621.541 519.786 624.474 518.703C627.696 517.507 630.868 516.158 633.955 514.615C635.958 513.612 637.881 512.535 639.842 511.422L640.022 511.658C639.053 512.759 637.957 513.817 636.847 514.762C631.94 518.903 626.103 521.866 619.986 523.47C610.014 526.025 599.667 526.89 589.433 526.166C586.885 525.982 584.349 525.721 581.831 525.289L581.869 524.991Z" fill="#5AA5D1"/>
<mask id="mask0_1949_925" style="mask-type:luminance" maskUnits="userSpaceOnUse" x="612" y="299" width="146" height="261">
<path d="M612.465 299.684H757.981V559.709H612.465V299.684Z" fill="white"/>
</mask>
<g mask="url(#mask0_1949_925)">
<path d="M746.361 559.676H624.171C618.007 559.676 613.009 554.474 613.009 548.054V311.729C613.009 305.31 618.007 300.104 624.171 300.104H746.361C752.528 300.104 757.526 305.31 757.526 311.729V548.054C757.526 554.474 752.528 559.676 746.361 559.676Z" fill="#303C72"/>
</g>
<path d="M742.137 552.875H628.396C623.278 552.875 619.128 548.554 619.128 543.226V316.553C619.128 311.225 623.278 306.907 628.396 306.907H742.137C747.255 306.907 751.402 311.225 751.402 316.553V543.226C751.402 548.554 747.255 552.875 742.137 552.875Z" fill="#D4EBFF"/>
<path d="M742.137 306.907H628.396C623.278 306.907 619.128 311.225 619.128 316.553V328.411H751.402V316.553C751.402 311.225 747.255 306.907 742.137 306.907Z" fill="#8CCBFF"/>
<path d="M712.304 422.311C712.304 422.311 725.483 412.772 735.791 430.645C746.102 448.52 757.48 483.996 760.699 495.022C763.918 506.046 751.53 511.901 743.87 503.488C736.207 495.074 717.169 456.897 712.813 447.505C708.457 438.113 705.801 427.62 712.304 422.311Z" fill="#9E5959"/>
<path d="M747.098 488.902L757.703 485.301C756.699 482.176 754.248 474.879 754.248 474.879C754.248 474.879 748.364 482.694 747.098 488.902Z" fill="#914D4D"/>
<path d="M734.744 489.696C734.694 486.04 734.662 480.225 734.815 474.317C735.065 464.591 733.593 442.636 733.593 442.636L721.193 464.505C725.34 472.643 730.288 482.007 734.744 489.696Z" fill="#914D4D"/>
<path d="M714.049 419.768C714.049 419.768 702.828 424.896 708.457 440.202C714.085 455.51 732.159 487.341 737.57 497.015C742.98 506.689 750.726 511.287 756.622 508.03C762.518 504.769 762.854 499.098 760.504 490.403C758.151 481.71 742.744 441.904 738.866 433.767C734.984 425.632 725.106 413.538 714.049 419.768Z" fill="white"/>
<path d="M753.203 469.626C749.766 474.322 745.448 485.796 745.448 485.796L757.214 480.526C756.048 477.269 754.672 473.537 753.203 469.626Z" fill="#D4EBFF"/>
<path d="M737.516 496.915C737.628 489.968 737.813 474.423 737.454 465.672C736.986 454.161 734.845 440.202 734.845 440.202L726.351 476.769C731.022 485.382 735.295 492.946 737.516 496.915Z" fill="#D4EBFF"/>
<path d="M786.038 445.029C786.038 445.029 795.047 448.529 799.883 459.914L795.548 463.625L783.435 450.854L786.038 445.029Z" fill="#ABD3FC"/>
<path d="M749.368 506.917C753.462 508.393 758.009 507.08 760.919 503.737C768.809 494.667 794.798 464.485 800.158 454.388C806.499 442.448 798.17 440.721 790.421 448.128C782.675 455.535 770.002 466.752 764.097 471.92C754.484 480.337 745.107 486.603 742.097 492.977C739.988 497.436 743.239 504.709 749.368 506.917Z" fill="#9E5959"/>
<path d="M792.695 465.396C788.663 470.402 780.849 460.936 783.532 456.283C783.576 456.21 791.584 445.861 792.662 441.969C793.796 437.868 793.243 435.88 797.295 432.242C800.744 429.151 803.047 427.05 804.782 427.338C806.62 427.645 805.032 430.2 803.165 431.917C801.145 433.779 798.093 439.269 800.977 439.119C803.274 438.996 810.646 437.401 812.872 436.365C816.501 434.675 825.581 425.51 827.719 430.344C827.719 430.344 830.072 429.936 829.913 432.77C829.913 432.77 832.758 433.718 830.172 437.217C830.172 437.217 831.83 438.782 830.175 440.794C829.053 442.159 824.144 446.815 820.886 449.437C817.632 452.06 804.458 453.771 799.796 456.703C798.311 457.639 793.617 464.252 792.695 465.396Z" fill="#F6AF9A"/>
<path d="M799.805 438.211C800.017 441.125 800.956 443.486 800.029 446.412C802.323 444.103 800.305 440.671 799.805 438.211Z" fill="#E57E73"/>
<path d="M830.171 437.217C828.81 436.987 827.759 438.143 826.775 438.923C823.713 441.327 820.829 444.091 817.619 446.216C821.433 445.262 823.989 441.612 826.99 439.186C827.856 438.269 829.037 437.245 830.171 437.217Z" fill="#E57E73"/>
<path d="M829.914 432.77C827.039 433.04 824.957 435.408 822.725 437.058C820.463 438.677 818.451 441.07 816.178 442.385C817.597 442.211 818.808 441.235 819.877 440.306C823.137 437.8 826.038 433.859 829.914 432.77Z" fill="#E57E73"/>
<path d="M827.719 430.344C822.5 431.144 819.078 436.156 814.758 438.772C819.735 437.438 822.698 431.368 827.719 430.344Z" fill="#E57E73"/>
<path d="M815.618 447.224C810.128 445.389 802.748 444.163 797.962 448.269C803.222 445.055 809.872 446.349 815.618 447.224Z" fill="#EA9A88"/>
<path d="M814.406 438.619C815.401 439.518 815.719 440.908 816.032 442.187C817.027 443.162 817.224 444.751 817.475 446.094C817.981 446.48 817.993 447.244 817.999 447.839C817.861 447.232 817.646 446.579 817.133 446.275C816.718 445.085 816.453 443.515 815.56 442.637C815.01 441.503 815.036 439.895 814.12 438.911C813.835 438.288 813.661 437.552 813.16 437.043C813.734 437.393 814.114 438.003 814.406 438.619Z" fill="#EA9A88"/>
<path d="M786.039 445.029C786.039 445.029 789.52 456.853 799.884 459.914C799.884 459.914 770.5 497.874 762.854 504.484C755.211 511.097 743.725 508.116 739.649 498.362C735.723 488.967 786.039 445.029 786.039 445.029Z" fill="white"/>
<path d="M700.585 529.028C687.756 533.414 682.555 543.416 681 552.875H730.09C729.063 546.75 727.905 542.131 726.612 539.748C718.498 524.777 700.585 529.028 700.585 529.028Z" fill="#F6AF9A"/>
<path d="M701.015 522.433C686.092 525.543 678.484 536.104 677.98 552.875H733.801C733.715 552.24 733.63 551.624 733.544 551.026C729.395 522.176 701.015 522.433 701.015 522.433Z" fill="#384682"/>
<path d="M663.829 486.237C665.631 507.474 660.177 520.311 657.841 533.224C656.61 540.036 656.28 546.762 657.135 552.875H723.372C727.442 543.048 726.726 533.365 726.859 528.126C727.086 519.308 727.769 504.582 727.769 504.582C730.181 465.638 662.029 464.997 663.829 486.237Z" fill="#F6AF9A"/>
<path d="M659.466 521.675C659.466 521.675 653.054 538.179 655.422 552.874H724.537C728.298 539.523 728.018 522.432 728.018 522.432C719.209 523.911 659.466 521.675 659.466 521.675Z" fill="#384682"/>
<path d="M654.712 552.875H703.508C703.278 529.039 684.326 527.438 684.326 527.438C669.435 525.806 658.396 530.505 654.712 552.875Z" fill="#F6AF9A"/>
<path d="M652.194 552.82C652.191 552.838 652.191 552.857 652.188 552.875H708.727C708.415 535.809 697.951 524.783 680.453 522.458C680.453 522.458 655.422 520.476 652.194 552.82Z" fill="#384682"/>
<path d="M677.854 411.855C689.756 409.775 699.254 411.474 710.457 414.891C717.953 417.176 725.984 419.379 729.613 424.66C735.983 433.932 733.079 456.838 731.451 467.442C729.822 478.042 728.588 500.212 727.695 505.908C726.803 511.603 702.535 520.544 687.679 518.216C676.29 516.431 665.867 510.619 664.383 499.758C662.636 486.949 659.662 468.586 656.21 457.427C652.758 446.272 647.336 423.038 664.436 415.262C667.643 413.805 674.72 412.401 677.854 411.855Z" fill="#F6AF9A"/>
<path d="M705.936 400.046C705.936 400.046 705.55 411.618 708.015 416.921C710.477 422.221 702.045 425.519 696.564 425.47C691.083 425.421 682.666 422.225 681.682 415.351C680.701 408.474 684.739 411.075 683.976 392.387C683.381 377.772 707.47 385.645 705.936 400.046Z" fill="#F6AF9A"/>
<path d="M707.243 414.756C705.638 408.992 705.935 400.046 705.935 400.046C707.151 388.612 692.217 381.293 686.312 386.084C686.07 387.713 685.959 389.547 686.006 391.617C686.029 392.694 696.084 412.906 707.243 414.756Z" fill="#EA9A88"/>
<path d="M732.617 524.817C731.81 518.492 732.617 487.501 732.731 483.057C732.846 478.61 735.052 455.305 734.817 448.339C734.578 441.371 732.717 427.412 731.053 423.219C729.386 419.029 716.824 415.827 710.248 414.756L707.005 413.806C707.005 413.806 708.045 417.722 702.499 418.716C694.335 420.179 685.458 414.996 681.783 411.294C681.783 411.294 679.618 411.005 678.151 411.291C678.151 411.291 663.949 413.658 660.23 415.217C656.51 416.775 651.159 423.593 650.929 435.245C650.696 446.898 656.351 468.672 657.965 479.827C659.582 490.986 658.542 510.085 657.85 516.692C657.158 523.299 650.466 544.321 650.352 552.609C650.352 552.609 651.2 552.71 652.699 552.876H718.586C727.91 551.882 734.811 551.014 735.385 550.566C735.385 550.566 733.665 545.162 733.544 540.717C733.424 536.273 733.424 531.142 732.617 524.817Z" fill="#85B9F1"/>
<path d="M701.618 420.909C705.234 420.866 710.391 428.847 710.391 428.847C712.011 425.798 713.522 419.314 714.309 415.542C712.827 415.213 711.437 414.95 710.247 414.756L707.004 413.806C707.004 413.806 708.044 417.722 702.498 418.716C694.334 420.179 685.457 414.996 681.782 411.294C681.782 411.294 679.617 411.005 678.15 411.291C678.15 411.291 677.285 411.435 675.927 411.677L674.057 414.68L696.793 433.779C696.793 433.779 696.726 432.516 697.527 428.264C698.817 421.403 701.618 420.909 701.618 420.909Z" fill="#75AEEB"/>
<path d="M671.418 476.505C673.242 461.997 673.951 436.229 673.951 436.229C673.951 436.229 661.517 441.327 651.421 443.315C652.805 455.209 656.675 470.91 657.965 479.827C659.582 490.982 658.542 510.085 657.85 516.692C657.158 523.298 650.466 544.321 650.352 552.609C650.352 552.609 651.2 552.71 652.699 552.875H674.172C661.826 545.894 662.53 525.439 664.159 514.14C666.073 500.834 670.04 487.483 671.418 476.505Z" fill="#75AEEB"/>
<path d="M702.131 423.109C703.824 423.044 704.192 420.026 704.26 418.229C703.762 418.428 703.179 418.594 702.496 418.717C701.094 418.968 699.669 419.023 698.255 418.925C698.865 420.339 700.319 423.176 702.131 423.109Z" fill="#384682"/>
<path d="M700.718 421.381C700.718 421.381 709.606 463.727 710.39 473.051L715.912 483.992L718.236 469.625C718.236 469.625 709.003 435.352 702.906 420.955L700.718 421.381Z" fill="#384682"/>
<path d="M701.223 418.891C701.223 418.891 705.803 416.541 707.001 413.805C707.001 413.805 708.978 413.741 709.796 414.164C709.796 414.164 711.13 421.403 709.796 426.022C709.796 426.022 705.267 419.636 701.7 419.958C698.125 420.283 695.801 429.024 695.801 429.024C695.801 429.024 683.102 418.679 681.529 411.321L681.889 410.892C681.889 410.892 692.735 417.501 701.223 418.891Z" fill="#96C3F2"/>
<path d="M724.934 358.896C724.934 358.896 726.698 367.644 724.23 377.906L718.778 358.55L724.934 358.896Z" fill="#8C4949"/>
<path d="M702.5 342.087C702.5 342.087 720.18 343.17 723.037 359.543C725.894 375.915 724.106 405.532 713.836 408.774C704.464 411.734 690.003 401.631 683.916 391.491C677.51 380.82 675.236 367.217 679.006 356.929C682.308 347.924 688.599 341.308 702.5 342.087Z" fill="#F6AF9A"/>
<path d="M694.462 361.233C694.462 361.233 692.656 364.021 693.154 368.233C693.478 370.975 692.468 371.962 689.726 375.959C686.981 379.955 687.617 380.189 686.81 384.593C686.003 388.994 684.033 399.788 683.98 400.65C683.924 401.515 681.382 398.484 679.48 392.479C677.58 386.473 673.542 374.821 673.195 364.129C672.85 353.439 682.31 342.628 692.003 341.545C692.003 341.545 701.233 337.22 710.118 341.066C719.001 344.91 725.545 350.759 725.168 360.387L723.23 360.454C723.23 360.454 721.755 359.325 721.284 359.031C719.134 357.687 717.384 358.353 715.432 359.678C715.432 359.678 707.833 363.656 703.795 363.178C703.795 363.178 699.186 364.662 694.462 361.233Z" fill="#8C4949"/>
<path d="M686.555 351.483C686.555 351.483 685.41 359.384 693.45 363.742C693.865 362.16 694.46 361.233 694.46 361.233C694.46 361.233 687.489 356.731 686.555 351.483Z" fill="#7D4141"/>
<path d="M691.224 345.069C691.153 348.912 692.037 353.007 694.767 355.734C698.018 358.923 704.076 359.568 708.4 359.451C707.873 359.663 707.325 359.822 706.771 359.948C702.642 360.843 697.7 360.417 694.293 357.605C690.841 354.672 689.802 349.354 691.224 345.069Z" fill="#7D4141"/>
<path d="M695.702 343.027C698.085 342.199 700.612 341.91 703.121 341.923C708.195 341.972 713.429 343.646 717.151 347.345C719.013 349.18 720.429 351.458 721.242 353.912C720.512 352.857 719.764 351.848 718.939 350.922C716.524 348.164 713.429 346.106 710.048 344.892C705.456 343.229 700.544 342.861 695.702 343.027Z" fill="#7D4141"/>
<path d="M693.743 345.069C698.494 345.431 703.15 346.735 707.573 348.557C710.972 349.974 714.262 351.961 716.721 354.829C717.095 355.271 717.445 355.74 717.731 356.246C717.519 356.053 717.301 355.872 717.08 355.7C716.912 355.568 716.579 355.317 716.409 355.191C713.944 353.406 711.246 351.992 708.477 350.802C703.615 348.738 698.656 347.06 693.743 345.069Z" fill="#7D4141"/>
<path d="M696.824 349.636C699.934 352.688 703.963 354.268 707.933 355.728C709.279 356.218 710.651 356.657 712.039 357.218C711.299 357.304 710.563 357.313 709.821 357.289C706.116 357.102 702.37 355.869 699.481 353.375C698.356 352.357 697.287 351.136 696.824 349.636Z" fill="#7D4141"/>
<path d="M690.463 381.155C690.463 381.155 690.425 372.53 685.486 372.472C680.544 372.413 680.571 379.633 683.758 384.317C685.539 386.939 690.484 390.242 690.463 381.155Z" fill="#F6AF9A"/>
<path d="M685.027 378.287C685.999 378.346 686.765 378.901 687.301 379.465C687.162 378.474 686.77 377.517 685.872 376.922C685.639 376.769 685.572 376.45 685.719 376.208C685.866 375.965 686.17 375.895 686.405 376.048C689.612 378.168 687.94 383.348 687.866 383.566C687.778 383.836 687.495 383.98 687.236 383.885C687.23 383.885 687.227 383.882 687.221 383.882C686.971 383.784 686.838 383.495 686.926 383.228C686.932 383.207 687.218 382.324 687.324 381.195C687.318 381.186 687.306 381.176 687.301 381.164C687.292 381.149 686.382 379.404 684.971 379.321C684.697 379.306 684.488 379.06 684.503 378.775C684.517 378.49 684.753 378.272 685.027 378.287Z" fill="#E57E73"/>
<path d="M647.902 552.875H736.888C735.613 538.916 734.028 518.215 733.651 508.768C733.145 496.036 735.336 461.874 735.383 451.222C735.43 440.569 732.473 425.672 732.473 425.672C732.082 424.448 731.257 420.856 723.888 417.998C716.519 415.142 709.99 414.679 709.99 414.679C716.349 431.76 714.549 475.603 714.549 475.603C714.549 475.603 708.794 459.313 700.718 441.449C693.632 425.776 677.566 411.29 677.566 411.29C669.982 411.547 656.77 414.814 656.77 414.814C643.596 429.858 652.364 460.895 654.564 477.425C656.761 493.954 654.776 511.342 648.951 545.725C648.586 547.878 648.235 550.277 647.902 552.875Z" fill="white"/>
<path d="M714.661 471.912L714.549 476.531C719.898 438.188 716.932 417.929 716.44 415.736C712.626 414.868 709.99 414.681 709.99 414.681C715.23 428.753 714.929 460.995 714.661 471.912Z" fill="#ABD3FC"/>
<path d="M714.315 474.943C713.158 471.732 707.845 457.203 700.72 441.449C693.634 425.776 677.568 411.29 677.568 411.29C675.321 411.366 672.579 411.707 669.834 412.148C669.834 412.148 708.404 456.31 714.551 476.529L714.315 474.943Z" fill="#ABD3FC"/>
<path d="M712.686 552.876H713.864C715.033 527.062 715.858 501.248 714.55 475.604C715.251 501.319 713.905 527.194 712.686 552.876Z" fill="#ABD3FC"/>
<path d="M654.564 477.425C656.761 493.954 654.776 511.342 648.951 545.726C648.586 547.879 648.235 550.277 647.902 552.875H657.984L659.833 533.009C660.316 527.43 662.163 506.226 662.773 500.076C663.479 492.976 664.89 491.994 668.419 472.269C671.947 452.544 672.789 435.457 672.789 435.457L651.004 456.053C652.182 464.043 653.787 471.594 654.564 477.425Z" fill="#D4EBFF"/>
<path d="M708.401 413.848C708.401 413.848 713.108 433.224 714.548 475.603C714.548 475.603 716.869 450.244 716.283 433.957C715.694 417.673 715.258 415.48 715.258 415.48C715.258 415.48 710.339 413.428 708.401 413.848Z" fill="white"/>
<path d="M714.55 475.603C700.719 441.45 671.094 411.953 671.094 411.953C674.065 410.398 681.891 410.891 681.891 410.891C681.891 410.891 693.424 424.528 701.467 440.815C712.3 462.752 714.55 475.603 714.55 475.603Z" fill="white"/>
<path d="M657.665 415.484C657.665 415.484 673.667 416.822 670.736 437.449C667.806 458.072 654.968 493.005 650.735 503.654C646.503 514.3 633.901 510.825 633.111 499.259C632.319 487.695 640.339 445.426 642.701 435.289C645.06 425.155 649.404 415.291 657.665 415.484Z" fill="#F6AF9A"/>
<path d="M660.227 415.216C660.227 415.216 648.485 410.204 641.958 434.079C635.429 457.954 631.197 489.73 631.02 500.383C630.843 511.035 640.877 516.295 647.248 512.32C653.621 508.348 660.501 483.614 664.636 471.014C671.092 451.344 681.144 420.043 660.227 415.216Z" fill="white"/>
<path d="M632.979 498.231C632.979 498.231 632.87 532.114 634.319 552.876H648.147C649.169 543.472 650.453 533.172 651.184 527.519C652.859 514.56 654.382 504.239 654.562 495.988C654.797 485.207 633.689 482.944 632.979 498.231Z" fill="#F6AF9A"/>
<path d="M644.39 481.097C644.39 481.097 632.253 482.201 631.018 497.995C630.091 509.886 629.958 535.102 630.403 552.876H653.21C655.14 531.445 658.547 493.222 658.618 489.698C658.718 484.772 650.351 479.996 644.39 481.097Z" fill="white"/>
<path d="M750.68 508.868V543.226C750.68 548.131 746.846 552.121 742.137 552.121H628.396C623.684 552.121 619.852 548.131 619.852 543.226V316.554C619.852 311.649 623.684 307.659 628.396 307.659H742.137C746.846 307.659 750.68 311.649 750.68 316.554V462.979C751.096 464.065 751.508 465.145 751.915 466.221C752.047 466.083 752.127 465.896 752.127 465.687V316.554C752.127 310.818 747.644 306.153 742.137 306.153H628.396C622.886 306.153 618.406 310.818 618.406 316.554V543.226C618.406 548.962 622.886 553.627 628.396 553.627H742.137C747.644 553.627 752.127 548.962 752.127 543.226V509.055C751.649 509.03 751.166 508.969 750.68 508.868Z" fill="white"/>
<path d="M710.909 311.726H659.625C656.479 311.726 653.929 309.069 653.929 305.797V304.558H716.602V305.797C716.602 309.069 714.055 311.726 710.909 311.726Z" fill="#303C72"/>
<path d="M1027.37 359.061C1029.04 357.84 1030.87 356.904 1032.81 356.276C1040.82 353.675 1061.56 349.381 1077.27 367.502C1094.04 386.84 1069.77 441.673 1043.78 468.683C1043.78 468.683 1070.58 484.951 1072.08 504.667C1073.58 524.383 1043.3 546.258 999.709 553.611L990.128 386.297L1027.37 359.061Z" fill="#5A789F"/>
<path d="M1032.64 356.333C1030.49 372.478 1029.33 397.47 1026.08 424.722C1020.97 467.552 1008.18 529.903 1058.26 529.636C1045.52 540.319 1024.82 549.376 999.709 553.612L990.128 386.299L1027.37 359.059C1028.97 357.891 1030.72 356.967 1032.58 356.354L1032.64 356.333Z" fill="#5A789F"/>
<path d="M1064.17 371.46C1044.69 395.317 1025.74 419.738 1007.02 444.245C1001.7 451.238 995.962 459.014 990.623 465.995C979.634 480.276 968.263 494.802 956.744 508.613L956.515 508.429C957.015 507.666 957.522 506.908 958.026 506.151C960.558 502.375 963.153 498.59 965.742 494.875C973.017 484.478 980.58 474.11 988.264 464.038C995.939 454.054 1004.09 444 1011.91 434.132C1022.04 421.416 1032.44 408.607 1042.83 396.127C1047.39 390.633 1052.21 384.904 1056.84 379.484C1059.2 376.733 1061.56 373.981 1063.95 371.258L1064.17 371.46Z" fill="#5AA5D1"/>
<path d="M1054.5 505.404C1037.53 508.419 1020 508.171 1003.11 504.683C1001.35 504.312 999.509 503.876 997.775 503.398C990.285 501.285 983.063 497.905 976.693 493.279C975.824 492.65 974.779 491.838 973.957 491.144C973.079 490.411 972.196 489.623 971.371 488.829L971.542 488.586C973.126 489.504 974.687 490.427 976.281 491.279C977.809 492.108 979.523 492.985 981.096 493.73C985.529 495.859 990.123 497.638 994.771 499.184C999.427 500.739 1004.14 502.165 1008.93 503.199C1022.12 505.919 1035.68 506.569 1049.08 505.631C1050.88 505.502 1052.67 505.343 1054.45 505.106L1054.5 505.404Z" fill="#5AA5D1"/>
<mask id="mask1_1949_925" style="mask-type:luminance" maskUnits="userSpaceOnUse" x="870" y="299" width="146" height="261">
<path d="M870.326 299.684H1015.84V559.71H870.326V299.684Z" fill="white"/>
</mask>
<g mask="url(#mask1_1949_925)">
<path d="M1004.15 559.675H881.958C875.794 559.675 870.793 554.473 870.793 548.053V311.728C870.793 305.309 875.794 300.104 881.958 300.104H1004.15C1010.32 300.104 1015.31 305.309 1015.31 311.728V548.053C1015.31 554.473 1010.32 559.675 1004.15 559.675Z" fill="#303C72"/>
</g>
<path d="M999.917 552.875H886.18C881.061 552.875 876.911 548.554 876.911 543.226V316.553C876.911 311.225 881.061 306.907 886.18 306.907H999.917C1005.04 306.907 1009.19 311.225 1009.19 316.553V543.226C1009.19 548.554 1005.04 552.875 999.917 552.875Z" fill="#D4EBFF"/>
<path d="M902.699 433.604C903.574 428.65 907.32 424.552 912.362 423.638C918.839 422.463 925.003 426.975 926.131 433.717C926.364 435.119 926.364 436.505 926.155 437.833C926.108 438.146 926.046 438.456 925.975 438.763C924.815 444.685 918.276 477.581 912.133 497.757C911.488 501.242 908.843 504.112 905.288 504.757C900.693 505.591 896.32 502.389 895.519 497.604C895.204 495.733 900.319 444.075 902.699 433.604Z" fill="#DE9681"/>
<path d="M913.853 435.448C913.853 435.448 918.89 430.617 926.152 433.853C926.365 435.209 926.356 436.549 926.155 437.834C926.108 438.147 926.046 438.457 925.976 438.764C924.974 443.874 919.971 469.068 914.669 488.842C914.189 486.413 912.717 483.987 911.986 483.383C910.84 482.435 907.857 479.619 906.393 474.672C905.345 471.135 907.342 457.894 909.63 450.931C911.918 443.966 913.853 435.448 913.853 435.448Z" fill="#EA9A88"/>
<path d="M917.584 423.108C917.584 423.108 913.072 422.136 906.943 424.954C905.109 425.798 903.353 429.101 902.16 431.662C897.604 441.462 894.135 471.232 894.135 471.232C894.135 471.232 906.01 482.762 918.453 486.461C918.453 486.461 927.719 444.41 927.533 435.601C927.348 426.795 921.177 424.013 917.584 423.108Z" fill="#FCF5F1"/>
<path d="M924.244 458.231L909.239 433.426C909.239 433.426 912.414 443.542 910.797 450.32C909.18 457.102 905.333 466.377 904.732 471.911C904.473 474.306 904.594 477.195 904.815 479.701C908.826 482.379 913.598 485.017 918.454 486.461C918.454 486.461 921.647 471.978 924.244 458.231Z" fill="#F0E2DA"/>
<path d="M907.449 486.252C902.884 484.467 897.789 486.871 896.075 491.625C895.736 492.561 895.556 493.515 895.518 494.46C895.515 494.46 892.231 540.477 891.348 552.875H901.712C902.784 547.544 904.801 537.879 906.963 529.49C910.653 515.169 911.92 502.296 912.503 496.367C912.668 495.585 912.733 494.8 912.7 494.027C912.55 490.451 910.868 487.589 907.449 486.252Z" fill="#DE9681"/>
<path d="M928.84 534.791C919.1 535.889 911.531 543.416 909.596 552.876H952.84C950.519 541.459 940.22 533.509 928.84 534.791Z" fill="#F6AF9A"/>
<path d="M908.32 552.876H953.759C950.448 532.23 935.496 532.212 933.614 532.24C933.614 532.24 912.838 530.863 908.32 552.876Z" fill="#8C4949"/>
<path d="M948.472 498.104C925.546 498.036 920.793 509.167 920.793 509.167C920.41 512.241 920.348 515.657 918.987 518.565C912.696 531.993 910.24 547.311 909.51 552.875H986.606C986.146 544.609 983.248 536.784 979.378 526.804C976.946 520.525 971.094 512.274 971.008 505.799C971.008 505.799 968.664 498.162 948.472 498.104Z" fill="#F6AF9A"/>
<path d="M920.525 511.64C920.525 511.64 919.041 513.947 915.215 524.725C912.429 532.568 909.717 546.091 908.447 552.876H987.59C986.598 543.564 983.935 533.35 980.917 527.584C977.309 520.688 972.158 509.352 972.158 509.352C961.967 512.054 920.525 511.64 920.525 511.64Z" fill="#8C4949"/>
<path d="M980.918 527.584C977.31 520.688 972.159 509.352 972.159 509.352C965.273 511.177 944.124 511.582 931.127 511.649C925.228 515.772 923.528 520.489 923.528 520.489C923.528 520.489 939.365 526.096 959.371 526.449C969.818 526.449 973.932 526.449 975.302 527.228C976.262 527.774 977.773 543.521 978.592 552.876H987.592C986.6 543.564 983.937 533.35 980.918 527.584Z" fill="#824444"/>
<path d="M942.919 552.875H986.034C983.957 543.373 976.191 535.935 966.369 535.055C955.233 534.058 945.319 541.839 942.919 552.875Z" fill="#F6AF9A"/>
<path d="M940.999 552.876H987.256C985.274 541.898 979.808 531.749 964.269 532.255C964.269 532.255 944.898 532.243 940.999 552.876Z" fill="#8C4949"/>
<path d="M976.794 534.998C977.465 540.445 978.137 547.656 978.593 552.876H987.258C985.941 545.595 983.093 538.682 976.794 534.998Z" fill="#824444"/>
<path d="M919.231 490.433C919.231 490.433 913.302 486.793 912.251 480.922C911.2 475.051 914.215 455.532 914.981 446.401C915.75 437.269 908.726 429.393 907.783 424.86C907.783 424.86 917.706 420.001 939.462 417.777C939.462 417.777 951.725 418.145 963.509 420.378C973.125 422.197 978.132 427.678 980.011 430.816C981.89 433.954 980.668 441.603 978.049 450.946C975.431 460.289 972.554 468.383 972.265 478.278C972.124 483.057 971.918 500.113 972.203 511.281C972.203 511.281 973.349 518.299 950.058 519.799C928.559 521.185 920.577 511.388 920.577 511.388C919.767 502.202 919.231 490.433 919.231 490.433Z" fill="#DE9681"/>
<path d="M975.662 459.229C973.915 465.391 972.463 471.399 972.263 478.279C972.166 481.61 972.036 490.904 972.063 500.013C966.953 485.653 960.117 442.779 960.117 442.779L975.662 459.229Z" fill="#E57E73"/>
<path d="M928.623 421.148L929.901 397.481C930.051 392.791 933.132 388.568 937.717 387.332C943.299 385.826 948.995 389.316 950.441 395.128C950.638 395.917 950.744 396.711 950.771 397.493L952.767 422.902C952.785 423.08 952.829 423.887 952.829 423.887C953.174 429.865 949.41 435.033 943.628 436.591C937.064 438.361 930.581 434.582 928.882 427.745C928.352 425.617 928.481 423.414 928.623 421.148Z" fill="#DE9681"/>
<path d="M929.903 397.481C930.053 392.791 933.134 388.568 937.719 387.332C943.3 385.826 948.996 389.316 950.443 395.128C950.64 395.917 950.746 396.711 950.772 397.493L950.876 398.815C946.216 409.728 937.734 417.85 928.698 419.816L929.903 397.481Z" fill="#D38475"/>
<path d="M921.077 420.716C921.077 420.716 922.591 427.841 933.4 429.678C944.209 431.515 966.135 420.793 966.135 420.793C966.135 420.793 970.839 420.725 974.079 422.826C974.079 422.826 980.213 426.82 981.244 431.721C982.275 436.625 980.9 445.306 980.066 448.474C979.233 451.639 974.079 479.674 974.079 486.698C974.079 491.602 976.806 505.555 978.452 513.529C979.112 516.732 977.05 519.845 973.943 520.339C963.638 521.974 940.984 524.593 918.862 520.639C915.24 519.992 912.683 516.584 912.922 512.769C913.476 503.954 914.391 489.28 914.371 488.667C914.371 488.667 909.8 485.756 908.816 477.481C907.833 469.208 913.864 448.676 913.216 445.152C912.568 441.628 906.831 428.307 906.946 424.955C906.946 424.955 913.172 421.851 921.077 420.716Z" fill="#FCF5F1"/>
<path d="M948.041 522.67C958.968 522.421 968.31 521.231 973.947 520.338C977.051 519.845 979.11 516.728 978.45 513.529C976.804 505.555 974.077 491.602 974.077 486.697C974.077 479.673 979.231 451.639 980.064 448.474C980.256 447.75 980.474 446.741 980.683 445.557C971.447 440.106 962.817 438.88 958.632 444.692C958.632 444.692 960.77 471.006 960.738 476.063C960.706 481.118 950.141 488.893 934.249 487.185C934.249 487.185 948.966 492.804 962.405 485.651L964.013 490.504H970.051C970.051 490.504 970.843 500.77 972.021 507.818C973.19 514.83 960.871 519.783 948.041 522.67Z" fill="#F0E2DA"/>
<path d="M958.719 438.891C958.58 437.68 958.601 436.432 958.801 435.168C959.941 427.969 966.47 423.095 973.386 424.279C979.123 425.264 983.326 430.116 983.938 435.852L998.193 498.564C998.496 499.791 998.567 501.101 998.355 502.432C997.548 507.542 992.912 511.001 988.006 510.161C983.871 509.449 980.861 505.913 980.498 501.76C980.498 501.76 962.494 457.549 959.046 440.677C958.898 440.094 958.789 439.496 958.719 438.891Z" fill="#DE9681"/>
<path d="M969.072 422.826C969.072 422.826 956.125 424.644 958.04 441.486C959.951 458.328 966.428 488.666 966.428 488.666C966.428 488.666 989.533 488.82 997.332 477.02C997.332 477.02 986.588 437.833 983.645 431.058C980.703 424.279 973.649 421.022 969.072 422.826Z" fill="#FCF5F1"/>
<path d="M987.398 492.501C983.776 493.39 981.184 496.442 980.586 500.037C980.457 500.816 980.421 501.62 980.489 502.432C980.336 508.505 980.536 521.311 982.474 536.291C983.187 541.797 983.779 547.799 984.223 552.876H995.816C996.764 534.607 998.437 502.423 998.437 502.423C998.516 501.46 998.452 500.469 998.228 499.482C997.088 494.439 992.24 491.314 987.398 492.501Z" fill="#DE9681"/>
<path d="M940.004 348.163C940.004 348.163 960.426 348.955 959.979 374.106C959.546 398.266 940.057 418.031 923.361 412.958C918.054 410.992 914.558 398.41 914.372 379.498C914.184 360.585 921.983 347.501 940.004 348.163Z" fill="#DE9681"/>
<path d="M967.111 407.391C964.62 398.809 966.643 382.443 965.633 375.06C965.606 374.867 965.565 374.689 965.518 374.523C964.882 364.662 961.766 356.736 954.55 350.755C946.787 344.317 934.134 347.311 934.134 347.311C928.385 346.863 916.451 352.102 913.144 360.334C909.836 368.567 910.844 380.394 912.14 383.538C913.432 386.681 911.707 389.675 910.988 391.77C910.269 393.865 911.707 395.96 913 398.656C914.295 401.349 912.14 404.493 912.14 404.493C914.295 403.297 915.3 400.002 914.44 397.159C913.577 394.313 913.144 393.267 913.706 391.107C914.266 388.945 914.725 387.577 915.014 384.286C915.3 380.992 914.581 374.406 916.307 369.916C918.033 365.423 924.789 360.334 924.789 360.334C926.804 366.772 929.678 371.861 933.416 373.207C937.156 374.554 939.456 376.501 940.175 378.446C940.893 380.394 939.742 383.985 940.175 388.325C940.605 392.669 942.331 392.816 943.624 394.764C944.919 396.708 941.323 400.153 940.46 401.649C939.597 403.146 940.175 405.689 941.179 407.637C942.186 409.581 941.468 411.826 941.468 411.826C943.194 411.078 942.905 407.486 942.331 404.493C941.756 401.499 943.912 400.751 945.205 398.506C946.501 396.26 944.775 393.116 944.487 391.469C944.198 389.822 946.53 384.218 947.393 384.666C947.891 384.927 948.483 388.016 948.946 391.681C948.716 393.202 948.68 394.733 948.898 396.242C948.898 396.242 949.269 397.15 949.599 398.601C949.623 399.015 949.646 399.42 949.664 399.806C949.702 400.665 949.87 401.662 950.088 402.631C950.115 404.554 949.832 406.704 948.898 408.79C946.218 414.777 942.858 412.774 943.603 421.691C944.348 430.61 942.18 437.784 939.597 442.345C937.015 446.909 936.967 460.224 942.263 467.739C942.263 467.739 943.141 461.843 947.075 460.064C951.01 458.285 957.157 449.55 956.75 444.004C956.341 438.459 959.913 422.513 969.011 420.884C969.011 420.884 969.603 415.973 967.111 407.391Z" fill="#8C4949"/>
<path d="M924.789 360.334C925.14 354.67 928.762 348.94 934.134 347.312C929.398 350.1 926.365 355.013 924.789 360.334Z" fill="#7A3D3D"/>
<path d="M928.387 359.139C935.184 361.914 933.991 365.374 937.852 370.297C939.157 372.174 941.289 372.637 943.162 373.585C945.548 375.127 947.159 378.06 947.076 380.992C946.808 378.532 945.442 376.17 943.545 374.72C941.301 373.223 939.019 373.395 937.201 370.886C933.293 365.889 934.854 362.798 928.387 359.139Z" fill="#7A3D3D"/>
<path d="M932.698 356.144C936.439 356.809 940.138 358.751 942.17 362.201C945.836 367.133 951.824 371.982 951.102 378.895C950.952 372.093 945.085 367.786 941.516 362.707C939.643 359.3 936.2 357.321 932.698 356.144Z" fill="#7A3D3D"/>
<path d="M932.698 351.505C939.03 350.71 945.969 352.231 950.461 357.228C952.667 359.485 954.572 362.148 955.682 365.175C956.174 366.577 956.525 368.077 956.525 369.577C956.498 370.426 956.519 371.466 956.607 372.312C957.02 377.002 958.083 381.879 956.852 386.532C957.9 380.824 955.712 375.101 955.744 369.396C955.335 363.847 951.612 359.194 947.66 355.74C943.469 352.339 937.896 351.391 932.698 351.505Z" fill="#7A3D3D"/>
<path d="M962.319 377.587C963.515 382.842 963.868 388.51 962.301 393.724C961.633 396.325 960.319 398.742 959.662 401.318C959.109 403.993 960.664 406.56 960.396 409.269C960.348 412.977 958.846 416.832 955.831 418.985C955.147 419.47 954.488 420.044 953.931 420.679C951.08 423.976 949.899 428.512 949.557 432.862C949.463 434.671 949.507 436.508 949.133 438.287C948.147 445.501 941.546 450.934 942.262 458.46C941.161 450.992 947.602 445.299 948.473 438.162C948.806 436.398 948.724 434.594 948.806 432.809C949.116 428.049 950.444 423.028 953.775 419.574C954.234 419.099 954.803 418.636 955.336 418.249C958.87 415.74 960.057 410.864 959.435 406.625C959.129 404.818 958.455 402.996 958.961 401.153C959.683 398.506 961.017 396.172 961.765 393.546C963.438 388.43 963.235 382.848 962.319 377.587Z" fill="#7A3D3D"/>
<path d="M953.335 397.373C955.968 406.274 952.702 407.547 949.512 414.727C948.87 416.242 948.932 417.757 948.803 419.395C948.081 422.437 946.9 423.201 947.077 426.894C946.535 423.986 947.286 422.395 948.075 419.763C948.272 418.324 947.996 416.803 948.44 415.383C948.496 415.107 948.643 414.69 948.729 414.42C951.915 406.835 954.914 407.044 953.335 397.373Z" fill="#7A3D3D"/>
<path d="M963.171 401.638C963.009 404.306 962.709 407.017 963.15 409.637C963.298 410.557 963.851 411.195 964.155 412.029C964.838 413.78 965.056 415.713 964.741 417.565C964.361 419.326 963.527 420.979 963.542 422.825C963.168 421.013 963.807 419.237 964.069 417.464C964.39 410.167 960.385 412.014 963.171 401.638Z" fill="#7A3D3D"/>
<path d="M957.265 424.758C955.412 427.316 953.58 430.347 953.71 433.647C954.21 438.579 954.417 444.737 951.875 449.105C953.63 444.376 953.274 439.085 952.915 434.122C952.635 430.469 954.814 427.141 957.265 424.758Z" fill="#7A3D3D"/>
<path d="M952.092 380.306C952.092 380.306 955.399 380.579 955.47 386.001C955.535 391.212 952.528 397.215 948.897 396.242C947.739 395.856 946.735 391.298 946.57 387.222C946.405 383.149 948.204 380.293 952.092 380.306Z" fill="#DE9681"/>
<path d="M949.486 392.358C948.023 385.309 951.492 383.31 951.639 383.227C951.819 383.126 952.04 383.199 952.137 383.383C952.231 383.57 952.164 383.8 951.987 383.902C951.887 383.96 950.043 385.055 949.875 388.594C950.897 387.346 952.526 387.125 952.614 387.113C952.814 387.088 952.997 387.239 953.023 387.447C953.047 387.659 952.903 387.849 952.702 387.873C952.608 387.886 950.42 388.192 949.905 390.14C949.955 390.766 950.049 391.447 950.205 392.195C950.243 392.382 950.143 392.569 949.972 392.634C949.958 392.64 949.94 392.646 949.922 392.649C949.725 392.695 949.528 392.563 949.486 392.358Z" fill="#BA6D5B"/>
<path d="M999.917 306.907H886.18C881.061 306.907 876.911 311.225 876.911 316.553V328.411H1009.19V316.553C1009.19 311.225 1005.04 306.907 999.917 306.907Z" fill="#8CCBFF"/>
<path d="M1000.41 317.182H987.685C986.908 317.182 986.274 316.526 986.274 315.713V315.48C986.274 314.67 986.908 314.014 987.685 314.014H1000.41C1001.19 314.014 1001.82 314.67 1001.82 315.48V315.713C1001.82 316.526 1001.19 317.182 1000.41 317.182Z" fill="white"/>
<path d="M1000.41 324.044H992.352C991.572 324.044 990.941 323.385 990.941 322.575V322.342C990.941 321.529 991.572 320.873 992.352 320.873H1000.41C1001.19 320.873 1001.82 321.532 1001.82 322.342V322.575C1001.82 323.385 1001.19 324.044 1000.41 324.044Z" fill="white"/>
<path d="M999.919 553.627H886.182C880.671 553.627 876.188 548.962 876.188 543.226V316.554C876.188 310.818 880.671 306.153 886.182 306.153H999.919C1005.43 306.153 1009.91 310.818 1009.91 316.554V543.226C1009.91 548.962 1005.43 553.627 999.919 553.627ZM886.182 307.659C881.469 307.659 877.638 311.649 877.638 316.554V543.226C877.638 548.131 881.469 552.121 886.182 552.121H999.919C1004.63 552.121 1008.46 548.131 1008.46 543.226V316.554C1008.46 311.649 1004.63 307.659 999.919 307.659H886.182Z" fill="white"/>
<path d="M968.692 311.726H917.405C914.262 311.726 911.712 309.069 911.712 305.797V304.558H974.386V305.797C974.386 309.069 971.835 311.726 968.692 311.726Z" fill="#303C72"/>
<path d="M887.325 341.131H772.854C769.176 341.131 766.192 344.238 766.192 348.069V382.642C766.192 386.476 769.176 389.58 772.854 389.58H875.665L893.987 412.471V348.069C893.987 344.238 891.004 341.131 887.325 341.131Z" fill="white"/>
<path d="M841.335 356.862H880.842C881.964 356.862 882.874 355.915 882.874 354.746V353.022C882.874 351.854 881.964 350.906 880.842 350.906H841.335C840.21 350.906 839.3 351.854 839.3 353.022V354.746C839.3 355.915 840.21 356.862 841.335 356.862Z" fill="#D4E7FF"/>
<path d="M777.953 356.862H828.905C830.03 356.862 830.94 355.915 830.94 354.746V353.022C830.94 351.854 830.03 350.906 828.905 350.906H777.953C776.831 350.906 775.921 351.854 775.921 353.022V354.746C775.921 355.915 776.831 356.862 777.953 356.862Z" fill="#D4E7FF"/>
<path d="M856.759 368.506H880.844C881.966 368.506 882.876 367.558 882.876 366.39V364.669C882.876 363.498 881.966 362.55 880.844 362.55H856.759C855.637 362.55 854.724 363.498 854.724 364.669V366.39C854.724 367.558 855.637 368.506 856.759 368.506Z" fill="#D4E7FF"/>
<path d="M833.607 368.506H844.967C846.092 368.506 847.002 367.558 847.002 366.39V364.669C847.002 363.498 846.092 362.55 844.967 362.55H833.607C832.485 362.55 831.575 363.498 831.575 364.669V366.39C831.575 367.558 832.485 368.506 833.607 368.506Z" fill="#D4E7FF"/>
<path d="M777.953 368.506H822.275C823.4 368.506 824.31 367.559 824.31 366.39V364.669C824.31 363.498 823.4 362.55 822.275 362.55H777.953C776.831 362.55 775.921 363.498 775.921 364.669V366.39C775.921 367.559 776.831 368.506 777.953 368.506Z" fill="#D4E7FF"/>
<path d="M867.211 380.151H880.844C881.966 380.151 882.876 379.204 882.876 378.032V376.311C882.876 375.14 881.966 374.192 880.844 374.192H867.211C866.089 374.192 865.179 375.14 865.179 376.311V378.032C865.179 379.204 866.089 380.151 867.211 380.151Z" fill="#D4E7FF"/>
<path d="M777.953 380.151H856.451C857.573 380.151 858.483 379.204 858.483 378.032V376.311C858.483 375.14 857.573 374.192 856.451 374.192H777.953C776.831 374.192 775.921 375.14 775.921 376.311V378.032C775.921 379.204 776.831 380.151 777.953 380.151Z" fill="#D4E7FF"/>
<path d="M856.078 390.586H772.856C768.65 390.586 765.228 387.022 765.228 382.642V348.068C765.228 343.688 768.65 340.127 772.856 340.127H866.233C866.766 340.127 867.196 340.575 867.196 341.13C867.196 341.686 866.766 342.136 866.233 342.136H772.856C769.716 342.136 767.16 344.796 767.16 348.068V382.642C767.16 385.915 769.716 388.577 772.856 388.577H856.078C856.611 388.577 857.044 389.025 857.044 389.58C857.044 390.135 856.611 390.586 856.078 390.586Z" fill="#8CCBFF"/>
<path d="M855.866 282.572H741.398C737.72 282.572 734.736 285.679 734.736 289.51V353.912L753.058 331.022H855.866C859.548 331.022 862.531 327.915 862.531 324.084V289.51C862.531 285.679 859.548 282.572 855.866 282.572Z" fill="white"/>
<path d="M811.066 298.402H748.148C747.023 298.402 746.113 297.454 746.113 296.285V294.562C746.113 293.393 747.023 292.445 748.148 292.445H811.066C812.189 292.445 813.099 293.393 813.099 294.562V296.285C813.099 297.454 812.189 298.402 811.066 298.402Z" fill="#D4E7FF"/>
<path d="M851.037 298.402H823.497C822.375 298.402 821.465 297.454 821.465 296.285V294.562C821.465 293.393 822.375 292.445 823.497 292.445H851.037C852.163 292.445 853.073 293.393 853.073 294.562V296.285C853.073 297.454 852.163 298.402 851.037 298.402Z" fill="#D4E7FF"/>
<path d="M771.453 310.044H748.148C747.026 310.044 746.113 309.096 746.113 307.928V306.204C746.113 305.036 747.026 304.088 748.148 304.088H771.453C772.575 304.088 773.485 305.036 773.485 306.204V307.928C773.485 309.096 772.575 310.044 771.453 310.044Z" fill="#D4E7FF"/>
<path d="M832.23 310.044H784.023C782.901 310.044 781.991 309.097 781.991 307.928V306.204C781.991 305.036 782.901 304.088 784.023 304.088H832.23C833.352 304.088 834.262 305.036 834.262 306.204V307.928C834.262 309.097 833.352 310.044 832.23 310.044Z" fill="#D4E7FF"/>
<path d="M851.035 310.044H843.56C842.435 310.044 841.525 309.096 841.525 307.928V306.204C841.525 305.036 842.435 304.088 843.56 304.088H851.035C852.16 304.088 853.07 305.036 853.07 306.204V307.928C853.07 309.096 852.16 310.044 851.035 310.044Z" fill="#D4E7FF"/>
<path d="M798.384 321.691H748.148C747.026 321.691 746.113 320.74 746.113 319.572V317.851C746.113 316.679 747.026 315.731 748.148 315.731H798.384C799.507 315.731 800.417 316.679 800.417 317.851V319.572C800.417 320.74 799.507 321.691 798.384 321.691Z" fill="#D4E7FF"/>
<path d="M851.037 321.691H809.147C808.022 321.691 807.112 320.74 807.112 319.572V317.851C807.112 316.679 808.022 315.731 809.147 315.731H851.037C852.162 315.731 853.072 316.679 853.072 317.851V319.572C853.072 320.74 852.162 321.691 851.037 321.691Z" fill="#D4E7FF"/>
<path d="M855.865 332.025H766.193C765.66 332.025 765.227 331.577 765.227 331.022C765.227 330.466 765.66 330.016 766.193 330.016H855.865C859.008 330.016 861.564 327.356 861.564 324.084V289.51C861.564 286.237 859.008 283.575 855.865 283.575H741.398C738.258 283.575 735.702 286.237 735.702 289.51V295.424C735.702 295.979 735.269 296.43 734.736 296.43C734.202 296.43 733.77 295.979 733.77 295.424V289.51C733.77 285.13 737.192 281.566 741.398 281.566H855.865C860.074 281.566 863.496 285.13 863.496 289.51V324.084C863.496 328.464 860.074 332.025 855.865 332.025Z" fill="#8CCBFF"/>
</svg>
