<svg width="1695" height="810" viewBox="0 0 1695 810" fill="none" xmlns="http://www.w3.org/2000/svg">
<rect x="0.828125" width="1694.06" height="810" fill="white"/>
<path d="M661.207 603.53H656.988L664.669 581.712H669.548L677.24 603.53H673.021L667.194 586.187H667.024L661.207 603.53ZM661.345 594.976H672.851V598.15H661.345V594.976ZM686.562 610.008C685.177 610.008 683.987 609.819 682.993 609.443C681.999 609.074 681.2 608.576 680.596 607.951C679.992 607.326 679.573 606.634 679.339 605.874L682.812 605.032C682.968 605.352 683.195 605.668 683.494 605.981C683.792 606.3 684.193 606.563 684.698 606.769C685.209 606.982 685.852 607.089 686.626 607.089C687.72 607.089 688.625 606.822 689.342 606.29C690.06 605.764 690.418 604.897 690.418 603.69V600.59H690.227C690.028 600.988 689.737 601.396 689.353 601.815C688.977 602.234 688.476 602.586 687.851 602.87C687.233 603.154 686.455 603.296 685.518 603.296C684.261 603.296 683.121 603.001 682.098 602.412C681.082 601.815 680.273 600.927 679.669 599.748C679.073 598.562 678.774 597.078 678.774 595.295C678.774 593.498 679.073 591.982 679.669 590.746C680.273 589.503 681.086 588.562 682.109 587.923C683.131 587.277 684.271 586.954 685.528 586.954C686.487 586.954 687.276 587.117 687.894 587.444C688.519 587.763 689.016 588.15 689.385 588.605C689.754 589.052 690.035 589.475 690.227 589.873H690.44V587.167H694.243V603.797C694.243 605.196 693.909 606.353 693.242 607.27C692.574 608.186 691.661 608.871 690.504 609.326C689.346 609.78 688.032 610.008 686.562 610.008ZM686.594 600.27C687.411 600.27 688.107 600.071 688.682 599.674C689.257 599.276 689.694 598.704 689.992 597.959C690.291 597.213 690.44 596.318 690.44 595.274C690.44 594.244 690.291 593.342 689.992 592.568C689.701 591.794 689.268 591.194 688.693 590.767C688.124 590.334 687.425 590.118 686.594 590.118C685.734 590.118 685.017 590.341 684.442 590.789C683.867 591.236 683.433 591.851 683.142 592.632C682.851 593.406 682.705 594.287 682.705 595.274C682.705 596.275 682.851 597.152 683.142 597.905C683.44 598.651 683.877 599.233 684.453 599.652C685.035 600.064 685.749 600.27 686.594 600.27ZM708.625 596.648V587.167H712.482V603.53H708.742V600.622H708.572C708.203 601.538 707.595 602.287 706.75 602.87C705.912 603.452 704.879 603.743 703.65 603.743C702.578 603.743 701.629 603.505 700.805 603.03C699.989 602.547 699.35 601.847 698.888 600.931C698.426 600.008 698.195 598.892 698.195 597.586V587.167H702.052V596.989C702.052 598.026 702.336 598.85 702.904 599.461C703.472 600.071 704.218 600.377 705.141 600.377C705.71 600.377 706.26 600.238 706.793 599.961C707.325 599.684 707.762 599.272 708.103 598.726C708.451 598.172 708.625 597.479 708.625 596.648ZM721.156 603.861C720.119 603.861 719.185 603.676 718.354 603.307C717.53 602.93 716.877 602.376 716.394 601.645C715.918 600.913 715.68 600.011 715.68 598.939C715.68 598.015 715.851 597.252 716.192 596.648C716.533 596.044 716.998 595.562 717.587 595.199C718.177 594.837 718.841 594.564 719.579 594.379C720.325 594.187 721.096 594.049 721.891 593.964C722.85 593.864 723.628 593.775 724.224 593.697C724.821 593.612 725.254 593.484 725.524 593.314C725.801 593.136 725.94 592.863 725.94 592.493V592.429C725.94 591.627 725.702 591.005 725.226 590.565C724.75 590.125 724.065 589.905 723.17 589.905C722.225 589.905 721.476 590.111 720.922 590.522C720.375 590.934 720.006 591.421 719.814 591.982L716.213 591.471C716.497 590.476 716.966 589.645 717.619 588.978C718.273 588.303 719.072 587.799 720.016 587.465C720.961 587.124 722.005 586.954 723.148 586.954C723.937 586.954 724.722 587.046 725.503 587.231C726.284 587.415 726.998 587.721 727.644 588.147C728.29 588.566 728.809 589.138 729.199 589.862C729.597 590.586 729.796 591.492 729.796 592.579V603.53H726.089V601.282H725.961C725.726 601.737 725.396 602.163 724.97 602.561C724.551 602.951 724.022 603.267 723.383 603.509C722.751 603.743 722.008 603.861 721.156 603.861ZM722.158 601.027C722.932 601.027 723.603 600.874 724.171 600.569C724.739 600.256 725.176 599.844 725.481 599.333C725.794 598.821 725.95 598.264 725.95 597.66V595.732C725.829 595.831 725.623 595.924 725.332 596.009C725.048 596.094 724.729 596.169 724.373 596.233C724.018 596.297 723.667 596.353 723.319 596.403C722.971 596.453 722.669 596.495 722.413 596.531C721.838 596.609 721.323 596.737 720.869 596.915C720.414 597.092 720.055 597.341 719.793 597.66C719.53 597.973 719.398 598.378 719.398 598.875C719.398 599.585 719.658 600.121 720.176 600.483C720.695 600.846 721.355 601.027 722.158 601.027ZM733.674 603.53V587.167H737.413V589.894H737.584C737.882 588.949 738.393 588.221 739.118 587.71C739.849 587.191 740.684 586.932 741.621 586.932C741.834 586.932 742.072 586.943 742.335 586.964C742.605 586.978 742.829 587.003 743.006 587.039V590.586C742.843 590.53 742.584 590.48 742.229 590.437C741.881 590.388 741.543 590.363 741.217 590.363C740.513 590.363 739.881 590.515 739.32 590.821C738.766 591.119 738.329 591.535 738.01 592.067C737.69 592.6 737.53 593.214 737.53 593.91V603.53H733.674ZM750.967 603.818C749.682 603.818 748.531 603.488 747.515 602.827C746.5 602.167 745.697 601.208 745.108 599.951C744.518 598.694 744.223 597.167 744.223 595.37C744.223 593.552 744.522 592.017 745.118 590.767C745.722 589.51 746.535 588.562 747.558 587.923C748.581 587.277 749.721 586.954 750.978 586.954C751.937 586.954 752.725 587.117 753.343 587.444C753.961 587.763 754.451 588.15 754.813 588.605C755.175 589.052 755.456 589.475 755.655 589.873H755.814V581.712H759.682V603.53H755.889V600.952H755.655C755.456 601.35 755.168 601.772 754.792 602.22C754.415 602.66 753.918 603.037 753.3 603.349C752.682 603.662 751.905 603.818 750.967 603.818ZM752.043 600.654C752.86 600.654 753.556 600.434 754.131 599.993C754.706 599.546 755.143 598.924 755.441 598.129C755.74 597.334 755.889 596.407 755.889 595.348C755.889 594.29 755.74 593.37 755.441 592.589C755.15 591.808 754.717 591.201 754.142 590.767C753.574 590.334 752.874 590.118 752.043 590.118C751.184 590.118 750.466 590.341 749.891 590.789C749.316 591.236 748.883 591.854 748.591 592.642C748.3 593.431 748.155 594.333 748.155 595.348C748.155 596.371 748.3 597.284 748.591 598.086C748.89 598.882 749.326 599.51 749.902 599.972C750.484 600.427 751.198 600.654 752.043 600.654ZM768.5 603.861C767.463 603.861 766.529 603.676 765.698 603.307C764.874 602.93 764.221 602.376 763.738 601.645C763.262 600.913 763.024 600.011 763.024 598.939C763.024 598.015 763.195 597.252 763.535 596.648C763.876 596.044 764.342 595.562 764.931 595.199C765.521 594.837 766.185 594.564 766.923 594.379C767.669 594.187 768.44 594.049 769.235 593.964C770.194 593.864 770.972 593.775 771.568 593.697C772.165 593.612 772.598 593.484 772.868 593.314C773.145 593.136 773.283 592.863 773.283 592.493V592.429C773.283 591.627 773.045 591.005 772.57 590.565C772.094 590.125 771.408 589.905 770.513 589.905C769.569 589.905 768.82 590.111 768.266 590.522C767.719 590.934 767.349 591.421 767.158 591.982L763.557 591.471C763.841 590.476 764.31 589.645 764.963 588.978C765.616 588.303 766.415 587.799 767.36 587.465C768.305 587.124 769.349 586.954 770.492 586.954C771.28 586.954 772.065 587.046 772.847 587.231C773.628 587.415 774.342 587.721 774.988 588.147C775.634 588.566 776.153 589.138 776.543 589.862C776.941 590.586 777.14 591.492 777.14 592.579V603.53H773.432V601.282H773.305C773.07 601.737 772.74 602.163 772.314 602.561C771.895 602.951 771.366 603.267 770.726 603.509C770.094 603.743 769.352 603.861 768.5 603.861ZM769.501 601.027C770.275 601.027 770.947 600.874 771.515 600.569C772.083 600.256 772.52 599.844 772.825 599.333C773.138 598.821 773.294 598.264 773.294 597.66V595.732C773.173 595.831 772.967 595.924 772.676 596.009C772.392 596.094 772.072 596.169 771.717 596.233C771.362 596.297 771.011 596.353 770.663 596.403C770.315 596.453 770.013 596.495 769.757 596.531C769.182 596.609 768.667 596.737 768.212 596.915C767.758 597.092 767.399 597.341 767.136 597.66C766.873 597.973 766.742 598.378 766.742 598.875C766.742 599.585 767.001 600.121 767.52 600.483C768.038 600.846 768.699 601.027 769.501 601.027ZM784.874 593.942V603.53H781.018V587.167H784.704V589.947H784.896C785.272 589.031 785.872 588.303 786.696 587.763C787.527 587.223 788.553 586.954 789.775 586.954C790.904 586.954 791.888 587.195 792.726 587.678C793.571 588.161 794.224 588.861 794.686 589.777C795.155 590.693 795.386 591.804 795.378 593.111V603.53H791.522V593.708C791.522 592.614 791.238 591.758 790.67 591.14C790.109 590.522 789.331 590.214 788.337 590.214C787.662 590.214 787.062 590.363 786.536 590.661C786.018 590.952 785.609 591.375 785.311 591.929C785.02 592.483 784.874 593.154 784.874 593.942ZM805.371 603.818C804.086 603.818 802.935 603.488 801.92 602.827C800.904 602.167 800.101 601.208 799.512 599.951C798.922 598.694 798.628 597.167 798.628 595.37C798.628 593.552 798.926 592.017 799.523 590.767C800.126 589.51 800.94 588.562 801.962 587.923C802.985 587.277 804.125 586.954 805.382 586.954C806.341 586.954 807.129 587.117 807.747 587.444C808.365 587.763 808.855 588.15 809.217 588.605C809.579 589.052 809.86 589.475 810.059 589.873H810.219V581.712H814.086V603.53H810.293V600.952H810.059C809.86 601.35 809.572 601.772 809.196 602.22C808.82 602.66 808.322 603.037 807.704 603.349C807.087 603.662 806.309 603.818 805.371 603.818ZM806.447 600.654C807.264 600.654 807.96 600.434 808.535 599.993C809.111 599.546 809.547 598.924 809.846 598.129C810.144 597.334 810.293 596.407 810.293 595.348C810.293 594.29 810.144 593.37 809.846 592.589C809.555 591.808 809.121 591.201 808.546 590.767C807.978 590.334 807.278 590.118 806.447 590.118C805.588 590.118 804.871 590.341 804.295 590.789C803.72 591.236 803.287 591.854 802.996 592.642C802.704 593.431 802.559 594.333 802.559 595.348C802.559 596.371 802.704 597.284 802.996 598.086C803.294 598.882 803.731 599.51 804.306 599.972C804.888 600.427 805.602 600.654 806.447 600.654ZM825.333 603.85C823.735 603.85 822.35 603.498 821.178 602.795C820.006 602.092 819.097 601.108 818.451 599.844C817.812 598.58 817.492 597.103 817.492 595.412C817.492 593.722 817.812 592.241 818.451 590.97C819.097 589.699 820.006 588.711 821.178 588.008C822.35 587.305 823.735 586.954 825.333 586.954C826.931 586.954 828.316 587.305 829.488 588.008C830.66 588.711 831.565 589.699 832.205 590.97C832.851 592.241 833.174 593.722 833.174 595.412C833.174 597.103 832.851 598.58 832.205 599.844C831.565 601.108 830.66 602.092 829.488 602.795C828.316 603.498 826.931 603.85 825.333 603.85ZM825.354 600.76C826.221 600.76 826.945 600.522 827.528 600.047C828.11 599.564 828.543 598.917 828.828 598.108C829.119 597.298 829.264 596.396 829.264 595.402C829.264 594.4 829.119 593.495 828.828 592.685C828.543 591.868 828.11 591.218 827.528 590.736C826.945 590.253 826.221 590.011 825.354 590.011C824.467 590.011 823.728 590.253 823.139 590.736C822.556 591.218 822.119 591.868 821.828 592.685C821.544 593.495 821.402 594.4 821.402 595.402C821.402 596.396 821.544 597.298 821.828 598.108C822.119 598.917 822.556 599.564 823.139 600.047C823.728 600.522 824.467 600.76 825.354 600.76ZM843.889 603.53V587.167H847.628V589.894H847.799C848.097 588.949 848.608 588.221 849.333 587.71C850.064 587.191 850.899 586.932 851.836 586.932C852.049 586.932 852.287 586.943 852.55 586.964C852.82 586.978 853.044 587.003 853.221 587.039V590.586C853.058 590.53 852.799 590.48 852.443 590.437C852.095 590.388 851.758 590.363 851.431 590.363C850.728 590.363 850.096 590.515 849.535 590.821C848.981 591.119 848.544 591.535 848.225 592.067C847.905 592.6 847.745 593.214 847.745 593.91V603.53H843.889ZM862.354 603.85C860.713 603.85 859.296 603.509 858.103 602.827C856.917 602.138 856.004 601.165 855.365 599.908C854.726 598.644 854.406 597.156 854.406 595.444C854.406 593.761 854.726 592.284 855.365 591.013C856.011 589.734 856.913 588.74 858.071 588.03C859.229 587.312 860.589 586.954 862.151 586.954C863.16 586.954 864.112 587.117 865.006 587.444C865.908 587.763 866.704 588.26 867.393 588.935C868.089 589.61 868.636 590.469 869.033 591.513C869.431 592.55 869.63 593.786 869.63 595.221V596.403H856.217V593.804H865.933C865.926 593.065 865.766 592.408 865.454 591.833C865.141 591.25 864.705 590.792 864.144 590.459C863.59 590.125 862.943 589.958 862.205 589.958C861.416 589.958 860.724 590.15 860.127 590.533C859.531 590.91 859.065 591.407 858.732 592.025C858.405 592.635 858.238 593.307 858.231 594.038V596.307C858.231 597.259 858.405 598.076 858.753 598.758C859.101 599.432 859.587 599.951 860.212 600.313C860.837 600.668 861.569 600.846 862.407 600.846C862.968 600.846 863.476 600.767 863.93 600.611C864.385 600.448 864.779 600.21 865.113 599.897C865.447 599.585 865.699 599.198 865.869 598.736L869.47 599.141C869.243 600.093 868.81 600.924 868.171 601.634C867.538 602.337 866.729 602.884 865.742 603.275C864.754 603.658 863.625 603.85 862.354 603.85ZM885.826 591.492L882.31 591.875C882.211 591.52 882.037 591.187 881.788 590.874C881.547 590.562 881.22 590.309 880.808 590.118C880.396 589.926 879.892 589.83 879.295 589.83C878.493 589.83 877.818 590.004 877.271 590.352C876.731 590.7 876.465 591.151 876.472 591.705C876.465 592.181 876.639 592.568 876.994 592.866C877.356 593.165 877.953 593.41 878.784 593.601L881.575 594.198C883.123 594.532 884.274 595.061 885.027 595.785C885.787 596.51 886.17 597.458 886.177 598.63C886.17 599.66 885.869 600.569 885.272 601.357C884.682 602.138 883.862 602.749 882.811 603.189C881.76 603.63 880.552 603.85 879.189 603.85C877.186 603.85 875.574 603.431 874.352 602.593C873.131 601.748 872.403 600.572 872.168 599.066L875.929 598.704C876.099 599.443 876.462 600 877.016 600.377C877.57 600.753 878.29 600.941 879.178 600.941C880.094 600.941 880.829 600.753 881.383 600.377C881.945 600 882.225 599.535 882.225 598.981C882.225 598.513 882.044 598.125 881.682 597.82C881.327 597.515 880.773 597.28 880.02 597.117L877.229 596.531C875.659 596.204 874.498 595.654 873.745 594.88C872.992 594.098 872.619 593.111 872.626 591.918C872.619 590.91 872.893 590.036 873.447 589.297C874.008 588.552 874.785 587.976 875.78 587.571C876.781 587.16 877.935 586.954 879.242 586.954C881.16 586.954 882.669 587.362 883.77 588.179C884.878 588.995 885.563 590.1 885.826 591.492ZM889.358 609.667V587.167H893.15V589.873H893.374C893.573 589.475 893.853 589.052 894.215 588.605C894.578 588.15 895.068 587.763 895.686 587.444C896.304 587.117 897.092 586.954 898.051 586.954C899.315 586.954 900.455 587.277 901.47 587.923C902.493 588.562 903.303 589.51 903.899 590.767C904.503 592.017 904.805 593.552 904.805 595.37C904.805 597.167 904.51 598.694 903.921 599.951C903.331 601.208 902.529 602.167 901.513 602.827C900.497 603.488 899.347 603.818 898.061 603.818C897.124 603.818 896.346 603.662 895.728 603.349C895.11 603.037 894.613 602.66 894.237 602.22C893.867 601.772 893.58 601.35 893.374 600.952H893.214V609.667H889.358ZM893.139 595.348C893.139 596.407 893.289 597.334 893.587 598.129C893.892 598.924 894.329 599.546 894.897 599.993C895.473 600.434 896.169 600.654 896.985 600.654C897.838 600.654 898.551 600.427 899.127 599.972C899.702 599.51 900.135 598.882 900.426 598.086C900.725 597.284 900.874 596.371 900.874 595.348C900.874 594.333 900.728 593.431 900.437 592.642C900.146 591.854 899.713 591.236 899.137 590.789C898.562 590.341 897.845 590.118 896.985 590.118C896.161 590.118 895.462 590.334 894.887 590.767C894.311 591.201 893.875 591.808 893.576 592.589C893.285 593.37 893.139 594.29 893.139 595.348ZM915.245 603.85C913.647 603.85 912.262 603.498 911.09 602.795C909.919 602.092 909.009 601.108 908.363 599.844C907.724 598.58 907.404 597.103 907.404 595.412C907.404 593.722 907.724 592.241 908.363 590.97C909.009 589.699 909.919 588.711 911.09 588.008C912.262 587.305 913.647 586.954 915.245 586.954C916.843 586.954 918.228 587.305 919.4 588.008C920.572 588.711 921.478 589.699 922.117 590.97C922.763 592.241 923.086 593.722 923.086 595.412C923.086 597.103 922.763 598.58 922.117 599.844C921.478 601.108 920.572 602.092 919.4 602.795C918.228 603.498 916.843 603.85 915.245 603.85ZM915.267 600.76C916.133 600.76 916.858 600.522 917.44 600.047C918.022 599.564 918.456 598.917 918.74 598.108C919.031 597.298 919.176 596.396 919.176 595.402C919.176 594.4 919.031 593.495 918.74 592.685C918.456 591.868 918.022 591.218 917.44 590.736C916.858 590.253 916.133 590.011 915.267 590.011C914.379 590.011 913.64 590.253 913.051 590.736C912.468 591.218 912.032 591.868 911.74 592.685C911.456 593.495 911.314 594.4 911.314 595.402C911.314 596.396 911.456 597.298 911.74 598.108C912.032 598.917 912.468 599.564 913.051 600.047C913.64 600.522 914.379 600.76 915.267 600.76ZM939.293 591.492L935.777 591.875C935.678 591.52 935.504 591.187 935.255 590.874C935.014 590.562 934.687 590.309 934.275 590.118C933.863 589.926 933.359 589.83 932.762 589.83C931.96 589.83 931.285 590.004 930.738 590.352C930.198 590.7 929.932 591.151 929.939 591.705C929.932 592.181 930.106 592.568 930.461 592.866C930.823 593.165 931.42 593.41 932.251 593.601L935.042 594.198C936.59 594.532 937.741 595.061 938.494 595.785C939.254 596.51 939.637 597.458 939.644 598.63C939.637 599.66 939.335 600.569 938.739 601.357C938.149 602.138 937.329 602.749 936.278 603.189C935.227 603.63 934.019 603.85 932.656 603.85C930.653 603.85 929.041 603.431 927.819 602.593C926.597 601.748 925.869 600.572 925.635 599.066L929.396 598.704C929.566 599.443 929.928 600 930.482 600.377C931.036 600.753 931.757 600.941 932.645 600.941C933.561 600.941 934.296 600.753 934.85 600.377C935.411 600 935.692 599.535 935.692 598.981C935.692 598.513 935.511 598.125 935.149 597.82C934.793 597.515 934.239 597.28 933.487 597.117L930.695 596.531C929.126 596.204 927.965 595.654 927.212 594.88C926.459 594.098 926.086 593.111 926.093 591.918C926.086 590.91 926.359 590.036 926.913 589.297C927.475 588.552 928.252 587.976 929.247 587.571C930.248 587.16 931.402 586.954 932.709 586.954C934.627 586.954 936.136 587.362 937.237 588.179C938.345 588.995 939.03 590.1 939.293 591.492ZM950.995 587.167V590.15H941.589V587.167H950.995ZM943.911 583.246H947.767V598.608C947.767 599.127 947.846 599.525 948.002 599.802C948.165 600.071 948.378 600.256 948.641 600.356C948.904 600.455 949.195 600.505 949.515 600.505C949.756 600.505 949.976 600.487 950.175 600.451C950.381 600.416 950.537 600.384 950.644 600.356L951.294 603.37C951.088 603.441 950.793 603.52 950.41 603.605C950.033 603.69 949.571 603.74 949.025 603.754C948.059 603.782 947.189 603.637 946.415 603.317C945.64 602.991 945.026 602.486 944.571 601.804C944.124 601.123 943.904 600.27 943.911 599.248V583.246ZM958.93 603.861C957.893 603.861 956.959 603.676 956.128 603.307C955.304 602.93 954.65 602.376 954.168 601.645C953.692 600.913 953.454 600.011 953.454 598.939C953.454 598.015 953.624 597.252 953.965 596.648C954.306 596.044 954.771 595.562 955.361 595.199C955.95 594.837 956.614 594.564 957.353 594.379C958.099 594.187 958.869 594.049 959.665 593.964C960.623 593.864 961.401 593.775 961.998 593.697C962.594 593.612 963.028 593.484 963.297 593.314C963.574 593.136 963.713 592.863 963.713 592.493V592.429C963.713 591.627 963.475 591.005 962.999 590.565C962.523 590.125 961.838 589.905 960.943 589.905C959.998 589.905 959.249 590.111 958.695 590.522C958.148 590.934 957.779 591.421 957.587 591.982L953.986 591.471C954.271 590.476 954.739 589.645 955.393 588.978C956.046 588.303 956.845 587.799 957.79 587.465C958.734 587.124 959.778 586.954 960.922 586.954C961.71 586.954 962.495 587.046 963.276 587.231C964.057 587.415 964.771 587.721 965.418 588.147C966.064 588.566 966.582 589.138 966.973 589.862C967.371 590.586 967.57 591.492 967.57 592.579V603.53H963.862V601.282H963.734C963.5 601.737 963.17 602.163 962.744 602.561C962.324 602.951 961.795 603.267 961.156 603.509C960.524 603.743 959.782 603.861 958.93 603.861ZM959.931 601.027C960.705 601.027 961.376 600.874 961.945 600.569C962.513 600.256 962.949 599.844 963.255 599.333C963.567 598.821 963.724 598.264 963.724 597.66V595.732C963.603 595.831 963.397 595.924 963.106 596.009C962.822 596.094 962.502 596.169 962.147 596.233C961.792 596.297 961.44 596.353 961.092 596.403C960.744 596.453 960.442 596.495 960.187 596.531C959.611 596.609 959.097 596.737 958.642 596.915C958.187 597.092 957.829 597.341 957.566 597.66C957.303 597.973 957.172 598.378 957.172 598.875C957.172 599.585 957.431 600.121 957.949 600.483C958.468 600.846 959.128 601.027 959.931 601.027ZM973.823 603.765C973.177 603.765 972.623 603.537 972.161 603.083C971.699 602.628 971.472 602.074 971.479 601.421C971.472 600.782 971.699 600.235 972.161 599.78C972.623 599.326 973.177 599.098 973.823 599.098C974.448 599.098 974.991 599.326 975.453 599.78C975.922 600.235 976.16 600.782 976.167 601.421C976.16 601.854 976.046 602.248 975.826 602.603C975.613 602.959 975.329 603.243 974.974 603.456C974.626 603.662 974.242 603.765 973.823 603.765ZM982.524 603.765C981.878 603.765 981.324 603.537 980.862 603.083C980.401 602.628 980.173 602.074 980.18 601.421C980.173 600.782 980.401 600.235 980.862 599.78C981.324 599.326 981.878 599.098 982.524 599.098C983.149 599.098 983.693 599.326 984.154 599.78C984.623 600.235 984.861 600.782 984.868 601.421C984.861 601.854 984.747 602.248 984.527 602.603C984.314 602.959 984.03 603.243 983.675 603.456C983.327 603.662 982.943 603.765 982.524 603.765ZM991.225 603.765C990.579 603.765 990.025 603.537 989.563 603.083C989.102 602.628 988.875 602.074 988.882 601.421C988.875 600.782 989.102 600.235 989.563 599.78C990.025 599.326 990.579 599.098 991.225 599.098C991.85 599.098 992.394 599.326 992.855 599.78C993.324 600.235 993.562 600.782 993.569 601.421C993.562 601.854 993.448 602.248 993.228 602.603C993.015 602.959 992.731 603.243 992.376 603.456C992.028 603.662 991.644 603.765 991.225 603.765Z" fill="#5A7DA0"/>
<path d="M1048.95 409.673C1046.04 476.916 992.813 529.851 928.191 529.851H657.369C619.038 529.851 592.704 489.567 606.894 452.481C625.809 401.811 687.444 439.306 659.204 396.694C631.831 355.38 615.533 304.965 638.893 280.681C692.966 224.47 756.797 299.021 791.883 288.22C803.074 284.538 847.508 255.431 864.787 250.216C974.898 208.899 1058.4 306.679 1048.95 409.673Z" fill="#E3F0FF"/>
<path d="M625.228 393.296C628.221 387.162 601.745 355.899 589.585 363.868C577.425 371.837 576.162 388.01 594.293 393.88C611.43 399.427 622.238 399.43 625.228 393.296Z" fill="#E3F0FF"/>
<path d="M684.498 262.093L680.787 239.976C680.702 239.484 680.227 239.149 679.721 239.229C679.218 239.312 678.875 239.777 678.957 240.269L682.583 261.873L666.928 274.63C666.534 274.951 666.479 275.523 666.807 275.908C666.991 276.122 667.255 276.234 667.521 276.234C667.731 276.234 667.94 276.166 668.112 276.024L684.174 262.935C684.428 262.73 684.549 262.407 684.498 262.093Z" fill="#C7DEFF"/>
<path d="M709.177 273.327L687.617 265.755C687.308 265.649 686.962 265.708 686.711 265.912L670.649 279.002C670.256 279.322 670.201 279.894 670.528 280.279C670.713 280.493 670.977 280.606 671.24 280.606C671.449 280.606 671.661 280.537 671.834 280.395L687.49 267.638L708.549 275.035C709.031 275.204 709.561 274.958 709.734 274.486C709.907 274.015 709.658 273.496 709.177 273.327Z" fill="#C7DEFF"/>
<path d="M677.559 260.641C677.635 261.086 678.026 261.4 678.471 261.4C678.523 261.4 678.571 261.397 678.623 261.389C679.128 261.308 679.471 260.843 679.386 260.348L676.548 243.429C676.466 242.937 675.987 242.602 675.484 242.682C674.978 242.765 674.636 243.23 674.721 243.722L677.559 260.641Z" fill="#C7DEFF"/>
<path d="M704.933 276.78L688.439 270.987C687.957 270.818 687.43 271.064 687.255 271.535C687.082 272.007 687.333 272.526 687.815 272.695L704.309 278.487C704.412 278.523 704.518 278.541 704.621 278.541C705 278.541 705.357 278.31 705.494 277.939C705.666 277.468 705.415 276.949 704.933 276.78Z" fill="#C7DEFF"/>
<path d="M892.079 400.874L869.659 396.291C869.156 396.187 868.665 396.501 868.562 396.993C868.456 397.483 868.777 397.963 869.277 398.064L891.182 402.543L897.698 421.432C897.862 421.906 898.389 422.161 898.874 422.001C899.143 421.909 899.346 421.71 899.44 421.467C899.516 421.277 899.525 421.061 899.455 420.851L892.767 401.473C892.661 401.168 892.4 400.942 892.079 400.874Z" fill="#C7DEFF"/>
<path d="M911.688 382.404L896.699 399.35C896.484 399.594 896.417 399.929 896.52 400.234L903.209 419.611C903.373 420.086 903.9 420.341 904.384 420.181C904.654 420.092 904.857 419.89 904.951 419.647C905.027 419.457 905.036 419.241 904.966 419.03L898.447 400.145L913.088 383.59C913.424 383.211 913.381 382.641 912.994 382.312C912.609 381.986 912.024 382.028 911.688 382.404Z" fill="#C7DEFF"/>
<path d="M913.452 387.518L901.983 400.483C901.647 400.862 901.689 401.434 902.077 401.76C902.464 402.09 903.049 402.048 903.382 401.669L914.851 388.704C914.924 388.624 914.978 388.532 915.015 388.437C915.151 388.091 915.06 387.684 914.757 387.426C914.369 387.1 913.785 387.139 913.452 387.518Z" fill="#C7DEFF"/>
<path d="M773.33 478.592C773.33 478.592 666.958 201.139 590.737 272.494C576.151 290.478 593.248 321.204 624.657 356.837C656.065 392.467 747.42 485.094 760.365 499.79L773.33 478.592Z" fill="#5A789F"/>
<path d="M773.329 478.592C773.329 478.592 707.498 306.89 642.304 268.375C643.746 272.052 644.631 276.022 643.24 278.542C640.053 284.317 625.682 286.964 621.574 296.546C618.06 304.75 623.643 336.416 611.035 340.507C615.179 345.811 619.741 351.263 624.655 356.837C656.063 392.467 747.419 485.094 760.363 499.79L773.329 478.592Z" fill="#5A789F"/>
<path d="M602.998 274.738C610.399 280.569 617.484 286.786 624.443 293.116C665.015 330.433 700.961 372.802 729.855 419.425C735.41 428.447 740.83 437.913 745.74 447.291C747.806 451.198 750.112 455.835 752.051 459.808C753.305 462.44 755.08 466.214 756.27 468.877L757.091 470.697L757.888 472.532L758.685 474.364L759.475 476.2C749.991 457.092 739.436 438.542 727.861 420.629C716.301 402.704 703.805 385.378 690.567 368.607C670.695 343.457 649.205 319.514 626.391 296.866C618.781 289.333 611.008 281.862 602.998 274.738Z" fill="#5AA5D1"/>
<path d="M614.132 406.52C614.132 406.52 593.618 398.328 579.728 414.382C568.017 427.922 586.817 464.679 606.232 482.47C606.232 482.47 587.186 494.145 586.541 507.596C585.896 521.044 608.31 535.239 640.036 539.253L643.241 425.195L614.132 406.52Z" fill="#5A789F"/>
<path d="M611.797 405.769C613.714 416.705 615.111 433.684 618.07 452.155C622.72 481.179 633.369 523.311 597.107 524.266C606.574 531.247 621.757 536.94 640.036 539.252L643.241 425.193L614.132 406.519C614.132 406.519 613.275 406.175 611.797 405.769Z" fill="#5A789F"/>
<path d="M589.489 416.605C604.735 431.85 619.437 447.699 633.914 463.643C638.118 468.253 642.587 473.059 646.673 477.755C654.534 486.86 662.129 496.267 669.227 505.956C669.596 506.472 669.969 506.982 670.335 507.5L670.105 507.687C659.46 496.896 649.173 485.481 639.376 473.949C636.283 470.249 632.699 466.015 629.555 462.357C619.63 450.877 609.6 439.392 599.479 428.081C596.099 424.304 592.706 420.536 589.273 416.807L589.489 416.605Z" fill="#5AA5D1"/>
<path d="M599.324 507.45C607.097 507.96 614.94 507.604 622.649 506.563C626.488 506.036 630.296 505.345 634.025 504.319C637.109 503.465 640.129 502.419 643.146 501.372C646.46 500.216 649.723 498.912 652.897 497.42C654.957 496.451 656.936 495.41 658.953 494.334L659.138 494.562C658.141 495.627 657.014 496.649 655.872 497.563C650.825 501.565 644.821 504.429 638.529 505.979C628.272 508.449 617.63 509.285 607.103 508.585C604.483 508.408 601.874 508.156 599.284 507.737L599.324 507.45Z" fill="#5AA5D1"/>
<mask id="mask0_1949_925" style="mask-type:luminance" maskUnits="userSpaceOnUse" x="630" y="289" width="151" height="253">
<path d="M630.793 289.669H780.467V541.007H630.793V289.669Z" fill="white"/>
</mask>
<g mask="url(#mask0_1949_925)">
<path d="M768.516 540.975H642.835C636.494 540.975 631.354 535.946 631.354 529.741V301.312C631.354 295.107 636.494 290.076 642.835 290.076H768.516C774.859 290.076 780 295.107 780 301.312V529.741C780 535.946 774.859 540.975 768.516 540.975Z" fill="#303C72"/>
</g>
<path d="M764.168 534.402H647.178C641.913 534.402 637.645 530.225 637.645 525.075V305.976C637.645 300.827 641.913 296.652 647.178 296.652H764.168C769.433 296.652 773.698 300.827 773.698 305.976V525.075C773.698 530.225 769.433 534.402 764.168 534.402Z" fill="#D4EBFF"/>
<path d="M764.168 296.652H647.178C641.913 296.652 637.645 300.827 637.645 305.976V317.438H773.698V305.976C773.698 300.827 769.433 296.652 764.168 296.652Z" fill="#8CCBFF"/>
<path d="M733.484 408.201C733.484 408.201 747.041 398.98 757.643 416.256C768.249 433.534 779.951 467.824 783.262 478.482C786.573 489.138 773.832 494.797 765.953 486.665C758.07 478.533 738.489 441.631 734.008 432.553C729.528 423.475 726.796 413.333 733.484 408.201Z" fill="#9E5959"/>
<path d="M769.272 472.566L780.181 469.086C779.148 466.065 776.627 459.012 776.627 459.012C776.627 459.012 770.575 466.566 769.272 472.566Z" fill="#914D4D"/>
<path d="M756.566 473.334C756.514 469.8 756.481 464.179 756.639 458.469C756.896 449.068 755.381 427.847 755.381 427.847L742.628 448.985C746.893 456.851 751.983 465.902 756.566 473.334Z" fill="#914D4D"/>
<path d="M735.279 405.742C735.279 405.742 723.737 410.699 729.526 425.493C735.315 440.29 753.906 471.058 759.471 480.409C765.036 489.759 773.003 494.203 779.068 491.055C785.133 487.903 785.478 482.422 783.061 474.017C780.64 465.615 764.794 427.139 760.804 419.273C756.811 411.411 746.651 399.721 735.279 405.742Z" fill="white"/>
<path d="M775.552 453.935C772.017 458.473 767.576 469.564 767.576 469.564L779.678 464.471C778.478 461.322 777.064 457.714 775.552 453.935Z" fill="#D4EBFF"/>
<path d="M759.417 480.311C759.532 473.596 759.723 458.571 759.353 450.113C758.872 438.986 756.669 425.494 756.669 425.494L747.933 460.839C752.737 469.164 757.133 476.475 759.417 480.311Z" fill="#D4EBFF"/>
<path d="M809.325 430.159C809.325 430.159 818.592 433.542 823.566 444.547L819.107 448.134L806.647 435.789L809.325 430.159Z" fill="#ABD3FC"/>
<path d="M771.608 489.98C775.819 491.406 780.496 490.137 783.489 486.905C791.605 478.138 818.336 448.966 823.849 439.206C830.371 427.664 821.804 425.995 813.834 433.155C805.867 440.314 792.832 451.156 786.758 456.152C776.87 464.287 767.225 470.344 764.129 476.505C761.96 480.816 765.304 487.845 771.608 489.98Z" fill="#9E5959"/>
<path d="M816.171 449.845C812.024 454.684 803.987 445.535 806.747 441.037C806.793 440.966 815.029 430.963 816.138 427.201C817.304 423.237 816.735 421.316 820.903 417.8C824.451 414.811 826.82 412.781 828.604 413.059C830.494 413.356 828.861 415.825 826.941 417.486C824.863 419.285 821.724 424.592 824.69 424.447C827.053 424.328 834.635 422.786 836.925 421.784C840.658 420.151 849.997 411.292 852.196 415.965C852.196 415.965 854.617 415.57 854.453 418.31C854.453 418.31 857.38 419.226 854.72 422.609C854.72 422.609 856.425 424.121 854.723 426.065C853.569 427.385 848.519 431.885 845.168 434.42C841.821 436.955 828.271 438.609 823.475 441.443C821.948 442.348 817.12 448.74 816.171 449.845Z" fill="#F6AF9A"/>
<path d="M823.485 423.569C823.703 426.385 824.67 428.668 823.716 431.496C826.075 429.264 824 425.946 823.485 423.569Z" fill="#E57E73"/>
<path d="M854.718 422.608C853.319 422.385 852.237 423.503 851.226 424.256C848.075 426.58 845.109 429.252 841.808 431.306C845.73 430.384 848.36 426.856 851.447 424.511C852.337 423.625 853.552 422.635 854.718 422.608Z" fill="#E57E73"/>
<path d="M854.455 418.31C851.498 418.57 849.356 420.859 847.06 422.454C844.734 424.019 842.665 426.332 840.326 427.604C841.786 427.435 843.031 426.492 844.131 425.594C847.484 423.172 850.468 419.362 854.455 418.31Z" fill="#E57E73"/>
<path d="M852.197 415.965C846.829 416.739 843.309 421.583 838.865 424.112C843.985 422.823 847.032 416.956 852.197 415.965Z" fill="#E57E73"/>
<path d="M839.75 432.281C834.104 430.508 826.512 429.322 821.59 433.292C827 430.185 833.84 431.436 839.75 432.281Z" fill="#EA9A88"/>
<path d="M838.504 423.964C839.528 424.833 839.855 426.176 840.176 427.412C841.2 428.355 841.403 429.891 841.66 431.189C842.182 431.563 842.194 432.301 842.2 432.876C842.057 432.289 841.836 431.657 841.309 431.364C840.882 430.214 840.609 428.696 839.691 427.848C839.125 426.751 839.152 425.198 838.21 424.246C837.916 423.644 837.738 422.933 837.223 422.44C837.813 422.778 838.204 423.368 838.504 423.964Z" fill="#EA9A88"/>
<path d="M809.325 430.159C809.325 430.159 812.906 441.588 823.566 444.547C823.566 444.547 793.343 481.238 785.478 487.627C777.617 494.019 765.803 491.138 761.61 481.71C757.572 472.629 809.325 430.159 809.325 430.159Z" fill="white"/>
<path d="M721.43 511.352C708.234 515.591 702.885 525.259 701.285 534.402H751.778C750.721 528.482 749.53 524.017 748.201 521.713C739.855 507.242 721.43 511.352 721.43 511.352Z" fill="#F6AF9A"/>
<path d="M721.872 504.977C706.522 507.983 698.698 518.191 698.18 534.402H755.595C755.507 533.788 755.419 533.192 755.331 532.614C751.063 504.728 721.872 504.977 721.872 504.977Z" fill="#384682"/>
<path d="M683.624 469.99C685.478 490.518 679.867 502.925 677.465 515.407C676.199 521.991 675.859 528.493 676.738 534.402H744.868C749.054 524.903 748.318 515.543 748.455 510.479C748.688 501.956 749.391 487.722 749.391 487.722C751.872 450.079 681.773 449.459 683.624 469.99Z" fill="#F6AF9A"/>
<path d="M679.137 504.244C679.137 504.244 672.542 520.197 674.977 534.401H746.067C749.935 521.496 749.648 504.976 749.648 504.976C740.587 506.405 679.137 504.244 679.137 504.244Z" fill="#384682"/>
<path d="M674.246 534.401H724.436C724.2 511.363 704.706 509.815 704.706 509.815C689.39 508.238 678.036 512.78 674.246 534.401Z" fill="#F6AF9A"/>
<path d="M671.656 534.349C671.653 534.367 671.653 534.385 671.65 534.402H729.805C729.483 517.907 718.72 507.249 700.723 505.001C700.723 505.001 674.977 503.086 671.656 534.349Z" fill="#384682"/>
<path d="M698.05 398.093C710.291 396.083 720.061 397.726 731.585 401.029C739.294 403.237 747.555 405.366 751.287 410.471C757.84 419.434 754.853 441.574 753.178 451.823C751.503 462.069 750.233 483.498 749.315 489.004C748.397 494.509 723.436 503.151 708.156 500.901C696.441 499.176 685.72 493.558 684.194 483.059C682.397 470.679 679.338 452.929 675.787 442.143C672.237 431.361 666.66 408.903 684.248 401.387C687.547 399.979 694.827 398.621 698.05 398.093Z" fill="#F6AF9A"/>
<path d="M726.935 386.679C726.935 386.679 726.538 397.864 729.073 402.99C731.606 408.114 722.933 411.301 717.295 411.253C711.658 411.206 703 408.116 701.988 401.473C700.979 394.826 705.133 397.34 704.348 379.276C703.736 365.149 728.513 372.759 726.935 386.679Z" fill="#F6AF9A"/>
<path d="M728.279 400.897C726.628 395.327 726.934 386.679 726.934 386.679C728.185 375.627 712.823 368.553 706.75 373.184C706.501 374.758 706.386 376.531 706.435 378.532C706.459 379.573 716.801 399.109 728.279 400.897Z" fill="#EA9A88"/>
<path d="M754.377 507.282C753.547 501.169 754.377 471.213 754.495 466.917C754.613 462.618 756.882 440.092 756.64 433.359C756.395 426.624 754.48 413.131 752.769 409.078C751.054 405.029 738.134 401.933 731.369 400.899L728.034 399.98C728.034 399.98 729.103 403.766 723.399 404.726C715.002 406.14 705.871 401.13 702.091 397.552C702.091 397.552 699.864 397.273 698.356 397.549C698.356 397.549 683.748 399.837 679.922 401.343C676.096 402.849 670.592 409.44 670.355 420.703C670.116 431.966 675.932 453.013 677.593 463.795C679.256 474.581 678.186 493.042 677.474 499.428C676.763 505.814 669.88 526.134 669.762 534.145C669.762 534.145 670.634 534.243 672.176 534.403H739.945C749.536 533.442 756.634 532.603 757.225 532.171C757.225 532.171 755.456 526.947 755.331 522.651C755.207 518.355 755.207 513.395 754.377 507.282Z" fill="#85B9F1"/>
<path d="M722.492 406.846C726.212 406.804 731.517 414.519 731.517 414.519C733.183 411.572 734.737 405.304 735.546 401.658C734.022 401.34 732.592 401.085 731.368 400.899L728.033 399.98C728.033 399.98 729.102 403.766 723.398 404.726C715.001 406.14 705.87 401.13 702.09 397.552C702.09 397.552 699.863 397.273 698.354 397.549C698.354 397.549 697.464 397.688 696.067 397.922L694.144 400.825L717.53 419.286C717.53 419.286 717.46 418.064 718.284 413.955C719.611 407.323 722.492 406.846 722.492 406.846Z" fill="#75AEEB"/>
<path d="M691.431 460.584C693.306 446.56 694.036 421.654 694.036 421.654C694.036 421.654 681.246 426.581 670.861 428.502C672.285 440 676.266 455.176 677.593 463.794C679.256 474.577 678.186 493.041 677.474 499.427C676.763 505.813 669.88 526.134 669.762 534.144C669.762 534.144 670.634 534.242 672.176 534.402H694.263C681.564 527.654 682.288 507.883 683.963 496.961C685.932 484.1 690.013 471.194 691.431 460.584Z" fill="#75AEEB"/>
<path d="M723.02 408.972C724.761 408.909 725.14 405.992 725.21 404.255C724.698 404.448 724.098 404.608 723.395 404.726C721.953 404.969 720.487 405.023 719.033 404.928C719.66 406.295 721.157 409.037 723.02 408.972Z" fill="#384682"/>
<path d="M721.567 407.301C721.567 407.301 730.71 448.232 731.516 457.245L737.196 467.82L739.586 453.933C739.586 453.933 730.089 420.806 723.818 406.889L721.567 407.301Z" fill="#384682"/>
<path d="M722.088 404.894C722.088 404.894 726.798 402.623 728.031 399.979C728.031 399.979 730.064 399.917 730.906 400.326C730.906 400.326 732.278 407.322 730.906 411.787C730.906 411.787 726.247 405.615 722.578 405.926C718.901 406.24 716.511 414.689 716.511 414.689C716.511 414.689 703.449 404.69 701.831 397.578L702.201 397.163C702.201 397.163 713.357 403.551 722.088 404.894Z" fill="#96C3F2"/>
<path d="M746.475 346.905C746.475 346.905 748.289 355.36 745.751 365.28L740.144 346.57L746.475 346.905Z" fill="#8C4949"/>
<path d="M723.4 330.657C723.4 330.657 741.585 331.703 744.524 347.529C747.462 363.355 745.623 391.982 735.06 395.116C725.421 397.977 710.547 388.211 704.285 378.41C697.696 368.095 695.358 354.947 699.235 345.003C702.631 336.299 709.102 329.904 723.4 330.657Z" fill="#F6AF9A"/>
<path d="M715.132 349.163C715.132 349.163 713.275 351.858 713.787 355.929C714.12 358.579 713.081 359.534 710.261 363.397C707.438 367.26 708.092 367.485 707.262 371.743C706.432 375.997 704.405 386.43 704.351 387.263C704.293 388.099 701.679 385.17 699.722 379.365C697.768 373.56 693.615 362.297 693.257 351.962C692.903 341.63 702.633 331.179 712.603 330.133C712.603 330.133 722.097 325.953 731.236 329.67C740.373 333.385 747.104 339.039 746.716 348.345L744.723 348.41C744.723 348.41 743.205 347.319 742.72 347.035C740.509 345.736 738.71 346.379 736.701 347.66C736.701 347.66 728.885 351.505 724.732 351.043C724.732 351.043 719.991 352.478 715.132 349.163Z" fill="#8C4949"/>
<path d="M707 339.739C707 339.739 705.822 347.376 714.092 351.588C714.519 350.059 715.131 349.163 715.131 349.163C715.131 349.163 707.961 344.811 707 339.739Z" fill="#7D4141"/>
<path d="M711.802 333.54C711.73 337.254 712.638 341.212 715.446 343.848C718.791 346.931 725.022 347.553 729.469 347.441C728.927 347.645 728.363 347.799 727.794 347.921C723.547 348.787 718.464 348.375 714.959 345.656C711.408 342.822 710.339 337.681 711.802 333.54Z" fill="#7D4141"/>
<path d="M716.408 331.565C718.859 330.765 721.458 330.486 724.039 330.498C729.258 330.545 734.641 332.164 738.47 335.739C740.385 337.512 741.842 339.715 742.678 342.087C741.927 341.067 741.157 340.091 740.309 339.196C737.825 336.531 734.641 334.542 731.164 333.368C726.441 331.761 721.388 331.405 716.408 331.565Z" fill="#7D4141"/>
<path d="M714.394 333.54C719.28 333.889 724.069 335.149 728.619 336.91C732.115 338.28 735.498 340.201 738.028 342.973C738.412 343.4 738.773 343.853 739.067 344.343C738.849 344.156 738.624 343.981 738.397 343.815C738.225 343.687 737.882 343.444 737.707 343.323C735.171 341.597 732.396 340.231 729.549 339.08C724.548 337.085 719.446 335.464 714.394 333.54Z" fill="#7D4141"/>
<path d="M717.562 337.954C720.761 340.904 724.905 342.431 728.989 343.842C730.373 344.316 731.785 344.74 733.212 345.283C732.451 345.366 731.694 345.375 730.931 345.351C727.12 345.17 723.267 343.978 720.295 341.568C719.138 340.584 718.038 339.404 717.562 337.954Z" fill="#7D4141"/>
<path d="M711.019 368.419C711.019 368.419 710.98 360.083 705.9 360.026C700.817 359.97 700.844 366.949 704.122 371.476C705.954 374.01 711.04 377.203 711.019 368.419Z" fill="#F6AF9A"/>
<path d="M705.427 365.648C706.426 365.704 707.214 366.241 707.765 366.786C707.623 365.829 707.22 364.904 706.296 364.328C706.057 364.18 705.987 363.872 706.139 363.638C706.29 363.404 706.602 363.335 706.844 363.484C710.143 365.532 708.423 370.539 708.347 370.75C708.256 371.011 707.965 371.15 707.699 371.058C707.693 371.058 707.69 371.055 707.683 371.055C707.426 370.96 707.29 370.682 707.381 370.424C707.387 370.403 707.68 369.549 707.789 368.458C707.783 368.449 707.771 368.44 707.765 368.429C707.756 368.414 706.82 366.727 705.369 366.647C705.087 366.632 704.872 366.395 704.887 366.119C704.903 365.843 705.145 365.633 705.427 365.648Z" fill="#E57E73"/>
<path d="M667.243 534.401H758.772C757.46 520.909 755.83 500.9 755.442 491.769C754.921 479.462 757.175 446.441 757.224 436.145C757.272 425.848 754.231 411.448 754.231 411.448C753.828 410.266 752.98 406.794 745.4 404.031C737.821 401.271 731.105 400.823 731.105 400.823C737.645 417.333 735.794 459.711 735.794 459.711C735.794 459.711 729.875 443.966 721.568 426.699C714.28 411.549 697.755 397.547 697.755 397.547C689.954 397.796 676.365 400.953 676.365 400.953C662.814 415.495 671.833 445.495 674.096 461.472C676.355 477.449 674.314 494.256 668.322 527.491C667.946 529.572 667.585 531.89 667.243 534.401Z" fill="white"/>
<path d="M735.909 456.143L735.794 460.608C741.295 423.546 738.245 403.964 737.739 401.845C733.816 401.006 731.104 400.825 731.104 400.825C736.494 414.427 736.185 445.592 735.909 456.143Z" fill="#ABD3FC"/>
<path d="M735.554 459.074C734.363 455.97 728.898 441.926 721.57 426.699C714.282 411.549 697.757 397.547 697.757 397.547C695.445 397.621 692.625 397.95 689.802 398.377C689.802 398.377 729.474 441.063 735.796 460.607L735.554 459.074Z" fill="#ABD3FC"/>
<path d="M733.877 534.403H735.089C736.291 509.452 737.14 484.5 735.795 459.712C736.516 484.569 735.131 509.579 733.877 534.403Z" fill="#ABD3FC"/>
<path d="M674.096 461.473C676.355 477.45 674.314 494.257 668.322 527.491C667.946 529.573 667.585 531.891 667.243 534.402H677.613L679.515 515.2C680.012 509.807 681.911 489.312 682.538 483.368C683.265 476.504 684.716 475.555 688.346 456.489C691.975 437.423 692.841 420.907 692.841 420.907L670.433 440.815C671.645 448.538 673.296 455.837 674.096 461.473Z" fill="#D4EBFF"/>
<path d="M729.471 400.02C729.471 400.02 734.312 418.748 735.793 459.712C735.793 459.712 738.18 435.2 737.577 419.457C736.971 403.717 736.523 401.597 736.523 401.597C736.523 401.597 731.464 399.614 729.471 400.02Z" fill="white"/>
<path d="M735.795 459.713C721.569 426.7 691.097 398.189 691.097 398.189C694.153 396.686 702.202 397.163 702.202 397.163C702.202 397.163 714.065 410.344 722.338 426.087C733.48 447.29 735.795 459.713 735.795 459.713Z" fill="white"/>
<path d="M677.285 401.602C677.285 401.602 693.743 402.894 690.729 422.832C687.715 442.767 674.51 476.532 670.157 486.826C665.803 497.116 652.841 493.757 652.029 482.577C651.214 471.4 659.463 430.543 661.893 420.745C664.319 410.95 668.787 401.415 677.285 401.602Z" fill="#F6AF9A"/>
<path d="M679.92 401.342C679.92 401.342 667.842 396.498 661.129 419.575C654.413 442.652 650.06 473.367 649.878 483.663C649.697 493.96 660.018 499.044 666.57 495.202C673.125 491.363 680.202 467.455 684.455 455.276C691.096 436.263 701.435 406.008 679.92 401.342Z" fill="white"/>
<path d="M651.894 481.583C651.894 481.583 651.782 514.335 653.273 534.403H667.496C668.547 525.313 669.868 515.357 670.619 509.893C672.343 497.368 673.909 487.391 674.093 479.416C674.336 468.995 652.625 466.807 651.894 481.583Z" fill="#F6AF9A"/>
<path d="M663.629 465.022C663.629 465.022 651.145 466.089 649.876 481.355C648.922 492.849 648.786 517.222 649.243 534.403H672.702C674.686 513.688 678.191 476.742 678.264 473.335C678.367 468.574 669.761 463.958 663.629 465.022Z" fill="white"/>
<path d="M772.957 491.865V525.076C772.957 529.817 769.013 533.674 764.169 533.674H647.179C642.332 533.674 638.391 529.817 638.391 525.076V305.977C638.391 301.237 642.332 297.38 647.179 297.38H764.169C769.013 297.38 772.957 301.237 772.957 305.977V447.51C773.384 448.56 773.808 449.603 774.226 450.644C774.363 450.51 774.444 450.33 774.444 450.128V305.977C774.444 300.433 769.834 295.924 764.169 295.924H647.179C641.511 295.924 636.903 300.433 636.903 305.977V525.076C636.903 530.62 641.511 535.13 647.179 535.13H764.169C769.834 535.13 774.444 530.62 774.444 525.076V492.046C773.954 492.022 773.457 491.963 772.957 491.865Z" fill="white"/>
<path d="M732.05 301.31H679.3C676.065 301.31 673.441 298.742 673.441 295.579V294.381H737.906V295.579C737.906 298.742 735.285 301.31 732.05 301.31Z" fill="#303C72"/>
<path d="M1057.55 347.063C1059.27 345.884 1061.15 344.979 1063.15 344.372C1071.39 341.857 1092.72 337.707 1108.88 355.222C1126.13 373.915 1101.16 426.915 1074.43 453.023C1074.43 453.023 1102 468.748 1103.54 487.805C1105.08 506.862 1073.93 528.006 1029.1 535.113L1019.25 373.39L1057.55 347.063Z" fill="#5A789F"/>
<path d="M1062.97 344.427C1060.76 360.033 1059.56 384.19 1056.22 410.531C1050.97 451.931 1037.82 512.197 1089.33 511.94C1076.22 522.266 1054.93 531.02 1029.1 535.115L1019.25 373.392L1057.56 347.062C1059.2 345.933 1061 345.04 1062.91 344.448L1062.97 344.427Z" fill="#5A789F"/>
<path d="M1095.4 359.049C1075.37 382.108 1055.88 405.713 1036.62 429.402C1031.15 436.161 1025.25 443.677 1019.75 450.424C1008.45 464.228 996.755 478.269 984.907 491.619L984.671 491.441C985.186 490.703 985.707 489.971 986.225 489.239C988.83 485.589 991.499 481.931 994.162 478.34C1001.64 468.29 1009.42 458.269 1017.33 448.533C1025.22 438.883 1033.61 429.164 1041.65 419.627C1052.07 407.335 1062.77 394.954 1073.45 382.891C1078.14 377.581 1083.1 372.043 1087.86 366.804C1090.29 364.145 1092.72 361.486 1095.18 358.853L1095.4 359.049Z" fill="#5AA5D1"/>
<path d="M1085.46 488.517C1068 491.431 1049.98 491.191 1032.6 487.82C1030.79 487.461 1028.9 487.04 1027.11 486.578C1019.41 484.535 1011.98 481.268 1005.43 476.797C1004.53 476.189 1003.46 475.404 1002.61 474.734C1001.71 474.025 1000.8 473.263 999.953 472.495L1000.13 472.261C1001.76 473.148 1003.36 474.04 1005 474.864C1006.58 475.665 1008.34 476.513 1009.96 477.233C1014.52 479.291 1019.24 481.01 1024.02 482.504C1028.81 484.007 1033.65 485.386 1038.59 486.385C1052.15 489.015 1066.1 489.643 1079.89 488.736C1081.73 488.612 1083.58 488.458 1085.41 488.229L1085.46 488.517Z" fill="#5AA5D1"/>
<mask id="mask1_1949_925" style="mask-type:luminance" maskUnits="userSpaceOnUse" x="896" y="289" width="150" height="253">
<path d="M896.021 289.67H1045.69V541.007H896.021V289.67Z" fill="white"/>
</mask>
<g mask="url(#mask1_1949_925)">
<path d="M1033.66 540.974H907.983C901.643 540.974 896.499 535.945 896.499 529.74V301.311C896.499 295.106 901.643 290.075 907.983 290.075H1033.66C1040.01 290.075 1045.15 295.106 1045.15 301.311V529.74C1045.15 535.945 1040.01 540.974 1033.66 540.974Z" fill="#303C72"/>
</g>
<path d="M1029.32 534.402H912.328C907.063 534.402 902.795 530.225 902.795 525.075V305.976C902.795 300.827 907.063 296.652 912.328 296.652H1029.32C1034.58 296.652 1038.85 300.827 1038.85 305.976V525.075C1038.85 530.225 1034.58 534.402 1029.32 534.402Z" fill="#D4EBFF"/>
<path d="M929.32 419.115C930.219 414.327 934.073 410.367 939.259 409.483C945.921 408.348 952.261 412.709 953.421 419.225C953.661 420.58 953.661 421.92 953.445 423.204C953.397 423.506 953.333 423.806 953.261 424.102C952.067 429.827 945.342 461.624 939.023 481.126C938.359 484.493 935.639 487.268 931.983 487.891C927.257 488.697 922.758 485.602 921.934 480.977C921.61 479.169 926.872 429.237 929.32 419.115Z" fill="#DE9681"/>
<path d="M940.792 420.899C940.792 420.899 945.973 416.229 953.443 419.357C953.661 420.667 953.652 421.963 953.446 423.205C953.398 423.508 953.334 423.807 953.261 424.104C952.231 429.043 947.084 453.395 941.632 472.509C941.138 470.16 939.623 467.815 938.872 467.231C937.693 466.315 934.625 463.594 933.119 458.812C932.041 455.393 934.095 442.594 936.448 435.865C938.802 429.132 940.792 420.899 940.792 420.899Z" fill="#EA9A88"/>
<path d="M944.629 408.971C944.629 408.971 939.988 408.031 933.684 410.755C931.797 411.571 929.992 414.764 928.765 417.239C924.078 426.711 920.51 455.487 920.51 455.487C920.51 455.487 932.724 466.631 945.523 470.207C945.523 470.207 955.053 429.561 954.862 421.046C954.672 412.534 948.325 409.845 944.629 408.971Z" fill="#FCF5F1"/>
<path d="M951.48 442.92L936.045 418.944C936.045 418.944 939.311 428.722 937.648 435.274C935.985 441.829 932.028 450.794 931.411 456.143C931.144 458.458 931.268 461.251 931.495 463.673C935.621 466.261 940.529 468.811 945.524 470.207C945.524 470.207 948.808 456.208 951.48 442.92Z" fill="#F0E2DA"/>
<path d="M934.205 470.004C929.509 468.279 924.269 470.603 922.506 475.199C922.157 476.103 921.972 477.025 921.933 477.938C921.93 477.938 918.552 522.418 917.644 534.401H928.304C929.406 529.249 931.482 519.907 933.705 511.798C937.501 497.956 938.803 485.513 939.403 479.782C939.573 479.026 939.64 478.267 939.606 477.52C939.452 474.063 937.722 471.297 934.205 470.004Z" fill="#DE9681"/>
<path d="M956.207 516.922C946.189 517.983 938.403 525.259 936.413 534.402H980.893C978.506 523.367 967.912 515.683 956.207 516.922Z" fill="#F6AF9A"/>
<path d="M935.101 534.403H981.837C978.432 514.447 963.052 514.429 961.117 514.456C961.117 514.456 939.748 513.125 935.101 534.403Z" fill="#8C4949"/>
<path d="M976.399 481.461C952.819 481.396 947.93 492.154 947.93 492.154C947.536 495.125 947.472 498.428 946.073 501.238C939.602 514.218 937.075 529.024 936.324 534.402H1015.62C1015.15 526.412 1012.17 518.849 1008.19 509.202C1005.69 503.133 999.668 495.158 999.58 488.899C999.58 488.899 997.168 481.517 976.399 481.461Z" fill="#F6AF9A"/>
<path d="M947.656 494.545C947.656 494.545 946.129 496.775 942.194 507.193C939.328 514.773 936.538 527.845 935.232 534.403H1016.64C1015.62 525.402 1012.88 515.529 1009.77 509.956C1006.06 503.291 1000.76 492.333 1000.76 492.333C990.282 494.945 947.656 494.545 947.656 494.545Z" fill="#8C4949"/>
<path d="M1009.77 509.956C1006.06 503.291 1000.76 492.333 1000.76 492.333C993.682 494.098 971.928 494.489 958.56 494.554C952.492 498.539 950.744 503.098 950.744 503.098C950.744 503.098 967.033 508.518 987.611 508.859C998.356 508.859 1002.59 508.859 1004 509.612C1004.98 510.14 1006.54 525.361 1007.38 534.403H1016.64C1015.62 525.402 1012.88 515.529 1009.77 509.956Z" fill="#824444"/>
<path d="M970.688 534.402H1015.03C1012.9 525.217 1004.91 518.028 994.807 517.177C983.353 516.213 973.156 523.735 970.688 534.402Z" fill="#F6AF9A"/>
<path d="M968.713 534.403H1016.29C1014.25 523.792 1008.63 513.982 992.648 514.471C992.648 514.471 972.724 514.459 968.713 534.403Z" fill="#8C4949"/>
<path d="M1005.53 517.123C1006.22 522.388 1006.91 529.358 1007.38 534.403H1016.29C1014.94 527.365 1012.01 520.683 1005.53 517.123Z" fill="#824444"/>
<path d="M946.323 474.047C946.323 474.047 940.225 470.528 939.143 464.854C938.062 459.179 941.164 440.312 941.952 431.486C942.742 422.66 935.517 415.046 934.548 410.664C934.548 410.664 944.754 405.968 967.131 403.819C967.131 403.819 979.746 404.175 991.866 406.333C1001.76 408.091 1006.91 413.389 1008.84 416.422C1010.77 419.455 1009.51 426.849 1006.82 435.879C1004.13 444.91 1001.17 452.734 1000.87 462.298C1000.73 466.917 1000.51 483.404 1000.81 494.198C1000.81 494.198 1001.99 500.982 978.031 502.431C955.917 503.771 947.707 494.302 947.707 494.302C946.874 485.423 946.323 474.047 946.323 474.047Z" fill="#DE9681"/>
<path d="M1004.37 443.884C1002.57 449.84 1001.08 455.648 1000.87 462.298C1000.77 465.518 1000.64 474.501 1000.66 483.306C995.409 469.425 988.378 427.984 988.378 427.984L1004.37 443.884Z" fill="#E57E73"/>
<path d="M955.985 407.076L957.299 384.2C957.454 379.667 960.623 375.585 965.339 374.39C971.08 372.934 976.939 376.308 978.426 381.926C978.629 382.688 978.738 383.456 978.765 384.212L980.819 408.772C980.837 408.944 980.883 409.723 980.883 409.723C981.237 415.502 977.366 420.497 971.419 422.003C964.667 423.714 957.999 420.061 956.251 413.453C955.706 411.395 955.839 409.267 955.985 407.076Z" fill="#DE9681"/>
<path d="M957.3 384.2C957.454 379.667 960.623 375.585 965.339 374.39C971.08 372.934 976.939 376.308 978.426 381.926C978.629 382.688 978.738 383.456 978.765 384.212L978.871 385.49C974.079 396.038 965.355 403.889 956.061 405.789L957.3 384.2Z" fill="#D38475"/>
<path d="M948.222 406.658C948.222 406.658 949.779 413.545 960.897 415.321C972.014 417.097 994.568 406.732 994.568 406.732C994.568 406.732 999.406 406.667 1002.74 408.698C1002.74 408.698 1009.05 412.558 1010.11 417.296C1011.17 422.036 1009.75 430.426 1008.9 433.489C1008.04 436.549 1002.74 463.646 1002.74 470.435C1002.74 475.176 1005.54 488.662 1007.24 496.371C1007.92 499.466 1005.79 502.475 1002.6 502.952C991.999 504.533 968.697 507.064 945.944 503.243C942.218 502.617 939.588 499.324 939.834 495.635C940.403 487.115 941.345 472.932 941.324 472.339C941.324 472.339 936.623 469.525 935.611 461.526C934.599 453.53 940.803 433.685 940.137 430.278C939.47 426.872 933.569 413.996 933.687 410.755C933.687 410.755 940.091 407.755 948.222 406.658Z" fill="#FCF5F1"/>
<path d="M975.957 505.206C987.196 504.966 996.805 503.815 1002.6 502.953C1005.8 502.475 1007.91 499.463 1007.23 496.371C1005.54 488.663 1002.74 475.176 1002.74 470.435C1002.74 463.646 1008.04 436.549 1008.89 433.489C1009.09 432.789 1009.32 431.814 1009.53 430.67C1000.03 425.401 991.155 424.215 986.85 429.834C986.85 429.834 989.05 455.268 989.016 460.157C988.983 465.043 978.117 472.558 961.771 470.907C961.771 470.907 976.908 476.338 990.731 469.425L992.385 474.115H998.595C998.595 474.115 999.41 484.038 1000.62 490.851C1001.82 497.628 989.153 502.416 975.957 505.206Z" fill="#F0E2DA"/>
<path d="M986.94 424.227C986.798 423.056 986.819 421.849 987.025 420.628C988.197 413.669 994.913 408.959 1002.03 410.103C1007.93 411.055 1012.25 415.745 1012.88 421.289L1027.54 481.906C1027.85 483.091 1027.93 484.357 1027.71 485.644C1026.88 490.583 1022.11 493.927 1017.06 493.115C1012.81 492.427 1009.71 489.009 1009.34 484.995C1009.34 484.995 990.824 442.261 987.276 425.952C987.125 425.389 987.013 424.811 986.94 424.227Z" fill="#DE9681"/>
<path d="M997.59 408.697C997.59 408.697 984.273 410.455 986.242 426.735C988.208 443.014 994.869 472.338 994.869 472.338C994.869 472.338 1018.63 472.486 1026.66 461.081C1026.66 461.081 1015.61 423.204 1012.58 416.655C1009.55 410.103 1002.3 406.954 997.59 408.697Z" fill="#FCF5F1"/>
<path d="M1016.44 476.045C1012.71 476.905 1010.05 479.855 1009.43 483.329C1009.3 484.082 1009.26 484.859 1009.33 485.645C1009.17 491.515 1009.38 503.893 1011.37 518.372C1012.11 523.694 1012.72 529.496 1013.17 534.403H1025.1C1026.07 516.745 1027.79 485.636 1027.79 485.636C1027.87 484.705 1027.81 483.747 1027.58 482.793C1026.41 477.919 1021.42 474.898 1016.44 476.045Z" fill="#DE9681"/>
<path d="M967.691 336.53C967.691 336.53 988.696 337.295 988.236 361.606C987.791 384.959 967.746 404.063 950.572 399.16C945.113 397.259 941.518 385.098 941.327 366.818C941.133 348.537 949.154 335.89 967.691 336.53Z" fill="#DE9681"/>
<path d="M995.571 393.779C993.008 385.484 995.089 369.664 994.05 362.528C994.023 362.341 993.981 362.169 993.932 362.009C993.278 352.477 990.073 344.817 982.651 339.035C974.666 332.812 961.652 335.706 961.652 335.706C955.738 335.273 943.463 340.337 940.061 348.294C936.66 356.252 937.696 367.684 939.028 370.722C940.358 373.761 938.583 376.655 937.844 378.68C937.105 380.705 938.583 382.729 939.913 385.335C941.246 387.938 939.028 390.977 939.028 390.977C941.246 389.821 942.279 386.637 941.394 383.889C940.507 381.137 940.061 380.126 940.64 378.039C941.216 375.949 941.688 374.627 941.985 371.446C942.279 368.262 941.54 361.896 943.315 357.556C945.09 353.213 952.039 348.294 952.039 348.294C954.112 354.517 957.068 359.436 960.912 360.737C964.76 362.039 967.126 363.921 967.865 365.801C968.604 367.684 967.419 371.155 967.865 375.35C968.307 379.548 970.082 379.691 971.412 381.573C972.745 383.453 969.046 386.782 968.159 388.229C967.271 389.676 967.865 392.134 968.898 394.016C969.934 395.896 969.195 398.066 969.195 398.066C970.97 397.343 970.673 393.871 970.082 390.977C969.492 388.084 971.709 387.36 973.039 385.19C974.372 383.02 972.597 379.981 972.3 378.389C972.003 376.797 974.402 371.381 975.29 371.813C975.802 372.065 976.411 375.051 976.886 378.594C976.65 380.064 976.613 381.544 976.838 383.002C976.838 383.002 977.219 383.88 977.559 385.282C977.583 385.682 977.607 386.074 977.625 386.447C977.665 387.277 977.837 388.241 978.062 389.178C978.089 391.037 977.798 393.115 976.838 395.131C974.081 400.918 970.624 398.982 971.391 407.601C972.157 416.222 969.928 423.156 967.271 427.565C964.614 431.976 964.566 444.846 970.013 452.11C970.013 452.11 970.915 446.412 974.962 444.692C979.01 442.973 985.332 434.529 984.914 429.169C984.493 423.809 988.167 408.395 997.525 406.821C997.525 406.821 998.134 402.074 995.571 393.779Z" fill="#8C4949"/>
<path d="M952.041 348.295C952.401 342.819 956.127 337.281 961.653 335.707C956.782 338.402 953.662 343.151 952.041 348.295Z" fill="#7A3D3D"/>
<path d="M955.741 347.138C962.733 349.821 961.506 353.165 965.477 357.923C966.819 359.738 969.012 360.186 970.939 361.102C973.393 362.593 975.05 365.427 974.965 368.261C974.689 365.884 973.284 363.601 971.333 362.198C969.024 360.752 966.677 360.918 964.808 358.493C960.788 353.663 962.393 350.675 955.741 347.138Z" fill="#7A3D3D"/>
<path d="M960.176 344.244C964.023 344.887 967.828 346.764 969.918 350.099C973.689 354.866 979.848 359.553 979.106 366.236C978.951 359.66 972.917 355.498 969.245 350.588C967.319 347.295 963.778 345.383 960.176 344.244Z" fill="#7A3D3D"/>
<path d="M960.176 339.76C966.689 338.992 973.826 340.463 978.446 345.292C980.715 347.474 982.675 350.048 983.817 352.974C984.323 354.329 984.683 355.779 984.683 357.228C984.656 358.049 984.677 359.055 984.768 359.873C985.192 364.406 986.286 369.12 985.019 373.617C986.098 368.1 983.847 362.568 983.88 357.053C983.459 351.69 979.63 347.193 975.565 343.854C971.254 340.567 965.523 339.65 960.176 339.76Z" fill="#7A3D3D"/>
<path d="M990.643 364.971C991.872 370.05 992.236 375.529 990.624 380.569C989.937 383.083 988.586 385.419 987.91 387.909C987.341 390.494 988.94 392.976 988.664 395.594C988.616 399.178 987.071 402.905 983.969 404.986C983.266 405.454 982.588 406.009 982.015 406.623C979.083 409.81 977.868 414.194 977.516 418.398C977.419 420.148 977.465 421.924 977.08 423.643C976.065 430.616 969.277 435.867 970.013 443.142C968.88 435.923 975.505 430.42 976.402 423.521C976.744 421.817 976.659 420.074 976.744 418.348C977.062 413.747 978.428 408.894 981.854 405.555C982.327 405.096 982.912 404.648 983.46 404.275C987.095 401.849 988.316 397.135 987.677 393.038C987.362 391.292 986.668 389.531 987.189 387.749C987.931 385.191 989.304 382.934 990.073 380.397C991.794 375.451 991.585 370.056 990.643 364.971Z" fill="#7A3D3D"/>
<path d="M981.402 384.096C984.11 392.699 980.751 393.929 977.47 400.87C976.81 402.334 976.873 403.799 976.74 405.382C975.998 408.323 974.783 409.061 974.965 412.63C974.407 409.82 975.18 408.281 975.992 405.737C976.195 404.347 975.91 402.877 976.367 401.504C976.425 401.237 976.576 400.834 976.664 400.573C979.942 393.242 983.026 393.443 981.402 384.096Z" fill="#7A3D3D"/>
<path d="M991.519 388.218C991.352 390.797 991.043 393.418 991.497 395.95C991.649 396.839 992.218 397.456 992.53 398.262C993.233 399.955 993.457 401.822 993.133 403.613C992.742 405.315 991.885 406.913 991.9 408.697C991.516 406.945 992.173 405.229 992.443 403.515C992.773 396.462 988.653 398.247 991.519 388.218Z" fill="#7A3D3D"/>
<path d="M985.444 410.566C983.539 413.038 981.654 415.967 981.788 419.157C982.303 423.925 982.515 429.877 979.9 434.099C981.706 429.528 981.339 424.414 980.97 419.617C980.682 416.086 982.924 412.869 985.444 410.566Z" fill="#7A3D3D"/>
<path d="M980.123 367.599C980.123 367.599 983.525 367.863 983.598 373.104C983.664 378.141 980.571 383.943 976.836 383.003C975.646 382.629 974.613 378.224 974.443 374.284C974.274 370.347 976.125 367.587 980.123 367.599Z" fill="#DE9681"/>
<path d="M977.444 379.248C975.938 372.435 979.507 370.502 979.658 370.422C979.843 370.324 980.07 370.395 980.17 370.573C980.267 370.754 980.198 370.976 980.016 371.074C979.913 371.131 978.017 372.189 977.844 375.61C978.895 374.404 980.57 374.19 980.661 374.178C980.867 374.155 981.055 374.3 981.082 374.501C981.106 374.706 980.958 374.89 980.752 374.913C980.655 374.925 978.404 375.222 977.874 377.104C977.926 377.709 978.023 378.367 978.183 379.091C978.222 379.271 978.12 379.452 977.944 379.515C977.929 379.52 977.91 379.526 977.892 379.529C977.689 379.574 977.486 379.446 977.444 379.248Z" fill="#BA6D5B"/>
<path d="M1029.32 296.652H912.328C907.063 296.652 902.795 300.827 902.795 305.976V317.438H1038.85V305.976C1038.85 300.827 1034.58 296.652 1029.32 296.652Z" fill="#8CCBFF"/>
<path d="M1029.82 306.584H1016.73C1015.93 306.584 1015.28 305.95 1015.28 305.164V304.939C1015.28 304.156 1015.93 303.521 1016.73 303.521H1029.82C1030.62 303.521 1031.27 304.156 1031.27 304.939V305.164C1031.27 305.95 1030.62 306.584 1029.82 306.584Z" fill="white"/>
<path d="M1029.82 313.217H1021.53C1020.73 313.217 1020.08 312.579 1020.08 311.797V311.571C1020.08 310.786 1020.73 310.151 1021.53 310.151H1029.82C1030.62 310.151 1031.27 310.789 1031.27 311.571V311.797C1031.27 312.579 1030.62 313.217 1029.82 313.217Z" fill="white"/>
<path d="M1029.32 535.13H912.329C906.661 535.13 902.051 530.62 902.051 525.076V305.977C902.051 300.433 906.661 295.924 912.329 295.924H1029.32C1034.98 295.924 1039.59 300.433 1039.59 305.977V525.076C1039.59 530.62 1034.98 535.13 1029.32 535.13ZM912.329 297.38C907.482 297.38 903.541 301.237 903.541 305.977V525.076C903.541 529.817 907.482 533.674 912.329 533.674H1029.32C1034.16 533.674 1038.1 529.817 1038.1 525.076V305.977C1038.1 301.237 1034.16 297.38 1029.32 297.38H912.329Z" fill="white"/>
<path d="M997.198 301.31H944.446C941.213 301.31 938.59 298.742 938.59 295.579V294.381H1003.05V295.579C1003.05 298.742 1000.43 301.31 997.198 301.31Z" fill="#303C72"/>
<path d="M913.505 329.732H795.763C791.98 329.732 788.911 332.736 788.911 336.439V369.857C788.911 373.563 791.98 376.563 795.763 376.563H901.512L920.357 398.689V336.439C920.357 332.736 917.288 329.732 913.505 329.732Z" fill="white"/>
<path d="M866.202 344.939H906.837C907.991 344.939 908.927 344.023 908.927 342.893V341.227C908.927 340.097 907.991 339.181 906.837 339.181H866.202C865.044 339.181 864.108 340.097 864.108 341.227V342.893C864.108 344.023 865.044 344.939 866.202 344.939Z" fill="#D4E7FF"/>
<path d="M801.01 344.939H853.418C854.575 344.939 855.511 344.023 855.511 342.893V341.227C855.511 340.097 854.575 339.181 853.418 339.181H801.01C799.856 339.181 798.92 340.097 798.92 341.227V342.893C798.92 344.023 799.856 344.939 801.01 344.939Z" fill="#D4E7FF"/>
<path d="M882.067 356.193H906.84C907.994 356.193 908.93 355.277 908.93 354.148V352.485C908.93 351.352 907.994 350.436 906.84 350.436H882.067C880.913 350.436 879.974 351.352 879.974 352.485V354.148C879.974 355.277 880.913 356.193 882.067 356.193Z" fill="#D4E7FF"/>
<path d="M858.252 356.193H869.936C871.093 356.193 872.029 355.277 872.029 354.148V352.485C872.029 351.352 871.093 350.436 869.936 350.436H858.252C857.098 350.436 856.162 351.352 856.162 352.485V354.148C856.162 355.277 857.098 356.193 858.252 356.193Z" fill="#D4E7FF"/>
<path d="M801.01 356.194H846.599C847.756 356.194 848.692 355.277 848.692 354.148V352.485C848.692 351.352 847.756 350.436 846.599 350.436H801.01C799.856 350.436 798.92 351.352 798.92 352.485V354.148C798.92 355.277 799.856 356.194 801.01 356.194Z" fill="#D4E7FF"/>
<path d="M892.818 367.45H906.84C907.994 367.45 908.93 366.534 908.93 365.401V363.738C908.93 362.606 907.994 361.689 906.84 361.689H892.818C891.664 361.689 890.728 362.606 890.728 363.738V365.401C890.728 366.534 891.664 367.45 892.818 367.45Z" fill="#D4E7FF"/>
<path d="M801.01 367.45H881.751C882.905 367.45 883.841 366.534 883.841 365.401V363.738C883.841 362.606 882.905 361.689 881.751 361.689H801.01C799.856 361.689 798.92 362.606 798.92 363.738V365.401C798.92 366.534 799.856 367.45 801.01 367.45Z" fill="#D4E7FF"/>
<path d="M881.366 377.535H795.766C791.44 377.535 787.92 374.09 787.92 369.857V336.438C787.92 332.205 791.44 328.763 795.766 328.763H891.811C892.359 328.763 892.802 329.196 892.802 329.732C892.802 330.269 892.359 330.705 891.811 330.705H795.766C792.537 330.705 789.907 333.275 789.907 336.438V369.857C789.907 373.02 792.537 375.593 795.766 375.593H881.366C881.914 375.593 882.36 376.026 882.36 376.563C882.36 377.1 881.914 377.535 881.366 377.535Z" fill="#8CCBFF"/>
<path d="M881.148 273.131H763.41C759.626 273.131 756.558 276.134 756.558 279.837V342.087L775.403 319.962H881.148C884.935 319.962 888.004 316.958 888.004 313.255V279.837C888.004 276.134 884.935 273.131 881.148 273.131Z" fill="white"/>
<path d="M835.069 288.432H770.353C769.196 288.432 768.26 287.516 768.26 286.386V284.72C768.26 283.59 769.196 282.674 770.353 282.674H835.069C836.223 282.674 837.159 283.59 837.159 284.72V286.386C837.159 287.516 836.223 288.432 835.069 288.432Z" fill="#D4E7FF"/>
<path d="M876.181 288.432H847.854C846.7 288.432 845.764 287.516 845.764 286.386V284.72C845.764 283.59 846.7 282.674 847.854 282.674H876.181C877.338 282.674 878.275 283.59 878.275 284.72V286.386C878.275 287.516 877.338 288.432 876.181 288.432Z" fill="#D4E7FF"/>
<path d="M794.323 299.685H770.353C769.199 299.685 768.26 298.768 768.26 297.639V295.973C768.26 294.843 769.199 293.927 770.353 293.927H794.323C795.477 293.927 796.414 294.843 796.414 295.973V297.639C796.414 298.768 795.477 299.685 794.323 299.685Z" fill="#D4E7FF"/>
<path d="M856.838 299.685H807.253C806.099 299.685 805.163 298.769 805.163 297.639V295.973C805.163 294.843 806.099 293.927 807.253 293.927H856.838C857.992 293.927 858.928 294.843 858.928 295.973V297.639C858.928 298.769 857.992 299.685 856.838 299.685Z" fill="#D4E7FF"/>
<path d="M876.18 299.685H868.492C867.334 299.685 866.398 298.768 866.398 297.639V295.973C866.398 294.843 867.334 293.927 868.492 293.927H876.18C877.337 293.927 878.273 294.843 878.273 295.973V297.639C878.273 298.768 877.337 299.685 876.18 299.685Z" fill="#D4E7FF"/>
<path d="M822.024 310.943H770.353C769.199 310.943 768.26 310.024 768.26 308.894V307.231C768.26 306.098 769.199 305.182 770.353 305.182H822.024C823.179 305.182 824.115 306.098 824.115 307.231V308.894C824.115 310.024 823.179 310.943 822.024 310.943Z" fill="#D4E7FF"/>
<path d="M876.182 310.943H833.095C831.938 310.943 831.002 310.024 831.002 308.894V307.231C831.002 306.098 831.938 305.182 833.095 305.182H876.182C877.339 305.182 878.275 306.098 878.275 307.231V308.894C878.275 310.024 877.339 310.943 876.182 310.943Z" fill="#D4E7FF"/>
<path d="M881.147 320.93H788.912C788.364 320.93 787.919 320.498 787.919 319.961C787.919 319.424 788.364 318.988 788.912 318.988H881.147C884.379 318.988 887.008 316.418 887.008 313.255V279.836C887.008 276.673 884.379 274.1 881.147 274.1H763.408C760.179 274.1 757.55 276.673 757.55 279.836V285.552C757.55 286.089 757.104 286.525 756.556 286.525C756.008 286.525 755.562 286.089 755.562 285.552V279.836C755.562 275.603 759.083 272.158 763.408 272.158H881.147C885.476 272.158 888.996 275.603 888.996 279.836V313.255C888.996 317.488 885.476 320.93 881.147 320.93Z" fill="#8CCBFF"/>
</svg>
