<svg width="1718" height="810" viewBox="0 0 1718 810" fill="none" xmlns="http://www.w3.org/2000/svg">
<rect width="1717.89" height="810" fill="white"/>
<path d="M669.597 603.53H665.379L673.06 581.712H677.939L685.631 603.53H681.412L675.585 586.187H675.414L669.597 603.53ZM669.736 594.976H681.242V598.15H669.736V594.976ZM694.953 610.008C693.568 610.008 692.378 609.819 691.384 609.443C690.389 609.074 689.59 608.576 688.987 607.951C688.383 607.326 687.964 606.634 687.729 605.874L691.203 605.032C691.359 605.352 691.586 605.668 691.884 605.981C692.183 606.3 692.584 606.563 693.088 606.769C693.6 606.982 694.242 607.089 695.016 607.089C696.11 607.089 697.016 606.822 697.733 606.29C698.45 605.764 698.809 604.897 698.809 603.69V600.59H698.617C698.418 600.988 698.127 601.396 697.744 601.815C697.367 602.234 696.867 602.586 696.242 602.87C695.624 603.154 694.846 603.296 693.908 603.296C692.651 603.296 691.511 603.001 690.489 602.412C689.473 601.815 688.663 600.927 688.06 599.748C687.463 598.562 687.165 597.078 687.165 595.295C687.165 593.498 687.463 591.982 688.06 590.746C688.663 589.503 689.477 588.562 690.499 587.923C691.522 587.277 692.662 586.954 693.919 586.954C694.878 586.954 695.666 587.117 696.284 587.444C696.909 587.763 697.406 588.15 697.776 588.605C698.145 589.052 698.426 589.475 698.617 589.873H698.83V587.167H702.634V603.797C702.634 605.196 702.3 606.353 701.632 607.27C700.965 608.186 700.052 608.871 698.894 609.326C697.737 609.78 696.423 610.008 694.953 610.008ZM694.984 600.27C695.801 600.27 696.497 600.071 697.073 599.674C697.648 599.276 698.085 598.704 698.383 597.959C698.681 597.213 698.83 596.318 698.83 595.274C698.83 594.244 698.681 593.342 698.383 592.568C698.092 591.794 697.658 591.194 697.083 590.767C696.515 590.334 695.815 590.118 694.984 590.118C694.125 590.118 693.408 590.341 692.832 590.789C692.257 591.236 691.824 591.851 691.533 592.632C691.242 593.406 691.096 594.287 691.096 595.274C691.096 596.275 691.242 597.152 691.533 597.905C691.831 598.651 692.268 599.233 692.843 599.652C693.426 600.064 694.139 600.27 694.984 600.27ZM717.016 596.648V587.167H720.872V603.53H717.133V600.622H716.962C716.593 601.538 715.986 602.287 715.141 602.87C714.303 603.452 713.269 603.743 712.041 603.743C710.968 603.743 710.02 603.505 709.196 603.03C708.379 602.547 707.74 601.847 707.278 600.931C706.817 600.008 706.586 598.892 706.586 597.586V587.167H710.443V596.989C710.443 598.026 710.727 598.85 711.295 599.461C711.863 600.071 712.609 600.377 713.532 600.377C714.1 600.377 714.651 600.238 715.183 599.961C715.716 599.684 716.153 599.272 716.494 598.726C716.842 598.172 717.016 597.479 717.016 596.648ZM729.547 603.861C728.51 603.861 727.576 603.676 726.745 603.307C725.921 602.93 725.268 602.376 724.785 601.645C724.309 600.913 724.071 600.011 724.071 598.939C724.071 598.015 724.241 597.252 724.582 596.648C724.923 596.044 725.388 595.562 725.978 595.199C726.567 594.837 727.231 594.564 727.97 594.379C728.716 594.187 729.486 594.049 730.282 593.964C731.241 593.864 732.018 593.775 732.615 593.697C733.212 593.612 733.645 593.484 733.915 593.314C734.192 593.136 734.33 592.863 734.33 592.493V592.429C734.33 591.627 734.092 591.005 733.616 590.565C733.141 590.125 732.455 589.905 731.56 589.905C730.616 589.905 729.866 590.111 729.312 590.522C728.766 590.934 728.396 591.421 728.204 591.982L724.604 591.471C724.888 590.476 725.356 589.645 726.01 588.978C726.663 588.303 727.462 587.799 728.407 587.465C729.351 587.124 730.396 586.954 731.539 586.954C732.327 586.954 733.112 587.046 733.893 587.231C734.675 587.415 735.388 587.721 736.035 588.147C736.681 588.566 737.199 589.138 737.59 589.862C737.988 590.586 738.187 591.492 738.187 592.579V603.53H734.479V601.282H734.351C734.117 601.737 733.787 602.163 733.361 602.561C732.942 602.951 732.413 603.267 731.773 603.509C731.141 603.743 730.399 603.861 729.547 603.861ZM730.548 601.027C731.322 601.027 731.994 600.874 732.562 600.569C733.13 600.256 733.567 599.844 733.872 599.333C734.185 598.821 734.341 598.264 734.341 597.66V595.732C734.22 595.831 734.014 595.924 733.723 596.009C733.439 596.094 733.119 596.169 732.764 596.233C732.409 596.297 732.057 596.353 731.709 596.403C731.361 596.453 731.06 596.495 730.804 596.531C730.229 596.609 729.714 596.737 729.259 596.915C728.805 597.092 728.446 597.341 728.183 597.66C727.92 597.973 727.789 598.378 727.789 598.875C727.789 599.585 728.048 600.121 728.567 600.483C729.085 600.846 729.746 601.027 730.548 601.027ZM742.065 603.53V587.167H745.804V589.894H745.974C746.273 588.949 746.784 588.221 747.508 587.71C748.24 587.191 749.074 586.932 750.012 586.932C750.225 586.932 750.463 586.943 750.726 586.964C750.996 586.978 751.219 587.003 751.397 587.039V590.586C751.234 590.53 750.974 590.48 750.619 590.437C750.271 590.388 749.934 590.363 749.607 590.363C748.904 590.363 748.272 590.515 747.711 590.821C747.157 591.119 746.72 591.535 746.4 592.067C746.081 592.6 745.921 593.214 745.921 593.91V603.53H742.065ZM759.358 603.818C758.072 603.818 756.922 603.488 755.906 602.827C754.89 602.167 754.088 601.208 753.498 599.951C752.909 598.694 752.614 597.167 752.614 595.37C752.614 593.552 752.912 592.017 753.509 590.767C754.113 589.51 754.926 588.562 755.949 587.923C756.971 587.277 758.111 586.954 759.368 586.954C760.327 586.954 761.116 587.117 761.733 587.444C762.351 587.763 762.841 588.15 763.204 588.605C763.566 589.052 763.846 589.475 764.045 589.873H764.205V581.712H768.072V603.53H764.28V600.952H764.045C763.846 601.35 763.559 601.772 763.182 602.22C762.806 602.66 762.309 603.037 761.691 603.349C761.073 603.662 760.295 603.818 759.358 603.818ZM760.434 600.654C761.25 600.654 761.946 600.434 762.522 599.993C763.097 599.546 763.534 598.924 763.832 598.129C764.13 597.334 764.28 596.407 764.28 595.348C764.28 594.29 764.13 593.37 763.832 592.589C763.541 591.808 763.108 591.201 762.532 590.767C761.964 590.334 761.265 590.118 760.434 590.118C759.574 590.118 758.857 590.341 758.282 590.789C757.706 591.236 757.273 591.854 756.982 592.642C756.691 593.431 756.545 594.333 756.545 595.348C756.545 596.371 756.691 597.284 756.982 598.086C757.28 598.882 757.717 599.51 758.292 599.972C758.875 600.427 759.589 600.654 760.434 600.654ZM776.891 603.861C775.854 603.861 774.92 603.676 774.089 603.307C773.265 602.93 772.611 602.376 772.128 601.645C771.653 600.913 771.415 600.011 771.415 598.939C771.415 598.015 771.585 597.252 771.926 596.648C772.267 596.044 772.732 595.562 773.322 595.199C773.911 594.837 774.575 594.564 775.314 594.379C776.06 594.187 776.83 594.049 777.626 593.964C778.584 593.864 779.362 593.775 779.959 593.697C780.555 593.612 780.989 593.484 781.258 593.314C781.535 593.136 781.674 592.863 781.674 592.493V592.429C781.674 591.627 781.436 591.005 780.96 590.565C780.484 590.125 779.799 589.905 778.904 589.905C777.959 589.905 777.21 590.111 776.656 590.522C776.109 590.934 775.74 591.421 775.548 591.982L771.947 591.471C772.231 590.476 772.7 589.645 773.354 588.978C774.007 588.303 774.806 587.799 775.751 587.465C776.695 587.124 777.739 586.954 778.883 586.954C779.671 586.954 780.456 587.046 781.237 587.231C782.018 587.415 782.732 587.721 783.378 588.147C784.025 588.566 784.543 589.138 784.934 589.862C785.332 590.586 785.53 591.492 785.53 592.579V603.53H781.823V601.282H781.695C781.461 601.737 781.131 602.163 780.704 602.561C780.285 602.951 779.756 603.267 779.117 603.509C778.485 603.743 777.743 603.861 776.891 603.861ZM777.892 601.027C778.666 601.027 779.337 600.874 779.905 600.569C780.474 600.256 780.91 599.844 781.216 599.333C781.528 598.821 781.685 598.264 781.685 597.66V595.732C781.564 595.831 781.358 595.924 781.067 596.009C780.783 596.094 780.463 596.169 780.108 596.233C779.753 596.297 779.401 596.353 779.053 596.403C778.705 596.453 778.403 596.495 778.148 596.531C777.572 596.609 777.057 596.737 776.603 596.915C776.148 597.092 775.79 597.341 775.527 597.66C775.264 597.973 775.133 598.378 775.133 598.875C775.133 599.585 775.392 600.121 775.91 600.483C776.429 600.846 777.089 601.027 777.892 601.027ZM793.265 593.942V603.53H789.408V587.167H793.094V589.947H793.286C793.663 589.031 794.263 588.303 795.087 587.763C795.918 587.223 796.944 586.954 798.165 586.954C799.295 586.954 800.278 587.195 801.116 587.678C801.962 588.161 802.615 588.861 803.077 589.777C803.545 590.693 803.776 591.804 803.769 593.111V603.53H799.913V593.708C799.913 592.614 799.628 591.758 799.06 591.14C798.499 590.522 797.722 590.214 796.727 590.214C796.052 590.214 795.452 590.363 794.927 590.661C794.408 590.952 794 591.375 793.702 591.929C793.41 592.483 793.265 593.154 793.265 593.942ZM813.762 603.818C812.476 603.818 811.326 603.488 810.31 602.827C809.295 602.167 808.492 601.208 807.903 599.951C807.313 598.694 807.018 597.167 807.018 595.37C807.018 593.552 807.317 592.017 807.913 590.767C808.517 589.51 809.33 588.562 810.353 587.923C811.376 587.277 812.516 586.954 813.773 586.954C814.731 586.954 815.52 587.117 816.138 587.444C816.756 587.763 817.246 588.15 817.608 588.605C817.97 589.052 818.251 589.475 818.449 589.873H818.609V581.712H822.476V603.53H818.684V600.952H818.449C818.251 601.35 817.963 601.772 817.587 602.22C817.21 602.66 816.713 603.037 816.095 603.349C815.477 603.662 814.699 603.818 813.762 603.818ZM814.838 600.654C815.655 600.654 816.351 600.434 816.926 599.993C817.501 599.546 817.938 598.924 818.236 598.129C818.535 597.334 818.684 596.407 818.684 595.348C818.684 594.29 818.535 593.37 818.236 592.589C817.945 591.808 817.512 591.201 816.937 590.767C816.369 590.334 815.669 590.118 814.838 590.118C813.979 590.118 813.261 590.341 812.686 590.789C812.111 591.236 811.677 591.854 811.386 592.642C811.095 593.431 810.949 594.333 810.949 595.348C810.949 596.371 811.095 597.284 811.386 598.086C811.685 598.882 812.121 599.51 812.697 599.972C813.279 600.427 813.993 600.654 814.838 600.654ZM833.724 603.85C832.126 603.85 830.741 603.498 829.569 602.795C828.397 602.092 827.488 601.108 826.842 599.844C826.203 598.58 825.883 597.103 825.883 595.412C825.883 593.722 826.203 592.241 826.842 590.97C827.488 589.699 828.397 588.711 829.569 588.008C830.741 587.305 832.126 586.954 833.724 586.954C835.322 586.954 836.707 587.305 837.879 588.008C839.051 588.711 839.956 589.699 840.595 590.97C841.242 592.241 841.565 593.722 841.565 595.412C841.565 597.103 841.242 598.58 840.595 599.844C839.956 601.108 839.051 602.092 837.879 602.795C836.707 603.498 835.322 603.85 833.724 603.85ZM833.745 600.76C834.612 600.76 835.336 600.522 835.918 600.047C836.501 599.564 836.934 598.917 837.218 598.108C837.509 597.298 837.655 596.396 837.655 595.402C837.655 594.4 837.509 593.495 837.218 592.685C836.934 591.868 836.501 591.218 835.918 590.736C835.336 590.253 834.612 590.011 833.745 590.011C832.857 590.011 832.119 590.253 831.529 590.736C830.947 591.218 830.51 591.868 830.219 592.685C829.935 593.495 829.793 594.4 829.793 595.402C829.793 596.396 829.935 597.298 830.219 598.108C830.51 598.917 830.947 599.564 831.529 600.047C832.119 600.522 832.857 600.76 833.745 600.76ZM852.279 603.53V587.167H856.019V589.894H856.189C856.487 588.949 856.999 588.221 857.723 587.71C858.455 587.191 859.289 586.932 860.227 586.932C860.44 586.932 860.678 586.943 860.941 586.964C861.21 586.978 861.434 587.003 861.612 587.039V590.586C861.448 590.53 861.189 590.48 860.834 590.437C860.486 590.388 860.149 590.363 859.822 590.363C859.119 590.363 858.487 590.515 857.926 590.821C857.372 591.119 856.935 591.535 856.615 592.067C856.296 592.6 856.136 593.214 856.136 593.91V603.53H852.279ZM870.744 603.85C869.104 603.85 867.687 603.509 866.494 602.827C865.308 602.138 864.395 601.165 863.756 599.908C863.117 598.644 862.797 597.156 862.797 595.444C862.797 593.761 863.117 592.284 863.756 591.013C864.402 589.734 865.304 588.74 866.462 588.03C867.619 587.312 868.979 586.954 870.542 586.954C871.551 586.954 872.502 587.117 873.397 587.444C874.299 587.763 875.095 588.26 875.783 588.935C876.479 589.61 877.026 590.469 877.424 591.513C877.822 592.55 878.021 593.786 878.021 595.221V596.403H864.608V593.804H874.324C874.317 593.065 874.157 592.408 873.845 591.833C873.532 591.25 873.095 590.792 872.534 590.459C871.98 590.125 871.334 589.958 870.595 589.958C869.807 589.958 869.114 590.15 868.518 590.533C867.921 590.91 867.456 591.407 867.122 592.025C866.796 592.635 866.629 593.307 866.622 594.038V596.307C866.622 597.259 866.796 598.076 867.144 598.758C867.492 599.432 867.978 599.951 868.603 600.313C869.228 600.668 869.96 600.846 870.798 600.846C871.359 600.846 871.867 600.767 872.321 600.611C872.776 600.448 873.17 600.21 873.504 599.897C873.837 599.585 874.09 599.198 874.26 598.736L877.861 599.141C877.634 600.093 877.2 600.924 876.561 601.634C875.929 602.337 875.119 602.884 874.132 603.275C873.145 603.658 872.016 603.85 870.744 603.85ZM894.217 591.492L890.701 591.875C890.601 591.52 890.427 591.187 890.179 590.874C889.937 590.562 889.611 590.309 889.199 590.118C888.787 589.926 888.283 589.83 887.686 589.83C886.883 589.83 886.209 590.004 885.662 590.352C885.122 590.7 884.856 591.151 884.863 591.705C884.856 592.181 885.03 592.568 885.385 592.866C885.747 593.165 886.344 593.41 887.175 593.601L889.966 594.198C891.514 594.532 892.665 595.061 893.418 595.785C894.177 596.51 894.561 597.458 894.568 598.63C894.561 599.66 894.259 600.569 893.663 601.357C893.073 602.138 892.253 602.749 891.202 603.189C890.15 603.63 888.943 603.85 887.579 603.85C885.577 603.85 883.964 603.431 882.743 602.593C881.521 601.748 880.793 600.572 880.559 599.066L884.32 598.704C884.49 599.443 884.852 600 885.406 600.377C885.96 600.753 886.681 600.941 887.569 600.941C888.485 600.941 889.22 600.753 889.774 600.377C890.335 600 890.616 599.535 890.616 598.981C890.616 598.513 890.435 598.125 890.072 597.82C889.717 597.515 889.163 597.28 888.41 597.117L885.619 596.531C884.05 596.204 882.888 595.654 882.136 594.88C881.383 594.098 881.01 593.111 881.017 591.918C881.01 590.91 881.283 590.036 881.837 589.297C882.398 588.552 883.176 587.976 884.17 587.571C885.172 587.16 886.326 586.954 887.633 586.954C889.55 586.954 891.06 587.362 892.16 588.179C893.268 588.995 893.954 590.1 894.217 591.492ZM897.748 609.667V587.167H901.541V589.873H901.764C901.963 589.475 902.244 589.052 902.606 588.605C902.968 588.15 903.458 587.763 904.076 587.444C904.694 587.117 905.483 586.954 906.441 586.954C907.706 586.954 908.845 587.277 909.861 587.923C910.884 588.562 911.693 589.51 912.29 590.767C912.894 592.017 913.196 593.552 913.196 595.37C913.196 597.167 912.901 598.694 912.311 599.951C911.722 601.208 910.919 602.167 909.904 602.827C908.888 603.488 907.737 603.818 906.452 603.818C905.514 603.818 904.737 603.662 904.119 603.349C903.501 603.037 903.004 602.66 902.627 602.22C902.258 601.772 901.97 601.35 901.764 600.952H901.605V609.667H897.748ZM901.53 595.348C901.53 596.407 901.679 597.334 901.978 598.129C902.283 598.924 902.72 599.546 903.288 599.993C903.863 600.434 904.559 600.654 905.376 600.654C906.228 600.654 906.942 600.427 907.517 599.972C908.093 599.51 908.526 598.882 908.817 598.086C909.115 597.284 909.264 596.371 909.264 595.348C909.264 594.333 909.119 593.431 908.828 592.642C908.536 591.854 908.103 591.236 907.528 590.789C906.953 590.341 906.235 590.118 905.376 590.118C904.552 590.118 903.853 590.334 903.277 590.767C902.702 591.201 902.265 591.808 901.967 592.589C901.676 593.37 901.53 594.29 901.53 595.348ZM923.636 603.85C922.038 603.85 920.653 603.498 919.481 602.795C918.309 602.092 917.4 601.108 916.754 599.844C916.115 598.58 915.795 597.103 915.795 595.412C915.795 593.722 916.115 592.241 916.754 590.97C917.4 589.699 918.309 588.711 919.481 588.008C920.653 587.305 922.038 586.954 923.636 586.954C925.234 586.954 926.619 587.305 927.791 588.008C928.963 588.711 929.868 589.699 930.507 590.97C931.154 592.241 931.477 593.722 931.477 595.412C931.477 597.103 931.154 598.58 930.507 599.844C929.868 601.108 928.963 602.092 927.791 602.795C926.619 603.498 925.234 603.85 923.636 603.85ZM923.657 600.76C924.524 600.76 925.248 600.522 925.831 600.047C926.413 599.564 926.846 598.917 927.13 598.108C927.421 597.298 927.567 596.396 927.567 595.402C927.567 594.4 927.421 593.495 927.13 592.685C926.846 591.868 926.413 591.218 925.831 590.736C925.248 590.253 924.524 590.011 923.657 590.011C922.769 590.011 922.031 590.253 921.441 590.736C920.859 591.218 920.422 591.868 920.131 592.685C919.847 593.495 919.705 594.4 919.705 595.402C919.705 596.396 919.847 597.298 920.131 598.108C920.422 598.917 920.859 599.564 921.441 600.047C922.031 600.522 922.769 600.76 923.657 600.76ZM947.683 591.492L944.168 591.875C944.068 591.52 943.894 591.187 943.646 590.874C943.404 590.562 943.078 590.309 942.666 590.118C942.254 589.926 941.749 589.83 941.153 589.83C940.35 589.83 939.676 590.004 939.129 590.352C938.589 590.7 938.323 591.151 938.33 591.705C938.323 592.181 938.497 592.568 938.852 592.866C939.214 593.165 939.81 593.41 940.641 593.601L943.433 594.198C944.981 594.532 946.131 595.061 946.884 595.785C947.644 596.51 948.028 597.458 948.035 598.63C948.028 599.66 947.726 600.569 947.129 601.357C946.54 602.138 945.72 602.749 944.668 603.189C943.617 603.63 942.41 603.85 941.046 603.85C939.043 603.85 937.431 603.431 936.21 602.593C934.988 601.748 934.26 600.572 934.026 599.066L937.786 598.704C937.957 599.443 938.319 600 938.873 600.377C939.427 600.753 940.148 600.941 941.036 600.941C941.952 600.941 942.687 600.753 943.241 600.377C943.802 600 944.082 599.535 944.082 598.981C944.082 598.513 943.901 598.125 943.539 597.82C943.184 597.515 942.63 597.28 941.877 597.117L939.086 596.531C937.516 596.204 936.355 595.654 935.602 594.88C934.85 594.098 934.477 593.111 934.484 591.918C934.477 590.91 934.75 590.036 935.304 589.297C935.865 588.552 936.643 587.976 937.637 587.571C938.639 587.16 939.793 586.954 941.1 586.954C943.017 586.954 944.526 587.362 945.627 588.179C946.735 588.995 947.421 590.1 947.683 591.492ZM959.386 587.167V590.15H949.979V587.167H959.386ZM952.302 583.246H956.158V598.608C956.158 599.127 956.236 599.525 956.392 599.802C956.556 600.071 956.769 600.256 957.032 600.356C957.294 600.455 957.586 600.505 957.905 600.505C958.147 600.505 958.367 600.487 958.566 600.451C958.772 600.416 958.928 600.384 959.035 600.356L959.684 603.37C959.478 603.441 959.184 603.52 958.8 603.605C958.424 603.69 957.962 603.74 957.415 603.754C956.449 603.782 955.579 603.637 954.805 603.317C954.031 602.991 953.417 602.486 952.962 601.804C952.515 601.123 952.294 600.27 952.302 599.248V583.246ZM967.32 603.861C966.283 603.861 965.349 603.676 964.518 603.307C963.695 602.93 963.041 602.376 962.558 601.645C962.082 600.913 961.844 600.011 961.844 598.939C961.844 598.015 962.015 597.252 962.356 596.648C962.697 596.044 963.162 595.562 963.751 595.199C964.341 594.837 965.005 594.564 965.744 594.379C966.489 594.187 967.26 594.049 968.055 593.964C969.014 593.864 969.792 593.775 970.388 593.697C970.985 593.612 971.418 593.484 971.688 593.314C971.965 593.136 972.104 592.863 972.104 592.493V592.429C972.104 591.627 971.866 591.005 971.39 590.565C970.914 590.125 970.229 589.905 969.334 589.905C968.389 589.905 967.64 590.111 967.086 590.522C966.539 590.934 966.17 591.421 965.978 591.982L962.377 591.471C962.661 590.476 963.13 589.645 963.783 588.978C964.437 588.303 965.236 587.799 966.18 587.465C967.125 587.124 968.169 586.954 969.312 586.954C970.101 586.954 970.886 587.046 971.667 587.231C972.448 587.415 973.162 587.721 973.808 588.147C974.454 588.566 974.973 589.138 975.364 589.862C975.761 590.586 975.96 591.492 975.96 592.579V603.53H972.253V601.282H972.125C971.891 601.737 971.56 602.163 971.134 602.561C970.715 602.951 970.186 603.267 969.547 603.509C968.915 603.743 968.172 603.861 967.32 603.861ZM968.322 601.027C969.096 601.027 969.767 600.874 970.335 600.569C970.903 600.256 971.34 599.844 971.646 599.333C971.958 598.821 972.114 598.264 972.114 597.66V595.732C971.994 595.831 971.788 595.924 971.496 596.009C971.212 596.094 970.893 596.169 970.538 596.233C970.182 596.297 969.831 596.353 969.483 596.403C969.135 596.453 968.833 596.495 968.577 596.531C968.002 596.609 967.487 596.737 967.033 596.915C966.578 597.092 966.219 597.341 965.957 597.66C965.694 597.973 965.562 598.378 965.562 598.875C965.562 599.585 965.822 600.121 966.34 600.483C966.859 600.846 967.519 601.027 968.322 601.027ZM982.214 603.765C981.567 603.765 981.013 603.537 980.552 603.083C980.09 602.628 979.863 602.074 979.87 601.421C979.863 600.782 980.09 600.235 980.552 599.78C981.013 599.326 981.567 599.098 982.214 599.098C982.839 599.098 983.382 599.326 983.844 599.78C984.312 600.235 984.55 600.782 984.557 601.421C984.55 601.854 984.437 602.248 984.217 602.603C984.003 602.959 983.719 603.243 983.364 603.456C983.016 603.662 982.633 603.765 982.214 603.765ZM990.915 603.765C990.269 603.765 989.715 603.537 989.253 603.083C988.791 602.628 988.564 602.074 988.571 601.421C988.564 600.782 988.791 600.235 989.253 599.78C989.715 599.326 990.269 599.098 990.915 599.098C991.54 599.098 992.083 599.326 992.545 599.78C993.014 600.235 993.252 600.782 993.259 601.421C993.252 601.854 993.138 602.248 992.918 602.603C992.705 602.959 992.421 603.243 992.065 603.456C991.717 603.662 991.334 603.765 990.915 603.765ZM999.616 603.765C998.97 603.765 998.416 603.537 997.954 603.083C997.492 602.628 997.265 602.074 997.272 601.421C997.265 600.782 997.492 600.235 997.954 599.78C998.416 599.326 998.97 599.098 999.616 599.098C1000.24 599.098 1000.78 599.326 1001.25 599.78C1001.71 600.235 1001.95 600.782 1001.96 601.421C1001.95 601.854 1001.84 602.248 1001.62 602.603C1001.41 602.959 1001.12 603.243 1000.77 603.456C1000.42 603.662 1000.04 603.765 999.616 603.765Z" fill="#5A7DA0"/>
<path d="M1062.86 409.673C1059.92 476.916 1005.94 529.851 940.407 529.851H665.775C626.906 529.851 600.201 489.567 614.59 452.481C633.771 401.811 696.273 439.306 667.636 396.694C639.878 355.38 623.351 304.965 647.039 280.681C701.873 224.47 766.602 299.021 802.182 288.22C813.529 284.538 858.589 255.431 876.111 250.216C987.77 208.899 1072.45 306.679 1062.86 409.673Z" fill="#E3F0FF"/>
<path d="M633.183 393.296C636.218 387.162 609.369 355.899 597.038 363.868C584.708 371.837 583.427 388.01 601.812 393.88C619.19 399.427 630.151 399.43 633.183 393.296Z" fill="#E3F0FF"/>
<path d="M693.286 262.093L689.523 239.976C689.437 239.484 688.954 239.149 688.441 239.229C687.931 239.312 687.584 239.777 687.667 240.269L691.344 261.873L675.469 274.63C675.069 274.951 675.014 275.523 675.346 275.908C675.533 276.122 675.8 276.234 676.071 276.234C676.283 276.234 676.495 276.166 676.67 276.024L692.957 262.935C693.215 262.73 693.338 262.407 693.286 262.093Z" fill="#C7DEFF"/>
<path d="M718.311 273.327L696.448 265.755C696.135 265.649 695.784 265.708 695.529 265.912L679.242 279.002C678.843 279.322 678.787 279.894 679.119 280.279C679.307 280.493 679.574 280.606 679.841 280.606C680.053 280.606 680.268 280.537 680.443 280.395L696.319 267.638L717.675 275.035C718.164 275.204 718.701 274.958 718.876 274.486C719.051 274.015 718.8 273.496 718.311 273.327Z" fill="#C7DEFF"/>
<path d="M686.25 260.641C686.327 261.086 686.723 261.4 687.174 261.4C687.227 261.4 687.276 261.397 687.328 261.389C687.841 261.308 688.188 260.843 688.102 260.348L685.224 243.429C685.141 242.937 684.656 242.602 684.146 242.682C683.633 242.765 683.285 243.23 683.371 243.722L686.25 260.641Z" fill="#C7DEFF"/>
<path d="M714.009 276.78L697.283 270.987C696.794 270.818 696.26 271.064 696.082 271.535C695.907 272.007 696.161 272.526 696.65 272.695L713.376 278.487C713.481 278.523 713.588 278.541 713.693 278.541C714.077 278.541 714.439 278.31 714.577 277.939C714.752 277.468 714.497 276.949 714.009 276.78Z" fill="#C7DEFF"/>
<path d="M903.787 400.874L881.052 396.291C880.542 396.187 880.044 396.501 879.939 396.993C879.832 397.483 880.158 397.963 880.664 398.064L902.878 402.543L909.485 421.432C909.651 421.906 910.186 422.161 910.677 422.001C910.951 421.909 911.157 421.71 911.252 421.467C911.329 421.277 911.338 421.061 911.267 420.851L904.484 401.473C904.377 401.168 904.113 400.942 903.787 400.874Z" fill="#C7DEFF"/>
<path d="M923.672 382.404L908.472 399.35C908.254 399.594 908.186 399.929 908.29 400.234L915.073 419.611C915.239 420.086 915.774 420.341 916.265 420.181C916.539 420.092 916.744 419.89 916.84 419.647C916.916 419.457 916.926 419.241 916.855 419.03L910.244 400.145L925.091 383.59C925.432 383.211 925.389 382.641 924.996 382.312C924.605 381.986 924.013 382.028 923.672 382.404Z" fill="#C7DEFF"/>
<path d="M925.46 387.518L913.83 400.483C913.489 400.862 913.532 401.434 913.925 401.76C914.318 402.09 914.911 402.048 915.249 401.669L926.879 388.704C926.953 388.624 927.008 388.532 927.045 388.437C927.183 388.091 927.091 387.684 926.784 387.426C926.391 387.1 925.798 387.139 925.46 387.518Z" fill="#C7DEFF"/>
<path d="M783.368 478.592C783.368 478.592 675.5 201.139 598.207 272.494C583.415 290.478 600.753 321.204 632.603 356.837C664.453 392.467 757.094 485.094 770.22 499.79L783.368 478.592Z" fill="#5A789F"/>
<path d="M783.367 478.592C783.367 478.592 716.61 306.89 650.499 268.375C651.961 272.052 652.858 276.022 651.448 278.542C648.216 284.317 633.643 286.964 629.477 296.546C625.914 304.75 631.575 336.416 618.79 340.507C622.992 345.811 627.619 351.263 632.602 356.837C664.451 392.467 757.092 485.094 770.219 499.79L783.367 478.592Z" fill="#5A789F"/>
<path d="M610.64 274.738C618.144 280.569 625.33 286.786 632.386 293.116C673.529 330.433 709.98 372.802 739.281 419.425C744.915 428.447 750.41 437.913 755.39 447.291C757.485 451.198 759.823 455.835 761.789 459.808C763.061 462.44 764.861 466.214 766.068 468.877L766.9 470.697L767.708 472.532L768.516 474.364L769.318 476.2C759.7 457.092 748.997 438.542 737.259 420.629C725.537 402.704 712.865 385.378 699.44 368.607C679.288 343.457 657.496 319.514 634.361 296.866C626.644 289.333 618.762 281.862 610.64 274.738Z" fill="#5AA5D1"/>
<path d="M621.931 406.52C621.931 406.52 601.128 398.328 587.043 414.382C575.167 427.922 594.231 464.679 613.919 482.47C613.919 482.47 594.606 494.145 593.952 507.596C593.297 521.044 616.027 535.239 648.199 539.253L651.449 425.195L621.931 406.52Z" fill="#5A789F"/>
<path d="M619.563 405.769C621.507 416.705 622.924 433.684 625.925 452.155C630.64 481.179 641.438 523.311 604.667 524.266C614.267 531.247 629.663 536.94 648.2 539.252L651.45 425.193L621.931 406.519C621.931 406.519 621.062 406.175 619.563 405.769Z" fill="#5A789F"/>
<path d="M596.941 416.605C612.402 431.85 627.31 447.699 641.991 463.643C646.255 468.253 650.786 473.059 654.93 477.755C662.902 486.86 670.603 496.267 677.801 505.956C678.175 506.472 678.553 506.982 678.925 507.5L678.691 507.687C667.897 496.896 657.464 485.481 647.53 473.949C644.393 470.249 640.759 466.015 637.57 462.357C627.507 450.877 617.335 439.392 607.072 428.081C603.644 424.304 600.203 420.536 596.723 416.807L596.941 416.605Z" fill="#5AA5D1"/>
<path d="M606.914 507.45C614.797 507.96 622.75 507.604 630.568 506.563C634.46 506.036 638.322 505.345 642.103 504.319C645.23 503.465 648.293 502.419 651.353 501.372C654.713 500.216 658.022 498.912 661.241 497.42C663.33 496.451 665.336 495.41 667.382 494.334L667.57 494.562C666.559 495.627 665.416 496.649 664.258 497.563C659.14 501.565 653.052 504.429 646.671 505.979C636.269 508.449 625.478 509.285 614.803 508.585C612.145 508.408 609.501 508.156 606.874 507.737L606.914 507.45Z" fill="#5AA5D1"/>
<mask id="mask0_1949_925" style="mask-type:luminance" maskUnits="userSpaceOnUse" x="638" y="289" width="153" height="253">
<path d="M638.826 289.669H790.605V541.007H638.826V289.669Z" fill="white"/>
</mask>
<g mask="url(#mask0_1949_925)">
<path d="M778.486 540.975H651.037C644.608 540.975 639.395 535.946 639.395 529.741V301.312C639.395 295.107 644.608 290.076 651.037 290.076H778.486C784.919 290.076 790.132 295.107 790.132 301.312V529.741C790.132 535.946 784.919 540.975 778.486 540.975Z" fill="#303C72"/>
</g>
<path d="M774.076 534.402H655.441C650.102 534.402 645.773 530.225 645.773 525.075V305.976C645.773 300.827 650.102 296.652 655.441 296.652H774.076C779.415 296.652 783.741 300.827 783.741 305.976V525.075C783.741 530.225 779.415 534.402 774.076 534.402Z" fill="#D4EBFF"/>
<path d="M774.076 296.652H655.441C650.102 296.652 645.773 300.827 645.773 305.976V317.438H783.741V305.976C783.741 300.827 779.415 296.652 774.076 296.652Z" fill="#8CCBFF"/>
<path d="M742.962 408.201C742.962 408.201 756.709 398.98 767.46 416.256C778.215 433.534 790.082 467.824 793.44 478.482C796.798 489.138 783.877 494.797 775.887 486.665C767.894 478.533 748.037 441.631 743.493 432.553C738.95 423.475 736.179 413.333 742.962 408.201Z" fill="#9E5959"/>
<path d="M779.253 472.566L790.315 469.086C789.267 466.065 786.711 459.012 786.711 459.012C786.711 459.012 780.574 466.566 779.253 472.566Z" fill="#914D4D"/>
<path d="M766.367 473.334C766.315 469.8 766.281 464.179 766.441 458.469C766.702 449.068 765.166 427.847 765.166 427.847L752.233 448.985C756.559 456.851 761.72 465.902 766.367 473.334Z" fill="#914D4D"/>
<path d="M744.782 405.742C744.782 405.742 733.078 410.699 738.948 425.493C744.819 440.29 763.671 471.058 769.315 480.409C774.958 489.759 783.037 494.203 789.187 491.055C795.337 487.903 795.687 482.422 793.236 474.017C790.781 465.615 774.712 427.139 770.666 419.273C766.617 411.411 756.314 399.721 744.782 405.742Z" fill="white"/>
<path d="M785.621 453.935C782.037 458.473 777.533 469.564 777.533 469.564L789.805 464.471C788.589 461.322 787.154 457.714 785.621 453.935Z" fill="#D4EBFF"/>
<path d="M769.258 480.311C769.375 473.596 769.568 458.571 769.194 450.113C768.705 438.986 766.472 425.494 766.472 425.494L757.612 460.839C762.484 469.164 766.942 476.475 769.258 480.311Z" fill="#D4EBFF"/>
<path d="M819.869 430.159C819.869 430.159 829.266 433.542 834.31 444.547L829.788 448.134L817.153 435.789L819.869 430.159Z" fill="#ABD3FC"/>
<path d="M781.622 489.98C785.892 491.406 790.635 490.137 793.67 486.905C801.9 478.138 829.007 448.966 834.598 439.206C841.212 427.664 832.524 425.995 824.442 433.155C816.363 440.314 803.144 451.156 796.985 456.152C786.958 464.287 777.177 470.344 774.037 476.505C771.838 480.816 775.229 487.845 781.622 489.98Z" fill="#9E5959"/>
<path d="M826.812 449.845C822.606 454.684 814.457 445.535 817.255 441.037C817.301 440.966 825.654 430.963 826.778 427.201C827.961 423.237 827.383 421.316 831.61 417.8C835.208 414.811 837.61 412.781 839.419 413.059C841.336 413.356 839.68 415.825 837.733 417.486C835.625 419.285 832.443 424.592 835.45 424.447C837.846 424.328 845.536 422.786 847.858 421.784C851.643 420.151 861.113 411.292 863.344 415.965C863.344 415.965 865.798 415.57 865.632 418.31C865.632 418.31 868.6 419.226 865.903 422.609C865.903 422.609 867.632 424.121 865.906 426.065C864.735 427.385 859.614 431.885 856.217 434.42C852.822 436.955 839.081 438.609 834.218 441.443C832.67 442.348 827.774 448.74 826.812 449.845Z" fill="#F6AF9A"/>
<path d="M834.228 423.569C834.449 426.385 835.429 428.668 834.461 431.496C836.854 429.264 834.75 425.946 834.228 423.569Z" fill="#E57E73"/>
<path d="M865.901 422.608C864.482 422.385 863.385 423.503 862.359 424.256C859.164 426.58 856.157 429.252 852.809 431.306C856.787 430.384 859.453 426.856 862.583 424.511C863.486 423.625 864.718 422.635 865.901 422.608Z" fill="#E57E73"/>
<path d="M865.634 418.31C862.636 418.57 860.464 420.859 858.135 422.454C855.776 424.019 853.678 426.332 851.307 427.604C852.787 427.435 854.05 426.492 855.165 425.594C858.565 423.172 861.591 419.362 865.634 418.31Z" fill="#E57E73"/>
<path d="M863.344 415.965C857.901 416.739 854.332 421.583 849.825 424.112C855.017 422.823 858.107 416.956 863.344 415.965Z" fill="#E57E73"/>
<path d="M850.722 432.281C844.996 430.508 837.298 429.322 832.307 433.292C837.793 430.185 844.729 431.436 850.722 432.281Z" fill="#EA9A88"/>
<path d="M849.459 423.964C850.497 424.833 850.829 426.176 851.154 427.412C852.193 428.355 852.398 429.891 852.659 431.189C853.188 431.563 853.2 432.301 853.206 432.876C853.062 432.289 852.838 431.657 852.303 431.364C851.87 430.214 851.594 428.696 850.663 427.848C850.088 426.751 850.116 425.198 849.161 424.246C848.863 423.644 848.681 422.933 848.159 422.44C848.758 422.778 849.154 423.368 849.459 423.964Z" fill="#EA9A88"/>
<path d="M819.87 430.159C819.87 430.159 823.501 441.588 834.311 444.547C834.311 444.547 803.662 481.238 795.687 487.627C787.716 494.019 775.735 491.138 771.484 481.71C767.389 472.629 819.87 430.159 819.87 430.159Z" fill="white"/>
<path d="M730.738 511.352C717.357 515.591 711.932 525.259 710.31 534.402H761.513C760.441 528.482 759.233 524.017 757.885 521.713C749.422 507.242 730.738 511.352 730.738 511.352Z" fill="#F6AF9A"/>
<path d="M731.186 504.977C715.62 507.983 707.685 518.191 707.16 534.402H765.383C765.294 533.788 765.205 533.192 765.116 532.614C760.787 504.728 731.186 504.977 731.186 504.977Z" fill="#384682"/>
<path d="M692.399 469.99C694.279 490.518 688.59 502.925 686.154 515.407C684.87 521.991 684.526 528.493 685.417 534.402H754.505C758.75 524.903 758.004 515.543 758.142 510.479C758.379 501.956 759.091 487.722 759.091 487.722C761.607 450.079 690.522 449.459 692.399 469.99Z" fill="#F6AF9A"/>
<path d="M687.849 504.244C687.849 504.244 681.162 520.197 683.631 534.401H755.721C759.644 521.496 759.352 504.976 759.352 504.976C750.164 506.405 687.849 504.244 687.849 504.244Z" fill="#384682"/>
<path d="M682.89 534.401H733.786C733.546 511.363 713.778 509.815 713.778 509.815C698.246 508.238 686.733 512.78 682.89 534.401Z" fill="#F6AF9A"/>
<path d="M680.264 534.349C680.261 534.367 680.261 534.385 680.258 534.402H739.23C738.904 517.907 727.99 507.249 709.739 505.001C709.739 505.001 683.631 503.086 680.264 534.349Z" fill="#384682"/>
<path d="M707.028 398.093C719.442 396.083 729.349 397.726 741.034 401.029C748.852 403.237 757.23 405.366 761.014 410.471C767.659 419.434 764.63 441.574 762.931 451.823C761.232 462.069 759.945 483.498 759.014 489.004C758.084 494.509 732.771 503.151 717.276 500.901C705.397 499.176 694.525 493.558 692.977 483.059C691.155 470.679 688.052 452.929 684.452 442.143C680.852 431.361 675.196 408.903 693.032 401.387C696.377 399.979 703.759 398.621 707.028 398.093Z" fill="#F6AF9A"/>
<path d="M736.319 386.679C736.319 386.679 735.917 397.864 738.488 402.99C741.056 408.114 732.261 411.301 726.544 411.253C720.827 411.206 712.048 408.116 711.022 401.473C709.999 394.826 714.21 397.34 713.415 379.276C712.794 365.149 737.92 372.759 736.319 386.679Z" fill="#F6AF9A"/>
<path d="M737.683 400.897C736.008 395.327 736.319 386.679 736.319 386.679C737.587 375.627 722.01 368.553 715.851 373.184C715.599 374.758 715.482 376.531 715.532 378.532C715.556 379.573 726.043 399.109 737.683 400.897Z" fill="#EA9A88"/>
<path d="M764.148 507.282C763.307 501.169 764.148 471.213 764.268 466.917C764.388 462.618 766.689 440.092 766.443 433.359C766.194 426.624 764.253 413.131 762.517 409.078C760.779 405.029 747.677 401.933 740.817 400.899L737.435 399.98C737.435 399.98 738.519 403.766 732.735 404.726C724.219 406.14 714.96 401.13 711.127 397.552C711.127 397.552 708.869 397.273 707.339 397.549C707.339 397.549 692.526 399.837 688.646 401.343C684.766 402.849 679.184 409.44 678.945 420.703C678.702 431.966 684.6 453.013 686.284 463.795C687.97 474.581 686.886 493.042 686.164 499.428C685.442 505.814 678.463 526.134 678.343 534.145C678.343 534.145 679.227 534.243 680.791 534.403H749.514C759.239 533.442 766.437 532.603 767.036 532.171C767.036 532.171 765.242 526.947 765.116 522.651C764.99 518.355 764.99 513.395 764.148 507.282Z" fill="#85B9F1"/>
<path d="M731.815 406.846C735.587 406.804 740.966 414.519 740.966 414.519C742.656 411.572 744.231 405.304 745.052 401.658C743.507 401.34 742.057 401.085 740.815 400.899L737.433 399.98C737.433 399.98 738.518 403.766 732.733 404.726C724.218 406.14 714.959 401.13 711.125 397.552C711.125 397.552 708.867 397.273 707.337 397.549C707.337 397.549 706.434 397.688 705.018 397.922L703.067 400.825L726.783 419.286C726.783 419.286 726.712 418.064 727.548 413.955C728.893 407.323 731.815 406.846 731.815 406.846Z" fill="#75AEEB"/>
<path d="M700.316 460.584C702.218 446.56 702.958 421.654 702.958 421.654C702.958 421.654 689.989 426.581 679.458 428.502C680.902 440 684.938 455.176 686.284 463.794C687.97 474.577 686.886 493.041 686.164 499.427C685.442 505.813 678.463 526.134 678.343 534.144C678.343 534.144 679.227 534.242 680.791 534.402H703.189C690.311 527.654 691.045 507.883 692.744 496.961C694.741 484.1 698.879 471.194 700.316 460.584Z" fill="#75AEEB"/>
<path d="M732.349 408.972C734.116 408.909 734.499 405.992 734.57 404.255C734.051 404.448 733.443 404.608 732.73 404.726C731.268 404.969 729.781 405.023 728.307 404.928C728.943 406.295 730.46 409.037 732.349 408.972Z" fill="#384682"/>
<path d="M730.877 407.301C730.877 407.301 740.148 448.232 740.965 457.245L746.725 467.82L749.149 453.933C749.149 453.933 739.518 420.806 733.159 406.889L730.877 407.301Z" fill="#384682"/>
<path d="M731.404 404.894C731.404 404.894 736.18 402.623 737.431 399.979C737.431 399.979 739.492 399.917 740.346 400.326C740.346 400.326 741.737 407.322 740.346 411.787C740.346 411.787 735.621 405.615 731.901 405.926C728.172 406.24 725.748 414.689 725.748 414.689C725.748 414.689 712.503 404.69 710.862 397.578L711.237 397.163C711.237 397.163 722.551 403.551 731.404 404.894Z" fill="#96C3F2"/>
<path d="M756.135 346.905C756.135 346.905 757.975 355.36 755.401 365.28L749.715 346.57L756.135 346.905Z" fill="#8C4949"/>
<path d="M732.735 330.657C732.735 330.657 751.176 331.703 754.156 347.529C757.136 363.355 755.271 391.982 744.559 395.116C734.784 397.977 719.701 388.211 713.351 378.41C706.67 368.095 704.298 354.947 708.23 345.003C711.674 336.299 718.236 329.904 732.735 330.657Z" fill="#F6AF9A"/>
<path d="M724.351 349.163C724.351 349.163 722.468 351.858 722.987 355.929C723.325 358.579 722.272 359.534 719.412 363.397C716.548 367.26 717.212 367.485 716.37 371.743C715.529 375.997 713.473 386.43 713.418 387.263C713.36 388.099 710.709 385.17 708.724 379.365C706.743 373.56 702.531 362.297 702.169 351.962C701.809 341.63 711.676 331.179 721.786 330.133C721.786 330.133 731.414 325.953 740.682 329.67C749.947 333.385 756.773 339.039 756.379 348.345L754.358 348.41C754.358 348.41 752.819 347.319 752.327 347.035C750.085 345.736 748.26 346.379 746.224 347.66C746.224 347.66 738.298 351.505 734.086 351.043C734.086 351.043 729.279 352.478 724.351 349.163Z" fill="#8C4949"/>
<path d="M716.105 339.739C716.105 339.739 714.91 347.376 723.296 351.588C723.729 350.059 724.35 349.163 724.35 349.163C724.35 349.163 717.078 344.811 716.105 339.739Z" fill="#7D4141"/>
<path d="M720.975 333.54C720.902 337.254 721.823 341.212 724.671 343.848C728.062 346.931 734.381 347.553 738.89 347.441C738.34 347.645 737.769 347.799 737.192 347.921C732.885 348.787 727.73 348.375 724.176 345.656C720.576 342.822 719.492 337.681 720.975 333.54Z" fill="#7D4141"/>
<path d="M725.645 331.565C728.13 330.765 730.765 330.486 733.383 330.498C738.675 330.545 744.134 332.164 748.017 335.739C749.958 337.512 751.436 339.715 752.284 342.087C751.522 341.067 750.742 340.091 749.881 339.196C747.363 336.531 744.134 334.542 740.608 333.368C735.818 331.761 730.695 331.405 725.645 331.565Z" fill="#7D4141"/>
<path d="M723.603 333.54C728.557 333.889 733.414 335.149 738.028 336.91C741.573 338.28 745.004 340.201 747.569 342.973C747.959 343.4 748.325 343.853 748.623 344.343C748.402 344.156 748.174 343.981 747.944 343.815C747.769 343.687 747.422 343.444 747.243 343.323C744.672 341.597 741.859 340.231 738.971 339.08C733.899 337.085 728.726 335.464 723.603 333.54Z" fill="#7D4141"/>
<path d="M726.815 337.954C730.059 340.904 734.262 342.431 738.402 343.842C739.806 344.316 741.238 344.74 742.685 345.283C741.914 345.366 741.146 345.375 740.371 345.351C736.507 345.17 732.6 343.978 729.586 341.568C728.413 340.584 727.298 339.404 726.815 337.954Z" fill="#7D4141"/>
<path d="M720.181 368.419C720.181 368.419 720.141 360.083 714.989 360.026C709.835 359.97 709.862 366.949 713.186 371.476C715.044 374.01 720.202 377.203 720.181 368.419Z" fill="#F6AF9A"/>
<path d="M714.509 365.648C715.523 365.704 716.322 366.241 716.881 366.786C716.737 365.829 716.328 364.904 715.391 364.328C715.148 364.18 715.078 363.872 715.231 363.638C715.385 363.404 715.701 363.335 715.947 363.484C719.292 365.532 717.548 370.539 717.471 370.75C717.379 371.011 717.084 371.15 716.813 371.058C716.807 371.058 716.804 371.055 716.798 371.055C716.537 370.96 716.399 370.682 716.491 370.424C716.497 370.403 716.795 369.549 716.906 368.458C716.899 368.449 716.887 368.44 716.881 368.429C716.872 368.414 715.923 366.727 714.451 366.647C714.165 366.632 713.947 366.395 713.963 366.119C713.978 365.843 714.224 365.633 714.509 365.648Z" fill="#E57E73"/>
<path d="M675.788 534.401H768.604C767.274 520.909 765.621 500.9 765.228 491.769C764.699 479.462 766.985 446.441 767.034 436.145C767.083 425.848 763.999 411.448 763.999 411.448C763.591 410.266 762.73 406.794 755.044 404.031C747.358 401.271 740.548 400.823 740.548 400.823C747.18 417.333 745.303 459.711 745.303 459.711C745.303 459.711 739.301 443.966 730.877 426.699C723.486 411.549 706.729 397.547 706.729 397.547C698.818 397.796 685.038 400.953 685.038 400.953C671.297 415.495 680.442 445.495 682.737 461.472C685.029 477.449 682.958 494.256 676.882 527.491C676.501 529.572 676.135 531.89 675.788 534.401Z" fill="white"/>
<path d="M745.42 456.143L745.303 460.608C750.882 423.546 747.788 403.964 747.275 401.845C743.297 401.006 740.548 400.825 740.548 400.825C746.013 414.427 745.7 445.592 745.42 456.143Z" fill="#ABD3FC"/>
<path d="M745.061 459.074C743.853 455.97 738.312 441.926 730.881 426.699C723.489 411.549 706.732 397.547 706.732 397.547C704.388 397.621 701.528 397.95 698.665 398.377C698.665 398.377 738.895 441.063 745.306 460.607L745.061 459.074Z" fill="#ABD3FC"/>
<path d="M743.359 534.403H744.588C745.808 509.452 746.668 484.5 745.304 459.712C746.035 484.569 744.631 509.579 743.359 534.403Z" fill="#ABD3FC"/>
<path d="M682.737 461.473C685.029 477.45 682.958 494.257 676.882 527.491C676.501 529.573 676.135 531.891 675.788 534.402H686.303L688.233 515.2C688.736 509.807 690.662 489.312 691.298 483.368C692.036 476.504 693.507 475.555 697.187 456.489C700.867 437.423 701.746 420.907 701.746 420.907L679.023 440.815C680.252 448.538 681.926 455.837 682.737 461.473Z" fill="#D4EBFF"/>
<path d="M738.892 400.02C738.892 400.02 743.801 418.748 745.303 459.712C745.303 459.712 747.723 435.2 747.112 419.457C746.498 403.717 746.043 401.597 746.043 401.597C746.043 401.597 740.913 399.614 738.892 400.02Z" fill="white"/>
<path d="M745.304 459.713C730.878 426.7 699.978 398.189 699.978 398.189C703.077 396.686 711.239 397.163 711.239 397.163C711.239 397.163 723.269 410.344 731.659 426.087C742.957 447.29 745.304 459.713 745.304 459.713Z" fill="white"/>
<path d="M685.972 401.602C685.972 401.602 702.662 402.894 699.605 422.832C696.548 442.767 683.158 476.532 678.743 486.826C674.329 497.116 661.184 493.757 660.361 482.577C659.535 471.4 667.899 430.543 670.363 420.745C672.824 410.95 677.355 401.415 685.972 401.602Z" fill="#F6AF9A"/>
<path d="M688.645 401.342C688.645 401.342 676.397 396.498 669.589 419.575C662.779 442.652 658.364 473.367 658.18 483.663C657.996 493.96 668.462 499.044 675.107 495.202C681.754 491.363 688.93 467.455 693.243 455.276C699.977 436.263 710.462 406.008 688.645 401.342Z" fill="white"/>
<path d="M660.224 481.583C660.224 481.583 660.11 514.335 661.621 534.403H676.044C677.11 525.313 678.449 515.357 679.211 509.893C680.959 497.368 682.547 487.391 682.735 479.416C682.981 468.995 660.964 466.807 660.224 481.583Z" fill="#F6AF9A"/>
<path d="M672.124 465.022C672.124 465.022 659.465 466.089 658.178 481.355C657.21 492.849 657.072 517.222 657.536 534.403H681.325C683.337 513.688 686.891 476.742 686.965 473.335C687.069 468.574 678.342 463.958 672.124 465.022Z" fill="white"/>
<path d="M782.989 491.865V525.076C782.989 529.817 778.989 533.674 774.077 533.674H655.442C650.526 533.674 646.53 529.817 646.53 525.076V305.977C646.53 301.237 650.526 297.38 655.442 297.38H774.077C778.989 297.38 782.989 301.237 782.989 305.977V447.51C783.422 448.56 783.852 449.603 784.276 450.644C784.414 450.51 784.497 450.33 784.497 450.128V305.977C784.497 300.433 779.822 295.924 774.077 295.924H655.442C649.694 295.924 645.021 300.433 645.021 305.977V525.076C645.021 530.62 649.694 535.13 655.442 535.13H774.077C779.822 535.13 784.497 530.62 784.497 525.076V492.046C783.999 492.022 783.496 491.963 782.989 491.865Z" fill="white"/>
<path d="M741.507 301.31H688.015C684.735 301.31 682.074 298.742 682.074 295.579V294.381H747.445V295.579C747.445 298.742 744.788 301.31 741.507 301.31Z" fill="#303C72"/>
<path d="M1071.59 347.063C1073.33 345.884 1075.23 344.979 1077.26 344.372C1085.62 341.857 1107.25 337.707 1123.64 355.222C1141.13 373.915 1115.81 426.915 1088.71 453.023C1088.71 453.023 1116.66 468.748 1118.23 487.805C1119.79 506.862 1088.2 528.006 1042.74 535.113L1032.74 373.39L1071.59 347.063Z" fill="#5A789F"/>
<path d="M1077.08 344.427C1074.84 360.033 1073.63 384.19 1070.24 410.531C1064.92 451.931 1051.58 512.197 1103.81 511.94C1090.51 522.266 1068.93 531.02 1042.74 535.115L1032.74 373.392L1071.59 347.062C1073.26 345.933 1075.08 345.04 1077.02 344.448L1077.08 344.427Z" fill="#5A789F"/>
<path d="M1109.97 359.049C1089.65 382.108 1069.89 405.713 1050.36 429.402C1044.81 436.161 1038.83 443.677 1033.26 450.424C1021.8 464.228 1009.94 478.269 997.921 491.619L997.682 491.441C998.204 490.703 998.732 489.971 999.258 489.239C1001.9 485.589 1004.61 481.931 1007.31 478.34C1014.89 468.29 1022.78 458.269 1030.8 448.533C1038.8 438.883 1047.31 429.164 1055.46 419.627C1066.03 407.335 1076.88 394.954 1087.71 382.891C1092.47 377.581 1097.5 372.043 1102.32 366.804C1104.79 364.145 1107.25 361.486 1109.74 358.853L1109.97 359.049Z" fill="#5AA5D1"/>
<path d="M1099.89 488.517C1082.19 491.431 1063.91 491.191 1046.29 487.82C1044.45 487.461 1042.53 487.04 1040.72 486.578C1032.91 484.535 1025.37 481.268 1018.73 476.797C1017.82 476.189 1016.73 475.404 1015.88 474.734C1014.96 474.025 1014.04 473.263 1013.18 472.495L1013.36 472.261C1015.01 473.148 1016.64 474.04 1018.3 474.864C1019.89 475.665 1021.68 476.513 1023.32 477.233C1027.95 479.291 1032.74 481.01 1037.59 482.504C1042.44 484.007 1047.35 485.386 1052.36 486.385C1066.11 489.015 1080.25 489.643 1094.24 488.736C1096.11 488.612 1097.98 488.458 1099.84 488.229L1099.89 488.517Z" fill="#5AA5D1"/>
<mask id="mask1_1949_925" style="mask-type:luminance" maskUnits="userSpaceOnUse" x="907" y="289" width="153" height="253">
<path d="M907.783 289.67H1059.56V541.007H907.783V289.67Z" fill="white"/>
</mask>
<g mask="url(#mask1_1949_925)">
<path d="M1047.36 540.974H919.914C913.485 540.974 908.269 535.945 908.269 529.74V301.311C908.269 295.106 913.485 290.075 919.914 290.075H1047.36C1053.8 290.075 1059.01 295.106 1059.01 301.311V529.74C1059.01 535.945 1053.8 540.974 1047.36 540.974Z" fill="#303C72"/>
</g>
<path d="M1042.95 534.402H924.321C918.982 534.402 914.653 530.225 914.653 525.075V305.976C914.653 300.827 918.982 296.652 924.321 296.652H1042.95C1048.29 296.652 1052.62 300.827 1052.62 305.976V525.075C1052.62 530.225 1048.29 534.402 1042.95 534.402Z" fill="#D4EBFF"/>
<path d="M941.552 419.115C942.464 414.327 946.372 410.367 951.631 409.483C958.386 408.348 964.816 412.709 965.992 419.225C966.235 420.58 966.235 421.92 966.017 423.204C965.968 423.506 965.903 423.806 965.829 424.102C964.619 429.827 957.799 461.624 951.391 481.126C950.718 484.493 947.96 487.268 944.252 487.891C939.46 488.697 934.898 485.602 934.062 480.977C933.734 479.169 939.07 429.237 941.552 419.115Z" fill="#DE9681"/>
<path d="M953.186 420.899C953.186 420.899 958.439 416.229 966.014 419.357C966.235 420.667 966.226 421.963 966.017 423.205C965.968 423.508 965.904 423.807 965.83 424.104C964.785 429.043 959.566 453.395 954.037 472.509C953.536 470.16 952 467.815 951.238 467.231C950.043 466.315 946.931 463.594 945.405 458.812C944.311 455.393 946.394 442.594 948.781 435.865C951.168 429.132 953.186 420.899 953.186 420.899Z" fill="#EA9A88"/>
<path d="M957.077 408.971C957.077 408.971 952.371 408.031 945.978 410.755C944.064 411.571 942.233 414.764 940.989 417.239C936.237 426.711 932.618 455.487 932.618 455.487C932.618 455.487 945.004 466.631 957.983 470.207C957.983 470.207 967.648 429.561 967.454 421.046C967.261 412.534 960.825 409.845 957.077 408.971Z" fill="#FCF5F1"/>
<path d="M964.023 442.92L948.371 418.944C948.371 418.944 951.683 428.722 949.997 435.274C948.31 441.829 944.298 450.794 943.671 456.143C943.401 458.458 943.527 461.251 943.757 463.673C947.941 466.261 952.918 468.811 957.984 470.207C957.984 470.207 961.314 456.208 964.023 442.92Z" fill="#F0E2DA"/>
<path d="M946.505 470.004C941.744 468.279 936.429 470.603 934.641 475.199C934.288 476.103 934.101 477.025 934.061 477.938C934.058 477.938 930.633 522.418 929.711 534.401H940.521C941.639 529.249 943.744 519.907 945.998 511.798C949.848 497.956 951.168 485.513 951.777 479.782C951.949 479.026 952.016 478.267 951.983 477.52C951.826 474.063 950.072 471.297 946.505 470.004Z" fill="#DE9681"/>
<path d="M968.817 516.922C958.658 517.983 950.763 525.259 948.745 534.402H993.851C991.43 523.367 980.687 515.683 968.817 516.922Z" fill="#F6AF9A"/>
<path d="M947.414 534.403H994.808C991.355 514.447 975.759 514.429 973.796 514.456C973.796 514.456 952.126 513.125 947.414 534.403Z" fill="#8C4949"/>
<path d="M989.294 481.461C965.382 481.396 960.424 492.154 960.424 492.154C960.025 495.125 959.96 498.428 958.541 501.238C951.979 514.218 949.417 529.024 948.655 534.402H1029.07C1028.59 526.412 1025.57 518.849 1021.53 509.202C1018.99 503.133 1012.89 495.158 1012.8 488.899C1012.8 488.899 1010.36 481.517 989.294 481.461Z" fill="#F6AF9A"/>
<path d="M960.145 494.545C960.145 494.545 958.597 496.775 954.606 507.193C951.7 514.773 948.871 527.845 947.547 534.403H1030.1C1029.06 525.402 1026.28 515.529 1023.14 509.956C1019.37 503.291 1014 492.333 1014 492.333C1003.37 494.945 960.145 494.545 960.145 494.545Z" fill="#8C4949"/>
<path d="M1023.14 509.956C1019.37 503.291 1014 492.333 1014 492.333C1006.82 494.098 984.759 494.489 971.202 494.554C965.049 498.539 963.276 503.098 963.276 503.098C963.276 503.098 979.794 508.518 1000.66 508.859C1011.56 508.859 1015.85 508.859 1017.28 509.612C1018.28 510.14 1019.86 525.361 1020.71 534.403H1030.1C1029.06 525.402 1026.29 515.529 1023.14 509.956Z" fill="#824444"/>
<path d="M983.501 534.402H1028.47C1026.31 525.217 1018.2 518.028 1007.96 517.177C996.345 516.213 986.005 523.735 983.501 534.402Z" fill="#F6AF9A"/>
<path d="M981.498 534.403H1029.75C1027.68 523.792 1021.98 513.982 1005.77 514.471C1005.77 514.471 985.565 514.459 981.498 534.403Z" fill="#8C4949"/>
<path d="M1018.83 517.123C1019.54 522.388 1020.24 529.358 1020.71 534.403H1029.75C1028.38 527.365 1025.41 520.683 1018.83 517.123Z" fill="#824444"/>
<path d="M958.794 474.047C958.794 474.047 952.61 470.528 951.514 464.854C950.417 459.179 953.563 440.312 954.361 431.486C955.163 422.66 947.837 415.046 946.854 410.664C946.854 410.664 957.203 405.968 979.895 403.819C979.895 403.819 992.687 404.175 1004.98 406.333C1015.01 408.091 1020.23 413.389 1022.19 416.422C1024.15 419.455 1022.88 426.849 1020.14 435.879C1017.41 444.91 1014.41 452.734 1014.11 462.298C1013.96 466.917 1013.75 483.404 1014.05 494.198C1014.05 494.198 1015.24 500.982 990.948 502.431C968.523 503.771 960.198 494.302 960.198 494.302C959.353 485.423 958.794 474.047 958.794 474.047Z" fill="#DE9681"/>
<path d="M1017.65 443.884C1015.83 449.84 1014.32 455.648 1014.11 462.298C1014.01 465.518 1013.87 474.501 1013.9 483.306C1008.57 469.425 1001.44 427.984 1001.44 427.984L1017.65 443.884Z" fill="#E57E73"/>
<path d="M968.591 407.076L969.924 384.2C970.081 379.667 973.294 375.585 978.077 374.39C983.898 372.934 989.84 376.308 991.348 381.926C991.554 382.688 991.664 383.456 991.692 384.212L993.775 408.772C993.793 408.944 993.839 409.723 993.839 409.723C994.199 415.502 990.273 420.497 984.243 422.003C977.395 423.714 970.634 420.061 968.861 413.453C968.308 411.395 968.443 409.267 968.591 407.076Z" fill="#DE9681"/>
<path d="M969.925 384.2C970.082 379.667 973.295 375.585 978.078 374.39C983.9 372.934 989.841 376.308 991.349 381.926C991.555 382.688 991.666 383.456 991.693 384.212L991.801 385.49C986.941 396.038 978.094 403.889 968.669 405.789L969.925 384.2Z" fill="#D38475"/>
<path d="M960.72 406.658C960.72 406.658 962.299 413.545 973.574 415.321C984.848 417.097 1007.72 406.732 1007.72 406.732C1007.72 406.732 1012.62 406.667 1016 408.698C1016 408.698 1022.4 412.558 1023.48 417.296C1024.55 422.036 1023.12 430.426 1022.25 433.489C1021.38 436.549 1016 463.646 1016 470.435C1016 475.176 1018.85 488.662 1020.57 496.371C1021.25 499.466 1019.1 502.475 1015.86 502.952C1005.11 504.533 981.484 507.064 958.41 503.243C954.632 502.617 951.965 499.324 952.214 495.635C952.792 487.115 953.747 472.932 953.726 472.339C953.726 472.339 948.958 469.525 947.932 461.526C946.906 453.53 953.197 433.685 952.521 430.278C951.846 426.872 945.861 413.996 945.981 410.755C945.981 410.755 952.475 407.755 960.72 406.658Z" fill="#FCF5F1"/>
<path d="M988.845 505.206C1000.24 504.966 1009.99 503.815 1015.87 502.953C1019.1 502.475 1021.25 499.463 1020.56 496.371C1018.85 488.663 1016 475.176 1016 470.435C1016 463.646 1021.38 436.549 1022.25 433.489C1022.45 432.789 1022.67 431.814 1022.89 430.67C1013.26 425.401 1004.26 424.215 999.892 429.834C999.892 429.834 1002.12 455.268 1002.09 460.157C1002.05 465.043 991.035 472.558 974.459 470.907C974.459 470.907 989.81 476.338 1003.83 469.425L1005.5 474.115H1011.8C1011.8 474.115 1012.63 484.038 1013.86 490.851C1015.08 497.628 1002.23 502.416 988.845 505.206Z" fill="#F0E2DA"/>
<path d="M999.982 424.227C999.838 423.056 999.859 421.849 1000.07 420.628C1001.26 413.669 1008.07 408.959 1015.28 410.103C1021.26 411.055 1025.65 415.745 1026.29 421.289L1041.16 481.906C1041.47 483.091 1041.55 484.357 1041.32 485.644C1040.48 490.583 1035.65 493.927 1030.53 493.115C1026.22 492.427 1023.08 489.009 1022.7 484.995C1022.7 484.995 1003.92 442.261 1000.32 425.952C1000.17 425.389 1000.06 424.811 999.982 424.227Z" fill="#DE9681"/>
<path d="M1010.78 408.697C1010.78 408.697 997.277 410.455 999.274 426.735C1001.27 443.014 1008.02 472.338 1008.02 472.338C1008.02 472.338 1032.12 472.486 1040.26 461.081C1040.26 461.081 1029.05 423.204 1025.98 416.655C1022.91 410.103 1015.56 406.954 1010.78 408.697Z" fill="#FCF5F1"/>
<path d="M1029.9 476.045C1026.12 476.905 1023.41 479.855 1022.79 483.329C1022.66 484.082 1022.62 484.859 1022.69 485.645C1022.53 491.515 1022.74 503.893 1024.76 518.372C1025.5 523.694 1026.12 529.496 1026.58 534.403H1038.68C1039.66 516.745 1041.41 485.636 1041.41 485.636C1041.49 484.705 1041.42 483.747 1041.19 482.793C1040 477.919 1034.95 474.898 1029.9 476.045Z" fill="#DE9681"/>
<path d="M980.462 336.53C980.462 336.53 1001.76 337.295 1001.3 361.606C1000.84 384.959 980.518 404.063 963.103 399.16C957.567 397.259 953.921 385.098 953.727 366.818C953.531 348.537 961.665 335.89 980.462 336.53Z" fill="#DE9681"/>
<path d="M1008.74 393.779C1006.14 385.484 1008.25 369.664 1007.19 362.528C1007.17 362.341 1007.12 362.169 1007.07 362.009C1006.41 352.477 1003.16 344.817 995.634 339.035C987.536 332.812 974.339 335.706 974.339 335.706C968.342 335.273 955.895 340.337 952.445 348.294C948.995 356.252 950.046 367.684 951.398 370.722C952.746 373.761 950.946 376.655 950.196 378.68C949.447 380.705 950.946 382.729 952.295 385.335C953.646 387.938 951.398 390.977 951.398 390.977C953.646 389.821 954.694 386.637 953.797 383.889C952.897 381.137 952.445 380.126 953.032 378.039C953.615 375.949 954.095 374.627 954.396 371.446C954.694 368.262 953.944 361.896 955.744 357.556C957.545 353.213 964.592 348.294 964.592 348.294C966.693 354.517 969.691 359.436 973.589 360.737C977.491 362.039 979.89 363.921 980.639 365.801C981.389 367.684 980.188 371.155 980.639 375.35C981.088 379.548 982.888 379.691 984.237 381.573C985.588 383.453 981.837 386.782 980.937 388.229C980.037 389.676 980.639 392.134 981.687 394.016C982.738 395.896 981.988 398.066 981.988 398.066C983.788 397.343 983.487 393.871 982.888 390.977C982.289 388.084 984.538 387.36 985.886 385.19C987.238 383.02 985.438 379.981 985.137 378.389C984.836 376.797 987.269 371.381 988.169 371.813C988.688 372.065 989.305 375.051 989.788 378.594C989.548 380.064 989.511 381.544 989.739 383.002C989.739 383.002 990.126 383.88 990.47 385.282C990.494 385.682 990.519 386.074 990.537 386.447C990.577 387.277 990.752 388.241 990.98 389.178C991.007 391.037 990.712 393.115 989.739 395.131C986.943 400.918 983.438 398.982 984.215 407.601C984.992 416.222 982.731 423.156 980.037 427.565C977.343 431.976 977.294 444.846 982.817 452.11C982.817 452.11 983.733 446.412 987.837 444.692C991.941 442.973 998.352 434.529 997.928 429.169C997.501 423.809 1001.23 408.395 1010.72 406.821C1010.72 406.821 1011.33 402.074 1008.74 393.779Z" fill="#8C4949"/>
<path d="M964.592 348.295C964.957 342.819 968.736 337.281 974.339 335.707C969.399 338.402 966.235 343.151 964.592 348.295Z" fill="#7A3D3D"/>
<path d="M968.345 347.138C975.435 349.821 974.19 353.165 978.218 357.923C979.578 359.738 981.802 360.186 983.756 361.102C986.244 362.593 987.925 365.427 987.839 368.261C987.559 365.884 986.134 363.601 984.156 362.198C981.815 360.752 979.434 360.918 977.539 358.493C973.462 353.663 975.091 350.675 968.345 347.138Z" fill="#7A3D3D"/>
<path d="M972.842 344.244C976.743 344.887 980.601 346.764 982.721 350.099C986.545 354.866 992.79 359.553 992.038 366.236C991.881 359.66 985.762 355.498 982.039 350.588C980.085 347.295 976.494 345.383 972.842 344.244Z" fill="#7A3D3D"/>
<path d="M972.842 339.76C979.446 338.992 986.684 340.463 991.369 345.292C993.67 347.474 995.657 350.048 996.815 352.974C997.328 354.329 997.694 355.779 997.694 357.228C997.666 358.049 997.688 359.055 997.78 359.873C998.21 364.406 999.319 369.12 998.035 373.617C999.128 368.1 996.846 362.568 996.88 357.053C996.453 351.69 992.57 347.193 988.447 343.854C984.076 340.567 978.264 339.65 972.842 339.76Z" fill="#7A3D3D"/>
<path d="M1003.74 364.971C1004.98 370.05 1005.35 375.529 1003.72 380.569C1003.02 383.083 1001.65 385.419 1000.97 387.909C1000.39 390.494 1002.01 392.976 1001.73 395.594C1001.68 399.178 1000.12 402.905 996.97 404.986C996.257 405.454 995.569 406.009 994.988 406.623C992.015 409.81 990.783 414.194 990.427 418.398C990.328 420.148 990.374 421.924 989.984 423.643C988.955 430.616 982.071 435.867 982.817 443.142C981.668 435.923 988.387 430.42 989.296 423.521C989.643 421.817 989.557 420.074 989.643 418.348C989.966 413.747 991.351 408.894 994.826 405.555C995.305 405.096 995.898 404.648 996.454 404.275C1000.14 401.849 1001.38 397.135 1000.73 393.038C1000.41 391.292 999.707 389.531 1000.24 387.749C1000.99 385.191 1002.38 382.934 1003.16 380.397C1004.9 375.451 1004.69 370.056 1003.74 364.971Z" fill="#7A3D3D"/>
<path d="M994.366 384.096C997.112 392.699 993.706 393.929 990.379 400.87C989.709 402.334 989.774 403.799 989.639 405.382C988.886 408.323 987.654 409.061 987.839 412.63C987.273 409.82 988.057 408.281 988.88 405.737C989.086 404.347 988.797 402.877 989.261 401.504C989.319 401.237 989.473 400.834 989.562 400.573C992.886 393.242 996.013 393.443 994.366 384.096Z" fill="#7A3D3D"/>
<path d="M1004.63 388.218C1004.46 390.797 1004.14 393.418 1004.6 395.95C1004.76 396.839 1005.34 397.456 1005.65 398.262C1006.36 399.955 1006.59 401.822 1006.26 403.613C1005.87 405.315 1005 406.913 1005.01 408.697C1004.62 406.945 1005.29 405.229 1005.56 403.515C1005.9 396.462 1001.72 398.247 1004.63 388.218Z" fill="#7A3D3D"/>
<path d="M998.465 410.566C996.533 413.038 994.622 415.967 994.758 419.157C995.28 423.925 995.495 429.877 992.844 434.099C994.675 429.528 994.303 424.414 993.928 419.617C993.636 416.086 995.909 412.869 998.465 410.566Z" fill="#7A3D3D"/>
<path d="M993.069 367.599C993.069 367.599 996.519 367.863 996.593 373.104C996.66 378.141 993.524 383.943 989.736 383.003C988.529 382.629 987.482 378.224 987.31 374.284C987.138 370.347 989.015 367.587 993.069 367.599Z" fill="#DE9681"/>
<path d="M990.353 379.248C988.826 372.435 992.444 370.502 992.598 370.422C992.785 370.324 993.016 370.395 993.117 370.573C993.215 370.754 993.145 370.976 992.961 371.074C992.856 371.131 990.933 372.189 990.758 375.61C991.824 374.404 993.523 374.19 993.615 374.178C993.824 374.155 994.014 374.3 994.042 374.501C994.066 374.706 993.916 374.89 993.707 374.913C993.609 374.925 991.326 375.222 990.789 377.104C990.841 377.709 990.939 378.367 991.102 379.091C991.142 379.271 991.038 379.452 990.859 379.515C990.844 379.52 990.826 379.526 990.807 379.529C990.601 379.574 990.396 379.446 990.353 379.248Z" fill="#BA6D5B"/>
<path d="M1042.95 296.652H924.321C918.982 296.652 914.653 300.827 914.653 305.976V317.438H1052.62V305.976C1052.62 300.827 1048.29 296.652 1042.95 296.652Z" fill="#8CCBFF"/>
<path d="M1043.47 306.584H1030.2C1029.39 306.584 1028.72 305.95 1028.72 305.164V304.939C1028.72 304.156 1029.39 303.521 1030.2 303.521H1043.47C1044.28 303.521 1044.94 304.156 1044.94 304.939V305.164C1044.94 305.95 1044.28 306.584 1043.47 306.584Z" fill="white"/>
<path d="M1043.47 313.217H1035.06C1034.25 313.217 1033.59 312.579 1033.59 311.797V311.571C1033.59 310.786 1034.25 310.151 1035.06 310.151H1043.47C1044.28 310.151 1044.94 310.789 1044.94 311.571V311.797C1044.94 312.579 1044.28 313.217 1043.47 313.217Z" fill="white"/>
<path d="M1042.95 535.13H924.322C918.574 535.13 913.898 530.62 913.898 525.076V305.977C913.898 300.433 918.574 295.924 924.322 295.924H1042.95C1048.7 295.924 1053.38 300.433 1053.38 305.977V525.076C1053.38 530.62 1048.7 535.13 1042.95 535.13ZM924.322 297.38C919.406 297.38 915.41 301.237 915.41 305.977V525.076C915.41 529.817 919.406 533.674 924.322 533.674H1042.95C1047.87 533.674 1051.87 529.817 1051.87 525.076V305.977C1051.87 301.237 1047.87 297.38 1042.95 297.38H924.322Z" fill="white"/>
<path d="M1010.39 301.31H956.89C953.612 301.31 950.952 298.742 950.952 295.579V294.381H1016.32V295.579C1016.32 298.742 1013.66 301.31 1010.39 301.31Z" fill="#303C72"/>
<path d="M925.514 329.732H806.117C802.28 329.732 799.168 332.736 799.168 336.439V369.857C799.168 373.563 802.28 376.563 806.117 376.563H913.352L932.463 398.689V336.439C932.463 332.736 929.351 329.732 925.514 329.732Z" fill="white"/>
<path d="M877.546 344.939H918.753C919.923 344.939 920.872 344.023 920.872 342.893V341.227C920.872 340.097 919.923 339.181 918.753 339.181H877.546C876.372 339.181 875.423 340.097 875.423 341.227V342.893C875.423 344.023 876.372 344.939 877.546 344.939Z" fill="#D4E7FF"/>
<path d="M811.437 344.939H864.582C865.755 344.939 866.704 344.023 866.704 342.893V341.227C866.704 340.097 865.755 339.181 864.582 339.181H811.437C810.267 339.181 809.317 340.097 809.317 341.227V342.893C809.317 344.023 810.267 344.939 811.437 344.939Z" fill="#D4E7FF"/>
<path d="M893.633 356.193H918.755C919.925 356.193 920.875 355.277 920.875 354.148V352.485C920.875 351.352 919.925 350.436 918.755 350.436H893.633C892.463 350.436 891.511 351.352 891.511 352.485V354.148C891.511 355.277 892.463 356.193 893.633 356.193Z" fill="#D4E7FF"/>
<path d="M869.485 356.193H881.333C882.506 356.193 883.456 355.277 883.456 354.148V352.485C883.456 351.352 882.506 350.436 881.333 350.436H869.485C868.314 350.436 867.365 351.352 867.365 352.485V354.148C867.365 355.277 868.314 356.193 869.485 356.193Z" fill="#D4E7FF"/>
<path d="M811.437 356.194H857.667C858.84 356.194 859.789 355.277 859.789 354.148V352.485C859.789 351.352 858.84 350.436 857.667 350.436H811.437C810.267 350.436 809.317 351.352 809.317 352.485V354.148C809.317 355.277 810.267 356.194 811.437 356.194Z" fill="#D4E7FF"/>
<path d="M904.537 367.45H918.756C919.927 367.45 920.876 366.534 920.876 365.401V363.738C920.876 362.606 919.927 361.689 918.756 361.689H904.537C903.366 361.689 902.417 362.606 902.417 363.738V365.401C902.417 366.534 903.366 367.45 904.537 367.45Z" fill="#D4E7FF"/>
<path d="M811.437 367.45H893.314C894.484 367.45 895.433 366.534 895.433 365.401V363.738C895.433 362.606 894.484 361.689 893.314 361.689H811.437C810.267 361.689 809.317 362.606 809.317 363.738V365.401C809.317 366.534 810.267 367.45 811.437 367.45Z" fill="#D4E7FF"/>
<path d="M892.923 377.535H806.118C801.732 377.535 798.162 374.09 798.162 369.857V336.438C798.162 332.205 801.732 328.763 806.118 328.763H903.515C904.071 328.763 904.519 329.196 904.519 329.732C904.519 330.269 904.071 330.705 903.515 330.705H806.118C802.844 330.705 800.177 333.275 800.177 336.438V369.857C800.177 373.02 802.844 375.593 806.118 375.593H892.923C893.479 375.593 893.93 376.026 893.93 376.563C893.93 377.1 893.479 377.535 892.923 377.535Z" fill="#8CCBFF"/>
<path d="M892.702 273.131H773.308C769.471 273.131 766.359 276.134 766.359 279.837V342.087L785.47 319.962H892.702C896.542 319.962 899.654 316.958 899.654 313.255V279.837C899.654 276.134 896.542 273.131 892.702 273.131Z" fill="white"/>
<path d="M845.975 288.432H780.349C779.176 288.432 778.227 287.516 778.227 286.386V284.72C778.227 283.59 779.176 282.674 780.349 282.674H845.975C847.146 282.674 848.095 283.59 848.095 284.72V286.386C848.095 287.516 847.146 288.432 845.975 288.432Z" fill="#D4E7FF"/>
<path d="M887.666 288.432H858.94C857.77 288.432 856.82 287.516 856.82 286.386V284.72C856.82 283.59 857.77 282.674 858.94 282.674H887.666C888.839 282.674 889.788 283.59 889.788 284.72V286.386C889.788 287.516 888.839 288.432 887.666 288.432Z" fill="#D4E7FF"/>
<path d="M804.657 299.685H780.349C779.179 299.685 778.227 298.768 778.227 297.639V295.973C778.227 294.843 779.179 293.927 780.349 293.927H804.657C805.827 293.927 806.776 294.843 806.776 295.973V297.639C806.776 298.768 805.827 299.685 804.657 299.685Z" fill="#D4E7FF"/>
<path d="M868.05 299.685H817.768C816.598 299.685 815.648 298.769 815.648 297.639V295.973C815.648 294.843 816.598 293.927 817.768 293.927H868.05C869.22 293.927 870.169 294.843 870.169 295.973V297.639C870.169 298.769 869.22 299.685 868.05 299.685Z" fill="#D4E7FF"/>
<path d="M887.664 299.685H879.868C878.694 299.685 877.745 298.768 877.745 297.639V295.973C877.745 294.843 878.694 293.927 879.868 293.927H887.664C888.838 293.927 889.787 294.843 889.787 295.973V297.639C889.787 298.768 888.838 299.685 887.664 299.685Z" fill="#D4E7FF"/>
<path d="M832.748 310.943H780.349C779.179 310.943 778.227 310.024 778.227 308.894V307.231C778.227 306.098 779.179 305.182 780.349 305.182H832.748C833.918 305.182 834.867 306.098 834.867 307.231V308.894C834.867 310.024 833.918 310.943 832.748 310.943Z" fill="#D4E7FF"/>
<path d="M887.667 310.943H843.974C842.801 310.943 841.852 310.024 841.852 308.894V307.231C841.852 306.098 842.801 305.182 843.974 305.182H887.667C888.84 305.182 889.789 306.098 889.789 307.231V308.894C889.789 310.024 888.84 310.943 887.667 310.943Z" fill="#D4E7FF"/>
<path d="M892.701 320.93H799.17C798.614 320.93 798.162 320.498 798.162 319.961C798.162 319.424 798.614 318.988 799.17 318.988H892.701C895.979 318.988 898.645 316.418 898.645 313.255V279.836C898.645 276.673 895.979 274.1 892.701 274.1H773.307C770.032 274.1 767.366 276.673 767.366 279.836V285.552C767.366 286.089 766.914 286.525 766.358 286.525C765.802 286.525 765.351 286.089 765.351 285.552V279.836C765.351 275.603 768.92 272.158 773.307 272.158H892.701C897.091 272.158 900.661 275.603 900.661 279.836V313.255C900.661 317.488 897.091 320.93 892.701 320.93Z" fill="#8CCBFF"/>
</svg>
