<svg width="1711" height="820" viewBox="0 0 1711 820" fill="none" xmlns="http://www.w3.org/2000/svg">
<rect x="0.558594" width="1710" height="820" fill="white"/>
<path d="M667.104 611.302H662.885L670.567 589.484H675.446L683.138 611.302H678.919L673.091 593.958H672.921L667.104 611.302ZM667.243 602.747H678.748V605.922H667.243V602.747ZM692.459 617.779C691.074 617.779 689.885 617.591 688.89 617.214C687.896 616.845 687.097 616.348 686.493 615.723C685.89 615.098 685.471 614.405 685.236 613.646L688.709 612.804C688.866 613.123 689.093 613.44 689.391 613.752C689.689 614.072 690.091 614.334 690.595 614.54C691.106 614.753 691.749 614.86 692.523 614.86C693.617 614.86 694.523 614.594 695.24 614.061C695.957 613.535 696.316 612.669 696.316 611.462V608.361H696.124C695.925 608.759 695.634 609.168 695.251 609.587C694.874 610.006 694.373 610.357 693.748 610.641C693.131 610.925 692.353 611.067 691.415 611.067C690.158 611.067 689.018 610.773 687.996 610.183C686.98 609.587 686.17 608.699 685.567 607.52C684.97 606.334 684.672 604.849 684.672 603.067C684.672 601.27 684.97 599.753 685.567 598.518C686.17 597.275 686.983 596.334 688.006 595.695C689.029 595.048 690.169 594.725 691.426 594.725C692.385 594.725 693.173 594.888 693.791 595.215C694.416 595.535 694.913 595.922 695.282 596.376C695.652 596.824 695.932 597.246 696.124 597.644H696.337V594.938H700.14V611.568C700.14 612.967 699.807 614.125 699.139 615.041C698.471 615.957 697.559 616.643 696.401 617.097C695.243 617.552 693.93 617.779 692.459 617.779ZM692.491 608.042C693.308 608.042 694.004 607.843 694.579 607.445C695.155 607.047 695.591 606.476 695.89 605.73C696.188 604.984 696.337 604.089 696.337 603.045C696.337 602.016 696.188 601.114 695.89 600.339C695.599 599.565 695.165 598.965 694.59 598.539C694.022 598.106 693.322 597.889 692.491 597.889C691.632 597.889 690.915 598.113 690.339 598.56C689.764 599.008 689.331 599.622 689.04 600.403C688.748 601.177 688.603 602.058 688.603 603.045C688.603 604.047 688.748 604.924 689.04 605.677C689.338 606.422 689.775 607.005 690.35 607.424C690.932 607.836 691.646 608.042 692.491 608.042ZM714.523 604.42V594.938H718.379V611.302H714.64V608.393H714.469C714.1 609.31 713.493 610.059 712.648 610.641C711.809 611.224 710.776 611.515 709.547 611.515C708.475 611.515 707.527 611.277 706.703 610.801C705.886 610.318 705.247 609.619 704.785 608.702C704.324 607.779 704.093 606.664 704.093 605.357V594.938H707.949V604.761C707.949 605.797 708.233 606.621 708.802 607.232C709.37 607.843 710.116 608.148 711.039 608.148C711.607 608.148 712.157 608.01 712.69 607.733C713.223 607.456 713.66 607.044 714.001 606.497C714.349 605.943 714.523 605.251 714.523 604.42ZM727.054 611.632C726.017 611.632 725.083 611.447 724.252 611.078C723.428 610.702 722.775 610.148 722.292 609.416C721.816 608.685 721.578 607.783 721.578 606.71C721.578 605.787 721.748 605.023 722.089 604.42C722.43 603.816 722.895 603.333 723.485 602.971C724.074 602.609 724.738 602.335 725.477 602.15C726.223 601.959 726.993 601.82 727.789 601.735C728.748 601.636 729.525 601.547 730.122 601.469C730.718 601.383 731.152 601.256 731.422 601.085C731.699 600.908 731.837 600.634 731.837 600.265V600.201C731.837 599.398 731.599 598.777 731.123 598.337C730.647 597.896 729.962 597.676 729.067 597.676C728.123 597.676 727.373 597.882 726.819 598.294C726.272 598.706 725.903 599.192 725.711 599.753L722.11 599.242C722.395 598.248 722.863 597.417 723.517 596.749C724.17 596.074 724.969 595.57 725.914 595.236C726.858 594.896 727.902 594.725 729.046 594.725C729.834 594.725 730.619 594.817 731.4 595.002C732.181 595.187 732.895 595.492 733.542 595.918C734.188 596.337 734.706 596.909 735.097 597.633C735.495 598.358 735.694 599.263 735.694 600.35V611.302H731.986V609.054H731.858C731.624 609.508 731.294 609.935 730.868 610.332C730.449 610.723 729.919 611.039 729.28 611.28C728.648 611.515 727.906 611.632 727.054 611.632ZM728.055 608.798C728.829 608.798 729.5 608.646 730.069 608.34C730.637 608.028 731.074 607.616 731.379 607.104C731.691 606.593 731.848 606.035 731.848 605.432V603.503C731.727 603.603 731.521 603.695 731.23 603.78C730.946 603.866 730.626 603.94 730.271 604.004C729.916 604.068 729.564 604.125 729.216 604.175C728.868 604.224 728.566 604.267 728.311 604.302C727.735 604.381 727.221 604.508 726.766 604.686C726.311 604.864 725.953 605.112 725.69 605.432C725.427 605.744 725.296 606.149 725.296 606.646C725.296 607.356 725.555 607.893 726.074 608.255C726.592 608.617 727.252 608.798 728.055 608.798ZM739.571 611.302V594.938H743.311V597.665H743.481C743.779 596.721 744.291 595.993 745.015 595.481C745.747 594.963 746.581 594.704 747.519 594.704C747.732 594.704 747.97 594.714 748.233 594.736C748.502 594.75 748.726 594.775 748.904 594.81V598.358C748.74 598.301 748.481 598.251 748.126 598.209C747.778 598.159 747.441 598.134 747.114 598.134C746.411 598.134 745.779 598.287 745.218 598.592C744.664 598.891 744.227 599.306 743.907 599.839C743.588 600.371 743.428 600.986 743.428 601.682V611.302H739.571ZM756.865 611.589C755.579 611.589 754.428 611.259 753.413 610.599C752.397 609.938 751.595 608.979 751.005 607.722C750.416 606.465 750.121 604.938 750.121 603.141C750.121 601.323 750.419 599.789 751.016 598.539C751.619 597.282 752.433 596.334 753.455 595.695C754.478 595.048 755.618 594.725 756.875 594.725C757.834 594.725 758.622 594.888 759.24 595.215C759.858 595.535 760.348 595.922 760.71 596.376C761.073 596.824 761.353 597.246 761.552 597.644H761.712V589.484H765.579V611.302H761.786V608.724H761.552C761.353 609.121 761.066 609.544 760.689 609.991C760.313 610.432 759.816 610.808 759.198 611.121C758.58 611.433 757.802 611.589 756.865 611.589ZM757.941 608.425C758.757 608.425 759.453 608.205 760.029 607.765C760.604 607.317 761.041 606.696 761.339 605.9C761.637 605.105 761.786 604.178 761.786 603.12C761.786 602.062 761.637 601.142 761.339 600.361C761.048 599.579 760.615 598.972 760.039 598.539C759.471 598.106 758.771 597.889 757.941 597.889C757.081 597.889 756.364 598.113 755.789 598.56C755.213 599.008 754.78 599.626 754.489 600.414C754.198 601.202 754.052 602.104 754.052 603.12C754.052 604.143 754.198 605.055 754.489 605.858C754.787 606.653 755.224 607.282 755.799 607.744C756.382 608.198 757.095 608.425 757.941 608.425ZM774.397 611.632C773.36 611.632 772.426 611.447 771.596 611.078C770.772 610.702 770.118 610.148 769.635 609.416C769.159 608.685 768.922 607.783 768.922 606.71C768.922 605.787 769.092 605.023 769.433 604.42C769.774 603.816 770.239 603.333 770.828 602.971C771.418 602.609 772.082 602.335 772.821 602.15C773.566 601.959 774.337 601.82 775.132 601.735C776.091 601.636 776.869 601.547 777.466 601.469C778.062 601.383 778.495 601.256 778.765 601.085C779.042 600.908 779.181 600.634 779.181 600.265V600.201C779.181 599.398 778.943 598.777 778.467 598.337C777.991 597.896 777.306 597.676 776.411 597.676C775.466 597.676 774.717 597.882 774.163 598.294C773.616 598.706 773.247 599.192 773.055 599.753L769.454 599.242C769.738 598.248 770.207 597.417 770.86 596.749C771.514 596.074 772.313 595.57 773.257 595.236C774.202 594.896 775.246 594.725 776.39 594.725C777.178 594.725 777.963 594.817 778.744 595.002C779.525 595.187 780.239 595.492 780.885 595.918C781.532 596.337 782.05 596.909 782.441 597.633C782.838 598.358 783.037 599.263 783.037 600.35V611.302H779.33V609.054H779.202C778.968 609.508 778.637 609.935 778.211 610.332C777.792 610.723 777.263 611.039 776.624 611.28C775.992 611.515 775.25 611.632 774.397 611.632ZM775.399 608.798C776.173 608.798 776.844 608.646 777.412 608.34C777.98 608.028 778.417 607.616 778.723 607.104C779.035 606.593 779.191 606.035 779.191 605.432V603.503C779.071 603.603 778.865 603.695 778.574 603.78C778.289 603.866 777.97 603.94 777.615 604.004C777.26 604.068 776.908 604.125 776.56 604.175C776.212 604.224 775.91 604.267 775.654 604.302C775.079 604.381 774.564 604.508 774.11 604.686C773.655 604.864 773.297 605.112 773.034 605.432C772.771 605.744 772.64 606.149 772.64 606.646C772.64 607.356 772.899 607.893 773.417 608.255C773.936 608.617 774.596 608.798 775.399 608.798ZM790.772 601.714V611.302H786.915V594.938H790.601V597.719H790.793C791.169 596.802 791.77 596.074 792.593 595.535C793.424 594.995 794.451 594.725 795.672 594.725C796.801 594.725 797.785 594.967 798.623 595.449C799.468 595.932 800.122 596.632 800.583 597.548C801.052 598.464 801.283 599.576 801.276 600.883V611.302H797.419V601.479C797.419 600.386 797.135 599.53 796.567 598.912C796.006 598.294 795.228 597.985 794.234 597.985C793.559 597.985 792.959 598.134 792.434 598.432C791.915 598.724 791.507 599.146 791.208 599.7C790.917 600.254 790.772 600.925 790.772 601.714ZM811.269 611.589C809.983 611.589 808.833 611.259 807.817 610.599C806.801 609.938 805.999 608.979 805.409 607.722C804.82 606.465 804.525 604.938 804.525 603.141C804.525 601.323 804.824 599.789 805.42 598.539C806.024 597.282 806.837 596.334 807.86 595.695C808.882 595.048 810.022 594.725 811.279 594.725C812.238 594.725 813.027 594.888 813.645 595.215C814.262 595.535 814.752 595.922 815.115 596.376C815.477 596.824 815.757 597.246 815.956 597.644H816.116V589.484H819.983V611.302H816.191V608.724H815.956C815.757 609.121 815.47 609.544 815.093 609.991C814.717 610.432 814.22 610.808 813.602 611.121C812.984 611.433 812.206 611.589 811.269 611.589ZM812.345 608.425C813.162 608.425 813.858 608.205 814.433 607.765C815.008 607.317 815.445 606.696 815.743 605.9C816.042 605.105 816.191 604.178 816.191 603.12C816.191 602.062 816.042 601.142 815.743 600.361C815.452 599.579 815.019 598.972 814.444 598.539C813.875 598.106 813.176 597.889 812.345 597.889C811.485 597.889 810.768 598.113 810.193 598.56C809.618 599.008 809.184 599.626 808.893 600.414C808.602 601.202 808.456 602.104 808.456 603.12C808.456 604.143 808.602 605.055 808.893 605.858C809.191 606.653 809.628 607.282 810.203 607.744C810.786 608.198 811.5 608.425 812.345 608.425ZM831.231 611.621C829.633 611.621 828.248 611.27 827.076 610.567C825.904 609.864 824.995 608.88 824.349 607.616C823.709 606.351 823.39 604.874 823.39 603.184C823.39 601.494 823.709 600.013 824.349 598.741C824.995 597.47 825.904 596.483 827.076 595.78C828.248 595.077 829.633 594.725 831.231 594.725C832.829 594.725 834.214 595.077 835.385 595.78C836.557 596.483 837.463 597.47 838.102 598.741C838.748 600.013 839.072 601.494 839.072 603.184C839.072 604.874 838.748 606.351 838.102 607.616C837.463 608.88 836.557 609.864 835.385 610.567C834.214 611.27 832.829 611.621 831.231 611.621ZM831.252 608.532C832.118 608.532 832.843 608.294 833.425 607.818C834.008 607.335 834.441 606.689 834.725 605.879C835.016 605.07 835.162 604.168 835.162 603.173C835.162 602.172 835.016 601.266 834.725 600.457C834.441 599.64 834.008 598.99 833.425 598.507C832.843 598.024 832.118 597.783 831.252 597.783C830.364 597.783 829.626 598.024 829.036 598.507C828.454 598.99 828.017 599.64 827.726 600.457C827.442 601.266 827.3 602.172 827.3 603.173C827.3 604.168 827.442 605.07 827.726 605.879C828.017 606.689 828.454 607.335 829.036 607.818C829.626 608.294 830.364 608.532 831.252 608.532ZM849.786 611.302V594.938H853.526V597.665H853.696C853.994 596.721 854.506 595.993 855.23 595.481C855.962 594.963 856.796 594.704 857.734 594.704C857.947 594.704 858.185 594.714 858.447 594.736C858.717 594.75 858.941 594.775 859.119 594.81V598.358C858.955 598.301 858.696 598.251 858.341 598.209C857.993 598.159 857.656 598.134 857.329 598.134C856.626 598.134 855.994 598.287 855.433 598.592C854.879 598.891 854.442 599.306 854.122 599.839C853.803 600.371 853.643 600.986 853.643 601.682V611.302H849.786ZM868.251 611.621C866.611 611.621 865.194 611.28 864.001 610.599C862.814 609.91 861.902 608.937 861.263 607.68C860.623 606.415 860.304 604.927 860.304 603.216C860.304 601.533 860.623 600.055 861.263 598.784C861.909 597.506 862.811 596.511 863.969 595.801C865.126 595.084 866.486 594.725 868.049 594.725C869.057 594.725 870.009 594.888 870.904 595.215C871.806 595.535 872.601 596.032 873.29 596.707C873.986 597.381 874.533 598.241 874.931 599.285C875.329 600.322 875.528 601.557 875.528 602.992V604.175H862.115V601.575H871.831C871.824 600.837 871.664 600.18 871.351 599.604C871.039 599.022 870.602 598.564 870.041 598.23C869.487 597.896 868.841 597.729 868.102 597.729C867.314 597.729 866.621 597.921 866.025 598.305C865.428 598.681 864.963 599.178 864.629 599.796C864.302 600.407 864.135 601.078 864.128 601.81V604.079C864.128 605.03 864.302 605.847 864.65 606.529C864.998 607.204 865.485 607.722 866.11 608.084C866.735 608.44 867.466 608.617 868.305 608.617C868.866 608.617 869.373 608.539 869.828 608.383C870.282 608.219 870.677 607.981 871.01 607.669C871.344 607.356 871.596 606.969 871.767 606.508L875.368 606.913C875.14 607.864 874.707 608.695 874.068 609.405C873.436 610.109 872.626 610.655 871.639 611.046C870.652 611.43 869.523 611.621 868.251 611.621ZM891.723 599.263L888.208 599.647C888.108 599.292 887.934 598.958 887.686 598.646C887.444 598.333 887.118 598.081 886.706 597.889C886.294 597.697 885.789 597.601 885.193 597.601C884.39 597.601 883.716 597.775 883.169 598.123C882.629 598.472 882.363 598.922 882.37 599.476C882.363 599.952 882.537 600.339 882.892 600.638C883.254 600.936 883.85 601.181 884.681 601.373L887.473 601.969C889.021 602.303 890.172 602.832 890.924 603.557C891.684 604.281 892.068 605.229 892.075 606.401C892.068 607.431 891.766 608.34 891.169 609.128C890.58 609.91 889.76 610.521 888.708 610.961C887.657 611.401 886.45 611.621 885.086 611.621C883.083 611.621 881.471 611.202 880.25 610.364C879.028 609.519 878.3 608.344 878.066 606.838L881.826 606.476C881.997 607.214 882.359 607.772 882.913 608.148C883.467 608.525 884.188 608.713 885.076 608.713C885.992 608.713 886.727 608.525 887.281 608.148C887.842 607.772 888.123 607.307 888.123 606.753C888.123 606.284 887.941 605.897 887.579 605.592C887.224 605.286 886.67 605.052 885.917 604.888L883.126 604.302C881.556 603.976 880.395 603.425 879.642 602.651C878.89 601.87 878.517 600.883 878.524 599.69C878.517 598.681 878.79 597.807 879.344 597.069C879.905 596.323 880.683 595.748 881.677 595.343C882.679 594.931 883.833 594.725 885.14 594.725C887.057 594.725 888.566 595.133 889.667 595.95C890.775 596.767 891.461 597.871 891.723 599.263ZM895.255 617.438V594.938H899.048V597.644H899.271C899.47 597.246 899.751 596.824 900.113 596.376C900.475 595.922 900.965 595.535 901.583 595.215C902.201 594.888 902.989 594.725 903.948 594.725C905.212 594.725 906.352 595.048 907.368 595.695C908.391 596.334 909.2 597.282 909.797 598.539C910.401 599.789 910.702 601.323 910.702 603.141C910.702 604.938 910.408 606.465 909.818 607.722C909.229 608.979 908.426 609.938 907.411 610.599C906.395 611.259 905.244 611.589 903.959 611.589C903.021 611.589 902.244 611.433 901.626 611.121C901.008 610.808 900.511 610.432 900.134 609.991C899.765 609.544 899.477 609.121 899.271 608.724H899.112V617.438H895.255ZM899.037 603.12C899.037 604.178 899.186 605.105 899.484 605.9C899.79 606.696 900.227 607.317 900.795 607.765C901.37 608.205 902.066 608.425 902.883 608.425C903.735 608.425 904.449 608.198 905.024 607.744C905.599 607.282 906.033 606.653 906.324 605.858C906.622 605.055 906.771 604.143 906.771 603.12C906.771 602.104 906.626 601.202 906.335 600.414C906.043 599.626 905.61 599.008 905.035 598.56C904.46 598.113 903.742 597.889 902.883 597.889C902.059 597.889 901.359 598.106 900.784 598.539C900.209 598.972 899.772 599.579 899.474 600.361C899.183 601.142 899.037 602.062 899.037 603.12ZM921.143 611.621C919.545 611.621 918.16 611.27 916.988 610.567C915.816 609.864 914.907 608.88 914.261 607.616C913.621 606.351 913.302 604.874 913.302 603.184C913.302 601.494 913.621 600.013 914.261 598.741C914.907 597.47 915.816 596.483 916.988 595.78C918.16 595.077 919.545 594.725 921.143 594.725C922.741 594.725 924.126 595.077 925.298 595.78C926.469 596.483 927.375 597.47 928.014 598.741C928.661 600.013 928.984 601.494 928.984 603.184C928.984 604.874 928.661 606.351 928.014 607.616C927.375 608.88 926.469 609.864 925.298 610.567C924.126 611.27 922.741 611.621 921.143 611.621ZM921.164 608.532C922.031 608.532 922.755 608.294 923.337 607.818C923.92 607.335 924.353 606.689 924.637 605.879C924.928 605.07 925.074 604.168 925.074 603.173C925.074 602.172 924.928 601.266 924.637 600.457C924.353 599.64 923.92 598.99 923.337 598.507C922.755 598.024 922.031 597.783 921.164 597.783C920.276 597.783 919.538 598.024 918.948 598.507C918.366 598.99 917.929 599.64 917.638 600.457C917.354 601.266 917.212 602.172 917.212 603.173C917.212 604.168 917.354 605.07 917.638 605.879C917.929 606.689 918.366 607.335 918.948 607.818C919.538 608.294 920.276 608.532 921.164 608.532ZM945.19 599.263L941.675 599.647C941.575 599.292 941.401 598.958 941.153 598.646C940.911 598.333 940.584 598.081 940.172 597.889C939.76 597.697 939.256 597.601 938.66 597.601C937.857 597.601 937.182 597.775 936.635 598.123C936.096 598.472 935.829 598.922 935.836 599.476C935.829 599.952 936.003 600.339 936.358 600.638C936.721 600.936 937.317 601.181 938.148 601.373L940.939 601.969C942.488 602.303 943.638 602.832 944.391 603.557C945.151 604.281 945.535 605.229 945.542 606.401C945.535 607.431 945.233 608.34 944.636 609.128C944.047 609.91 943.226 610.521 942.175 610.961C941.124 611.401 939.917 611.621 938.553 611.621C936.55 611.621 934.938 611.202 933.716 610.364C932.495 609.519 931.767 608.344 931.532 606.838L935.293 606.476C935.464 607.214 935.826 607.772 936.38 608.148C936.934 608.525 937.655 608.713 938.542 608.713C939.459 608.713 940.194 608.525 940.748 608.148C941.309 607.772 941.589 607.307 941.589 606.753C941.589 606.284 941.408 605.897 941.046 605.592C940.691 605.286 940.137 605.052 939.384 604.888L936.593 604.302C935.023 603.976 933.862 603.425 933.109 602.651C932.356 601.87 931.983 600.883 931.991 599.69C931.983 598.681 932.257 597.807 932.811 597.069C933.372 596.323 934.15 595.748 935.144 595.343C936.145 594.931 937.3 594.725 938.606 594.725C940.524 594.725 942.033 595.133 943.134 595.95C944.242 596.767 944.927 597.871 945.19 599.263ZM956.893 594.938V597.921H947.486V594.938H956.893ZM949.808 591.018H953.665V606.38C953.665 606.898 953.743 607.296 953.899 607.573C954.063 607.843 954.276 608.028 954.539 608.127C954.801 608.226 955.093 608.276 955.412 608.276C955.654 608.276 955.874 608.258 956.073 608.223C956.279 608.187 956.435 608.155 956.541 608.127L957.191 611.142C956.985 611.213 956.691 611.291 956.307 611.376C955.931 611.462 955.469 611.511 954.922 611.525C953.956 611.554 953.086 611.408 952.312 611.089C951.538 610.762 950.923 610.258 950.469 609.576C950.021 608.894 949.801 608.042 949.808 607.019V591.018ZM964.827 611.632C963.79 611.632 962.856 611.447 962.025 611.078C961.201 610.702 960.548 610.148 960.065 609.416C959.589 608.685 959.351 607.783 959.351 606.71C959.351 605.787 959.522 605.023 959.863 604.42C960.203 603.816 960.669 603.333 961.258 602.971C961.848 602.609 962.512 602.335 963.25 602.15C963.996 601.959 964.767 601.82 965.562 601.735C966.521 601.636 967.299 601.547 967.895 601.469C968.492 601.383 968.925 601.256 969.195 601.085C969.472 600.908 969.61 600.634 969.61 600.265V600.201C969.61 599.398 969.373 598.777 968.897 598.337C968.421 597.896 967.735 597.676 966.841 597.676C965.896 597.676 965.147 597.882 964.593 598.294C964.046 598.706 963.676 599.192 963.485 599.753L959.884 599.242C960.168 598.248 960.637 597.417 961.29 596.749C961.944 596.074 962.743 595.57 963.687 595.236C964.632 594.896 965.676 594.725 966.819 594.725C967.608 594.725 968.392 594.817 969.174 595.002C969.955 595.187 970.669 595.492 971.315 595.918C971.961 596.337 972.48 596.909 972.87 597.633C973.268 598.358 973.467 599.263 973.467 600.35V611.302H969.76V609.054H969.632C969.397 609.508 969.067 609.935 968.641 610.332C968.222 610.723 967.693 611.039 967.054 611.28C966.422 611.515 965.679 611.632 964.827 611.632ZM965.828 608.798C966.603 608.798 967.274 608.646 967.842 608.34C968.41 608.028 968.847 607.616 969.152 607.104C969.465 606.593 969.621 606.035 969.621 605.432V603.503C969.5 603.603 969.294 603.695 969.003 603.78C968.719 603.866 968.4 603.94 968.044 604.004C967.689 604.068 967.338 604.125 966.99 604.175C966.642 604.224 966.34 604.267 966.084 604.302C965.509 604.381 964.994 604.508 964.539 604.686C964.085 604.864 963.726 605.112 963.463 605.432C963.201 605.744 963.069 606.149 963.069 606.646C963.069 607.356 963.328 607.893 963.847 608.255C964.365 608.617 965.026 608.798 965.828 608.798ZM979.721 611.536C979.074 611.536 978.52 611.309 978.059 610.854C977.597 610.4 977.37 609.846 977.377 609.192C977.37 608.553 977.597 608.006 978.059 607.552C978.52 607.097 979.074 606.87 979.721 606.87C980.346 606.87 980.889 607.097 981.35 607.552C981.819 608.006 982.057 608.553 982.064 609.192C982.057 609.626 981.944 610.02 981.723 610.375C981.51 610.73 981.226 611.014 980.871 611.227C980.523 611.433 980.14 611.536 979.721 611.536ZM988.422 611.536C987.775 611.536 987.221 611.309 986.76 610.854C986.298 610.4 986.071 609.846 986.078 609.192C986.071 608.553 986.298 608.006 986.76 607.552C987.221 607.097 987.775 606.87 988.422 606.87C989.047 606.87 989.59 607.097 990.052 607.552C990.52 608.006 990.758 608.553 990.765 609.192C990.758 609.626 990.645 610.02 990.425 610.375C990.211 610.73 989.927 611.014 989.572 611.227C989.224 611.433 988.841 611.536 988.422 611.536ZM997.123 611.536C996.477 611.536 995.923 611.309 995.461 610.854C994.999 610.4 994.772 609.846 994.779 609.192C994.772 608.553 994.999 608.006 995.461 607.552C995.923 607.097 996.477 606.87 997.123 606.87C997.748 606.87 998.291 607.097 998.753 607.552C999.222 608.006 999.46 608.553 999.467 609.192C999.46 609.626 999.346 610.02 999.126 610.375C998.913 610.73 998.629 611.014 998.273 611.227C997.925 611.433 997.542 611.536 997.123 611.536Z" fill="#5A7DA0"/>
<path d="M1058.54 414.731C1055.61 482.804 1001.88 536.392 936.65 536.392H663.279C624.588 536.392 598.006 495.61 612.329 458.067C631.422 406.771 693.637 444.729 665.132 401.591C637.501 359.768 621.05 308.73 644.629 284.146C699.211 227.241 763.643 302.712 799.059 291.779C810.355 288.051 855.207 258.584 872.649 253.305C983.796 211.478 1068.08 310.465 1058.54 414.731Z" fill="#E3F0FF"/>
<path d="M630.836 398.152C633.857 391.942 607.132 360.293 594.858 368.36C582.583 376.428 581.308 392.8 599.609 398.743C616.908 404.358 627.818 404.361 630.836 398.152Z" fill="#E3F0FF"/>
<path d="M690.663 265.329L686.918 242.939C686.832 242.44 686.352 242.101 685.841 242.182C685.334 242.266 684.988 242.738 685.071 243.236L688.731 265.106L672.928 278.021C672.53 278.345 672.475 278.925 672.806 279.315C672.992 279.531 673.258 279.645 673.527 279.645C673.738 279.645 673.949 279.576 674.124 279.432L690.336 266.181C690.593 265.974 690.715 265.647 690.663 265.329Z" fill="#C7DEFF"/>
<path d="M715.574 276.702L693.812 269.037C693.5 268.929 693.151 268.989 692.897 269.196L676.685 282.447C676.287 282.771 676.232 283.35 676.562 283.74C676.749 283.956 677.015 284.07 677.281 284.07C677.492 284.07 677.706 284.001 677.88 283.857L693.683 270.943L714.941 278.431C715.428 278.602 715.963 278.353 716.137 277.876C716.311 277.398 716.061 276.873 715.574 276.702Z" fill="#C7DEFF"/>
<path d="M683.659 263.859C683.736 264.309 684.13 264.627 684.58 264.627C684.632 264.627 684.681 264.624 684.733 264.615C685.243 264.534 685.589 264.063 685.503 263.562L682.638 246.434C682.556 245.936 682.072 245.596 681.565 245.677C681.054 245.762 680.709 246.233 680.794 246.731L683.659 263.859Z" fill="#C7DEFF"/>
<path d="M711.291 280.197L694.641 274.333C694.155 274.162 693.623 274.411 693.446 274.888C693.271 275.365 693.525 275.89 694.011 276.061L710.661 281.926C710.765 281.962 710.872 281.98 710.976 281.98C711.358 281.98 711.719 281.746 711.856 281.371C712.031 280.893 711.777 280.368 711.291 280.197Z" fill="#C7DEFF"/>
<path d="M900.197 405.824L877.566 401.184C877.058 401.079 876.563 401.397 876.459 401.895C876.352 402.391 876.676 402.877 877.181 402.979L899.292 407.514L905.869 426.635C906.034 427.116 906.566 427.374 907.056 427.212C907.328 427.119 907.533 426.917 907.628 426.671C907.704 426.479 907.713 426.26 907.643 426.047L900.891 406.43C900.784 406.121 900.521 405.893 900.197 405.824Z" fill="#C7DEFF"/>
<path d="M919.991 387.125L904.861 404.281C904.644 404.527 904.577 404.866 904.681 405.175L911.432 424.792C911.598 425.272 912.13 425.53 912.619 425.368C912.891 425.278 913.096 425.074 913.191 424.828C913.267 424.636 913.276 424.417 913.206 424.204L906.626 405.085L921.404 388.326C921.744 387.942 921.701 387.365 921.309 387.032C920.921 386.702 920.331 386.744 919.991 387.125Z" fill="#C7DEFF"/>
<path d="M921.772 392.303L910.195 405.427C909.855 405.812 909.898 406.391 910.29 406.721C910.681 407.054 911.271 407.012 911.608 406.628L923.184 393.503C923.258 393.422 923.313 393.329 923.349 393.233C923.487 392.882 923.395 392.471 923.089 392.21C922.698 391.88 922.108 391.919 921.772 392.303Z" fill="#C7DEFF"/>
<path d="M780.332 484.501C780.332 484.501 672.958 203.622 596.02 275.858C581.297 294.064 598.555 325.169 630.259 361.242C661.962 397.312 754.178 491.083 767.244 505.96L780.332 484.501Z" fill="#5A789F"/>
<path d="M780.332 484.501C780.332 484.501 713.882 310.679 648.074 271.689C649.529 275.411 650.422 279.429 649.019 281.981C645.802 287.827 631.295 290.507 627.149 300.208C623.602 308.512 629.237 340.569 616.511 344.711C620.694 350.081 625.299 355.6 630.259 361.242C661.963 397.312 754.178 491.083 767.244 505.96L780.332 484.501Z" fill="#5A789F"/>
<path d="M608.396 278.13C615.867 284.033 623.019 290.327 630.043 296.735C670.997 334.513 707.281 377.405 736.447 424.603C742.055 433.737 747.525 443.32 752.482 452.813C754.568 456.769 756.895 461.463 758.852 465.485C760.118 468.15 761.909 471.97 763.111 474.666L763.94 476.508L764.744 478.366L765.548 480.221L766.346 482.079C756.772 462.735 746.119 443.956 734.435 425.822C722.766 407.676 710.152 390.136 696.79 373.158C676.73 347.698 655.038 323.459 632.009 300.532C624.328 292.905 616.481 285.342 608.396 278.13Z" fill="#5AA5D1"/>
<path d="M619.636 411.539C619.636 411.539 598.928 403.246 584.908 419.498C573.086 433.205 592.063 470.416 611.661 488.427C611.661 488.427 592.436 500.246 591.785 513.863C591.134 527.477 613.759 541.847 645.783 545.911L649.019 430.444L619.636 411.539Z" fill="#5A789F"/>
<path d="M617.279 410.779C619.214 421.851 620.624 439.04 623.611 457.738C628.305 487.121 639.054 529.773 602.451 530.739C612.007 537.807 627.333 543.57 645.784 545.911L649.019 430.444L619.636 411.539C619.636 411.539 618.771 411.19 617.279 410.779Z" fill="#5A789F"/>
<path d="M594.759 421.748C610.149 437.181 624.989 453.226 639.602 469.367C643.847 474.034 648.357 478.899 652.482 483.653C660.417 492.87 668.083 502.394 675.248 512.202C675.621 512.724 675.997 513.24 676.367 513.766L676.134 513.955C665.389 503.03 655.005 491.475 645.116 479.8C641.994 476.054 638.376 471.768 635.202 468.064C625.185 456.443 615.06 444.816 604.844 433.366C601.431 429.542 598.007 425.728 594.542 421.952L594.759 421.748Z" fill="#5AA5D1"/>
<path d="M604.687 513.715C612.534 514.231 620.45 513.871 628.233 512.817C632.107 512.283 635.951 511.584 639.715 510.545C642.828 509.681 645.876 508.622 648.922 507.562C652.267 506.392 655.561 505.071 658.765 503.561C660.845 502.58 662.841 501.526 664.878 500.437L665.064 500.668C664.058 501.746 662.921 502.781 661.768 503.705C656.674 507.757 650.613 510.657 644.262 512.226C633.908 514.726 623.166 515.573 612.54 514.864C609.895 514.684 607.262 514.429 604.647 514.006L604.687 513.715Z" fill="#5AA5D1"/>
<mask id="mask0_1949_925" style="mask-type:luminance" maskUnits="userSpaceOnUse" x="636" y="293" width="152" height="255">
<path d="M636.452 293.247H787.534V547.687H636.452V293.247Z" fill="white"/>
</mask>
<g mask="url(#mask0_1949_925)">
<path d="M775.471 547.654H648.607C642.207 547.654 637.018 542.564 637.018 536.282V305.033C637.018 298.751 642.207 293.658 648.607 293.658H775.471C781.874 293.658 787.063 298.751 787.063 305.033V536.282C787.063 542.564 781.874 547.654 775.471 547.654Z" fill="#303C72"/>
</g>
<path d="M771.082 541H652.991C647.677 541 643.368 536.771 643.368 531.558V309.754C643.368 304.541 647.677 300.315 652.991 300.315H771.082C776.397 300.315 780.702 304.541 780.702 309.754V531.558C780.702 536.771 776.397 541 771.082 541Z" fill="#D4EBFF"/>
<path d="M771.082 300.315H652.991C647.677 300.315 643.368 304.541 643.368 309.754V321.357H780.702V309.754C780.702 304.541 776.397 300.315 771.082 300.315Z" fill="#8CCBFF"/>
<path d="M740.11 413.24C740.11 413.24 753.794 403.906 764.496 421.394C775.202 438.886 787.014 473.599 790.356 484.389C793.699 495.176 780.837 500.905 772.884 492.673C764.927 484.44 745.162 447.083 740.639 437.893C736.116 428.703 733.358 418.435 740.11 413.24Z" fill="#9E5959"/>
<path d="M776.235 478.4L787.246 474.877C786.204 471.819 783.66 464.679 783.66 464.679C783.66 464.679 777.55 472.326 776.235 478.4Z" fill="#914D4D"/>
<path d="M763.407 479.178C763.355 475.601 763.321 469.91 763.48 464.13C763.74 454.612 762.211 433.129 762.211 433.129L749.338 454.528C753.643 462.491 758.781 471.654 763.407 479.178Z" fill="#914D4D"/>
<path d="M741.922 410.751C741.922 410.751 730.272 415.769 736.116 430.746C741.959 445.725 760.725 476.873 766.342 486.339C771.96 495.805 780.002 500.304 786.124 497.117C792.245 493.927 792.594 488.377 790.154 479.868C787.711 471.363 771.715 432.411 767.688 424.449C763.658 416.489 753.402 404.655 741.922 410.751Z" fill="white"/>
<path d="M782.575 459.539C779.007 464.133 774.524 475.361 774.524 475.361L786.74 470.205C785.529 467.018 784.101 463.365 782.575 459.539Z" fill="#D4EBFF"/>
<path d="M766.286 486.242C766.402 479.444 766.594 464.233 766.221 455.67C765.735 444.406 763.512 430.747 763.512 430.747L754.693 466.529C759.543 474.957 763.98 482.358 766.286 486.242Z" fill="#D4EBFF"/>
<path d="M816.664 435.47C816.664 435.47 826.018 438.894 831.038 450.035L826.537 453.666L813.961 441.169L816.664 435.47Z" fill="#ABD3FC"/>
<path d="M778.594 496.028C782.844 497.472 787.566 496.187 790.587 492.916C798.779 484.041 825.761 454.508 831.326 444.628C837.91 432.944 829.262 431.254 821.217 438.502C813.175 445.75 800.017 456.726 793.886 461.783C783.905 470.019 774.169 476.151 771.044 482.387C768.855 486.751 772.23 493.867 778.594 496.028Z" fill="#9E5959"/>
<path d="M823.574 455.4C819.388 460.298 811.275 451.036 814.061 446.483C814.107 446.411 822.421 436.284 823.54 432.475C824.718 428.463 824.143 426.518 828.35 422.958C831.931 419.933 834.322 417.877 836.123 418.159C838.032 418.459 836.383 420.959 834.445 422.64C832.347 424.462 829.179 429.834 832.173 429.687C834.558 429.567 842.212 428.006 844.523 426.992C848.291 425.338 857.718 416.37 859.938 421.1C859.938 421.1 862.381 420.701 862.216 423.474C862.216 423.474 865.17 424.402 862.485 427.826C862.485 427.826 864.207 429.357 862.488 431.326C861.323 432.662 856.226 437.218 852.844 439.784C849.465 442.35 835.787 444.025 830.947 446.894C829.405 447.809 824.531 454.28 823.574 455.4Z" fill="#F6AF9A"/>
<path d="M830.959 428.798C831.179 431.649 832.155 433.96 831.191 436.823C833.573 434.563 831.479 431.205 830.959 428.798Z" fill="#E57E73"/>
<path d="M862.485 427.825C861.073 427.6 859.981 428.732 858.96 429.494C855.78 431.847 852.786 434.551 849.453 436.631C853.413 435.698 856.067 432.126 859.183 429.752C860.082 428.855 861.308 427.852 862.485 427.825Z" fill="#E57E73"/>
<path d="M862.22 423.474C859.236 423.738 857.074 426.055 854.756 427.67C852.408 429.254 850.32 431.595 847.959 432.883C849.433 432.712 850.69 431.758 851.8 430.848C855.184 428.396 858.196 424.54 862.22 423.474Z" fill="#E57E73"/>
<path d="M859.942 421.101C854.523 421.884 850.97 426.788 846.484 429.348C851.652 428.043 854.728 422.103 859.942 421.101Z" fill="#E57E73"/>
<path d="M847.377 437.618C841.677 435.823 834.015 434.622 829.046 438.641C834.507 435.496 841.411 436.762 847.377 437.618Z" fill="#EA9A88"/>
<path d="M846.119 429.199C847.152 430.078 847.482 431.438 847.806 432.689C848.84 433.644 849.045 435.198 849.305 436.513C849.831 436.891 849.843 437.638 849.849 438.221C849.705 437.626 849.482 436.987 848.95 436.69C848.519 435.525 848.244 433.989 847.317 433.13C846.745 432.02 846.773 430.447 845.822 429.484C845.525 428.875 845.345 428.154 844.825 427.656C845.421 427.998 845.816 428.596 846.119 429.199Z" fill="#EA9A88"/>
<path d="M816.665 435.47C816.665 435.47 820.28 447.04 831.04 450.035C831.04 450.035 800.532 487.18 792.594 493.647C784.659 500.118 772.733 497.201 768.501 487.657C764.425 478.464 816.665 435.47 816.665 435.47Z" fill="white"/>
<path d="M727.943 517.665C714.623 521.957 709.223 531.745 707.608 541.001H758.577C757.509 535.007 756.308 530.487 754.965 528.155C746.541 513.506 727.943 517.665 727.943 517.665Z" fill="#F6AF9A"/>
<path d="M728.389 511.212C712.895 514.255 704.997 524.589 704.474 541H762.429C762.34 540.379 762.252 539.776 762.163 539.19C757.854 510.96 728.389 511.212 728.389 511.212Z" fill="#384682"/>
<path d="M689.78 475.793C691.651 496.574 685.988 509.134 683.563 521.77C682.285 528.436 681.943 535.018 682.829 540.999H751.6C755.826 531.383 755.083 521.908 755.221 516.782C755.456 508.153 756.166 493.744 756.166 493.744C758.67 455.636 687.912 455.008 689.78 475.793Z" fill="#F6AF9A"/>
<path d="M685.252 510.47C685.252 510.47 678.595 526.62 681.054 541H752.812C756.717 527.935 756.427 511.212 756.427 511.212C747.281 512.658 685.252 510.47 685.252 510.47Z" fill="#384682"/>
<path d="M680.314 541H730.977C730.738 517.677 711.061 516.11 711.061 516.11C695.601 514.513 684.14 519.111 680.314 541Z" fill="#F6AF9A"/>
<path d="M677.7 540.947C677.697 540.965 677.697 540.983 677.694 541.001H736.396C736.072 524.301 725.207 513.511 707.04 511.236C707.04 511.236 681.052 509.298 677.7 540.947Z" fill="#384682"/>
<path d="M704.342 403.009C716.699 400.974 726.561 402.637 738.193 405.98C745.975 408.216 754.314 410.371 758.081 415.54C764.695 424.613 761.68 447.026 759.989 457.402C758.298 467.775 757.017 489.468 756.09 495.042C755.164 500.615 729.967 509.364 714.543 507.086C702.719 505.339 691.897 499.652 690.356 489.024C688.542 476.49 685.454 458.522 681.87 447.603C678.286 436.687 672.657 413.952 690.411 406.344C693.741 404.918 701.089 403.543 704.342 403.009Z" fill="#F6AF9A"/>
<path d="M733.499 391.453C733.499 391.453 733.098 402.777 735.658 407.967C738.214 413.153 729.46 416.379 723.769 416.331C718.078 416.283 709.339 413.156 708.318 406.43C707.299 399.701 711.492 402.246 710.7 383.959C710.082 369.658 735.092 377.362 733.499 391.453Z" fill="#F6AF9A"/>
<path d="M734.855 405.847C733.189 400.208 733.498 391.454 733.498 391.454C734.761 380.265 719.255 373.104 713.124 377.792C712.873 379.386 712.757 381.18 712.806 383.206C712.83 384.26 723.27 404.038 734.855 405.847Z" fill="#EA9A88"/>
<path d="M761.201 513.545C760.363 507.356 761.201 477.031 761.32 472.682C761.439 468.33 763.73 445.526 763.485 438.71C763.237 431.891 761.305 418.232 759.577 414.129C757.846 410.029 744.805 406.896 737.976 405.848L734.61 404.918C734.61 404.918 735.689 408.751 729.931 409.723C721.455 411.155 712.239 406.082 708.422 402.46C708.422 402.46 706.175 402.178 704.652 402.457C704.652 402.457 689.907 404.774 686.045 406.298C682.183 407.823 676.627 414.495 676.388 425.897C676.147 437.299 682.018 458.606 683.694 469.521C685.372 480.44 684.293 499.129 683.574 505.594C682.856 512.059 675.908 532.63 675.789 540.74C675.789 540.74 676.67 540.839 678.226 541.001H746.633C756.314 540.028 763.479 539.179 764.075 538.741C764.075 538.741 762.289 533.453 762.164 529.104C762.039 524.755 762.039 519.733 761.201 513.545Z" fill="#85B9F1"/>
<path d="M729.017 411.869C732.772 411.827 738.126 419.636 738.126 419.636C739.808 416.653 741.376 410.308 742.193 406.617C740.655 406.295 739.212 406.037 737.976 405.848L734.609 404.918C734.609 404.918 735.689 408.751 729.931 409.723C721.455 411.155 712.238 406.082 708.422 402.46C708.422 402.46 706.175 402.178 704.652 402.457C704.652 402.457 703.753 402.598 702.343 402.835L700.401 405.773L724.008 424.462C724.008 424.462 723.938 423.226 724.769 419.066C726.109 412.352 729.017 411.869 729.017 411.869Z" fill="#75AEEB"/>
<path d="M697.662 466.27C699.555 452.073 700.292 426.859 700.292 426.859C700.292 426.859 687.381 431.848 676.899 433.792C678.336 445.432 682.354 460.795 683.694 469.52C685.372 480.436 684.293 499.128 683.574 505.593C682.856 512.058 675.908 532.629 675.789 540.739C675.789 540.739 676.67 540.838 678.226 541H700.521C687.702 534.169 688.433 514.153 690.124 503.096C692.112 490.076 696.231 477.012 697.662 466.27Z" fill="#75AEEB"/>
<path d="M729.547 414.02C731.306 413.957 731.688 411.004 731.758 409.245C731.241 409.44 730.636 409.602 729.927 409.722C728.471 409.968 726.991 410.022 725.523 409.926C726.156 411.31 727.667 414.086 729.547 414.02Z" fill="#384682"/>
<path d="M728.083 412.33C728.083 412.33 737.312 453.766 738.125 462.89L743.858 473.596L746.271 459.538C746.271 459.538 736.685 426.001 730.355 411.913L728.083 412.33Z" fill="#384682"/>
<path d="M728.606 409.893C728.606 409.893 733.361 407.594 734.606 404.917C734.606 404.917 736.657 404.854 737.507 405.268C737.507 405.268 738.893 412.351 737.507 416.87C737.507 416.87 732.805 410.622 729.102 410.937C725.39 411.255 722.977 419.809 722.977 419.809C722.977 419.809 709.792 409.686 708.159 402.486L708.532 402.065C708.532 402.065 719.794 408.533 728.606 409.893Z" fill="#96C3F2"/>
<path d="M753.224 351.188C753.224 351.188 755.055 359.747 752.493 369.789L746.833 350.849L753.224 351.188Z" fill="#8C4949"/>
<path d="M729.931 334.739C729.931 334.739 748.288 335.799 751.254 351.82C754.22 367.841 752.364 396.822 741.701 399.994C731.971 402.89 716.957 393.004 710.636 383.082C703.985 372.64 701.625 359.329 705.539 349.263C708.967 340.451 715.498 333.977 729.931 334.739Z" fill="#F6AF9A"/>
<path d="M721.585 353.474C721.585 353.474 719.711 356.202 720.228 360.323C720.564 363.006 719.515 363.973 716.668 367.884C713.818 371.794 714.479 372.022 713.641 376.332C712.803 380.639 710.757 391.201 710.702 392.044C710.644 392.891 708.005 389.925 706.03 384.049C704.058 378.172 699.865 366.77 699.505 356.308C699.147 345.848 708.969 335.268 719.032 334.209C719.032 334.209 728.615 329.977 737.841 333.741C747.063 337.501 753.858 343.225 753.466 352.646L751.454 352.712C751.454 352.712 749.922 351.607 749.433 351.319C747.201 350.005 745.385 350.656 743.357 351.953C743.357 351.953 735.468 355.845 731.276 355.377C731.276 355.377 726.49 356.83 721.585 353.474Z" fill="#8C4949"/>
<path d="M713.377 343.934C713.377 343.934 712.187 351.665 720.535 355.929C720.966 354.381 721.584 353.474 721.584 353.474C721.584 353.474 714.346 349.069 713.377 343.934Z" fill="#7D4141"/>
<path d="M718.226 337.659C718.153 341.419 719.07 345.426 721.905 348.094C725.28 351.215 731.57 351.845 736.059 351.731C735.512 351.939 734.943 352.095 734.368 352.218C730.081 353.094 724.95 352.677 721.412 349.925C717.829 347.056 716.749 341.851 718.226 337.659Z" fill="#7D4141"/>
<path d="M722.873 335.659C725.347 334.849 727.97 334.566 730.576 334.578C735.844 334.627 741.278 336.265 745.143 339.885C747.075 341.679 748.546 343.909 749.39 346.31C748.632 345.278 747.855 344.29 746.999 343.384C744.491 340.686 741.278 338.672 737.767 337.484C733 335.857 727.9 335.497 722.873 335.659Z" fill="#7D4141"/>
<path d="M720.841 337.659C725.773 338.013 730.607 339.288 735.2 341.071C738.729 342.458 742.144 344.402 744.697 347.209C745.086 347.641 745.45 348.1 745.746 348.595C745.526 348.406 745.3 348.229 745.07 348.061C744.896 347.932 744.551 347.686 744.373 347.563C741.814 345.816 739.013 344.432 736.139 343.268C731.09 341.248 725.941 339.606 720.841 337.659Z" fill="#7D4141"/>
<path d="M724.038 342.127C727.267 345.114 731.45 346.659 735.572 348.088C736.969 348.568 738.394 348.997 739.834 349.546C739.067 349.631 738.302 349.64 737.532 349.616C733.685 349.432 729.796 348.226 726.796 345.786C725.628 344.79 724.518 343.595 724.038 342.127Z" fill="#7D4141"/>
<path d="M717.434 372.968C717.434 372.968 717.394 364.529 712.266 364.472C707.135 364.415 707.163 371.479 710.471 376.062C712.321 378.628 717.455 381.861 717.434 372.968Z" fill="#F6AF9A"/>
<path d="M711.79 370.162C712.799 370.219 713.594 370.762 714.151 371.315C714.007 370.345 713.6 369.409 712.668 368.827C712.426 368.677 712.356 368.365 712.509 368.127C712.662 367.89 712.977 367.821 713.221 367.971C716.551 370.045 714.814 375.114 714.738 375.327C714.646 375.591 714.353 375.733 714.083 375.639C714.077 375.639 714.074 375.636 714.068 375.636C713.808 375.54 713.671 375.258 713.762 374.997C713.769 374.976 714.065 374.112 714.175 373.007C714.169 372.998 714.157 372.989 714.151 372.977C714.142 372.962 713.197 371.255 711.732 371.174C711.448 371.159 711.231 370.919 711.246 370.639C711.261 370.36 711.506 370.147 711.79 370.162Z" fill="#E57E73"/>
<path d="M673.245 541H765.635C764.311 527.341 762.666 507.085 762.274 497.841C761.748 485.382 764.023 451.953 764.072 441.53C764.121 431.106 761.051 416.529 761.051 416.529C760.644 415.331 759.788 411.817 752.138 409.019C744.487 406.225 737.708 405.772 737.708 405.772C744.309 422.486 742.441 465.387 742.441 465.387C742.441 465.387 736.466 449.447 728.081 431.968C720.724 416.631 704.044 402.456 704.044 402.456C696.17 402.708 682.452 405.904 682.452 405.904C668.775 420.626 677.878 450.996 680.162 467.17C682.443 483.344 680.382 500.359 674.334 534.004C673.955 536.111 673.591 538.458 673.245 541Z" fill="white"/>
<path d="M742.558 461.776L742.442 466.296C747.995 428.776 744.915 408.952 744.405 406.806C740.445 405.957 737.708 405.774 737.708 405.774C743.148 419.544 742.836 451.094 742.558 461.776Z" fill="#ABD3FC"/>
<path d="M742.2 464.742C740.998 461.6 735.482 447.382 728.085 431.968C720.728 416.631 704.047 402.456 704.047 402.456C701.714 402.531 698.867 402.864 696.018 403.296C696.018 403.296 736.063 446.509 742.445 466.294L742.2 464.742Z" fill="#ABD3FC"/>
<path d="M740.507 541.001H741.73C742.944 515.741 743.8 490.482 742.442 465.388C743.17 490.551 741.773 515.87 740.507 541.001Z" fill="#ABD3FC"/>
<path d="M680.162 467.171C682.443 483.345 680.382 500.359 674.334 534.004C673.955 536.111 673.591 538.458 673.245 541H683.712L685.632 521.561C686.134 516.101 688.051 495.353 688.684 489.335C689.418 482.387 690.883 481.427 694.546 462.125C698.209 442.824 699.084 426.104 699.084 426.104L676.465 446.257C677.688 454.076 679.355 461.465 680.162 467.171Z" fill="#D4EBFF"/>
<path d="M736.06 404.959C736.06 404.959 740.946 423.918 742.441 465.387C742.441 465.387 744.851 440.573 744.242 424.636C743.631 408.701 743.178 406.556 743.178 406.556C743.178 406.556 738.072 404.548 736.06 404.959Z" fill="white"/>
<path d="M742.442 465.388C728.082 431.968 697.323 403.105 697.323 403.105C700.409 401.583 708.533 402.066 708.533 402.066C708.533 402.066 720.508 415.41 728.859 431.347C740.106 452.812 742.442 465.388 742.442 465.388Z" fill="white"/>
<path d="M683.38 406.561C683.38 406.561 699.994 407.87 696.951 428.054C693.908 448.235 680.579 482.417 676.185 492.837C671.791 503.255 658.706 499.854 657.887 488.536C657.064 477.221 665.391 435.86 667.843 425.941C670.293 416.024 674.803 406.372 683.38 406.561Z" fill="#F6AF9A"/>
<path d="M686.043 406.297C686.043 406.297 673.851 401.393 667.075 424.755C660.296 448.117 655.902 479.211 655.718 489.635C655.535 500.058 665.953 505.206 672.567 501.316C679.184 497.429 686.327 473.226 690.62 460.897C697.323 441.65 707.76 411.021 686.043 406.297Z" fill="white"/>
<path d="M657.752 487.529C657.752 487.529 657.639 520.685 659.143 541.001H673.5C674.561 531.799 675.894 521.72 676.652 516.189C678.392 503.508 679.973 493.409 680.16 485.335C680.404 474.786 658.489 472.571 657.752 487.529Z" fill="#F6AF9A"/>
<path d="M669.598 470.763C669.598 470.763 656.997 471.843 655.715 487.297C654.752 498.933 654.615 523.607 655.076 541H678.756C680.759 520.03 684.297 482.627 684.371 479.179C684.475 474.358 675.787 469.685 669.598 470.763Z" fill="white"/>
<path d="M779.957 497.938V531.558C779.957 536.358 775.976 540.262 771.086 540.262H652.995C648.103 540.262 644.124 536.358 644.124 531.558V309.755C644.124 304.956 648.103 301.051 652.995 301.051H771.086C775.976 301.051 779.957 304.956 779.957 309.755V453.035C780.388 454.097 780.816 455.154 781.238 456.207C781.376 456.072 781.458 455.889 781.458 455.685V309.755C781.458 304.142 776.804 299.577 771.086 299.577H652.995C647.274 299.577 642.623 304.142 642.623 309.755V531.558C642.623 537.171 647.274 541.736 652.995 541.736H771.086C776.804 541.736 781.458 537.171 781.458 531.558V498.121C780.963 498.097 780.461 498.037 779.957 497.938Z" fill="white"/>
<path d="M738.664 305.03H685.418C682.152 305.03 679.504 302.431 679.504 299.228V298.016H744.575V299.228C744.575 302.431 741.93 305.03 738.664 305.03Z" fill="#303C72"/>
<path d="M1067.23 351.348C1068.96 350.154 1070.86 349.238 1072.88 348.623C1081.2 346.078 1102.72 341.876 1119.04 359.608C1136.45 378.531 1111.25 432.186 1084.27 458.616C1084.27 458.616 1112.1 474.535 1113.65 493.827C1115.21 513.12 1083.76 534.525 1038.51 541.719L1028.56 378L1067.23 351.348Z" fill="#5A789F"/>
<path d="M1072.7 348.679C1070.47 364.478 1069.26 388.933 1065.89 415.6C1060.59 457.51 1047.31 518.521 1099.3 518.26C1086.07 528.714 1064.58 537.577 1038.51 541.721L1028.56 378.002L1067.23 351.347C1068.89 350.204 1070.7 349.3 1072.63 348.7L1072.7 348.679Z" fill="#5A789F"/>
<path d="M1105.43 363.483C1085.21 386.827 1065.54 410.724 1046.1 434.704C1040.58 441.547 1034.62 449.156 1029.07 455.987C1017.67 469.961 1005.86 484.175 993.9 497.69L993.661 497.51C994.181 496.763 994.707 496.021 995.23 495.28C997.86 491.585 1000.55 487.882 1003.24 484.247C1010.79 474.073 1018.65 463.928 1026.62 454.072C1034.59 444.302 1043.06 434.464 1051.18 424.809C1061.69 412.365 1072.49 399.832 1083.27 387.619C1088.01 382.244 1093.02 376.638 1097.82 371.334C1100.28 368.642 1102.73 365.95 1105.21 363.285L1105.43 363.483Z" fill="#5AA5D1"/>
<path d="M1095.4 494.547C1077.78 497.497 1059.58 497.254 1042.04 493.842C1040.21 493.479 1038.3 493.052 1036.5 492.584C1028.72 490.516 1021.23 487.209 1014.61 482.683C1013.71 482.068 1012.62 481.272 1011.77 480.594C1010.86 479.877 1009.94 479.105 1009.09 478.328L1009.26 478.091C1010.91 478.988 1012.53 479.892 1014.18 480.726C1015.77 481.536 1017.55 482.395 1019.18 483.124C1023.79 485.207 1028.56 486.948 1033.38 488.46C1038.22 489.982 1043.11 491.378 1048.08 492.389C1061.77 495.051 1075.85 495.688 1089.77 494.769C1091.63 494.643 1093.5 494.487 1095.35 494.256L1095.4 494.547Z" fill="#5AA5D1"/>
<mask id="mask1_1949_925" style="mask-type:luminance" maskUnits="userSpaceOnUse" x="904" y="293" width="152" height="255">
<path d="M904.173 293.247H1055.25V547.687H904.173V293.247Z" fill="white"/>
</mask>
<g mask="url(#mask1_1949_925)">
<path d="M1043.11 547.652H916.25C909.849 547.652 904.657 542.562 904.657 536.28V305.031C904.657 298.749 909.849 293.656 916.25 293.656H1043.11C1049.52 293.656 1054.71 298.749 1054.71 305.031V536.28C1054.71 542.562 1049.52 547.652 1043.11 547.652Z" fill="#303C72"/>
</g>
<path d="M1038.72 541H920.637C915.322 541 911.014 536.771 911.014 531.558V309.754C911.014 304.541 915.322 300.315 920.637 300.315H1038.72C1044.04 300.315 1048.35 304.541 1048.35 309.754V531.558C1048.35 536.771 1044.04 541 1038.72 541Z" fill="#D4EBFF"/>
<path d="M937.791 424.29C938.699 419.443 942.589 415.433 947.824 414.539C954.548 413.389 960.948 417.804 962.119 424.401C962.361 425.773 962.361 427.13 962.143 428.429C962.095 428.735 962.03 429.038 961.957 429.338C960.752 435.134 953.964 467.323 947.585 487.066C946.915 490.475 944.169 493.285 940.479 493.915C935.708 494.731 931.167 491.598 930.336 486.916C930.009 485.085 935.32 434.537 937.791 424.29Z" fill="#DE9681"/>
<path d="M949.371 426.095C949.371 426.095 954.6 421.368 962.141 424.534C962.361 425.861 962.352 427.173 962.144 428.43C962.095 428.736 962.031 429.039 961.957 429.339C960.918 434.34 955.723 458.993 950.218 478.342C949.72 475.965 948.191 473.591 947.433 473C946.243 472.072 943.146 469.317 941.626 464.476C940.537 461.015 942.61 448.059 944.986 441.246C947.362 434.43 949.371 426.095 949.371 426.095Z" fill="#EA9A88"/>
<path d="M953.243 414.02C953.243 414.02 948.558 413.068 942.195 415.827C940.29 416.652 938.468 419.884 937.229 422.391C932.499 431.98 928.896 461.111 928.896 461.111C928.896 461.111 941.226 472.393 954.145 476.012C954.145 476.012 963.765 434.864 963.572 426.244C963.38 417.627 956.974 414.905 953.243 414.02Z" fill="#FCF5F1"/>
<path d="M960.157 448.388L944.578 424.116C944.578 424.116 947.874 434.015 946.195 440.647C944.517 447.283 940.523 456.359 939.899 461.774C939.63 464.118 939.756 466.945 939.985 469.397C944.15 472.017 949.103 474.598 954.146 476.012C954.146 476.012 957.46 461.84 960.157 448.388Z" fill="#F0E2DA"/>
<path d="M942.721 475.808C937.981 474.061 932.691 476.414 930.912 481.066C930.56 481.982 930.374 482.915 930.334 483.839C930.331 483.839 926.921 528.868 926.004 541H936.764C937.878 535.783 939.972 526.326 942.217 518.118C946.048 504.104 947.363 491.508 947.968 485.706C948.14 484.941 948.207 484.173 948.173 483.416C948.017 479.917 946.271 477.116 942.721 475.808Z" fill="#DE9681"/>
<path d="M964.93 523.304C954.818 524.379 946.959 531.744 944.95 541H989.849C987.439 529.829 976.746 522.05 964.93 523.304Z" fill="#F6AF9A"/>
<path d="M943.625 541.001H990.801C987.364 520.799 971.84 520.781 969.886 520.808C969.886 520.808 948.316 519.46 943.625 541.001Z" fill="#8C4949"/>
<path d="M985.314 487.406C961.511 487.34 956.576 498.231 956.576 498.231C956.178 501.239 956.114 504.582 954.701 507.427C948.17 520.567 945.62 535.556 944.861 541H1024.91C1024.43 532.912 1021.42 525.255 1017.4 515.489C1014.88 509.345 1008.8 501.272 1008.71 494.936C1008.71 494.936 1006.28 487.463 985.314 487.406Z" fill="#F6AF9A"/>
<path d="M956.296 500.651C956.296 500.651 954.755 502.908 950.783 513.454C947.89 521.129 945.074 534.361 943.756 541H1025.93C1024.9 531.888 1022.13 521.894 1019 516.251C1015.25 509.505 1009.9 498.412 1009.9 498.412C999.323 501.056 956.296 500.651 956.296 500.651Z" fill="#8C4949"/>
<path d="M1019 516.251C1015.25 509.505 1009.91 498.412 1009.91 498.412C1002.76 500.197 980.798 500.594 967.303 500.66C961.178 504.693 959.414 509.309 959.414 509.309C959.414 509.309 975.856 514.796 996.628 515.141C1007.47 515.141 1011.75 515.141 1013.17 515.903C1014.16 516.438 1015.73 531.846 1016.58 541H1025.93C1024.9 531.888 1022.13 521.894 1019 516.251Z" fill="#824444"/>
<path d="M979.545 541H1024.31C1022.15 531.702 1014.09 524.424 1003.89 523.563C992.33 522.587 982.037 530.202 979.545 541Z" fill="#F6AF9A"/>
<path d="M977.553 541H1025.58C1023.52 530.259 1017.85 520.327 1001.71 520.822C1001.71 520.822 981.601 520.81 977.553 541Z" fill="#8C4949"/>
<path d="M1014.72 523.507C1015.41 528.838 1016.11 535.893 1016.58 541.001H1025.58C1024.21 533.877 1021.26 527.112 1014.72 523.507Z" fill="#824444"/>
<path d="M954.952 479.9C954.952 479.9 948.797 476.337 947.705 470.592C946.614 464.848 949.745 445.747 950.54 436.813C951.338 427.878 944.045 420.17 943.066 415.734C943.066 415.734 953.368 410.98 975.957 408.804C975.957 408.804 988.689 409.164 1000.92 411.349C1010.91 413.129 1016.11 418.492 1018.06 421.563C1020.01 424.633 1018.74 432.118 1016.02 441.261C1013.3 450.403 1010.31 458.323 1010.01 468.005C1009.87 472.681 1009.65 489.372 1009.95 500.3C1009.95 500.3 1011.14 507.167 986.959 508.634C964.636 509.991 956.35 500.405 956.35 500.405C955.509 491.416 954.952 479.9 954.952 479.9Z" fill="#DE9681"/>
<path d="M1013.54 449.364C1011.73 455.393 1010.22 461.273 1010.01 468.005C1009.91 471.264 1009.78 480.358 1009.81 489.272C1004.5 475.22 997.403 433.268 997.403 433.268L1013.54 449.364Z" fill="#E57E73"/>
<path d="M964.706 412.102L966.033 388.944C966.189 384.355 969.387 380.222 974.148 379.013C979.943 377.539 985.857 380.954 987.358 386.642C987.563 387.413 987.673 388.191 987.701 388.956L989.774 413.819C989.792 413.993 989.838 414.782 989.838 414.782C990.196 420.632 986.288 425.689 980.285 427.214C973.469 428.946 966.739 425.248 964.975 418.558C964.424 416.475 964.559 414.32 964.706 412.102Z" fill="#DE9681"/>
<path d="M966.033 388.944C966.189 384.355 969.387 380.222 974.148 379.013C979.943 377.539 985.857 380.954 987.358 386.642C987.563 387.413 987.673 388.191 987.701 388.956L987.808 390.25C982.97 400.928 974.164 408.876 964.782 410.8L966.033 388.944Z" fill="#D38475"/>
<path d="M956.87 411.679C956.87 411.679 958.441 418.651 969.664 420.449C980.886 422.246 1003.65 411.754 1003.65 411.754C1003.65 411.754 1008.53 411.688 1011.9 413.744C1011.9 413.744 1018.27 417.651 1019.34 422.447C1020.41 427.247 1018.98 435.74 1018.12 438.841C1017.25 441.938 1011.9 469.37 1011.9 476.243C1011.9 481.042 1014.73 494.695 1016.44 502.499C1017.12 505.632 1014.98 508.678 1011.76 509.162C1001.06 510.761 977.538 513.325 954.57 509.456C950.809 508.823 948.155 505.488 948.402 501.754C948.977 493.129 949.928 478.77 949.907 478.17C949.907 478.17 945.161 475.322 944.14 467.224C943.118 459.13 949.381 439.039 948.708 435.59C948.035 432.142 942.079 419.107 942.198 415.827C942.198 415.827 948.662 412.789 956.87 411.679Z" fill="#FCF5F1"/>
<path d="M984.866 511.443C996.21 511.2 1005.91 510.035 1011.76 509.162C1014.99 508.678 1017.12 505.629 1016.44 502.499C1014.73 494.695 1011.9 481.042 1011.9 476.243C1011.9 469.37 1017.25 441.938 1018.11 438.841C1018.31 438.132 1018.54 437.145 1018.76 435.986C1009.17 430.653 1000.21 429.453 995.862 435.14C995.862 435.14 998.082 460.888 998.048 465.838C998.015 470.784 987.046 478.392 970.546 476.72C970.546 476.72 985.826 482.219 999.779 475.22L1001.45 479.968H1007.72C1007.72 479.968 1008.54 490.013 1009.76 496.91C1010.98 503.771 998.186 508.618 984.866 511.443Z" fill="#F0E2DA"/>
<path d="M995.952 429.464C995.809 428.279 995.83 427.057 996.038 425.821C997.221 418.777 1004 414.008 1011.18 415.166C1017.14 416.129 1021.5 420.878 1022.14 426.49L1036.94 487.855C1037.25 489.056 1037.33 490.337 1037.1 491.64C1036.27 496.64 1031.45 500.025 1026.36 499.203C1022.07 498.507 1018.94 495.046 1018.57 490.982C1018.57 490.982 999.873 447.721 996.292 431.211C996.139 430.641 996.026 430.056 995.952 429.464Z" fill="#DE9681"/>
<path d="M1006.7 413.743C1006.7 413.743 993.258 415.523 995.245 432.003C997.23 448.484 1003.95 478.17 1003.95 478.17C1003.95 478.17 1027.94 478.32 1036.04 466.774C1036.04 466.774 1024.89 428.429 1021.83 421.799C1018.78 415.166 1011.45 411.978 1006.7 413.743Z" fill="#FCF5F1"/>
<path d="M1025.73 481.923C1021.97 482.793 1019.28 485.78 1018.65 489.297C1018.52 490.06 1018.48 490.846 1018.55 491.641C1018.39 497.584 1018.6 510.114 1020.61 524.773C1021.35 530.16 1021.97 536.034 1022.43 541.001H1034.47C1035.45 523.125 1037.19 491.632 1037.19 491.632C1037.27 490.69 1037.2 489.72 1036.97 488.754C1035.79 483.82 1030.75 480.762 1025.73 481.923Z" fill="#DE9681"/>
<path d="M976.521 340.685C976.521 340.685 997.724 341.46 997.259 366.07C996.81 389.712 976.576 409.052 959.241 404.088C953.731 402.164 950.101 389.853 949.909 371.347C949.713 352.841 957.81 340.037 976.521 340.685Z" fill="#DE9681"/>
<path d="M1004.67 398.641C1002.08 390.243 1004.18 374.228 1003.13 367.004C1003.1 366.815 1003.06 366.641 1003.01 366.479C1002.35 356.83 999.116 349.074 991.624 343.222C983.564 336.922 970.427 339.851 970.427 339.851C964.458 339.413 952.068 344.539 948.634 352.595C945.2 360.65 946.246 372.223 947.591 375.3C948.934 378.376 947.142 381.305 946.396 383.355C945.65 385.405 947.142 387.455 948.484 390.093C949.83 392.728 947.591 395.805 947.591 395.805C949.83 394.634 950.872 391.411 949.979 388.629C949.084 385.843 948.634 384.82 949.218 382.707C949.799 380.591 950.276 379.252 950.576 376.032C950.872 372.809 950.126 366.365 951.918 361.971C953.71 357.574 960.725 352.595 960.725 352.595C962.816 358.894 965.801 363.874 969.681 365.191C973.565 366.509 975.953 368.415 976.699 370.317C977.445 372.223 976.249 375.738 976.699 379.985C977.145 384.235 978.937 384.379 980.28 386.285C981.625 388.187 977.891 391.558 976.996 393.022C976.1 394.487 976.699 396.975 977.742 398.881C978.787 400.784 978.041 402.981 978.041 402.981C979.833 402.249 979.534 398.734 978.937 395.805C978.341 392.875 980.579 392.143 981.922 389.946C983.267 387.749 981.475 384.673 981.176 383.061C980.876 381.449 983.298 375.966 984.194 376.404C984.71 376.659 985.325 379.682 985.805 383.268C985.567 384.757 985.53 386.254 985.756 387.731C985.756 387.731 986.142 388.62 986.484 390.039C986.508 390.444 986.533 390.841 986.551 391.219C986.591 392.059 986.765 393.034 986.992 393.983C987.019 395.865 986.726 397.969 985.756 400.01C982.974 405.868 979.485 403.908 980.258 412.633C981.032 421.361 978.781 428.381 976.1 432.844C973.418 437.31 973.369 450.339 978.867 457.692C978.867 457.692 979.778 451.923 983.863 450.183C987.949 448.442 994.33 439.894 993.908 434.468C993.483 429.041 997.193 413.437 1006.64 411.844C1006.64 411.844 1007.25 407.039 1004.67 398.641Z" fill="#8C4949"/>
<path d="M960.725 352.595C961.088 347.052 964.85 341.445 970.427 339.852C965.51 342.58 962.361 347.388 960.725 352.595Z" fill="#7A3D3D"/>
<path d="M964.46 351.424C971.517 354.14 970.279 357.525 974.288 362.342C975.642 364.179 977.856 364.632 979.801 365.56C982.277 367.069 983.95 369.938 983.864 372.808C983.586 370.401 982.167 368.09 980.198 366.67C977.868 365.205 975.498 365.374 973.612 362.919C969.554 358.03 971.175 355.004 964.46 351.424Z" fill="#7A3D3D"/>
<path d="M968.936 348.496C972.819 349.147 976.659 351.047 978.769 354.423C982.576 359.249 988.793 363.994 988.043 370.759C987.887 364.102 981.796 359.888 978.09 354.918C976.146 351.584 972.571 349.648 968.936 348.496Z" fill="#7A3D3D"/>
<path d="M968.936 343.955C975.51 343.178 982.714 344.666 987.377 349.555C989.668 351.764 991.646 354.369 992.799 357.332C993.31 358.703 993.674 360.171 993.674 361.639C993.646 362.47 993.667 363.487 993.759 364.316C994.187 368.905 995.291 373.677 994.013 378.23C995.102 372.645 992.83 367.044 992.863 361.462C992.438 356.032 988.573 351.479 984.469 348.1C980.118 344.771 974.333 343.844 968.936 343.955Z" fill="#7A3D3D"/>
<path d="M999.69 369.478C1000.93 374.619 1001.3 380.166 999.672 385.268C998.978 387.813 997.614 390.178 996.932 392.699C996.357 395.316 997.972 397.829 997.694 400.479C997.645 404.107 996.085 407.88 992.954 409.987C992.245 410.461 991.56 411.022 990.982 411.644C988.022 414.87 986.795 419.309 986.441 423.565C986.343 425.336 986.389 427.133 986 428.874C984.976 435.933 978.123 441.249 978.866 448.614C977.723 441.306 984.41 435.735 985.315 428.751C985.661 427.025 985.575 425.261 985.661 423.514C985.982 418.856 987.361 413.943 990.82 410.563C991.297 410.098 991.887 409.645 992.44 409.267C996.11 406.811 997.342 402.039 996.697 397.892C996.379 396.124 995.679 394.341 996.204 392.537C996.954 389.947 998.339 387.663 999.116 385.094C1000.85 380.088 1000.64 374.625 999.69 369.478Z" fill="#7A3D3D"/>
<path d="M990.362 388.838C993.095 397.547 989.704 398.793 986.393 405.819C985.726 407.301 985.79 408.784 985.656 410.387C984.907 413.364 983.681 414.111 983.864 417.725C983.301 414.88 984.081 413.322 984.901 410.747C985.105 409.339 984.818 407.851 985.28 406.461C985.338 406.191 985.491 405.783 985.579 405.519C988.888 398.097 992.001 398.301 990.362 388.838Z" fill="#7A3D3D"/>
<path d="M1000.57 393.011C1000.4 395.622 1000.09 398.275 1000.55 400.838C1000.7 401.738 1001.28 402.363 1001.59 403.179C1002.3 404.893 1002.53 406.783 1002.2 408.596C1001.81 410.319 1000.94 411.936 1000.96 413.743C1000.57 411.969 1001.23 410.232 1001.51 408.497C1001.84 401.357 997.68 403.164 1000.57 393.011Z" fill="#7A3D3D"/>
<path d="M994.443 415.634C992.52 418.137 990.618 421.103 990.753 424.332C991.272 429.158 991.486 435.184 988.848 439.458C990.67 434.83 990.3 429.653 989.927 424.797C989.637 421.223 991.899 417.966 994.443 415.634Z" fill="#7A3D3D"/>
<path d="M989.069 372.137C989.069 372.137 992.503 372.404 992.576 377.711C992.644 382.81 989.522 388.683 985.752 387.732C984.55 387.353 983.507 382.894 983.336 378.905C983.165 374.919 985.033 372.125 989.069 372.137Z" fill="#DE9681"/>
<path d="M986.365 383.93C984.846 377.033 988.448 375.076 988.601 374.995C988.787 374.896 989.016 374.968 989.117 375.148C989.215 375.331 989.145 375.557 988.961 375.656C988.857 375.713 986.943 376.784 986.769 380.248C987.83 379.026 989.521 378.81 989.613 378.798C989.821 378.774 990.01 378.921 990.038 379.125C990.062 379.332 989.912 379.518 989.704 379.542C989.607 379.554 987.335 379.854 986.8 381.76C986.852 382.372 986.949 383.039 987.112 383.771C987.151 383.954 987.047 384.137 986.87 384.2C986.855 384.206 986.836 384.212 986.818 384.215C986.613 384.26 986.408 384.131 986.365 383.93Z" fill="#BA6D5B"/>
<path d="M1038.72 300.315H920.637C915.322 300.315 911.014 304.541 911.014 309.754V321.357H1048.35V309.754C1048.35 304.541 1044.04 300.315 1038.72 300.315Z" fill="#8CCBFF"/>
<path d="M1039.23 310.37H1026.03C1025.22 310.37 1024.56 309.728 1024.56 308.932V308.704C1024.56 307.912 1025.22 307.27 1026.03 307.27H1039.23C1040.04 307.27 1040.7 307.912 1040.7 308.704V308.932C1040.7 309.728 1040.04 310.37 1039.23 310.37Z" fill="white"/>
<path d="M1039.24 317.084H1030.87C1030.06 317.084 1029.41 316.438 1029.41 315.646V315.418C1029.41 314.623 1030.06 313.98 1030.87 313.98H1039.24C1040.05 313.98 1040.7 314.626 1040.7 315.418V315.646C1040.7 316.438 1040.05 317.084 1039.24 317.084Z" fill="white"/>
<path d="M1038.73 541.736H920.64C914.919 541.736 910.265 537.171 910.265 531.558V309.755C910.265 304.142 914.919 299.577 920.64 299.577H1038.73C1044.45 299.577 1049.1 304.142 1049.1 309.755V531.558C1049.1 537.171 1044.45 541.736 1038.73 541.736ZM920.64 301.051C915.747 301.051 911.769 304.956 911.769 309.755V531.558C911.769 536.358 915.747 540.262 920.64 540.262H1038.73C1043.62 540.262 1047.6 536.358 1047.6 531.558V309.755C1047.6 304.956 1043.62 301.051 1038.73 301.051H920.64Z" fill="white"/>
<path d="M1006.31 305.03H953.057C949.795 305.03 947.146 302.431 947.146 299.228V298.016H1012.22V299.228C1012.22 302.431 1009.57 305.03 1006.31 305.03Z" fill="#303C72"/>
<path d="M921.825 333.804H802.975C799.156 333.804 796.059 336.844 796.059 340.593V374.424C796.059 378.175 799.156 381.213 802.975 381.213H909.719L928.742 403.611V340.593C928.742 336.844 925.644 333.804 921.825 333.804Z" fill="white"/>
<path d="M874.077 349.197H915.095C916.26 349.197 917.205 348.27 917.205 347.126V345.44C917.205 344.296 916.26 343.369 915.095 343.369H874.077C872.909 343.369 871.964 344.296 871.964 345.44V347.126C871.964 348.27 872.909 349.197 874.077 349.197Z" fill="#D4E7FF"/>
<path d="M808.272 349.197H861.173C862.341 349.197 863.286 348.27 863.286 347.126V345.44C863.286 344.296 862.341 343.369 861.173 343.369H808.272C807.107 343.369 806.162 344.296 806.162 345.44V347.126C806.162 348.27 807.107 349.197 808.272 349.197Z" fill="#D4E7FF"/>
<path d="M890.09 360.591H915.097C916.262 360.591 917.207 359.664 917.207 358.52V356.837C917.207 355.69 916.262 354.763 915.097 354.763H890.09C888.925 354.763 887.978 355.69 887.978 356.837V358.52C887.978 359.664 888.925 360.591 890.09 360.591Z" fill="#D4E7FF"/>
<path d="M866.053 360.591H877.847C879.015 360.591 879.96 359.664 879.96 358.52V356.837C879.96 355.69 879.015 354.763 877.847 354.763H866.053C864.888 354.763 863.943 355.69 863.943 356.837V358.52C863.943 359.664 864.888 360.591 866.053 360.591Z" fill="#D4E7FF"/>
<path d="M808.272 360.591H854.29C855.458 360.591 856.402 359.664 856.402 358.52V356.837C856.402 355.69 855.458 354.763 854.29 354.763H808.272C807.107 354.763 806.162 355.69 806.162 356.837V358.52C806.162 359.664 807.107 360.591 808.272 360.591Z" fill="#D4E7FF"/>
<path d="M900.943 371.986H915.097C916.262 371.986 917.207 371.059 917.207 369.912V368.229C917.207 367.082 916.262 366.155 915.097 366.155H900.943C899.778 366.155 898.833 367.082 898.833 368.229V369.912C898.833 371.059 899.778 371.986 900.943 371.986Z" fill="#D4E7FF"/>
<path d="M808.272 371.986H889.773C890.938 371.986 891.883 371.059 891.883 369.912V368.229C891.883 367.082 890.938 366.155 889.773 366.155H808.272C807.107 366.155 806.162 367.082 806.162 368.229V369.912C806.162 371.059 807.107 371.986 808.272 371.986Z" fill="#D4E7FF"/>
<path d="M889.383 382.196H802.977C798.611 382.196 795.058 378.709 795.058 374.423V340.592C795.058 336.306 798.611 332.821 802.977 332.821H899.926C900.48 332.821 900.926 333.259 900.926 333.803C900.926 334.346 900.48 334.787 899.926 334.787H802.977C799.718 334.787 797.064 337.389 797.064 340.592V374.423C797.064 377.625 799.718 380.23 802.977 380.23H889.383C889.936 380.23 890.386 380.668 890.386 381.212C890.386 381.755 889.936 382.196 889.383 382.196Z" fill="#8CCBFF"/>
<path d="M889.162 276.503H770.316C766.497 276.503 763.399 279.544 763.399 283.292V346.311L782.422 323.912H889.162C892.985 323.912 896.082 320.872 896.082 317.123V283.292C896.082 279.544 892.985 276.503 889.162 276.503Z" fill="white"/>
<path d="M842.653 291.993H777.328C776.16 291.993 775.215 291.066 775.215 289.922V288.235C775.215 287.092 776.16 286.165 777.328 286.165H842.653C843.818 286.165 844.762 287.092 844.762 288.235V289.922C844.762 291.066 843.818 291.993 842.653 291.993Z" fill="#D4E7FF"/>
<path d="M884.151 291.993H855.557C854.392 291.993 853.447 291.066 853.447 289.922V288.235C853.447 287.092 854.392 286.165 855.557 286.165H884.151C885.319 286.165 886.264 287.092 886.264 288.235V289.922C886.264 291.066 885.319 291.993 884.151 291.993Z" fill="#D4E7FF"/>
<path d="M801.524 303.385H777.328C776.163 303.385 775.215 302.457 775.215 301.314V299.627C775.215 298.484 776.163 297.556 777.328 297.556H801.524C802.689 297.556 803.634 298.484 803.634 299.627V301.314C803.634 302.457 802.689 303.385 801.524 303.385Z" fill="#D4E7FF"/>
<path d="M864.624 303.385H814.573C813.408 303.385 812.463 302.457 812.463 301.314V299.627C812.463 298.484 813.408 297.556 814.573 297.556H864.624C865.789 297.556 866.734 298.484 866.734 299.627V301.314C866.734 302.457 865.789 303.385 864.624 303.385Z" fill="#D4E7FF"/>
<path d="M884.149 303.385H876.388C875.22 303.385 874.275 302.457 874.275 301.314V299.627C874.275 298.484 875.22 297.556 876.388 297.556H884.149C885.317 297.556 886.262 298.484 886.262 299.627V301.314C886.262 302.457 885.317 303.385 884.149 303.385Z" fill="#D4E7FF"/>
<path d="M829.485 314.781H777.328C776.163 314.781 775.215 313.851 775.215 312.707V311.024C775.215 309.877 776.163 308.95 777.328 308.95H829.485C830.651 308.95 831.595 309.877 831.595 311.024V312.707C831.595 313.851 830.651 314.781 829.485 314.781Z" fill="#D4E7FF"/>
<path d="M884.15 314.781H840.658C839.49 314.781 838.545 313.851 838.545 312.707V311.024C838.545 309.877 839.49 308.95 840.658 308.95H884.15C885.318 308.95 886.263 309.877 886.263 311.024V312.707C886.263 313.851 885.318 314.781 884.15 314.781Z" fill="#D4E7FF"/>
<path d="M889.162 324.892H796.06C795.507 324.892 795.057 324.454 795.057 323.911C795.057 323.368 795.507 322.926 796.06 322.926H889.162C892.425 322.926 895.079 320.324 895.079 317.122V283.291C895.079 280.089 892.425 277.483 889.162 277.483H770.316C767.057 277.483 764.402 280.089 764.402 283.291V289.078C764.402 289.621 763.953 290.062 763.399 290.062C762.846 290.062 762.396 289.621 762.396 289.078V283.291C762.396 279.005 765.95 275.518 770.316 275.518H889.162C893.532 275.518 897.085 279.005 897.085 283.291V317.122C897.085 321.408 893.532 324.892 889.162 324.892Z" fill="#8CCBFF"/>
</svg>
