<svg width="1721" height="830" viewBox="0 0 1721 830" fill="none" xmlns="http://www.w3.org/2000/svg">
<rect x="0.558594" width="1720" height="830" fill="white"/>
<path d="M670.973 619.074H666.755L674.436 597.256H679.315L687.007 619.074H682.788L676.961 601.73H676.79L670.973 619.074ZM671.112 610.519H682.618V613.694H671.112V610.519ZM696.328 625.551C694.944 625.551 693.754 625.363 692.76 624.986C691.765 624.617 690.966 624.12 690.363 623.495C689.759 622.87 689.34 622.177 689.105 621.417L692.578 620.576C692.735 620.895 692.962 621.212 693.26 621.524C693.559 621.844 693.96 622.106 694.464 622.312C694.975 622.525 695.618 622.632 696.392 622.632C697.486 622.632 698.392 622.366 699.109 621.833C699.826 621.307 700.185 620.441 700.185 619.234V616.133H699.993C699.794 616.531 699.503 616.939 699.12 617.359C698.743 617.778 698.243 618.129 697.618 618.413C697 618.697 696.222 618.839 695.284 618.839C694.027 618.839 692.887 618.545 691.865 617.955C690.849 617.359 690.039 616.471 689.436 615.292C688.839 614.106 688.541 612.621 688.541 610.839C688.541 609.042 688.839 607.525 689.436 606.29C690.039 605.047 690.853 604.106 691.875 603.466C692.898 602.82 694.038 602.497 695.295 602.497C696.254 602.497 697.042 602.66 697.66 602.987C698.285 603.307 698.782 603.694 699.152 604.148C699.521 604.596 699.801 605.018 699.993 605.416H700.206V602.71H704.01V619.34C704.01 620.739 703.676 621.897 703.008 622.813C702.341 623.729 701.428 624.415 700.27 624.869C699.113 625.324 697.799 625.551 696.328 625.551ZM696.36 615.814C697.177 615.814 697.873 615.615 698.449 615.217C699.024 614.819 699.461 614.248 699.759 613.502C700.057 612.756 700.206 611.861 700.206 610.817C700.206 609.788 700.057 608.886 699.759 608.111C699.468 607.337 699.034 606.737 698.459 606.311C697.891 605.878 697.191 605.661 696.36 605.661C695.501 605.661 694.784 605.885 694.208 606.332C693.633 606.78 693.2 607.394 692.909 608.175C692.618 608.949 692.472 609.83 692.472 610.817C692.472 611.819 692.618 612.696 692.909 613.449C693.207 614.194 693.644 614.777 694.219 615.196C694.801 615.608 695.515 615.814 696.36 615.814ZM718.392 612.192V602.71H722.248V619.074H718.509V616.165H718.338C717.969 617.082 717.362 617.831 716.517 618.413C715.679 618.996 714.645 619.287 713.417 619.287C712.344 619.287 711.396 619.049 710.572 618.573C709.755 618.09 709.116 617.39 708.654 616.474C708.193 615.551 707.962 614.436 707.962 613.129V602.71H711.819V612.533C711.819 613.569 712.103 614.393 712.671 615.004C713.239 615.615 713.985 615.92 714.908 615.92C715.476 615.92 716.027 615.782 716.559 615.505C717.092 615.228 717.529 614.816 717.87 614.269C718.218 613.715 718.392 613.023 718.392 612.192ZM730.923 619.404C729.886 619.404 728.952 619.219 728.121 618.85C727.297 618.474 726.644 617.92 726.161 617.188C725.685 616.457 725.447 615.555 725.447 614.482C725.447 613.559 725.617 612.795 725.958 612.192C726.299 611.588 726.764 611.105 727.354 610.743C727.943 610.381 728.607 610.107 729.346 609.922C730.092 609.731 730.862 609.592 731.658 609.507C732.617 609.408 733.394 609.319 733.991 609.241C734.588 609.155 735.021 609.028 735.291 608.857C735.568 608.68 735.706 608.406 735.706 608.037V607.973C735.706 607.17 735.468 606.549 734.992 606.109C734.517 605.668 733.831 605.448 732.936 605.448C731.992 605.448 731.242 605.654 730.688 606.066C730.142 606.478 729.772 606.964 729.58 607.525L725.98 607.014C726.264 606.02 726.732 605.189 727.386 604.521C728.039 603.846 728.838 603.342 729.783 603.008C730.727 602.667 731.771 602.497 732.915 602.497C733.703 602.497 734.488 602.589 735.269 602.774C736.051 602.959 736.764 603.264 737.411 603.69C738.057 604.109 738.575 604.681 738.966 605.405C739.364 606.13 739.563 607.035 739.563 608.122V619.074H735.855V616.826H735.727C735.493 617.28 735.163 617.707 734.737 618.104C734.318 618.495 733.789 618.811 733.149 619.052C732.517 619.287 731.775 619.404 730.923 619.404ZM731.924 616.57C732.698 616.57 733.369 616.417 733.938 616.112C734.506 615.8 734.943 615.388 735.248 614.876C735.561 614.365 735.717 613.807 735.717 613.204V611.275C735.596 611.375 735.39 611.467 735.099 611.552C734.815 611.638 734.495 611.712 734.14 611.776C733.785 611.84 733.433 611.897 733.085 611.947C732.737 611.996 732.436 612.039 732.18 612.074C731.605 612.153 731.09 612.28 730.635 612.458C730.181 612.636 729.822 612.884 729.559 613.204C729.296 613.516 729.165 613.921 729.165 614.418C729.165 615.128 729.424 615.665 729.943 616.027C730.461 616.389 731.122 616.57 731.924 616.57ZM743.441 619.074V602.71H747.18V605.437H747.35C747.649 604.493 748.16 603.765 748.884 603.253C749.616 602.735 750.45 602.476 751.388 602.476C751.601 602.476 751.839 602.486 752.102 602.508C752.372 602.522 752.595 602.547 752.773 602.582V606.13C752.61 606.073 752.35 606.023 751.995 605.981C751.647 605.931 751.31 605.906 750.983 605.906C750.28 605.906 749.648 606.059 749.087 606.364C748.533 606.663 748.096 607.078 747.776 607.611C747.457 608.143 747.297 608.758 747.297 609.454V619.074H743.441ZM760.734 619.361C759.448 619.361 758.298 619.031 757.282 618.371C756.266 617.71 755.464 616.751 754.874 615.494C754.285 614.237 753.99 612.71 753.99 610.913C753.99 609.095 754.288 607.561 754.885 606.311C755.489 605.054 756.302 604.106 757.325 603.466C758.347 602.82 759.487 602.497 760.744 602.497C761.703 602.497 762.491 602.66 763.109 602.987C763.727 603.307 764.217 603.694 764.58 604.148C764.942 604.596 765.222 605.018 765.421 605.416H765.581V597.256H769.448V619.074H765.656V616.496H765.421C765.222 616.893 764.935 617.316 764.558 617.763C764.182 618.204 763.685 618.58 763.067 618.893C762.449 619.205 761.671 619.361 760.734 619.361ZM761.81 616.197C762.626 616.197 763.322 615.977 763.898 615.537C764.473 615.089 764.91 614.468 765.208 613.672C765.506 612.877 765.656 611.95 765.656 610.892C765.656 609.834 765.506 608.914 765.208 608.133C764.917 607.351 764.484 606.744 763.908 606.311C763.34 605.878 762.641 605.661 761.81 605.661C760.95 605.661 760.233 605.885 759.658 606.332C759.082 606.78 758.649 607.398 758.358 608.186C758.067 608.974 757.921 609.876 757.921 610.892C757.921 611.915 758.067 612.827 758.358 613.63C758.656 614.425 759.093 615.054 759.668 615.515C760.251 615.97 760.964 616.197 761.81 616.197ZM778.267 619.404C777.23 619.404 776.296 619.219 775.465 618.85C774.641 618.474 773.987 617.92 773.504 617.188C773.029 616.457 772.791 615.555 772.791 614.482C772.791 613.559 772.961 612.795 773.302 612.192C773.643 611.588 774.108 611.105 774.698 610.743C775.287 610.381 775.951 610.107 776.69 609.922C777.436 609.731 778.206 609.592 779.002 609.507C779.96 609.408 780.738 609.319 781.335 609.241C781.931 609.155 782.365 609.028 782.634 608.857C782.911 608.68 783.05 608.406 783.05 608.037V607.973C783.05 607.17 782.812 606.549 782.336 606.109C781.86 605.668 781.175 605.448 780.28 605.448C779.335 605.448 778.586 605.654 778.032 606.066C777.485 606.478 777.116 606.964 776.924 607.525L773.323 607.014C773.607 606.02 774.076 605.189 774.73 604.521C775.383 603.846 776.182 603.342 777.127 603.008C778.071 602.667 779.115 602.497 780.259 602.497C781.047 602.497 781.832 602.589 782.613 602.774C783.394 602.959 784.108 603.264 784.754 603.69C785.401 604.109 785.919 604.681 786.31 605.405C786.708 606.13 786.906 607.035 786.906 608.122V619.074H783.199V616.826H783.071C782.837 617.28 782.507 617.707 782.08 618.104C781.661 618.495 781.132 618.811 780.493 619.052C779.861 619.287 779.119 619.404 778.267 619.404ZM779.268 616.57C780.042 616.57 780.713 616.417 781.281 616.112C781.85 615.8 782.286 615.388 782.592 614.876C782.904 614.365 783.061 613.807 783.061 613.204V611.275C782.94 611.375 782.734 611.467 782.443 611.552C782.159 611.638 781.839 611.712 781.484 611.776C781.129 611.84 780.777 611.897 780.429 611.947C780.081 611.996 779.779 612.039 779.524 612.074C778.948 612.153 778.433 612.28 777.979 612.458C777.524 612.636 777.166 612.884 776.903 613.204C776.64 613.516 776.509 613.921 776.509 614.418C776.509 615.128 776.768 615.665 777.286 616.027C777.805 616.389 778.465 616.57 779.268 616.57ZM794.641 609.486V619.074H790.784V602.71H794.47V605.491H794.662C795.039 604.574 795.639 603.846 796.463 603.307C797.294 602.767 798.32 602.497 799.541 602.497C800.671 602.497 801.654 602.739 802.492 603.221C803.338 603.704 803.991 604.404 804.453 605.32C804.921 606.236 805.152 607.348 805.145 608.655V619.074H801.289V609.251C801.289 608.158 801.004 607.302 800.436 606.684C799.875 606.066 799.097 605.757 798.103 605.757C797.428 605.757 796.828 605.906 796.303 606.204C795.784 606.496 795.376 606.918 795.078 607.472C794.786 608.026 794.641 608.697 794.641 609.486ZM815.138 619.361C813.852 619.361 812.702 619.031 811.686 618.371C810.671 617.71 809.868 616.751 809.279 615.494C808.689 614.237 808.394 612.71 808.394 610.913C808.394 609.095 808.693 607.561 809.289 606.311C809.893 605.054 810.706 604.106 811.729 603.466C812.752 602.82 813.892 602.497 815.149 602.497C816.107 602.497 816.896 602.66 817.514 602.987C818.132 603.307 818.622 603.694 818.984 604.148C819.346 604.596 819.627 605.018 819.825 605.416H819.985V597.256H823.852V619.074H820.06V616.496H819.825C819.627 616.893 819.339 617.316 818.963 617.763C818.586 618.204 818.089 618.58 817.471 618.893C816.853 619.205 816.075 619.361 815.138 619.361ZM816.214 616.197C817.031 616.197 817.727 615.977 818.302 615.537C818.877 615.089 819.314 614.468 819.612 613.672C819.911 612.877 820.06 611.95 820.06 610.892C820.06 609.834 819.911 608.914 819.612 608.133C819.321 607.351 818.888 606.744 818.313 606.311C817.744 605.878 817.045 605.661 816.214 605.661C815.355 605.661 814.637 605.885 814.062 606.332C813.487 606.78 813.053 607.398 812.762 608.186C812.471 608.974 812.325 609.876 812.325 610.892C812.325 611.915 812.471 612.827 812.762 613.63C813.061 614.425 813.497 615.054 814.073 615.515C814.655 615.97 815.369 616.197 816.214 616.197ZM835.1 619.393C833.502 619.393 832.117 619.042 830.945 618.339C829.773 617.636 828.864 616.652 828.218 615.388C827.578 614.123 827.259 612.646 827.259 610.956C827.259 609.265 827.578 607.785 828.218 606.513C828.864 605.242 829.773 604.255 830.945 603.552C832.117 602.849 833.502 602.497 835.1 602.497C836.698 602.497 838.083 602.849 839.255 603.552C840.426 604.255 841.332 605.242 841.971 606.513C842.618 607.785 842.941 609.265 842.941 610.956C842.941 612.646 842.618 614.123 841.971 615.388C841.332 616.652 840.426 617.636 839.255 618.339C838.083 619.042 836.698 619.393 835.1 619.393ZM835.121 616.304C835.988 616.304 836.712 616.066 837.294 615.59C837.877 615.107 838.31 614.461 838.594 613.651C838.885 612.841 839.031 611.939 839.031 610.945C839.031 609.944 838.885 609.038 838.594 608.229C838.31 607.412 837.877 606.762 837.294 606.279C836.712 605.796 835.988 605.555 835.121 605.555C834.233 605.555 833.495 605.796 832.905 606.279C832.323 606.762 831.886 607.412 831.595 608.229C831.311 609.038 831.169 609.944 831.169 610.945C831.169 611.939 831.311 612.841 831.595 613.651C831.886 614.461 832.323 615.107 832.905 615.59C833.495 616.066 834.233 616.304 835.121 616.304ZM853.655 619.074V602.71H857.395V605.437H857.565C857.863 604.493 858.375 603.765 859.099 603.253C859.831 602.735 860.665 602.476 861.603 602.476C861.816 602.476 862.054 602.486 862.317 602.508C862.586 602.522 862.81 602.547 862.988 602.582V606.13C862.824 606.073 862.565 606.023 862.21 605.981C861.862 605.931 861.525 605.906 861.198 605.906C860.495 605.906 859.863 606.059 859.302 606.364C858.748 606.663 858.311 607.078 857.991 607.611C857.672 608.143 857.512 608.758 857.512 609.454V619.074H853.655ZM872.12 619.393C870.48 619.393 869.063 619.052 867.87 618.371C866.684 617.682 865.771 616.709 865.132 615.452C864.493 614.187 864.173 612.699 864.173 610.988C864.173 609.305 864.493 607.827 865.132 606.556C865.778 605.278 866.68 604.283 867.838 603.573C868.995 602.856 870.355 602.497 871.918 602.497C872.926 602.497 873.878 602.66 874.773 602.987C875.675 603.307 876.471 603.804 877.159 604.479C877.855 605.153 878.402 606.013 878.8 607.057C879.198 608.094 879.397 609.329 879.397 610.764V611.947H865.984V609.347H875.7C875.693 608.609 875.533 607.952 875.221 607.376C874.908 606.794 874.471 606.336 873.91 606.002C873.356 605.668 872.71 605.501 871.971 605.501C871.183 605.501 870.49 605.693 869.894 606.077C869.297 606.453 868.832 606.95 868.498 607.568C868.172 608.179 868.005 608.85 867.998 609.582V611.851C867.998 612.802 868.172 613.619 868.52 614.301C868.868 614.976 869.354 615.494 869.979 615.856C870.604 616.212 871.336 616.389 872.174 616.389C872.735 616.389 873.243 616.311 873.697 616.155C874.152 615.991 874.546 615.753 874.88 615.441C875.213 615.128 875.466 614.741 875.636 614.28L879.237 614.685C879.01 615.636 878.576 616.467 877.937 617.177C877.305 617.881 876.495 618.427 875.508 618.818C874.521 619.202 873.392 619.393 872.12 619.393ZM895.593 607.035L892.077 607.419C891.977 607.064 891.803 606.73 891.555 606.417C891.313 606.105 890.987 605.853 890.575 605.661C890.163 605.469 889.659 605.373 889.062 605.373C888.259 605.373 887.585 605.547 887.038 605.895C886.498 606.243 886.232 606.694 886.239 607.248C886.232 607.724 886.406 608.111 886.761 608.41C887.123 608.708 887.72 608.953 888.551 609.145L891.342 609.741C892.89 610.075 894.041 610.604 894.794 611.329C895.553 612.053 895.937 613.001 895.944 614.173C895.937 615.203 895.635 616.112 895.039 616.9C894.449 617.682 893.629 618.292 892.578 618.733C891.526 619.173 890.319 619.393 888.955 619.393C886.953 619.393 885.34 618.974 884.119 618.136C882.897 617.291 882.169 616.116 881.935 614.61L885.695 614.248C885.866 614.986 886.228 615.544 886.782 615.92C887.336 616.297 888.057 616.485 888.945 616.485C889.861 616.485 890.596 616.297 891.15 615.92C891.711 615.544 891.992 615.079 891.992 614.525C891.992 614.056 891.811 613.669 891.448 613.364C891.093 613.058 890.539 612.824 889.786 612.66L886.995 612.074C885.426 611.748 884.264 611.197 883.512 610.423C882.759 609.642 882.386 608.655 882.393 607.462C882.386 606.453 882.659 605.579 883.213 604.841C883.774 604.095 884.552 603.52 885.546 603.115C886.548 602.703 887.702 602.497 889.009 602.497C890.926 602.497 892.436 602.905 893.536 603.722C894.644 604.539 895.33 605.643 895.593 607.035ZM899.124 625.21V602.71H902.917V605.416H903.14C903.339 605.018 903.62 604.596 903.982 604.148C904.344 603.694 904.834 603.307 905.452 602.987C906.07 602.66 906.858 602.497 907.817 602.497C909.081 602.497 910.221 602.82 911.237 603.466C912.26 604.106 913.069 605.054 913.666 606.311C914.27 607.561 914.572 609.095 914.572 610.913C914.572 612.71 914.277 614.237 913.687 615.494C913.098 616.751 912.295 617.71 911.28 618.371C910.264 619.031 909.113 619.361 907.828 619.361C906.89 619.361 906.113 619.205 905.495 618.893C904.877 618.58 904.38 618.204 904.003 617.763C903.634 617.316 903.346 616.893 903.14 616.496H902.981V625.21H899.124ZM902.906 610.892C902.906 611.95 903.055 612.877 903.354 613.672C903.659 614.468 904.096 615.089 904.664 615.537C905.239 615.977 905.935 616.197 906.752 616.197C907.604 616.197 908.318 615.97 908.893 615.515C909.469 615.054 909.902 614.425 910.193 613.63C910.491 612.827 910.64 611.915 910.64 610.892C910.64 609.876 910.495 608.974 910.204 608.186C909.912 607.398 909.479 606.78 908.904 606.332C908.329 605.885 907.611 605.661 906.752 605.661C905.928 605.661 905.229 605.878 904.653 606.311C904.078 606.744 903.641 607.351 903.343 608.133C903.052 608.914 902.906 609.834 902.906 610.892ZM925.012 619.393C923.414 619.393 922.029 619.042 920.857 618.339C919.685 617.636 918.776 616.652 918.13 615.388C917.491 614.123 917.171 612.646 917.171 610.956C917.171 609.265 917.491 607.785 918.13 606.513C918.776 605.242 919.685 604.255 920.857 603.552C922.029 602.849 923.414 602.497 925.012 602.497C926.61 602.497 927.995 602.849 929.167 603.552C930.339 604.255 931.244 605.242 931.883 606.513C932.53 607.785 932.853 609.265 932.853 610.956C932.853 612.646 932.53 614.123 931.883 615.388C931.244 616.652 930.339 617.636 929.167 618.339C927.995 619.042 926.61 619.393 925.012 619.393ZM925.033 616.304C925.9 616.304 926.624 616.066 927.206 615.59C927.789 615.107 928.222 614.461 928.506 613.651C928.797 612.841 928.943 611.939 928.943 610.945C928.943 609.944 928.797 609.038 928.506 608.229C928.222 607.412 927.789 606.762 927.206 606.279C926.624 605.796 925.9 605.555 925.033 605.555C924.145 605.555 923.407 605.796 922.817 606.279C922.235 606.762 921.798 607.412 921.507 608.229C921.223 609.038 921.081 609.944 921.081 610.945C921.081 611.939 921.223 612.841 921.507 613.651C921.798 614.461 922.235 615.107 922.817 615.59C923.407 616.066 924.145 616.304 925.033 616.304ZM949.059 607.035L945.544 607.419C945.444 607.064 945.27 606.73 945.022 606.417C944.78 606.105 944.453 605.853 944.042 605.661C943.63 605.469 943.125 605.373 942.529 605.373C941.726 605.373 941.051 605.547 940.505 605.895C939.965 606.243 939.699 606.694 939.706 607.248C939.699 607.724 939.873 608.111 940.228 608.41C940.59 608.708 941.186 608.953 942.017 609.145L944.809 609.741C946.357 610.075 947.507 610.604 948.26 611.329C949.02 612.053 949.404 613.001 949.411 614.173C949.404 615.203 949.102 616.112 948.505 616.9C947.916 617.682 947.096 618.292 946.044 618.733C944.993 619.173 943.786 619.393 942.422 619.393C940.419 619.393 938.807 618.974 937.586 618.136C936.364 617.291 935.636 616.116 935.402 614.61L939.162 614.248C939.333 614.986 939.695 615.544 940.249 615.92C940.803 616.297 941.524 616.485 942.412 616.485C943.328 616.485 944.063 616.297 944.617 615.92C945.178 615.544 945.458 615.079 945.458 614.525C945.458 614.056 945.277 613.669 944.915 613.364C944.56 613.058 944.006 612.824 943.253 612.66L940.462 612.074C938.892 611.748 937.731 611.197 936.978 610.423C936.225 609.642 935.853 608.655 935.86 607.462C935.853 606.453 936.126 605.579 936.68 604.841C937.241 604.095 938.019 603.52 939.013 603.115C940.015 602.703 941.169 602.497 942.475 602.497C944.393 602.497 945.902 602.905 947.003 603.722C948.111 604.539 948.797 605.643 949.059 607.035ZM960.762 602.71V605.693H951.355V602.71H960.762ZM953.678 598.79H957.534V614.152C957.534 614.67 957.612 615.068 957.768 615.345C957.932 615.615 958.145 615.8 958.408 615.899C958.67 615.998 958.962 616.048 959.281 616.048C959.523 616.048 959.743 616.03 959.942 615.995C960.148 615.959 960.304 615.927 960.411 615.899L961.06 618.914C960.854 618.985 960.56 619.063 960.176 619.148C959.8 619.234 959.338 619.283 958.791 619.297C957.825 619.326 956.955 619.18 956.181 618.861C955.407 618.534 954.793 618.03 954.338 617.348C953.891 616.666 953.67 615.814 953.678 614.791V598.79ZM968.696 619.404C967.659 619.404 966.725 619.219 965.894 618.85C965.07 618.474 964.417 617.92 963.934 617.188C963.458 616.457 963.22 615.555 963.22 614.482C963.22 613.559 963.391 612.795 963.732 612.192C964.073 611.588 964.538 611.105 965.127 610.743C965.717 610.381 966.381 610.107 967.119 609.922C967.865 609.731 968.636 609.592 969.431 609.507C970.39 609.408 971.168 609.319 971.764 609.241C972.361 609.155 972.794 609.028 973.064 608.857C973.341 608.68 973.48 608.406 973.48 608.037V607.973C973.48 607.17 973.242 606.549 972.766 606.109C972.29 605.668 971.605 605.448 970.71 605.448C969.765 605.448 969.016 605.654 968.462 606.066C967.915 606.478 967.546 606.964 967.354 607.525L963.753 607.014C964.037 606.02 964.506 605.189 965.159 604.521C965.813 603.846 966.612 603.342 967.556 603.008C968.501 602.667 969.545 602.497 970.688 602.497C971.477 602.497 972.262 602.589 973.043 602.774C973.824 602.959 974.538 603.264 975.184 603.69C975.83 604.109 976.349 604.681 976.74 605.405C977.137 606.13 977.336 607.035 977.336 608.122V619.074H973.629V616.826H973.501C973.267 617.28 972.936 617.707 972.51 618.104C972.091 618.495 971.562 618.811 970.923 619.052C970.291 619.287 969.548 619.404 968.696 619.404ZM969.698 616.57C970.472 616.57 971.143 616.417 971.711 616.112C972.279 615.8 972.716 615.388 973.021 614.876C973.334 614.365 973.49 613.807 973.49 613.204V611.275C973.369 611.375 973.164 611.467 972.872 611.552C972.588 611.638 972.269 611.712 971.914 611.776C971.558 611.84 971.207 611.897 970.859 611.947C970.511 611.996 970.209 612.039 969.953 612.074C969.378 612.153 968.863 612.28 968.409 612.458C967.954 612.636 967.595 612.884 967.333 613.204C967.07 613.516 966.938 613.921 966.938 614.418C966.938 615.128 967.198 615.665 967.716 616.027C968.235 616.389 968.895 616.57 969.698 616.57ZM983.59 619.308C982.943 619.308 982.389 619.081 981.928 618.626C981.466 618.172 981.239 617.618 981.246 616.964C981.239 616.325 981.466 615.778 981.928 615.324C982.389 614.869 982.943 614.642 983.59 614.642C984.215 614.642 984.758 614.869 985.22 615.324C985.688 615.778 985.926 616.325 985.933 616.964C985.926 617.398 985.813 617.792 985.593 618.147C985.379 618.502 985.095 618.786 984.74 618.999C984.392 619.205 984.009 619.308 983.59 619.308ZM992.291 619.308C991.645 619.308 991.091 619.081 990.629 618.626C990.167 618.172 989.94 617.618 989.947 616.964C989.94 616.325 990.167 615.778 990.629 615.324C991.091 614.869 991.645 614.642 992.291 614.642C992.916 614.642 993.459 614.869 993.921 615.324C994.39 615.778 994.627 616.325 994.635 616.964C994.627 617.398 994.514 617.792 994.294 618.147C994.081 618.502 993.797 618.786 993.441 618.999C993.093 619.205 992.71 619.308 992.291 619.308ZM1000.99 619.308C1000.35 619.308 999.792 619.081 999.33 618.626C998.868 618.172 998.641 617.618 998.648 616.964C998.641 616.325 998.868 615.778 999.33 615.324C999.792 614.869 1000.35 614.642 1000.99 614.642C1001.62 614.642 1002.16 614.869 1002.62 615.324C1003.09 615.778 1003.33 616.325 1003.34 616.964C1003.33 617.398 1003.22 617.792 1002.99 618.147C1002.78 618.502 1002.5 618.786 1002.14 618.999C1001.79 619.205 1001.41 619.308 1000.99 619.308Z" fill="#5A7DA0"/>
<path d="M1064.73 419.788C1061.78 488.692 1007.74 542.934 942.125 542.934H667.155C628.238 542.934 601.501 501.654 615.907 463.653C635.112 411.732 697.691 450.152 669.019 406.488C641.227 364.155 624.679 312.495 648.396 287.611C703.298 230.012 768.107 306.404 803.73 295.337C815.092 291.564 860.206 261.737 877.75 256.394C989.547 214.057 1074.33 314.251 1064.73 419.788Z" fill="#E3F0FF"/>
<path d="M634.523 403.007C637.562 396.721 610.68 364.686 598.334 372.852C585.988 381.018 584.705 397.59 603.113 403.605C620.513 409.289 631.487 409.292 634.523 403.007Z" fill="#E3F0FF"/>
<path d="M694.7 268.564L690.932 245.901C690.846 245.397 690.363 245.054 689.849 245.136C689.339 245.221 688.991 245.698 689.074 246.202L692.756 268.339L676.861 281.412C676.461 281.74 676.405 282.326 676.738 282.721C676.925 282.94 677.193 283.055 677.463 283.055C677.676 283.055 677.888 282.985 678.063 282.839L694.371 269.427C694.629 269.217 694.752 268.886 694.7 268.564Z" fill="#C7DEFF"/>
<path d="M719.756 280.076L697.866 272.318C697.552 272.208 697.202 272.269 696.946 272.479L680.639 285.891C680.239 286.219 680.184 286.805 680.516 287.2C680.704 287.419 680.971 287.535 681.239 287.535C681.451 287.535 681.666 287.465 681.842 287.319L697.737 274.247L719.119 281.826C719.608 281.999 720.147 281.747 720.322 281.264C720.497 280.781 720.245 280.25 719.756 280.076Z" fill="#C7DEFF"/>
<path d="M687.655 267.077C687.732 267.533 688.128 267.855 688.58 267.855C688.633 267.855 688.682 267.852 688.734 267.842C689.248 267.76 689.595 267.283 689.509 266.776L686.627 249.439C686.544 248.935 686.058 248.592 685.548 248.674C685.034 248.759 684.687 249.236 684.773 249.74L687.655 267.077Z" fill="#C7DEFF"/>
<path d="M715.448 283.614L698.701 277.678C698.212 277.505 697.677 277.757 697.499 278.24C697.323 278.723 697.579 279.255 698.068 279.428L714.814 285.364C714.919 285.4 715.027 285.419 715.131 285.419C715.516 285.419 715.879 285.182 716.017 284.802C716.192 284.319 715.937 283.787 715.448 283.614Z" fill="#C7DEFF"/>
<path d="M905.459 410.773L882.695 406.076C882.185 405.97 881.687 406.292 881.582 406.796C881.474 407.298 881.8 407.79 882.308 407.893L904.549 412.483L911.164 431.838C911.331 432.324 911.866 432.585 912.358 432.421C912.632 432.327 912.838 432.124 912.933 431.874C913.01 431.68 913.019 431.458 912.948 431.243L906.157 411.387C906.049 411.074 905.785 410.843 905.459 410.773Z" fill="#C7DEFF"/>
<path d="M925.368 391.846L910.15 409.211C909.931 409.46 909.864 409.804 909.968 410.116L916.759 429.972C916.925 430.458 917.461 430.72 917.953 430.556C918.226 430.464 918.433 430.258 918.528 430.009C918.605 429.814 918.614 429.593 918.543 429.377L911.924 410.025L926.789 393.062C927.131 392.673 927.088 392.089 926.694 391.752C926.303 391.418 925.71 391.461 925.368 391.846Z" fill="#C7DEFF"/>
<path d="M927.159 397.087L915.515 410.372C915.173 410.76 915.216 411.347 915.61 411.681C916.004 412.018 916.597 411.976 916.936 411.587L928.58 398.302C928.654 398.22 928.709 398.126 928.746 398.029C928.884 397.673 928.792 397.257 928.485 396.993C928.091 396.659 927.497 396.698 927.159 397.087Z" fill="#C7DEFF"/>
<path d="M784.893 490.409C784.893 490.409 676.892 206.105 599.503 279.222C584.694 297.65 602.053 329.135 633.942 365.648C665.831 402.157 758.586 497.071 771.729 512.13L784.893 490.409Z" fill="#5A789F"/>
<path d="M784.892 490.41C784.892 490.41 718.054 314.468 651.861 275.002C653.325 278.769 654.223 282.837 652.811 285.419C649.576 291.337 634.984 294.05 630.814 303.869C627.246 312.275 632.914 344.723 620.113 348.915C624.321 354.35 628.953 359.937 633.942 365.648C665.831 402.158 758.586 497.072 771.728 512.131L784.892 490.41Z" fill="#5A789F"/>
<path d="M611.952 281.521C619.466 287.497 626.66 293.868 633.725 300.354C674.918 338.592 711.415 382.007 740.751 429.781C746.392 439.026 751.895 448.726 756.88 458.335C758.978 462.339 761.319 467.09 763.287 471.161C764.56 473.859 766.363 477.726 767.572 480.454L768.405 482.319L769.214 484.2L770.023 486.077L770.826 487.958C761.196 468.378 750.48 449.37 738.727 431.015C726.99 412.647 714.303 394.894 700.862 377.708C680.685 351.938 658.866 327.403 635.703 304.197C627.977 296.477 620.084 288.822 611.952 281.521Z" fill="#5AA5D1"/>
<path d="M623.257 416.558C623.257 416.558 602.428 408.164 588.326 424.614C576.435 438.489 595.523 476.153 615.235 494.383C615.235 494.383 595.898 506.347 595.243 520.13C594.588 533.91 617.345 548.455 649.557 552.569L652.811 435.694L623.257 416.558Z" fill="#5A789F"/>
<path d="M620.886 415.789C622.833 426.995 624.251 444.394 627.256 463.32C631.977 493.061 642.788 536.233 605.972 537.211C615.583 544.366 630.999 550.199 649.558 552.568L652.812 435.693L623.257 416.557C623.257 416.557 622.387 416.205 620.886 415.789Z" fill="#5A789F"/>
<path d="M598.235 426.891C613.715 442.512 628.642 458.753 643.341 475.091C647.61 479.815 652.146 484.739 656.295 489.551C664.277 498.881 671.988 508.52 679.194 518.448C679.569 518.977 679.948 519.499 680.32 520.031L680.086 520.222C669.278 509.164 658.833 497.468 648.886 485.651C645.746 481.859 642.107 477.521 638.915 473.772C628.838 462.01 618.655 450.241 608.379 438.651C604.946 434.781 601.501 430.919 598.017 427.098L598.235 426.891Z" fill="#5AA5D1"/>
<path d="M608.221 519.98C616.113 520.502 624.076 520.138 631.904 519.071C635.801 518.531 639.667 517.823 643.453 516.772C646.584 515.897 649.651 514.824 652.714 513.752C656.079 512.567 659.392 511.231 662.615 509.703C664.706 508.709 666.715 507.643 668.763 506.54L668.951 506.774C667.939 507.865 666.795 508.913 665.635 509.848C660.511 513.95 654.415 516.884 648.027 518.473C637.612 521.004 626.807 521.86 616.119 521.143C613.459 520.961 610.81 520.703 608.181 520.275L608.221 519.98Z" fill="#5AA5D1"/>
<mask id="mask0_1949_925" style="mask-type:luminance" maskUnits="userSpaceOnUse" x="640" y="296" width="153" height="259">
<path d="M640.172 296.823H792.137V554.366H640.172V296.823Z" fill="white"/>
</mask>
<g mask="url(#mask0_1949_925)">
<path d="M780.004 554.333H652.398C645.961 554.333 640.741 549.18 640.741 542.822V308.753C640.741 302.395 645.961 297.239 652.398 297.239H780.004C786.445 297.239 791.664 302.395 791.664 308.753V542.822C791.664 549.18 786.445 554.333 780.004 554.333Z" fill="#303C72"/>
</g>
<path d="M775.589 547.598H656.807C651.462 547.598 647.128 543.317 647.128 538.041V313.532C647.128 308.255 651.462 303.978 656.807 303.978H775.589C780.934 303.978 785.265 308.255 785.265 313.532V538.041C785.265 543.317 780.934 547.598 775.589 547.598Z" fill="#D4EBFF"/>
<path d="M775.589 303.978H656.807C651.462 303.978 647.128 308.255 647.128 313.532V325.276H785.265V313.532C785.265 308.255 780.934 303.978 775.589 303.978Z" fill="#8CCBFF"/>
<path d="M744.435 418.279C744.435 418.279 758.199 408.831 768.964 426.533C779.732 444.238 791.614 479.375 794.976 490.296C798.338 501.215 785.401 507.014 777.401 498.681C769.398 490.348 749.517 452.535 744.968 443.233C740.419 433.931 737.644 423.538 744.435 418.279Z" fill="#9E5959"/>
<path d="M780.772 484.235L791.848 480.668C790.799 477.573 788.24 470.346 788.24 470.346C788.24 470.346 782.095 478.086 780.772 484.235Z" fill="#914D4D"/>
<path d="M767.869 485.022C767.817 481.401 767.783 475.641 767.943 469.79C768.204 460.157 766.667 438.411 766.667 438.411L753.718 460.072C758.048 468.131 763.216 477.406 767.869 485.022Z" fill="#914D4D"/>
<path d="M746.259 415.76C746.259 415.76 734.54 420.84 740.418 435.999C746.296 451.161 765.172 482.689 770.822 492.27C776.472 501.852 784.561 506.406 790.719 503.18C796.876 499.95 797.227 494.333 794.772 485.721C792.315 477.111 776.226 437.685 772.175 429.625C768.121 421.569 757.805 409.59 746.259 415.76Z" fill="white"/>
<path d="M787.149 465.143C783.56 469.793 779.051 481.158 779.051 481.158L791.338 475.939C790.12 472.713 788.684 469.016 787.149 465.143Z" fill="#D4EBFF"/>
<path d="M770.765 492.171C770.881 485.29 771.075 469.894 770.7 461.227C770.211 449.826 767.975 436 767.975 436L759.104 472.218C763.983 480.749 768.445 488.24 770.765 492.171Z" fill="#D4EBFF"/>
<path d="M821.438 440.78C821.438 440.78 830.846 444.246 835.896 455.523L831.369 459.199L818.719 446.549L821.438 440.78Z" fill="#ABD3FC"/>
<path d="M783.145 502.077C787.42 503.539 792.169 502.238 795.208 498.927C803.448 489.944 830.588 460.051 836.186 450.05C842.808 438.223 834.11 436.513 826.017 443.849C817.928 451.186 804.693 462.296 798.527 467.415C788.487 475.751 778.694 481.957 775.551 488.27C773.349 492.687 776.744 499.89 783.145 502.077Z" fill="#9E5959"/>
<path d="M828.388 460.953C824.177 465.911 816.017 456.536 818.819 451.927C818.865 451.855 827.228 441.605 828.354 437.749C829.538 433.688 828.96 431.719 833.192 428.116C836.794 425.054 839.199 422.973 841.011 423.259C842.93 423.562 841.272 426.093 839.322 427.794C837.212 429.638 834.026 435.076 837.037 434.927C839.436 434.806 847.134 433.226 849.46 432.199C853.249 430.525 862.732 421.448 864.964 426.236C864.964 426.236 867.422 425.832 867.256 428.639C867.256 428.639 870.227 429.577 867.527 433.044C867.527 433.044 869.258 434.593 867.53 436.586C866.358 437.938 861.231 442.549 857.829 445.147C854.43 447.744 840.672 449.439 835.804 452.344C834.253 453.27 829.351 459.82 828.388 460.953Z" fill="#F6AF9A"/>
<path d="M835.815 434.027C836.037 436.913 837.018 439.252 836.049 442.15C838.445 439.863 836.338 436.464 835.815 434.027Z" fill="#E57E73"/>
<path d="M867.526 433.043C866.105 432.815 865.007 433.96 863.98 434.732C860.781 437.113 857.77 439.85 854.418 441.956C858.401 441.011 861.071 437.396 864.205 434.993C865.109 434.085 866.342 433.07 867.526 433.043Z" fill="#E57E73"/>
<path d="M867.26 428.639C864.258 428.906 862.083 431.251 859.752 432.886C857.39 434.49 855.289 436.859 852.915 438.162C854.397 437.989 855.662 437.023 856.778 436.103C860.183 433.621 863.212 429.717 867.26 428.639Z" fill="#E57E73"/>
<path d="M864.967 426.236C859.517 427.029 855.944 431.993 851.432 434.584C856.629 433.263 859.724 427.251 864.967 426.236Z" fill="#E57E73"/>
<path d="M852.33 442.954C846.597 441.138 838.889 439.923 833.892 443.99C839.385 440.807 846.329 442.089 852.33 442.954Z" fill="#EA9A88"/>
<path d="M851.064 434.433C852.103 435.323 852.435 436.699 852.761 437.966C853.801 438.932 854.007 440.506 854.268 441.836C854.797 442.219 854.81 442.975 854.816 443.565C854.671 442.963 854.447 442.316 853.912 442.015C853.478 440.837 853.201 439.281 852.269 438.413C851.694 437.289 851.722 435.697 850.765 434.722C850.467 434.105 850.286 433.376 849.763 432.872C850.362 433.218 850.759 433.822 851.064 434.433Z" fill="#EA9A88"/>
<path d="M821.438 440.78C821.438 440.78 825.074 452.491 835.897 455.523C835.897 455.523 805.211 493.121 797.226 499.667C789.245 506.217 777.249 503.264 772.993 493.604C768.893 484.299 821.438 440.78 821.438 440.78Z" fill="white"/>
<path d="M732.198 523.978C718.8 528.322 713.368 538.229 711.744 547.598H763.01C761.937 541.531 760.728 536.956 759.378 534.596C750.904 519.768 732.198 523.978 732.198 523.978Z" fill="#F6AF9A"/>
<path d="M732.646 517.446C717.061 520.527 709.117 530.986 708.591 547.598H766.885C766.796 546.969 766.707 546.358 766.617 545.766C762.284 517.191 732.646 517.446 732.646 517.446Z" fill="#384682"/>
<path d="M693.811 481.595C695.693 502.63 689.997 515.343 687.558 528.133C686.272 534.88 685.928 541.542 686.82 547.597H755.993C760.243 537.863 759.496 528.273 759.634 523.084C759.871 514.35 760.585 499.765 760.585 499.765C763.104 461.192 691.932 460.557 693.811 481.595Z" fill="#F6AF9A"/>
<path d="M689.256 516.695C689.256 516.695 682.561 533.042 685.033 547.597H757.212C761.139 534.373 760.847 517.446 760.847 517.446C751.648 518.91 689.256 516.695 689.256 516.695Z" fill="#384682"/>
<path d="M684.29 547.598H735.249C735.009 523.99 715.216 522.404 715.216 522.404C699.666 520.788 688.138 525.442 684.29 547.598Z" fill="#F6AF9A"/>
<path d="M681.661 547.544C681.658 547.562 681.658 547.58 681.655 547.598H740.7C740.374 530.695 729.446 519.774 711.173 517.471C711.173 517.471 685.032 515.509 681.661 547.544Z" fill="#384682"/>
<path d="M708.459 407.924C720.888 405.864 730.807 407.547 742.507 410.931C750.335 413.195 758.722 415.376 762.512 420.607C769.164 429.791 766.132 452.478 764.431 462.98C762.73 473.479 761.441 495.437 760.509 501.079C759.577 506.72 734.233 515.576 718.719 513.27C706.825 511.502 695.94 505.745 694.39 494.988C692.566 482.301 689.46 464.113 685.855 453.061C682.25 442.012 676.588 419 694.446 411.299C697.795 409.856 705.186 408.464 708.459 407.924Z" fill="#F6AF9A"/>
<path d="M737.786 396.227C737.786 396.227 737.383 407.689 739.957 412.942C742.529 418.191 733.723 421.457 727.999 421.408C722.275 421.36 713.485 418.194 712.457 411.386C711.433 404.575 715.65 407.152 714.853 388.641C714.232 374.166 739.388 381.964 737.786 396.227Z" fill="#F6AF9A"/>
<path d="M739.15 410.797C737.474 405.089 737.785 396.227 737.785 396.227C739.055 384.902 723.458 377.654 717.292 382.399C717.04 384.012 716.923 385.829 716.972 387.879C716.997 388.946 727.497 408.965 739.15 410.797Z" fill="#EA9A88"/>
<path d="M765.649 519.808C764.807 513.544 765.649 482.848 765.769 478.446C765.889 474.041 768.193 450.959 767.947 444.06C767.698 437.158 765.754 423.332 764.016 419.18C762.275 415.03 749.157 411.858 742.289 410.798L738.903 409.856C738.903 409.856 739.989 413.736 734.197 414.72C725.671 416.169 716.401 411.035 712.562 407.368C712.562 407.368 710.302 407.082 708.77 407.365C708.77 407.365 693.939 409.71 690.054 411.254C686.17 412.797 680.581 419.55 680.341 431.091C680.098 442.632 686.004 464.199 687.689 475.247C689.378 486.299 688.292 505.217 687.569 511.76C686.846 518.304 679.858 539.126 679.738 547.334C679.738 547.334 680.624 547.435 682.19 547.599H750.997C760.734 546.614 767.941 545.755 768.541 545.311C768.541 545.311 766.744 539.958 766.618 535.556C766.492 531.154 766.492 526.072 765.649 519.808Z" fill="#85B9F1"/>
<path d="M733.277 416.892C737.054 416.849 742.439 424.754 742.439 424.754C744.131 421.734 745.709 415.312 746.53 411.576C744.983 411.251 743.531 410.989 742.289 410.798L738.902 409.856C738.902 409.856 739.988 413.736 734.196 414.72C725.671 416.169 716.4 411.035 712.562 407.368C712.562 407.368 710.301 407.082 708.769 407.365C708.769 407.365 707.865 407.508 706.447 407.748L704.494 410.722L728.239 429.639C728.239 429.639 728.168 428.387 729.005 424.177C730.352 417.381 733.277 416.892 733.277 416.892Z" fill="#75AEEB"/>
<path d="M701.739 471.956C703.643 457.587 704.384 432.065 704.384 432.065C704.384 432.065 691.398 437.114 680.855 439.083C682.3 450.864 686.342 466.415 687.689 475.246C689.378 486.295 688.292 505.215 687.569 511.759C686.846 518.303 679.858 539.124 679.738 547.333C679.738 547.333 680.624 547.433 682.19 547.597H704.615C691.721 540.683 692.456 520.423 694.157 509.231C696.157 496.053 700.3 482.829 701.739 471.956Z" fill="#75AEEB"/>
<path d="M733.811 419.069C735.58 419.005 735.964 416.016 736.035 414.236C735.515 414.433 734.906 414.597 734.193 414.719C732.729 414.968 731.24 415.023 729.764 414.925C730.4 416.326 731.92 419.136 733.811 419.069Z" fill="#384682"/>
<path d="M732.338 417.358C732.338 417.358 741.62 459.3 742.439 468.535L748.206 479.371L750.632 465.142C750.632 465.142 740.99 431.196 734.623 416.936L732.338 417.358Z" fill="#384682"/>
<path d="M732.865 414.891C732.865 414.891 737.647 412.564 738.899 409.855C738.899 409.855 740.963 409.791 741.818 410.21C741.818 410.21 743.211 417.379 741.818 421.954C741.818 421.954 737.087 415.63 733.363 415.949C729.629 416.271 727.202 424.928 727.202 424.928C727.202 424.928 713.94 414.682 712.298 407.394L712.673 406.969C712.673 406.969 724.001 413.515 732.865 414.891Z" fill="#96C3F2"/>
<path d="M757.626 355.471C757.626 355.471 759.469 364.135 756.891 374.299L751.198 355.127L757.626 355.471Z" fill="#8C4949"/>
<path d="M734.197 338.821C734.197 338.821 752.661 339.894 755.644 356.11C758.628 372.327 756.761 401.661 746.036 404.872C736.249 407.804 721.147 397.797 714.79 387.753C708.1 377.184 705.725 363.711 709.662 353.522C713.11 344.603 719.68 338.05 734.197 338.821Z" fill="#F6AF9A"/>
<path d="M725.802 357.785C725.802 357.785 723.917 360.546 724.437 364.717C724.775 367.433 723.72 368.411 720.857 372.37C717.99 376.328 718.654 376.559 717.812 380.922C716.969 385.281 714.911 395.971 714.856 396.825C714.797 397.682 712.143 394.68 710.156 388.732C708.172 382.784 703.955 371.243 703.593 360.653C703.233 350.065 713.112 339.357 723.234 338.284C723.234 338.284 732.873 334.001 742.153 337.81C751.429 341.617 758.264 347.41 757.87 356.946L755.846 357.013C755.846 357.013 754.305 355.895 753.813 355.603C751.568 354.273 749.741 354.932 747.702 356.245C747.702 356.245 739.766 360.185 735.549 359.711C735.549 359.711 730.736 361.181 725.802 357.785Z" fill="#8C4949"/>
<path d="M717.546 348.128C717.546 348.128 716.35 355.953 724.746 360.27C725.18 358.703 725.801 357.785 725.801 357.785C725.801 357.785 718.521 353.326 717.546 348.128Z" fill="#7D4141"/>
<path d="M722.423 341.776C722.349 345.583 723.272 349.638 726.123 352.339C729.519 355.498 735.845 356.136 740.36 356.021C739.81 356.23 739.238 356.388 738.66 356.513C734.347 357.4 729.187 356.978 725.628 354.192C722.023 351.288 720.938 346.02 722.423 341.776Z" fill="#7D4141"/>
<path d="M727.098 339.752C729.586 338.932 732.225 338.646 734.845 338.659C740.144 338.707 745.61 340.366 749.497 344.029C751.441 345.846 752.921 348.103 753.77 350.533C753.007 349.488 752.226 348.489 751.364 347.572C748.842 344.841 745.61 342.802 742.079 341.599C737.284 339.953 732.154 339.588 727.098 339.752Z" fill="#7D4141"/>
<path d="M725.054 341.776C730.015 342.135 734.877 343.426 739.497 345.23C743.046 346.634 746.482 348.602 749.05 351.443C749.44 351.88 749.806 352.345 750.105 352.846C749.883 352.655 749.656 352.476 749.425 352.305C749.25 352.175 748.902 351.926 748.724 351.801C746.149 350.033 743.332 348.633 740.441 347.454C735.363 345.41 730.184 343.748 725.054 341.776Z" fill="#7D4141"/>
<path d="M728.27 346.3C731.517 349.322 735.725 350.887 739.871 352.333C741.276 352.819 742.71 353.253 744.158 353.809C743.386 353.894 742.617 353.903 741.842 353.879C737.973 353.694 734.061 352.473 731.044 350.003C729.869 348.994 728.752 347.785 728.27 346.3Z" fill="#7D4141"/>
<path d="M721.627 377.516C721.627 377.516 721.587 368.974 716.429 368.916C711.268 368.859 711.296 376.01 714.623 380.648C716.484 383.246 721.648 386.518 721.627 377.516Z" fill="#F6AF9A"/>
<path d="M715.95 374.676C716.965 374.734 717.764 375.284 718.324 375.843C718.179 374.862 717.77 373.914 716.832 373.324C716.589 373.173 716.519 372.857 716.672 372.617C716.826 372.377 717.143 372.307 717.389 372.459C720.738 374.558 718.991 379.689 718.914 379.904C718.822 380.172 718.527 380.314 718.256 380.22C718.25 380.22 718.247 380.217 718.241 380.217C717.98 380.12 717.841 379.834 717.933 379.57C717.94 379.549 718.238 378.674 718.349 377.556C718.342 377.547 718.33 377.538 718.324 377.526C718.315 377.511 717.364 375.782 715.891 375.7C715.605 375.685 715.387 375.442 715.402 375.159C715.418 374.877 715.664 374.661 715.95 374.676Z" fill="#E57E73"/>
<path d="M677.18 547.597H770.11C768.778 533.772 767.123 513.269 766.729 503.912C766.2 491.302 768.489 457.465 768.538 446.915C768.587 436.364 765.499 421.609 765.499 421.609C765.09 420.396 764.229 416.839 756.533 414.008C748.838 411.179 742.019 410.721 742.019 410.721C748.66 427.639 746.78 471.063 746.78 471.063C746.78 471.063 740.77 454.929 732.337 437.236C724.937 421.712 708.158 407.364 708.158 407.364C700.238 407.619 686.441 410.854 686.441 410.854C672.683 425.755 681.839 456.496 684.137 472.868C686.431 489.239 684.358 506.461 678.275 540.516C677.893 542.649 677.527 545.024 677.18 547.597Z" fill="white"/>
<path d="M746.898 467.407L746.781 471.982C752.366 434.005 749.269 413.939 748.755 411.767C744.772 410.907 742.02 410.722 742.02 410.722C747.491 424.66 747.178 456.595 746.898 467.407Z" fill="#ABD3FC"/>
<path d="M746.538 470.41C745.329 467.229 739.78 452.838 732.34 437.236C724.94 421.712 708.162 407.364 708.162 407.364C705.815 407.44 702.952 407.777 700.085 408.214C700.085 408.214 740.365 451.954 746.784 471.98L746.538 470.41Z" fill="#ABD3FC"/>
<path d="M744.835 547.598H746.065C747.286 522.031 748.148 496.464 746.782 471.063C747.514 496.533 746.108 522.161 744.835 547.598Z" fill="#ABD3FC"/>
<path d="M684.137 472.868C686.431 489.239 684.358 506.461 678.275 540.516C677.893 542.649 677.527 545.025 677.18 547.598H687.708L689.639 527.921C690.144 522.395 692.072 501.394 692.709 495.303C693.447 488.27 694.92 487.298 698.605 467.761C702.29 448.224 703.17 431.3 703.17 431.3L680.418 451.699C681.649 459.613 683.325 467.093 684.137 472.868Z" fill="#D4EBFF"/>
<path d="M740.361 409.897C740.361 409.897 745.276 429.088 746.78 471.063C746.78 471.063 749.204 445.946 748.592 429.814C747.977 413.686 747.522 411.514 747.522 411.514C747.522 411.514 742.385 409.481 740.361 409.897Z" fill="white"/>
<path d="M746.781 471.063C732.337 437.236 701.398 408.02 701.398 408.02C704.502 406.48 712.674 406.969 712.674 406.969C712.674 406.969 724.719 420.476 733.118 436.607C744.431 458.335 746.781 471.063 746.781 471.063Z" fill="white"/>
<path d="M687.374 411.519C687.374 411.519 704.085 412.844 701.024 433.274C697.964 453.701 684.557 488.3 680.137 498.848C675.717 509.392 662.556 505.95 661.732 494.494C660.905 483.041 669.28 441.176 671.747 431.135C674.21 421.098 678.747 411.328 687.374 411.519Z" fill="#F6AF9A"/>
<path d="M690.052 411.252C690.052 411.252 677.789 406.288 670.974 429.935C664.155 453.582 659.735 485.055 659.55 495.606C659.366 506.157 669.845 511.367 676.498 507.43C683.153 503.495 690.338 478.998 694.657 466.518C701.399 447.036 711.896 416.034 690.052 411.252Z" fill="white"/>
<path d="M661.596 493.475C661.596 493.475 661.482 527.035 662.995 547.598H677.436C678.503 538.284 679.844 528.083 680.607 522.484C682.357 509.649 683.947 499.426 684.135 491.254C684.381 480.576 662.337 478.334 661.596 493.475Z" fill="#F6AF9A"/>
<path d="M673.512 476.504C673.512 476.504 660.837 477.598 659.548 493.24C658.579 505.018 658.441 529.993 658.905 547.598H682.723C684.738 526.372 688.297 488.513 688.37 485.022C688.475 480.143 679.737 475.413 673.512 476.504Z" fill="white"/>
<path d="M784.515 504.01V538.041C784.515 542.899 780.51 546.851 775.592 546.851H656.811C651.89 546.851 647.888 542.899 647.888 538.041V313.532C647.888 308.674 651.89 304.722 656.811 304.722H775.592C780.51 304.722 784.515 308.674 784.515 313.532V458.56C784.949 459.635 785.379 460.704 785.804 461.771C785.942 461.634 786.025 461.449 786.025 461.242V313.532C786.025 307.851 781.344 303.23 775.592 303.23H656.811C651.056 303.23 646.378 307.851 646.378 313.532V538.041C646.378 543.722 651.056 548.342 656.811 548.342H775.592C781.344 548.342 786.025 543.722 786.025 538.041V504.195C785.527 504.171 785.022 504.11 784.515 504.01Z" fill="white"/>
<path d="M742.981 308.75H689.423C686.138 308.75 683.475 306.119 683.475 302.877V301.65H748.926V302.877C748.926 306.119 746.266 308.75 742.981 308.75Z" fill="#303C72"/>
<path d="M1073.47 355.633C1075.21 354.424 1077.12 353.498 1079.15 352.875C1087.52 350.299 1109.17 346.046 1125.58 363.994C1143.1 383.148 1117.74 437.457 1090.61 464.209C1090.61 464.209 1118.6 480.322 1120.16 499.85C1121.72 519.377 1090.1 541.044 1044.58 548.326L1034.57 382.61L1073.47 355.633Z" fill="#5A789F"/>
<path d="M1078.97 352.931C1076.72 368.923 1075.51 393.676 1072.12 420.668C1066.79 463.089 1053.43 524.844 1105.73 524.58C1092.42 535.161 1070.8 544.132 1044.58 548.327L1034.57 382.612L1073.47 355.632C1075.14 354.474 1076.96 353.56 1078.9 352.952L1078.97 352.931Z" fill="#5A789F"/>
<path d="M1111.9 367.915C1091.55 391.544 1071.77 415.732 1052.21 440.005C1046.66 446.932 1040.67 454.633 1035.09 461.547C1023.61 475.692 1011.74 490.079 999.71 503.759L999.47 503.577C999.993 502.821 1000.52 502.07 1001.05 501.32C1003.69 497.58 1006.4 493.831 1009.11 490.152C1016.7 479.854 1024.6 469.586 1032.63 459.609C1040.64 449.721 1049.16 439.762 1057.32 429.989C1067.9 417.394 1078.76 404.708 1089.61 392.346C1094.37 386.905 1099.41 381.231 1104.24 375.863C1106.71 373.138 1109.17 370.413 1111.67 367.715L1111.9 367.915Z" fill="#5AA5D1"/>
<path d="M1101.8 500.578C1084.08 503.565 1065.77 503.319 1048.14 499.864C1046.29 499.497 1044.37 499.065 1042.56 498.592C1034.74 496.498 1027.2 493.151 1020.54 488.569C1019.64 487.947 1018.54 487.142 1017.69 486.455C1016.77 485.729 1015.85 484.948 1014.99 484.161L1015.16 483.921C1016.82 484.83 1018.45 485.744 1020.11 486.589C1021.71 487.409 1023.5 488.278 1025.14 489.016C1029.77 491.124 1034.57 492.886 1039.42 494.417C1044.28 495.958 1049.2 497.37 1054.21 498.394C1067.98 501.089 1082.14 501.733 1096.14 500.803C1098.01 500.676 1099.89 500.518 1101.75 500.284L1101.8 500.578Z" fill="#5AA5D1"/>
<mask id="mask1_1949_925" style="mask-type:luminance" maskUnits="userSpaceOnUse" x="909" y="296" width="153" height="259">
<path d="M909.458 296.823H1061.42V554.366H909.458V296.823Z" fill="white"/>
</mask>
<g mask="url(#mask1_1949_925)">
<path d="M1049.21 554.331H921.605C915.168 554.331 909.945 549.178 909.945 542.82V308.751C909.945 302.393 915.168 297.237 921.605 297.237H1049.21C1055.65 297.237 1060.87 302.393 1060.87 308.751V542.82C1060.87 549.178 1055.65 554.331 1049.21 554.331Z" fill="#303C72"/>
</g>
<path d="M1044.8 547.598H926.018C920.673 547.598 916.339 543.317 916.339 538.041V313.532C916.339 308.255 920.673 303.978 926.018 303.978H1044.8C1050.14 303.978 1054.48 308.255 1054.48 313.532V538.041C1054.48 543.317 1050.14 547.598 1044.8 547.598Z" fill="#D4EBFF"/>
<path d="M943.272 429.465C944.185 424.558 948.098 420.5 953.363 419.594C960.127 418.431 966.564 422.9 967.742 429.577C967.985 430.965 967.985 432.338 967.767 433.654C967.718 433.964 967.653 434.271 967.579 434.574C966.368 440.441 959.539 473.022 953.124 493.006C952.45 496.457 949.688 499.3 945.976 499.938C941.177 500.765 936.61 497.593 935.773 492.854C935.444 491.001 940.787 439.836 943.272 429.465Z" fill="#DE9681"/>
<path d="M954.92 431.291C954.92 431.291 960.18 426.507 967.765 429.712C967.986 431.055 967.977 432.382 967.768 433.655C967.718 433.965 967.654 434.272 967.58 434.575C966.534 439.637 961.309 464.59 955.772 484.176C955.271 481.77 953.733 479.367 952.97 478.768C951.774 477.829 948.658 475.041 947.13 470.14C946.035 466.638 948.12 453.523 950.51 446.627C952.9 439.728 954.92 431.291 954.92 431.291Z" fill="#EA9A88"/>
<path d="M958.815 419.069C958.815 419.069 954.103 418.106 947.703 420.898C945.786 421.733 943.953 425.005 942.708 427.541C937.949 437.248 934.326 466.734 934.326 466.734C934.326 466.734 946.728 478.153 959.722 481.817C959.722 481.817 969.399 440.167 969.205 431.442C969.011 422.72 962.567 419.965 958.815 419.069Z" fill="#FCF5F1"/>
<path d="M965.77 453.856L950.099 429.289C950.099 429.289 953.415 439.308 951.726 446.021C950.038 452.738 946.021 461.925 945.393 467.405C945.123 469.778 945.249 472.64 945.479 475.122C949.669 477.774 954.651 480.386 959.723 481.817C959.723 481.817 963.057 467.472 965.77 453.856Z" fill="#F0E2DA"/>
<path d="M948.231 481.61C943.464 479.842 938.143 482.224 936.353 486.933C935.999 487.859 935.811 488.804 935.771 489.74C935.768 489.74 932.339 535.318 931.416 547.597H942.24C943.359 542.317 945.466 532.745 947.724 524.436C951.577 510.252 952.9 497.502 953.509 491.629C953.681 490.855 953.749 490.077 953.715 489.311C953.558 485.769 951.802 482.935 948.231 481.61Z" fill="#DE9681"/>
<path d="M970.57 529.686C960.399 530.774 952.494 538.229 950.474 547.598H995.635C993.211 536.29 982.455 528.416 970.57 529.686Z" fill="#F6AF9A"/>
<path d="M949.141 547.598H996.593C993.136 527.15 977.52 527.132 975.555 527.159C975.555 527.159 953.859 525.795 949.141 547.598Z" fill="#8C4949"/>
<path d="M991.073 493.349C967.131 493.283 962.167 504.307 962.167 504.307C961.767 507.351 961.702 510.735 960.281 513.615C953.712 526.915 951.147 542.087 950.384 547.598H1030.9C1030.42 539.41 1027.39 531.661 1023.35 521.775C1020.81 515.557 1014.7 507.385 1014.61 500.972C1014.61 500.972 1012.16 493.407 991.073 493.349Z" fill="#F6AF9A"/>
<path d="M961.886 506.756C961.886 506.756 960.336 509.041 956.34 519.716C953.431 527.484 950.598 540.878 949.272 547.598H1031.92C1030.89 538.375 1028.11 528.258 1024.95 522.547C1021.19 515.718 1015.81 504.49 1015.81 504.49C1005.16 507.166 961.886 506.756 961.886 506.756Z" fill="#8C4949"/>
<path d="M1024.96 522.547C1021.19 515.718 1015.81 504.49 1015.81 504.49C1008.62 506.297 986.531 506.698 972.958 506.765C966.797 510.848 965.022 515.52 965.022 515.52C965.022 515.52 981.561 521.074 1002.45 521.423C1013.36 521.423 1017.66 521.423 1019.09 522.195C1020.09 522.736 1021.67 538.332 1022.53 547.598H1031.93C1030.89 538.375 1028.11 528.258 1024.96 522.547Z" fill="#824444"/>
<path d="M985.271 547.598H1030.3C1028.13 538.186 1020.02 530.819 1009.76 529.947C998.13 528.96 987.777 536.667 985.271 547.598Z" fill="#F6AF9A"/>
<path d="M983.267 547.598H1031.57C1029.5 536.725 1023.8 526.672 1007.57 527.174C1007.57 527.174 987.339 527.162 983.267 547.598Z" fill="#8C4949"/>
<path d="M1020.65 529.892C1021.35 535.287 1022.05 542.429 1022.53 547.599H1031.58C1030.2 540.387 1027.23 533.54 1020.65 529.892Z" fill="#824444"/>
<path d="M960.534 485.752C960.534 485.752 954.343 482.146 953.245 476.331C952.147 470.517 955.296 451.183 956.096 442.139C956.899 433.096 949.563 425.294 948.579 420.804C948.579 420.804 958.941 415.992 981.662 413.79C981.662 413.79 994.469 414.154 1006.77 416.366C1016.82 418.167 1022.05 423.596 1024.01 426.704C1025.97 429.812 1024.69 437.388 1021.96 446.642C1019.23 455.895 1016.22 463.912 1015.92 473.713C1015.77 478.446 1015.56 495.34 1015.85 506.401C1015.85 506.401 1017.05 513.351 992.728 514.837C970.275 516.21 961.94 506.507 961.94 506.507C961.094 497.408 960.534 485.752 960.534 485.752Z" fill="#DE9681"/>
<path d="M1019.47 454.844C1017.64 460.947 1016.13 466.898 1015.92 473.712C1015.82 477.011 1015.68 486.216 1015.71 495.239C1010.37 481.015 1003.23 438.551 1003.23 438.551L1019.47 454.844Z" fill="#E57E73"/>
<path d="M970.344 417.128L971.679 393.687C971.836 389.042 975.053 384.859 979.842 383.635C985.67 382.143 991.619 385.6 993.129 391.357C993.335 392.138 993.446 392.925 993.474 393.7L995.559 418.866C995.577 419.042 995.623 419.841 995.623 419.841C995.983 425.762 992.053 430.881 986.015 432.424C979.159 434.177 972.389 430.434 970.615 423.663C970.061 421.554 970.196 419.373 970.344 417.128Z" fill="#DE9681"/>
<path d="M971.68 393.687C971.837 389.042 975.054 384.859 979.843 383.635C985.671 382.143 991.62 385.6 993.13 391.357C993.336 392.138 993.447 392.925 993.474 393.7L993.582 395.009C988.716 405.818 979.858 413.862 970.422 415.81L971.68 393.687Z" fill="#D38475"/>
<path d="M962.462 416.699C962.462 416.699 964.043 423.756 975.331 425.576C986.619 427.396 1009.52 416.775 1009.52 416.775C1009.52 416.775 1014.43 416.708 1017.81 418.789C1017.81 418.789 1024.22 422.745 1025.3 427.599C1026.37 432.457 1024.94 441.054 1024.07 444.192C1023.2 447.328 1017.81 475.094 1017.81 482.051C1017.81 486.909 1020.66 500.728 1022.38 508.627C1023.07 511.798 1020.92 514.882 1017.67 515.371C1006.91 516.99 983.251 519.585 960.149 515.669C956.366 515.028 953.696 511.653 953.946 507.873C954.524 499.142 955.48 484.609 955.459 484.001C955.459 484.001 950.685 481.118 949.658 472.922C948.631 464.729 954.93 444.393 954.253 440.902C953.576 437.412 947.585 424.218 947.705 420.898C947.705 420.898 954.207 417.823 962.462 416.699Z" fill="#FCF5F1"/>
<path d="M990.622 517.68C1002.03 517.434 1011.79 516.255 1017.68 515.371C1020.92 514.882 1023.07 511.795 1022.38 508.627C1020.66 500.728 1017.81 486.908 1017.81 482.051C1017.81 475.094 1023.19 447.327 1024.06 444.192C1024.26 443.475 1024.49 442.476 1024.71 441.303C1015.07 435.905 1006.05 434.69 1001.68 440.446C1001.68 440.446 1003.92 466.509 1003.88 471.518C1003.85 476.525 992.815 484.226 976.219 482.534C976.219 482.534 991.588 488.099 1005.62 481.015L1007.3 485.821H1013.61C1013.61 485.821 1014.43 495.989 1015.66 502.97C1016.89 509.915 1004.02 514.821 990.622 517.68Z" fill="#F0E2DA"/>
<path d="M1001.77 434.702C1001.63 433.502 1001.65 432.265 1001.86 431.014C1003.05 423.884 1009.87 419.057 1017.09 420.229C1023.08 421.204 1027.47 426.01 1028.11 431.691L1043 493.805C1043.32 495.02 1043.39 496.317 1043.17 497.636C1042.32 502.697 1037.48 506.124 1032.36 505.291C1028.04 504.586 1024.9 501.084 1024.52 496.97C1024.52 496.97 1005.72 453.182 1002.12 436.47C1001.96 435.893 1001.85 435.3 1001.77 434.702Z" fill="#DE9681"/>
<path d="M1012.58 418.789C1012.58 418.789 999.064 420.59 1001.06 437.271C1003.06 453.953 1009.82 484.001 1009.82 484.001C1009.82 484.001 1033.95 484.153 1042.1 472.466C1042.1 472.466 1030.88 433.653 1027.8 426.942C1024.73 420.229 1017.36 417.002 1012.58 418.789Z" fill="#FCF5F1"/>
<path d="M1031.72 487.8C1027.94 488.681 1025.23 491.704 1024.61 495.264C1024.47 496.036 1024.44 496.832 1024.51 497.637C1024.35 503.652 1024.56 516.335 1026.58 531.173C1027.32 536.626 1027.94 542.571 1028.41 547.599H1040.51C1041.5 529.505 1043.25 497.628 1043.25 497.628C1043.33 496.674 1043.27 495.693 1043.03 494.714C1041.84 489.72 1036.78 486.624 1031.72 487.8Z" fill="#DE9681"/>
<path d="M982.23 344.84C982.23 344.84 1003.56 345.624 1003.09 370.535C1002.64 394.464 982.285 414.041 964.849 409.016C959.306 407.069 955.655 394.607 955.461 375.875C955.265 357.143 963.409 344.184 982.23 344.84Z" fill="#DE9681"/>
<path d="M1010.54 403.502C1007.94 395.002 1010.05 378.792 1008.99 371.48C1008.97 371.288 1008.92 371.112 1008.87 370.948C1008.21 361.181 1004.96 353.331 997.42 347.407C989.313 341.031 976.099 343.996 976.099 343.996C970.095 343.552 957.633 348.741 954.179 356.895C950.725 365.048 951.776 376.763 953.13 379.876C954.48 382.99 952.678 385.955 951.927 388.03C951.177 390.105 952.678 392.18 954.028 394.85C955.381 397.518 953.13 400.632 953.13 400.632C955.381 399.447 956.43 396.184 955.532 393.368C954.631 390.549 954.179 389.513 954.766 387.374C955.35 385.232 955.83 383.877 956.132 380.618C956.43 377.355 955.68 370.833 957.482 366.385C959.284 361.935 966.34 356.895 966.34 356.895C968.444 363.271 971.446 368.311 975.349 369.645C979.255 370.978 981.657 372.907 982.408 374.834C983.158 376.763 981.955 380.32 982.408 384.619C982.857 388.92 984.659 389.066 986.009 390.995C987.363 392.921 983.607 396.333 982.706 397.815C981.805 399.298 982.408 401.816 983.456 403.745C984.508 405.672 983.758 407.895 983.758 407.895C985.56 407.154 985.259 403.597 984.659 400.632C984.059 397.667 986.311 396.925 987.661 394.702C989.014 392.478 987.212 389.364 986.91 387.733C986.609 386.101 989.045 380.551 989.946 380.994C990.466 381.253 991.084 384.312 991.567 387.942C991.327 389.449 991.29 390.965 991.518 392.46C991.518 392.46 991.905 393.359 992.25 394.796C992.275 395.206 992.299 395.607 992.318 395.99C992.358 396.84 992.533 397.828 992.76 398.788C992.788 400.692 992.493 402.822 991.518 404.888C988.719 410.818 985.21 408.834 985.988 417.665C986.766 426.5 984.502 433.605 981.805 438.123C979.107 442.643 979.058 455.831 984.588 463.274C984.588 463.274 985.505 457.435 989.614 455.673C993.723 453.911 1000.14 445.259 999.718 439.766C999.29 434.274 1003.02 418.479 1012.52 416.866C1012.52 416.866 1013.14 412.003 1010.54 403.502Z" fill="#8C4949"/>
<path d="M966.34 356.895C966.706 351.284 970.489 345.609 976.099 343.996C971.153 346.757 967.985 351.624 966.34 356.895Z" fill="#7A3D3D"/>
<path d="M970.098 355.709C977.196 358.459 975.951 361.885 979.983 366.761C981.345 368.62 983.572 369.079 985.528 370.018C988.019 371.546 989.702 374.45 989.616 377.354C989.336 374.918 987.909 372.579 985.928 371.142C983.584 369.659 981.201 369.829 979.303 367.344C975.222 362.396 976.852 359.334 970.098 355.709Z" fill="#7A3D3D"/>
<path d="M974.6 352.746C978.506 353.405 982.369 355.328 984.491 358.745C988.32 363.63 994.573 368.433 993.819 375.28C993.662 368.542 987.536 364.277 983.808 359.247C981.852 355.872 978.257 353.912 974.6 352.746Z" fill="#7A3D3D"/>
<path d="M974.6 348.15C981.212 347.363 988.459 348.87 993.149 353.818C995.453 356.054 997.443 358.691 998.603 361.69C999.116 363.078 999.482 364.564 999.482 366.049C999.455 366.891 999.476 367.92 999.568 368.759C999.999 373.404 1001.11 378.234 999.824 382.843C1000.92 377.189 998.633 371.52 998.667 365.87C998.24 360.374 994.352 355.766 990.224 352.345C985.848 348.976 980.028 348.037 974.6 348.15Z" fill="#7A3D3D"/>
<path d="M1005.53 373.984C1006.78 379.188 1007.15 384.802 1005.52 389.966C1004.82 392.543 1003.45 394.936 1002.76 397.488C1002.18 400.137 1003.81 402.68 1003.53 405.363C1003.48 409.035 1001.91 412.854 998.758 414.987C998.044 415.467 997.355 416.035 996.774 416.664C993.797 419.929 992.563 424.423 992.207 428.73C992.108 430.523 992.154 432.342 991.764 434.104C990.733 441.25 983.841 446.63 984.588 454.085C983.438 446.688 990.164 441.049 991.075 433.98C991.422 432.233 991.336 430.447 991.422 428.679C991.745 423.964 993.132 418.991 996.611 415.57C997.091 415.099 997.684 414.64 998.241 414.258C1001.93 411.773 1003.17 406.942 1002.52 402.744C1002.2 400.955 1001.5 399.15 1002.03 397.324C1002.78 394.703 1004.17 392.391 1004.96 389.79C1006.7 384.723 1006.49 379.194 1005.53 373.984Z" fill="#7A3D3D"/>
<path d="M996.151 393.58C998.9 402.395 995.49 403.656 992.159 410.768C991.488 412.268 991.553 413.769 991.417 415.391C990.664 418.405 989.431 419.161 989.615 422.819C989.049 419.939 989.834 418.362 990.658 415.756C990.864 414.331 990.575 412.824 991.039 411.418C991.098 411.144 991.251 410.731 991.341 410.464C994.668 402.951 997.799 403.158 996.151 393.58Z" fill="#7A3D3D"/>
<path d="M1006.42 397.804C1006.25 400.447 1005.94 403.132 1006.4 405.726C1006.55 406.638 1007.13 407.27 1007.45 408.096C1008.16 409.83 1008.39 411.744 1008.06 413.579C1007.66 415.323 1006.79 416.96 1006.81 418.789C1006.42 416.994 1007.09 415.235 1007.36 413.479C1007.7 406.252 1003.51 408.081 1006.42 397.804Z" fill="#7A3D3D"/>
<path d="M1000.26 420.703C998.322 423.237 996.409 426.238 996.544 429.507C997.067 434.392 997.282 440.492 994.628 444.817C996.461 440.133 996.089 434.893 995.714 429.978C995.421 426.36 997.697 423.064 1000.26 420.703Z" fill="#7A3D3D"/>
<path d="M994.851 376.675C994.851 376.675 998.305 376.946 998.379 382.317C998.446 387.478 995.306 393.423 991.514 392.46C990.305 392.077 989.256 387.563 989.084 383.526C988.912 379.491 990.791 376.663 994.851 376.675Z" fill="#DE9681"/>
<path d="M992.131 388.612C990.603 381.631 994.226 379.651 994.38 379.569C994.567 379.468 994.798 379.541 994.899 379.724C994.998 379.909 994.927 380.137 994.742 380.237C994.638 380.295 992.713 381.379 992.537 384.885C993.605 383.648 995.305 383.43 995.398 383.418C995.607 383.393 995.797 383.542 995.825 383.749C995.85 383.958 995.699 384.147 995.49 384.171C995.391 384.183 993.106 384.487 992.568 386.416C992.62 387.036 992.719 387.71 992.882 388.451C992.922 388.637 992.817 388.822 992.639 388.886C992.623 388.892 992.605 388.898 992.586 388.901C992.38 388.946 992.174 388.816 992.131 388.612Z" fill="#BA6D5B"/>
<path d="M1044.8 303.978H926.018C920.673 303.978 916.339 308.255 916.339 313.532V325.276H1054.48V313.532C1054.48 308.255 1050.14 303.978 1044.8 303.978Z" fill="#8CCBFF"/>
<path d="M1045.31 314.155H1032.02C1031.21 314.155 1030.55 313.505 1030.55 312.7V312.469C1030.55 311.667 1031.21 311.017 1032.02 311.017H1045.31C1046.12 311.017 1046.78 311.667 1046.78 312.469V312.7C1046.78 313.505 1046.12 314.155 1045.31 314.155Z" fill="white"/>
<path d="M1045.31 320.951H1036.9C1036.08 320.951 1035.42 320.298 1035.42 319.496V319.265C1035.42 318.46 1036.08 317.81 1036.9 317.81H1045.31C1046.13 317.81 1046.79 318.463 1046.79 319.265V319.496C1046.79 320.298 1046.13 320.951 1045.31 320.951Z" fill="white"/>
<path d="M1044.8 548.342H926.021C920.266 548.342 915.585 543.722 915.585 538.041V313.532C915.585 307.851 920.266 303.23 926.021 303.23H1044.8C1050.55 303.23 1055.24 307.851 1055.24 313.532V538.041C1055.24 543.722 1050.55 548.342 1044.8 548.342ZM926.021 304.722C921.1 304.722 917.098 308.674 917.098 313.532V538.041C917.098 542.899 921.1 546.851 926.021 546.851H1044.8C1049.72 546.851 1053.72 542.899 1053.72 538.041V313.532C1053.72 308.674 1049.72 304.722 1044.8 304.722H926.021Z" fill="white"/>
<path d="M1012.19 308.75H958.628C955.346 308.75 952.683 306.119 952.683 302.877V301.65H1018.13V302.877C1018.13 306.119 1015.47 308.75 1012.19 308.75Z" fill="#303C72"/>
<path d="M927.213 337.875H807.668C803.827 337.875 800.711 340.952 800.711 344.746V378.99C800.711 382.787 803.827 385.862 807.668 385.862H915.036L934.17 408.534V344.746C934.17 340.952 931.054 337.875 927.213 337.875Z" fill="white"/>
<path d="M879.186 353.456H920.444C921.616 353.456 922.566 352.517 922.566 351.36V349.652C922.566 348.495 921.616 347.556 920.444 347.556H879.186C878.011 347.556 877.061 348.495 877.061 349.652V351.36C877.061 352.517 878.011 353.456 879.186 353.456Z" fill="#D4E7FF"/>
<path d="M812.996 353.456H866.206C867.381 353.456 868.332 352.517 868.332 351.36V349.652C868.332 348.495 867.381 347.556 866.206 347.556H812.996C811.824 347.556 810.874 348.495 810.874 349.652V351.36C810.874 352.517 811.824 353.456 812.996 353.456Z" fill="#D4E7FF"/>
<path d="M895.293 364.988H920.446C921.618 364.988 922.568 364.05 922.568 362.892V361.188C922.568 360.028 921.618 359.089 920.446 359.089H895.293C894.121 359.089 893.168 360.028 893.168 361.188V362.892C893.168 364.05 894.121 364.988 895.293 364.988Z" fill="#D4E7FF"/>
<path d="M871.115 364.988H882.978C884.153 364.988 885.103 364.05 885.103 362.892V361.188C885.103 360.028 884.153 359.089 882.978 359.089H871.115C869.944 359.089 868.993 360.028 868.993 361.188V362.892C868.993 364.05 869.944 364.988 871.115 364.988Z" fill="#D4E7FF"/>
<path d="M812.996 364.989H859.283C860.458 364.989 861.408 364.05 861.408 362.892V361.188C861.408 360.028 860.458 359.089 859.283 359.089H812.996C811.824 359.089 810.874 360.028 810.874 361.188V362.892C810.874 364.05 811.824 364.989 812.996 364.989Z" fill="#D4E7FF"/>
<path d="M906.209 376.523H920.446C921.618 376.523 922.568 375.584 922.568 374.423V372.719C922.568 371.559 921.618 370.62 920.446 370.62H906.209C905.037 370.62 904.087 371.559 904.087 372.719V374.423C904.087 375.584 905.037 376.523 906.209 376.523Z" fill="#D4E7FF"/>
<path d="M812.996 376.523H894.974C896.145 376.523 897.096 375.584 897.096 374.424V372.719C897.096 371.559 896.145 370.62 894.974 370.62H812.996C811.824 370.62 810.874 371.559 810.874 372.719V374.424C810.874 375.584 811.824 376.523 812.996 376.523Z" fill="#D4E7FF"/>
<path d="M894.581 386.857H807.67C803.278 386.857 799.704 383.327 799.704 378.989V344.745C799.704 340.407 803.278 336.88 807.67 336.88H905.186C905.743 336.88 906.192 337.323 906.192 337.873C906.192 338.423 905.743 338.87 905.186 338.87H807.67C804.392 338.87 801.722 341.504 801.722 344.745V378.989C801.722 382.23 804.392 384.867 807.67 384.867H894.581C895.138 384.867 895.59 385.31 895.59 385.86C895.59 386.41 895.138 386.857 894.581 386.857Z" fill="#8CCBFF"/>
<path d="M894.36 279.875H774.819C770.977 279.875 767.861 282.953 767.861 286.747V350.535L786.995 327.863H894.36C898.204 327.863 901.32 324.785 901.32 320.991V286.747C901.32 282.953 898.204 279.875 894.36 279.875Z" fill="white"/>
<path d="M847.578 295.554H781.871C780.696 295.554 779.746 294.615 779.746 293.458V291.75C779.746 290.593 780.696 289.654 781.871 289.654H847.578C848.75 289.654 849.7 290.593 849.7 291.75V293.458C849.7 294.615 848.75 295.554 847.578 295.554Z" fill="#D4E7FF"/>
<path d="M889.319 295.554H860.558C859.386 295.554 858.436 294.615 858.436 293.458V291.75C858.436 290.593 859.386 289.654 860.558 289.654H889.319C890.494 289.654 891.444 290.593 891.444 291.75V293.458C891.444 294.615 890.494 295.554 889.319 295.554Z" fill="#D4E7FF"/>
<path d="M806.209 307.085H781.871C780.7 307.085 779.746 306.146 779.746 304.988V303.281C779.746 302.124 780.7 301.185 781.871 301.185H806.209C807.381 301.185 808.331 302.124 808.331 303.281V304.988C808.331 306.146 807.381 307.085 806.209 307.085Z" fill="#D4E7FF"/>
<path d="M869.678 307.085H819.334C818.162 307.085 817.212 306.146 817.212 304.989V303.281C817.212 302.124 818.162 301.185 819.334 301.185H869.678C870.85 301.185 871.8 302.124 871.8 303.281V304.989C871.8 306.146 870.85 307.085 869.678 307.085Z" fill="#D4E7FF"/>
<path d="M889.317 307.085H881.511C880.336 307.085 879.386 306.146 879.386 304.988V303.281C879.386 302.124 880.336 301.185 881.511 301.185H889.317C890.492 301.185 891.442 302.124 891.442 303.281V304.988C891.442 306.146 890.492 307.085 889.317 307.085Z" fill="#D4E7FF"/>
<path d="M834.334 318.62H781.871C780.7 318.62 779.746 317.678 779.746 316.521V314.816C779.746 313.656 780.7 312.717 781.871 312.717H834.334C835.506 312.717 836.456 313.656 836.456 314.816V316.521C836.456 317.678 835.506 318.62 834.334 318.62Z" fill="#D4E7FF"/>
<path d="M889.318 318.62H845.572C844.397 318.62 843.446 317.678 843.446 316.521V314.816C843.446 313.656 844.397 312.717 845.572 312.717H889.318C890.493 312.717 891.443 313.656 891.443 314.816V316.521C891.443 317.678 890.493 318.62 889.318 318.62Z" fill="#D4E7FF"/>
<path d="M894.36 328.854H800.713C800.156 328.854 799.704 328.411 799.704 327.861C799.704 327.311 800.156 326.865 800.713 326.865H894.36C897.642 326.865 900.311 324.231 900.311 320.989V286.746C900.311 283.504 897.642 280.867 894.36 280.867H774.819C771.54 280.867 768.87 283.504 768.87 286.746V292.603C768.87 293.153 768.418 293.599 767.861 293.599C767.305 293.599 766.853 293.153 766.853 292.603V286.746C766.853 282.408 770.427 278.877 774.819 278.877H894.36C898.755 278.877 902.329 282.408 902.329 286.746V320.989C902.329 325.327 898.755 328.854 894.36 328.854Z" fill="#8CCBFF"/>
</svg>
