<svg width="1698" height="810" viewBox="0 0 1698 810" fill="none" xmlns="http://www.w3.org/2000/svg">
<rect x="0.0585938" width="1697.83" height="810" fill="white"/>
<path d="M661.895 603.53H657.676L665.358 581.712H670.237L677.929 603.53H673.71L667.882 586.187H667.712L661.895 603.53ZM662.034 594.976H673.539V598.15H662.034V594.976ZM687.25 610.008C685.865 610.008 684.676 609.819 683.681 609.443C682.687 609.074 681.888 608.576 681.284 607.951C680.681 607.326 680.262 606.634 680.027 605.874L683.5 605.032C683.657 605.352 683.884 605.668 684.182 605.981C684.48 606.3 684.882 606.563 685.386 606.769C685.897 606.982 686.54 607.089 687.314 607.089C688.408 607.089 689.314 606.822 690.031 606.29C690.748 605.764 691.107 604.897 691.107 603.69V600.59H690.915C690.716 600.988 690.425 601.396 690.042 601.815C689.665 602.234 689.164 602.586 688.539 602.87C687.922 603.154 687.144 603.296 686.206 603.296C684.949 603.296 683.809 603.001 682.787 602.412C681.771 601.815 680.961 600.927 680.358 599.748C679.761 598.562 679.463 597.078 679.463 595.295C679.463 593.498 679.761 591.982 680.358 590.746C680.961 589.503 681.775 588.562 682.797 587.923C683.82 587.277 684.96 586.954 686.217 586.954C687.176 586.954 687.964 587.117 688.582 587.444C689.207 587.763 689.704 588.15 690.074 588.605C690.443 589.052 690.723 589.475 690.915 589.873H691.128V587.167H694.931V603.797C694.931 605.196 694.598 606.353 693.93 607.27C693.262 608.186 692.35 608.871 691.192 609.326C690.034 609.78 688.721 610.008 687.25 610.008ZM687.282 600.27C688.099 600.27 688.795 600.071 689.37 599.674C689.946 599.276 690.382 598.704 690.681 597.959C690.979 597.213 691.128 596.318 691.128 595.274C691.128 594.244 690.979 593.342 690.681 592.568C690.39 591.794 689.956 591.194 689.381 590.767C688.813 590.334 688.113 590.118 687.282 590.118C686.423 590.118 685.706 590.341 685.13 590.789C684.555 591.236 684.122 591.851 683.831 592.632C683.539 593.406 683.394 594.287 683.394 595.274C683.394 596.275 683.539 597.152 683.831 597.905C684.129 598.651 684.566 599.233 685.141 599.652C685.723 600.064 686.437 600.27 687.282 600.27ZM709.314 596.648V587.167H713.17V603.53H709.431V600.622H709.26C708.891 601.538 708.284 602.287 707.439 602.87C706.6 603.452 705.567 603.743 704.338 603.743C703.266 603.743 702.318 603.505 701.494 603.03C700.677 602.547 700.038 601.847 699.576 600.931C699.115 600.008 698.884 598.892 698.884 597.586V587.167H702.74V596.989C702.74 598.026 703.025 598.85 703.593 599.461C704.161 600.071 704.907 600.377 705.83 600.377C706.398 600.377 706.949 600.238 707.481 599.961C708.014 599.684 708.451 599.272 708.792 598.726C709.14 598.172 709.314 597.479 709.314 596.648ZM721.845 603.861C720.808 603.861 719.874 603.676 719.043 603.307C718.219 602.93 717.566 602.376 717.083 601.645C716.607 600.913 716.369 600.011 716.369 598.939C716.369 598.015 716.539 597.252 716.88 596.648C717.221 596.044 717.686 595.562 718.276 595.199C718.865 594.837 719.529 594.564 720.268 594.379C721.014 594.187 721.784 594.049 722.58 593.964C723.539 593.864 724.316 593.775 724.913 593.697C725.509 593.612 725.943 593.484 726.213 593.314C726.49 593.136 726.628 592.863 726.628 592.493V592.429C726.628 591.627 726.39 591.005 725.914 590.565C725.438 590.125 724.753 589.905 723.858 589.905C722.914 589.905 722.164 590.111 721.61 590.522C721.063 590.934 720.694 591.421 720.502 591.982L716.901 591.471C717.186 590.476 717.654 589.645 718.308 588.978C718.961 588.303 719.76 587.799 720.705 587.465C721.649 587.124 722.693 586.954 723.837 586.954C724.625 586.954 725.41 587.046 726.191 587.231C726.972 587.415 727.686 587.721 728.333 588.147C728.979 588.566 729.497 589.138 729.888 589.862C730.286 590.586 730.485 591.492 730.485 592.579V603.53H726.777V601.282H726.649C726.415 601.737 726.085 602.163 725.659 602.561C725.24 602.951 724.71 603.267 724.071 603.509C723.439 603.743 722.697 603.861 721.845 603.861ZM722.846 601.027C723.62 601.027 724.291 600.874 724.86 600.569C725.428 600.256 725.865 599.844 726.17 599.333C726.482 598.821 726.639 598.264 726.639 597.66V595.732C726.518 595.831 726.312 595.924 726.021 596.009C725.737 596.094 725.417 596.169 725.062 596.233C724.707 596.297 724.355 596.353 724.007 596.403C723.659 596.453 723.357 596.495 723.102 596.531C722.526 596.609 722.012 596.737 721.557 596.915C721.102 597.092 720.744 597.341 720.481 597.66C720.218 597.973 720.087 598.378 720.087 598.875C720.087 599.585 720.346 600.121 720.865 600.483C721.383 600.846 722.044 601.027 722.846 601.027ZM734.362 603.53V587.167H738.102V589.894H738.272C738.57 588.949 739.082 588.221 739.806 587.71C740.538 587.191 741.372 586.932 742.31 586.932C742.523 586.932 742.761 586.943 743.024 586.964C743.294 586.978 743.517 587.003 743.695 587.039V590.586C743.531 590.53 743.272 590.48 742.917 590.437C742.569 590.388 742.232 590.363 741.905 590.363C741.202 590.363 740.57 590.515 740.009 590.821C739.455 591.119 739.018 591.535 738.698 592.067C738.379 592.6 738.219 593.214 738.219 593.91V603.53H734.362ZM751.656 603.818C750.37 603.818 749.219 603.488 748.204 602.827C747.188 602.167 746.386 601.208 745.796 599.951C745.207 598.694 744.912 597.167 744.912 595.37C744.912 593.552 745.21 592.017 745.807 590.767C746.411 589.51 747.224 588.562 748.246 587.923C749.269 587.277 750.409 586.954 751.666 586.954C752.625 586.954 753.413 587.117 754.031 587.444C754.649 587.763 755.139 588.15 755.501 588.605C755.864 589.052 756.144 589.475 756.343 589.873H756.503V581.712H760.37V603.53H756.577V600.952H756.343C756.144 601.35 755.857 601.772 755.48 602.22C755.104 602.66 754.607 603.037 753.989 603.349C753.371 603.662 752.593 603.818 751.656 603.818ZM752.732 600.654C753.548 600.654 754.244 600.434 754.82 599.993C755.395 599.546 755.832 598.924 756.13 598.129C756.428 597.334 756.577 596.407 756.577 595.348C756.577 594.29 756.428 593.37 756.13 592.589C755.839 591.808 755.406 591.201 754.83 590.767C754.262 590.334 753.563 590.118 752.732 590.118C751.872 590.118 751.155 590.341 750.58 590.789C750.004 591.236 749.571 591.854 749.28 592.642C748.989 593.431 748.843 594.333 748.843 595.348C748.843 596.371 748.989 597.284 749.28 598.086C749.578 598.882 750.015 599.51 750.59 599.972C751.173 600.427 751.886 600.654 752.732 600.654ZM769.188 603.861C768.151 603.861 767.218 603.676 766.387 603.307C765.563 602.93 764.909 602.376 764.426 601.645C763.95 600.913 763.713 600.011 763.713 598.939C763.713 598.015 763.883 597.252 764.224 596.648C764.565 596.044 765.03 595.562 765.619 595.199C766.209 594.837 766.873 594.564 767.612 594.379C768.357 594.187 769.128 594.049 769.923 593.964C770.882 593.864 771.66 593.775 772.257 593.697C772.853 593.612 773.286 593.484 773.556 593.314C773.833 593.136 773.972 592.863 773.972 592.493V592.429C773.972 591.627 773.734 591.005 773.258 590.565C772.782 590.125 772.097 589.905 771.202 589.905C770.257 589.905 769.508 590.111 768.954 590.522C768.407 590.934 768.038 591.421 767.846 591.982L764.245 591.471C764.529 590.476 764.998 589.645 765.651 588.978C766.305 588.303 767.104 587.799 768.048 587.465C768.993 587.124 770.037 586.954 771.181 586.954C771.969 586.954 772.754 587.046 773.535 587.231C774.316 587.415 775.03 587.721 775.676 588.147C776.323 588.566 776.841 589.138 777.232 589.862C777.629 590.586 777.828 591.492 777.828 592.579V603.53H774.121V601.282H773.993C773.759 601.737 773.428 602.163 773.002 602.561C772.583 602.951 772.054 603.267 771.415 603.509C770.783 603.743 770.041 603.861 769.188 603.861ZM770.19 601.027C770.964 601.027 771.635 600.874 772.203 600.569C772.771 600.256 773.208 599.844 773.514 599.333C773.826 598.821 773.982 598.264 773.982 597.66V595.732C773.862 595.831 773.656 595.924 773.365 596.009C773.08 596.094 772.761 596.169 772.406 596.233C772.051 596.297 771.699 596.353 771.351 596.403C771.003 596.453 770.701 596.495 770.445 596.531C769.87 596.609 769.355 596.737 768.901 596.915C768.446 597.092 768.088 597.341 767.825 597.66C767.562 597.973 767.431 598.378 767.431 598.875C767.431 599.585 767.69 600.121 768.208 600.483C768.727 600.846 769.387 601.027 770.19 601.027ZM785.563 593.942V603.53H781.706V587.167H785.392V589.947H785.584C785.96 589.031 786.561 588.303 787.384 587.763C788.215 587.223 789.242 586.954 790.463 586.954C791.593 586.954 792.576 587.195 793.414 587.678C794.259 588.161 794.913 588.861 795.374 589.777C795.843 590.693 796.074 591.804 796.067 593.111V603.53H792.21V593.708C792.21 592.614 791.926 591.758 791.358 591.14C790.797 590.522 790.019 590.214 789.025 590.214C788.35 590.214 787.75 590.363 787.225 590.661C786.706 590.952 786.298 591.375 785.999 591.929C785.708 592.483 785.563 593.154 785.563 593.942ZM806.06 603.818C804.774 603.818 803.624 603.488 802.608 602.827C801.593 602.167 800.79 601.208 800.2 599.951C799.611 598.694 799.316 597.167 799.316 595.37C799.316 593.552 799.615 592.017 800.211 590.767C800.815 589.51 801.628 588.562 802.651 587.923C803.673 587.277 804.813 586.954 806.07 586.954C807.029 586.954 807.818 587.117 808.436 587.444C809.053 587.763 809.544 588.15 809.906 588.605C810.268 589.052 810.548 589.475 810.747 589.873H810.907V581.712H814.774V603.53H810.982V600.952H810.747C810.548 601.35 810.261 601.772 809.884 602.22C809.508 602.66 809.011 603.037 808.393 603.349C807.775 603.662 806.997 603.818 806.06 603.818ZM807.136 600.654C807.953 600.654 808.649 600.434 809.224 599.993C809.799 599.546 810.236 598.924 810.534 598.129C810.833 597.334 810.982 596.407 810.982 595.348C810.982 594.29 810.833 593.37 810.534 592.589C810.243 591.808 809.81 591.201 809.235 590.767C808.666 590.334 807.967 590.118 807.136 590.118C806.276 590.118 805.559 590.341 804.984 590.789C804.409 591.236 803.975 591.854 803.684 592.642C803.393 593.431 803.247 594.333 803.247 595.348C803.247 596.371 803.393 597.284 803.684 598.086C803.982 598.882 804.419 599.51 804.994 599.972C805.577 600.427 806.291 600.654 807.136 600.654ZM826.022 603.85C824.424 603.85 823.039 603.498 821.867 602.795C820.695 602.092 819.786 601.108 819.14 599.844C818.5 598.58 818.181 597.103 818.181 595.412C818.181 593.722 818.5 592.241 819.14 590.97C819.786 589.699 820.695 588.711 821.867 588.008C823.039 587.305 824.424 586.954 826.022 586.954C827.62 586.954 829.005 587.305 830.176 588.008C831.348 588.711 832.254 589.699 832.893 590.97C833.539 592.241 833.863 593.722 833.863 595.412C833.863 597.103 833.539 598.58 832.893 599.844C832.254 601.108 831.348 602.092 830.176 602.795C829.005 603.498 827.62 603.85 826.022 603.85ZM826.043 600.76C826.909 600.76 827.634 600.522 828.216 600.047C828.799 599.564 829.232 598.917 829.516 598.108C829.807 597.298 829.953 596.396 829.953 595.402C829.953 594.4 829.807 593.495 829.516 592.685C829.232 591.868 828.799 591.218 828.216 590.736C827.634 590.253 826.909 590.011 826.043 590.011C825.155 590.011 824.417 590.253 823.827 590.736C823.245 591.218 822.808 591.868 822.517 592.685C822.233 593.495 822.091 594.4 822.091 595.402C822.091 596.396 822.233 597.298 822.517 598.108C822.808 598.917 823.245 599.564 823.827 600.047C824.417 600.522 825.155 600.76 826.043 600.76ZM844.577 603.53V587.167H848.317V589.894H848.487C848.785 588.949 849.297 588.221 850.021 587.71C850.753 587.191 851.587 586.932 852.525 586.932C852.738 586.932 852.976 586.943 853.238 586.964C853.508 586.978 853.732 587.003 853.91 587.039V590.586C853.746 590.53 853.487 590.48 853.132 590.437C852.784 590.388 852.447 590.363 852.12 590.363C851.417 590.363 850.785 590.515 850.224 590.821C849.67 591.119 849.233 591.535 848.913 592.067C848.594 592.6 848.434 593.214 848.434 593.91V603.53H844.577ZM863.042 603.85C861.402 603.85 859.985 603.509 858.792 602.827C857.605 602.138 856.693 601.165 856.054 599.908C855.414 598.644 855.095 597.156 855.095 595.444C855.095 593.761 855.414 592.284 856.054 591.013C856.7 589.734 857.602 588.74 858.76 588.03C859.917 587.312 861.277 586.954 862.84 586.954C863.848 586.954 864.8 587.117 865.695 587.444C866.597 587.763 867.392 588.26 868.081 588.935C868.777 589.61 869.324 590.469 869.722 591.513C870.12 592.55 870.319 593.786 870.319 595.221V596.403H856.906V593.804H866.622C866.615 593.065 866.455 592.408 866.142 591.833C865.83 591.25 865.393 590.792 864.832 590.459C864.278 590.125 863.632 589.958 862.893 589.958C862.105 589.958 861.412 590.15 860.816 590.533C860.219 590.91 859.754 591.407 859.42 592.025C859.093 592.635 858.926 593.307 858.919 594.038V596.307C858.919 597.259 859.093 598.076 859.441 598.758C859.789 599.432 860.276 599.951 860.901 600.313C861.526 600.668 862.257 600.846 863.096 600.846C863.657 600.846 864.164 600.767 864.619 600.611C865.074 600.448 865.468 600.21 865.801 599.897C866.135 599.585 866.387 599.198 866.558 598.736L870.159 599.141C869.931 600.093 869.498 600.924 868.859 601.634C868.227 602.337 867.417 602.884 866.43 603.275C865.443 603.658 864.314 603.85 863.042 603.85ZM886.514 591.492L882.999 591.875C882.899 591.52 882.725 591.187 882.477 590.874C882.235 590.562 881.909 590.309 881.497 590.118C881.085 589.926 880.58 589.83 879.984 589.83C879.181 589.83 878.507 590.004 877.96 590.352C877.42 590.7 877.154 591.151 877.161 591.705C877.154 592.181 877.328 592.568 877.683 592.866C878.045 593.165 878.642 593.41 879.472 593.601L882.264 594.198C883.812 594.532 884.963 595.061 885.715 595.785C886.475 596.51 886.859 597.458 886.866 598.63C886.859 599.66 886.557 600.569 885.96 601.357C885.371 602.138 884.551 602.749 883.499 603.189C882.448 603.63 881.241 603.85 879.877 603.85C877.874 603.85 876.262 603.431 875.041 602.593C873.819 601.748 873.091 600.572 872.857 599.066L876.617 598.704C876.788 599.443 877.15 600 877.704 600.377C878.258 600.753 878.979 600.941 879.867 600.941C880.783 600.941 881.518 600.753 882.072 600.377C882.633 600 882.914 599.535 882.914 598.981C882.914 598.513 882.732 598.125 882.37 597.82C882.015 597.515 881.461 597.28 880.708 597.117L877.917 596.531C876.347 596.204 875.186 595.654 874.433 594.88C873.681 594.098 873.308 593.111 873.315 591.918C873.308 590.91 873.581 590.036 874.135 589.297C874.696 588.552 875.474 587.976 876.468 587.571C877.47 587.16 878.624 586.954 879.931 586.954C881.848 586.954 883.357 587.362 884.458 588.179C885.566 588.995 886.252 590.1 886.514 591.492ZM890.046 609.667V587.167H893.839V589.873H894.062C894.261 589.475 894.542 589.052 894.904 588.605C895.266 588.15 895.756 587.763 896.374 587.444C896.992 587.117 897.78 586.954 898.739 586.954C900.003 586.954 901.143 587.277 902.159 587.923C903.182 588.562 903.991 589.51 904.588 590.767C905.192 592.017 905.493 593.552 905.493 595.37C905.493 597.167 905.199 598.694 904.609 599.951C904.02 601.208 903.217 602.167 902.202 602.827C901.186 603.488 900.035 603.818 898.75 603.818C897.812 603.818 897.035 603.662 896.417 603.349C895.799 603.037 895.302 602.66 894.925 602.22C894.556 601.772 894.268 601.35 894.062 600.952H893.903V609.667H890.046ZM893.828 595.348C893.828 596.407 893.977 597.334 894.275 598.129C894.581 598.924 895.018 599.546 895.586 599.993C896.161 600.434 896.857 600.654 897.674 600.654C898.526 600.654 899.24 600.427 899.815 599.972C900.39 599.51 900.824 598.882 901.115 598.086C901.413 597.284 901.562 596.371 901.562 595.348C901.562 594.333 901.417 593.431 901.126 592.642C900.834 591.854 900.401 591.236 899.826 590.789C899.251 590.341 898.533 590.118 897.674 590.118C896.85 590.118 896.15 590.334 895.575 590.767C895 591.201 894.563 591.808 894.265 592.589C893.974 593.37 893.828 594.29 893.828 595.348ZM915.934 603.85C914.336 603.85 912.951 603.498 911.779 602.795C910.607 602.092 909.698 601.108 909.052 599.844C908.412 598.58 908.093 597.103 908.093 595.412C908.093 593.722 908.412 592.241 909.052 590.97C909.698 589.699 910.607 588.711 911.779 588.008C912.951 587.305 914.336 586.954 915.934 586.954C917.532 586.954 918.917 587.305 920.089 588.008C921.26 588.711 922.166 589.699 922.805 590.97C923.452 592.241 923.775 593.722 923.775 595.412C923.775 597.103 923.452 598.58 922.805 599.844C922.166 601.108 921.26 602.092 920.089 602.795C918.917 603.498 917.532 603.85 915.934 603.85ZM915.955 600.76C916.822 600.76 917.546 600.522 918.128 600.047C918.711 599.564 919.144 598.917 919.428 598.108C919.719 597.298 919.865 596.396 919.865 595.402C919.865 594.4 919.719 593.495 919.428 592.685C919.144 591.868 918.711 591.218 918.128 590.736C917.546 590.253 916.822 590.011 915.955 590.011C915.067 590.011 914.329 590.253 913.739 590.736C913.157 591.218 912.72 591.868 912.429 592.685C912.145 593.495 912.003 594.4 912.003 595.402C912.003 596.396 912.145 597.298 912.429 598.108C912.72 598.917 913.157 599.564 913.739 600.047C914.329 600.522 915.067 600.76 915.955 600.76ZM939.981 591.492L936.466 591.875C936.366 591.52 936.192 591.187 935.944 590.874C935.702 590.562 935.375 590.309 934.963 590.118C934.551 589.926 934.047 589.83 933.451 589.83C932.648 589.83 931.973 590.004 931.426 590.352C930.887 590.7 930.62 591.151 930.627 591.705C930.62 592.181 930.794 592.568 931.15 592.866C931.512 593.165 932.108 593.41 932.939 593.601L935.73 594.198C937.279 594.532 938.429 595.061 939.182 595.785C939.942 596.51 940.326 597.458 940.333 598.63C940.326 599.66 940.024 600.569 939.427 601.357C938.838 602.138 938.017 602.749 936.966 603.189C935.915 603.63 934.708 603.85 933.344 603.85C931.341 603.85 929.729 603.431 928.507 602.593C927.286 601.748 926.558 600.572 926.324 599.066L930.084 598.704C930.255 599.443 930.617 600 931.171 600.377C931.725 600.753 932.446 600.941 933.333 600.941C934.25 600.941 934.985 600.753 935.539 600.377C936.1 600 936.38 599.535 936.38 598.981C936.38 598.513 936.199 598.125 935.837 597.82C935.482 597.515 934.928 597.28 934.175 597.117L931.384 596.531C929.814 596.204 928.653 595.654 927.9 594.88C927.147 594.098 926.775 593.111 926.782 591.918C926.775 590.91 927.048 590.036 927.602 589.297C928.163 588.552 928.941 587.976 929.935 587.571C930.936 587.16 932.091 586.954 933.397 586.954C935.315 586.954 936.824 587.362 937.925 588.179C939.033 588.995 939.718 590.1 939.981 591.492ZM951.684 587.167V590.15H942.277V587.167H951.684ZM944.599 583.246H948.456V598.608C948.456 599.127 948.534 599.525 948.69 599.802C948.854 600.071 949.067 600.256 949.33 600.356C949.592 600.455 949.884 600.505 950.203 600.505C950.445 600.505 950.665 600.487 950.864 600.451C951.07 600.416 951.226 600.384 951.332 600.356L951.982 603.37C951.776 603.441 951.482 603.52 951.098 603.605C950.722 603.69 950.26 603.74 949.713 603.754C948.747 603.782 947.877 603.637 947.103 603.317C946.329 602.991 945.714 602.486 945.26 601.804C944.813 601.123 944.592 600.27 944.599 599.248V583.246ZM959.618 603.861C958.581 603.861 957.647 603.676 956.816 603.307C955.992 602.93 955.339 602.376 954.856 601.645C954.38 600.913 954.142 600.011 954.142 598.939C954.142 598.015 954.313 597.252 954.654 596.648C954.994 596.044 955.46 595.562 956.049 595.199C956.639 594.837 957.303 594.564 958.041 594.379C958.787 594.187 959.558 594.049 960.353 593.964C961.312 593.864 962.09 593.775 962.686 593.697C963.283 593.612 963.716 593.484 963.986 593.314C964.263 593.136 964.401 592.863 964.401 592.493V592.429C964.401 591.627 964.164 591.005 963.688 590.565C963.212 590.125 962.526 589.905 961.632 589.905C960.687 589.905 959.938 590.111 959.384 590.522C958.837 590.934 958.468 591.421 958.276 591.982L954.675 591.471C954.959 590.476 955.428 589.645 956.081 588.978C956.735 588.303 957.534 587.799 958.478 587.465C959.423 587.124 960.467 586.954 961.61 586.954C962.399 586.954 963.183 587.046 963.965 587.231C964.746 587.415 965.46 587.721 966.106 588.147C966.752 588.566 967.271 589.138 967.661 589.862C968.059 590.586 968.258 591.492 968.258 592.579V603.53H964.551V601.282H964.423C964.188 601.737 963.858 602.163 963.432 602.561C963.013 602.951 962.484 603.267 961.845 603.509C961.213 603.743 960.47 603.861 959.618 603.861ZM960.619 601.027C961.394 601.027 962.065 600.874 962.633 600.569C963.201 600.256 963.638 599.844 963.943 599.333C964.256 598.821 964.412 598.264 964.412 597.66V595.732C964.291 595.831 964.085 595.924 963.794 596.009C963.51 596.094 963.191 596.169 962.835 596.233C962.48 596.297 962.129 596.353 961.781 596.403C961.433 596.453 961.131 596.495 960.875 596.531C960.3 596.609 959.785 596.737 959.33 596.915C958.876 597.092 958.517 597.341 958.254 597.66C957.992 597.973 957.86 598.378 957.86 598.875C957.86 599.585 958.119 600.121 958.638 600.483C959.156 600.846 959.817 601.027 960.619 601.027ZM974.512 603.765C973.865 603.765 973.311 603.537 972.85 603.083C972.388 602.628 972.161 602.074 972.168 601.421C972.161 600.782 972.388 600.235 972.85 599.78C973.311 599.326 973.865 599.098 974.512 599.098C975.137 599.098 975.68 599.326 976.142 599.78C976.61 600.235 976.848 600.782 976.855 601.421C976.848 601.854 976.735 602.248 976.514 602.603C976.301 602.959 976.017 603.243 975.662 603.456C975.314 603.662 974.931 603.765 974.512 603.765ZM983.213 603.765C982.566 603.765 982.012 603.537 981.551 603.083C981.089 602.628 980.862 602.074 980.869 601.421C980.862 600.782 981.089 600.235 981.551 599.78C982.012 599.326 982.566 599.098 983.213 599.098C983.838 599.098 984.381 599.326 984.843 599.78C985.311 600.235 985.549 600.782 985.556 601.421C985.549 601.854 985.436 602.248 985.216 602.603C985.002 602.959 984.718 603.243 984.363 603.456C984.015 603.662 983.632 603.765 983.213 603.765ZM991.914 603.765C991.268 603.765 990.714 603.537 990.252 603.083C989.79 602.628 989.563 602.074 989.57 601.421C989.563 600.782 989.79 600.235 990.252 599.78C990.714 599.326 991.268 599.098 991.914 599.098C992.539 599.098 993.082 599.326 993.544 599.78C994.013 600.235 994.251 600.782 994.258 601.421C994.251 601.854 994.137 602.248 993.917 602.603C993.704 602.959 993.42 603.243 993.064 603.456C992.716 603.662 992.333 603.765 991.914 603.765Z" fill="#5A7DA0"/>
<path d="M1050.51 409.673C1047.6 476.916 994.251 529.851 929.485 529.851H658.06C619.644 529.851 593.252 489.567 607.473 452.481C626.43 401.811 688.202 439.306 659.9 396.694C632.466 355.38 616.132 304.965 639.543 280.681C693.737 224.47 757.71 299.021 792.874 288.22C804.089 284.538 848.622 255.431 865.94 250.216C976.296 208.899 1059.98 306.679 1050.51 409.673Z" fill="#E3F0FF"/>
<path d="M625.848 393.296C628.848 387.162 602.312 355.899 590.126 363.868C577.939 371.837 576.673 388.01 594.844 393.88C612.019 399.427 622.851 399.43 625.848 393.296Z" fill="#E3F0FF"/>
<path d="M685.25 262.093L681.53 239.976C681.445 239.484 680.969 239.149 680.462 239.229C679.958 239.312 679.615 239.777 679.697 240.269L683.331 261.873L667.64 274.63C667.246 274.951 667.191 275.523 667.519 275.908C667.704 276.122 667.968 276.234 668.235 276.234C668.445 276.234 668.654 276.166 668.827 276.024L684.925 262.935C685.18 262.73 685.301 262.407 685.25 262.093Z" fill="#C7DEFF"/>
<path d="M709.983 273.327L688.375 265.755C688.065 265.649 687.719 265.708 687.467 265.912L671.37 279.002C670.975 279.322 670.921 279.894 671.248 280.279C671.434 280.493 671.698 280.606 671.962 280.606C672.171 280.606 672.384 280.537 672.557 280.395L688.247 267.638L709.354 275.035C709.837 275.204 710.368 274.958 710.541 274.486C710.714 274.015 710.465 273.496 709.983 273.327Z" fill="#C7DEFF"/>
<path d="M678.295 260.641C678.371 261.086 678.763 261.4 679.209 261.4C679.261 261.4 679.309 261.397 679.361 261.389C679.868 261.308 680.211 260.843 680.126 260.348L677.281 243.429C677.199 242.937 676.719 242.602 676.215 242.682C675.708 242.765 675.365 243.23 675.45 243.722L678.295 260.641Z" fill="#C7DEFF"/>
<path d="M705.731 276.78L689.2 270.987C688.717 270.818 688.189 271.064 688.013 271.535C687.84 272.007 688.092 272.526 688.574 272.695L705.105 278.487C705.208 278.523 705.315 278.541 705.418 278.541C705.797 278.541 706.156 278.31 706.292 277.939C706.465 277.468 706.213 276.949 705.731 276.78Z" fill="#C7DEFF"/>
<path d="M893.292 400.874L870.822 396.291C870.318 396.187 869.827 396.501 869.723 396.993C869.617 397.483 869.939 397.963 870.44 398.064L892.394 402.543L898.924 421.432C899.088 421.906 899.617 422.161 900.102 422.001C900.373 421.909 900.576 421.71 900.67 421.467C900.746 421.277 900.755 421.061 900.685 420.851L893.982 401.473C893.875 401.168 893.614 400.942 893.292 400.874Z" fill="#C7DEFF"/>
<path d="M912.946 382.404L897.923 399.35C897.707 399.594 897.641 399.929 897.744 400.234L904.448 419.611C904.612 420.086 905.14 420.341 905.626 420.181C905.896 420.092 906.099 419.89 906.193 419.647C906.269 419.457 906.278 419.241 906.208 419.03L899.675 400.145L914.348 383.59C914.685 383.211 914.643 382.641 914.254 382.312C913.869 381.986 913.283 382.028 912.946 382.404Z" fill="#C7DEFF"/>
<path d="M914.713 387.518L903.219 400.483C902.882 400.862 902.924 401.434 903.313 401.76C903.701 402.09 904.287 402.048 904.621 401.669L916.116 388.704C916.188 388.624 916.243 388.532 916.279 388.437C916.416 388.091 916.325 387.684 916.021 387.426C915.633 387.1 915.047 387.139 914.713 387.518Z" fill="#C7DEFF"/>
<path d="M774.28 478.592C774.28 478.592 667.671 201.139 591.28 272.494C576.661 290.478 593.797 321.204 625.275 356.837C656.753 392.467 748.312 485.094 761.285 499.79L774.28 478.592Z" fill="#5A789F"/>
<path d="M774.278 478.592C774.278 478.592 708.301 306.89 642.961 268.375C644.407 272.052 645.293 276.022 643.9 278.542C640.706 284.317 626.302 286.964 622.186 296.546C618.664 304.75 624.259 336.416 611.623 340.507C615.776 345.811 620.349 351.263 625.273 356.837C656.751 392.467 748.31 485.094 761.284 499.79L774.278 478.592Z" fill="#5A789F"/>
<path d="M603.568 274.738C610.986 280.569 618.087 286.786 625.061 293.116C665.723 330.433 701.749 372.802 730.707 419.425C736.275 428.447 741.707 437.913 746.628 447.291C748.699 451.198 751.009 455.835 752.953 459.808C754.209 462.44 755.989 466.214 757.182 468.877L758.005 470.697L758.803 472.532L759.602 474.364L760.394 476.2C750.888 457.092 740.31 438.542 728.709 420.629C717.124 402.704 704.6 385.378 691.332 368.607C671.416 343.457 649.878 319.514 627.013 296.866C619.386 289.333 611.596 281.862 603.568 274.738Z" fill="#5AA5D1"/>
<path d="M614.728 406.52C614.728 406.52 594.167 398.328 580.247 414.382C568.51 427.922 587.351 464.679 606.81 482.47C606.81 482.47 587.722 494.145 587.075 507.596C586.428 521.044 608.892 535.239 640.689 539.253L643.901 425.195L614.728 406.52Z" fill="#5A789F"/>
<path d="M612.387 405.769C614.309 416.705 615.708 433.684 618.675 452.155C623.335 481.179 634.007 523.311 597.665 524.266C607.153 531.247 622.37 536.94 640.689 539.252L643.901 425.193L614.728 406.519C614.728 406.519 613.869 406.175 612.387 405.769Z" fill="#5A789F"/>
<path d="M590.029 416.605C605.31 431.85 620.044 447.699 634.553 463.643C638.767 468.253 643.245 473.059 647.341 477.755C655.22 486.86 662.831 496.267 669.945 505.956C670.315 506.472 670.689 506.982 671.056 507.5L670.825 507.687C660.156 496.896 649.846 485.481 640.027 473.949C636.927 470.249 633.336 466.015 630.184 462.357C620.238 450.877 610.186 439.392 600.042 428.081C596.654 424.304 593.253 420.536 589.813 416.807L590.029 416.605Z" fill="#5AA5D1"/>
<path d="M599.886 507.45C607.677 507.96 615.537 507.604 623.264 506.563C627.111 506.036 630.927 505.345 634.664 504.319C637.755 503.465 640.782 502.419 643.806 501.372C647.128 500.216 650.397 498.912 653.579 497.42C655.644 496.451 657.626 495.41 659.648 494.334L659.834 494.562C658.835 495.627 657.705 496.649 656.561 497.563C651.503 501.565 645.485 504.429 639.179 505.979C628.899 508.449 618.233 509.285 607.683 508.585C605.057 508.408 602.443 508.156 599.847 507.737L599.886 507.45Z" fill="#5AA5D1"/>
<mask id="mask0_1949_925" style="mask-type:luminance" maskUnits="userSpaceOnUse" x="631" y="289" width="151" height="253">
<path d="M631.426 289.669H781.432V541.007H631.426V289.669Z" fill="white"/>
</mask>
<g mask="url(#mask0_1949_925)">
<path d="M769.455 540.975H643.494C637.14 540.975 631.987 535.946 631.987 529.741V301.312C631.987 295.107 637.14 290.076 643.494 290.076H769.455C775.812 290.076 780.965 295.107 780.965 301.312V529.741C780.965 535.946 775.812 540.975 769.455 540.975Z" fill="#303C72"/>
</g>
<path d="M765.097 534.402H647.847C642.57 534.402 638.292 530.225 638.292 525.075V305.976C638.292 300.827 642.57 296.652 647.847 296.652H765.097C770.374 296.652 774.648 300.827 774.648 305.976V525.075C774.648 530.225 770.374 534.402 765.097 534.402Z" fill="#D4EBFF"/>
<path d="M765.097 296.652H647.847C642.57 296.652 638.292 300.827 638.292 305.976V317.438H774.648V305.976C774.648 300.827 770.374 296.652 765.097 296.652Z" fill="#8CCBFF"/>
<path d="M734.345 408.201C734.345 408.201 747.931 398.98 758.558 416.256C769.187 433.534 780.915 467.824 784.234 478.482C787.552 489.138 774.782 494.797 766.886 486.665C758.986 478.533 739.36 441.631 734.87 432.553C730.38 423.475 727.641 413.333 734.345 408.201Z" fill="#9E5959"/>
<path d="M770.213 472.566L781.145 469.086C780.11 466.065 777.584 459.012 777.584 459.012C777.584 459.012 771.518 466.566 770.213 472.566Z" fill="#914D4D"/>
<path d="M757.478 473.334C757.426 469.8 757.393 464.179 757.551 458.469C757.809 449.068 756.291 427.847 756.291 427.847L743.509 448.985C747.784 456.851 752.884 465.902 757.478 473.334Z" fill="#914D4D"/>
<path d="M736.144 405.742C736.144 405.742 724.576 410.699 730.378 425.493C736.18 440.29 754.813 471.058 760.39 480.409C765.967 489.759 773.952 494.203 780.03 491.055C786.109 487.903 786.455 482.422 784.032 474.017C781.606 465.615 765.724 427.139 761.726 419.273C757.724 411.411 747.541 399.721 736.144 405.742Z" fill="white"/>
<path d="M776.506 453.935C772.963 458.473 768.513 469.564 768.513 469.564L780.641 464.471C779.439 461.322 778.021 457.714 776.506 453.935Z" fill="#D4EBFF"/>
<path d="M760.335 480.311C760.45 473.596 760.642 458.571 760.271 450.113C759.788 438.986 757.581 425.494 757.581 425.494L748.825 460.839C753.64 469.164 758.046 476.475 760.335 480.311Z" fill="#D4EBFF"/>
<path d="M810.355 430.159C810.355 430.159 819.642 433.542 824.627 444.547L820.158 448.134L807.671 435.789L810.355 430.159Z" fill="#ABD3FC"/>
<path d="M772.554 489.98C776.774 491.406 781.462 490.137 784.461 486.905C792.595 478.138 819.385 448.966 824.911 439.206C831.448 427.664 822.862 425.995 814.874 433.155C806.889 440.314 793.825 451.156 787.737 456.152C777.828 464.287 768.161 470.344 765.058 476.505C762.884 480.816 766.236 487.845 772.554 489.98Z" fill="#9E5959"/>
<path d="M817.216 449.845C813.06 454.684 805.005 445.535 807.771 441.037C807.816 440.966 816.072 430.963 817.183 427.201C818.352 423.237 817.781 421.316 821.959 417.8C825.514 414.811 827.888 412.781 829.676 413.059C831.571 413.356 829.934 415.825 828.009 417.486C825.927 419.285 822.781 424.592 825.754 424.447C828.122 424.328 835.721 422.786 838.016 421.784C841.757 420.151 851.117 411.292 853.321 415.965C853.321 415.965 855.747 415.57 855.583 418.31C855.583 418.31 858.516 419.226 855.85 422.609C855.85 422.609 857.56 424.121 855.853 426.065C854.697 427.385 849.635 431.885 846.278 434.42C842.923 436.955 829.342 438.609 824.536 441.443C823.006 442.348 818.166 448.74 817.216 449.845Z" fill="#F6AF9A"/>
<path d="M824.546 423.569C824.764 426.385 825.733 428.668 824.777 431.496C827.142 429.264 825.062 425.946 824.546 423.569Z" fill="#E57E73"/>
<path d="M855.849 422.608C854.446 422.385 853.362 423.503 852.348 424.256C849.191 426.58 846.218 429.252 842.909 431.306C846.841 430.384 849.476 426.856 852.57 424.511C853.462 423.625 854.68 422.635 855.849 422.608Z" fill="#E57E73"/>
<path d="M855.585 418.31C852.622 418.57 850.475 420.859 848.174 422.454C845.842 424.019 843.769 426.332 841.425 427.604C842.888 427.435 844.136 426.492 845.238 425.594C848.599 423.172 851.589 419.362 855.585 418.31Z" fill="#E57E73"/>
<path d="M853.322 415.965C847.943 416.739 844.415 421.583 839.961 424.112C845.092 422.823 848.146 416.956 853.322 415.965Z" fill="#E57E73"/>
<path d="M840.847 432.281C835.188 430.508 827.58 429.322 822.646 433.292C828.069 430.185 834.924 431.436 840.847 432.281Z" fill="#EA9A88"/>
<path d="M839.599 423.964C840.625 424.833 840.953 426.176 841.275 427.412C842.301 428.355 842.504 429.891 842.762 431.189C843.284 431.563 843.296 432.301 843.303 432.876C843.16 432.289 842.938 431.657 842.41 431.364C841.982 430.214 841.709 428.696 840.789 427.848C840.221 426.751 840.248 425.198 839.304 424.246C839.01 423.644 838.831 422.933 838.314 422.44C838.906 422.778 839.298 423.368 839.599 423.964Z" fill="#EA9A88"/>
<path d="M810.355 430.159C810.355 430.159 813.944 441.588 824.628 444.547C824.628 444.547 794.337 481.238 786.455 487.627C778.576 494.019 766.736 491.138 762.534 481.71C758.487 472.629 810.355 430.159 810.355 430.159Z" fill="white"/>
<path d="M722.264 511.352C709.039 515.591 703.677 525.259 702.074 534.402H752.68C751.62 528.482 750.427 524.017 749.094 521.713C740.73 507.242 722.264 511.352 722.264 511.352Z" fill="#F6AF9A"/>
<path d="M722.707 504.977C707.323 507.983 699.481 518.191 698.962 534.402H756.505C756.417 533.788 756.329 533.192 756.241 532.614C751.963 504.728 722.707 504.977 722.707 504.977Z" fill="#384682"/>
<path d="M684.373 469.99C686.232 490.518 680.609 502.925 678.201 515.407C676.932 521.991 676.592 528.493 677.472 534.402H745.754C749.95 524.903 749.212 515.543 749.349 510.479C749.582 501.956 750.287 487.722 750.287 487.722C752.773 450.079 682.518 449.459 684.373 469.99Z" fill="#F6AF9A"/>
<path d="M679.877 504.244C679.877 504.244 673.267 520.197 675.708 534.401H746.956C750.833 521.496 750.544 504.976 750.544 504.976C741.463 506.405 679.877 504.244 679.877 504.244Z" fill="#384682"/>
<path d="M674.975 534.401H725.276C725.04 511.363 705.502 509.815 705.502 509.815C690.152 508.238 678.773 512.78 674.975 534.401Z" fill="#F6AF9A"/>
<path d="M672.379 534.349C672.376 534.367 672.376 534.385 672.373 534.402H730.657C730.335 517.907 719.548 507.249 701.51 505.001C701.51 505.001 675.707 503.086 672.379 534.349Z" fill="#384682"/>
<path d="M698.831 398.093C711.1 396.083 720.891 397.726 732.441 401.029C740.168 403.237 748.447 405.366 752.187 410.471C758.754 419.434 755.761 441.574 754.082 451.823C752.403 462.069 751.131 483.498 750.211 489.004C749.291 494.509 724.274 503.151 708.96 500.901C697.219 499.176 686.474 493.558 684.944 483.059C683.144 470.679 680.077 452.929 676.519 442.143C672.961 431.361 667.371 408.903 684.999 401.387C688.305 399.979 695.601 398.621 698.831 398.093Z" fill="#F6AF9A"/>
<path d="M727.781 386.679C727.781 386.679 727.383 397.864 729.924 402.99C732.462 408.114 723.77 411.301 718.12 411.253C712.47 411.206 703.793 408.116 702.778 401.473C701.767 394.826 705.93 397.34 705.144 379.276C704.53 365.149 729.362 372.759 727.781 386.679Z" fill="#F6AF9A"/>
<path d="M729.128 400.897C727.473 395.327 727.78 386.679 727.78 386.679C729.034 375.627 713.638 368.553 707.551 373.184C707.302 374.758 707.187 376.531 707.236 378.532C707.26 379.573 717.625 399.109 729.128 400.897Z" fill="#EA9A88"/>
<path d="M755.284 507.282C754.452 501.169 755.284 471.213 755.403 466.917C755.521 462.618 757.795 440.092 757.552 433.359C757.306 426.624 755.387 413.131 753.672 409.078C751.954 405.029 739.005 401.933 732.225 400.899L728.882 399.98C728.882 399.98 729.954 403.766 724.237 404.726C715.821 406.14 706.671 401.13 702.882 397.552C702.882 397.552 700.65 397.273 699.138 397.549C699.138 397.549 684.498 399.837 680.663 401.343C676.829 402.849 671.312 409.44 671.076 420.703C670.836 431.966 676.665 453.013 678.329 463.795C679.996 474.581 678.924 493.042 678.21 499.428C677.497 505.814 670.599 526.134 670.48 534.145C670.48 534.145 671.355 534.243 672.9 534.403H740.82C750.433 533.442 757.546 532.603 758.138 532.171C758.138 532.171 756.365 526.947 756.241 522.651C756.116 518.355 756.116 513.395 755.284 507.282Z" fill="#85B9F1"/>
<path d="M723.329 406.846C727.057 406.804 732.373 414.519 732.373 414.519C734.043 411.572 735.6 405.304 736.411 401.658C734.884 401.34 733.451 401.085 732.224 400.899L728.882 399.98C728.882 399.98 729.953 403.766 724.236 404.726C715.82 406.14 706.67 401.13 702.881 397.552C702.881 397.552 700.649 397.273 699.137 397.549C699.137 397.549 698.245 397.688 696.845 397.922L694.917 400.825L718.356 419.286C718.356 419.286 718.286 418.064 719.112 413.955C720.441 407.323 723.329 406.846 723.329 406.846Z" fill="#75AEEB"/>
<path d="M692.198 460.584C694.077 446.56 694.809 421.654 694.809 421.654C694.809 421.654 681.99 426.581 671.583 428.502C673.01 440 676.999 455.176 678.329 463.794C679.996 474.577 678.924 493.041 678.21 499.427C677.497 505.813 670.599 526.134 670.48 534.144C670.48 534.144 671.355 534.242 672.9 534.402H695.036C682.309 527.654 683.035 507.883 684.714 496.961C686.687 484.1 690.777 471.194 692.198 460.584Z" fill="#75AEEB"/>
<path d="M723.857 408.972C725.602 408.909 725.982 405.992 726.052 404.255C725.539 404.448 724.937 404.608 724.233 404.726C722.788 404.969 721.319 405.023 719.861 404.928C720.49 406.295 721.99 409.037 723.857 408.972Z" fill="#384682"/>
<path d="M722.401 407.301C722.401 407.301 731.564 448.232 732.372 457.245L738.065 467.82L740.46 453.933C740.46 453.933 730.942 420.806 724.657 406.889L722.401 407.301Z" fill="#384682"/>
<path d="M722.923 404.894C722.923 404.894 727.644 402.623 728.879 399.979C728.879 399.979 730.916 399.917 731.76 400.326C731.76 400.326 733.136 407.322 731.76 411.787C731.76 411.787 727.091 405.615 723.415 405.926C719.729 406.24 717.333 414.689 717.333 414.689C717.333 414.689 704.242 404.69 702.621 397.578L702.991 397.163C702.991 397.163 714.173 403.551 722.923 404.894Z" fill="#96C3F2"/>
<path d="M747.365 346.905C747.365 346.905 749.183 355.36 746.639 365.28L741.02 346.57L747.365 346.905Z" fill="#8C4949"/>
<path d="M724.238 330.657C724.238 330.657 742.464 331.703 745.409 347.529C748.354 363.355 746.511 391.982 735.924 395.116C726.263 397.977 711.356 388.211 705.081 378.41C698.477 368.095 696.133 354.947 700.02 345.003C703.423 336.299 709.908 329.904 724.238 330.657Z" fill="#F6AF9A"/>
<path d="M715.952 349.163C715.952 349.163 714.091 351.858 714.604 355.929C714.938 358.579 713.897 359.534 711.07 363.397C708.241 367.26 708.897 367.485 708.065 371.743C707.233 375.997 705.202 386.43 705.147 387.263C705.089 388.099 702.469 385.17 700.508 379.365C698.55 373.56 694.387 362.297 694.029 351.962C693.674 341.63 703.426 331.179 713.417 330.133C713.417 330.133 722.932 325.953 732.092 329.67C741.249 333.385 747.995 339.039 747.607 348.345L745.609 348.41C745.609 348.41 744.088 347.319 743.602 347.035C741.386 345.736 739.582 346.379 737.569 347.66C737.569 347.66 729.736 351.505 725.574 351.043C725.574 351.043 720.822 352.478 715.952 349.163Z" fill="#8C4949"/>
<path d="M707.802 339.739C707.802 339.739 706.621 347.376 714.909 351.588C715.338 350.059 715.951 349.163 715.951 349.163C715.951 349.163 708.765 344.811 707.802 339.739Z" fill="#7D4141"/>
<path d="M712.615 333.54C712.542 337.254 713.453 341.212 716.267 343.848C719.619 346.931 725.864 347.553 730.321 347.441C729.778 347.645 729.213 347.799 728.642 347.921C724.386 348.787 719.291 348.375 715.779 345.656C712.22 342.822 711.149 337.681 712.615 333.54Z" fill="#7D4141"/>
<path d="M717.23 331.565C719.687 330.765 722.291 330.486 724.878 330.498C730.109 330.545 735.504 332.164 739.342 335.739C741.26 337.512 742.721 339.715 743.558 342.087C742.806 341.067 742.034 340.091 741.184 339.196C738.695 336.531 735.504 334.542 732.019 333.368C727.286 331.761 722.222 331.405 717.23 331.565Z" fill="#7D4141"/>
<path d="M715.212 333.54C720.109 333.889 724.909 335.149 729.469 336.91C732.972 338.28 736.364 340.201 738.899 342.973C739.284 343.4 739.645 343.853 739.94 344.343C739.721 344.156 739.497 343.981 739.269 343.815C739.096 343.687 738.753 343.444 738.577 343.323C736.036 341.597 733.255 340.231 730.401 339.08C725.389 337.085 720.276 335.464 715.212 333.54Z" fill="#7D4141"/>
<path d="M718.388 337.954C721.594 340.904 725.747 342.431 729.839 343.842C731.227 344.316 732.642 344.74 734.072 345.283C733.31 345.366 732.551 345.375 731.785 345.351C727.966 345.17 724.104 343.978 721.126 341.568C719.966 340.584 718.864 339.404 718.388 337.954Z" fill="#7D4141"/>
<path d="M711.83 368.419C711.83 368.419 711.79 360.083 706.699 360.026C701.605 359.97 701.632 366.949 704.917 371.476C706.754 374.01 711.851 377.203 711.83 368.419Z" fill="#F6AF9A"/>
<path d="M706.225 365.648C707.227 365.704 708.016 366.241 708.569 366.786C708.426 365.829 708.022 364.904 707.096 364.328C706.856 364.18 706.786 363.872 706.938 363.638C707.09 363.404 707.403 363.335 707.646 363.484C710.952 365.532 709.227 370.539 709.151 370.75C709.06 371.011 708.769 371.15 708.502 371.058C708.496 371.058 708.493 371.055 708.487 371.055C708.228 370.96 708.092 370.682 708.183 370.424C708.189 370.403 708.484 369.549 708.593 368.458C708.587 368.449 708.575 368.44 708.569 368.429C708.559 368.414 707.621 366.727 706.167 366.647C705.885 366.632 705.669 366.395 705.684 366.119C705.7 365.843 705.942 365.633 706.225 365.648Z" fill="#E57E73"/>
<path d="M667.956 534.401H759.688C758.374 520.909 756.74 500.9 756.352 491.769C755.829 479.462 758.088 446.441 758.137 436.145C758.185 425.848 755.137 411.448 755.137 411.448C754.733 410.266 753.883 406.794 746.287 404.031C738.691 401.271 731.96 400.823 731.96 400.823C738.515 417.333 736.659 459.711 736.659 459.711C736.659 459.711 730.727 443.966 722.402 426.699C715.097 411.549 698.535 397.547 698.535 397.547C690.718 397.796 677.098 400.953 677.098 400.953C663.517 415.495 672.556 445.495 674.824 461.472C677.089 477.449 675.042 494.256 669.037 527.491C668.66 529.572 668.299 531.89 667.956 534.401Z" fill="white"/>
<path d="M736.775 456.143L736.66 460.608C742.173 423.546 739.116 403.964 738.609 401.845C734.677 401.006 731.96 400.825 731.96 400.825C737.361 414.427 737.051 445.592 736.775 456.143Z" fill="#ABD3FC"/>
<path d="M736.419 459.074C735.226 455.97 729.749 441.926 722.405 426.699C715.1 411.549 698.538 397.547 698.538 397.547C696.222 397.621 693.395 397.95 690.565 398.377C690.565 398.377 730.326 441.063 736.662 460.607L736.419 459.074Z" fill="#ABD3FC"/>
<path d="M734.738 534.403H735.953C737.158 509.452 738.008 484.5 736.66 459.712C737.383 484.569 735.995 509.579 734.738 534.403Z" fill="#ABD3FC"/>
<path d="M674.824 461.473C677.089 477.45 675.042 494.257 669.037 527.491C668.66 529.573 668.299 531.891 667.956 534.402H678.349L680.255 515.2C680.753 509.807 682.657 489.312 683.285 483.368C684.014 476.504 685.468 475.555 689.105 456.489C692.743 437.423 693.611 420.907 693.611 420.907L671.153 440.815C672.367 448.538 674.022 455.837 674.824 461.473Z" fill="#D4EBFF"/>
<path d="M730.322 400.02C730.322 400.02 735.174 418.748 736.659 459.712C736.659 459.712 739.051 435.2 738.447 419.457C737.84 403.717 737.39 401.597 737.39 401.597C737.39 401.597 732.32 399.614 730.322 400.02Z" fill="white"/>
<path d="M736.661 459.713C722.403 426.7 691.863 398.189 691.863 398.189C694.927 396.686 702.994 397.163 702.994 397.163C702.994 397.163 714.883 410.344 723.174 426.087C734.341 447.29 736.661 459.713 736.661 459.713Z" fill="white"/>
<path d="M678.021 401.602C678.021 401.602 694.516 402.894 691.495 422.832C688.474 442.767 675.24 476.532 670.877 486.826C666.514 497.116 653.523 493.757 652.709 482.577C651.892 471.4 660.159 430.543 662.594 420.745C665.026 410.95 669.504 401.415 678.021 401.602Z" fill="#F6AF9A"/>
<path d="M680.662 401.342C680.662 401.342 668.557 396.498 661.829 419.575C655.098 442.652 650.735 473.367 650.553 483.663C650.371 493.96 660.715 499.044 667.282 495.202C673.852 491.363 680.944 467.455 685.207 455.276C691.862 436.263 702.224 406.008 680.662 401.342Z" fill="white"/>
<path d="M652.573 481.583C652.573 481.583 652.461 514.335 653.955 534.403H668.209C669.263 525.313 670.586 515.357 671.339 509.893C673.067 497.368 674.636 487.391 674.822 479.416C675.064 468.995 653.305 466.807 652.573 481.583Z" fill="#F6AF9A"/>
<path d="M664.335 465.022C664.335 465.022 651.823 466.089 650.551 481.355C649.595 492.849 649.458 517.222 649.916 534.403H673.428C675.416 513.688 678.929 476.742 679.002 473.335C679.105 468.574 670.48 463.958 664.335 465.022Z" fill="white"/>
<path d="M773.905 491.865V525.076C773.905 529.817 769.952 533.674 765.098 533.674H647.847C642.989 533.674 639.04 529.817 639.04 525.076V305.977C639.04 301.237 642.989 297.38 647.847 297.38H765.098C769.952 297.38 773.905 301.237 773.905 305.977V447.51C774.333 448.56 774.758 449.603 775.177 450.644C775.314 450.51 775.396 450.33 775.396 450.128V305.977C775.396 300.433 770.775 295.924 765.098 295.924H647.847C642.167 295.924 637.549 300.433 637.549 305.977V525.076C637.549 530.62 642.167 535.13 647.847 535.13H765.098C770.775 535.13 775.396 530.62 775.396 525.076V492.046C774.904 492.022 774.406 491.963 773.905 491.865Z" fill="white"/>
<path d="M732.908 301.31H680.041C676.798 301.31 674.169 298.742 674.169 295.579V294.381H738.777V295.579C738.777 298.742 736.15 301.31 732.908 301.31Z" fill="#303C72"/>
<path d="M1059.13 347.063C1060.85 345.884 1062.74 344.979 1064.74 344.372C1073 341.857 1094.38 337.707 1110.57 355.222C1127.87 373.915 1102.84 426.915 1076.05 453.023C1076.05 453.023 1103.68 468.748 1105.23 487.805C1106.77 506.862 1075.55 528.006 1030.62 535.113L1020.74 373.39L1059.13 347.063Z" fill="#5A789F"/>
<path d="M1064.57 344.427C1062.35 360.033 1061.15 384.19 1057.8 410.531C1052.54 451.931 1039.36 512.197 1090.98 511.94C1077.84 522.266 1056.51 531.02 1030.62 535.115L1020.74 373.392L1059.14 347.062C1060.78 345.933 1062.59 345.04 1064.5 344.448L1064.57 344.427Z" fill="#5A789F"/>
<path d="M1097.07 359.049C1076.99 382.108 1057.46 405.713 1038.15 429.402C1032.67 436.161 1026.76 443.677 1021.25 450.424C1009.92 464.228 998.202 478.269 986.328 491.619L986.091 491.441C986.607 490.703 987.129 489.971 987.648 489.239C990.259 485.589 992.934 481.931 995.603 478.34C1003.1 468.29 1010.9 458.269 1018.82 448.533C1026.73 438.883 1035.14 429.164 1043.2 419.627C1053.64 407.335 1064.36 394.954 1075.07 382.891C1079.77 377.581 1084.74 372.043 1089.51 366.804C1091.95 364.145 1094.38 361.486 1096.84 358.853L1097.07 359.049Z" fill="#5AA5D1"/>
<path d="M1087.1 488.517C1069.61 491.431 1051.54 491.191 1034.13 487.82C1032.31 487.461 1030.41 487.04 1028.63 486.578C1020.9 484.535 1013.46 481.268 1006.89 476.797C1006 476.189 1004.92 475.404 1004.07 474.734C1003.17 474.025 1002.26 473.263 1001.41 472.495L1001.58 472.261C1003.22 473.148 1004.83 474.04 1006.47 474.864C1008.04 475.665 1009.81 476.513 1011.43 477.233C1016 479.291 1020.74 481.01 1025.53 482.504C1030.33 484.007 1035.18 485.386 1040.13 486.385C1053.72 489.015 1067.7 489.643 1081.52 488.736C1083.37 488.612 1085.22 488.458 1087.06 488.229L1087.1 488.517Z" fill="#5AA5D1"/>
<mask id="mask1_1949_925" style="mask-type:luminance" maskUnits="userSpaceOnUse" x="897" y="289" width="151" height="253">
<path d="M897.242 289.67H1047.25V541.007H897.242V289.67Z" fill="white"/>
</mask>
<g mask="url(#mask1_1949_925)">
<path d="M1035.19 540.974H909.231C902.877 540.974 897.722 535.945 897.722 529.74V301.311C897.722 295.106 902.877 290.075 909.231 290.075H1035.19C1041.55 290.075 1046.7 295.106 1046.7 301.311V529.74C1046.7 535.945 1041.55 540.974 1035.19 540.974Z" fill="#303C72"/>
</g>
<path d="M1030.83 534.402H913.587C908.31 534.402 904.032 530.225 904.032 525.075V305.976C904.032 300.827 908.31 296.652 913.587 296.652H1030.83C1036.11 296.652 1040.39 300.827 1040.39 305.976V525.075C1040.39 530.225 1036.11 534.402 1030.83 534.402Z" fill="#D4EBFF"/>
<path d="M930.617 419.115C931.518 414.327 935.38 410.367 940.578 409.483C947.254 408.348 953.609 412.709 954.772 419.225C955.011 420.58 955.011 421.92 954.796 423.204C954.747 423.506 954.684 423.806 954.611 424.102C953.414 429.827 946.674 461.624 940.341 481.126C939.676 484.493 936.95 487.268 933.285 487.891C928.549 488.697 924.04 485.602 923.215 480.977C922.89 479.169 928.163 429.237 930.617 419.115Z" fill="#DE9681"/>
<path d="M942.115 420.899C942.115 420.899 947.307 416.229 954.794 419.357C955.012 420.667 955.003 421.963 954.797 423.205C954.748 423.508 954.684 423.807 954.611 424.104C953.579 429.043 948.421 453.395 942.956 472.509C942.461 470.16 940.943 467.815 940.19 467.231C939.009 466.315 935.933 463.594 934.424 458.812C933.344 455.393 935.402 442.594 937.761 435.865C940.12 429.132 942.115 420.899 942.115 420.899Z" fill="#EA9A88"/>
<path d="M945.96 408.971C945.96 408.971 941.309 408.031 934.991 410.755C933.1 411.571 931.29 414.764 930.06 417.239C925.364 426.711 921.787 455.487 921.787 455.487C921.787 455.487 934.029 466.631 946.856 470.207C946.856 470.207 956.408 429.561 956.216 421.046C956.025 412.534 949.664 409.845 945.96 408.971Z" fill="#FCF5F1"/>
<path d="M952.826 442.92L937.357 418.944C937.357 418.944 940.63 428.722 938.963 435.274C937.296 441.829 933.331 450.794 932.712 456.143C932.444 458.458 932.569 461.251 932.797 463.673C936.932 466.261 941.85 468.811 946.857 470.207C946.857 470.207 950.148 456.208 952.826 442.92Z" fill="#F0E2DA"/>
<path d="M935.512 470.004C930.806 468.279 925.554 470.603 923.787 475.199C923.438 476.103 923.253 477.025 923.213 477.938C923.21 477.938 919.825 522.418 918.914 534.401H929.598C930.703 529.249 932.783 519.907 935.011 511.798C938.816 497.956 940.121 485.513 940.722 479.782C940.892 479.026 940.959 478.267 940.926 477.52C940.771 474.063 939.037 471.297 935.512 470.004Z" fill="#DE9681"/>
<path d="M957.563 516.922C947.523 517.983 939.72 525.259 937.726 534.402H982.304C979.912 523.367 969.295 515.683 957.563 516.922Z" fill="#F6AF9A"/>
<path d="M936.41 534.403H983.251C979.838 514.447 964.424 514.429 962.484 514.456C962.484 514.456 941.068 513.125 936.41 534.403Z" fill="#8C4949"/>
<path d="M977.801 481.461C954.168 481.396 949.268 492.154 949.268 492.154C948.873 495.125 948.809 498.428 947.407 501.238C940.922 514.218 938.39 529.024 937.637 534.402H1017.11C1016.64 526.412 1013.65 518.849 1009.66 509.202C1007.15 503.133 1001.12 495.158 1001.03 488.899C1001.03 488.899 998.616 481.517 977.801 481.461Z" fill="#F6AF9A"/>
<path d="M948.993 494.545C948.993 494.545 947.463 496.775 943.519 507.193C940.647 514.773 937.851 527.845 936.542 534.403H1018.13C1017.1 525.402 1014.36 515.529 1011.25 509.956C1007.53 503.291 1002.22 492.333 1002.22 492.333C991.714 494.945 948.993 494.545 948.993 494.545Z" fill="#8C4949"/>
<path d="M1011.25 509.956C1007.53 503.291 1002.22 492.333 1002.22 492.333C995.121 494.098 973.319 494.489 959.921 494.554C953.84 498.539 952.088 503.098 952.088 503.098C952.088 503.098 968.413 508.518 989.037 508.859C999.806 508.859 1004.05 508.859 1005.46 509.612C1006.45 510.14 1008.01 525.361 1008.85 534.403H1018.13C1017.11 525.402 1014.36 515.529 1011.25 509.956Z" fill="#824444"/>
<path d="M972.076 534.402H1016.52C1014.38 525.217 1006.37 518.028 996.249 517.177C984.77 516.213 974.551 523.735 972.076 534.402Z" fill="#F6AF9A"/>
<path d="M970.097 534.403H1017.78C1015.74 523.792 1010.1 513.982 994.085 514.471C994.085 514.471 974.116 514.459 970.097 534.403Z" fill="#8C4949"/>
<path d="M1007 517.123C1007.69 522.388 1008.38 529.358 1008.85 534.403H1017.78C1016.43 527.365 1013.49 520.683 1007 517.123Z" fill="#824444"/>
<path d="M947.658 474.047C947.658 474.047 941.546 470.528 940.462 464.854C939.378 459.179 942.487 440.312 943.277 431.486C944.069 422.66 936.828 415.046 935.856 410.664C935.856 410.664 946.085 405.968 968.513 403.819C968.513 403.819 981.155 404.175 993.302 406.333C1003.21 408.091 1008.38 413.389 1010.31 416.422C1012.25 419.455 1010.99 426.849 1008.29 435.879C1005.59 444.91 1002.63 452.734 1002.33 462.298C1002.18 466.917 1001.97 483.404 1002.26 494.198C1002.26 494.198 1003.45 500.982 979.436 502.431C957.273 503.771 949.045 494.302 949.045 494.302C948.21 485.423 947.658 474.047 947.658 474.047Z" fill="#DE9681"/>
<path d="M1005.83 443.884C1004.03 449.84 1002.53 455.648 1002.33 462.298C1002.23 465.518 1002.09 474.501 1002.12 483.306C996.852 469.425 989.806 427.984 989.806 427.984L1005.83 443.884Z" fill="#E57E73"/>
<path d="M957.34 407.076L958.658 384.2C958.813 379.667 961.989 375.585 966.716 374.39C972.469 372.934 978.341 376.308 979.832 381.926C980.035 382.688 980.144 383.456 980.172 384.212L982.23 408.772C982.248 408.944 982.294 409.723 982.294 409.723C982.649 415.502 978.769 420.497 972.809 422.003C966.042 423.714 959.359 420.061 957.608 413.453C957.061 411.395 957.195 409.267 957.34 407.076Z" fill="#DE9681"/>
<path d="M958.659 384.2C958.814 379.667 961.989 375.585 966.717 374.39C972.47 372.934 978.342 376.308 979.832 381.926C980.036 382.688 980.145 383.456 980.172 384.212L980.279 385.49C975.476 396.038 966.732 403.889 957.417 405.789L958.659 384.2Z" fill="#D38475"/>
<path d="M949.561 406.658C949.561 406.658 951.122 413.545 962.264 415.321C973.406 417.097 996.01 406.732 996.01 406.732C996.01 406.732 1000.86 406.667 1004.2 408.698C1004.2 408.698 1010.52 412.558 1011.59 417.296C1012.65 422.036 1011.23 430.426 1010.37 433.489C1009.51 436.549 1004.2 463.646 1004.2 470.435C1004.2 475.176 1007.01 488.662 1008.71 496.371C1009.39 499.466 1007.26 502.475 1004.06 502.952C993.435 504.533 970.082 507.064 947.278 503.243C943.544 502.617 940.908 499.324 941.154 495.635C941.725 487.115 942.669 472.932 942.648 472.339C942.648 472.339 937.936 469.525 936.922 461.526C935.908 453.53 942.126 433.685 941.458 430.278C940.79 426.872 934.876 413.996 934.994 410.755C934.994 410.755 941.412 407.755 949.561 406.658Z" fill="#FCF5F1"/>
<path d="M977.358 505.206C988.621 504.966 998.252 503.815 1004.06 502.953C1007.26 502.475 1009.39 499.463 1008.71 496.371C1007.01 488.663 1004.2 475.176 1004.2 470.435C1004.2 463.646 1009.51 436.549 1010.37 433.489C1010.57 432.789 1010.79 431.814 1011.01 430.67C1001.49 425.401 992.59 424.215 988.275 429.834C988.275 429.834 990.48 455.268 990.446 460.157C990.413 465.043 979.522 472.558 963.14 470.907C963.14 470.907 978.311 476.338 992.165 469.425L993.822 474.115H1000.05C1000.05 474.115 1000.86 484.038 1002.08 490.851C1003.28 497.628 990.583 502.416 977.358 505.206Z" fill="#F0E2DA"/>
<path d="M988.365 424.227C988.222 423.056 988.243 421.849 988.45 420.628C989.625 413.669 996.356 408.959 1003.48 410.103C1009.4 411.055 1013.73 415.745 1014.36 421.289L1029.06 481.906C1029.37 483.091 1029.44 484.357 1029.22 485.644C1028.39 490.583 1023.61 493.927 1018.56 493.115C1014.29 492.427 1011.19 489.009 1010.82 484.995C1010.82 484.995 992.257 442.261 988.702 425.952C988.55 425.389 988.438 424.811 988.365 424.227Z" fill="#DE9681"/>
<path d="M999.038 408.697C999.038 408.697 985.691 410.455 987.665 426.735C989.635 443.014 996.312 472.338 996.312 472.338C996.312 472.338 1020.13 472.486 1028.17 461.081C1028.17 461.081 1017.09 423.204 1014.06 416.655C1011.03 410.103 1003.76 406.954 999.038 408.697Z" fill="#FCF5F1"/>
<path d="M1017.93 476.045C1014.19 476.905 1011.52 479.855 1010.91 483.329C1010.77 484.082 1010.74 484.859 1010.81 485.645C1010.65 491.515 1010.86 503.893 1012.85 518.372C1013.59 523.694 1014.2 529.496 1014.66 534.403H1026.61C1027.58 516.745 1029.31 485.636 1029.31 485.636C1029.39 484.705 1029.32 483.747 1029.09 482.793C1027.92 477.919 1022.92 474.898 1017.93 476.045Z" fill="#DE9681"/>
<path d="M969.073 336.53C969.073 336.53 990.125 337.295 989.664 361.606C989.217 384.959 969.128 404.063 951.916 399.16C946.445 397.259 942.841 385.098 942.65 366.818C942.456 348.537 950.495 335.89 969.073 336.53Z" fill="#DE9681"/>
<path d="M997.015 393.779C994.447 385.484 996.533 369.664 995.491 362.528C995.464 362.341 995.421 362.169 995.373 362.009C994.717 352.477 991.505 344.817 984.067 339.035C976.063 332.812 963.02 335.706 963.02 335.706C957.094 335.273 944.792 340.337 941.382 348.294C937.973 356.252 939.011 367.684 940.347 370.722C941.68 373.761 939.901 376.655 939.16 378.68C938.419 380.705 939.901 382.729 941.234 385.335C942.569 387.938 940.347 390.977 940.347 390.977C942.569 389.821 943.605 386.637 942.718 383.889C941.829 381.137 941.382 380.126 941.962 378.039C942.539 375.949 943.013 374.627 943.31 371.446C943.605 368.262 942.864 361.896 944.643 357.556C946.422 353.213 953.387 348.294 953.387 348.294C955.464 354.517 958.427 359.436 962.28 360.737C966.135 362.039 968.507 363.921 969.247 365.801C969.988 367.684 968.801 371.155 969.247 375.35C969.691 379.548 971.47 379.691 972.803 381.573C974.139 383.453 970.432 386.782 969.542 388.229C968.652 389.676 969.247 392.134 970.283 394.016C971.321 395.896 970.58 398.066 970.58 398.066C972.359 397.343 972.062 393.871 971.47 390.977C970.878 388.084 973.1 387.36 974.433 385.19C975.769 383.02 973.99 379.981 973.692 378.389C973.395 376.797 975.799 371.381 976.689 371.813C977.202 372.065 977.812 375.051 978.289 378.594C978.052 380.064 978.016 381.544 978.24 383.002C978.24 383.002 978.623 383.88 978.963 385.282C978.987 385.682 979.011 386.074 979.03 386.447C979.069 387.277 979.242 388.241 979.467 389.178C979.494 391.037 979.203 393.115 978.24 395.131C975.477 400.918 972.013 398.982 972.781 407.601C973.55 416.222 971.315 423.156 968.652 427.565C965.99 431.976 965.941 444.846 971.4 452.11C971.4 452.11 972.305 446.412 976.361 444.692C980.417 442.973 986.753 434.529 986.334 429.169C985.912 423.809 989.595 408.395 998.974 406.821C998.974 406.821 999.584 402.074 997.015 393.779Z" fill="#8C4949"/>
<path d="M953.388 348.295C953.749 342.819 957.483 337.281 963.021 335.707C958.139 338.402 955.012 343.151 953.388 348.295Z" fill="#7A3D3D"/>
<path d="M957.097 347.138C964.104 349.821 962.874 353.165 966.854 357.923C968.199 359.738 970.397 360.186 972.328 361.102C974.787 362.593 976.448 365.427 976.363 368.261C976.087 365.884 974.678 363.601 972.723 362.198C970.409 360.752 968.057 360.918 966.183 358.493C962.155 353.663 963.764 350.675 957.097 347.138Z" fill="#7A3D3D"/>
<path d="M961.541 344.244C965.397 344.887 969.21 346.764 971.305 350.099C975.085 354.866 981.257 359.553 980.513 366.236C980.358 359.66 974.31 355.498 970.631 350.588C968.7 347.295 965.151 345.383 961.541 344.244Z" fill="#7A3D3D"/>
<path d="M961.541 339.76C968.069 338.992 975.222 340.463 979.852 345.292C982.126 347.474 984.09 350.048 985.235 352.974C985.742 354.329 986.103 355.779 986.103 357.228C986.076 358.049 986.097 359.055 986.188 359.873C986.613 364.406 987.709 369.12 986.44 373.617C987.521 368.1 985.265 362.568 985.298 357.053C984.876 351.69 981.039 347.193 976.964 343.854C972.644 340.567 966.9 339.65 961.541 339.76Z" fill="#7A3D3D"/>
<path d="M992.075 364.971C993.308 370.05 993.672 375.529 992.057 380.569C991.368 383.083 990.014 385.419 989.337 387.909C988.766 390.494 990.369 392.976 990.093 395.594C990.044 399.178 988.496 402.905 985.387 404.986C984.683 405.454 984.003 406.009 983.429 406.623C980.49 409.81 979.272 414.194 978.92 418.398C978.823 420.148 978.868 421.924 978.483 423.643C977.466 430.616 970.662 435.867 971.4 443.142C970.264 435.923 976.904 430.42 977.803 423.521C978.146 421.817 978.061 420.074 978.146 418.348C978.465 413.747 979.834 408.894 983.268 405.555C983.741 405.096 984.327 404.648 984.877 404.275C988.52 401.849 989.744 397.135 989.103 393.038C988.787 391.292 988.092 389.531 988.614 387.749C989.358 385.191 990.733 382.934 991.505 380.397C993.229 375.451 993.02 370.056 992.075 364.971Z" fill="#7A3D3D"/>
<path d="M982.814 384.096C985.528 392.699 982.161 393.929 978.873 400.87C978.212 402.334 978.275 403.799 978.142 405.382C977.398 408.323 976.181 409.061 976.363 412.63C975.804 409.82 976.578 408.281 977.392 405.737C977.595 404.347 977.31 402.877 977.768 401.504C977.826 401.237 977.978 400.834 978.066 400.573C981.351 393.242 984.441 393.443 982.814 384.096Z" fill="#7A3D3D"/>
<path d="M992.953 388.218C992.786 390.797 992.477 393.418 992.932 395.95C993.084 396.839 993.655 397.456 993.967 398.262C994.672 399.955 994.897 401.822 994.572 403.613C994.18 405.315 993.321 406.913 993.336 408.697C992.95 406.945 993.609 405.229 993.879 403.515C994.21 396.462 990.081 398.247 992.953 388.218Z" fill="#7A3D3D"/>
<path d="M986.865 410.566C984.956 413.038 983.067 415.967 983.201 419.157C983.717 423.925 983.93 429.877 981.31 434.099C983.119 429.528 982.752 424.414 982.381 419.617C982.093 416.086 984.339 412.869 986.865 410.566Z" fill="#7A3D3D"/>
<path d="M981.532 367.599C981.532 367.599 984.942 367.863 985.015 373.104C985.081 378.141 981.982 383.943 978.238 383.003C977.045 382.629 976.01 378.224 975.84 374.284C975.67 370.347 977.525 367.587 981.532 367.599Z" fill="#DE9681"/>
<path d="M978.847 379.248C977.338 372.435 980.915 370.502 981.066 370.422C981.252 370.324 981.479 370.395 981.58 370.573C981.677 370.754 981.607 370.976 981.425 371.074C981.321 371.131 979.421 372.189 979.248 375.61C980.301 374.404 981.98 374.19 982.071 374.178C982.278 374.155 982.466 374.3 982.493 374.501C982.518 374.706 982.369 374.89 982.162 374.913C982.065 374.925 979.81 375.222 979.278 377.104C979.33 377.709 979.427 378.367 979.588 379.091C979.627 379.271 979.524 379.452 979.348 379.515C979.333 379.52 979.315 379.526 979.296 379.529C979.093 379.574 978.89 379.446 978.847 379.248Z" fill="#BA6D5B"/>
<path d="M1030.83 296.652H913.587C908.31 296.652 904.032 300.827 904.032 305.976V317.438H1040.39V305.976C1040.39 300.827 1036.11 296.652 1030.83 296.652Z" fill="#8CCBFF"/>
<path d="M1031.34 306.584H1018.23C1017.42 306.584 1016.77 305.95 1016.77 305.164V304.939C1016.77 304.156 1017.42 303.521 1018.23 303.521H1031.34C1032.15 303.521 1032.8 304.156 1032.8 304.939V305.164C1032.8 305.95 1032.15 306.584 1031.34 306.584Z" fill="white"/>
<path d="M1031.34 313.217H1023.04C1022.23 313.217 1021.58 312.579 1021.58 311.797V311.571C1021.58 310.786 1022.23 310.151 1023.04 310.151H1031.34C1032.15 310.151 1032.8 310.789 1032.8 311.571V311.797C1032.8 312.579 1032.15 313.217 1031.34 313.217Z" fill="white"/>
<path d="M1030.83 535.13H913.588C907.907 535.13 903.286 530.62 903.286 525.076V305.977C903.286 300.433 907.907 295.924 913.588 295.924H1030.83C1036.52 295.924 1041.14 300.433 1041.14 305.977V525.076C1041.14 530.62 1036.52 535.13 1030.83 535.13ZM913.588 297.38C908.73 297.38 904.78 301.237 904.78 305.977V525.076C904.78 529.817 908.73 533.674 913.588 533.674H1030.83C1035.69 533.674 1039.64 529.817 1039.64 525.076V305.977C1039.64 301.237 1035.69 297.38 1030.83 297.38H913.588Z" fill="white"/>
<path d="M998.646 301.31H945.776C942.536 301.31 939.907 298.742 939.907 295.579V294.381H1004.51V295.579C1004.51 298.742 1001.89 301.31 998.646 301.31Z" fill="#303C72"/>
<path d="M914.766 329.732H796.763C792.971 329.732 789.896 332.736 789.896 336.439V369.857C789.896 373.563 792.971 376.563 796.763 376.563H902.747L921.634 398.689V336.439C921.634 332.736 918.558 329.732 914.766 329.732Z" fill="white"/>
<path d="M867.358 344.939H908.084C909.24 344.939 910.179 344.023 910.179 342.893V341.227C910.179 340.097 909.24 339.181 908.084 339.181H867.358C866.198 339.181 865.26 340.097 865.26 341.227V342.893C865.26 344.023 866.198 344.939 867.358 344.939Z" fill="#D4E7FF"/>
<path d="M802.021 344.939H854.545C855.705 344.939 856.643 344.023 856.643 342.893V341.227C856.643 340.097 855.705 339.181 854.545 339.181H802.021C800.864 339.181 799.926 340.097 799.926 341.227V342.893C799.926 344.023 800.864 344.939 802.021 344.939Z" fill="#D4E7FF"/>
<path d="M883.258 356.193H908.086C909.243 356.193 910.181 355.277 910.181 354.148V352.485C910.181 351.352 909.243 350.436 908.086 350.436H883.258C882.101 350.436 881.16 351.352 881.16 352.485V354.148C881.16 355.277 882.101 356.193 883.258 356.193Z" fill="#D4E7FF"/>
<path d="M859.391 356.193H871.101C872.26 356.193 873.198 355.277 873.198 354.148V352.485C873.198 351.352 872.26 350.436 871.101 350.436H859.391C858.234 350.436 857.296 351.352 857.296 352.485V354.148C857.296 355.277 858.234 356.193 859.391 356.193Z" fill="#D4E7FF"/>
<path d="M802.021 356.194H847.711C848.87 356.194 849.809 355.277 849.809 354.148V352.485C849.809 351.352 848.87 350.436 847.711 350.436H802.021C800.864 350.436 799.926 351.352 799.926 352.485V354.148C799.926 355.277 800.864 356.194 802.021 356.194Z" fill="#D4E7FF"/>
<path d="M894.033 367.45H908.087C909.244 367.45 910.182 366.534 910.182 365.401V363.738C910.182 362.606 909.244 361.689 908.087 361.689H894.033C892.877 361.689 891.938 362.606 891.938 363.738V365.401C891.938 366.534 892.877 367.45 894.033 367.45Z" fill="#D4E7FF"/>
<path d="M802.021 367.45H882.941C884.098 367.45 885.036 366.534 885.036 365.401V363.738C885.036 362.606 884.098 361.689 882.941 361.689H802.021C800.864 361.689 799.926 362.606 799.926 363.738V365.401C799.926 366.534 800.864 367.45 802.021 367.45Z" fill="#D4E7FF"/>
<path d="M882.555 377.535H796.765C792.429 377.535 788.901 374.09 788.901 369.857V336.438C788.901 332.205 792.429 328.763 796.765 328.763H893.024C893.573 328.763 894.017 329.196 894.017 329.732C894.017 330.269 893.573 330.705 893.024 330.705H796.765C793.528 330.705 790.893 333.275 790.893 336.438V369.857C790.893 373.02 793.528 375.593 796.765 375.593H882.555C883.105 375.593 883.551 376.026 883.551 376.563C883.551 377.1 883.105 377.535 882.555 377.535Z" fill="#8CCBFF"/>
<path d="M882.338 273.131H764.337C760.545 273.131 757.47 276.134 757.47 279.837V342.087L776.357 319.962H882.338C886.133 319.962 889.208 316.958 889.208 313.255V279.837C889.208 276.134 886.133 273.131 882.338 273.131Z" fill="white"/>
<path d="M836.156 288.432H771.296C770.136 288.432 769.198 287.516 769.198 286.386V284.72C769.198 283.59 770.136 282.674 771.296 282.674H836.156C837.313 282.674 838.251 283.59 838.251 284.72V286.386C838.251 287.516 837.313 288.432 836.156 288.432Z" fill="#D4E7FF"/>
<path d="M877.359 288.432H848.969C847.812 288.432 846.874 287.516 846.874 286.386V284.72C846.874 283.59 847.812 282.674 848.969 282.674H877.359C878.519 282.674 879.457 283.59 879.457 284.72V286.386C879.457 287.516 878.519 288.432 877.359 288.432Z" fill="#D4E7FF"/>
<path d="M795.32 299.685H771.296C770.139 299.685 769.198 298.768 769.198 297.639V295.973C769.198 294.843 770.139 293.927 771.296 293.927H795.32C796.477 293.927 797.415 294.843 797.415 295.973V297.639C797.415 298.768 796.477 299.685 795.32 299.685Z" fill="#D4E7FF"/>
<path d="M857.973 299.685H808.278C807.122 299.685 806.184 298.769 806.184 297.639V295.973C806.184 294.843 807.122 293.927 808.278 293.927H857.973C859.13 293.927 860.068 294.843 860.068 295.973V297.639C860.068 298.769 859.13 299.685 857.973 299.685Z" fill="#D4E7FF"/>
<path d="M877.358 299.685H869.653C868.493 299.685 867.555 298.768 867.555 297.639V295.973C867.555 294.843 868.493 293.927 869.653 293.927H877.358C878.518 293.927 879.456 294.843 879.456 295.973V297.639C879.456 298.768 878.518 299.685 877.358 299.685Z" fill="#D4E7FF"/>
<path d="M823.083 310.943H771.296C770.139 310.943 769.198 310.024 769.198 308.894V307.231C769.198 306.098 770.139 305.182 771.296 305.182H823.083C824.239 305.182 825.177 306.098 825.177 307.231V308.894C825.177 310.024 824.239 310.943 823.083 310.943Z" fill="#D4E7FF"/>
<path d="M877.36 310.943H834.178C833.018 310.943 832.08 310.024 832.08 308.894V307.231C832.08 306.098 833.018 305.182 834.178 305.182H877.36C878.52 305.182 879.458 306.098 879.458 307.231V308.894C879.458 310.024 878.52 310.943 877.36 310.943Z" fill="#D4E7FF"/>
<path d="M882.336 320.93H789.897C789.347 320.93 788.901 320.498 788.901 319.961C788.901 319.424 789.347 318.988 789.897 318.988H882.336C885.576 318.988 888.211 316.418 888.211 313.255V279.836C888.211 276.673 885.576 274.1 882.336 274.1H764.336C761.1 274.1 758.464 276.673 758.464 279.836V285.552C758.464 286.089 758.018 286.525 757.468 286.525C756.919 286.525 756.473 286.089 756.473 285.552V279.836C756.473 275.603 760.001 272.158 764.336 272.158H882.336C886.675 272.158 890.203 275.603 890.203 279.836V313.255C890.203 317.488 886.675 320.93 882.336 320.93Z" fill="#8CCBFF"/>
</svg>
