<svg width="1706" height="810" viewBox="0 0 1706 810" fill="none" xmlns="http://www.w3.org/2000/svg">
<rect x="0.558594" width="1705" height="810" fill="white"/>
<path d="M665.17 603.53H660.951L668.632 581.712H673.511L681.203 603.53H676.984L671.157 586.186H670.986L665.17 603.53ZM665.308 594.975H676.814V598.15H665.308V594.975ZM690.525 610.007C689.14 610.007 687.95 609.819 686.956 609.442C685.962 609.073 685.163 608.576 684.559 607.951C683.955 607.326 683.536 606.633 683.302 605.874L686.775 605.032C686.931 605.352 687.158 605.668 687.457 605.98C687.755 606.3 688.156 606.562 688.66 606.768C689.172 606.981 689.815 607.088 690.589 607.088C691.682 607.088 692.588 606.822 693.305 606.289C694.023 605.763 694.381 604.897 694.381 603.69V600.589H694.19C693.991 600.987 693.699 601.396 693.316 601.815C692.94 602.234 692.439 602.585 691.814 602.869C691.196 603.153 690.418 603.295 689.481 603.295C688.224 603.295 687.084 603.001 686.061 602.411C685.045 601.815 684.236 600.927 683.632 599.748C683.035 598.562 682.737 597.077 682.737 595.295C682.737 593.498 683.035 591.981 683.632 590.746C684.236 589.503 685.049 588.562 686.072 587.923C687.094 587.276 688.234 586.953 689.491 586.953C690.45 586.953 691.239 587.116 691.856 587.443C692.481 587.763 692.979 588.15 693.348 588.604C693.717 589.052 693.998 589.474 694.19 589.872H694.403V587.166H698.206V603.796C698.206 605.195 697.872 606.353 697.204 607.269C696.537 608.185 695.624 608.871 694.467 609.325C693.309 609.78 691.995 610.007 690.525 610.007ZM690.557 600.27C691.373 600.27 692.07 600.071 692.645 599.673C693.22 599.276 693.657 598.704 693.955 597.958C694.253 597.212 694.403 596.317 694.403 595.273C694.403 594.244 694.253 593.342 693.955 592.567C693.664 591.793 693.231 591.193 692.655 590.767C692.087 590.334 691.388 590.117 690.557 590.117C689.697 590.117 688.98 590.341 688.405 590.788C687.829 591.236 687.396 591.85 687.105 592.631C686.814 593.405 686.668 594.286 686.668 595.273C686.668 596.275 686.814 597.152 687.105 597.905C687.403 598.651 687.84 599.233 688.415 599.652C688.998 600.064 689.712 600.27 690.557 600.27ZM712.588 596.648V587.166H716.445V603.53H712.705V600.621H712.535C712.165 601.538 711.558 602.287 710.713 602.869C709.875 603.452 708.842 603.743 707.613 603.743C706.54 603.743 705.592 603.505 704.768 603.029C703.952 602.546 703.312 601.847 702.851 600.93C702.389 600.007 702.158 598.892 702.158 597.585V587.166H706.015V596.989C706.015 598.026 706.299 598.849 706.867 599.46C707.435 600.071 708.181 600.376 709.104 600.376C709.672 600.376 710.223 600.238 710.756 599.961C711.288 599.684 711.725 599.272 712.066 598.725C712.414 598.171 712.588 597.479 712.588 596.648ZM725.119 603.86C724.082 603.86 723.148 603.675 722.317 603.306C721.493 602.93 720.84 602.376 720.357 601.644C719.881 600.913 719.643 600.011 719.643 598.938C719.643 598.015 719.814 597.251 720.155 596.648C720.495 596.044 720.961 595.561 721.55 595.199C722.14 594.837 722.804 594.563 723.542 594.379C724.288 594.187 725.059 594.048 725.854 593.963C726.813 593.864 727.591 593.775 728.187 593.697C728.784 593.611 729.217 593.484 729.487 593.313C729.764 593.136 729.902 592.862 729.902 592.493V592.429C729.902 591.626 729.665 591.005 729.189 590.565C728.713 590.124 728.027 589.904 727.133 589.904C726.188 589.904 725.439 590.11 724.885 590.522C724.338 590.934 723.968 591.42 723.777 591.981L720.176 591.47C720.46 590.476 720.929 589.645 721.582 588.977C722.236 588.303 723.035 587.798 723.979 587.464C724.924 587.124 725.968 586.953 727.111 586.953C727.9 586.953 728.684 587.045 729.466 587.23C730.247 587.415 730.961 587.72 731.607 588.146C732.253 588.565 732.772 589.137 733.162 589.861C733.56 590.586 733.759 591.491 733.759 592.578V603.53H730.052V601.282H729.924C729.689 601.736 729.359 602.163 728.933 602.56C728.514 602.951 727.985 603.267 727.346 603.508C726.714 603.743 725.971 603.86 725.119 603.86ZM726.12 601.026C726.895 601.026 727.566 600.874 728.134 600.568C728.702 600.256 729.139 599.844 729.444 599.332C729.757 598.821 729.913 598.263 729.913 597.66V595.731C729.792 595.831 729.586 595.923 729.295 596.008C729.011 596.094 728.691 596.168 728.336 596.232C727.981 596.296 727.63 596.353 727.282 596.403C726.934 596.452 726.632 596.495 726.376 596.53C725.801 596.609 725.286 596.736 724.831 596.914C724.377 597.092 724.018 597.34 723.755 597.66C723.493 597.972 723.361 598.377 723.361 598.874C723.361 599.584 723.62 600.121 724.139 600.483C724.657 600.845 725.318 601.026 726.12 601.026ZM737.637 603.53V587.166H741.376V589.893H741.547C741.845 588.949 742.356 588.221 743.081 587.709C743.812 587.191 744.647 586.932 745.584 586.932C745.797 586.932 746.035 586.942 746.298 586.964C746.568 586.978 746.792 587.003 746.969 587.038V590.586C746.806 590.529 746.547 590.479 746.191 590.437C745.843 590.387 745.506 590.362 745.179 590.362C744.476 590.362 743.844 590.515 743.283 590.82C742.729 591.119 742.292 591.534 741.973 592.067C741.653 592.599 741.493 593.214 741.493 593.91V603.53H737.637ZM754.93 603.817C753.644 603.817 752.494 603.487 751.478 602.827C750.463 602.166 749.66 601.207 749.071 599.95C748.481 598.693 748.186 597.166 748.186 595.369C748.186 593.551 748.485 592.017 749.081 590.767C749.685 589.51 750.498 588.562 751.521 587.923C752.544 587.276 753.684 586.953 754.941 586.953C755.899 586.953 756.688 587.116 757.306 587.443C757.924 587.763 758.414 588.15 758.776 588.604C759.138 589.052 759.419 589.474 759.617 589.872H759.777V581.712H763.644V603.53H759.852V600.952H759.617C759.419 601.349 759.131 601.772 758.755 602.219C758.378 602.66 757.881 603.036 757.263 603.349C756.645 603.661 755.867 603.817 754.93 603.817ZM756.006 600.653C756.823 600.653 757.519 600.433 758.094 599.993C758.669 599.545 759.106 598.924 759.404 598.129C759.703 597.333 759.852 596.406 759.852 595.348C759.852 594.29 759.703 593.37 759.404 592.589C759.113 591.807 758.68 591.2 758.105 590.767C757.536 590.334 756.837 590.117 756.006 590.117C755.147 590.117 754.429 590.341 753.854 590.788C753.279 591.236 752.845 591.854 752.554 592.642C752.263 593.43 752.117 594.332 752.117 595.348C752.117 596.371 752.263 597.283 752.554 598.086C752.853 598.881 753.289 599.51 753.865 599.972C754.447 600.426 755.161 600.653 756.006 600.653ZM772.463 603.86C771.426 603.86 770.492 603.675 769.661 603.306C768.837 602.93 768.184 602.376 767.701 601.644C767.225 600.913 766.987 600.011 766.987 598.938C766.987 598.015 767.157 597.251 767.498 596.648C767.839 596.044 768.304 595.561 768.894 595.199C769.483 594.837 770.147 594.563 770.886 594.379C771.632 594.187 772.402 594.048 773.198 593.963C774.157 593.864 774.934 593.775 775.531 593.697C776.128 593.611 776.561 593.484 776.831 593.313C777.108 593.136 777.246 592.862 777.246 592.493V592.429C777.246 591.626 777.008 591.005 776.532 590.565C776.057 590.124 775.371 589.904 774.476 589.904C773.532 589.904 772.782 590.11 772.228 590.522C771.682 590.934 771.312 591.42 771.12 591.981L767.52 591.47C767.804 590.476 768.272 589.645 768.926 588.977C769.579 588.303 770.378 587.798 771.323 587.464C772.267 587.124 773.312 586.953 774.455 586.953C775.243 586.953 776.028 587.045 776.809 587.23C777.591 587.415 778.304 587.72 778.951 588.146C779.597 588.565 780.116 589.137 780.506 589.861C780.904 590.586 781.103 591.491 781.103 592.578V603.53H777.395V601.282H777.267C777.033 601.736 776.703 602.163 776.277 602.56C775.858 602.951 775.329 603.267 774.689 603.508C774.057 603.743 773.315 603.86 772.463 603.86ZM773.464 601.026C774.238 601.026 774.91 600.874 775.478 600.568C776.046 600.256 776.483 599.844 776.788 599.332C777.101 598.821 777.257 598.263 777.257 597.66V595.731C777.136 595.831 776.93 595.923 776.639 596.008C776.355 596.094 776.035 596.168 775.68 596.232C775.325 596.296 774.973 596.353 774.625 596.403C774.277 596.452 773.976 596.495 773.72 596.53C773.145 596.609 772.63 596.736 772.175 596.914C771.721 597.092 771.362 597.34 771.099 597.66C770.836 597.972 770.705 598.377 770.705 598.874C770.705 599.584 770.964 600.121 771.483 600.483C772.001 600.845 772.662 601.026 773.464 601.026ZM788.837 593.942V603.53H784.981V587.166H788.667V589.947H788.858C789.235 589.03 789.835 588.303 790.659 587.763C791.49 587.223 792.516 586.953 793.738 586.953C794.867 586.953 795.851 587.195 796.689 587.678C797.534 588.16 798.187 588.86 798.649 589.776C799.118 590.692 799.348 591.804 799.341 593.111V603.53H795.485V593.707C795.485 592.614 795.201 591.758 794.633 591.14C794.071 590.522 793.294 590.213 792.299 590.213C791.625 590.213 791.025 590.362 790.499 590.66C789.981 590.952 789.572 591.374 789.274 591.928C788.983 592.482 788.837 593.153 788.837 593.942ZM809.334 603.817C808.049 603.817 806.898 603.487 805.883 602.827C804.867 602.166 804.064 601.207 803.475 599.95C802.885 598.693 802.591 597.166 802.591 595.369C802.591 593.551 802.889 592.017 803.486 590.767C804.089 589.51 804.902 588.562 805.925 587.923C806.948 587.276 808.088 586.953 809.345 586.953C810.304 586.953 811.092 587.116 811.71 587.443C812.328 587.763 812.818 588.15 813.18 588.604C813.542 589.052 813.823 589.474 814.022 589.872H814.182V581.712H818.049V603.53H814.256V600.952H814.022C813.823 601.349 813.535 601.772 813.159 602.219C812.782 602.66 812.285 603.036 811.667 603.349C811.049 603.661 810.272 603.817 809.334 603.817ZM810.41 600.653C811.227 600.653 811.923 600.433 812.498 599.993C813.074 599.545 813.51 598.924 813.809 598.129C814.107 597.333 814.256 596.406 814.256 595.348C814.256 594.29 814.107 593.37 813.809 592.589C813.517 591.807 813.084 591.2 812.509 590.767C811.941 590.334 811.241 590.117 810.41 590.117C809.551 590.117 808.834 590.341 808.258 590.788C807.683 591.236 807.25 591.854 806.959 592.642C806.667 593.43 806.522 594.332 806.522 595.348C806.522 596.371 806.667 597.283 806.959 598.086C807.257 598.881 807.694 599.51 808.269 599.972C808.851 600.426 809.565 600.653 810.41 600.653ZM829.296 603.849C827.698 603.849 826.313 603.498 825.141 602.795C823.969 602.092 823.06 601.108 822.414 599.844C821.775 598.58 821.455 597.102 821.455 595.412C821.455 593.722 821.775 592.241 822.414 590.969C823.06 589.698 823.969 588.711 825.141 588.008C826.313 587.305 827.698 586.953 829.296 586.953C830.894 586.953 832.279 587.305 833.451 588.008C834.623 588.711 835.528 589.698 836.168 590.969C836.814 592.241 837.137 593.722 837.137 595.412C837.137 597.102 836.814 598.58 836.168 599.844C835.528 601.108 834.623 602.092 833.451 602.795C832.279 603.498 830.894 603.849 829.296 603.849ZM829.317 600.76C830.184 600.76 830.908 600.522 831.491 600.046C832.073 599.563 832.506 598.917 832.79 598.107C833.082 597.298 833.227 596.396 833.227 595.401C833.227 594.4 833.082 593.494 832.79 592.685C832.506 591.868 832.073 591.218 831.491 590.735C830.908 590.252 830.184 590.011 829.317 590.011C828.43 590.011 827.691 590.252 827.101 590.735C826.519 591.218 826.082 591.868 825.791 592.685C825.507 593.494 825.365 594.4 825.365 595.401C825.365 596.396 825.507 597.298 825.791 598.107C826.082 598.917 826.519 599.563 827.101 600.046C827.691 600.522 828.43 600.76 829.317 600.76ZM847.852 603.53V587.166H851.591V589.893H851.761C852.06 588.949 852.571 588.221 853.296 587.709C854.027 587.191 854.862 586.932 855.799 586.932C856.012 586.932 856.25 586.942 856.513 586.964C856.783 586.978 857.006 587.003 857.184 587.038V590.586C857.021 590.529 856.761 590.479 856.406 590.437C856.058 590.387 855.721 590.362 855.394 590.362C854.691 590.362 854.059 590.515 853.498 590.82C852.944 591.119 852.507 591.534 852.188 592.067C851.868 592.599 851.708 593.214 851.708 593.91V603.53H847.852ZM866.317 603.849C864.676 603.849 863.259 603.508 862.066 602.827C860.88 602.138 859.967 601.165 859.328 599.908C858.689 598.643 858.369 597.155 858.369 595.444C858.369 593.761 858.689 592.283 859.328 591.012C859.974 589.734 860.876 588.739 862.034 588.029C863.192 587.312 864.552 586.953 866.114 586.953C867.123 586.953 868.074 587.116 868.969 587.443C869.871 587.763 870.667 588.26 871.356 588.935C872.052 589.609 872.599 590.469 872.996 591.513C873.394 592.55 873.593 593.785 873.593 595.22V596.403H860.18V593.803H869.896C869.889 593.065 869.729 592.408 869.417 591.832C869.104 591.25 868.668 590.792 868.106 590.458C867.552 590.124 866.906 589.957 866.168 589.957C865.379 589.957 864.687 590.149 864.09 590.533C863.494 590.909 863.028 591.406 862.695 592.024C862.368 592.635 862.201 593.306 862.194 594.038V596.307C862.194 597.258 862.368 598.075 862.716 598.757C863.064 599.432 863.55 599.95 864.175 600.312C864.8 600.668 865.532 600.845 866.37 600.845C866.931 600.845 867.439 600.767 867.893 600.611C868.348 600.447 868.742 600.209 869.076 599.897C869.41 599.584 869.662 599.197 869.832 598.736L873.433 599.141C873.206 600.092 872.773 600.923 872.133 601.633C871.501 602.337 870.692 602.883 869.704 603.274C868.717 603.658 867.588 603.849 866.317 603.849ZM889.789 591.491L886.273 591.875C886.174 591.52 886 591.186 885.751 590.874C885.51 590.561 885.183 590.309 884.771 590.117C884.359 589.925 883.855 589.83 883.258 589.83C882.456 589.83 881.781 590.004 881.234 590.352C880.694 590.7 880.428 591.151 880.435 591.705C880.428 592.18 880.602 592.567 880.957 592.866C881.319 593.164 881.916 593.409 882.747 593.601L885.538 594.197C887.086 594.531 888.237 595.06 888.99 595.785C889.75 596.509 890.133 597.457 890.14 598.629C890.133 599.659 889.831 600.568 889.235 601.356C888.645 602.138 887.825 602.749 886.774 603.189C885.723 603.629 884.515 603.849 883.152 603.849C881.149 603.849 879.537 603.43 878.315 602.592C877.093 601.747 876.366 600.572 876.131 599.066L879.892 598.704C880.062 599.442 880.424 600 880.978 600.376C881.532 600.753 882.253 600.941 883.141 600.941C884.057 600.941 884.792 600.753 885.346 600.376C885.907 600 886.188 599.535 886.188 598.981C886.188 598.512 886.007 598.125 885.645 597.82C885.29 597.514 884.736 597.28 883.983 597.116L881.191 596.53C879.622 596.204 878.461 595.653 877.708 594.879C876.955 594.098 876.582 593.111 876.589 591.918C876.582 590.909 876.856 590.035 877.41 589.297C877.971 588.551 878.748 587.976 879.743 587.571C880.744 587.159 881.898 586.953 883.205 586.953C885.123 586.953 886.632 587.361 887.733 588.178C888.841 588.995 889.526 590.099 889.789 591.491ZM893.32 609.666V587.166H897.113V589.872H897.337C897.536 589.474 897.816 589.052 898.178 588.604C898.541 588.15 899.031 587.763 899.649 587.443C900.266 587.116 901.055 586.953 902.014 586.953C903.278 586.953 904.418 587.276 905.433 587.923C906.456 588.562 907.266 589.51 907.862 590.767C908.466 592.017 908.768 593.551 908.768 595.369C908.768 597.166 908.473 598.693 907.884 599.95C907.294 601.207 906.492 602.166 905.476 602.827C904.46 603.487 903.31 603.817 902.024 603.817C901.087 603.817 900.309 603.661 899.691 603.349C899.073 603.036 898.576 602.66 898.2 602.219C897.83 601.772 897.543 601.349 897.337 600.952H897.177V609.666H893.32ZM897.102 595.348C897.102 596.406 897.252 597.333 897.55 598.129C897.855 598.924 898.292 599.545 898.86 599.993C899.435 600.433 900.131 600.653 900.948 600.653C901.801 600.653 902.514 600.426 903.09 599.972C903.665 599.51 904.098 598.881 904.389 598.086C904.688 597.283 904.837 596.371 904.837 595.348C904.837 594.332 904.691 593.43 904.4 592.642C904.109 591.854 903.676 591.236 903.1 590.788C902.525 590.341 901.808 590.117 900.948 590.117C900.124 590.117 899.425 590.334 898.85 590.767C898.274 591.2 897.837 591.807 897.539 592.589C897.248 593.37 897.102 594.29 897.102 595.348ZM919.208 603.849C917.61 603.849 916.225 603.498 915.053 602.795C913.881 602.092 912.972 601.108 912.326 599.844C911.687 598.58 911.367 597.102 911.367 595.412C911.367 593.722 911.687 592.241 912.326 590.969C912.972 589.698 913.881 588.711 915.053 588.008C916.225 587.305 917.61 586.953 919.208 586.953C920.806 586.953 922.191 587.305 923.363 588.008C924.535 588.711 925.44 589.698 926.08 590.969C926.726 592.241 927.049 593.722 927.049 595.412C927.049 597.102 926.726 598.58 926.08 599.844C925.44 601.108 924.535 602.092 923.363 602.795C922.191 603.498 920.806 603.849 919.208 603.849ZM919.229 600.76C920.096 600.76 920.82 600.522 921.403 600.046C921.985 599.563 922.418 598.917 922.703 598.107C922.994 597.298 923.139 596.396 923.139 595.401C923.139 594.4 922.994 593.494 922.703 592.685C922.418 591.868 921.985 591.218 921.403 590.735C920.82 590.252 920.096 590.011 919.229 590.011C918.342 590.011 917.603 590.252 917.014 590.735C916.431 591.218 915.994 591.868 915.703 592.685C915.419 593.494 915.277 594.4 915.277 595.401C915.277 596.396 915.419 597.298 915.703 598.107C915.994 598.917 916.431 599.563 917.014 600.046C917.603 600.522 918.342 600.76 919.229 600.76ZM943.256 591.491L939.74 591.875C939.641 591.52 939.467 591.186 939.218 590.874C938.976 590.561 938.65 590.309 938.238 590.117C937.826 589.925 937.322 589.83 936.725 589.83C935.922 589.83 935.248 590.004 934.701 590.352C934.161 590.7 933.895 591.151 933.902 591.705C933.895 592.18 934.069 592.567 934.424 592.866C934.786 593.164 935.383 593.409 936.214 593.601L939.005 594.197C940.553 594.531 941.704 595.06 942.457 595.785C943.217 596.509 943.6 597.457 943.607 598.629C943.6 599.659 943.298 600.568 942.702 601.356C942.112 602.138 941.292 602.749 940.241 603.189C939.19 603.629 937.982 603.849 936.619 603.849C934.616 603.849 933.003 603.43 931.782 602.592C930.56 601.747 929.832 600.572 929.598 599.066L933.359 598.704C933.529 599.442 933.891 600 934.445 600.376C934.999 600.753 935.72 600.941 936.608 600.941C937.524 600.941 938.259 600.753 938.813 600.376C939.374 600 939.655 599.535 939.655 598.981C939.655 598.512 939.474 598.125 939.111 597.82C938.756 597.514 938.202 597.28 937.449 597.116L934.658 596.53C933.089 596.204 931.927 595.653 931.175 594.879C930.422 594.098 930.049 593.111 930.056 591.918C930.049 590.909 930.322 590.035 930.876 589.297C931.437 588.551 932.215 587.976 933.209 587.571C934.211 587.159 935.365 586.953 936.672 586.953C938.589 586.953 940.099 587.361 941.199 588.178C942.307 588.995 942.993 590.099 943.256 591.491ZM954.958 587.166V590.149H945.551V587.166H954.958ZM947.874 583.246H951.73V598.608C951.73 599.126 951.809 599.524 951.965 599.801C952.128 600.071 952.341 600.256 952.604 600.355C952.867 600.455 953.158 600.504 953.478 600.504C953.719 600.504 953.939 600.486 954.138 600.451C954.344 600.415 954.5 600.383 954.607 600.355L955.257 603.37C955.051 603.441 954.756 603.519 954.372 603.604C953.996 603.69 953.534 603.739 952.987 603.754C952.022 603.782 951.152 603.636 950.377 603.317C949.603 602.99 948.989 602.486 948.534 601.804C948.087 601.122 947.867 600.27 947.874 599.247V583.246ZM962.892 603.86C961.856 603.86 960.922 603.675 960.091 603.306C959.267 602.93 958.613 602.376 958.13 601.644C957.655 600.913 957.417 600.011 957.417 598.938C957.417 598.015 957.587 597.251 957.928 596.648C958.269 596.044 958.734 595.561 959.324 595.199C959.913 594.837 960.577 594.563 961.316 594.379C962.062 594.187 962.832 594.048 963.628 593.963C964.586 593.864 965.364 593.775 965.961 593.697C966.557 593.611 966.991 593.484 967.26 593.313C967.537 593.136 967.676 592.862 967.676 592.493V592.429C967.676 591.626 967.438 591.005 966.962 590.565C966.486 590.124 965.801 589.904 964.906 589.904C963.961 589.904 963.212 590.11 962.658 590.522C962.111 590.934 961.742 591.42 961.55 591.981L957.949 591.47C958.233 590.476 958.702 589.645 959.356 588.977C960.009 588.303 960.808 587.798 961.753 587.464C962.697 587.124 963.741 586.953 964.885 586.953C965.673 586.953 966.458 587.045 967.239 587.23C968.02 587.415 968.734 587.72 969.38 588.146C970.027 588.565 970.545 589.137 970.936 589.861C971.334 590.586 971.532 591.491 971.532 592.578V603.53H967.825V601.282H967.697C967.463 601.736 967.133 602.163 966.706 602.56C966.287 602.951 965.758 603.267 965.119 603.508C964.487 603.743 963.745 603.86 962.892 603.86ZM963.894 601.026C964.668 601.026 965.339 600.874 965.907 600.568C966.476 600.256 966.912 599.844 967.218 599.332C967.53 598.821 967.687 598.263 967.687 597.66V595.731C967.566 595.831 967.36 595.923 967.069 596.008C966.785 596.094 966.465 596.168 966.11 596.232C965.755 596.296 965.403 596.353 965.055 596.403C964.707 596.452 964.405 596.495 964.15 596.53C963.574 596.609 963.059 596.736 962.605 596.914C962.15 597.092 961.792 597.34 961.529 597.66C961.266 597.972 961.135 598.377 961.135 598.874C961.135 599.584 961.394 600.121 961.912 600.483C962.431 600.845 963.091 601.026 963.894 601.026ZM977.786 603.764C977.14 603.764 976.586 603.537 976.124 603.082C975.662 602.628 975.435 602.074 975.442 601.42C975.435 600.781 975.662 600.234 976.124 599.78C976.586 599.325 977.14 599.098 977.786 599.098C978.411 599.098 978.954 599.325 979.416 599.78C979.885 600.234 980.123 600.781 980.13 601.42C980.123 601.854 980.009 602.248 979.789 602.603C979.576 602.958 979.292 603.242 978.937 603.455C978.589 603.661 978.205 603.764 977.786 603.764ZM986.487 603.764C985.841 603.764 985.287 603.537 984.825 603.082C984.364 602.628 984.136 602.074 984.143 601.42C984.136 600.781 984.364 600.234 984.825 599.78C985.287 599.325 985.841 599.098 986.487 599.098C987.112 599.098 987.655 599.325 988.117 599.78C988.586 600.234 988.824 600.781 988.831 601.42C988.824 601.854 988.71 602.248 988.49 602.603C988.277 602.958 987.993 603.242 987.638 603.455C987.29 603.661 986.906 603.764 986.487 603.764ZM995.188 603.764C994.542 603.764 993.988 603.537 993.526 603.082C993.065 602.628 992.837 602.074 992.845 601.42C992.837 600.781 993.065 600.234 993.526 599.78C993.988 599.325 994.542 599.098 995.188 599.098C995.813 599.098 996.357 599.325 996.818 599.78C997.287 600.234 997.525 600.781 997.532 601.42C997.525 601.854 997.411 602.248 997.191 602.603C996.978 602.958 996.694 603.242 996.339 603.455C995.991 603.661 995.607 603.764 995.188 603.764Z" fill="#5A7DA0"/>
<path d="M1055.45 409.673C1052.53 476.916 998.953 529.851 933.914 529.851H661.342C622.764 529.851 596.26 489.567 610.541 452.481C629.578 401.811 691.611 439.306 663.189 396.694C635.639 355.38 619.236 304.965 642.746 280.681C697.169 224.47 761.413 299.021 796.725 288.22C807.988 284.538 852.709 255.431 870.1 250.216C980.922 208.899 1064.96 306.679 1055.45 409.673Z" fill="#E3F0FF"/>
<path d="M628.994 393.296C632.007 387.162 605.359 355.899 593.121 363.868C580.883 371.838 579.611 388.01 597.859 393.88C615.107 399.427 625.985 399.43 628.994 393.296Z" fill="#E3F0FF"/>
<path d="M688.647 262.093L684.912 239.976C684.826 239.484 684.348 239.149 683.839 239.229C683.333 239.312 682.988 239.778 683.07 240.27L686.72 261.874L670.963 274.631C670.567 274.951 670.512 275.523 670.841 275.909C671.027 276.122 671.292 276.235 671.561 276.235C671.771 276.235 671.981 276.167 672.155 276.024L688.321 262.935C688.577 262.73 688.699 262.407 688.647 262.093Z" fill="#C7DEFF"/>
<path d="M713.484 273.328L691.785 265.756C691.474 265.649 691.127 265.708 690.874 265.913L674.708 279.002C674.312 279.322 674.257 279.895 674.586 280.28C674.772 280.493 675.037 280.606 675.303 280.606C675.513 280.606 675.727 280.538 675.9 280.396L691.657 267.638L712.853 275.035C713.338 275.204 713.871 274.958 714.045 274.487C714.219 274.015 713.969 273.497 713.484 273.328Z" fill="#C7DEFF"/>
<path d="M681.663 260.641C681.739 261.086 682.132 261.4 682.58 261.4C682.632 261.4 682.681 261.397 682.733 261.388C683.242 261.308 683.586 260.843 683.501 260.347L680.644 243.428C680.562 242.936 680.08 242.601 679.574 242.681C679.065 242.764 678.721 243.23 678.806 243.722L681.663 260.641Z" fill="#C7DEFF"/>
<path d="M709.213 276.78L692.612 270.987C692.127 270.818 691.597 271.064 691.42 271.536C691.246 272.007 691.499 272.526 691.984 272.695L708.585 278.488C708.689 278.523 708.795 278.541 708.899 278.541C709.28 278.541 709.64 278.31 709.777 277.939C709.951 277.468 709.698 276.949 709.213 276.78Z" fill="#C7DEFF"/>
<path d="M897.567 400.875L875.002 396.292C874.496 396.188 874.002 396.502 873.898 396.994C873.792 397.484 874.115 397.964 874.618 398.065L896.664 402.544L903.223 421.433C903.387 421.907 903.918 422.162 904.406 422.002C904.677 421.91 904.881 421.711 904.976 421.468C905.052 421.278 905.061 421.062 904.991 420.852L898.259 401.474C898.152 401.169 897.89 400.943 897.567 400.875Z" fill="#C7DEFF"/>
<path d="M917.304 382.404L902.218 399.35C902.001 399.594 901.934 399.929 902.038 400.234L908.77 419.611C908.935 420.086 909.465 420.341 909.953 420.181C910.224 420.092 910.429 419.89 910.523 419.647C910.599 419.457 910.609 419.241 910.538 419.03L903.977 400.145L918.713 383.59C919.051 383.211 919.008 382.641 918.618 382.312C918.231 381.986 917.642 382.028 917.304 382.404Z" fill="#C7DEFF"/>
<path d="M919.079 387.519L907.536 400.483C907.198 400.863 907.24 401.435 907.631 401.761C908.021 402.09 908.609 402.048 908.945 401.669L920.487 388.705C920.561 388.625 920.615 388.533 920.652 388.438C920.789 388.091 920.698 387.685 920.393 387.427C920.003 387.101 919.414 387.139 919.079 387.519Z" fill="#C7DEFF"/>
<path d="M778.053 478.592C778.053 478.592 670.993 201.139 594.28 272.494C579.599 290.478 596.807 321.204 628.418 356.837C660.029 392.467 751.975 485.094 765.003 499.79L778.053 478.592Z" fill="#5A789F"/>
<path d="M778.052 478.592C778.052 478.592 711.796 306.89 646.181 268.375C647.632 272.052 648.522 276.022 647.123 278.542C643.915 284.317 629.451 286.964 625.317 296.546C621.78 304.75 627.399 336.416 614.71 340.507C618.881 345.811 623.473 351.263 628.418 356.837C660.029 392.467 751.975 485.094 765.003 499.79L778.052 478.592Z" fill="#5A789F"/>
<path d="M606.62 274.738C614.069 280.57 621.2 286.787 628.203 293.117C669.037 330.434 705.216 372.802 734.296 419.426C739.888 428.447 745.342 437.914 750.284 447.291C752.364 451.199 754.684 455.835 756.635 459.808C757.898 462.441 759.684 466.215 760.882 468.877L761.709 470.698L762.511 472.533L763.312 474.365L764.108 476.2C754.562 457.092 743.94 438.542 732.29 420.629C720.655 402.705 708.078 385.379 694.755 368.607C674.754 343.458 653.125 319.514 630.164 296.867C622.505 289.334 614.681 281.863 606.62 274.738Z" fill="#5AA5D1"/>
<path d="M617.826 406.52C617.826 406.52 597.179 398.328 583.2 414.382C571.413 427.922 590.334 464.679 609.875 482.47C609.875 482.47 590.706 494.145 590.057 507.596C589.407 521.044 611.966 535.239 643.897 539.253L647.123 425.195L617.826 406.52Z" fill="#5A789F"/>
<path d="M615.477 405.77C617.406 416.707 618.812 433.686 621.791 452.156C626.471 481.181 637.188 523.312 600.692 524.267C610.22 531.249 625.501 536.941 643.898 539.254L647.124 425.195L617.827 406.52C617.827 406.52 616.964 406.176 615.477 405.77Z" fill="#5A789F"/>
<path d="M593.022 416.605C608.367 431.85 623.164 447.699 637.734 463.643C641.966 468.253 646.463 473.059 650.576 477.755C658.488 486.86 666.132 496.267 673.275 505.956C673.647 506.472 674.022 506.982 674.391 507.5L674.16 507.687C663.446 496.896 653.092 485.481 643.231 473.949C640.119 470.249 636.512 466.015 633.347 462.357C623.359 450.877 613.264 439.392 603.077 428.081C599.675 424.304 596.26 420.536 592.806 416.807L593.022 416.605Z" fill="#5AA5D1"/>
<path d="M602.921 507.45C610.745 507.96 618.639 507.604 626.398 506.563C630.261 506.036 634.093 505.345 637.847 504.319C640.95 503.465 643.99 502.419 647.027 501.372C650.362 500.216 653.646 498.912 656.841 497.42C658.915 496.451 660.906 495.41 662.936 494.334L663.122 494.562C662.119 495.627 660.985 496.649 659.835 497.563C654.756 501.565 648.713 504.429 642.38 505.979C632.057 508.449 621.346 509.285 610.751 508.585C608.114 508.408 605.489 508.156 602.882 507.737L602.921 507.45Z" fill="#5AA5D1"/>
<mask id="mask0_1949_925" style="mask-type:luminance" maskUnits="userSpaceOnUse" x="634" y="289" width="152" height="253">
<path d="M634.594 289.67H785.234V541.008H634.594V289.67Z" fill="white"/>
</mask>
<g mask="url(#mask0_1949_925)">
<path d="M773.206 540.976H646.714C640.332 540.976 635.158 535.947 635.158 529.742V301.313C635.158 295.108 640.332 290.077 646.714 290.077H773.206C779.591 290.077 784.765 295.108 784.765 301.313V529.742C784.765 535.947 779.591 540.976 773.206 540.976Z" fill="#303C72"/>
</g>
<path d="M768.83 534.402H651.084C645.785 534.402 641.489 530.225 641.489 525.075V305.976C641.489 300.827 645.785 296.652 651.084 296.652H768.83C774.129 296.652 778.422 300.827 778.422 305.976V525.075C778.422 530.225 774.129 534.402 768.83 534.402Z" fill="#D4EBFF"/>
<path d="M768.83 296.652H651.084C645.785 296.652 641.489 300.827 641.489 305.976V317.438H778.422V305.976C778.422 300.827 774.129 296.652 768.83 296.652Z" fill="#8CCBFF"/>
<path d="M737.948 408.2C737.948 408.2 751.592 398.98 762.263 416.255C772.937 433.534 784.715 467.824 788.047 478.482C791.38 489.137 778.556 494.797 770.626 486.664C762.693 478.532 742.985 441.63 738.475 432.552C733.966 423.474 731.216 413.332 737.948 408.2Z" fill="#9E5959"/>
<path d="M773.968 472.566L784.947 469.086C783.907 466.065 781.37 459.012 781.37 459.012C781.37 459.012 775.279 466.566 773.968 472.566Z" fill="#914D4D"/>
<path d="M761.177 473.334C761.126 469.8 761.092 464.179 761.251 458.469C761.51 449.068 759.985 427.847 759.985 427.847L747.149 448.985C751.442 456.851 756.564 465.902 761.177 473.334Z" fill="#914D4D"/>
<path d="M739.755 405.742C739.755 405.742 728.139 410.699 733.965 425.493C739.792 440.29 758.503 471.057 764.104 480.408C769.705 489.759 777.723 494.203 783.827 491.054C789.931 487.903 790.279 482.421 787.846 474.016C785.409 465.614 769.461 427.138 765.445 419.273C761.427 411.41 751.201 399.72 739.755 405.742Z" fill="white"/>
<path d="M780.289 453.935C776.731 458.473 772.262 469.564 772.262 469.564L784.442 464.471C783.234 461.322 781.811 457.714 780.289 453.935Z" fill="#D4EBFF"/>
<path d="M764.048 480.312C764.164 473.597 764.356 458.572 763.984 450.113C763.499 438.987 761.282 425.494 761.282 425.494L752.489 460.84C757.325 469.165 761.749 476.476 764.048 480.312Z" fill="#D4EBFF"/>
<path d="M814.278 430.159C814.278 430.159 823.604 433.542 828.611 444.547L824.123 448.134L811.583 435.789L814.278 430.159Z" fill="#ABD3FC"/>
<path d="M776.32 489.979C780.558 491.406 785.265 490.137 788.278 486.905C796.446 478.138 823.349 448.966 828.898 439.206C835.462 427.664 826.84 425.995 818.819 433.155C810.8 440.314 797.68 451.156 791.567 456.152C781.616 464.287 771.908 470.344 768.792 476.505C766.609 480.816 769.975 487.845 776.32 489.979Z" fill="#9E5959"/>
<path d="M821.169 449.846C816.995 454.684 808.906 445.535 811.683 441.038C811.729 440.967 820.019 430.964 821.135 427.201C822.309 423.238 821.736 421.316 825.931 417.8C829.501 414.812 831.886 412.781 833.681 413.06C835.584 413.356 833.94 415.826 832.007 417.486C829.916 419.286 826.757 424.592 829.742 424.447C832.12 424.329 839.752 422.787 842.057 421.785C845.813 420.151 855.213 411.293 857.426 415.965C857.426 415.965 859.862 415.571 859.698 418.31C859.698 418.31 862.643 419.226 859.966 422.609C859.966 422.609 861.682 424.121 859.969 426.066C858.807 427.385 853.725 431.886 850.353 434.421C846.984 436.955 833.346 438.61 828.52 441.444C826.983 442.348 822.123 448.74 821.169 449.846Z" fill="#F6AF9A"/>
<path d="M828.531 423.568C828.751 426.385 829.723 428.668 828.763 431.496C831.138 429.263 829.05 425.946 828.531 423.568Z" fill="#E57E73"/>
<path d="M859.966 422.608C858.557 422.386 857.469 423.504 856.45 424.257C853.28 426.581 850.295 429.252 846.972 431.307C850.92 430.385 853.566 426.857 856.673 424.512C857.569 423.625 858.792 422.635 859.966 422.608Z" fill="#E57E73"/>
<path d="M859.701 418.31C856.725 418.57 854.57 420.859 852.259 422.454C849.917 424.019 847.835 426.332 845.481 427.604C846.951 427.435 848.204 426.492 849.311 425.594C852.686 423.172 855.689 419.362 859.701 418.31Z" fill="#E57E73"/>
<path d="M857.43 415.966C852.027 416.74 848.484 421.584 844.012 424.113C849.164 422.823 852.231 416.956 857.43 415.966Z" fill="#E57E73"/>
<path d="M844.902 432.281C839.219 430.508 831.578 429.322 826.624 433.292C832.069 430.185 838.953 431.436 844.902 432.281Z" fill="#EA9A88"/>
<path d="M843.647 423.965C844.678 424.833 845.007 426.176 845.33 427.413C846.361 428.355 846.565 429.891 846.824 431.19C847.348 431.563 847.361 432.301 847.367 432.876C847.223 432.289 847.001 431.658 846.47 431.364C846.04 430.214 845.766 428.696 844.842 427.848C844.272 426.751 844.3 425.198 843.351 424.246C843.056 423.645 842.876 422.933 842.357 422.441C842.952 422.779 843.345 423.369 843.647 423.965Z" fill="#EA9A88"/>
<path d="M814.28 430.159C814.28 430.159 817.883 441.588 828.613 444.547C828.613 444.547 798.194 481.238 790.279 487.627C782.367 494.019 770.476 491.138 766.256 481.71C762.192 472.629 814.28 430.159 814.28 430.159Z" fill="white"/>
<path d="M725.817 511.353C712.536 515.592 707.152 525.26 705.542 534.403H756.361C755.297 528.483 754.099 524.018 752.76 521.714C744.361 507.243 725.817 511.353 725.817 511.353Z" fill="#F6AF9A"/>
<path d="M726.261 504.978C710.813 507.984 702.937 518.191 702.416 534.402H760.202C760.113 533.789 760.025 533.193 759.937 532.615C755.641 504.729 726.261 504.978 726.261 504.978Z" fill="#384682"/>
<path d="M687.765 469.99C689.631 490.518 683.984 502.925 681.567 515.407C680.292 521.991 679.951 528.493 680.835 534.402H749.405C753.618 524.903 752.877 515.543 753.015 510.479C753.249 501.956 753.957 487.722 753.957 487.722C756.454 450.079 685.902 449.459 687.765 469.99Z" fill="#F6AF9A"/>
<path d="M683.251 504.245C683.251 504.245 676.614 520.198 679.065 534.402H750.613C754.507 521.497 754.217 504.977 754.217 504.977C745.098 506.406 683.251 504.245 683.251 504.245Z" fill="#384682"/>
<path d="M678.327 534.402H728.841C728.604 511.364 708.984 509.816 708.984 509.816C693.569 508.239 682.141 512.781 678.327 534.402Z" fill="#F6AF9A"/>
<path d="M675.721 534.35C675.718 534.367 675.718 534.385 675.715 534.403H734.245C733.921 517.907 723.089 507.249 704.975 505.002C704.975 505.002 679.063 503.087 675.721 534.35Z" fill="#384682"/>
<path d="M702.285 398.094C714.606 396.084 724.438 397.727 736.036 401.03C743.796 403.238 752.11 405.367 755.867 410.472C762.461 419.435 759.455 441.575 757.769 451.824C756.083 462.07 754.806 483.499 753.882 489.005C752.958 494.51 727.835 503.152 712.456 500.902C700.666 499.177 689.876 493.558 688.339 483.06C686.531 470.68 683.452 452.93 679.879 442.144C676.305 431.362 670.692 408.904 688.394 401.388C691.715 399.98 699.041 398.622 702.285 398.094Z" fill="#F6AF9A"/>
<path d="M731.357 386.68C731.357 386.68 730.957 397.865 733.509 402.991C736.058 408.115 727.329 411.302 721.655 411.254C715.981 411.207 707.267 408.117 706.249 401.474C705.234 394.827 709.414 397.341 708.624 379.277C708.008 365.15 732.945 372.76 731.357 386.68Z" fill="#F6AF9A"/>
<path d="M732.709 400.898C731.047 395.328 731.355 386.68 731.355 386.68C732.614 375.628 717.154 368.554 711.041 373.185C710.791 374.759 710.675 376.532 710.724 378.533C710.748 379.574 721.157 399.11 732.709 400.898Z" fill="#EA9A88"/>
<path d="M758.977 507.282C758.142 501.169 758.977 471.213 759.096 466.917C759.215 462.618 761.499 440.092 761.255 433.359C761.008 426.624 759.081 413.131 757.358 409.078C755.633 405.029 742.629 401.933 735.821 400.899L732.464 399.98C732.464 399.98 733.54 403.766 727.799 404.726C719.348 406.14 710.158 401.13 706.353 397.552C706.353 397.552 704.112 397.273 702.594 397.549C702.594 397.549 687.892 399.837 684.041 401.343C680.191 402.849 674.651 409.44 674.413 420.703C674.172 431.966 680.026 453.013 681.697 463.795C683.371 474.581 682.294 493.042 681.578 499.428C680.861 505.814 673.934 526.134 673.815 534.145C673.815 534.145 674.694 534.243 676.245 534.403H744.452C754.105 533.442 761.249 532.603 761.843 532.171C761.843 532.171 760.063 526.947 759.938 522.651C759.813 518.355 759.813 513.395 758.977 507.282Z" fill="#85B9F1"/>
<path d="M726.887 406.846C730.631 406.804 735.97 414.519 735.97 414.519C737.647 411.572 739.211 405.304 740.025 401.658C738.491 401.34 737.052 401.085 735.82 400.899L732.464 399.98C732.464 399.98 733.54 403.766 727.799 404.726C719.347 406.14 710.158 401.13 706.353 397.552C706.353 397.552 704.112 397.273 702.593 397.549C702.593 397.549 701.697 397.688 700.292 397.922L698.355 400.825L721.893 419.286C721.893 419.286 721.823 418.064 722.652 413.955C723.988 407.323 726.887 406.846 726.887 406.846Z" fill="#75AEEB"/>
<path d="M695.624 460.584C697.512 446.56 698.246 421.654 698.246 421.654C698.246 421.654 685.374 426.581 674.922 428.502C676.355 440 680.361 455.176 681.697 463.794C683.371 474.577 682.294 493.041 681.578 499.427C680.861 505.813 673.934 526.134 673.815 534.144C673.815 534.144 674.694 534.242 676.245 534.402H698.475C685.694 527.655 686.423 507.883 688.109 496.961C690.09 484.1 694.197 471.194 695.624 460.584Z" fill="#75AEEB"/>
<path d="M727.417 408.971C729.17 408.909 729.551 405.992 729.621 404.254C729.106 404.447 728.502 404.607 727.795 404.726C726.343 404.969 724.868 405.022 723.404 404.927C724.035 406.294 725.542 409.036 727.417 408.971Z" fill="#384682"/>
<path d="M725.956 407.301C725.956 407.301 735.158 448.232 735.969 457.245L741.685 467.82L744.091 453.933C744.091 453.933 734.533 420.806 728.221 406.889L725.956 407.301Z" fill="#384682"/>
<path d="M726.478 404.894C726.478 404.894 731.219 402.623 732.46 399.979C732.46 399.979 734.506 399.916 735.353 400.325C735.353 400.325 736.734 407.322 735.353 411.787C735.353 411.787 730.664 405.614 726.972 405.926C723.271 406.24 720.865 414.689 720.865 414.689C720.865 414.689 707.719 404.689 706.091 397.577L706.463 397.162C706.463 397.162 717.692 403.551 726.478 404.894Z" fill="#96C3F2"/>
<path d="M751.023 346.905C751.023 346.905 752.85 355.36 750.295 365.28L744.651 346.57L751.023 346.905Z" fill="#8C4949"/>
<path d="M727.8 330.657C727.8 330.657 746.102 331.703 749.06 347.529C752.017 363.355 750.166 391.982 739.535 395.116C729.833 397.977 714.863 388.211 708.561 378.41C701.93 368.095 699.576 354.947 703.479 345.003C706.896 336.299 713.409 329.904 727.8 330.657Z" fill="#F6AF9A"/>
<path d="M719.478 349.164C719.478 349.164 717.609 351.859 718.124 355.929C718.459 358.58 717.414 359.534 714.575 363.397C711.734 367.26 712.392 367.486 711.557 371.743C710.721 375.998 708.682 386.43 708.627 387.263C708.569 388.1 705.938 385.17 703.968 379.365C702.001 373.561 697.821 362.298 697.462 351.963C697.105 341.63 706.898 331.18 716.932 330.133C716.932 330.133 726.487 325.953 735.686 329.671C744.881 333.386 751.656 339.039 751.266 348.346L749.259 348.411C749.259 348.411 747.732 347.32 747.244 347.035C745.018 345.737 743.207 346.38 741.186 347.661C741.186 347.661 733.32 351.506 729.14 351.043C729.14 351.043 724.368 352.478 719.478 349.164Z" fill="#8C4949"/>
<path d="M711.294 339.739C711.294 339.739 710.108 347.376 718.431 351.589C718.861 350.059 719.477 349.164 719.477 349.164C719.477 349.164 712.26 344.812 711.294 339.739Z" fill="#7D4141"/>
<path d="M716.129 333.541C716.055 337.256 716.97 341.213 719.796 343.849C723.162 346.932 729.434 347.555 733.909 347.442C733.363 347.647 732.796 347.801 732.223 347.922C727.949 348.788 722.833 348.376 719.305 345.657C715.732 342.823 714.656 337.683 716.129 333.541Z" fill="#7D4141"/>
<path d="M720.762 331.566C723.228 330.765 725.844 330.487 728.442 330.498C733.695 330.546 739.112 332.165 742.966 335.74C744.893 337.513 746.359 339.715 747.201 342.087C746.445 341.067 745.67 340.092 744.817 339.197C742.317 336.531 739.112 334.542 735.612 333.368C730.859 331.761 725.774 331.406 720.762 331.566Z" fill="#7D4141"/>
<path d="M718.735 333.541C723.653 333.891 728.473 335.151 733.053 336.912C736.571 338.281 739.976 340.203 742.522 342.974C742.909 343.401 743.272 343.855 743.568 344.344C743.348 344.157 743.123 343.982 742.894 343.816C742.72 343.689 742.376 343.446 742.199 343.324C739.647 341.599 736.854 340.232 733.989 339.082C728.955 337.087 723.821 335.465 718.735 333.541Z" fill="#7D4141"/>
<path d="M721.923 337.955C725.142 340.905 729.313 342.432 733.423 343.843C734.816 344.317 736.237 344.741 737.673 345.284C736.908 345.367 736.146 345.376 735.377 345.352C731.542 345.171 727.664 343.979 724.673 341.569C723.508 340.585 722.402 339.405 721.923 337.955Z" fill="#7D4141"/>
<path d="M715.338 368.42C715.338 368.42 715.299 360.083 710.186 360.027C705.07 359.97 705.097 366.949 708.396 371.476C710.241 374.011 715.36 377.204 715.338 368.42Z" fill="#F6AF9A"/>
<path d="M709.711 365.648C710.718 365.705 711.51 366.241 712.065 366.787C711.922 365.829 711.516 364.904 710.586 364.329C710.346 364.181 710.275 363.872 710.428 363.638C710.58 363.404 710.894 363.336 711.138 363.484C714.458 365.533 712.727 370.54 712.65 370.75C712.559 371.011 712.266 371.151 711.998 371.059C711.992 371.059 711.989 371.056 711.983 371.056C711.724 370.961 711.586 370.682 711.678 370.424C711.684 370.404 711.98 369.55 712.089 368.459C712.083 368.45 712.071 368.441 712.065 368.429C712.056 368.414 711.114 366.727 709.653 366.647C709.37 366.632 709.153 366.395 709.169 366.12C709.184 365.844 709.428 365.633 709.711 365.648Z" fill="#E57E73"/>
<path d="M671.279 534.402H763.399C762.079 520.909 760.438 500.901 760.048 491.769C759.524 479.463 761.792 446.442 761.841 436.145C761.89 425.849 758.829 411.449 758.829 411.449C758.423 410.266 757.569 406.794 749.941 404.031C742.313 401.271 735.553 400.823 735.553 400.823C742.136 417.334 740.273 459.712 740.273 459.712C740.273 459.712 734.315 443.966 725.955 426.699C718.62 411.55 701.988 397.547 701.988 397.547C694.137 397.796 680.46 400.954 680.46 400.954C666.822 415.496 675.898 445.496 678.176 461.473C680.45 477.45 678.395 494.257 672.365 527.491C671.987 529.572 671.624 531.891 671.279 534.402Z" fill="white"/>
<path d="M740.389 456.144L740.273 460.609C745.81 423.547 742.74 403.965 742.231 401.846C738.282 401.007 735.554 400.826 735.554 400.826C740.978 414.428 740.667 445.593 740.389 456.144Z" fill="#ABD3FC"/>
<path d="M740.032 459.074C738.834 455.97 733.334 441.926 725.958 426.699C718.623 411.55 701.991 397.547 701.991 397.547C699.664 397.621 696.826 397.951 693.984 398.377C693.984 398.377 733.913 441.064 740.276 460.607L740.032 459.074Z" fill="#ABD3FC"/>
<path d="M738.344 534.403H739.563C740.774 509.452 741.627 484.501 740.274 459.713C740.999 484.569 739.606 509.58 738.344 534.403Z" fill="#ABD3FC"/>
<path d="M678.176 461.474C680.45 477.45 678.395 494.257 672.365 527.492C671.987 529.573 671.624 531.892 671.279 534.403H681.716L683.63 515.2C684.13 509.807 686.042 489.312 686.673 483.368C687.405 476.505 688.865 475.556 692.518 456.49C696.171 437.424 697.043 420.907 697.043 420.907L674.49 440.815C675.709 448.538 677.371 455.838 678.176 461.474Z" fill="#D4EBFF"/>
<path d="M733.909 400.02C733.909 400.02 738.781 418.748 740.272 459.712C740.272 459.712 742.675 435.2 742.068 419.457C741.458 403.717 741.007 401.597 741.007 401.597C741.007 401.597 735.915 399.614 733.909 400.02Z" fill="white"/>
<path d="M740.273 459.713C725.955 426.7 695.286 398.189 695.286 398.189C698.362 396.686 706.463 397.163 706.463 397.163C706.463 397.163 718.403 410.344 726.729 426.087C737.943 447.29 740.273 459.713 740.273 459.713Z" fill="white"/>
<path d="M681.385 401.603C681.385 401.603 697.949 402.896 694.916 422.834C691.882 442.768 678.592 476.534 674.211 486.827C669.829 497.118 656.783 493.759 655.966 482.579C655.146 471.402 663.448 430.545 665.893 420.746C668.335 410.951 672.832 401.417 681.385 401.603Z" fill="#F6AF9A"/>
<path d="M684.039 401.342C684.039 401.342 671.883 396.498 665.127 419.575C658.367 442.652 653.986 473.367 653.803 483.663C653.62 493.96 664.008 499.044 670.603 495.202C677.2 491.363 684.323 467.455 688.603 455.276C695.287 436.263 705.692 406.008 684.039 401.342Z" fill="white"/>
<path d="M655.831 481.584C655.831 481.584 655.718 514.335 657.218 534.403H671.533C672.591 525.313 673.92 515.358 674.676 509.894C676.411 497.368 677.987 487.392 678.173 479.417C678.417 468.996 656.566 466.808 655.831 481.584Z" fill="#F6AF9A"/>
<path d="M667.643 465.022C667.643 465.022 655.078 466.089 653.801 481.354C652.84 492.849 652.703 517.222 653.164 534.402H676.774C678.771 513.688 682.299 476.741 682.372 473.335C682.476 468.573 673.814 463.957 667.643 465.022Z" fill="white"/>
<path d="M777.678 491.865V525.076C777.678 529.817 773.709 533.674 768.834 533.674H651.088C646.21 533.674 642.243 529.817 642.243 525.076V305.977C642.243 301.237 646.21 297.38 651.088 297.38H768.834C773.709 297.38 777.678 301.237 777.678 305.977V447.51C778.108 448.56 778.535 449.603 778.956 450.644C779.093 450.51 779.175 450.33 779.175 450.128V305.977C779.175 300.433 774.535 295.924 768.834 295.924H651.088C645.383 295.924 640.746 300.433 640.746 305.977V525.076C640.746 530.62 645.383 535.13 651.088 535.13H768.834C774.535 535.13 779.175 530.62 779.175 525.076V492.046C778.681 492.022 778.181 491.963 777.678 491.865Z" fill="white"/>
<path d="M736.507 301.31H683.416C680.16 301.31 677.52 298.742 677.52 295.579V294.381H742.4V295.579C742.4 298.742 739.763 301.31 736.507 301.31Z" fill="#303C72"/>
<path d="M1064.11 347.063C1065.84 345.884 1067.73 344.979 1069.74 344.372C1078.04 341.857 1099.5 337.707 1115.77 355.222C1133.13 373.915 1108 426.915 1081.1 453.023C1081.1 453.023 1108.85 468.748 1110.4 487.805C1111.95 506.862 1080.6 528.006 1035.47 535.113L1025.56 373.39L1064.11 347.063Z" fill="#5A789F"/>
<path d="M1069.56 344.427C1067.34 360.034 1066.13 384.19 1062.77 410.532C1057.49 451.931 1044.25 512.198 1096.09 511.94C1082.89 522.266 1061.47 531.021 1035.47 535.115L1025.56 373.393L1064.11 347.063C1065.77 345.933 1067.58 345.041 1069.5 344.448L1069.56 344.427Z" fill="#5A789F"/>
<path d="M1102.2 359.05C1082.04 382.11 1062.43 405.715 1043.04 429.403C1037.54 436.163 1031.59 443.678 1026.07 450.426C1014.69 464.23 1002.92 478.271 990.996 491.621L990.758 491.443C991.276 490.705 991.801 489.972 992.322 489.24C994.944 485.59 997.63 481.932 1000.31 478.342C1007.84 468.291 1015.67 458.271 1023.62 448.534C1031.57 438.884 1040.01 429.166 1048.11 419.628C1058.59 407.337 1069.36 394.956 1080.11 382.892C1084.83 377.583 1089.83 372.045 1094.62 366.806C1097.06 364.147 1099.5 361.487 1101.98 358.854L1102.2 359.05Z" fill="#5AA5D1"/>
<path d="M1092.2 488.516C1074.63 491.43 1056.49 491.19 1039 487.819C1037.17 487.46 1035.27 487.039 1033.47 486.577C1025.72 484.534 1018.24 481.267 1011.65 476.796C1010.75 476.189 1009.67 475.403 1008.82 474.733C1007.91 474.024 1006.99 473.262 1006.14 472.494L1006.32 472.26C1007.96 473.147 1009.57 474.039 1011.22 474.863C1012.8 475.664 1014.58 476.512 1016.21 477.232C1020.79 479.29 1025.55 481.009 1030.36 482.503C1035.18 484.006 1040.06 485.385 1045.02 486.384C1058.67 489.014 1072.71 489.642 1086.59 488.735C1088.44 488.611 1090.3 488.457 1092.15 488.228L1092.2 488.516Z" fill="#5AA5D1"/>
<mask id="mask1_1949_925" style="mask-type:luminance" maskUnits="userSpaceOnUse" x="901" y="289" width="152" height="253">
<path d="M901.532 289.67H1052.17V541.008H901.532V289.67Z" fill="white"/>
</mask>
<g mask="url(#mask1_1949_925)">
<path d="M1040.07 540.974H913.573C907.192 540.974 902.015 535.945 902.015 529.74V301.311C902.015 295.106 907.192 290.075 913.573 290.075H1040.07C1046.45 290.075 1051.62 295.106 1051.62 301.311V529.74C1051.62 535.945 1046.45 540.974 1040.07 540.974Z" fill="#303C72"/>
</g>
<path d="M1035.69 534.402H917.947C912.648 534.402 908.353 530.225 908.353 525.075V305.976C908.353 300.827 912.648 296.652 917.947 296.652H1035.69C1040.99 296.652 1045.28 300.827 1045.28 305.976V525.075C1045.28 530.225 1040.99 534.402 1035.69 534.402Z" fill="#D4EBFF"/>
<path d="M935.051 419.116C935.957 414.328 939.835 410.367 945.055 409.484C951.759 408.348 958.141 412.709 959.308 419.226C959.549 420.58 959.549 421.921 959.333 423.204C959.284 423.507 959.22 423.806 959.147 424.103C957.945 429.827 951.177 461.624 944.817 481.126C944.149 484.494 941.411 487.269 937.731 487.892C932.975 488.698 928.447 485.603 927.618 480.978C927.292 479.169 932.588 429.237 935.051 419.116Z" fill="#DE9681"/>
<path d="M946.598 420.899C946.598 420.899 951.811 416.229 959.33 419.357C959.55 420.667 959.54 421.963 959.333 423.205C959.284 423.508 959.22 423.807 959.147 424.104C958.11 429.043 952.93 453.395 947.442 472.509C946.945 470.16 945.421 467.815 944.665 467.231C943.479 466.315 940.39 463.594 938.875 458.812C937.79 455.393 939.857 442.594 942.226 435.865C944.595 429.132 946.598 420.899 946.598 420.899Z" fill="#EA9A88"/>
<path d="M950.458 408.971C950.458 408.971 945.787 408.031 939.442 410.756C937.543 411.571 935.726 414.764 934.491 417.24C929.774 426.712 926.183 455.488 926.183 455.488C926.183 455.488 938.476 466.632 951.357 470.207C951.357 470.207 960.949 429.561 960.757 421.046C960.565 412.535 954.178 409.846 950.458 408.971Z" fill="#FCF5F1"/>
<path d="M957.353 442.92L941.818 418.944C941.818 418.944 945.105 428.721 943.431 435.274C941.758 441.829 937.776 450.794 937.154 456.142C936.885 458.458 937.01 461.25 937.239 463.673C941.392 466.261 946.331 468.81 951.359 470.207C951.359 470.207 954.664 456.207 957.353 442.92Z" fill="#F0E2DA"/>
<path d="M939.967 470.005C935.241 468.28 929.967 470.604 928.192 475.2C927.842 476.104 927.656 477.026 927.616 477.939C927.613 477.939 924.214 522.419 923.299 534.402H934.028C935.138 529.249 937.226 519.908 939.464 511.799C943.284 497.957 944.595 485.514 945.199 479.783C945.37 479.027 945.437 478.268 945.403 477.521C945.248 474.064 943.507 471.298 939.967 470.005Z" fill="#DE9681"/>
<path d="M962.111 516.923C952.028 517.984 944.193 525.259 942.189 534.403H986.957C984.554 523.368 973.892 515.683 962.111 516.923Z" fill="#F6AF9A"/>
<path d="M940.868 534.403H987.907C984.48 514.448 969 514.43 967.052 514.456C967.052 514.456 945.545 513.125 940.868 534.403Z" fill="#8C4949"/>
<path d="M982.435 481.462C958.702 481.396 953.781 492.155 953.781 492.155C953.385 495.126 953.321 498.429 951.912 501.239C945.4 514.219 942.857 529.025 942.101 534.403H1021.91C1021.44 526.413 1018.44 518.85 1014.43 509.203C1011.91 503.134 1005.85 495.159 1005.76 488.9C1005.76 488.9 1003.34 481.518 982.435 481.462Z" fill="#F6AF9A"/>
<path d="M953.503 494.545C953.503 494.545 951.966 496.775 948.005 507.193C945.121 514.773 942.313 527.845 940.999 534.403H1022.93C1021.9 525.402 1019.15 515.529 1016.02 509.956C1012.29 503.291 1006.95 492.333 1006.95 492.333C996.404 494.945 953.503 494.545 953.503 494.545Z" fill="#8C4949"/>
<path d="M1016.02 509.956C1012.29 503.291 1006.95 492.333 1006.95 492.333C999.827 494.098 977.932 494.489 964.478 494.554C958.371 498.539 956.611 503.098 956.611 503.098C956.611 503.098 973.005 508.518 993.716 508.859C1004.53 508.859 1008.79 508.859 1010.21 509.612C1011.2 510.14 1012.77 525.36 1013.61 534.403H1022.93C1021.9 525.402 1019.15 515.529 1016.02 509.956Z" fill="#824444"/>
<path d="M976.683 534.403H1021.32C1019.17 525.218 1011.13 518.029 1000.96 517.178C989.43 516.214 979.167 523.736 976.683 534.403Z" fill="#F6AF9A"/>
<path d="M974.696 534.403H1022.58C1020.53 523.792 1014.87 513.982 998.786 514.471C998.786 514.471 978.733 514.459 974.696 534.403Z" fill="#8C4949"/>
<path d="M1011.75 517.123C1012.45 522.388 1013.14 529.358 1013.61 534.404H1022.58C1021.22 527.366 1018.27 520.684 1011.75 517.123Z" fill="#824444"/>
<path d="M952.163 474.047C952.163 474.047 946.025 470.528 944.937 464.854C943.848 459.179 946.97 440.312 947.763 431.486C948.559 422.66 941.287 415.046 940.312 410.664C940.312 410.664 950.583 405.968 973.106 403.819C973.106 403.819 985.801 404.175 998 406.333C1007.95 408.091 1013.14 413.389 1015.08 416.422C1017.03 419.455 1015.76 426.849 1013.05 435.879C1010.34 444.91 1007.36 452.734 1007.06 462.298C1006.92 466.917 1006.7 483.404 1007 494.198C1007 494.198 1008.19 500.982 984.075 502.431C961.818 503.771 953.556 494.302 953.556 494.302C952.718 485.423 952.163 474.047 952.163 474.047Z" fill="#DE9681"/>
<path d="M1010.58 443.884C1008.77 449.84 1007.27 455.648 1007.06 462.298C1006.96 465.517 1006.83 474.5 1006.86 483.306C1001.57 469.425 994.489 427.984 994.489 427.984L1010.58 443.884Z" fill="#E57E73"/>
<path d="M961.887 407.076L963.21 384.201C963.366 379.667 966.555 375.585 971.302 374.39C977.08 372.935 982.976 376.308 984.473 381.927C984.677 382.689 984.787 383.456 984.815 384.212L986.882 408.772C986.9 408.944 986.946 409.724 986.946 409.724C987.303 415.502 983.406 420.498 977.421 422.004C970.625 423.714 963.914 420.062 962.155 413.453C961.606 411.396 961.741 409.267 961.887 407.076Z" fill="#DE9681"/>
<path d="M963.211 384.201C963.366 379.667 966.556 375.585 971.303 374.39C977.08 372.935 982.977 376.308 984.474 381.927C984.678 382.689 984.788 383.456 984.815 384.212L984.922 385.49C980.099 396.039 971.318 403.889 961.964 405.79L963.211 384.201Z" fill="#D38475"/>
<path d="M954.074 406.658C954.074 406.658 955.641 413.545 966.83 415.321C978.02 417.097 1000.72 406.732 1000.72 406.732C1000.72 406.732 1005.59 406.667 1008.94 408.698C1008.94 408.698 1015.29 412.558 1016.36 417.296C1017.43 422.036 1016 430.426 1015.14 433.489C1014.28 436.549 1008.94 463.646 1008.94 470.435C1008.94 475.176 1011.77 488.662 1013.47 496.371C1014.15 499.466 1012.02 502.475 1008.8 502.952C998.133 504.533 974.681 507.064 951.781 503.243C948.031 502.617 945.384 499.324 945.631 495.635C946.205 487.115 947.153 472.932 947.131 472.339C947.131 472.339 942.4 469.525 941.381 461.526C940.363 453.53 946.607 433.685 945.936 430.278C945.265 426.872 939.326 413.996 939.445 410.755C939.445 410.755 945.891 407.755 954.074 406.658Z" fill="#FCF5F1"/>
<path d="M981.988 505.206C993.299 504.966 1002.97 503.815 1008.81 502.953C1012.02 502.475 1014.15 499.463 1013.47 496.371C1011.76 488.663 1008.94 475.176 1008.94 470.435C1008.94 463.646 1014.28 436.549 1015.14 433.489C1015.34 432.789 1015.56 431.814 1015.78 430.67C1006.22 425.401 997.284 424.215 992.952 429.834C992.952 429.834 995.165 455.268 995.132 460.157C995.098 465.043 984.162 472.558 967.71 470.907C967.71 470.907 982.945 476.338 996.857 469.425L998.522 474.115H1004.77C1004.77 474.115 1005.59 484.038 1006.81 490.851C1008.02 497.628 995.269 502.416 981.988 505.206Z" fill="#F0E2DA"/>
<path d="M993.043 424.227C992.9 423.056 992.921 421.849 993.128 420.628C994.308 413.669 1001.07 408.959 1008.23 410.103C1014.17 411.055 1018.52 415.745 1019.15 421.289L1033.91 481.906C1034.22 483.091 1034.29 484.357 1034.08 485.644C1033.24 490.583 1028.44 493.927 1023.36 493.115C1019.08 492.427 1015.96 489.009 1015.59 484.995C1015.59 484.995 996.952 442.261 993.381 425.952C993.229 425.389 993.116 424.811 993.043 424.227Z" fill="#DE9681"/>
<path d="M1003.76 408.697C1003.76 408.697 990.356 410.455 992.338 426.735C994.316 443.014 1001.02 472.338 1001.02 472.338C1001.02 472.338 1024.94 472.486 1033.01 461.081C1033.01 461.081 1021.89 423.204 1018.84 416.655C1015.8 410.103 1008.5 406.954 1003.76 408.697Z" fill="#FCF5F1"/>
<path d="M1022.73 476.046C1018.98 476.906 1016.3 479.856 1015.68 483.33C1015.54 484.083 1015.51 484.86 1015.58 485.646C1015.42 491.516 1015.63 503.894 1017.63 518.373C1018.37 523.695 1018.98 529.497 1019.44 534.404H1031.44C1032.43 516.746 1034.16 485.637 1034.16 485.637C1034.24 484.706 1034.17 483.748 1033.94 482.794C1032.76 477.92 1027.74 474.899 1022.73 476.046Z" fill="#DE9681"/>
<path d="M973.668 336.531C973.668 336.531 994.809 337.295 994.346 361.606C993.897 384.959 973.723 404.064 956.439 399.16C950.944 397.26 947.325 385.099 947.133 366.818C946.938 348.538 955.012 335.89 973.668 336.531Z" fill="#DE9681"/>
<path d="M1001.73 393.779C999.151 385.484 1001.25 369.664 1000.2 362.528C1000.17 362.342 1000.13 362.17 1000.08 362.01C999.422 352.478 996.197 344.817 988.727 339.036C980.69 332.813 967.592 335.707 967.592 335.707C961.64 335.274 949.286 340.337 945.862 348.295C942.438 356.252 943.481 367.684 944.823 370.723C946.161 373.762 944.374 376.655 943.63 378.68C942.887 380.705 944.374 382.73 945.713 385.336C947.054 387.939 944.823 390.978 944.823 390.978C947.054 389.822 948.094 386.637 947.204 383.889C946.31 381.138 945.862 380.127 946.445 378.04C947.024 375.95 947.5 374.627 947.798 371.446C948.094 368.262 947.35 361.897 949.137 357.557C950.923 353.213 957.918 348.295 957.918 348.295C960.003 354.518 962.979 359.436 966.848 360.738C970.72 362.039 973.101 363.922 973.845 365.801C974.589 367.684 973.397 371.156 973.845 375.351C974.29 379.549 976.077 379.691 977.415 381.574C978.757 383.453 975.034 386.783 974.141 388.23C973.248 389.676 973.845 392.134 974.885 394.017C975.927 395.896 975.184 398.066 975.184 398.066C976.97 397.343 976.671 393.871 976.077 390.978C975.482 388.084 977.714 387.361 979.053 385.191C980.394 383.021 978.607 379.982 978.309 378.39C978.01 376.798 980.425 371.381 981.318 371.814C981.833 372.066 982.446 375.051 982.925 378.594C982.687 380.065 982.65 381.544 982.876 383.003C982.876 383.003 983.26 383.88 983.602 385.283C983.626 385.683 983.65 386.074 983.669 386.448C983.708 387.278 983.882 388.241 984.108 389.178C984.135 391.037 983.842 393.115 982.876 395.131C980.101 400.919 976.623 398.983 977.394 407.601C978.165 416.222 975.921 423.157 973.248 427.565C970.574 431.977 970.525 444.847 976.007 452.11C976.007 452.11 976.915 446.412 980.989 444.693C985.062 442.973 991.425 434.53 991.004 429.169C990.581 423.809 994.279 408.396 1003.7 406.821C1003.7 406.821 1004.31 402.075 1001.73 393.779Z" fill="#8C4949"/>
<path d="M957.918 348.295C958.281 342.819 962.031 337.281 967.592 335.707C962.689 338.402 959.549 343.151 957.918 348.295Z" fill="#7A3D3D"/>
<path d="M961.643 347.138C968.679 349.821 967.444 353.165 971.441 357.923C972.792 359.738 974.999 360.186 976.938 361.102C979.408 362.593 981.076 365.427 980.99 368.261C980.713 365.884 979.298 363.601 977.335 362.198C975.012 360.752 972.649 360.918 970.768 358.493C966.722 353.663 968.338 350.675 961.643 347.138Z" fill="#7A3D3D"/>
<path d="M966.104 344.246C969.976 344.889 973.806 346.766 975.909 350.101C979.705 354.868 985.903 359.555 985.156 366.237C985.001 359.662 978.928 355.499 975.233 350.59C973.294 347.296 969.73 345.384 966.104 344.246Z" fill="#7A3D3D"/>
<path d="M966.104 339.76C972.66 338.992 979.843 340.463 984.492 345.292C986.776 347.474 988.749 350.048 989.898 352.974C990.407 354.329 990.77 355.779 990.77 357.228C990.743 358.049 990.764 359.055 990.856 359.873C991.282 364.406 992.383 369.12 991.109 373.617C992.194 368.1 989.929 362.568 989.962 357.053C989.538 351.69 985.685 347.193 981.593 343.854C977.254 340.567 971.486 339.65 966.104 339.76Z" fill="#7A3D3D"/>
<path d="M996.77 364.972C998.008 370.051 998.374 375.53 996.751 380.57C996.059 383.084 994.7 385.42 994.02 387.91C993.446 390.495 995.056 392.977 994.779 395.595C994.73 399.179 993.175 402.906 990.053 404.987C989.346 405.455 988.663 406.01 988.086 406.624C985.135 409.811 983.913 414.195 983.559 418.399C983.461 420.149 983.507 421.924 983.12 423.644C982.098 430.617 975.266 435.868 976.007 443.143C974.866 435.924 981.534 430.421 982.437 423.522C982.781 421.818 982.696 420.074 982.781 418.349C983.102 413.748 984.477 408.895 987.925 405.556C988.401 405.097 988.989 404.649 989.541 404.275C993.2 401.85 994.428 397.136 993.785 393.039C993.468 391.293 992.77 389.532 993.294 387.75C994.041 385.192 995.422 382.935 996.197 380.398C997.928 375.452 997.718 370.057 996.77 364.972Z" fill="#7A3D3D"/>
<path d="M987.468 384.096C990.194 392.7 986.813 393.93 983.511 400.87C982.846 402.335 982.91 403.799 982.776 405.382C982.029 408.323 980.807 409.061 980.989 412.631C980.428 409.82 981.206 408.282 982.023 405.738C982.227 404.348 981.941 402.877 982.401 401.504C982.459 401.238 982.611 400.834 982.7 400.574C985.999 393.242 989.102 393.444 987.468 384.096Z" fill="#7A3D3D"/>
<path d="M997.65 388.218C997.482 390.797 997.172 393.418 997.629 395.95C997.781 396.839 998.354 397.456 998.668 398.262C999.376 399.955 999.601 401.822 999.275 403.613C998.882 405.315 998.019 406.913 998.034 408.697C997.647 406.945 998.309 405.229 998.58 403.515C998.912 396.462 994.766 398.247 997.65 388.218Z" fill="#7A3D3D"/>
<path d="M991.538 410.565C989.621 413.038 987.724 415.967 987.858 419.157C988.377 423.924 988.59 429.877 985.959 434.099C987.776 429.527 987.407 424.413 987.035 419.616C986.746 416.086 989.002 412.869 991.538 410.565Z" fill="#7A3D3D"/>
<path d="M986.179 367.599C986.179 367.599 989.603 367.863 989.676 373.104C989.743 378.141 986.631 383.943 982.871 383.003C981.673 382.63 980.634 378.224 980.463 374.284C980.292 370.347 982.155 367.587 986.179 367.599Z" fill="#DE9681"/>
<path d="M983.483 379.248C981.968 372.435 985.56 370.502 985.712 370.422C985.898 370.324 986.127 370.395 986.227 370.573C986.325 370.754 986.255 370.976 986.072 371.074C985.968 371.131 984.06 372.189 983.886 375.61C984.944 374.404 986.63 374.19 986.721 374.178C986.929 374.155 987.118 374.3 987.145 374.501C987.169 374.706 987.02 374.89 986.813 374.913C986.715 374.925 984.45 375.222 983.916 377.104C983.968 377.709 984.066 378.367 984.227 379.091C984.267 379.271 984.163 379.452 983.987 379.515C983.971 379.52 983.953 379.526 983.935 379.529C983.73 379.574 983.526 379.446 983.483 379.248Z" fill="#BA6D5B"/>
<path d="M1035.69 296.652H917.947C912.648 296.652 908.353 300.827 908.353 305.976V317.438H1045.28V305.976C1045.28 300.827 1040.99 296.652 1035.69 296.652Z" fill="#8CCBFF"/>
<path d="M1036.2 306.585H1023.03C1022.22 306.585 1021.57 305.95 1021.57 305.165V304.94C1021.57 304.157 1022.22 303.522 1023.03 303.522H1036.2C1037.01 303.522 1037.66 304.157 1037.66 304.94V305.165C1037.66 305.95 1037.01 306.585 1036.2 306.585Z" fill="white"/>
<path d="M1036.2 313.217H1027.86C1027.05 313.217 1026.4 312.579 1026.4 311.797V311.571C1026.4 310.786 1027.05 310.151 1027.86 310.151H1036.2C1037.01 310.151 1037.66 310.789 1037.66 311.571V311.797C1037.66 312.579 1037.01 313.217 1036.2 313.217Z" fill="white"/>
<path d="M1035.69 535.13H917.95C912.246 535.13 907.605 530.62 907.605 525.076V305.977C907.605 300.433 912.246 295.924 917.95 295.924H1035.69C1041.4 295.924 1046.04 300.433 1046.04 305.977V525.076C1046.04 530.62 1041.4 535.13 1035.69 535.13ZM917.95 297.38C913.072 297.38 909.106 301.237 909.106 305.977V525.076C909.106 529.817 913.072 533.674 917.95 533.674H1035.69C1040.57 533.674 1044.54 529.817 1044.54 525.076V305.977C1044.54 301.237 1040.57 297.38 1035.69 297.38H917.95Z" fill="white"/>
<path d="M1003.37 301.31H950.272C947.019 301.31 944.379 298.742 944.379 295.579V294.381H1009.26V295.579C1009.26 298.742 1006.62 301.31 1003.37 301.31Z" fill="#303C72"/>
<path d="M919.132 329.733H800.63C796.822 329.733 793.733 332.736 793.733 336.439V369.857C793.733 373.563 796.822 376.564 800.63 376.564H907.061L926.028 398.689V336.439C926.028 332.736 922.94 329.733 919.132 329.733Z" fill="white"/>
<path d="M871.524 344.939H912.422C913.583 344.939 914.526 344.023 914.526 342.893V341.227C914.526 340.097 913.583 339.181 912.422 339.181H871.524C870.359 339.181 869.417 340.097 869.417 341.227V342.893C869.417 344.023 870.359 344.939 871.524 344.939Z" fill="#D4E7FF"/>
<path d="M805.911 344.939H858.657C859.822 344.939 860.764 344.023 860.764 342.893V341.227C860.764 340.097 859.822 339.181 858.657 339.181H805.911C804.75 339.181 803.808 340.097 803.808 341.227V342.893C803.808 344.023 804.75 344.939 805.911 344.939Z" fill="#D4E7FF"/>
<path d="M887.491 356.194H912.424C913.585 356.194 914.527 355.278 914.527 354.148V352.485C914.527 351.353 913.585 350.437 912.424 350.437H887.491C886.329 350.437 885.384 351.353 885.384 352.485V354.148C885.384 355.278 886.329 356.194 887.491 356.194Z" fill="#D4E7FF"/>
<path d="M863.524 356.194H875.283C876.447 356.194 877.39 355.278 877.39 354.148V352.485C877.39 351.353 876.447 350.437 875.283 350.437H863.524C862.362 350.437 861.42 351.353 861.42 352.485V354.148C861.42 355.278 862.362 356.194 863.524 356.194Z" fill="#D4E7FF"/>
<path d="M805.911 356.194H851.794C852.959 356.194 853.901 355.278 853.901 354.148V352.485C853.901 351.353 852.959 350.437 851.794 350.437H805.911C804.75 350.437 803.808 351.353 803.808 352.485V354.148C803.808 355.278 804.75 356.194 805.911 356.194Z" fill="#D4E7FF"/>
<path d="M898.311 367.45H912.424C913.585 367.45 914.527 366.534 914.527 365.401V363.738C914.527 362.606 913.585 361.689 912.424 361.689H898.311C897.149 361.689 896.207 362.606 896.207 363.738V365.401C896.207 366.534 897.149 367.45 898.311 367.45Z" fill="#D4E7FF"/>
<path d="M805.911 367.45H887.174C888.335 367.45 889.278 366.534 889.278 365.401V363.738C889.278 362.606 888.335 361.689 887.174 361.689H805.911C804.75 361.689 803.808 362.606 803.808 363.738V365.401C803.808 366.534 804.75 367.45 805.911 367.45Z" fill="#D4E7FF"/>
<path d="M886.785 377.535H800.632C796.278 377.535 792.735 374.09 792.735 369.857V336.438C792.735 332.205 796.278 328.763 800.632 328.763H897.298C897.849 328.763 898.295 329.196 898.295 329.732C898.295 330.269 897.849 330.705 897.298 330.705H800.632C797.382 330.705 794.735 333.275 794.735 336.438V369.857C794.735 373.02 797.382 375.593 800.632 375.593H886.785C887.337 375.593 887.785 376.026 887.785 376.563C887.785 377.1 887.337 377.535 886.785 377.535Z" fill="#8CCBFF"/>
<path d="M886.565 273.131H768.067C764.258 273.131 761.17 276.135 761.17 279.838V342.088L780.137 319.962H886.565C890.376 319.962 893.465 316.959 893.465 313.256V279.838C893.465 276.135 890.376 273.131 886.565 273.131Z" fill="white"/>
<path d="M840.191 288.432H775.057C773.892 288.432 772.95 287.516 772.95 286.387V284.72C772.95 283.591 773.892 282.675 775.057 282.675H840.191C841.352 282.675 842.294 283.591 842.294 284.72V286.387C842.294 287.516 841.352 288.432 840.191 288.432Z" fill="#D4E7FF"/>
<path d="M881.568 288.432H853.058C851.896 288.432 850.954 287.516 850.954 286.387V284.72C850.954 283.591 851.896 282.675 853.058 282.675H881.568C882.733 282.675 883.675 283.591 883.675 284.72V286.387C883.675 287.516 882.733 288.432 881.568 288.432Z" fill="#D4E7FF"/>
<path d="M799.182 299.685H775.057C773.895 299.685 772.95 298.768 772.95 297.639V295.973C772.95 294.843 773.895 293.927 775.057 293.927H799.182C800.344 293.927 801.286 294.843 801.286 295.973V297.639C801.286 298.768 800.344 299.685 799.182 299.685Z" fill="#D4E7FF"/>
<path d="M862.098 299.685H812.194C811.032 299.685 810.09 298.769 810.09 297.639V295.973C810.09 294.843 811.032 293.927 812.194 293.927H862.098C863.26 293.927 864.202 294.843 864.202 295.973V297.639C864.202 298.769 863.26 299.685 862.098 299.685Z" fill="#D4E7FF"/>
<path d="M881.566 299.685H873.828C872.664 299.685 871.722 298.768 871.722 297.639V295.973C871.722 294.843 872.664 293.927 873.828 293.927H881.566C882.731 293.927 883.673 294.843 883.673 295.973V297.639C883.673 298.768 882.731 299.685 881.566 299.685Z" fill="#D4E7FF"/>
<path d="M827.062 310.943H775.057C773.895 310.943 772.95 310.024 772.95 308.894V307.231C772.95 306.098 773.895 305.182 775.057 305.182H827.062C828.224 305.182 829.166 306.098 829.166 307.231V308.894C829.166 310.024 828.224 310.943 827.062 310.943Z" fill="#D4E7FF"/>
<path d="M881.567 310.943H838.202C837.038 310.943 836.096 310.024 836.096 308.894V307.231C836.096 306.098 837.038 305.182 838.202 305.182H881.567C882.732 305.182 883.674 306.098 883.674 307.231V308.894C883.674 310.024 882.732 310.943 881.567 310.943Z" fill="#D4E7FF"/>
<path d="M886.565 320.93H793.735C793.183 320.93 792.735 320.498 792.735 319.961C792.735 319.424 793.183 318.988 793.735 318.988H886.565C889.818 318.988 892.465 316.418 892.465 313.255V279.836C892.465 276.673 889.818 274.1 886.565 274.1H768.067C764.816 274.1 762.17 276.673 762.17 279.836V285.552C762.17 286.089 761.722 286.525 761.17 286.525C760.618 286.525 760.17 286.089 760.17 285.552V279.836C760.17 275.603 763.713 272.158 768.067 272.158H886.565C890.922 272.158 894.465 275.603 894.465 279.836V313.255C894.465 317.488 890.922 320.93 886.565 320.93Z" fill="#8CCBFF"/>
</svg>
