<svg width="500" height="529" viewBox="0 0 500 529" fill="none" xmlns="http://www.w3.org/2000/svg">
<g clip-path="url(#clip0_1643_3282)">
<mask id="mask0_1643_3282" style="mask-type:luminance" maskUnits="userSpaceOnUse" x="-50" y="-53" width="600" height="635">
<path d="M550 -52.8999H-50V581.9H550V-52.8999Z" fill="black" fill-opacity="0.22"/>
</mask>
<g mask="url(#mask0_1643_3282)">
<mask id="mask1_1643_3282" style="mask-type:luminance" maskUnits="userSpaceOnUse" x="38" y="2" width="424" height="512">
<path d="M461.334 2.82153H38.667V513.483H461.334V2.82153Z" fill="white"/>
</mask>
<g mask="url(#mask1_1643_3282)">
<path d="M391.016 436.668C381.657 437.692 371.896 438.067 370.725 434.634C367.48 425.068 356.068 422.247 357.266 421.051C357.74 420.577 361.792 420.814 368.521 422.109C371.834 422.743 381.709 426.137 384.985 426.87C386.667 427.245 388.068 427.856 389.271 428.501C394.094 431.107 402.391 431.918 408.756 433.527C412.204 434.403 415.074 436.453 416.537 436.965C414.839 434.783 412.24 434.011 410.844 433.455C408.37 432.452 406.214 431.466 403.954 431.047C400.188 430.358 397.829 430.132 395.079 428.694C388.449 425.239 384.73 423.613 378.303 422.566C378.579 421.822 389.865 420.831 394.683 421.045C399.725 421.255 407.959 422.594 414.058 422.241C416.261 422.109 418.136 421.701 420.219 421.464C422.298 421.233 424.792 421.867 427.079 422.412C425.089 421.139 421.021 420.687 417.902 420.781C414.782 420.88 411.917 421.343 408.615 421.15C403.771 420.858 399.027 419.205 394.157 418.852C387.777 418.389 382.865 420.291 376.469 419.866C372.907 419.624 369.579 418.505 365.995 417.987C357.058 416.692 342.235 418.687 329.339 417.916C322.678 417.502 315.079 417.64 309.396 415.893C304.808 414.488 295.365 408.239 294.865 407.396C293.449 404.999 299.881 403.23 304.808 403.754C309.74 404.283 313.469 404.972 318.407 405.473C324.391 406.085 330.787 405.87 336.777 405.578C341.693 405.33 351.959 404.95 356.912 405.379C365.532 406.118 368.907 407.611 377.521 408.394C372.662 407.264 367.719 406.233 362.933 405.038C357.167 403.583 349.042 403.803 345.714 403.809C312.204 403.991 313.719 397.957 293.73 396.634C284.459 396.05 268.245 395.846 258.943 396.155C252.844 396.348 246.735 397.786 240.626 397.847C237.469 397.874 234.324 397.891 231.167 397.913C229.646 397.918 227.766 395.631 227.157 396.232C224.271 395.918 216.839 397.45 216.469 397.483C212.266 397.825 207.521 397.654 203.516 398.332C200.271 398.872 194.423 400.365 192.563 401.902C188.053 403.947 183.652 406.244 177.975 407.28C175.589 407.721 173.053 407.92 170.745 408.465C165.657 409.666 162.438 412.317 157.61 413.783C152.881 415.221 147.167 415.364 141.85 415.215C136.532 415.067 131.209 414.664 125.86 415.155C120.511 415.64 114.938 417.254 112.923 419.778C117.756 416.67 126.771 416.334 134.204 416.83C141.631 417.315 149.6 418.252 156.62 416.527C161.824 415.249 165.615 412.659 171.042 411.678C172.959 411.331 175.365 411.276 176.574 412.025C177.667 412.708 177.068 413.711 176.683 414.598C174.771 418.929 171.011 419.519 166.917 421.514C163.964 422.952 160.745 423.586 157.089 424.528C150.975 426.099 144.084 427.151 137.423 427.79C130.761 428.418 123.761 429.493 119.021 432.006C116.287 433.455 114.537 435.262 111.99 436.778C106.146 440.26 97.7038 442.679 95.1361 446.878C93.6882 449.248 93.5215 451.314 93.4017 453.728C93.2871 456.075 91.6152 458.461 88.6934 460.428C92.0319 458.086 95.0632 456.439 96.3965 453.717C97.8757 450.697 96.985 447.716 101.068 445.225C104.579 443.082 110.808 439.99 114.709 437.996C117.167 436.728 118.844 435.852 121.11 434.502C126.204 431.466 132.438 431.008 139.99 429.956C147.537 428.909 156.808 427.129 164.068 425.603C171.329 424.076 178.688 420.439 180.923 416.709C181.949 414.995 181.48 414.08 182.626 412.389C184.673 409.363 190.126 407.143 195.808 405.633C201.495 404.134 204.167 402.575 213.949 402.464C216.042 402.437 226.886 401.368 231.402 404.184C233.844 405.699 231.219 407.55 229.183 409.27C224.521 413.199 215.891 415.447 208.24 418.009C200.579 420.566 192.917 424.181 192.438 428.683C192.167 431.245 192.542 433.637 194.954 436.183C197.12 438.464 199.735 440.382 191.548 441.891C187.219 442.69 179.751 442.343 175.548 443.324C171.089 444.371 169.032 446.614 165.417 448.305C160.454 450.614 153.699 450.642 147.079 451.099C136.954 451.81 127.912 455.772 124.511 460.506C126.537 458.593 130.954 457.436 134.594 456.097C142.808 453.072 153.516 453.992 159.969 452.934C157.574 456.439 161.011 462.214 162.683 465.729C164.521 469.609 161.282 469.653 160.605 474.508C160.126 477.907 162.964 481.842 169.355 482.972C165.454 481.429 164.542 478.629 165.063 476.122C165.589 473.615 167.261 471.146 167.402 468.628C167.714 463.437 160.662 457.381 166.641 452.995C171.042 449.771 172.23 447.247 179.235 445.936C189.558 444.013 200.475 445.242 203.876 440.894C205.365 438.987 202.412 436.364 201.62 434.397C197.037 422.985 218.105 420.291 219.751 421.084C222.079 422.186 216.891 425.779 220.532 429.074C222.985 431.295 229.011 432.276 230.37 434.733C231.631 437.031 227.563 439.197 226.36 441.533C223.87 446.366 233.959 451.237 230.521 455.932C227.235 460.434 215.037 460.869 206.777 463.349C194.475 467.046 192.146 476.827 202.407 481.555C195.49 475.141 198.209 467.597 209.787 465.636C214.881 464.776 220.954 463.994 225.584 462.611C230.11 461.266 233.235 457.111 238.449 456.984C242.339 456.891 245.199 461.773 247.074 463.459C248.954 465.145 249.896 467.074 251.855 468.738C255.063 471.455 261.115 473.791 260.298 476.949C259.886 478.514 259.35 479.654 259.292 481.533C263.464 478.629 263.834 474.497 260.183 471.471C257.954 469.625 254.376 468.165 253.131 466.088C252.313 464.727 249.214 459.139 247.975 457.866C243.459 453.237 238.251 454.213 234.938 449.347C228.12 439.335 242.662 439.748 239.511 435.202C236.73 431.174 225.053 429.08 226.173 424.831C226.938 421.9 233.568 420.269 236.334 417.646C237.537 416.499 237.969 415.188 239.214 414.053C241.344 412.102 245.949 410.895 250.339 411.138C254.73 411.38 255.824 413.838 256.969 415.959C259.485 420.627 252.303 424.589 254.938 429.239C255.761 430.683 257.777 432.006 257.584 433.51C257.396 434.926 255.303 436.072 253.933 437.329C250.798 440.205 251.725 444.024 256.126 446.404C260.605 448.834 267.563 449.584 273.438 451.116C279.308 452.659 284.688 455.987 282.053 459.023C285.652 456.455 285.11 452.653 280.818 450.372C277.24 448.471 271.881 447.754 267.277 446.52C262.673 445.291 258.308 442.927 259.532 440.387C260.605 438.161 265.563 436.712 266.084 434.447C266.308 433.477 266.344 432.436 265.568 431.537C258.99 423.944 267.381 417.342 286.021 425.283C292.225 427.928 287.079 432.717 291.943 434.601C297.532 436.75 312.146 434 315.36 437.147C318.386 440.089 307.641 445.572 307.928 448.873C308.214 452.179 314.485 454.681 315.896 457.921C317.86 462.407 310.126 466.457 308.584 470.997C307.256 474.91 311.11 479.131 317.902 481.203C311.839 478.932 312.167 474.32 314.657 470.76C317.141 467.19 321.23 463.724 320.714 459.966C320.24 456.544 315.985 453.507 314.678 450.124C313.365 446.746 317.454 443.236 324.308 442.773C340.86 441.671 334.631 451.149 341.719 454.852C348.37 458.318 365.443 460.561 365.428 467.002C365.423 469.923 364.813 473.703 359.667 475.185C369.844 472.662 373.032 465.338 365.808 460.919C359.829 457.265 341.089 453.022 344.146 449.507C343.152 450.647 361.032 451.628 375.584 449.859C384.152 448.818 393.115 451.513 395.516 455.667C393.501 452.179 389.126 449.452 382.87 448.52C376.605 447.595 371.928 448.339 365.469 448.46C359.011 448.57 350.157 449.044 345.594 446.73C342.245 445.021 342.417 441.577 338.402 440.26C334.714 439.042 329.646 439.147 326.261 437.731C323.62 436.629 322.62 434.838 320.37 433.532C313.641 429.62 297.193 435.163 296.761 430.105C296.209 423.641 288.193 420.302 280.173 419.139C274.902 418.373 269.563 417.117 266.73 414.78C263.896 412.449 264.449 408.978 268.99 407.457C273.558 405.93 279.995 406.928 284.136 408.763C288.266 410.592 290.912 413.094 294.428 415.226C302.834 420.302 318.475 422.142 331.459 421.519C335.271 421.293 358.464 420.594 363.969 432.882C365.35 435.962 368.209 439.362 374.11 440.718C381.178 442.332 390.423 437.786 397.35 439.599C403.074 441.081 404.074 446.674 407.475 449.314C411.287 452.273 418.719 453.16 425.173 454.742C415.339 452.334 410.313 448.438 407.157 444.889C403.574 440.866 401.558 435.516 391.016 436.668Z" fill="#6BBFC2"/>
<mask id="mask2_1643_3282" style="mask-type:luminance" maskUnits="userSpaceOnUse" x="126" y="399" width="271" height="112">
<path d="M126.678 399.219H396.001V510.97H126.678V399.219Z" fill="white"/>
</mask>
<g mask="url(#mask2_1643_3282)">
<path d="M156.152 451.656C163.595 453.265 171.345 453.932 172.261 449.353C174.829 436.624 183.886 433.113 182.933 431.488C182.558 430.843 179.345 431.08 174.001 432.651C171.371 433.427 163.527 437.726 160.923 438.629C159.59 439.092 158.48 439.875 157.527 440.718C153.699 444.096 147.105 444.961 142.053 446.95C139.313 448.036 137.032 450.73 135.871 451.375C137.215 448.46 139.282 447.507 140.386 446.785C142.35 445.495 144.063 444.233 145.86 443.743C148.855 442.911 150.725 442.674 152.907 440.817C158.173 436.342 161.121 434.265 166.23 433.031C166.006 432.028 157.037 430.386 153.204 430.512C149.199 430.639 142.652 432.166 137.798 431.455C136.037 431.196 134.543 430.573 132.886 430.171C131.23 429.774 129.251 430.529 127.423 431.179C129.006 429.526 132.246 429.074 134.73 429.333C137.215 429.587 139.496 430.325 142.121 430.176C145.97 429.961 149.746 427.884 153.616 427.57C158.688 427.157 162.6 429.862 167.678 429.454C170.511 429.229 173.152 427.807 176.001 427.206C183.1 425.707 194.866 428.655 205.095 427.785C210.381 427.333 216.412 427.592 220.918 425.344C224.553 423.525 232.048 415.375 232.444 414.279C233.574 411.143 228.47 408.774 224.558 409.408C220.647 410.041 217.694 410.906 213.772 411.507C209.027 412.229 203.949 411.843 199.194 411.331C195.287 410.912 187.136 410.179 183.204 410.614C176.35 411.369 173.673 413.265 166.829 414.047C170.688 412.692 174.616 411.457 178.418 409.992C183.001 408.217 189.449 408.719 192.095 408.807C218.699 409.716 217.491 401.649 233.355 400.161C240.709 399.483 253.569 399.285 260.944 399.665C265.777 399.908 270.621 401.754 275.459 401.792C277.959 401.809 280.459 401.809 282.959 401.803C284.168 401.798 285.662 398.806 286.142 399.571C288.423 399.142 293.136 401.214 293.735 401.07C294.017 400.999 294.319 401.037 294.61 401.07C297.938 401.462 301.704 401.169 304.876 401.969C307.444 402.619 312.079 404.443 313.543 406.393C317.116 408.945 320.6 411.827 325.095 413.033C326.985 413.54 328.996 413.733 330.824 414.378C334.85 415.789 337.392 419.133 341.215 420.886C344.959 422.6 349.491 422.605 353.709 422.225C357.923 421.845 362.152 421.128 366.392 421.553C370.636 421.977 375.048 423.839 376.636 427.024C372.819 423.195 365.662 423.123 359.767 424.032C353.866 424.936 347.548 426.418 341.991 424.401C337.871 422.908 334.871 419.668 330.574 418.549C329.058 418.153 327.147 418.136 326.188 419.144C325.319 420.048 325.793 421.338 326.095 422.473C327.595 428.038 330.574 428.7 333.808 431.163C336.147 432.948 338.688 433.675 341.584 434.778C346.428 436.624 351.892 437.759 357.168 438.348C362.444 438.932 367.996 440.051 371.746 443.115C373.902 444.884 375.282 447.148 377.298 449.011C381.918 453.287 388.61 456.059 390.621 461.387C391.761 464.402 391.881 467.08 391.965 470.204C392.048 473.246 393.36 476.265 395.673 478.696C393.032 475.803 390.642 473.791 389.584 470.314C388.428 466.468 389.157 462.567 385.928 459.508C383.152 456.88 378.225 453.133 375.142 450.697C373.194 449.16 371.866 448.091 370.074 446.432C366.048 442.696 361.105 442.343 355.121 441.247C349.147 440.15 341.803 438.144 336.053 436.381C330.303 434.618 324.48 430.099 322.725 425.316C321.918 423.123 322.293 421.927 321.392 419.756C319.777 415.893 315.459 413.144 310.959 411.298C306.459 409.463 304.345 407.495 296.595 407.501C294.938 407.501 286.34 406.256 282.756 409.959C280.824 411.959 282.892 414.334 284.506 416.549C288.194 421.602 295.022 424.407 301.079 427.586C307.142 430.766 313.199 435.273 313.563 441.103C313.772 444.421 313.47 447.529 311.548 450.884C309.829 453.893 307.746 456.439 314.23 458.208C317.657 459.145 323.569 458.494 326.892 459.652C330.428 460.886 332.048 463.735 334.902 465.812C338.829 468.661 344.178 468.485 349.423 468.865C357.438 469.438 364.59 474.243 367.267 480.244C365.668 477.841 362.178 476.502 359.293 474.899C352.798 471.279 344.313 472.816 339.204 471.648C341.09 476.106 338.345 483.688 337.006 488.295C335.532 493.375 338.105 493.337 338.621 499.597C338.985 503.977 336.725 509.168 331.662 510.821C334.761 508.711 335.491 505.057 335.084 501.823C334.678 498.588 333.366 495.447 333.261 492.196C333.032 485.479 338.636 477.423 333.918 471.923C330.444 467.873 329.517 464.638 323.965 463.14C315.798 460.913 307.147 462.759 304.47 457.194C303.293 454.747 305.642 451.281 306.272 448.713C309.944 433.835 293.251 430.738 291.949 431.769C290.1 433.235 294.199 437.819 291.308 442.161C289.36 445.088 284.584 446.449 283.506 449.678C282.501 452.675 285.715 455.436 286.657 458.439C288.626 464.683 280.626 471.185 283.334 477.241C285.928 483.038 295.574 483.363 302.11 486.388C311.834 490.896 313.652 503.503 305.511 509.896C311.001 501.398 308.881 491.706 299.715 489.424C295.688 488.427 290.886 487.523 287.225 485.826C283.647 484.167 281.183 478.828 277.053 478.745C273.98 478.685 271.704 485.088 270.22 487.314C268.73 489.546 267.98 492.069 266.423 494.262C263.876 497.861 259.09 501.007 259.735 505.118C260.048 507.151 260.475 508.623 260.517 511.086C257.22 507.361 256.933 501.972 259.829 497.965C261.595 495.524 264.428 493.557 265.418 490.841C266.069 489.05 268.532 481.715 269.517 480.04C273.1 473.951 277.22 475.13 279.85 468.744C285.277 455.623 273.761 456.378 276.267 450.405C278.475 445.132 287.73 442.239 286.85 436.734C286.251 432.943 281.006 430.909 278.824 427.52C277.871 426.044 277.527 424.341 276.543 422.881C274.86 420.362 271.215 418.825 267.735 419.167C264.251 419.514 263.386 422.726 262.475 425.498C260.47 431.604 266.152 436.723 264.053 442.806C263.402 444.696 261.803 446.438 261.954 448.399C262.1 450.24 263.756 451.722 264.834 453.342C267.313 457.056 266.574 462.054 263.084 465.206C259.532 468.424 254.022 469.477 249.371 471.532C244.725 473.593 240.454 477.996 242.543 481.958C239.694 478.624 240.126 473.631 243.532 470.617C246.366 468.105 250.61 467.124 254.256 465.476C257.902 463.823 261.36 460.699 260.392 457.381C259.553 454.499 255.626 452.642 255.22 449.689C255.048 448.427 255.017 447.06 255.631 445.887C260.86 435.929 254.22 427.366 239.444 437.77C234.517 441.241 238.59 447.518 234.73 449.992C230.303 452.83 218.725 449.182 216.178 453.298C213.782 457.177 222.293 464.424 222.063 468.76C221.834 473.119 216.866 476.425 215.746 480.69C214.188 486.62 220.308 491.932 221.527 497.888C222.579 503.03 219.527 508.623 214.152 511.411C218.949 508.369 218.694 502.302 216.725 497.618C214.756 492.929 211.517 488.366 211.928 483.407C212.303 478.888 215.673 474.866 216.715 470.413C217.756 465.961 214.517 461.338 209.084 460.693C195.97 459.15 200.907 471.725 195.293 476.613C190.022 481.192 176.491 484.085 176.511 492.692C176.517 496.588 177.006 501.641 181.079 503.625C173.022 500.258 170.48 490.411 176.204 484.559C180.938 479.72 195.787 474.194 193.366 469.504C194.152 471.025 179.98 472.232 168.433 469.664C161.631 468.149 154.522 471.615 152.626 477.186C154.22 472.507 157.683 468.909 162.652 467.763C167.621 466.617 171.329 467.68 176.454 467.912C181.574 468.143 188.6 468.848 192.209 465.807C194.866 463.569 194.73 458.996 197.912 457.282C200.834 455.701 204.855 455.871 207.537 454.02C209.636 452.576 210.423 450.218 212.209 448.515C217.543 443.412 230.579 450.747 230.923 444.085C231.36 435.593 237.725 431.24 244.079 429.719C248.261 428.716 252.496 427.057 254.741 423.999C256.991 420.946 256.558 416.417 252.959 414.433C249.345 412.444 244.235 413.728 240.954 416.119C237.673 418.505 235.574 421.778 232.782 424.556C226.116 431.185 213.72 433.527 203.412 432.529C200.397 432.221 181.985 430.854 177.631 447.132C176.532 451.221 174.261 455.723 169.584 457.442C163.98 459.492 156.631 453.188 151.136 455.458C146.59 457.332 145.803 464.87 143.11 468.375C140.095 472.303 134.194 473.339 129.069 475.351C136.876 472.298 140.855 467.113 143.35 462.39C146.188 457.018 147.777 449.849 156.152 451.656Z" fill="#6BBFC2"/>
</g>
<path d="M365.693 211.683L367.032 211.154L367.646 211.358C373.813 213.419 379.23 214.901 384.193 215.871C389.058 216.802 394.021 217.458 399.037 217.849C397.584 217.623 396.131 217.37 394.703 217.105C389.125 216.047 382.605 214.207 375.323 211.633L370.271 209.853L376.594 207.374C395.297 200.122 407.396 190.991 415.183 182.709C408.61 187.36 400.943 191.344 393.453 194.887L390.099 196.48L390.855 192.678C391.985 186.952 393.506 182.153 395.381 178.4C394.386 179.915 393.453 181.546 392.615 183.293C390.964 186.699 389.605 191.046 388.573 196.215L388.37 197.235L387.464 197.637C376.771 202.376 365.209 206.972 354.026 211.413C342.813 215.865 332.229 220.075 323.183 224.153L317.995 226.484L320.834 221.326C322.854 217.656 324.537 214.245 325.974 210.884C328.006 206.117 330.115 200.078 332.339 193.675L332.917 192.011L334.11 191.912C340.151 191.394 345.115 190.6 349.266 189.492C350.662 189.123 352.011 188.716 353.323 188.286C348.662 189.349 342.938 190.082 336.25 190.479L333.386 190.655L334.391 187.812C338.49 176.201 344.719 158.574 354.901 144.021C348.245 150.639 341.766 159.235 337.36 170.09C336.86 171.319 336.375 172.531 335.901 173.727L333.766 179.155L332.36 173.468C330.735 166.872 329.802 160.954 329.599 155.873C329.469 152.666 329.469 148.357 329.912 143.343C328.589 149.983 327.886 157.499 328.448 165.643C328.808 170.9 329.907 176.967 331.719 183.673L331.886 184.318L331.479 185.442C325.792 200.894 321.74 214.548 309.375 230.352L307.339 232.005C300.276 235.978 293.25 240.673 286.469 245.947L284.151 247.749L283.537 244.773C281.448 234.777 280.537 225.933 280.823 218.488C280.995 213.986 281.542 207.594 283.052 200.155C280.245 208.834 278.136 219.006 278.026 230.132C277.964 235.912 278.62 242.563 279.959 249.898L280.172 251.06L279.308 251.815C271.349 258.648 265.526 264.781 262.037 268.716L259.667 271.388L258.849 267.823C257.61 262.401 256.474 255.904 255.563 250.68C254.761 246.134 254.078 242.205 253.625 240.684C251.495 233.532 255.448 189.878 263.979 162.051L264.115 161.599L265.339 160.309C269.787 155.625 273.297 151.922 277.709 147.536L280.026 145.183C289.407 135.661 302.881 121.99 314.776 104.621C309.667 111.498 303.729 118.359 296.849 124.839C287.334 133.865 278.506 142.434 270.599 150.319L265.229 155.069C266.224 152.038 269.532 142.202 270.516 139.282C274.448 127.506 281.261 107.117 283.776 82.5077C282.662 90.2389 280.953 98.2069 278.448 106.192L277.495 109.217L273.808 105.365C269.042 100.4 264.927 96.113 262.016 90.834C260.792 88.6133 259.578 86.3485 258.433 83.9845C259.927 87.649 261.834 91.5118 264.25 95.5233C266.453 99.1933 270.474 104.45 275.881 110.727L276.641 111.614L273.74 120.001C258.651 163.638 247.75 195.168 244.328 219.331L243.578 224.632L240.891 220.086C234.157 208.702 227.823 196.166 222.073 182.825L221.641 181.822L222.214 180.913C226.068 174.752 229.047 169.087 231.063 164.067C235.537 152.964 237.131 142.571 237.328 133.76C236.094 142.252 233.901 149.382 232.146 154.132C229.985 159.995 226.459 166.801 221.683 174.344L219.756 177.381L218.407 174.014C213.209 161.097 208.474 147.338 204.328 133.104L204.063 132.179L204.589 131.385C208.589 125.351 211.427 120.166 213.271 115.521C214.933 111.349 216.037 107.332 216.724 103.552C216.151 105.591 215.552 107.371 215.016 108.842C213.183 113.868 210.021 119.802 205.625 126.47L203.381 129.875L202.292 125.891C197.183 107.316 193.766 90.5474 191.563 77.3445C192.016 85.1307 193.021 94.5094 195.037 105.64L195.896 110.379L192.141 107.652C183.886 101.645 177.657 96.2121 173.11 91.0324C172.86 90.7458 172.604 90.4538 172.349 90.1562C174.448 93.0547 176.792 95.9311 179.407 98.7414C183.604 103.277 189.026 107.977 195.985 113.118L196.584 113.559L196.745 114.314C199.724 128.437 204.011 143.85 209.469 160.111L210.886 164.321L206.985 162.602C191.625 155.835 154.026 138.102 136.756 119.604C136.339 119.152 135.922 118.689 135.511 118.21C137.709 121.174 140.183 124.106 142.974 126.944C159.401 143.64 188.511 159.097 209.766 170.377L210.922 170.989L211.183 171.705C212.026 174.058 212.881 176.449 213.75 178.885C218.667 192.655 224.235 208.272 231.808 225.101L233.453 228.765L229.709 227.889C218.922 225.354 212.151 222.307 204.318 218.791L202.922 218.163C192.771 213.606 183.219 208.096 174.662 201.929C184.12 210.531 197.094 219.904 213.974 227.09C216.636 228.236 218.703 229.311 220.703 230.352C224.412 232.275 227.615 233.94 233.443 235.389L234.297 235.604L234.693 236.43C235.386 237.907 240.506 268.021 240.558 268.319L241.151 271.702C241.328 272.242 237.459 270.121 237.5 270.148C237.011 269.774 233.787 267.983 230.063 265.905C206.558 252.807 144.125 218.02 120.188 187.933C117.391 184.241 114.797 180.004 112.453 175.336C115.766 182.908 120.219 190.699 126.193 198.182C140.25 215.865 161.802 229.261 182.651 242.205L190.099 247.793L182.813 246.757C147.657 240.343 116.818 230.81 90.7139 218.317C100.875 223.933 114.891 230.242 134.433 236.601L139.172 238.144L134.485 240.37C131.157 241.566 128.042 242.475 125.224 243.076C122.881 243.577 120.506 243.991 118.089 244.316C124.021 244.117 129.86 243.373 135.479 242.1C136.323 241.908 141.87 239.466 142.417 239.196C159.188 244.503 179.485 250.041 204.459 256.119L204.766 256.196L205.037 256.378C208.662 258.791 211.849 261.034 214.787 263.216L218.938 266.308L213.886 266.815C208.943 267.3 204.026 268.677 199.282 270.892C196.86 272.028 194.578 273.57 192.172 275.196C190.334 276.441 188.433 277.725 186.381 278.882C176.87 284.233 166.396 286.233 158.74 287.694C154.427 288.509 149.953 289.126 145.453 289.545C145.5 289.545 145.542 289.545 145.589 289.545C153.828 289.545 162.037 288.735 169.959 287.154L170.099 287.115L176.49 286.074L171.578 290.647C165.688 295.331 159.188 300.186 151.896 303.668C155.776 302.28 160.328 300.285 165.615 297.442C168.761 295.744 172.047 293.871 175.224 292.063C188.86 284.294 202.948 276.26 215.381 276.26C224.058 276.26 231.131 280.304 236.407 288.278C241.558 296.053 242.787 306.17 243.266 313.102C245.443 344.677 240.188 381.58 223.969 397.136C227.516 397.472 232.058 399.99 235.516 399.99C236.469 399.99 240.438 401.991 241.151 401.947C256.417 400.834 268.735 398.718 283.745 397.979C280.881 388.678 271.875 355.114 274.625 333.568C279.271 297.265 305.25 293.066 324.391 293.066C326.469 293.066 328.657 293.116 331.25 293.215L332.016 293.243L332.542 293.832C335.292 296.896 338.011 299.536 340.615 301.685C345.099 305.371 349.813 308.391 354.37 310.848C351.521 308.749 349.052 306.793 347.089 305.233C344.74 303.365 342.183 300.77 339.063 297.078L335.969 293.419L340.594 293.783C342.292 293.915 344.021 294.058 345.776 294.201C351.292 294.67 356.995 295.149 363.105 295.381C366.063 295.507 368.922 295.574 371.605 295.574C375.438 295.574 378.818 295.441 381.808 295.215C370.266 295.204 357.922 293.011 345.99 290.879C337.745 289.413 329.214 287.892 321.203 287.159L314.417 286.531L320.552 283.401C323.104 282.095 325.49 280.701 327.719 279.268C321.797 282.062 316.516 283.776 312.75 284.79C308.808 285.826 300.761 287.479 297.729 288.101C297.256 288.201 296.683 288.322 296.683 288.322C284.094 291.154 276.209 296.99 271.813 301.387L269.386 303.817L268.542 299.607C267.417 293.998 266.448 289.154 267.651 285.5C272.365 271.168 293.339 250.851 306.719 241.004L307.396 240.508L312.797 241.797C336.537 247.49 366.084 254.565 388.615 254.565C389.943 254.559 391.256 254.532 392.547 254.482C373.136 253.507 345.021 247.787 315.709 238.756L311.573 237.483L315.276 235.152C330.459 225.575 346.787 219.139 365.693 211.683Z" fill="#6BBFC2"/>
<path d="M182.454 16.4983C182.443 16.5479 169.417 35.129 188.839 49.1034C188.834 49.1585 202.058 31.2827 182.454 16.4983Z" fill="#6BBFC2"/>
<path d="M47.0262 165.544C47.0366 165.616 45.495 180.538 63.8075 179.386C63.8231 179.463 65.6616 164.183 47.0262 165.544Z" fill="#6BBFC2"/>
<path d="M66.4634 150.209C66.4686 150.258 65.6666 162.177 80.3593 161.086C80.3697 161.136 81.4426 149.035 66.4634 150.209Z" fill="#6BBFC2"/>
<path d="M200.011 22.0859C200.011 22.0859 190.845 30.9136 199.537 40.904C199.532 40.904 208.699 32.5778 200.011 22.0859Z" fill="#6BBFC2"/>
<path d="M206.271 16.4268C206.266 16.4378 203.823 23.3589 211.198 28.2246C211.667 25.9928 213.667 21.4467 206.271 16.4268Z" fill="#6BBFC2"/>
<path d="M258.474 13.1975C258.463 13.1314 239.922 25.3645 252.703 46.5576C252.698 46.4915 271.109 35.3659 258.474 13.1975Z" fill="#6BBFC2"/>
<path d="M278.006 9.61035C277.995 9.61586 265.099 26.3014 284.766 43.268C284.756 43.279 297.855 27.5357 278.006 9.61035Z" fill="#6BBFC2"/>
<path d="M169.172 40.7827C169.172 40.8819 159.688 60.9068 181.802 70.9633C181.802 71.0625 191.605 51.3627 169.172 40.7827Z" fill="#6BBFC2"/>
<path d="M210.307 37.201C210.297 37.1018 189.13 46.5962 196.021 69.3157C196.011 69.2275 216.839 60.7745 210.307 37.201Z" fill="#6BBFC2"/>
<path d="M227.5 41.3229C227.495 41.2678 211.797 47.759 216.88 64.7862C216.875 64.7311 232.323 58.9341 227.5 41.3229Z" fill="#6BBFC2"/>
<path d="M268.266 45.957C268.261 45.8964 252.537 51.3022 257.579 68.6765C257.574 68.6214 273.032 63.8714 268.266 45.957Z" fill="#6BBFC2"/>
<path d="M226.031 11.6216C226.021 11.5555 210.297 18.1239 215.391 35.129C215.385 35.0684 230.859 29.2164 226.031 11.6216Z" fill="#6BBFC2"/>
<path d="M238.901 72.0214C238.901 71.9553 222.125 74.2035 222.224 92.1289C222.224 92.0683 238.583 90.2884 238.901 72.0214Z" fill="#6BBFC2"/>
<path d="M272.188 55.3909C272.183 55.4074 264.651 66.4723 278.443 75.1347C278.438 75.1512 286.136 64.5547 272.188 55.3909Z" fill="#6BBFC2"/>
<path d="M95.927 78.667C95.9322 78.7221 92.7968 91.9526 108.286 91.8644C108.297 91.9195 111.682 78.6063 95.927 78.667Z" fill="#6BBFC2"/>
<path d="M233.865 95.2147C233.865 95.1651 219.453 96.427 220.323 111.52C220.323 111.476 234.396 110.622 233.865 95.2147Z" fill="#6BBFC2"/>
<path d="M301.443 36.7602C301.443 36.6996 286.995 36.2753 287.792 51.4234C287.792 51.3738 301.911 52.1012 301.443 36.7602Z" fill="#6BBFC2"/>
<path d="M250.798 96.4105C250.798 96.383 239.157 97.9259 240.87 110.137C240.87 110.109 252.277 108.914 250.798 96.4105Z" fill="#6BBFC2"/>
<path d="M250.901 70.9302C250.901 70.9633 250.302 59.9259 237.042 60.521C237.042 60.5541 237.328 71.101 250.901 70.9302Z" fill="#6BBFC2"/>
<path d="M253.516 84.1001C253.516 84.1277 252.995 74.5065 241.438 74.9473C241.438 74.9749 241.688 84.1993 253.516 84.1001Z" fill="#6BBFC2"/>
<path d="M257.876 91.6771C257.876 91.6936 254.896 84.486 246.256 87.4837C246.256 87.4947 248.969 94.4488 257.876 91.6771Z" fill="#6BBFC2"/>
<path d="M267.985 108.511C267.985 108.539 264.011 98.8351 252.475 102.725C252.475 102.753 256.094 112.055 267.985 108.511Z" fill="#6BBFC2"/>
<path d="M242.693 83.8963C242.688 83.8743 231.87 88.2881 236.928 99.601C236.922 99.579 247.605 95.6115 242.693 83.8963Z" fill="#6BBFC2"/>
<path d="M272.818 38.6448C272.813 38.6668 268.1 48.3817 280.188 54.0795C280.183 54.096 285.089 44.7007 272.818 38.6448Z" fill="#6BBFC2"/>
<mask id="mask3_1643_3282" style="mask-type:luminance" maskUnits="userSpaceOnUse" x="233" y="5" width="12" height="17">
<path d="M233.334 5.24609H244.001V21.1602H233.334V5.24609Z" fill="white"/>
</mask>
<g mask="url(#mask3_1643_3282)">
<path d="M235.11 5.54907C235.11 5.57111 230.406 15.6001 242.542 20.5429C242.537 20.565 247.433 10.8115 235.11 5.54907Z" fill="#6BBFC2"/>
</g>
<path d="M165.313 23.6013C165.313 23.6344 160.683 34.1372 172.745 37.5482C172.745 37.5757 177.552 27.2713 165.313 23.6013Z" fill="#6BBFC2"/>
<path d="M229.084 135.231C229.084 135.237 237.901 124.403 225.188 115.328C225.183 115.339 216.292 125.731 229.084 135.231Z" fill="#6BBFC2"/>
<path d="M248.901 57.022C248.901 57.0716 251.599 43.7474 235.605 40.9041C235.599 40.9426 232.615 53.6496 248.901 57.022Z" fill="#6BBFC2"/>
<path d="M242.282 124.872C242.282 124.839 254.792 124.227 254.157 111.14C254.157 111.107 241.907 111.404 242.282 124.872Z" fill="#6BBFC2"/>
<path d="M193.203 186.021C193.203 185.993 205.63 184.583 204.953 171.545C204.953 171.517 192.781 172.625 193.203 186.021Z" fill="#6BBFC2"/>
<path d="M220.365 75.0851C220.36 75.0465 232.907 74.0161 232.25 60.9454C232.245 60.9068 219.964 61.6397 220.365 75.0851Z" fill="#6BBFC2"/>
<path d="M227.833 36.8814C227.833 36.8428 240.417 35.9556 239.76 22.8794C239.76 22.8353 227.443 23.4194 227.833 36.8814Z" fill="#6BBFC2"/>
<path d="M218.089 135.931C218.083 135.97 212.182 149.14 227.839 155.069C227.839 155.102 233.984 142.257 218.089 135.931Z" fill="#6BBFC2"/>
<path d="M201.901 83.8577C201.896 83.8962 195.995 97.1984 211.698 102.698C211.698 102.731 217.849 89.7097 201.901 83.8577Z" fill="#6BBFC2"/>
<path d="M204.875 70.0706C204.875 70.1036 201.448 81.5708 215.177 84.6236C215.177 84.6511 218.849 73.3548 204.875 70.0706Z" fill="#6BBFC2"/>
<path d="M266.349 72.5063C266.344 72.5339 260.375 85.2685 276.078 92.3328C276.078 92.3604 282.302 80.017 266.349 72.5063Z" fill="#6BBFC2"/>
<path d="M268.959 186.44C268.954 186.451 261.49 197.675 275.162 206.057C275.157 206.068 282.782 195.306 268.959 186.44Z" fill="#6BBFC2"/>
<path d="M274.162 174.631C274.162 174.642 269.48 184.445 281.459 189.933C281.454 189.95 286.318 180.483 274.162 174.631Z" fill="#6BBFC2"/>
<path d="M263.177 203.66C263.172 203.682 257.255 216.549 272.823 223.304C272.818 223.332 278.99 210.878 263.177 203.66Z" fill="#6BBFC2"/>
<path d="M262.969 223.541C262.969 223.563 257.063 236.441 272.61 243.164C272.605 243.18 278.766 230.716 262.969 223.541Z" fill="#6BBFC2"/>
<path d="M252.495 150.605C252.495 150.561 237.365 149.217 235.547 165.158C235.547 165.114 250.255 166.729 252.495 150.605Z" fill="#6BBFC2"/>
<path d="M241.631 140.846C241.636 140.813 255.683 144.687 260.532 130.156C260.537 130.123 246.902 125.814 241.631 140.846Z" fill="#6BBFC2"/>
<path d="M282.589 109.823C282.594 109.79 296.604 114.617 301.625 100.543C301.631 100.516 288.047 95.2202 282.589 109.823Z" fill="#6BBFC2"/>
<path d="M287.656 94.6251C287.661 94.581 302.255 97.0552 304.156 82.1275C304.161 82.0834 289.937 79.1794 287.656 94.6251Z" fill="#6BBFC2"/>
<path d="M288.24 77.7688C288.24 77.7302 302.766 80.8491 305.407 66.1143C305.412 66.0647 291.271 62.4994 288.24 77.7688Z" fill="#6BBFC2"/>
<path d="M289.428 63.0339C289.433 62.9843 303.969 66.1804 306.615 51.4566C306.62 51.418 292.469 47.7701 289.428 63.0339Z" fill="#6BBFC2"/>
<path d="M343.912 29.2716C343.907 29.2165 330.287 36.3965 340.058 53.3466C340.058 53.2915 353.568 46.8773 343.912 29.2716Z" fill="#6BBFC2"/>
<path d="M329.464 125.406C329.469 125.417 317.823 114.892 305.188 124.888C305.188 124.91 316.297 134.857 329.464 125.406Z" fill="#6BBFC2"/>
<path d="M320.016 136.069C320.026 136.069 306.911 127.522 296.406 139.678C296.411 139.684 308.979 147.817 320.016 136.069Z" fill="#6BBFC2"/>
<path d="M303.542 148.082C303.542 148.071 289.906 140.709 280.406 153.862C280.411 153.857 293.505 160.932 303.542 148.082Z" fill="#6BBFC2"/>
<path d="M323.787 59.2977C323.787 59.2647 312.73 66.4447 322.975 79.262C322.97 79.2344 334.006 72.6715 323.787 59.2977Z" fill="#6BBFC2"/>
<path d="M355.922 58.1901C355.922 58.1625 343.11 52.6356 338.995 65.2765C339 65.2544 351.422 70.6822 355.922 58.1901Z" fill="#6BBFC2"/>
<path d="M330.177 44.6511C330.177 44.6456 322.282 51.5116 331.917 61.1383C331.917 61.1328 339.86 54.7462 330.177 44.6511Z" fill="#6BBFC2"/>
<path d="M358.943 121.185C358.943 121.158 349.277 125.582 356.412 136.763C356.412 136.736 366.011 132.779 358.943 121.185Z" fill="#6BBFC2"/>
<path d="M368.323 112.556C368.323 112.528 358.672 116.744 365.792 128.018C365.792 127.991 375.381 124.238 368.323 112.556Z" fill="#6BBFC2"/>
<mask id="mask4_1643_3282" style="mask-type:luminance" maskUnits="userSpaceOnUse" x="262" y="5" width="10" height="18">
<path d="M262.667 5.24609H272V22.5708H262.667V5.24609Z" fill="white"/>
</mask>
<g mask="url(#mask4_1643_3282)">
<path d="M266.229 5.24072C266.229 5.24072 258.505 12.8341 268.005 21.3256C268 21.3201 275.776 14.1676 266.229 5.24072Z" fill="#6BBFC2"/>
</g>
<path d="M395.261 73.3603C395.266 73.3107 382.381 73.8012 386.652 88.1007C386.657 88.0511 399.329 87.9299 395.261 73.3603Z" fill="#6BBFC2"/>
<path d="M402.995 147.106C402.995 147.084 395.437 152.942 404.604 162.745C404.604 162.723 412.193 157.356 402.995 147.106Z" fill="#6BBFC2"/>
<path d="M441.506 166.701C441.516 166.679 430.506 162.717 429.151 173.567C429.157 173.551 439.886 177.502 441.506 166.701Z" fill="#6BBFC2"/>
<path d="M430.057 117.637C430.073 117.598 416.932 113.405 416.188 126.668C416.198 126.635 429.021 130.828 430.057 117.637Z" fill="#6BBFC2"/>
<path d="M417.177 96.9449C417.188 96.8953 404.537 95.2311 406.558 108.743C406.563 108.693 418.948 110.572 417.177 96.9449Z" fill="#6BBFC2"/>
<path d="M436.678 179.53C436.678 179.53 426.48 173 421.475 182.197C421.48 182.202 431.36 188.512 436.678 179.53Z" fill="#6BBFC2"/>
<path d="M418.204 163.384C418.209 163.345 407.865 164.729 412.401 176.35C412.407 176.317 422.594 175.276 418.204 163.384Z" fill="#6BBFC2"/>
<path d="M378.521 59.3143C378.521 59.2922 370.182 64.4169 378.636 74.9198C378.636 74.9032 386.969 70.258 378.521 59.3143Z" fill="#6BBFC2"/>
<path d="M358.063 42.9319C358.063 42.8988 346.828 42.3809 348.625 54.355C348.631 54.3219 359.636 55.0824 358.063 42.9319Z" fill="#6BBFC2"/>
<path d="M406.531 172.757C406.536 172.724 396.161 174.388 400.713 185.977C400.719 185.944 410.943 184.627 406.531 172.757Z" fill="#6BBFC2"/>
<path d="M422.704 201.511C422.704 201.544 416.12 191.917 405.928 196.502C405.928 196.529 412.167 205.77 422.704 201.511Z" fill="#6BBFC2"/>
<path d="M413.766 210.603C413.766 210.636 409.615 200.337 397.896 202.293C397.896 202.326 401.725 212.223 413.766 210.603Z" fill="#6BBFC2"/>
<path d="M394.948 227.421C394.943 227.448 390.766 217.204 379.011 219.618C379.011 219.645 382.849 229.52 394.948 227.421Z" fill="#6BBFC2"/>
<path d="M413.224 230.55C413.219 230.578 409.073 220.345 397.359 222.45C397.354 222.483 401.182 232.341 413.224 230.55Z" fill="#6BBFC2"/>
<path d="M430.063 206.073C430.068 206.046 418.969 203.864 419.188 215.243C419.188 215.221 430.032 217.502 430.063 206.073Z" fill="#6BBFC2"/>
<path d="M432.844 225.255C432.844 225.272 424.537 216.785 416.146 223.519C416.146 223.547 424.105 231.702 432.844 225.255Z" fill="#6BBFC2"/>
<path d="M430.631 190.203C430.636 190.214 421.318 182.505 414.401 190.462C414.401 190.473 423.381 197.896 430.631 190.203Z" fill="#6BBFC2"/>
<path d="M363.646 198.871C363.646 198.893 357.61 189.228 346.808 194.094C346.808 194.121 352.49 203.434 363.646 198.871Z" fill="#6BBFC2"/>
<path d="M375.552 195.267C375.552 195.289 369.552 185.547 358.75 190.17C358.75 190.198 364.396 199.571 375.552 195.267Z" fill="#6BBFC2"/>
<path d="M385.229 188.952C385.229 188.974 379.802 180.086 370.016 184.076C370.016 184.103 375.125 192.661 385.229 188.952Z" fill="#6BBFC2"/>
<path d="M389.026 179.254C389.026 179.26 382.797 174.124 377.812 179.673C377.818 179.678 383.797 184.693 389.026 179.254Z" fill="#6BBFC2"/>
<path d="M362.87 164.74C362.87 164.696 350.203 168.883 357.36 183.095C357.36 183.045 369.881 179.392 362.87 164.74Z" fill="#6BBFC2"/>
<path d="M373.427 161.169C373.427 161.136 363.224 164.497 369.224 176.053C369.224 176.025 379.318 173.082 373.427 161.169Z" fill="#6BBFC2"/>
<path d="M349.548 169.429C349.548 169.401 339.308 173.192 345.344 184.638C345.344 184.61 355.475 181.249 349.548 169.429Z" fill="#6BBFC2"/>
<path d="M305.849 89.7539C305.844 89.7429 297.959 97.0773 307.61 106.252C307.604 106.241 315.542 99.3751 305.849 89.7539Z" fill="#6BBFC2"/>
<path d="M284.818 113.79C284.813 113.785 276.938 121.433 286.599 130.294C286.599 130.288 294.527 123.086 284.818 113.79Z" fill="#6BBFC2"/>
<path d="M312.292 72.4898C312.286 72.4732 302.156 81.9291 314.776 93.8867C314.771 93.8757 324.974 85.0535 312.292 72.4898Z" fill="#6BBFC2"/>
<path d="M316.156 112.291C316.161 112.297 328.031 121.362 337.766 110.539C337.771 110.55 326.427 100.984 316.156 112.291Z" fill="#6BBFC2"/>
<path d="M287.141 183.965C287.146 183.888 306.526 180.527 301.292 159.879C301.297 159.802 282.214 162.684 287.141 183.965Z" fill="#6BBFC2"/>
<path d="M372.006 128.079C372.016 128.018 391.501 134.901 395.589 116.127C395.61 116.066 376.683 108.363 372.006 128.079Z" fill="#6BBFC2"/>
<path d="M387.302 109.514C387.323 109.409 406.849 111.619 404.131 91.1148C404.141 91.0046 384.969 88.2274 387.302 109.514Z" fill="#6BBFC2"/>
<path d="M379.797 173.975C379.807 173.881 398.672 172.212 392.448 151.652C392.464 151.559 373.854 152.738 379.797 173.975Z" fill="#6BBFC2"/>
<path d="M410.73 161.499C410.74 161.444 424.599 160.992 420.037 145.778C420.047 145.723 406.381 145.817 410.73 161.499Z" fill="#6BBFC2"/>
<path d="M385.714 149.321C385.719 149.266 399.677 148.296 395.078 133.011C395.084 132.955 381.318 133.573 385.714 149.321Z" fill="#6BBFC2"/>
<path d="M429.256 162.293C429.271 162.194 445.761 159.124 436.323 139.722C436.334 139.618 419.959 142.367 429.256 162.293Z" fill="#6BBFC2"/>
<path d="M362.698 79.7469C362.698 79.6808 377.568 71.8946 364.391 53.7377C364.391 53.6716 349.542 61.1603 362.698 79.7469Z" fill="#6BBFC2"/>
<path d="M293.047 33.1013C293.047 33.0462 306.995 30.8255 302.818 15.9308C302.823 15.8702 289.084 17.7823 293.047 33.1013Z" fill="#6BBFC2"/>
<path d="M330.187 40.7221C330.177 40.7387 336.932 30.0099 322.661 20.813C322.656 20.8295 315.755 31.134 330.187 40.7221Z" fill="#6BBFC2"/>
<path d="M339.562 112.032C339.573 111.966 359.208 118.033 363.318 98.7358C363.328 98.6697 344.234 91.8203 339.562 112.032Z" fill="#6BBFC2"/>
<path d="M323.323 98.8902C323.323 98.8902 334.318 107.442 343.339 97.5621C343.344 97.5677 332.834 88.5802 323.323 98.8902Z" fill="#6BBFC2"/>
<path d="M330.975 87.0704C330.98 87.0594 343.006 94.3717 350.12 83.2627C350.12 83.2627 338.553 75.493 330.975 87.0704Z" fill="#6BBFC2"/>
<path d="M364.927 81.3285C364.933 81.2734 351.693 81.1852 354.37 95.3911C354.375 95.347 367.349 95.7493 364.927 81.3285Z" fill="#6BBFC2"/>
<path d="M398.333 130.548C398.349 130.454 417.609 133.044 414.729 112.942C414.745 112.837 395.838 109.685 398.333 130.548Z" fill="#6BBFC2"/>
<path d="M403.464 142.929C403.474 142.885 421.943 150.22 425.323 132.619C425.339 132.575 407.407 124.458 403.464 142.929Z" fill="#6BBFC2"/>
<path d="M336.745 75.3387C336.75 75.3332 348.776 82.7943 355.886 71.823C355.891 71.8175 344.328 63.8935 336.745 75.3387Z" fill="#6BBFC2"/>
<path d="M302.75 184.577C302.75 184.555 291.334 182.037 288.995 193.906C289 193.89 300.084 196.529 302.75 184.577Z" fill="#6BBFC2"/>
<path d="M284.906 218.097C284.911 218.075 298.323 221.491 301.911 207.715C301.911 207.688 288.88 203.875 284.906 218.097Z" fill="#6BBFC2"/>
<path d="M285.453 229.272C285.458 229.261 298.625 234.683 304.688 221.326C304.688 221.315 291.953 215.474 285.453 229.272Z" fill="#6BBFC2"/>
<path d="M286.609 204.993C286.615 204.977 298.104 207.897 301.109 196.099C301.115 196.083 289.953 192.837 286.609 204.993Z" fill="#6BBFC2"/>
<path d="M354.193 117.46C354.199 117.449 343.73 111.647 338.506 121.786C338.511 121.78 348.615 127.456 354.193 117.46Z" fill="#6BBFC2"/>
<path d="M336.011 133.732C336.016 133.732 346.256 140.047 352.516 130.509C352.521 130.509 342.672 123.858 336.011 133.732Z" fill="#6BBFC2"/>
<path d="M363.725 137.937C363.725 137.937 373.912 144.599 380.141 135.446C380.146 135.452 370.365 128.448 363.725 137.937Z" fill="#6BBFC2"/>
<path d="M358.964 146.291C358.969 146.302 368.354 153.89 376.032 145.734C376.032 145.745 367.063 137.832 358.964 146.291Z" fill="#6BBFC2"/>
<path d="M353.229 156.402C353.235 156.413 362.631 163.902 370.302 155.614C370.308 155.625 361.328 147.828 353.229 156.402Z" fill="#6BBFC2"/>
<path d="M312 147.845C312 147.872 311.594 158.535 324.651 160.386C324.646 160.419 325.375 149.922 312 147.845Z" fill="#6BBFC2"/>
<path d="M310.677 160.728C310.672 160.767 310.193 173.424 325.693 175.573C325.688 175.612 326.558 163.125 310.677 160.728Z" fill="#6BBFC2"/>
<path d="M332.75 147.123C332.755 147.112 343.896 151.415 347.656 140.483C347.661 140.466 336.859 135.815 332.75 147.123Z" fill="#6BBFC2"/>
<mask id="mask5_1643_3282" style="mask-type:luminance" maskUnits="userSpaceOnUse" x="39" y="183" width="27" height="19">
<path d="M39.6826 183.387H65.3337V201.725H39.6826V183.387Z" fill="white"/>
</mask>
<g mask="url(#mask5_1643_3282)">
<path d="M39.834 183.971C39.8652 184.086 39.6621 203.389 64.5319 200.177C64.5579 200.309 65.1413 180.097 39.834 183.971Z" fill="#6BBFC2"/>
</g>
<path d="M102.105 92.239C102.099 92.2721 86.438 108.985 100.506 123.814C100.506 123.847 116.172 107.96 102.105 92.239Z" fill="#6BBFC2"/>
<path d="M376.897 78.6339C376.897 78.5457 360.881 88.3432 374.798 109.365C374.798 109.272 390.74 100.565 376.897 78.6339Z" fill="#6BBFC2"/>
<path d="M314.74 29.1724C314.729 29.1063 298.537 40.6451 312.708 60.8242C312.703 60.7581 328.849 50.2828 314.74 29.1724Z" fill="#6BBFC2"/>
<path d="M134.266 56.2505C134.266 56.2505 124.834 65.2159 132.402 74.6057C132.397 74.6057 141.798 66.1252 134.266 56.2505Z" fill="#6BBFC2"/>
<path d="M134.527 47.1033C134.532 47.1474 132.594 58.5319 146.053 59.7552C146.053 59.7993 148.245 48.4203 134.527 47.1033Z" fill="#6BBFC2"/>
<path d="M151.084 33.002C151.084 33.0681 139.183 51.4012 157.917 63.2211C157.917 63.2872 170.011 45.4996 151.084 33.002Z" fill="#6BBFC2"/>
<path d="M56.5625 136.416C56.5833 136.477 59.1615 150.826 78.7396 145.255C78.7552 145.332 76.5469 130.321 56.5625 136.416Z" fill="#6BBFC2"/>
<path d="M130.922 160.877C130.933 160.937 130.219 176.256 149.011 176.637C149.021 176.703 150.12 161.213 130.922 160.877Z" fill="#6BBFC2"/>
<path d="M117.042 60.1189C117.036 60.1905 102.984 79.1794 120.896 92.2612C120.89 92.3328 135.078 73.9941 117.042 60.1189Z" fill="#6BBFC2"/>
<path d="M43.1777 210.305C43.1934 210.333 50.5111 226.82 75.0059 216.499C75.0319 216.554 68.209 198.976 43.1777 210.305Z" fill="#6BBFC2"/>
<path d="M71.5833 178.069C71.5989 178.196 62.7708 198.364 84.5781 205.395C84.5885 205.517 93.6822 185.316 71.5833 178.069Z" fill="#6BBFC2"/>
<path d="M143.214 192.556C143.219 192.589 146.474 204.932 162.125 200.083C162.131 200.116 159.282 187.547 143.214 192.556Z" fill="#6BBFC2"/>
<path d="M145.818 99.6064C145.813 99.612 134.297 110.016 144.641 120.568C144.636 120.568 156.146 110.726 145.818 99.6064Z" fill="#6BBFC2"/>
<path d="M135.167 218.587C135.173 218.62 130.558 204.178 112.537 211.578C112.542 211.611 116.563 225.343 135.167 218.587Z" fill="#6BBFC2"/>
<path d="M137.25 89.5334C137.245 89.5334 127.214 98.0966 135.406 107.238C135.401 107.238 145.406 99.1491 137.25 89.5334Z" fill="#6BBFC2"/>
<path d="M157.714 76.3415C157.724 76.3745 153.084 64.2957 137.792 71.5584C137.797 71.5915 141.922 83.0366 157.714 76.3415Z" fill="#6BBFC2"/>
<path d="M165.875 90.6905C165.881 90.7236 161.24 78.54 145.933 85.5272C145.943 85.5603 150.063 97.1212 165.875 90.6905Z" fill="#6BBFC2"/>
<path d="M174.412 101.397C174.417 101.408 171.173 92.8231 160.412 97.4518C160.417 97.4684 163.313 105.723 174.412 101.397Z" fill="#6BBFC2"/>
<path d="M184.568 96.3553C184.563 96.3553 192.131 89.4728 184.709 82.1494C184.704 82.1494 177.146 88.7454 184.568 96.3553Z" fill="#6BBFC2"/>
<path d="M196.98 153.625C196.98 153.63 204.532 146.935 197.131 139.403C197.131 139.403 189.584 145.789 196.98 153.625Z" fill="#6BBFC2"/>
<path d="M325.334 188.247C325.334 188.264 326.907 179.183 315.766 176.444C315.766 176.455 313.99 185.211 325.334 188.247Z" fill="#6BBFC2"/>
<path d="M184.208 111.256C184.208 111.267 180.974 102.61 170.203 107.051C170.203 107.068 173.099 115.399 184.208 111.256Z" fill="#6BBFC2"/>
<path d="M170.396 78.7716C170.396 78.7772 176.656 71.6246 168.959 65.9324C168.953 65.9379 162.672 72.7928 170.396 78.7716Z" fill="#6BBFC2"/>
<path d="M178.479 118.044C178.479 118.05 182.974 125.158 192.209 119.841C192.214 119.852 188.032 112.595 178.479 118.044Z" fill="#6BBFC2"/>
<path d="M176.099 87.2521C176.094 87.2466 184.005 81.8519 178.547 74.0933C178.547 74.0878 170.698 79.218 176.099 87.2521Z" fill="#6BBFC2"/>
<path d="M116.891 140.339C116.881 140.323 104.339 147.602 110.152 159.587C110.141 159.571 122.542 152.876 116.891 140.339Z" fill="#6BBFC2"/>
<path d="M123.068 153.074C123.063 153.057 110.506 160.16 116.318 172.267C116.308 172.25 128.724 165.72 123.068 153.074Z" fill="#6BBFC2"/>
<path d="M125.568 167.958C125.568 167.963 116.553 175.441 123.766 183.762C123.766 183.767 132.75 176.703 125.568 167.958Z" fill="#6BBFC2"/>
<path d="M86.61 224.351C86.6152 224.346 80.8496 216.786 70.2402 224.798C70.2402 224.792 75.5736 232.16 86.61 224.351Z" fill="#6BBFC2"/>
<path d="M115.266 236.882C115.271 236.882 109.48 228.942 98.7871 236.574C98.7923 236.574 104.162 244.299 115.266 236.882Z" fill="#6BBFC2"/>
<path d="M96.7864 216.223C96.7864 216.245 101.547 206.134 90.3958 203.186C90.401 203.213 85.4843 212.884 96.7864 216.223Z" fill="#6BBFC2"/>
<path d="M108.412 221.348C108.412 221.37 113.193 211.297 102.011 208.112C102.016 208.14 97.0834 217.777 108.412 221.348Z" fill="#6BBFC2"/>
<path d="M111.688 192.077C111.693 192.093 106.422 181.309 92.292 189.366C92.3024 189.382 97.0524 199.703 111.688 192.077Z" fill="#6BBFC2"/>
<path d="M111.849 126.911C111.844 126.9 101.354 133.573 106.755 143.414C106.75 143.403 117.136 137.221 111.849 126.911Z" fill="#6BBFC2"/>
<path d="M148.302 226.759C148.308 226.759 142.485 219.111 132.448 226.362C132.453 226.362 137.881 233.824 148.302 226.759Z" fill="#6BBFC2"/>
<path d="M147.255 299.618C147.26 299.618 141.453 291.854 131.453 298.836C131.458 298.83 136.875 306.446 147.255 299.618Z" fill="#6BBFC2"/>
<path d="M71.7402 166.211C71.7454 166.233 73.2715 176.141 86.1152 171.864C86.1257 171.898 84.8809 161.786 71.7402 166.211Z" fill="#6BBFC2"/>
<path d="M133.568 76.292C133.562 76.2755 122.281 82.7117 127.396 93.5286C127.391 93.5121 138.536 87.5939 133.568 76.292Z" fill="#6BBFC2"/>
<path d="M206.828 229.966C206.828 229.966 197.844 221.007 186.547 231.08C186.547 231.08 195.036 239.819 206.828 229.966Z" fill="#6BBFC2"/>
<path d="M151.027 247.269C151.027 247.269 140.818 254.449 148.115 264.517C148.115 264.522 158.256 257.788 151.027 247.269Z" fill="#6BBFC2"/>
<path d="M162.298 250.724C162.298 250.724 154.417 256.168 160.042 264.032C160.037 264.032 167.87 258.918 162.298 250.724Z" fill="#6BBFC2"/>
<path d="M238.865 177.342C238.86 177.32 227.469 181.849 232.547 193.813C232.542 193.79 243.787 189.713 238.865 177.342Z" fill="#6BBFC2"/>
<path d="M135.662 181.375C135.667 181.392 139.824 190.771 152.053 185.101C152.058 185.117 148.251 175.551 135.662 181.375Z" fill="#6BBFC2"/>
<path d="M156.625 206.949C156.63 206.966 162.141 219.331 177.979 212.438C177.984 212.465 172.938 199.813 156.625 206.949Z" fill="#6BBFC2"/>
<path d="M171.308 220.026C171.313 220.037 178.896 231.487 193.651 222.77C193.657 222.792 186.558 211.022 171.308 220.026Z" fill="#6BBFC2"/>
<path d="M207.807 216.069C207.802 216.075 218.083 206.062 206.719 195.592C206.713 195.603 196.422 205.175 207.807 216.069Z" fill="#6BBFC2"/>
<path d="M191.932 208.195C191.927 208.217 201.005 196.959 188.302 188.115C188.302 188.126 179.161 198.904 191.932 208.195Z" fill="#6BBFC2"/>
<path d="M177.511 197.692C177.511 197.703 186.001 187.702 174.917 179.596C174.917 179.618 166.381 189.184 177.511 197.692Z" fill="#6BBFC2"/>
<path d="M163.834 187.404C163.834 187.42 171.766 176.912 160.198 169.693C160.198 169.71 152.193 179.772 163.834 187.404Z" fill="#6BBFC2"/>
<path d="M186.225 148.688C186.22 148.699 196.548 136.576 183.063 126.718C183.063 126.74 172.678 138.356 186.225 148.688Z" fill="#6BBFC2"/>
<path d="M169.432 138.179C169.427 138.19 180.537 127.291 168.901 116.771C168.901 116.783 157.802 127.225 169.432 138.179Z" fill="#6BBFC2"/>
<path d="M155.786 128.25C155.781 128.25 166.911 119.146 157.698 108.577C157.693 108.577 146.625 117.306 155.786 128.25Z" fill="#6BBFC2"/>
<path d="M414.802 235.19C414.797 235.245 419.625 249.368 402.891 250.002C402.885 250.057 397.802 235.907 414.802 235.19Z" fill="#6BBFC2"/>
<path d="M429.495 233.196C429.49 233.24 434.104 245.115 420.297 245.892C420.292 245.936 415.479 234.083 429.495 233.196Z" fill="#6BBFC2"/>
<path d="M441.354 227.261C441.354 227.294 448.609 238.59 436.791 242.133C436.786 242.172 429.422 231.063 441.354 227.261Z" fill="#6BBFC2"/>
<path d="M345.448 242.696C345.443 242.745 343.292 227.173 362.14 228.793C362.135 228.842 364.687 243.665 345.448 242.696Z" fill="#6BBFC2"/>
<path d="M367.922 247.732C367.912 247.793 364.125 232.826 381.782 232.964C381.776 233.019 385.896 247.247 367.922 247.732Z" fill="#6BBFC2"/>
<path d="M387.234 249.308C387.234 249.358 382.182 235.835 397.661 234.551C397.656 234.595 402.953 247.478 387.234 249.308Z" fill="#6BBFC2"/>
<path d="M169.828 173.947C169.828 173.925 182.859 182.329 194.677 168.002C194.682 167.98 182.177 159.075 169.828 173.947Z" fill="#6BBFC2"/>
<path d="M152.401 165.021C152.401 164.993 165.407 173.027 177.203 158.452C177.203 158.425 164.709 149.878 152.401 165.021Z" fill="#6BBFC2"/>
<path d="M99.3809 201.329C99.3861 201.329 106.146 211.969 120.844 202.828C120.85 202.839 114.516 191.818 99.3809 201.329Z" fill="#6BBFC2"/>
<path d="M80.5264 232.38C80.5264 232.358 89.8493 240.822 102.552 229.189C102.558 229.173 93.6722 220.356 80.5264 232.38Z" fill="#6BBFC2"/>
<path d="M40.2295 230.523C40.2295 230.49 49.4378 238.177 62.0107 226.076C62.0107 226.049 53.2139 217.987 40.2295 230.523Z" fill="#6BBFC2"/>
<path d="M142.365 154.093C142.37 154.071 152.318 160.017 161.324 148.666C161.324 148.655 151.771 142.367 142.365 154.093Z" fill="#6BBFC2"/>
<path d="M128.328 142.114C128.333 142.108 136.229 150.501 148.182 140.736C148.188 140.736 140.693 131.98 128.328 142.114Z" fill="#6BBFC2"/>
<path d="M107.443 270.903C107.449 270.942 105.193 284.475 121.454 285.065C121.459 285.104 124.022 271.576 107.443 270.903Z" fill="#6BBFC2"/>
<path d="M169.235 280.987C169.235 281.009 171.584 269.426 158.021 267.933C158.026 267.961 155.417 279.059 169.235 280.987Z" fill="#6BBFC2"/>
<path d="M114.829 292.388C114.834 292.372 106.251 285.726 96.8027 295.81C96.8027 295.794 104.933 302.412 114.829 292.388Z" fill="#6BBFC2"/>
<path d="M190.709 271.239C190.703 271.256 195.558 262.759 185.797 258.092C185.797 258.103 180.834 266.252 190.709 271.239Z" fill="#6BBFC2"/>
<path d="M155.334 284.106C155.334 284.134 158.058 270.804 142.48 269.3C142.48 269.333 139.459 282.078 155.334 284.106Z" fill="#6BBFC2"/>
<path d="M139.11 285.815C139.11 285.853 141.729 272.898 126.599 271.702C126.604 271.735 123.688 284.101 139.11 285.815Z" fill="#6BBFC2"/>
<path d="M171.818 262.395C171.818 262.423 168.854 273.306 181.708 275.764C181.708 275.791 184.917 265.079 171.818 262.395Z" fill="#6BBFC2"/>
<path d="M88.0684 172.421C88.0736 172.46 89.3184 186.026 106.568 181.734C106.579 181.778 105.704 167.891 88.0684 172.421Z" fill="#6BBFC2"/>
<path d="M84.9277 158.717C84.9382 158.755 86.584 171.38 102.808 166.63C102.818 166.674 101.521 153.735 84.9277 158.717Z" fill="#6BBFC2"/>
<path d="M83.0938 144.483C83.099 144.516 84.5781 155.851 99.1563 151.382C99.1615 151.426 98 139.833 83.0938 144.483Z" fill="#6BBFC2"/>
<path d="M87.7248 126.409C87.73 126.437 84.9487 135.898 95.8289 136.444C95.8341 136.471 98.7873 127.07 87.7248 126.409Z" fill="#6BBFC2"/>
<path d="M49.9639 156.7C49.9691 156.711 52.6774 164.547 63.516 158.987C63.5212 158.998 61.068 150.953 49.9639 156.7Z" fill="#6BBFC2"/>
<path d="M118.35 132.013C118.35 132.002 126.24 140.207 138.167 130.25C138.173 130.25 130.683 121.665 118.35 132.013Z" fill="#6BBFC2"/>
<path d="M112.1 116.259C112.105 116.287 115.37 127.197 129.73 121.444C129.74 121.477 126.824 110.258 112.1 116.259Z" fill="#6BBFC2"/>
<path d="M68.526 113.57C68.5416 113.664 62.0051 130.558 80.901 132.636C80.9166 132.73 87.6978 115.741 68.526 113.57Z" fill="#6BBFC2"/>
<path d="M83.5372 94.5479C83.5424 94.5974 74.0788 108.175 87.7195 114.639C87.7195 114.683 97.2872 101.441 83.5372 94.5479Z" fill="#6BBFC2"/>
<path d="M110.308 103.028C110.313 103.05 111.886 112.203 123.631 108.473C123.636 108.495 122.339 99.1877 110.308 103.028Z" fill="#6BBFC2"/>
<path d="M338.506 276.425C338.501 276.43 341.86 267.586 355.105 272.667C355.105 272.678 352.152 281.213 338.506 276.425Z" fill="#6BBFC2"/>
<path d="M348.662 287.401C348.662 287.429 348.579 277.786 362.423 278.673C362.417 278.695 362.834 287.903 348.662 287.401Z" fill="#6BBFC2"/>
<path d="M362.443 289.843C362.443 289.865 360.38 280.277 373.828 278.822C373.828 278.849 376.167 287.975 362.443 289.843Z" fill="#6BBFC2"/>
<path d="M376.745 291.182C376.74 291.209 373.209 281.869 386.011 278.723C386.011 278.756 389.766 287.611 376.745 291.182Z" fill="#6BBFC2"/>
<path d="M390.672 289.253C390.672 289.286 388.276 279.786 401.558 278.331C401.553 278.364 404.214 287.379 390.672 289.253Z" fill="#6BBFC2"/>
<path d="M404.12 290.526C404.11 290.57 402.927 278.816 419.761 279.588C419.755 279.632 421.334 290.719 404.12 290.526Z" fill="#6BBFC2"/>
<path d="M370.745 319.731C370.745 319.687 383.839 312.386 396.917 329.528C396.912 329.484 384.49 336.957 370.745 319.731Z" fill="#6BBFC2"/>
<path d="M326.772 273.223C326.777 273.245 321.412 262.417 333.079 254.383C333.084 254.411 338.579 264.693 326.772 273.223Z" fill="#6BBFC2"/>
<path d="M316.23 279.847C316.23 279.858 308.381 271.449 317.125 259.172C317.125 259.183 324.985 267.101 316.23 279.847Z" fill="#6BBFC2"/>
<path d="M366.245 271.322C366.251 271.289 351.485 271.432 352.261 255.447C352.266 255.408 366.725 255.05 366.245 271.322Z" fill="#6BBFC2"/>
<path d="M384.688 272.92C384.698 272.887 369.964 272.738 370.755 256.896C370.761 256.863 385.177 256.808 384.688 272.92Z" fill="#6BBFC2"/>
<mask id="mask6_1643_3282" style="mask-type:luminance" maskUnits="userSpaceOnUse" x="446" y="229" width="15" height="14">
<path d="M446.667 229.939H460.386V242.635H446.667V229.939Z" fill="white"/>
</mask>
<g mask="url(#mask6_1643_3282)">
<path d="M459.854 230.38C459.849 230.441 464.297 243.621 447.432 241.875C447.422 241.935 442.734 228.584 459.854 230.38Z" fill="#6BBFC2"/>
</g>
<path d="M456.359 206.365C456.339 206.453 458.578 223.965 435.615 217.496C435.594 217.59 433 199.433 456.359 206.365Z" fill="#6BBFC2"/>
<path d="M399.11 271.901C399.115 271.884 387.871 271.553 388.48 259.552C388.485 259.524 399.485 259.679 399.11 271.901Z" fill="#6BBFC2"/>
<path d="M417.407 268.049C417.407 268.016 405.98 270.198 403.256 258.158C403.261 258.124 414.376 255.794 417.407 268.049Z" fill="#6BBFC2"/>
<path d="M431.547 265.845C431.552 265.812 420.162 267.751 417.448 255.766C417.448 255.733 428.526 253.656 431.547 265.845Z" fill="#6BBFC2"/>
<path d="M446.464 258.604C446.469 258.565 436.859 264.103 429.469 253.904C429.469 253.871 438.719 248.178 446.464 258.604Z" fill="#6BBFC2"/>
<path d="M383.521 310.363C383.527 310.341 371.683 312.265 370.131 300.098C370.131 300.07 381.673 297.993 383.521 310.363Z" fill="#6BBFC2"/>
<path d="M371.485 330.697C371.49 330.669 359.271 331.204 359.636 319.064C359.636 319.048 371.584 318.343 371.485 330.697Z" fill="#6BBFC2"/>
<path d="M353.495 326.917C353.495 326.911 341.5 323.357 346.62 312.435C346.62 312.43 358.459 315.731 353.495 326.917Z" fill="#6BBFC2"/>
<path d="M338.031 320.139C338.037 320.144 327.787 313.036 336.828 304.66C336.828 304.666 347.037 311.438 338.031 320.139Z" fill="#6BBFC2"/>
<path d="M322.328 312.7C322.328 312.716 316.745 302.026 329.344 299.056C329.344 299.078 335.084 309.355 322.328 312.7Z" fill="#6BBFC2"/>
<path d="M369.641 308.881C369.641 308.848 357.781 310.942 356.219 298.709C356.224 298.687 367.781 296.439 369.641 308.881Z" fill="#6BBFC2"/>
<path d="M398.167 308.429C398.172 308.402 386.354 310.132 384.812 298.031C384.812 297.998 396.328 296.13 398.167 308.429Z" fill="#6BBFC2"/>
<path d="M414.188 301.37C414.188 301.337 403.771 306.77 397.271 296.394C397.271 296.367 407.318 290.807 414.188 301.37Z" fill="#6BBFC2"/>
<path d="M456.282 251.259C456.282 251.236 449.162 256.19 442.396 248.492C442.396 248.476 449.225 243.384 456.282 251.259Z" fill="#6BBFC2"/>
<path d="M45.1201 240.662C45.1253 240.624 56.6774 253.595 76.4378 238.045C76.443 238.017 65.4378 224.302 45.1201 240.662Z" fill="#6BBFC2"/>
<path d="M78.9639 283.236C78.9691 283.214 88.542 295.502 105.724 283.434C105.729 283.418 96.6774 270.705 78.9639 283.236Z" fill="#6BBFC2"/>
<path d="M99.6094 306.534C99.6094 306.506 110.573 317.351 125.625 304.478C125.63 304.451 115.203 293.276 99.6094 306.534Z" fill="#6BBFC2"/>
<path d="M91.7715 263.42C91.7663 263.376 105.74 264.109 109.37 249.077C109.365 249.032 95.7767 248.052 91.7715 263.42Z" fill="#6BBFC2"/>
<path d="M131.36 264.395C131.354 264.379 145.177 259.111 140.802 245.032C140.797 245.015 127.193 249.953 131.36 264.395Z" fill="#6BBFC2"/>
<path d="M111.364 267.564C111.359 267.525 127.432 265.057 124.927 248.955C124.917 248.917 109.156 251.137 111.364 267.564Z" fill="#6BBFC2"/>
<path d="M76.5889 255.662C76.5889 255.628 87.2139 260.56 95.7087 248.261C95.7087 248.234 85.4795 243.048 76.5889 255.662Z" fill="#6BBFC2"/>
<path d="M66.8965 249.468C66.8965 249.451 74.7559 254.113 82.4902 244.679C82.4902 244.668 74.959 239.814 66.8965 249.468Z" fill="#6BBFC2"/>
<path d="M117.859 315.339C117.859 315.323 125.786 320.85 133.589 311.89C133.589 311.884 126.005 306.208 117.859 315.339Z" fill="#6BBFC2"/>
<path d="M168.318 319.439C168.308 319.434 181.334 312.827 174.521 299.381C174.516 299.376 161.646 305.597 168.318 319.439Z" fill="#6BBFC2"/>
<path d="M188.61 312.628C188.605 312.634 201.099 302.335 188.214 291.198C188.209 291.209 175.724 301.034 188.61 312.628Z" fill="#6BBFC2"/>
<path d="M149.234 321.158C149.234 321.142 162.297 319.56 161.703 305.801C161.703 305.784 148.917 307.085 149.234 321.158Z" fill="#6BBFC2"/>
<path d="M136.047 321.313C136.042 321.296 146.516 320.91 147.24 309.829C147.24 309.818 137.021 309.983 136.047 321.313Z" fill="#6BBFC2"/>
</g>
</g>
</g>
<defs>
<clipPath id="clip0_1643_3282">
<rect width="500" height="529" fill="white"/>
</clipPath>
</defs>
</svg>
