<svg width="740" height="848" viewBox="0 0 740 848" fill="none" xmlns="http://www.w3.org/2000/svg">
<path d="M623.928 722.329C607.303 724.047 589.982 724.675 587.913 718.924C582.15 702.911 561.898 698.185 564.018 696.185C564.862 695.392 572.049 695.789 583.988 697.954C589.866 699.011 607.403 704.696 613.215 705.919C616.212 706.547 618.696 707.571 620.815 708.662C629.393 713.025 644.114 714.38 655.407 717.074C661.534 718.544 666.618 721.982 669.234 722.824C666.204 719.172 661.6 717.883 659.116 716.941C654.728 715.272 650.903 713.62 646.879 712.926C640.206 711.769 636.017 711.389 631.132 708.976C619.375 703.192 612.768 700.482 601.358 698.714C601.839 697.474 621.875 695.822 630.436 696.169C639.378 696.532 654 698.763 664.829 698.168C668.737 697.954 672.066 697.276 675.758 696.879C679.451 696.483 683.872 697.557 687.946 698.466C684.402 696.334 677.182 695.574 671.652 695.739C666.104 695.888 661.021 696.681 655.159 696.351C646.565 695.871 638.136 693.095 629.509 692.5C618.166 691.723 609.456 694.913 598.113 694.202C591.787 693.789 585.876 691.922 579.517 691.062C563.654 688.881 537.325 692.219 514.44 690.93C502.617 690.253 489.138 690.468 479.053 687.559C470.906 685.196 454.132 674.735 453.254 673.314C450.737 669.315 462.147 666.357 470.906 667.216C479.65 668.108 486.273 669.265 495.049 670.108C505.664 671.133 517.023 670.769 527.638 670.273C536.381 669.86 554.596 669.216 563.389 669.943C578.689 671.182 584.684 673.678 599.968 674.983C591.34 673.099 582.564 671.381 574.069 669.364C563.836 666.935 549.429 667.299 543.518 667.315C484.038 667.629 486.72 657.516 451.234 655.301C434.791 654.326 405.995 653.979 389.486 654.491C378.656 654.822 367.826 657.235 356.98 657.334C351.383 657.367 345.786 657.4 340.189 657.45C337.49 657.45 334.162 653.616 333.069 654.624C327.952 654.111 314.755 656.673 314.092 656.722C306.641 657.301 298.212 657.003 291.108 658.144C285.346 659.052 274.963 661.548 271.668 664.126C263.653 667.547 255.854 671.397 245.77 673.132C241.53 673.859 237.026 674.206 232.936 675.115C223.912 677.115 218.199 681.56 209.621 684.023C201.226 686.419 191.092 686.667 181.653 686.419C172.214 686.171 162.759 685.493 153.271 686.32C143.782 687.129 133.88 689.823 130.303 694.054C138.881 688.848 154.894 688.286 168.075 689.112C181.256 689.922 195.397 691.492 207.866 688.6C217.106 686.468 223.829 682.122 233.466 680.486C236.861 679.908 241.133 679.825 243.286 681.081C245.223 682.221 244.163 683.89 243.484 685.378C240.09 692.632 233.417 693.624 226.147 696.962C220.898 699.375 215.185 700.432 208.71 702.002C197.848 704.63 185.611 706.398 173.787 707.472C161.964 708.513 149.545 710.315 141.116 714.529C136.281 716.941 133.168 719.982 128.647 722.51C118.282 728.344 103.279 732.393 98.7419 739.433C96.1586 743.399 95.8606 746.853 95.6453 750.901C95.4466 754.818 92.4825 758.817 87.2996 762.122C93.2277 758.189 98.6094 755.429 100.977 750.868C103.594 745.828 102.004 740.837 109.257 736.656C115.5 733.07 126.544 727.898 133.466 724.543C137.838 722.428 140.818 720.974 144.826 718.71C153.883 713.62 164.945 712.86 178.341 711.091C191.737 709.34 208.197 706.365 221.097 703.804C233.98 701.242 247.045 695.161 251.002 688.914C252.824 686.039 251.996 684.518 254.033 681.676C257.659 676.619 267.346 672.901 277.43 670.372C287.531 667.861 292.267 665.25 309.621 665.068C313.347 665.018 332.589 663.233 340.603 667.943C344.942 670.472 340.289 673.578 336.662 676.454C328.383 683.031 313.066 686.799 299.487 691.095C285.892 695.376 272.297 701.424 271.453 708.96C270.956 713.256 271.635 717.255 275.907 721.519C279.749 725.336 284.402 728.542 269.863 731.071C262.18 732.409 248.932 731.831 241.464 733.483C233.549 735.219 229.906 738.986 223.481 741.812C214.672 745.679 202.683 745.729 190.926 746.489C172.959 747.679 156.914 754.322 150.87 762.238C154.48 759.048 162.312 757.098 168.77 754.867C183.359 749.794 202.352 751.331 213.811 749.563C209.555 755.429 215.665 765.097 218.629 770.996C221.891 777.491 216.145 777.557 214.937 785.688C214.092 791.372 219.126 797.966 230.469 799.85C223.547 797.272 221.925 792.595 222.852 788.381C223.779 784.184 226.743 780.052 227.008 775.838C227.555 767.146 215.036 757.016 225.65 749.678C233.466 744.275 235.569 740.044 248.005 737.846C266.336 734.624 285.71 736.689 291.754 729.402C294.387 726.212 289.154 721.816 287.747 718.528C279.6 699.424 317.007 694.913 319.921 696.235C324.061 698.086 314.854 704.101 321.312 709.621C325.667 713.339 336.364 714.975 338.782 719.09C341.017 722.94 333.797 726.559 331.661 730.476C327.24 738.573 345.14 746.72 339.047 754.587C333.201 762.122 311.559 762.849 296.887 766.997C275.063 773.194 270.923 789.571 289.138 797.487C276.867 786.745 281.686 774.12 302.236 770.831C311.277 769.393 322.057 768.088 330.27 765.774C338.318 763.51 343.865 756.57 353.122 756.355C360.027 756.19 365.094 764.37 368.422 767.196C371.751 770.021 373.44 773.244 376.917 776.02C382.597 780.581 393.344 784.498 391.887 789.769C391.175 792.397 390.214 794.297 390.115 797.454C397.517 792.579 398.179 785.671 391.688 780.598C387.73 777.507 381.388 775.062 379.186 771.591C377.729 769.311 372.231 759.957 370.029 757.826C362.014 750.075 352.758 751.711 346.879 743.564C334.774 726.791 360.59 727.485 354.993 719.883C350.058 713.141 329.343 709.621 331.33 702.515C332.688 697.607 344.445 694.88 349.363 690.484C351.499 688.567 352.261 686.369 354.463 684.469C358.255 681.197 366.419 679.181 374.218 679.577C382.017 679.99 383.955 684.105 385.992 687.658C390.462 695.475 377.712 702.101 382.382 709.902C383.839 712.314 387.416 714.529 387.084 717.041C386.753 719.42 383.027 721.337 380.61 723.436C375.029 728.245 376.669 734.657 384.485 738.639C392.45 742.705 404.803 743.961 415.218 746.522C425.634 749.1 435.188 754.686 430.502 759.759C436.911 755.462 435.95 749.1 428.316 745.283C421.974 742.093 412.453 740.887 404.289 738.838C396.109 736.772 388.359 732.822 390.545 728.559C392.45 724.824 401.242 722.411 402.17 718.61C402.567 716.991 402.633 715.239 401.259 713.735C389.568 701.027 404.471 689.972 437.556 703.275C448.568 707.704 439.428 715.718 448.071 718.875C457.99 722.461 483.938 717.867 489.635 723.138C495 728.063 475.94 737.235 476.437 742.771C476.95 748.307 488.078 752.488 490.578 757.908C494.072 765.427 480.345 772.203 477.613 779.804C475.245 786.365 482.084 793.422 494.139 796.892C483.392 793.108 483.971 785.374 488.376 779.408C492.797 773.442 500.05 767.642 499.139 761.345C498.295 755.611 490.744 750.521 488.426 744.87C486.091 739.201 493.344 733.335 505.515 732.558C534.89 730.707 523.829 746.588 536.43 752.785C548.22 758.586 578.54 762.337 578.507 773.128C578.49 778.02 577.414 784.332 568.29 786.811C586.339 782.597 592.003 770.335 579.169 762.932C568.572 756.817 535.304 749.712 540.719 743.828C538.964 745.745 570.691 747.381 596.54 744.423C611.741 742.672 627.654 747.183 631.91 754.14C628.333 748.307 620.567 743.729 609.456 742.176C598.345 740.622 590.049 741.862 578.573 742.077C567.114 742.258 551.4 743.052 543.302 739.168C537.358 736.326 537.656 730.558 530.535 728.344C523.978 726.311 514.987 726.493 508.992 724.113C504.289 722.263 502.518 719.271 498.527 717.09C486.588 710.529 457.378 719.817 456.616 711.339C455.639 700.515 441.415 694.929 427.174 692.979C417.818 691.707 408.346 689.592 403.312 685.692C398.278 681.775 399.272 675.975 407.336 673.413C415.434 670.868 426.859 672.537 434.211 675.611C441.547 678.668 446.233 682.866 452.476 686.435C467.396 694.929 495.165 698.003 518.216 696.979C524.972 696.582 566.137 695.425 575.907 715.983C578.375 721.155 583.442 726.84 593.923 729.121C606.459 731.814 622.869 724.196 635.172 727.237C645.323 729.732 647.111 739.086 653.139 743.498C659.911 748.456 673.092 749.943 684.551 752.587C667.098 748.571 658.173 742.044 652.576 736.094C646.217 729.369 642.64 720.395 623.928 722.329Z" fill="#C1DFF4" fill-opacity="0.25"/>
<mask id="mask0_1701_371" style="mask-type:luminance" maskUnits="userSpaceOnUse" x="155" y="659" width="479" height="189">
<path d="M155.324 659.268H633.152V847.163H155.324V659.268Z" fill="white"/>
</mask>
<g mask="url(#mask0_1701_371)">
<path d="M207.039 747.432C220.253 750.126 233.997 751.233 235.636 743.565C240.19 722.264 256.269 716.38 254.58 713.654C253.901 712.58 248.204 712.976 238.716 715.604C234.046 716.909 220.12 724.114 215.5 725.618C213.132 726.395 211.162 727.7 209.473 729.105C202.683 734.773 190.976 736.211 182.001 739.549C177.149 741.367 173.092 745.879 171.039 746.953C173.424 742.078 177.083 740.475 179.054 739.268C182.531 737.12 185.578 735.005 188.774 734.178C194.073 732.79 197.401 732.394 201.276 729.287C210.615 721.784 215.864 718.314 224.922 716.248C224.525 714.563 208.612 711.819 201.806 712.034C194.685 712.233 183.078 714.794 174.45 713.604C171.337 713.175 168.688 712.133 165.74 711.456C162.809 710.778 159.282 712.051 156.053 713.141C158.852 710.365 164.598 709.622 169.002 710.051C173.424 710.481 177.464 711.72 182.134 711.472C188.973 711.109 195.662 707.622 202.534 707.11C211.543 706.416 218.481 710.927 227.489 710.249C232.523 709.869 237.209 707.506 242.26 706.498C254.878 703.986 275.759 708.927 293.907 707.457C303.296 706.697 313.993 707.126 321.991 703.375C328.449 700.334 341.763 686.684 342.458 684.85C344.462 679.595 335.404 675.629 328.466 676.686C321.511 677.744 316.279 679.198 309.307 680.206C300.895 681.412 291.87 680.768 283.442 679.909C276.504 679.215 262.031 677.975 255.043 678.719C242.889 679.975 238.136 683.148 225.982 684.453C232.838 682.189 239.809 680.123 246.565 677.661C254.695 674.703 266.138 675.529 270.841 675.678C318.067 677.198 315.914 663.697 344.081 661.202C357.13 660.078 379.948 659.747 393.046 660.375C401.624 660.789 410.218 663.879 418.812 663.945C423.25 663.961 427.688 663.961 432.126 663.961C434.262 663.945 436.928 658.938 437.772 660.227C441.829 659.5 450.175 662.97 451.251 662.722C451.748 662.606 452.278 662.673 452.808 662.722C458.719 663.383 465.393 662.887 471.023 664.242C475.577 665.317 483.806 668.374 486.406 671.646C492.748 675.926 498.925 680.735 506.923 682.768C510.268 683.61 513.828 683.924 517.073 685.015C524.227 687.378 528.731 692.964 535.52 695.905C542.177 698.781 550.208 698.781 557.709 698.153C565.194 697.508 572.679 696.318 580.213 697.029C587.747 697.74 595.58 700.846 598.395 706.184C591.622 699.772 578.922 699.657 568.456 701.177C557.991 702.697 546.764 705.176 536.911 701.788C529.592 699.293 524.26 693.873 516.643 691.989C513.944 691.328 510.566 691.311 508.86 692.997C507.32 694.501 508.148 696.666 508.695 698.566C511.344 707.886 516.626 708.994 522.389 713.125C526.529 716.1 531.049 717.322 536.183 719.173C544.777 722.264 554.48 724.164 563.836 725.139C573.209 726.114 583.061 727.998 589.718 733.121C593.543 736.079 595.994 739.88 599.571 743.003C607.767 750.159 619.657 754.802 623.217 763.726C625.254 768.766 625.469 773.245 625.601 778.483C625.75 783.573 628.085 788.63 632.192 792.695C627.506 787.853 623.25 784.499 621.379 778.665C619.326 772.22 620.617 765.693 614.888 760.57C609.97 756.174 601.227 749.894 595.746 745.829C592.285 743.251 589.933 741.45 586.754 738.673C579.6 732.427 570.841 731.832 560.21 729.997C549.595 728.163 536.564 724.808 526.363 721.85C516.163 718.909 505.813 711.324 502.7 703.325C501.276 699.657 501.939 697.657 500.332 694.021C497.484 687.56 489.817 682.949 481.819 679.859C473.838 676.785 470.079 673.497 456.335 673.497C453.387 673.497 438.12 671.415 431.761 677.612C428.334 680.966 432.01 684.932 434.858 688.651C441.415 697.112 453.536 701.805 464.283 707.126C475.047 712.447 485.793 720 486.439 729.75C486.804 735.319 486.274 740.524 482.863 746.143C479.816 751.167 476.123 755.43 487.632 758.405C493.709 759.958 504.207 758.884 510.102 760.818C516.378 762.883 519.259 767.659 524.326 771.13C531.281 775.905 540.786 775.608 550.092 776.236C564.333 777.194 577.017 785.242 581.77 795.29C578.938 791.274 572.728 789.027 567.612 786.35C556.087 780.285 541.018 782.846 531.96 780.896C535.305 788.366 530.42 801.057 528.052 808.775C525.436 817.269 530.006 817.219 530.917 827.696C531.563 835.034 527.555 843.71 518.58 846.486C524.078 842.949 525.353 836.835 524.641 831.431C523.929 826.011 521.594 820.756 521.412 815.302C520.998 804.065 530.95 790.58 522.571 781.359C516.411 774.583 514.755 769.163 504.903 766.651C490.413 762.933 475.063 766.007 470.311 756.703C468.208 752.604 472.381 746.804 473.507 742.507C480.014 717.587 450.39 712.398 448.072 714.133C444.793 716.579 452.079 724.263 446.946 731.534C443.485 736.426 435.007 738.706 433.086 744.11C431.314 749.134 437.011 753.761 438.683 758.785C442.177 769.229 427.986 780.119 432.788 790.266C437.391 799.967 454.513 800.512 466.105 805.585C483.376 813.121 486.605 834.241 472.149 844.949C481.902 830.721 478.127 814.476 461.866 810.659C454.712 808.99 446.201 807.486 439.693 804.643C433.334 801.867 428.963 792.927 421.644 792.778C416.179 792.679 412.139 803.404 409.506 807.139C406.857 810.857 405.532 815.087 402.766 818.773C398.246 824.788 389.751 830.06 390.894 836.934C391.457 840.338 392.218 842.817 392.285 846.932C386.439 840.702 385.926 831.663 391.059 824.97C394.205 820.871 399.223 817.583 400.978 813.038C402.137 810.031 406.509 797.752 408.264 794.943C414.623 784.763 421.925 786.73 426.611 776.038C436.232 754.075 415.798 755.331 420.236 745.333C424.161 736.509 440.587 731.667 439.031 722.445C437.954 716.1 428.648 712.695 424.773 707.01C423.084 704.548 422.472 701.689 420.733 699.243C417.752 695.029 411.278 692.451 405.101 693.03C398.925 693.608 397.368 698.979 395.762 703.623C392.202 713.852 402.286 722.429 398.56 732.609C397.401 735.781 394.57 738.69 394.835 741.962C395.1 745.052 398.031 747.548 399.951 750.258C404.356 756.471 403.031 764.833 396.838 770.121C390.546 775.509 380.759 777.26 372.496 780.714C364.25 784.152 356.683 791.539 360.375 798.165C355.325 792.58 356.086 784.218 362.131 779.177C367.164 774.963 374.699 773.327 381.173 770.568C387.648 767.808 393.791 762.569 392.069 757.017C390.579 752.191 383.608 749.084 382.879 744.127C382.581 742.012 382.531 739.731 383.608 737.764C392.897 721.09 381.107 706.763 354.878 724.181C346.134 729.997 353.371 740.491 346.515 744.639C338.666 749.398 318.1 743.284 313.579 750.175C309.324 756.67 324.442 768.799 324.028 776.071C323.614 783.358 314.805 788.894 312.818 796.05C310.052 805.965 320.915 814.856 323.068 824.837C324.939 833.447 319.524 842.801 309.986 847.477C318.497 842.388 318.05 832.224 314.556 824.375C311.062 816.525 305.3 808.89 306.045 800.578C306.707 793.026 312.685 786.283 314.54 778.83C316.378 771.377 310.632 763.627 300.995 762.553C277.713 759.975 286.472 781.028 276.504 789.208C267.148 796.876 243.137 801.718 243.17 816.129C243.187 822.656 244.048 831.117 251.284 834.439C236.977 828.804 232.473 812.311 242.624 802.528C251.036 794.414 277.398 785.16 273.093 777.31C274.484 779.855 249.33 781.871 228.83 777.574C216.759 775.046 204.141 780.847 200.779 790.167C203.611 782.334 209.754 776.319 218.564 774.402C227.39 772.468 233.98 774.253 243.071 774.649C252.162 775.03 264.631 776.219 271.039 771.113C275.759 767.378 275.51 759.71 281.157 756.851C286.356 754.191 293.477 754.488 298.246 751.382C301.972 748.969 303.362 745.019 306.542 742.16C315.997 733.633 339.147 745.895 339.759 734.757C340.538 720.528 351.831 713.241 363.108 710.696C370.526 709.027 378.044 706.25 382.035 701.111C386.025 696.004 385.264 688.419 378.872 685.098C372.447 681.776 363.389 683.924 357.56 687.924C351.748 691.923 348.006 697.409 343.055 702.053C331.215 713.158 309.224 717.075 290.927 715.405C285.578 714.877 252.891 712.596 245.157 739.847C243.203 746.705 239.18 754.24 230.884 757.116C220.932 760.553 207.883 749.993 198.13 753.794C190.065 756.934 188.675 769.543 183.889 775.41C178.54 782.003 168.059 783.738 158.968 787.093C172.811 781.987 179.882 773.294 184.32 765.395C189.353 756.405 192.168 744.408 207.039 747.432Z" fill="#C1DFF4" fill-opacity="0.25"/>
</g>
<path d="M578.97 345.629L581.355 344.737L582.448 345.084C593.393 348.538 602.997 351.016 611.807 352.653C620.451 354.206 629.26 355.297 638.152 355.958C635.586 355.578 633.002 355.148 630.469 354.702C620.566 352.933 608.992 349.86 596.076 345.563L587.101 342.572L598.328 338.424C631.512 326.278 653.006 310.992 666.816 297.127C655.158 304.91 641.547 311.57 628.25 317.519L622.305 320.18L623.63 313.818C625.65 304.233 628.349 296.185 631.661 289.905C629.906 292.45 628.25 295.177 626.76 298.102C623.829 303.803 621.411 311.091 619.589 319.734L619.225 321.436L617.619 322.113C598.642 330.046 578.109 337.746 558.271 345.183C538.367 352.636 519.573 359.692 503.527 366.517L494.304 370.417L499.354 361.775C502.931 355.644 505.928 349.926 508.462 344.307C512.088 336.309 515.814 326.195 519.772 315.487L520.798 312.694L522.918 312.529C533.648 311.669 542.441 310.331 549.826 308.48C552.293 307.868 554.695 307.191 557.029 306.464C548.75 308.232 538.583 309.471 526.71 310.132L521.626 310.43L523.415 305.67C530.701 286.236 541.745 256.722 559.828 232.347C548.005 243.419 536.496 257.813 528.68 275.991C527.786 278.056 526.925 280.089 526.097 282.089L522.305 291.178L519.805 281.642C516.923 270.603 515.267 260.705 514.903 252.194C514.671 246.823 514.671 239.601 515.466 231.206C513.115 242.328 511.873 254.921 512.866 268.554C513.512 277.346 515.45 287.509 518.662 298.746L518.977 299.82L518.248 301.704C508.147 327.567 500.96 350.438 479.02 376.895L475.393 379.655C462.858 386.315 450.389 394.181 438.351 403.006L434.244 406.013L433.135 401.039C429.442 384.299 427.819 369.492 428.332 357.032C428.631 349.496 429.608 338.788 432.29 326.327C427.306 340.87 423.563 357.891 423.365 376.515C423.265 386.199 424.408 397.338 426.793 409.616L427.173 411.566L425.633 412.822C411.509 424.274 401.176 434.536 394.983 441.13L390.777 445.609L389.336 439.626C387.117 430.554 385.113 419.68 383.491 410.922C382.067 403.32 380.858 396.743 380.063 394.198C376.271 382.217 383.292 309.124 398.427 262.539L398.675 261.779L400.844 259.614C408.743 251.781 414.969 245.584 422.802 238.23L426.925 234.297C443.567 218.35 467.478 195.462 488.607 166.377C479.533 177.895 468.985 189.38 456.781 200.238C439.891 215.342 424.209 229.686 410.184 242.89L400.646 250.855C402.418 245.765 408.279 229.306 410.035 224.414C417.023 204.7 429.111 170.558 433.565 129.36C431.595 142.299 428.564 155.635 424.11 169.004L422.421 174.078L415.88 167.616C407.418 159.304 400.116 152.132 394.949 143.291C392.764 139.589 390.611 135.788 388.591 131.822C391.24 137.969 394.618 144.431 398.924 151.14C402.832 157.288 409.952 166.096 419.556 176.606L420.897 178.077L415.764 192.14C388.972 265.199 369.631 317.982 363.553 358.436L362.212 367.311L357.443 359.709C345.488 340.638 334.261 319.651 324.044 297.325L323.282 295.639L324.292 294.119C331.147 283.791 336.43 274.322 340.007 265.91C347.955 247.319 350.77 229.917 351.118 215.177C348.932 229.389 345.04 241.32 341.927 249.269C338.086 259.102 331.826 270.488 323.348 283.113L319.937 288.203L317.536 282.568C308.313 260.936 299.917 237.899 292.548 214.069L292.068 212.516L293.012 211.194C300.116 201.097 305.15 192.405 308.428 184.638C311.376 177.647 313.33 170.921 314.555 164.592C313.529 167.996 312.469 170.987 311.525 173.45C308.263 181.861 302.649 191.793 294.85 202.964L290.876 208.666L288.938 201.989C279.864 170.888 273.803 142.811 269.896 120.717C270.69 133.739 272.479 149.438 276.056 168.095L277.579 176.028L270.922 171.45C256.267 161.403 245.206 152.297 237.142 143.638C236.695 143.142 236.231 142.663 235.784 142.15C239.51 147.009 243.666 151.818 248.319 156.528C255.754 164.129 265.391 171.995 277.745 180.605L278.804 181.349L279.086 182.605C284.385 206.253 291.985 232.066 301.672 259.283L304.189 266.34L297.268 263.464C269.995 252.128 203.262 222.431 172.611 191.463C171.866 190.719 171.121 189.926 170.409 189.132C174.3 194.09 178.688 198.998 183.639 203.758C212.8 231.719 264.464 257.598 302.202 276.47L304.256 277.494L304.719 278.701C306.21 282.634 307.733 286.65 309.273 290.715C318 313.784 327.885 339.928 341.331 368.104L344.246 374.235L337.605 372.764C318.447 368.517 306.441 363.427 292.532 357.528L290.064 356.486C272.032 348.852 255.075 339.63 239.891 329.302C256.681 343.712 279.715 359.395 309.67 371.426C314.39 373.359 318.066 375.144 321.626 376.895C328.2 380.118 333.88 382.894 344.229 385.323L345.753 385.687L346.448 387.075C347.673 389.537 356.764 439.957 356.864 440.453L357.907 446.121C358.221 447.03 351.349 443.477 351.432 443.526C350.555 442.898 344.842 439.891 338.235 436.42C296.506 414.491 185.693 356.255 143.202 305.869C138.235 299.688 133.631 292.599 129.475 284.782C135.353 297.457 143.252 310.496 153.866 323.022C178.804 352.636 217.072 375.061 254.065 396.743L267.296 406.096L254.363 404.361C191.952 393.619 137.208 377.656 90.8757 356.734C108.909 366.137 133.797 376.714 168.488 387.356L176.9 389.934L168.571 393.669C162.659 395.668 157.145 397.189 152.144 398.197C147.988 399.04 143.765 399.734 139.477 400.279C150.008 399.949 160.374 398.693 170.343 396.561C171.833 396.247 181.686 392.149 182.663 391.702C212.419 400.593 248.452 409.864 292.78 420.044L293.327 420.159L293.807 420.473C300.232 424.505 305.895 428.257 311.111 431.925L318.48 437.098L309.521 437.941C300.745 438.75 292.018 441.064 283.59 444.782C279.285 446.666 275.244 449.261 270.972 451.971C267.71 454.053 264.332 456.218 260.689 458.151C243.815 467.108 225.219 470.463 211.624 472.892C203.974 474.264 196.026 475.305 188.044 475.999C188.127 475.999 188.21 475.999 188.293 475.999C202.914 475.999 217.486 474.644 231.545 472L231.793 471.934L243.136 470.199L234.426 477.85C223.961 485.683 212.419 493.814 199.487 499.647C206.375 497.333 214.456 493.979 223.828 489.219C229.409 486.377 235.254 483.254 240.884 480.213C265.093 467.207 290.098 453.756 312.171 453.756C327.571 453.756 340.122 460.531 349.495 473.884C358.635 486.906 360.821 503.828 361.666 515.445C365.524 568.311 356.201 630.1 327.405 656.144C333.714 656.706 341.762 660.92 347.905 660.92C349.594 660.92 356.648 664.274 357.907 664.192C385.014 662.324 406.872 658.788 433.515 657.548C428.432 641.981 412.452 585.778 417.337 549.703C425.567 488.922 471.684 481.899 505.663 481.899C509.356 481.899 513.231 481.981 517.834 482.147L519.192 482.196L520.136 483.171C525.021 488.311 529.839 492.723 534.459 496.325C542.424 502.506 550.787 507.563 558.867 511.661C553.817 508.158 549.429 504.886 545.951 502.258C541.779 499.151 537.241 494.805 531.694 488.608L526.213 482.477L534.426 483.088C537.44 483.32 540.503 483.551 543.633 483.799C553.419 484.576 563.537 485.386 574.383 485.766C579.632 485.98 584.7 486.096 589.469 486.096C596.274 486.096 602.269 485.881 607.584 485.501C587.101 485.485 565.193 481.799 543.997 478.23C529.359 475.784 514.224 473.239 500.017 472L487.962 470.959L498.857 465.704C503.378 463.522 507.617 461.192 511.575 458.796C501.06 463.473 491.687 466.348 484.998 468.034C478.01 469.769 463.719 472.545 458.337 473.586C457.493 473.752 456.483 473.95 456.483 473.95C434.128 478.693 420.136 488.476 412.336 495.83L408.031 499.895L406.524 492.839C404.537 483.452 402.815 475.355 404.951 469.224C413.313 445.229 450.538 411.219 474.3 394.727L475.509 393.9L485.08 396.049C527.223 405.584 579.666 417.433 619.656 417.433C622.024 417.416 624.342 417.383 626.644 417.3C592.184 415.664 542.275 406.08 490.247 390.959L482.911 388.827L489.485 384.927C516.443 368.897 545.421 358.122 578.97 345.629Z" fill="#C1DFF4" fill-opacity="0.25"/>
<path d="M253.718 18.835C253.701 18.9176 230.585 50.0352 265.061 73.4188C265.044 73.5179 288.525 43.5902 253.718 18.835Z" fill="#C1DFF4" fill-opacity="0.25"/>
<path d="M13.3305 268.39C13.3636 268.506 10.6148 293.492 43.1202 291.559C43.1533 291.691 46.4154 266.109 13.3305 268.39Z" fill="#C1DFF4" fill-opacity="0.25"/>
<path d="M47.8386 242.709C47.8552 242.791 46.4311 262.754 72.495 260.92C72.5281 261.002 74.4159 240.742 47.8386 242.709Z" fill="#C1DFF4" fill-opacity="0.25"/>
<path d="M284.881 28.1914C284.881 28.1914 268.62 42.9652 284.037 59.6891C284.037 59.6891 300.314 45.758 284.881 28.1914Z" fill="#C1DFF4" fill-opacity="0.25"/>
<path d="M295.993 18.7227C295.993 18.7392 291.654 30.3236 304.736 38.4707C305.581 34.7359 309.124 27.1176 295.993 18.7227Z" fill="#C1DFF4" fill-opacity="0.25"/>
<path d="M388.657 13.3021C388.641 13.203 355.721 33.6781 378.407 69.1749C378.407 69.0427 411.095 50.4184 388.657 13.3021Z" fill="#C1DFF4" fill-opacity="0.25"/>
<path d="M423.332 7.30273C423.315 7.31926 400.414 35.2474 435.337 63.6548C435.304 63.6713 458.569 37.3131 423.332 7.30273Z" fill="#C1DFF4" fill-opacity="0.25"/>
<path d="M230.138 59.4902C230.138 59.6555 213.314 93.1858 252.559 110.025C252.559 110.191 269.962 77.2056 230.138 59.4902Z" fill="#C1DFF4" fill-opacity="0.25"/>
<path d="M303.163 53.4896C303.146 53.3243 265.574 69.2219 277.811 107.264C277.794 107.115 314.754 92.969 303.163 53.4896Z" fill="#C1DFF4" fill-opacity="0.25"/>
<path d="M333.681 60.3991C333.665 60.3 305.813 71.1737 314.837 99.6803C314.821 99.5976 342.242 89.8806 333.681 60.3991Z" fill="#C1DFF4" fill-opacity="0.25"/>
<path d="M406.045 68.1649C406.028 68.0657 378.126 77.1052 387.068 106.19C387.068 106.107 414.506 98.1422 406.045 68.1649Z" fill="#C1DFF4" fill-opacity="0.25"/>
<path d="M331.065 10.6728C331.065 10.5571 303.146 21.5466 312.188 50.0201C312.188 49.9209 339.643 40.1213 331.065 10.6728Z" fill="#C1DFF4" fill-opacity="0.25"/>
<path d="M353.916 111.794C353.916 111.678 324.143 115.446 324.308 145.473C324.308 145.357 353.353 142.382 353.916 111.794Z" fill="#C1DFF4" fill-opacity="0.25"/>
<path d="M412.999 83.9492C412.999 83.9823 399.619 102.507 424.11 117.017C424.094 117.033 437.755 99.3014 412.999 83.9492Z" fill="#C1DFF4" fill-opacity="0.25"/>
<path d="M100.133 122.913C100.149 123.012 94.5853 145.173 122.073 145.024C122.09 145.107 128.101 122.831 100.133 122.913Z" fill="#C1DFF4" fill-opacity="0.25"/>
<path d="M344.975 150.629C344.975 150.547 319.391 152.662 320.931 177.929C320.931 177.863 345.919 176.426 344.975 150.629Z" fill="#C1DFF4" fill-opacity="0.25"/>
<path d="M464.929 52.7458C464.929 52.6632 439.279 51.9526 440.703 77.3028C440.703 77.2201 465.757 78.443 464.929 52.7458Z" fill="#C1DFF4" fill-opacity="0.25"/>
<path d="M375.029 152.627C375.029 152.577 354.363 155.172 357.41 175.614C357.41 175.564 377.662 173.565 375.029 152.627Z" fill="#C1DFF4" fill-opacity="0.25"/>
<path d="M375.212 109.975C375.212 110.024 374.152 91.549 350.622 92.5405C350.622 92.6066 351.135 110.256 375.212 109.975Z" fill="#C1DFF4" fill-opacity="0.25"/>
<path d="M379.865 132.019C379.865 132.069 378.937 115.956 358.421 116.7C358.421 116.733 358.868 132.184 379.865 132.019Z" fill="#C1DFF4" fill-opacity="0.25"/>
<path d="M387.598 144.711C387.598 144.728 382.316 132.664 366.965 137.688C366.965 137.705 371.784 149.355 387.598 144.711Z" fill="#C1DFF4" fill-opacity="0.25"/>
<path d="M405.548 172.888C405.548 172.938 398.494 156.693 378.01 163.204C378.01 163.254 384.435 178.821 405.548 172.888Z" fill="#C1DFF4" fill-opacity="0.25"/>
<path d="M360.639 131.691C360.639 131.641 341.431 139.028 350.406 157.983C350.406 157.933 369.366 151.29 360.639 131.691Z" fill="#C1DFF4" fill-opacity="0.25"/>
<path d="M414.125 55.9209C414.109 55.9539 405.746 72.2151 427.207 81.7503C427.19 81.7833 435.9 66.051 414.125 55.9209Z" fill="#C1DFF4" fill-opacity="0.25"/>
<mask id="mask1_1701_371" style="mask-type:luminance" maskUnits="userSpaceOnUse" x="341" y="0" width="23" height="29">
<path d="M341.844 0H363.04V28.176H341.844V0Z" fill="white"/>
</mask>
<g mask="url(#mask1_1701_371)">
<path d="M347.193 0.496094C347.193 0.545671 338.831 17.3356 360.374 25.6149C360.374 25.6479 369.068 9.32072 347.193 0.496094Z" fill="#C1DFF4" fill-opacity="0.25"/>
</g>
<path d="M223.299 30.7178C223.299 30.7839 215.069 48.367 236.496 54.0849C236.496 54.1344 245.024 36.8653 223.299 30.7178Z" fill="#C1DFF4" fill-opacity="0.25"/>
<path d="M336.496 217.62C336.496 217.637 352.145 199.492 329.575 184.305C329.575 184.321 313.777 201.723 336.496 217.62Z" fill="#C1DFF4" fill-opacity="0.25"/>
<path d="M371.668 86.6912C371.668 86.7573 376.454 64.4478 348.072 59.6885C348.055 59.7711 342.756 81.0395 371.668 86.6912Z" fill="#C1DFF4" fill-opacity="0.25"/>
<path d="M359.927 200.288C359.927 200.239 382.133 199.197 380.99 177.285C380.99 177.235 359.248 177.731 359.927 200.288Z" fill="#C1DFF4" fill-opacity="0.25"/>
<path d="M272.794 302.661C272.794 302.612 294.867 300.265 293.658 278.418C293.658 278.385 272.065 280.236 272.794 302.661Z" fill="#C1DFF4" fill-opacity="0.25"/>
<path d="M321.014 116.93C321.014 116.864 343.286 115.129 342.11 93.2493C342.11 93.1833 320.302 94.4061 321.014 116.93Z" fill="#C1DFF4" fill-opacity="0.25"/>
<path d="M334.278 52.9631C334.278 52.897 356.599 51.4097 355.44 29.5134C355.44 29.4473 333.582 30.4223 334.278 52.9631Z" fill="#C1DFF4" fill-opacity="0.25"/>
<path d="M316.973 218.813C316.973 218.863 306.491 240.908 334.277 250.856C334.277 250.906 345.19 229.39 316.973 218.813Z" fill="#C1DFF4" fill-opacity="0.25"/>
<path d="M288.243 131.608C288.243 131.675 277.761 153.951 305.63 163.156C305.63 163.222 316.559 141.408 288.243 131.608Z" fill="#C1DFF4" fill-opacity="0.25"/>
<path d="M293.526 108.521C293.526 108.587 287.432 127.789 311.807 132.896C311.807 132.945 318.331 114.024 293.526 108.521Z" fill="#C1DFF4" fill-opacity="0.25"/>
<path d="M402.633 112.603C402.633 112.652 392.035 133.97 419.904 145.802C419.904 145.852 430.949 125.178 402.633 112.603Z" fill="#C1DFF4" fill-opacity="0.25"/>
<path d="M407.27 303.373C407.253 303.39 394.006 322.179 418.281 336.209C418.265 336.226 431.81 318.213 407.27 303.373Z" fill="#C1DFF4" fill-opacity="0.25"/>
<path d="M416.51 283.609C416.51 283.609 408.197 300.036 429.459 309.224C429.459 309.24 438.086 293.392 416.51 283.609Z" fill="#C1DFF4" fill-opacity="0.25"/>
<path d="M397.003 332.212C397.003 332.245 386.504 353.778 414.125 365.098C414.125 365.131 425.07 344.292 397.003 332.212Z" fill="#C1DFF4" fill-opacity="0.25"/>
<path d="M396.639 365.491C396.639 365.524 386.157 387.09 413.744 398.344C413.744 398.377 424.673 377.505 396.639 365.491Z" fill="#C1DFF4" fill-opacity="0.25"/>
<path d="M378.043 243.37C378.043 243.287 351.184 241.04 347.955 267.728C347.955 267.662 374.069 270.372 378.043 243.37Z" fill="#C1DFF4" fill-opacity="0.25"/>
<path d="M358.769 227.027C358.769 226.977 383.706 233.455 392.317 209.13C392.317 209.08 368.124 201.859 358.769 227.027Z" fill="#C1DFF4" fill-opacity="0.25"/>
<path d="M431.462 175.084C431.462 175.035 456.351 183.116 465.259 159.55C465.259 159.501 441.149 150.643 431.462 175.084Z" fill="#C1DFF4" fill-opacity="0.25"/>
<path d="M440.454 149.637C440.47 149.571 466.369 153.719 469.747 128.716C469.747 128.65 444.511 123.792 440.454 149.637Z" fill="#C1DFF4" fill-opacity="0.25"/>
<path d="M441.497 121.426C441.497 121.344 467.28 126.582 471.966 101.91C471.983 101.827 446.879 95.8613 441.497 121.426Z" fill="#C1DFF4" fill-opacity="0.25"/>
<path d="M443.601 96.738C443.617 96.6719 469.416 102.026 474.102 77.3701C474.119 77.304 448.999 71.1895 443.601 96.738Z" fill="#C1DFF4" fill-opacity="0.25"/>
<path d="M540.305 40.2213C540.305 40.1222 516.129 52.1527 533.466 80.5271C533.466 80.4279 557.46 69.7028 540.305 40.2213Z" fill="#C1DFF4" fill-opacity="0.25"/>
<path d="M514.671 201.18C514.671 201.197 494.006 183.581 471.568 200.305C471.568 200.354 491.29 217.012 514.671 201.18Z" fill="#C1DFF4" fill-opacity="0.25"/>
<path d="M497.897 219.027C497.913 219.027 474.648 204.716 455.986 225.076C456.002 225.092 478.307 238.709 497.897 219.027Z" fill="#C1DFF4" fill-opacity="0.25"/>
<path d="M468.654 239.139C468.654 239.123 444.445 226.811 427.588 248.823C427.604 248.823 450.837 260.656 468.654 239.139Z" fill="#C1DFF4" fill-opacity="0.25"/>
<path d="M504.587 90.4914C504.587 90.4418 484.965 102.456 503.147 123.922C503.13 123.873 522.72 112.883 504.587 90.4914Z" fill="#C1DFF4" fill-opacity="0.25"/>
<path d="M561.633 88.6407C561.633 88.5911 538.881 79.3369 531.578 100.506C531.595 100.473 553.651 109.546 561.633 88.6407Z" fill="#C1DFF4" fill-opacity="0.25"/>
<path d="M515.93 65.9678C515.93 65.9513 501.921 77.453 519.027 93.5819C519.027 93.5654 533.119 82.8734 515.93 65.9678Z" fill="#C1DFF4" fill-opacity="0.25"/>
<path d="M566.999 194.108C566.999 194.074 549.843 201.478 562.511 220.201C562.511 220.152 579.534 213.525 566.999 194.108Z" fill="#C1DFF4" fill-opacity="0.25"/>
<path d="M583.64 179.664C583.64 179.631 566.518 186.671 579.152 205.56C579.152 205.51 596.175 199.23 583.64 179.664Z" fill="#C1DFF4" fill-opacity="0.25"/>
<mask id="mask2_1701_371" style="mask-type:luminance" maskUnits="userSpaceOnUse" x="396" y="0" width="18" height="29">
<path d="M396.954 0H413.91V28.176H396.954V0Z" fill="white"/>
</mask>
<g mask="url(#mask2_1701_371)">
<path d="M402.435 -0.015625C402.435 -0.015625 388.707 12.709 405.581 26.921C405.564 26.9045 419.375 14.94 402.435 -0.015625Z" fill="#C1DFF4" fill-opacity="0.25"/>
</g>
<path d="M631.463 114.041C631.463 113.958 608.595 114.784 616.179 138.73C616.179 138.631 638.683 138.432 631.463 114.041Z" fill="#C1DFF4" fill-opacity="0.25"/>
<path d="M645.19 237.518C645.19 237.485 631.777 247.284 648.038 263.694C648.038 263.661 661.517 254.671 645.19 237.518Z" fill="#C1DFF4" fill-opacity="0.25"/>
<path d="M713.546 270.322C713.562 270.289 694.023 263.646 691.622 281.807C691.622 281.791 710.664 288.401 713.546 270.322Z" fill="#C1DFF4" fill-opacity="0.25"/>
<path d="M693.228 188.173C693.245 188.107 669.929 181.084 668.605 203.294C668.621 203.228 691.373 210.252 693.228 188.173Z" fill="#C1DFF4" fill-opacity="0.25"/>
<path d="M670.36 153.519C670.376 153.453 647.922 150.66 651.515 173.283C651.515 173.201 673.506 176.341 670.36 153.519Z" fill="#C1DFF4" fill-opacity="0.25"/>
<path d="M704.968 291.805C704.984 291.805 686.869 280.865 677.993 296.267C677.993 296.267 695.529 306.843 704.968 291.805Z" fill="#C1DFF4" fill-opacity="0.25"/>
<path d="M672.181 264.769C672.198 264.703 653.834 267.016 661.882 286.483C661.898 286.417 679.981 284.682 672.181 264.769Z" fill="#C1DFF4" fill-opacity="0.25"/>
<path d="M601.739 90.5235C601.739 90.4905 586.935 99.0672 601.954 116.65C601.954 116.617 616.742 108.85 601.739 90.5235Z" fill="#C1DFF4" fill-opacity="0.25"/>
<path d="M565.425 63.0913C565.442 63.0252 545.488 62.1659 548.684 82.2113C548.684 82.1618 568.223 83.4342 565.425 63.0913Z" fill="#C1DFF4" fill-opacity="0.25"/>
<path d="M651.466 280.468C651.483 280.402 633.069 283.178 641.133 302.596C641.15 302.546 659.299 300.332 651.466 280.468Z" fill="#C1DFF4" fill-opacity="0.25"/>
<path d="M680.179 328.607C680.162 328.657 668.488 312.544 650.389 320.212C650.389 320.262 661.467 335.73 680.179 328.607Z" fill="#C1DFF4" fill-opacity="0.25"/>
<path d="M664.316 343.828C664.316 343.877 656.93 326.641 636.132 329.913C636.132 329.979 642.922 346.538 664.316 343.828Z" fill="#C1DFF4" fill-opacity="0.25"/>
<path d="M630.9 371.986C630.9 372.036 623.481 354.882 602.617 358.915C602.617 358.964 609.422 375.506 630.9 371.986Z" fill="#C1DFF4" fill-opacity="0.25"/>
<path d="M663.339 377.226C663.339 377.275 655.97 360.138 635.189 363.658C635.172 363.708 641.961 380.217 663.339 377.226Z" fill="#C1DFF4" fill-opacity="0.25"/>
<path d="M693.228 336.243C693.244 336.194 673.539 332.541 673.92 351.595C673.936 351.562 693.178 355.38 693.228 336.243Z" fill="#C1DFF4" fill-opacity="0.25"/>
<path d="M698.163 368.353C698.163 368.386 683.425 354.175 668.539 365.461C668.539 365.494 682.647 379.161 698.163 368.353Z" fill="#C1DFF4" fill-opacity="0.25"/>
<path d="M694.238 309.671C694.255 309.688 677.712 296.781 665.442 310.101C665.442 310.134 681.372 322.545 694.238 309.671Z" fill="#C1DFF4" fill-opacity="0.25"/>
<path d="M575.345 324.18C575.345 324.213 564.631 308.034 545.456 316.181C545.456 316.231 555.54 331.814 575.345 324.18Z" fill="#C1DFF4" fill-opacity="0.25"/>
<path d="M596.473 318.148C596.473 318.181 585.826 301.87 566.65 309.621C566.65 309.67 576.668 325.353 596.473 318.148Z" fill="#C1DFF4" fill-opacity="0.25"/>
<path d="M613.645 307.571C613.645 307.62 604.024 292.731 586.654 299.407C586.654 299.457 595.728 313.784 613.645 307.571Z" fill="#C1DFF4" fill-opacity="0.25"/>
<path d="M620.401 291.341C620.401 291.341 609.339 282.748 600.497 292.035C600.497 292.035 611.111 300.447 620.401 291.341Z" fill="#C1DFF4" fill-opacity="0.25"/>
<path d="M573.97 267.033C573.97 266.967 551.482 273.973 564.183 297.77C564.183 297.688 586.405 291.573 573.97 267.033Z" fill="#C1DFF4" fill-opacity="0.25"/>
<path d="M592.698 261.053C592.698 261.003 574.599 266.622 585.247 285.99C585.247 285.94 603.164 280.999 592.698 261.053Z" fill="#C1DFF4" fill-opacity="0.25"/>
<path d="M550.307 274.899C550.307 274.849 532.142 281.195 542.856 300.348C542.856 300.315 560.839 294.68 550.307 274.899Z" fill="#C1DFF4" fill-opacity="0.25"/>
<path d="M472.745 141.488C472.745 141.472 458.752 153.75 475.874 169.102C475.874 169.086 489.966 157.601 472.745 141.488Z" fill="#C1DFF4" fill-opacity="0.25"/>
<path d="M435.42 181.729C435.404 181.729 421.428 194.519 438.583 209.359C438.583 209.359 452.658 197.296 435.42 181.729Z" fill="#C1DFF4" fill-opacity="0.25"/>
<path d="M484.187 112.586C484.187 112.553 466.204 128.384 488.608 148.413C488.591 148.38 506.69 133.623 484.187 112.586Z" fill="#C1DFF4" fill-opacity="0.25"/>
<path d="M491.042 179.215C491.059 179.232 512.122 194.402 529.41 176.29C529.41 176.307 509.274 160.294 491.042 179.215Z" fill="#C1DFF4" fill-opacity="0.25"/>
<path d="M439.544 299.225C439.56 299.093 473.953 293.474 464.664 258.903C464.68 258.771 430.801 263.596 439.544 299.225Z" fill="#C1DFF4" fill-opacity="0.25"/>
<path d="M590.181 205.659C590.197 205.56 624.789 217.078 632.042 185.646C632.075 185.547 598.477 172.641 590.181 205.659Z" fill="#C1DFF4" fill-opacity="0.25"/>
<path d="M617.338 174.575C617.371 174.393 652.029 178.094 647.194 143.771C647.227 143.589 613.198 138.929 617.338 174.575Z" fill="#C1DFF4" fill-opacity="0.25"/>
<path d="M604.008 282.501C604.025 282.336 637.507 279.543 626.462 245.12C626.495 244.971 593.46 246.938 604.008 282.501Z" fill="#C1DFF4" fill-opacity="0.25"/>
<path d="M658.917 261.612C658.934 261.513 683.541 260.753 675.443 235.287C675.443 235.188 651.201 235.353 658.917 261.612Z" fill="#C1DFF4" fill-opacity="0.25"/>
<path d="M614.506 241.22C614.523 241.138 639.295 239.502 631.132 213.92C631.148 213.821 606.707 214.846 614.506 241.22Z" fill="#C1DFF4" fill-opacity="0.25"/>
<path d="M691.803 262.951C691.82 262.769 721.096 257.63 704.339 225.157C704.372 224.976 675.294 229.586 691.803 262.951Z" fill="#C1DFF4" fill-opacity="0.25"/>
<path d="M573.655 124.732C573.655 124.616 600.05 111.578 576.669 81.1873C576.669 81.0716 550.307 93.6145 573.655 124.732Z" fill="#C1DFF4" fill-opacity="0.25"/>
<path d="M450.025 46.6345C450.025 46.5519 474.781 42.8171 467.363 17.8801C467.379 17.7809 442.988 20.9869 450.025 46.6345Z" fill="#C1DFF4" fill-opacity="0.25"/>
<path d="M515.946 59.3886C515.93 59.4217 527.919 41.4584 502.6 26.0566C502.583 26.0732 490.33 43.3258 515.946 59.3886Z" fill="#C1DFF4" fill-opacity="0.25"/>
<path d="M532.588 178.787C532.621 178.671 567.461 188.835 574.764 156.527C574.781 156.412 540.884 144.943 532.588 178.787Z" fill="#C1DFF4" fill-opacity="0.25"/>
<path d="M503.776 156.776C503.776 156.793 523.282 171.104 539.295 154.562C539.295 154.578 520.65 139.524 503.776 156.776Z" fill="#C1DFF4" fill-opacity="0.25"/>
<path d="M517.354 136.994C517.354 136.977 538.715 149.222 551.333 130.615C551.333 130.615 530.8 117.609 517.354 136.994Z" fill="#C1DFF4" fill-opacity="0.25"/>
<path d="M577.613 127.376C577.63 127.293 554.132 127.144 558.868 150.925C558.885 150.842 581.918 151.519 577.613 127.376Z" fill="#C1DFF4" fill-opacity="0.25"/>
<path d="M636.91 209.791C636.943 209.625 671.121 213.972 666.021 180.309C666.037 180.144 632.489 174.856 636.91 209.791Z" fill="#C1DFF4" fill-opacity="0.25"/>
<path d="M646.018 230.513C646.034 230.447 678.821 242.725 684.816 213.26C684.849 213.178 653.022 199.594 646.018 230.513Z" fill="#C1DFF4" fill-opacity="0.25"/>
<path d="M527.604 117.363C527.604 117.347 548.949 129.84 561.567 111.464C561.567 111.464 541.05 98.1938 527.604 117.363Z" fill="#C1DFF4" fill-opacity="0.25"/>
<path d="M467.246 300.249C467.246 300.216 446.978 296.002 442.838 315.866C442.855 315.849 462.527 320.262 467.246 300.249Z" fill="#C1DFF4" fill-opacity="0.25"/>
<path d="M435.585 356.369C435.585 356.336 459.397 362.054 465.756 338.985C465.773 338.952 442.623 332.556 435.585 356.369Z" fill="#C1DFF4" fill-opacity="0.25"/>
<path d="M436.546 375.077C436.563 375.061 459.928 384.15 470.691 361.774C470.691 361.758 448.088 351.991 436.546 375.077Z" fill="#C1DFF4" fill-opacity="0.25"/>
<path d="M438.6 334.441C438.616 334.408 459.001 339.299 464.349 319.551C464.349 319.518 444.545 314.081 438.6 334.441Z" fill="#C1DFF4" fill-opacity="0.25"/>
<path d="M558.569 187.875C558.569 187.858 539.99 178.141 530.717 195.113C530.717 195.096 548.667 204.615 558.569 187.875Z" fill="#C1DFF4" fill-opacity="0.25"/>
<path d="M526.296 215.128C526.296 215.128 544.478 225.704 555.589 209.724C555.589 209.724 538.119 198.585 526.296 215.128Z" fill="#C1DFF4" fill-opacity="0.25"/>
<path d="M575.476 222.168C575.476 222.168 593.559 233.306 604.62 217.987C604.62 218.004 587.266 206.271 575.476 222.168Z" fill="#C1DFF4" fill-opacity="0.25"/>
<path d="M567.031 236.148C567.031 236.165 583.706 248.873 597.318 235.223C597.318 235.239 581.405 221.986 567.031 236.148Z" fill="#C1DFF4" fill-opacity="0.25"/>
<path d="M556.847 253.086C556.863 253.102 573.538 265.629 587.167 251.764C587.167 251.78 571.237 238.725 556.847 253.086Z" fill="#C1DFF4" fill-opacity="0.25"/>
<path d="M483.673 238.759C483.673 238.792 482.944 256.639 506.127 259.746C506.11 259.796 507.418 242.229 483.673 238.759Z" fill="#C1DFF4" fill-opacity="0.25"/>
<path d="M481.322 260.323C481.306 260.389 480.461 281.575 507.982 285.178C507.966 285.244 509.506 264.339 481.322 260.323Z" fill="#C1DFF4" fill-opacity="0.25"/>
<path d="M520.5 237.537C520.517 237.52 540.289 244.725 546.962 226.415C546.962 226.398 527.803 218.615 520.5 237.537Z" fill="#C1DFF4" fill-opacity="0.25"/>
<mask id="mask3_1701_371" style="mask-type:luminance" maskUnits="userSpaceOnUse" x="0" y="294" width="46" height="35">
<path d="M0 294.695H45.1068V328.54H0V294.695Z" fill="white"/>
</mask>
<g mask="url(#mask3_1701_371)">
<path d="M0.579346 299.224C0.612462 299.422 0.26472 331.746 44.4111 326.375C44.4608 326.59 45.4875 292.746 0.579346 299.224Z" fill="#C1DFF4" fill-opacity="0.25"/>
</g>
<path d="M111.094 145.652C111.094 145.702 83.2916 173.68 108.263 198.517C108.263 198.567 136.065 171.978 111.094 145.652Z" fill="#C1DFF4" fill-opacity="0.25"/>
<path d="M598.858 122.864C598.858 122.716 570.426 139.125 595.132 174.325C595.132 174.16 623.432 159.584 598.858 122.864Z" fill="#C1DFF4" fill-opacity="0.25"/>
<path d="M488.525 40.0542C488.509 39.9385 459.762 59.2569 484.932 93.0516C484.915 92.9359 513.579 75.4023 488.525 40.0542Z" fill="#C1DFF4" fill-opacity="0.25"/>
<path d="M168.191 85.3848C168.191 85.3848 151.45 100.406 164.879 116.122C164.879 116.122 181.554 101.927 168.191 85.3848Z" fill="#C1DFF4" fill-opacity="0.25"/>
<path d="M168.654 70.084C168.654 70.1501 165.21 89.2205 189.104 91.2532C189.121 91.3358 192.996 72.2819 168.654 70.084Z" fill="#C1DFF4" fill-opacity="0.25"/>
<path d="M198.046 46.4678C198.029 46.5669 176.917 77.2714 210.167 97.0689C210.167 97.1681 231.644 67.3891 198.046 46.4678Z" fill="#C1DFF4" fill-opacity="0.25"/>
<path d="M30.2703 219.621C30.3034 219.721 34.8737 243.732 69.6311 234.412C69.6642 234.544 65.7397 209.409 30.2703 219.621Z" fill="#C1DFF4" fill-opacity="0.25"/>
<path d="M162.246 260.571C162.262 260.67 161.004 286.318 194.353 286.963C194.37 287.062 196.324 261.133 162.246 260.571Z" fill="#C1DFF4" fill-opacity="0.25"/>
<path d="M137.606 91.8613C137.606 91.977 112.668 123.772 144.461 145.685C144.444 145.801 169.631 115.096 137.606 91.8613Z" fill="#C1DFF4" fill-opacity="0.25"/>
<path d="M6.5083 343.331C6.52486 343.381 19.5237 370.978 62.9912 353.692C63.0409 353.792 50.9362 324.36 6.5083 343.331Z" fill="#C1DFF4" fill-opacity="0.25"/>
<path d="M56.9297 289.36C56.9463 289.559 41.2814 323.337 79.9965 335.103C80.013 335.318 96.1581 301.49 56.9297 289.36Z" fill="#C1DFF4" fill-opacity="0.25"/>
<path d="M184.071 313.619C184.071 313.669 189.85 334.326 217.636 326.212C217.652 326.261 212.585 305.224 184.071 313.619Z" fill="#C1DFF4" fill-opacity="0.25"/>
<path d="M188.69 157.98C188.69 157.98 168.24 175.415 186.604 193.081C186.604 193.081 207.021 176.605 188.69 157.98Z" fill="#C1DFF4" fill-opacity="0.25"/>
<path d="M169.78 357.197C169.796 357.247 161.599 333.07 129.607 345.464C129.624 345.514 136.761 368.501 169.78 357.197Z" fill="#C1DFF4" fill-opacity="0.25"/>
<path d="M173.489 141.127C173.473 141.127 155.672 155.455 170.211 170.757C170.211 170.757 187.962 157.223 173.489 141.127Z" fill="#C1DFF4" fill-opacity="0.25"/>
<path d="M209.82 119.03C209.836 119.079 201.59 98.8522 174.45 111.015C174.466 111.081 181.785 130.234 209.82 119.03Z" fill="#C1DFF4" fill-opacity="0.25"/>
<path d="M224.292 143.057C224.309 143.107 216.062 122.714 188.889 134.398C188.905 134.464 196.225 153.815 224.292 143.057Z" fill="#C1DFF4" fill-opacity="0.25"/>
<path d="M239.444 160.973C239.46 161.006 233.698 146.628 214.605 154.379C214.605 154.395 219.755 168.227 239.444 160.973Z" fill="#C1DFF4" fill-opacity="0.25"/>
<path d="M257.476 152.545C257.46 152.545 270.905 141.01 257.724 128.765C257.708 128.765 244.312 139.804 257.476 152.545Z" fill="#C1DFF4" fill-opacity="0.25"/>
<path d="M279.517 248.425C279.517 248.441 292.914 237.237 279.782 224.611C279.782 224.611 266.386 235.303 279.517 248.425Z" fill="#C1DFF4" fill-opacity="0.25"/>
<path d="M507.336 306.397C507.336 306.414 510.134 291.21 490.346 286.633C490.346 286.649 487.2 301.307 507.336 306.397Z" fill="#C1DFF4" fill-opacity="0.25"/>
<path d="M256.847 177.484C256.847 177.517 251.085 163.024 231.976 170.444C231.976 170.477 237.125 184.424 256.847 177.484Z" fill="#C1DFF4" fill-opacity="0.25"/>
<path d="M232.324 123.097C232.324 123.114 243.435 111.133 229.774 101.598C229.757 101.614 218.613 113.083 232.324 123.097Z" fill="#C1DFF4" fill-opacity="0.25"/>
<path d="M246.663 188.852C246.663 188.868 254.645 200.767 271.038 191.86C271.055 191.876 263.62 179.73 246.663 188.852Z" fill="#C1DFF4" fill-opacity="0.25"/>
<path d="M242.441 137.293C242.441 137.293 256.483 128.254 246.796 115.265C246.779 115.265 232.853 123.841 242.441 137.293Z" fill="#C1DFF4" fill-opacity="0.25"/>
<path d="M137.341 226.183C137.324 226.15 115.069 238.345 125.385 258.407C125.368 258.391 147.375 247.17 137.341 226.183Z" fill="#C1DFF4" fill-opacity="0.25"/>
<path d="M148.303 247.501C148.303 247.484 126.014 259.366 136.331 279.643C136.314 279.61 158.354 268.687 148.303 247.501Z" fill="#C1DFF4" fill-opacity="0.25"/>
<path d="M152.757 272.422C152.757 272.438 136.744 284.948 149.561 298.896C149.561 298.896 165.491 287.063 152.757 272.422Z" fill="#C1DFF4" fill-opacity="0.25"/>
<path d="M83.5902 366.848C83.6067 366.831 73.3732 354.173 54.5291 367.592C54.5456 367.592 64.0008 379.92 83.5902 366.848Z" fill="#C1DFF4" fill-opacity="0.25"/>
<path d="M134.46 387.836C134.477 387.819 124.193 374.533 105.217 387.307C105.217 387.307 114.755 400.246 134.46 387.836Z" fill="#C1DFF4" fill-opacity="0.25"/>
<path d="M101.656 353.232C101.656 353.281 110.117 336.342 90.3127 331.401C90.3292 331.451 81.6026 347.646 101.656 353.232Z" fill="#C1DFF4" fill-opacity="0.25"/>
<path d="M122.288 361.824C122.288 361.857 130.783 344.984 110.929 339.663C110.946 339.696 102.186 355.842 122.288 361.824Z" fill="#C1DFF4" fill-opacity="0.25"/>
<path d="M128.117 312.812C128.117 312.828 118.761 294.782 93.6741 308.267C93.6906 308.3 102.136 325.586 128.117 312.812Z" fill="#C1DFF4" fill-opacity="0.25"/>
<path d="M128.399 203.692C128.382 203.676 109.77 214.847 119.358 231.34C119.341 231.323 137.771 220.962 128.399 203.692Z" fill="#C1DFF4" fill-opacity="0.25"/>
<path d="M193.095 370.881C193.111 370.881 182.778 358.074 164.961 370.22C164.961 370.22 174.598 382.697 193.095 370.881Z" fill="#C1DFF4" fill-opacity="0.25"/>
<path d="M191.24 492.871C191.257 492.871 180.957 479.865 163.206 491.565C163.206 491.549 172.81 504.29 191.24 492.871Z" fill="#C1DFF4" fill-opacity="0.25"/>
<path d="M57.2112 269.494C57.2112 269.544 59.9103 286.136 82.7121 278.964C82.7287 279.013 80.5263 262.091 57.2112 269.494Z" fill="#C1DFF4" fill-opacity="0.25"/>
<path d="M166.948 118.947C166.932 118.914 146.912 129.689 155.986 147.801C155.986 147.768 175.758 137.869 166.948 118.947Z" fill="#C1DFF4" fill-opacity="0.25"/>
<path d="M296.987 376.25C296.987 376.25 281.04 361.245 260.987 378.117C260.987 378.117 276.056 392.742 296.987 376.25Z" fill="#C1DFF4" fill-opacity="0.25"/>
<path d="M197.947 405.219C197.93 405.219 179.815 417.233 192.764 434.089C192.764 434.105 210.78 422.835 197.947 405.219Z" fill="#C1DFF4" fill-opacity="0.25"/>
<path d="M217.95 411.005C217.95 411.005 203.957 420.127 213.943 433.281C213.926 433.281 227.836 424.721 217.95 411.005Z" fill="#C1DFF4" fill-opacity="0.25"/>
<path d="M353.85 288.138C353.85 288.105 333.631 295.69 342.64 315.719C342.623 315.669 362.593 308.861 353.85 288.138Z" fill="#C1DFF4" fill-opacity="0.25"/>
<path d="M170.674 294.897C170.674 294.914 178.043 310.613 199.752 301.127C199.768 301.16 193.012 285.147 170.674 294.897Z" fill="#C1DFF4" fill-opacity="0.25"/>
<path d="M207.866 337.699C207.883 337.732 217.669 358.438 245.786 346.903C245.786 346.953 236.828 325.767 207.866 337.699Z" fill="#C1DFF4" fill-opacity="0.25"/>
<path d="M233.93 359.61C233.947 359.627 247.409 378.796 273.606 364.204C273.606 364.237 261.004 344.522 233.93 359.61Z" fill="#C1DFF4" fill-opacity="0.25"/>
<path d="M298.725 352.983C298.709 352.983 316.973 336.226 296.788 318.692C296.788 318.709 278.523 334.739 298.725 352.983Z" fill="#C1DFF4" fill-opacity="0.25"/>
<path d="M270.542 339.795C270.542 339.829 286.654 320.989 264.1 306.166C264.1 306.199 247.872 324.228 270.542 339.795Z" fill="#C1DFF4" fill-opacity="0.25"/>
<path d="M244.941 322.213C244.941 322.23 260.01 305.489 240.354 291.905C240.338 291.938 225.186 307.968 244.941 322.213Z" fill="#C1DFF4" fill-opacity="0.25"/>
<path d="M220.666 304.976C220.666 305.009 234.758 287.409 214.208 275.329C214.208 275.362 200 292.202 220.666 304.976Z" fill="#C1DFF4" fill-opacity="0.25"/>
<path d="M260.407 240.163C260.407 240.179 278.738 219.886 254.794 203.377C254.794 203.41 236.364 222.861 260.407 240.163Z" fill="#C1DFF4" fill-opacity="0.25"/>
<path d="M230.601 222.563C230.601 222.579 250.322 204.335 229.673 186.719C229.673 186.735 209.968 204.219 230.601 222.563Z" fill="#C1DFF4" fill-opacity="0.25"/>
<path d="M206.392 205.94C206.376 205.94 226.131 190.704 209.787 173.005C209.77 173.005 190.131 187.613 206.392 205.94Z" fill="#C1DFF4" fill-opacity="0.25"/>
<path d="M666.154 384.994C666.137 385.093 674.715 408.725 645.008 409.782C644.991 409.882 635.967 386.184 666.154 384.994Z" fill="#C1DFF4" fill-opacity="0.25"/>
<path d="M692.218 381.653C692.218 381.719 700.415 401.616 675.891 402.905C675.891 402.988 667.346 383.141 692.218 381.653Z" fill="#C1DFF4" fill-opacity="0.25"/>
<path d="M713.281 371.707C713.281 371.773 726.147 390.678 705.167 396.611C705.167 396.694 692.102 378.086 713.281 371.707Z" fill="#C1DFF4" fill-opacity="0.25"/>
<path d="M543.038 397.568C543.038 397.651 539.213 371.573 572.662 374.283C572.662 374.366 577.183 399.187 543.038 397.568Z" fill="#C1DFF4" fill-opacity="0.25"/>
<path d="M582.928 405.997C582.911 406.096 576.188 381.043 607.534 381.258C607.518 381.357 614.837 405.171 582.928 405.997Z" fill="#C1DFF4" fill-opacity="0.25"/>
<path d="M617.205 408.625C617.205 408.707 608.246 386.067 635.718 383.919C635.718 384.002 645.107 405.567 617.205 408.625Z" fill="#C1DFF4" fill-opacity="0.25"/>
<path d="M231.314 282.451C231.314 282.418 254.447 296.481 275.427 272.502C275.427 272.469 253.222 257.547 231.314 282.451Z" fill="#C1DFF4" fill-opacity="0.25"/>
<path d="M200.381 267.512C200.381 267.462 223.465 280.914 244.395 256.506C244.412 256.472 222.223 242.161 200.381 267.512Z" fill="#C1DFF4" fill-opacity="0.25"/>
<path d="M106.26 328.295C106.276 328.295 118.282 346.126 144.362 330.807C144.379 330.823 133.135 312.381 106.26 328.295Z" fill="#C1DFF4" fill-opacity="0.25"/>
<path d="M72.7935 380.282C72.81 380.249 89.3525 394.428 111.889 374.945C111.906 374.928 96.1251 360.154 72.7935 380.282Z" fill="#C1DFF4" fill-opacity="0.25"/>
<mask id="mask4_1701_371" style="mask-type:luminance" maskUnits="userSpaceOnUse" x="0" y="362" width="41" height="22">
<path d="M0 362.388H40.8677V383.54H0V362.388Z" fill="white"/>
</mask>
<g mask="url(#mask4_1701_371)">
<path d="M1.27515 377.178C1.27515 377.129 17.6189 389.986 39.924 369.742C39.924 369.692 24.3253 356.191 1.27515 377.178Z" fill="#C1DFF4" fill-opacity="0.25"/>
</g>
<path d="M182.564 249.203C182.564 249.187 200.232 259.135 216.212 240.131C216.212 240.098 199.255 229.587 182.564 249.203Z" fill="#C1DFF4" fill-opacity="0.25"/>
<path d="M157.642 229.156C157.658 229.14 171.667 243.186 192.896 226.843C192.896 226.843 179.599 212.185 157.642 229.156Z" fill="#C1DFF4" fill-opacity="0.25"/>
<path d="M120.566 444.783C120.582 444.849 116.592 467.522 145.454 468.497C145.454 468.563 149.991 445.907 120.566 444.783Z" fill="#C1DFF4" fill-opacity="0.25"/>
<path d="M230.253 461.672C230.253 461.705 234.426 442.32 210.349 439.809C210.366 439.858 205.729 458.449 230.253 461.672Z" fill="#C1DFF4" fill-opacity="0.25"/>
<path d="M133.681 480.758C133.698 480.742 118.463 469.603 101.689 486.492C101.689 486.459 116.112 497.548 133.681 480.758Z" fill="#C1DFF4" fill-opacity="0.25"/>
<path d="M268.372 445.345C268.372 445.378 276.983 431.15 259.662 423.333C259.662 423.366 250.852 437 268.372 445.345Z" fill="#C1DFF4" fill-opacity="0.25"/>
<path d="M205.581 466.895C205.581 466.944 210.416 444.635 182.762 442.106C182.762 442.156 177.414 463.49 205.581 466.895Z" fill="#C1DFF4" fill-opacity="0.25"/>
<path d="M176.784 469.754C176.784 469.82 181.437 448.138 154.579 446.122C154.595 446.188 149.412 466.878 176.784 469.754Z" fill="#C1DFF4" fill-opacity="0.25"/>
<path d="M234.84 430.554C234.84 430.587 229.574 448.814 252.393 452.929C252.393 452.962 258.089 435.032 234.84 430.554Z" fill="#C1DFF4" fill-opacity="0.25"/>
<path d="M86.1902 279.89C86.2067 279.956 88.4091 302.679 119.027 295.49C119.043 295.556 117.487 272.321 86.1902 279.89Z" fill="#C1DFF4" fill-opacity="0.25"/>
<path d="M80.6091 256.954C80.6257 257.02 83.5401 278.156 112.353 270.208C112.369 270.274 110.068 248.609 80.6091 256.954Z" fill="#C1DFF4" fill-opacity="0.25"/>
<path d="M77.3472 233.123C77.3637 233.172 79.9966 252.144 105.862 244.674C105.878 244.74 103.809 225.339 77.3472 233.123Z" fill="#C1DFF4" fill-opacity="0.25"/>
<path d="M85.5771 202.865C85.5771 202.898 80.6425 218.746 99.9669 219.655C99.9669 219.705 105.216 203.956 85.5771 202.865Z" fill="#C1DFF4" fill-opacity="0.25"/>
<path d="M18.5457 253.582C18.5622 253.599 23.3643 266.72 42.6059 257.4C42.6059 257.416 38.2675 243.964 18.5457 253.582Z" fill="#C1DFF4" fill-opacity="0.25"/>
<path d="M139.94 212.237C139.94 212.237 153.932 225.97 175.111 209.295C175.128 209.295 161.831 194.918 139.94 212.237Z" fill="#C1DFF4" fill-opacity="0.25"/>
<path d="M128.846 185.86C128.846 185.91 134.642 204.187 160.126 194.552C160.143 194.602 154.976 175.829 128.846 185.86Z" fill="#C1DFF4" fill-opacity="0.25"/>
<path d="M51.4984 181.364C51.5315 181.513 39.9236 209.805 73.4722 213.275C73.4888 213.44 85.5272 185 51.4984 181.364Z" fill="#C1DFF4" fill-opacity="0.25"/>
<path d="M78.1424 149.521C78.159 149.587 61.3515 172.326 85.5608 183.15C85.5608 183.233 102.55 161.055 78.1424 149.521Z" fill="#C1DFF4" fill-opacity="0.25"/>
<path d="M125.667 163.715C125.667 163.748 128.465 179.067 149.313 172.821C149.313 172.87 147.028 157.287 125.667 163.715Z" fill="#C1DFF4" fill-opacity="0.25"/>
<path d="M530.717 454.037C530.7 454.053 536.678 439.23 560.175 447.74C560.175 447.757 554.926 462.051 530.717 454.037Z" fill="#C1DFF4" fill-opacity="0.25"/>
<path d="M548.751 472.413C548.751 472.463 548.601 456.318 573.175 457.805C573.159 457.838 573.904 473.256 548.751 472.413Z" fill="#C1DFF4" fill-opacity="0.25"/>
<path d="M573.208 476.494C573.208 476.527 569.548 460.481 593.41 458.052C593.41 458.101 597.566 473.371 573.208 476.494Z" fill="#C1DFF4" fill-opacity="0.25"/>
<path d="M598.592 478.744C598.576 478.777 592.317 463.16 615.052 457.889C615.052 457.938 621.709 472.762 598.592 478.744Z" fill="#C1DFF4" fill-opacity="0.25"/>
<path d="M623.315 475.518C623.315 475.568 619.06 459.67 642.64 457.225C642.623 457.274 647.343 472.379 623.315 475.518Z" fill="#C1DFF4" fill-opacity="0.25"/>
<path d="M647.176 477.651C647.16 477.717 645.073 458.035 674.946 459.324C674.929 459.407 677.744 477.965 647.176 477.651Z" fill="#C1DFF4" fill-opacity="0.25"/>
<path d="M587.946 526.551C587.946 526.469 611.194 514.24 634.394 542.945C634.394 542.862 612.337 555.372 587.946 526.551Z" fill="#C1DFF4" fill-opacity="0.25"/>
<path d="M509.886 448.684C509.903 448.717 500.381 430.588 521.08 417.12C521.097 417.17 530.85 434.389 509.886 448.684Z" fill="#C1DFF4" fill-opacity="0.25"/>
<path d="M491.174 459.77C491.174 459.787 477.248 445.707 492.763 425.149C492.763 425.166 506.723 438.419 491.174 459.77Z" fill="#C1DFF4" fill-opacity="0.25"/>
<path d="M579.964 445.494C579.964 445.444 553.751 445.676 555.142 418.905C555.142 418.838 580.809 418.243 579.964 445.494Z" fill="#C1DFF4" fill-opacity="0.25"/>
<path d="M612.684 448.17C612.701 448.121 586.554 447.873 587.962 421.333C587.978 421.283 613.562 421.184 612.684 448.17Z" fill="#C1DFF4" fill-opacity="0.25"/>
<path d="M739.908 336.722C739.875 336.87 743.849 366.203 703.081 355.362C703.047 355.528 698.444 325.121 739.908 336.722Z" fill="#C1DFF4" fill-opacity="0.25"/>
<path d="M638.285 446.468C638.302 446.435 618.331 445.873 619.424 425.778C619.424 425.728 638.964 425.992 638.285 446.468Z" fill="#C1DFF4" fill-opacity="0.25"/>
<path d="M670.774 440.007C670.774 439.958 650.489 443.61 645.654 423.449C645.654 423.399 665.392 419.483 670.774 440.007Z" fill="#C1DFF4" fill-opacity="0.25"/>
<path d="M695.861 436.32C695.877 436.27 675.659 439.509 670.84 419.447C670.84 419.381 690.512 415.911 695.861 436.32Z" fill="#C1DFF4" fill-opacity="0.25"/>
<path d="M722.339 424.192C722.355 424.126 705.3 433.397 692.185 416.326C692.185 416.276 708.595 406.741 722.339 424.192Z" fill="#C1DFF4" fill-opacity="0.25"/>
<path d="M610.615 510.851C610.631 510.818 589.601 514.041 586.853 493.665C586.853 493.615 607.336 490.145 610.615 510.851Z" fill="#C1DFF4" fill-opacity="0.25"/>
<path d="M589.254 544.894C589.27 544.861 567.578 545.753 568.224 525.427C568.224 525.394 589.419 524.221 589.254 544.894Z" fill="#C1DFF4" fill-opacity="0.25"/>
<path d="M557.328 538.582C557.328 538.565 536.033 532.616 545.124 514.322C545.124 514.322 566.137 519.842 557.328 538.582Z" fill="#C1DFF4" fill-opacity="0.25"/>
<path d="M529.873 527.227C529.889 527.244 511.691 515.329 527.736 501.299C527.736 501.315 545.869 512.652 529.873 527.227Z" fill="#C1DFF4" fill-opacity="0.25"/>
<path d="M502.004 514.769C502.004 514.802 492.086 496.905 514.457 491.931C514.457 491.964 524.641 509.167 502.004 514.769Z" fill="#C1DFF4" fill-opacity="0.25"/>
<path d="M585.991 508.371C585.991 508.322 564.928 511.825 562.163 491.35C562.163 491.3 582.679 487.549 585.991 508.371Z" fill="#C1DFF4" fill-opacity="0.25"/>
<path d="M636.612 507.611C636.629 507.578 615.649 510.47 612.916 490.21C612.916 490.16 633.35 487.02 636.612 507.611Z" fill="#C1DFF4" fill-opacity="0.25"/>
<path d="M665.044 495.795C665.044 495.746 646.564 504.835 635.022 487.467C635.022 487.417 652.856 478.113 665.044 495.795Z" fill="#C1DFF4" fill-opacity="0.25"/>
<path d="M9.95239 394.165C9.96895 394.082 30.4691 415.813 65.5411 389.769C65.5577 389.719 46.018 366.765 9.95239 394.165Z" fill="#C1DFF4" fill-opacity="0.25"/>
<path d="M70.0281 465.438C70.0281 465.404 87.0342 485.979 117.519 465.768C117.536 465.735 101.474 444.45 70.0281 465.438Z" fill="#C1DFF4" fill-opacity="0.25"/>
<path d="M106.673 504.44C106.673 504.39 126.13 522.552 152.857 501.002C152.857 500.969 134.36 482.246 106.673 504.44Z" fill="#C1DFF4" fill-opacity="0.25"/>
<path d="M92.7637 432.256C92.7471 432.19 117.553 433.413 123.994 408.245C123.994 408.179 99.8675 406.526 92.7637 432.256Z" fill="#C1DFF4" fill-opacity="0.25"/>
<path d="M163.023 433.893C163.023 433.86 187.564 425.052 179.798 401.47C179.781 401.437 155.638 409.716 163.023 433.893Z" fill="#C1DFF4" fill-opacity="0.25"/>
<path d="M127.538 439.195C127.522 439.129 156.053 434.998 151.615 408.045C151.598 407.979 123.614 411.697 127.538 439.195Z" fill="#C1DFF4" fill-opacity="0.25"/>
<path d="M65.8062 419.268C65.8062 419.218 84.6669 427.481 99.7522 406.874C99.7522 406.841 81.5869 398.148 65.8062 419.268Z" fill="#C1DFF4" fill-opacity="0.25"/>
<path d="M48.6008 408.904C48.6008 408.871 62.5601 416.671 76.2876 400.889C76.2876 400.856 62.9078 392.726 48.6008 408.904Z" fill="#C1DFF4" fill-opacity="0.25"/>
<path d="M139.063 519.18C139.063 519.163 153.138 528.417 166.982 513.412C166.982 513.396 153.519 503.894 139.063 519.18Z" fill="#C1DFF4" fill-opacity="0.25"/>
<path d="M228.63 526.054C228.614 526.038 251.73 514.982 239.642 492.475C239.642 492.458 216.791 502.869 228.63 526.054Z" fill="#C1DFF4" fill-opacity="0.25"/>
<path d="M264.647 514.652C264.647 514.652 286.82 497.416 263.952 478.775C263.935 478.775 241.779 495.235 264.647 514.652Z" fill="#C1DFF4" fill-opacity="0.25"/>
<path d="M194.767 528.929C194.767 528.912 217.95 526.252 216.89 503.215C216.89 503.182 194.204 505.364 194.767 528.929Z" fill="#C1DFF4" fill-opacity="0.25"/>
<path d="M171.353 529.195C171.336 529.162 189.932 528.518 191.224 509.959C191.224 509.943 173.075 510.224 171.353 529.195Z" fill="#C1DFF4" fill-opacity="0.25"/>
</svg>
