<svg width="41" height="41" viewBox="0 0 41 41" fill="none" xmlns="http://www.w3.org/2000/svg">
<g clip-path="url(#clip0_1423_263)">
<path d="M37.1562 20.5C37.1562 24.9175 35.4014 29.1541 32.2777 32.2777C29.1541 35.4014 24.9175 37.1562 20.5 37.1562C16.0825 37.1562 11.8459 35.4014 8.72225 32.2777C5.5986 29.1541 3.84375 24.9175 3.84375 20.5C3.84375 16.0825 5.5986 11.8459 8.72225 8.72225C11.8459 5.5986 16.0825 3.84375 20.5 3.84375C24.9175 3.84375 29.1541 5.5986 32.2777 8.72225C35.4014 11.8459 37.1562 16.0825 37.1562 20.5ZM0 20.5C0 25.9369 2.15982 31.1512 6.00431 34.9957C9.84881 38.8402 15.0631 41 20.5 41C25.9369 41 31.1512 38.8402 34.9957 34.9957C38.8402 31.1512 41 25.9369 41 20.5C41 15.0631 38.8402 9.84881 34.9957 6.00431C31.1512 2.15982 25.9369 0 20.5 0C15.0631 0 9.84881 2.15982 6.00431 6.00431C2.15982 9.84881 0 15.0631 0 20.5ZM18.5781 9.60938V20.5C18.5781 21.1406 18.8984 21.7412 19.435 22.1016L27.1225 27.2266C28.0033 27.8191 29.1965 27.5789 29.7891 26.69C30.3816 25.8012 30.1414 24.616 29.2525 24.0234L22.4219 19.475V9.60938C22.4219 8.54434 21.565 7.6875 20.5 7.6875C19.435 7.6875 18.5781 8.54434 18.5781 9.60938Z" fill="#013A63"/>
</g>
<defs>
<clipPath id="clip0_1423_263">
<rect width="41" height="41" fill="white"/>
</clipPath>
</defs>
</svg>
