<svg width="68" height="68" viewBox="0 0 68 68" fill="none" xmlns="http://www.w3.org/2000/svg">
<path d="M34.2486 2.44238C16.6086 2.44238 2.30859 16.7424 2.30859 34.3824C2.30859 52.0222 16.6086 66.3224 34.2486 66.3224C51.8884 66.3224 66.1886 52.0222 66.1886 34.3824C66.1886 16.7424 51.8884 2.44238 34.2486 2.44238Z" stroke="#013A63" stroke-opacity="0.78" stroke-width="2.916" stroke-linecap="round" stroke-linejoin="round"/>
<path d="M9.56445 54.6507C9.56445 54.6507 16.6839 45.5615 34.2509 45.5615C51.8179 45.5615 58.9376 54.6507 58.9376 54.6507" stroke="#013A63" stroke-opacity="0.78" stroke-width="2.916" stroke-linecap="round" stroke-linejoin="round"/>
<path d="M34.248 34.3818C39.5402 34.3818 43.83 30.0919 43.83 24.7998C43.83 19.5078 39.5402 15.2178 34.248 15.2178C28.9559 15.2178 24.666 19.5078 24.666 24.7998C24.666 30.0919 28.9559 34.3818 34.248 34.3818Z" stroke="#013A63" stroke-opacity="0.78" stroke-width="2.916" stroke-linecap="round" stroke-linejoin="round"/>
</svg>
