<svg width="900" height="584" viewBox="0 0 900 584" fill="none" xmlns="http://www.w3.org/2000/svg">
<mask id="mask0_1715_107" style="mask-type:luminance" maskUnits="userSpaceOnUse" x="0" y="0" width="900" height="584">
<path d="M0 0H899.061V583.347H0V0Z" fill="white"/>
</mask>
<g mask="url(#mask0_1715_107)">
<path d="M3.23579 372.576C-15.1702 434.387 35.4775 566.926 415.298 581.223C764.904 594.378 880.802 547.444 898.214 415.555C915.621 283.661 661.071 -67.0821 449.55 11.2906C273.881 76.3736 318.619 180.86 232.527 234.484C146.436 288.103 34.1376 268.843 3.23579 372.576Z" fill="#C1DFF4"/>
</g>
<path d="M269.435 172.234C238.379 205.125 171.824 246.783 137.025 224.088C102.226 201.389 114.04 138.981 148.009 91.2558C181.978 43.5305 232.69 30.0692 269.435 54.5447C306.181 79.0203 308.521 130.839 269.435 172.234Z" fill="#E1F0FA"/>
<path d="M501.216 113.284L520.004 92.4678C520.534 91.8638 521.551 91.9846 521.922 92.6959L525.374 99.1783L508.762 110.358C508.429 110.595 508.692 111.114 509.1 110.998L528.366 104.779L531.841 111.271C532.216 111.96 531.714 112.805 530.88 112.868L502.201 115.109C501.15 115.203 500.526 114.018 501.216 113.284Z" fill="white"/>
<path d="M525.548 99.7281L510.155 110.085L528.005 104.327L531.232 99.8668L525.548 99.7281ZM508.983 111.557C508.626 111.557 508.307 111.373 508.143 111.055C507.932 110.653 508.049 110.188 508.425 109.924L508.434 109.915L525.201 98.632L533.366 98.8334L528.727 105.24L509.283 111.512C509.18 111.543 509.081 111.557 508.983 111.557Z" fill="white"/>
<path d="M676.984 278.251C675.69 278.989 674.311 279.472 672.918 279.691C672.149 282.729 672.763 285.771 674.869 287.874C676.989 289.976 680.145 290.688 683.353 290.088C683.639 288.768 684.211 287.467 685.046 286.268C685.586 285.485 686.782 285.44 687.419 286.16C689.408 288.433 691.214 290.688 692.803 292.88C693.301 293.564 693.094 294.517 692.33 294.911C689.905 296.172 687.208 296.817 684.488 296.861C679.634 296.946 674.682 295.121 670.977 291.43C667.276 287.748 665.574 282.948 665.869 278.322C666.033 275.732 666.821 273.191 668.242 270.936C668.688 270.229 669.701 270.068 670.395 270.569C672.623 272.18 674.911 273.996 677.2 275.992C677.927 276.627 677.833 277.768 676.984 278.251Z" fill="white"/>
<path d="M678.668 264.374C673.499 264.374 668.327 266.199 664.312 269.872C660.307 273.527 658.032 278.457 657.91 283.741C657.798 289.028 659.847 294.048 663.679 297.864C667.515 301.684 672.679 303.85 678.227 303.966C683.827 304.073 689.037 302.127 693.038 298.468C697.043 294.808 699.313 289.883 699.435 284.595C699.552 279.307 697.507 274.288 693.671 270.472C689.595 266.418 684.136 264.374 678.668 264.374ZM678.687 305.554C678.522 305.554 678.358 305.55 678.194 305.55C672.2 305.424 666.624 303.085 662.478 298.964C653.928 290.447 654.233 276.882 663.158 268.727C672.088 260.567 686.312 260.858 694.867 269.376C703.426 277.889 703.112 291.453 694.187 299.613C689.98 303.452 684.493 305.554 678.687 305.554Z" fill="white"/>
<path d="M540.996 98.5826L539.833 95.4555C539.927 95.4242 542.15 94.6771 545.944 93.9255L546.652 97.1734C543.116 97.8758 541.019 98.5781 540.996 98.5826Z" fill="white"/>
<path d="M570.556 96.217C567.671 95.886 564.707 95.716 561.753 95.716C560.66 95.716 559.595 95.7383 558.563 95.7786L558.418 92.4636C559.492 92.4233 560.608 92.3965 561.753 92.3965C564.848 92.3965 567.953 92.5754 570.978 92.9289L570.556 96.217ZM593.353 102.892C589.822 101.147 586.098 99.6931 582.276 98.5791L583.293 95.4073C587.313 96.5794 591.238 98.1094 594.957 99.9525L593.353 102.892ZM612.324 116.738C609.524 113.897 606.537 111.307 603.441 109.039L605.566 106.408C608.802 108.788 611.93 111.499 614.856 114.465L612.324 116.738ZM626.29 135.411C625.934 134.771 625.564 134.136 625.184 133.51C623.523 130.749 621.755 128.101 619.926 125.64L622.764 123.726C624.654 126.271 626.487 129.005 628.204 131.854C628.603 132.516 628.987 133.183 629.362 133.859L626.29 135.411ZM633.846 157.073C633.161 153.225 632.19 149.481 630.971 145.938L634.273 144.9C635.553 148.599 636.561 152.509 637.279 156.513L633.846 157.073ZM638.269 180.3L634.798 180.04C635.023 177.347 635.136 174.654 635.136 172.037C635.131 170.856 635.112 169.679 635.065 168.512L638.541 168.391C638.587 169.599 638.611 170.811 638.611 172.037C638.611 174.739 638.498 177.517 638.269 180.3ZM633.818 203.657L630.469 202.762C631.576 199 632.5 195.211 633.217 191.489L636.641 192.088C635.9 195.909 634.953 199.801 633.818 203.657ZM625.118 225.86L621.966 224.455C623.692 220.93 625.277 217.333 626.684 213.768L629.939 214.931C628.504 218.581 626.881 222.259 625.118 225.86ZM613.009 246.524L610.101 244.708C612.329 241.46 614.453 238.118 616.414 234.78L619.448 236.4C617.45 239.804 615.283 243.209 613.009 246.524ZM598.09 265.421L595.45 263.264C598.104 260.312 600.674 257.265 603.089 254.21L605.866 256.205C603.408 259.319 600.791 262.414 598.09 265.421ZM580.84 282.403L578.491 279.956C581.488 277.339 584.428 274.614 587.233 271.849L589.733 274.162C586.876 276.967 583.884 279.741 580.84 282.403ZM561.659 297.354L559.609 294.674C562.902 292.384 566.152 289.995 569.27 287.565L571.47 290.133C568.304 292.603 565.003 295.032 561.659 297.354ZM540.896 310.225L539.152 307.353C542.683 305.407 546.182 303.362 549.559 301.268L551.453 304.051C548.025 306.176 544.475 308.252 540.896 310.225ZM518.868 320.993L517.433 317.973C521.147 316.367 524.848 314.672 528.431 312.918L530.021 315.87C526.386 317.647 522.634 319.369 518.868 320.993ZM495.864 329.694L494.734 326.554C498.589 325.288 502.444 323.932 506.191 322.514L507.471 325.596C503.673 327.037 499.771 328.41 495.864 329.694Z" fill="white"/>
<path d="M478.067 334.91L477.152 331.711C479.113 331.201 481.054 330.678 482.973 330.136L483.962 333.317C482.016 333.867 480.051 334.395 478.067 334.91Z" fill="white"/>
<path d="M446.949 124.728C440.683 124.728 435.599 119.892 435.599 113.92C435.599 107.947 440.683 103.098 446.949 103.098C453.21 103.098 458.284 107.947 458.284 113.92C458.284 119.892 453.21 124.728 446.949 124.728ZM446.949 98.1095C437.803 98.1095 430.375 105.2 430.375 113.92C430.375 122.63 437.803 129.712 446.949 129.712C456.08 129.712 463.509 122.63 463.509 113.92C463.509 105.2 456.08 98.1095 446.949 98.1095ZM446.949 131.546C436.753 131.546 428.452 123.645 428.452 113.92C428.452 104.198 436.753 96.2798 446.949 96.2798C457.145 96.2798 465.432 104.198 465.432 113.92C465.432 123.645 457.145 131.546 446.949 131.546ZM476.856 108.837H472.884C472.195 105.639 470.863 102.655 469.043 100.02L471.862 97.3311C473.935 95.3537 473.935 92.1416 471.862 90.1463C469.784 88.169 466.417 88.169 464.33 90.1463L461.511 92.8484C458.744 91.1037 455.63 89.8287 452.262 89.1845V85.3863C452.262 82.5858 449.88 80.3177 446.949 80.3177C443.999 80.3177 441.616 82.5858 441.616 85.3863V89.1845C438.263 89.8287 435.135 91.1037 432.373 92.8484L429.554 90.1463C427.476 88.169 424.109 88.169 422.022 90.1463C419.944 92.1416 419.944 95.3537 422.022 97.3311L424.85 100.02C423.021 102.655 421.689 105.639 421.009 108.837H417.027C414.091 108.837 411.709 111.11 411.709 113.92C411.709 116.716 414.091 118.988 417.027 118.988H421.009C421.689 122.2 423.021 125.171 424.85 127.81L422.022 130.495C419.944 132.485 419.944 135.702 422.022 137.679C424.109 139.657 427.476 139.657 429.554 137.679L432.373 134.991C435.135 136.726 438.263 137.997 441.616 138.655V142.439C441.616 145.253 443.999 147.521 446.949 147.521C449.88 147.521 452.262 145.253 452.262 142.439V138.655C455.63 137.997 458.744 136.726 461.511 134.991L464.33 137.679C466.417 139.657 469.784 139.657 471.862 137.679C473.935 135.702 473.935 132.485 471.862 130.495L469.043 127.81C470.863 125.171 472.195 122.2 472.884 118.988H476.856C479.802 118.988 482.184 116.716 482.184 113.92C482.184 111.11 479.802 108.837 476.856 108.837Z" fill="white"/>
<mask id="mask1_1715_107" style="mask-type:luminance" maskUnits="userSpaceOnUse" x="15" y="267" width="284" height="216">
<path d="M15.9683 267.299H298.1V482.609H15.9683V267.299Z" fill="white"/>
</mask>
<g mask="url(#mask1_1715_107)">
<path d="M274.228 437.165L283.134 390.375C274.514 373.679 260.866 356.151 239.616 339.612L223.938 399.139L219.975 326.021C206.496 317.713 190.724 309.822 172.293 302.605L159.316 351.892L156.323 296.754C140.584 291.368 123.123 286.447 103.749 282.12L103.149 315.66L93.3144 279.884C70.2025 275.142 44.5158 271.223 15.9683 268.328C15.9683 268.328 24.715 297.054 43.2354 333.465L92.1888 330.651L49.5246 345.405C57.6382 360.285 67.2853 376.001 78.5271 391.283L132.588 376.649L88.4837 404.167C102.164 420.975 117.89 436.762 135.744 449.709L203.771 428.692L152.562 460.643C170.989 471.277 191.418 478.766 213.93 481.481L259.666 456.912L235.222 482.577C253.555 482.291 273.126 478.887 293.991 471.599C293.991 471.599 302.466 443.911 290.844 408.69L274.228 437.165Z" fill="#B5D6EA"/>
</g>
<path d="M232.109 471.716C238.15 467.52 243.722 462.447 248.726 456.555L249.701 455.41L249.152 454.032C248.913 453.437 243.163 439.309 225.703 426.715L220.614 423.042L221.604 430.536L216.506 420.913L215.788 420.528C204.866 414.668 192.245 410.758 178.288 408.915L173.593 408.293L181.266 425.561L165.864 407.823L163.927 407.751C154.819 407.456 145.083 407.939 134.991 409.192L131.478 409.626L136.449 420.81L127.299 410.275L125.761 410.525C117.192 411.943 108.188 413.93 98.9907 416.395C110.059 428.594 122.3 439.957 135.746 449.71L203.773 428.693L152.564 460.644C161.554 465.833 171.023 470.267 180.98 473.77L182.119 472.539L181.458 473.94C191.551 477.456 202.145 479.997 213.237 481.388C213.866 481.165 214.499 480.959 215.113 480.722L215.91 480.413L216.023 480.355L221.773 470.253L220.732 477.827L232.109 471.716Z" fill="#7FB8DB"/>
<path d="M283.674 464.965C263.676 448.443 243.5 432.186 222.991 416.322L207.557 404.494C202.365 400.602 197.234 396.647 192.005 392.809C181.603 385.056 171.154 377.361 160.592 369.809C150.082 362.2 139.469 354.711 128.809 347.28C123.467 343.58 118.167 339.827 112.793 336.163L96.7014 325.149C75.1934 310.524 53.4932 296.141 31.8164 281.673C54.6282 294.455 76.9709 307.988 98.9385 322.066C109.946 329.072 120.789 336.315 131.604 343.589C142.372 350.926 153.041 358.402 163.631 365.971C174.165 373.621 184.633 381.347 194.96 389.248C205.25 397.193 215.488 405.201 225.505 413.45C245.592 429.9 265.107 446.99 283.674 464.965Z" fill="white"/>
<path d="M226.78 443.705L214.254 421.936C204.607 417.163 192.46 413.32 177.325 411.821L191.348 440.623L163.926 411.141C155.095 411.097 145.396 411.812 134.769 413.486L146.386 437.33L125.708 415.101C116.905 416.85 107.516 419.234 97.4935 422.348L109.007 436.485L92.1236 424.061C80.3144 427.958 67.6657 432.843 54.1118 438.883C54.1118 438.883 68.0456 448.64 88.9626 459.117L109.462 445.517L95.9177 462.499C104.702 466.642 114.462 470.749 124.761 474.265L143.352 454.438L133.657 477.11C145.565 480.64 158.012 483.235 170.398 484.098L192.877 458.061L181.621 484.385C193.449 484.143 205.043 482.076 215.876 477.491L227.325 455.637L225.608 472.543C233.557 467.769 240.953 461.381 247.552 453.046C247.552 453.046 241.544 439.348 224.074 427.613L226.78 443.705Z" fill="#B5D6EA"/>
<path d="M240.695 452.899C237.056 452.487 233.426 452.04 229.801 451.584L218.901 450.358C211.641 449.535 204.372 448.761 197.098 448.081C182.545 446.73 167.988 445.504 153.407 444.556C138.821 443.549 124.226 442.815 109.617 442.122C102.315 441.773 95.0078 441.496 87.6963 441.245L65.7568 440.426C73.0778 440.167 80.3988 440.109 87.7197 440.015C95.0407 440.015 102.366 440.077 109.687 440.194C124.334 440.431 138.971 441.102 153.59 442.055C168.203 443.07 182.798 444.363 197.328 446.175C204.592 447.083 211.843 448.067 219.08 449.146C226.302 450.318 233.52 451.494 240.695 452.899Z" fill="white"/>
<path d="M636.633 288.541C609.97 292.017 586.277 296.432 565.224 301.595L563.718 336.959L555.741 304.024C538.172 308.704 522.56 313.92 508.701 319.561L518.015 373.791L494.725 325.659C478.69 333.157 465.352 341.259 454.298 349.714L466.651 421.633L438.521 363.497C421.848 380.215 412.67 397.739 408.116 414.327L426.956 460.098L404.787 432.49C403.192 449.119 405.593 463.954 408.543 474.932H538.21L492.455 450.22L562.138 469.363C576.353 456.25 587.909 440.395 597.275 423.583L549.034 397.524L603.958 410.708C611.326 395.448 617.085 379.79 621.559 364.996L577.511 351.445L624.936 353.127C634.606 316.949 636.633 288.541 636.633 288.541Z" fill="#B5D6EA"/>
<path d="M596.505 322.165L582.834 332.597C578.29 336.096 573.844 339.701 569.341 343.254C560.379 350.394 551.609 357.753 542.876 365.152C534.195 372.61 525.641 380.197 517.176 387.883C508.781 395.631 500.465 403.465 492.319 411.455C484.215 419.485 476.186 427.582 468.405 435.895C464.498 440.042 460.667 444.247 456.835 448.452C453.036 452.68 449.312 456.975 445.565 461.247L434.647 474.31C434.478 474.516 434.314 474.726 434.145 474.932H435.801L447.371 462.737C451.334 458.661 455.226 454.532 459.218 450.483C463.246 446.47 467.158 442.359 471.2 438.369L483.338 426.388C487.437 422.447 491.465 418.443 495.616 414.551C503.847 406.699 512.139 398.906 520.566 391.252C528.943 383.544 537.445 375.956 546 368.427C550.291 364.678 554.54 360.875 558.874 357.167L571.846 346.005C580.541 338.614 589.264 331.246 598.044 323.927L611.204 312.94C615.645 309.334 620.044 305.684 624.425 301.997C614.97 308.533 605.754 315.365 596.505 322.165Z" fill="#E1F0FA"/>
<path d="M811.97 487.709H176.969C168.71 487.709 162.008 481.32 162.008 473.442V464.137H826.931V473.442C826.931 481.32 820.229 487.709 811.97 487.709Z" fill="#265173"/>
<path d="M535.879 464.137H180.083C170.196 464.137 159.865 456.8 157.004 447.75L61.0105 144.041C58.1496 134.99 63.8479 127.653 73.7342 127.653H429.53C439.416 127.653 449.748 134.99 452.609 144.041L548.602 447.75C551.463 456.8 545.765 464.137 535.879 464.137Z" fill="#265173"/>
<path d="M539.092 460.133H177.978C170.483 460.133 162.721 456.062 158.022 450.251C161.825 458.111 171.13 464.137 180.083 464.137H535.879C541.784 464.137 546.174 461.507 548.157 457.471C545.845 459.149 542.759 460.133 539.092 460.133Z" fill="#22365B"/>
<path d="M532.596 436.726H175.257L83.7476 147.198H441.091L532.596 436.726Z" fill="white"/>
<path d="M185.191 209.572H144.079C136.96 209.572 132.884 215.079 134.976 221.865C137.063 228.656 144.529 234.159 151.649 234.159H192.76C199.88 234.159 203.955 228.656 201.868 221.865C199.776 215.079 192.31 209.572 185.191 209.572Z" fill="#B5D6EA"/>
<path d="M479.868 398.843H455.011C447.892 398.843 443.816 404.346 445.903 411.132C447.995 417.923 455.461 423.426 462.581 423.426H487.437C494.552 423.426 498.632 417.923 496.54 411.132C494.449 404.346 486.987 398.843 479.868 398.843Z" fill="#B5D6EA"/>
<path d="M155.747 177.15C158.509 186.12 153.125 193.39 143.717 193.39C134.309 193.39 124.446 186.12 121.684 177.15C118.922 168.181 124.31 160.906 133.714 160.906C143.122 160.906 152.985 168.181 155.747 177.15Z" fill="#B5D6EA"/>
<path d="M793.35 317.083C792.168 311.513 790.039 307.634 786.855 306.48C772.818 301.393 752.196 340.583 736.846 376.422C736.846 376.422 696.926 378.372 703.946 400.544C703.946 400.544 706.896 401.532 711.624 402.7C729.638 399.72 771.725 385.4 793.35 317.083Z" fill="#5AA5D1"/>
<path d="M684.972 464.527L683.363 463.744L718.739 397.851L720.348 398.638L684.972 464.527Z" fill="#008EB0"/>
<path d="M768.681 464.334L752.393 398.441L754.152 398.048L770.445 463.94L768.681 464.334Z" fill="#008EB0"/>
<path d="M757.351 415.598H710.691V413.871H757.351V415.598Z" fill="#008EB0"/>
<path d="M796.263 464.527L760.887 398.638L762.496 397.851L797.872 463.744L796.263 464.527Z" fill="#008EB0"/>
<path d="M712.553 464.334L710.79 463.94L727.083 398.048L728.842 398.441L712.553 464.334Z" fill="#008EB0"/>
<path d="M770.543 415.598H723.888V413.871H770.543V415.598Z" fill="#008EB0"/>
<path d="M688.995 330.052C688.995 330.052 686.458 326.384 683.911 325.364C681.266 324.304 675.277 322.724 675.136 323.324C674.949 324.183 678.958 325.834 678.958 325.834C678.958 325.834 670.413 326.496 669.354 328.979C669.096 329.583 670.939 332.374 673.129 332.598C674.859 332.781 678.072 331.426 678.583 331.596C679.113 331.77 675.01 333.318 675.389 333.663C676.177 334.378 682.476 331.869 684.164 329.426C684.164 329.426 688.821 331.032 688.995 330.052Z" fill="#F79885"/>
<path d="M684.201 326.531C683.306 334.355 698.304 346.148 712.815 350.532L716.979 336.4C709.452 334.686 696.161 331.322 684.201 326.531Z" fill="#F79885"/>
<path d="M740.852 305.674C740.852 305.674 727.58 335.787 723.068 337.697C723.068 337.697 720.737 337.25 716.981 336.4L712.816 350.532C716.559 351.668 720.264 352.313 723.664 352.263C743.296 351.977 740.852 305.674 740.852 305.674Z" fill="#C93B38"/>
<path d="M645.806 455.302C645.806 455.302 677.43 448.622 690.229 388.353C690.229 388.353 705.452 389.489 717.946 385.186C716.961 379.902 712.365 371.407 693.099 370.431C687.438 370.136 680.497 370.489 672.004 371.778C669.954 373.558 669.058 374.476 667.037 379.822C662.516 391.744 645.806 455.302 645.806 455.302Z" fill="#F79885"/>
<path d="M711.517 386.912C711.676 385.633 711.747 384.398 711.592 383.579C711.053 380.64 711.175 376.712 708.089 373.634C704.496 371.983 699.67 370.762 693.1 370.431C692.082 370.377 691.013 370.355 689.911 370.346C684.165 374.681 679.311 385.655 686.984 401.183C688.157 397.193 689.249 392.947 690.229 388.353C690.229 388.353 700.777 389.127 711.517 386.912Z" fill="#F0786A"/>
<path d="M645.66 450.81C645.66 450.81 641.763 460.325 633.382 462.804L632.683 464.137H645.927C646.471 461.976 647.32 459.184 648.052 459.184C648.788 459.184 649.295 461.976 649.576 464.137H650.847L652.048 454.237L645.66 450.81Z" fill="#EB5654"/>
<path d="M672.004 371.778C680.498 370.49 687.439 370.136 693.099 370.431C712.366 371.407 716.962 379.902 717.947 385.186C718.397 387.633 716.891 393.753 716.891 393.753C716.891 393.753 732.992 397.399 744.28 395.779C758.144 393.762 767.524 382.394 766.848 370.342C764.775 365.39 744.956 360.867 744.956 360.867L717.951 361.019C708.736 362.075 681.154 363.779 672.004 371.778Z" fill="#00685D"/>
<path d="M754.143 294.272C754.617 297.833 755.015 301.635 755.095 304.91C755.231 310.663 771.379 314.524 771.379 314.524C771.379 314.524 770.483 302.682 768.532 289.982C764.395 288.496 759.612 290.017 754.143 294.272Z" fill="#265173"/>
<path d="M744.407 300.601C747.343 297.532 755.93 294.136 761.366 304.39C767.894 316.706 771.749 348.8 766.876 373.643C766.876 373.643 748.717 359.381 717.946 361.013C726.524 345.49 734.919 310.51 744.407 300.601Z" fill="#EB5654"/>
<path d="M711.624 402.7C726.524 406.364 759.255 411.773 774.572 393.57C790.189 375.013 797.389 336.11 793.351 317.083C771.725 385.401 729.638 399.721 711.624 402.7Z" fill="#7FB8DB"/>
<path d="M747.943 302.843C747.943 302.843 747.047 293.081 747.103 289.704C747.103 289.704 743.206 292.442 740.068 291.332C738.01 290.603 737.841 275.066 744.927 267.81C752.009 260.549 761.197 272.185 759.227 277.692C757.262 283.199 752.258 286.161 754.542 298.575C754.542 298.575 752.82 301.711 747.943 302.843Z" fill="#F79885"/>
<path d="M764.578 270.909C761.821 259.461 739.45 262.615 742.564 270.927L745.645 269.746C745.645 269.746 744.937 274.627 751.1 279.32C751.1 279.32 753.407 276.877 754.444 278.756C755.489 280.63 752.084 281.946 752.084 281.946C752.084 281.946 753.252 287.694 754.143 294.271C760.264 292.835 765.033 291.291 768.532 289.98C767.51 283.337 766.201 276.452 764.578 270.909Z" fill="#265173"/>
<path d="M758.313 306.726C754.941 307.746 752.704 352.997 768.79 358.178C769.747 342.623 768.147 326.428 765.188 314.962C762.853 309.719 760.418 306.086 758.313 306.726Z" fill="#C93B38"/>
<path d="M803.265 339.277C803.265 339.277 805.272 335.604 807.289 334.588C809.39 333.528 814.145 331.949 814.249 332.544C814.403 333.403 811.219 335.058 811.219 335.058C811.219 335.058 817.996 335.72 818.835 338.203C819.042 338.803 817.579 341.594 815.843 341.822C814.469 342.001 811.922 340.646 811.514 340.816C811.092 340.995 814.352 342.543 814.056 342.883C813.423 343.598 808.438 341.093 807.087 338.651C807.087 338.651 803.396 340.257 803.265 339.277Z" fill="#F79885"/>
<path d="M776.383 340.664C776.383 340.664 765.085 300.678 758.458 302.687C755.002 303.738 754.237 351.253 771.717 354.403C775.609 355.11 779.764 355.065 783.915 354.452L782.621 340.686C780.384 340.812 778.268 340.816 776.383 340.664Z" fill="#EB5654"/>
<path d="M809.325 334.288C809.325 334.288 793.904 339.898 782.62 340.686L783.647 354.451C795.109 352.313 806.543 343.218 809.325 334.288Z" fill="#F79885"/>
<path d="M693.999 404.096C705.738 426.214 730.52 455.302 730.52 455.302C745.368 438.928 716.891 393.753 716.891 393.753C716.891 393.753 718.396 387.633 717.946 385.186C716.961 379.902 712.365 371.407 693.099 370.431C689.098 373.72 684.099 385.459 693.999 404.096Z" fill="#F79885"/>
<path d="M727.349 453.651C727.349 453.651 729.028 458.608 721.97 462.804L721.266 464.137H732.789C732.789 464.137 733.061 459.185 733.793 459.185C734.525 459.185 734.67 464.137 734.67 464.137H735.65L734.825 451.356L727.349 453.651Z" fill="#EB5654"/>
<path d="M360.8 98.8423C360.8 98.8423 361.921 154.388 341.037 181.315C320.148 208.242 305.403 124.199 305.403 124.199L331.877 81.113L360.8 98.8423Z" fill="#9C2622"/>
<path d="M504.695 250.921C504.695 250.921 513.072 244.851 515.867 244.851C517.752 244.851 545.09 243.925 538.439 248.43C538.439 248.43 547.439 246.841 553.564 244.784C554.91 244.667 555.637 245.71 553.761 247.638C549.54 251.986 539.804 259.01 532.619 260.066C522.25 261.587 514.69 254.384 514.69 254.384L503.237 260.339L504.695 250.921Z" fill="#F79885"/>
<path d="M349.572 171.827C360.157 175.553 392.925 250.613 416.061 278.56C416.061 278.56 462.392 267.08 507.523 246.712L513.541 262.718C513.541 262.718 465.417 332.333 407.337 328.902C356.869 325.923 349.572 171.827 349.572 171.827Z" fill="#ED9D22"/>
<path d="M407.338 328.903C407.737 328.925 408.13 328.912 408.529 328.929C397.344 279.316 370.508 224.791 370.508 224.791L366.559 276.847C375.24 304.848 388.175 327.771 407.338 328.903Z" fill="#DB7D00"/>
<path d="M400.134 384.59C344.858 410.202 267.099 391.9 238.224 383.516C248.344 279.629 277.028 176.725 288.195 173.549C292.266 172.39 296.219 171.482 300.046 170.793C318.932 167.326 334.55 168.923 342.935 170.39C347.199 171.119 349.576 171.826 349.576 171.826C383.128 242.282 395.664 324.312 400.134 384.59Z" fill="#ED9D22"/>
<path d="M282.158 181.316C269.763 205.724 249.681 283.906 240.081 366.226C282.721 363.945 342.208 339.398 342.208 339.398L350.561 304.239C350.561 304.239 300.369 293.135 277.112 292.187C283.42 263.828 296.974 198.302 282.158 181.316Z" fill="#DB7D00"/>
<path d="M402.029 437.183H235.05C235.594 421.793 236.677 399.215 238.229 383.512C267.11 391.882 344.845 410.198 400.153 384.581C401.091 397.354 401.706 426.683 402.029 437.183Z" fill="#EB5654"/>
<path d="M438.6 315.736L446.948 306.333L413.702 292.983L405.358 302.387L438.6 315.736Z" fill="white"/>
<path d="M390.96 403.828L462.434 323.31C464.019 321.525 463.485 319.347 461.243 318.448L391.058 290.268C388.817 289.369 385.712 290.084 384.127 291.874L312.652 372.387C311.067 374.172 311.602 376.346 313.848 377.25L384.028 405.425C386.27 406.329 389.375 405.613 390.96 403.828Z" fill="#008EB0"/>
<path d="M325.522 315.239C325.522 315.239 322.042 305.952 330.053 307.249C349.492 310.399 362.211 307.661 374.658 315.436C387.593 323.511 385.778 333.724 379.813 334.847C373.538 336.024 368.449 327.175 365.635 328.325C364.758 328.687 374.546 336.078 372.97 337.388C370.644 339.326 362.141 330.861 356.963 329.904C347.809 328.204 346.913 322.156 346.913 322.156C338.344 316.903 325.522 315.239 325.522 315.239Z" fill="#F7B2A5"/>
<path d="M287.412 173.934C307.799 180.783 274.285 271.111 268.038 299.215C289.077 300.074 347.406 307.227 347.406 307.227L339.85 332.315C339.85 332.315 239.073 373.93 214.484 348.568C181.908 314.962 264.202 175.593 287.412 173.934Z" fill="#ED9D22"/>
<path d="M341.566 224.795C334.016 205.365 312.752 182.984 300.047 170.793C318.933 167.326 334.55 168.923 342.936 170.39C347.579 205.585 341.566 224.795 341.566 224.795Z" fill="#DB7D00"/>
<path d="M305.403 169.93C305.403 169.93 329.781 188.536 339.925 210.904C339.925 210.904 342.463 193.367 338.795 169.746C338.795 169.746 321.691 166.57 305.403 169.93Z" fill="white"/>
<path d="M334.227 180.733C334.227 180.733 338.795 164.364 336.774 144.201C336.774 144.201 350.337 154.567 357.311 154.07C364.285 153.578 376.638 108.962 363.647 86.9068C347.458 59.4294 306.379 80.2768 308.311 98.677C310.243 117.077 321.415 119.668 312.555 169.142C314.342 172.806 322.873 179.834 334.227 180.733Z" fill="#F79885"/>
<path d="M346.308 70.824C345.22 61.6395 320.396 53.0545 301.229 72.5911C293.669 80.2948 290.39 93.604 300.689 96.7758C290.006 95.8811 258.663 147.449 269.229 166.462C281.198 188.003 315.861 192.316 322.371 187.019C339.189 173.338 327.22 116.76 327.22 116.76C327.22 116.76 317.667 110.349 322.31 105.258C326.953 100.162 332.252 109.298 332.252 109.298C354.084 101.603 359.651 88.325 358.69 84.9698L365.007 89.1929C371.352 79.7937 367.586 64.2745 346.308 70.824Z" fill="#9C2622"/>
<path d="M793.35 171.532C793.35 206.708 758.795 235.224 716.178 235.224C673.56 235.224 639.005 206.708 639.005 171.532C639.005 136.36 673.56 107.844 716.178 107.844C758.795 107.844 793.35 136.36 793.35 171.532Z" fill="#B5D6EA"/>
<path d="M610.463 171.531C610.463 201.245 581.793 225.327 546.431 225.327C511.069 225.327 482.4 201.245 482.4 171.531C482.4 141.826 511.069 117.735 546.431 117.735C581.793 117.735 610.463 141.826 610.463 171.531Z" fill="#B5D6EA"/>
<path d="M607.987 185.149C626.793 167.107 641.187 185.149 641.187 185.149V161.354C622.375 179.392 607.987 161.354 607.987 161.354V185.149Z" fill="#B5D6EA"/>
<path d="M705.728 232.695L727.025 252.84L728.503 226.481L705.728 232.695Z" fill="#B5D6EA"/>
<path d="M499.401 199.761L455.818 208.368L489.904 180.117L499.401 199.761Z" fill="#B5D6EA"/>
<path d="M531.977 148.523H521.847V143.387H531.977V148.523Z" fill="#5AA5D1"/>
<path d="M569.15 148.523H540.743V143.387H569.15V148.523Z" fill="#5AA5D1"/>
<path d="M584.109 148.523H575.25V143.387H584.109V148.523Z" fill="#5AA5D1"/>
<path d="M545.578 161.309H521.847V156.178H545.578V161.309Z" fill="#5AA5D1"/>
<path d="M584.11 161.309H552.078V156.178H584.11V161.309Z" fill="#5AA5D1"/>
<path d="M534.998 173.366H521.847V168.235H534.998V173.366Z" fill="#5AA5D1"/>
<path d="M557.514 173.366H539.988V168.235H557.514V173.366Z" fill="#5AA5D1"/>
<path d="M584.11 173.366H564.319V168.235H584.11V173.366Z" fill="#5AA5D1"/>
<path d="M540.743 186.903H521.847V181.767H540.743V186.903Z" fill="#5AA5D1"/>
<path d="M584.11 186.903H548.752V181.767H584.11V186.903Z" fill="#5AA5D1"/>
<path d="M536.813 199.693H521.847V194.557H536.813V199.693Z" fill="#5AA5D1"/>
<path d="M557.514 199.693H542.403V194.557H557.514V199.693Z" fill="#5AA5D1"/>
<path d="M584.11 199.693H564.319V194.557H584.11V199.693Z" fill="#5AA5D1"/>
<path d="M516.458 145.955C516.458 147.946 514.77 149.557 512.683 149.557C510.6 149.557 508.912 147.946 508.912 145.955C508.912 143.969 510.6 142.354 512.683 142.354C514.77 142.354 516.458 143.969 516.458 145.955Z" fill="#5AA5D1"/>
<path d="M516.458 158.746C516.458 160.732 514.77 162.347 512.683 162.347C510.6 162.347 508.912 160.732 508.912 158.746C508.912 156.759 510.6 155.144 512.683 155.144C514.77 155.144 516.458 156.759 516.458 158.746Z" fill="#5AA5D1"/>
<path d="M516.458 171.531C516.458 173.521 514.77 175.132 512.683 175.132C510.6 175.132 508.912 173.521 508.912 171.531C508.912 169.544 510.6 167.929 512.683 167.929C514.77 167.929 516.458 169.544 516.458 171.531Z" fill="#5AA5D1"/>
<path d="M516.458 184.321C516.458 186.312 514.77 187.922 512.683 187.922C510.6 187.922 508.912 186.312 508.912 184.321C508.912 182.335 510.6 180.72 512.683 180.72C514.77 180.72 516.458 182.335 516.458 184.321Z" fill="#5AA5D1"/>
<path d="M516.458 197.111C516.458 199.098 514.77 200.708 512.683 200.708C510.6 200.708 508.912 199.098 508.912 197.111C508.912 195.121 510.6 193.51 512.683 193.51C514.77 193.51 516.458 195.121 516.458 197.111Z" fill="#5AA5D1"/>
<path d="M698.995 194.566L697.869 206.318L691.312 205.75L692.438 193.993L698.995 194.566Z" fill="#5AA5D1"/>
<path d="M704.88 172.011L698.961 139.384L705.438 138.315L711.366 170.937L704.88 172.011Z" fill="#5AA5D1"/>
<path d="M717.698 196.566L707.722 200.592L705.162 194.812L715.137 190.791L717.698 196.566Z" fill="#5AA5D1"/>
<path d="M694.577 179.561L687.425 152.759L693.803 151.211L700.955 178.013L694.577 179.561Z" fill="#5AA5D1"/>
<path d="M722.513 123.632L719.442 160.857L712.88 160.365L715.957 123.139L722.513 123.632Z" fill="#5AA5D1"/>
<path d="M737.99 150.276L735.364 165.397L728.873 164.368L731.499 149.247L737.99 150.276Z" fill="#5AA5D1"/>
<path d="M755.146 178.287L755.014 157.855L761.594 157.82L761.726 178.247L755.146 178.287Z" fill="#5AA5D1"/>
<path d="M739.267 181.619L741.541 158.647L748.088 159.237L745.818 182.21L739.267 181.619Z" fill="#5AA5D1"/>
<path d="M672.257 186.608L677.745 165.219L684.137 166.709L678.645 188.098L672.257 186.608Z" fill="#5AA5D1"/>
<path d="M687.335 183.655L729.925 176.658L731.041 182.841L688.452 189.838L687.335 183.655Z" fill="#5AA5D1"/>
<path d="M725.609 187.919L743.862 186.809L744.279 193.068L726.031 194.177L725.609 187.919Z" fill="#5AA5D1"/>
<path d="M747.451 136.385L756.746 151.609L751.053 154.763L741.762 139.544L747.451 136.385Z" fill="#5AA5D1"/>
<path d="M760.985 205.897L736.898 203.741L737.517 197.491L761.604 199.652L760.985 205.897Z" fill="#5AA5D1"/>
<path d="M714.837 172.34C713.735 170.153 714.692 167.522 716.985 166.466C719.283 165.411 722.041 166.323 723.148 168.515C724.259 170.703 723.293 173.333 721 174.389C718.711 175.445 715.949 174.528 714.837 172.34Z" fill="#5AA5D1"/>
<path d="M762.055 183.788C764.55 183.301 766.984 184.826 767.505 187.211C768.02 189.591 766.412 191.917 763.917 192.409C761.422 192.901 758.978 191.371 758.467 188.991C757.951 186.607 759.555 184.281 762.055 183.788Z" fill="#5AA5D1"/>
<path d="M688.573 140.797C689.267 143.137 687.846 145.571 685.398 146.233C682.941 146.895 680.389 145.535 679.695 143.2C679.001 140.86 680.427 138.426 682.88 137.764C685.328 137.102 687.879 138.462 688.573 140.797Z" fill="#5AA5D1"/>
<path d="M714.794 208.524C714.958 206.1 717.148 204.257 719.686 204.409C722.232 204.565 724.165 206.65 724.005 209.075C723.841 211.504 721.651 213.347 719.109 213.195C716.567 213.038 714.635 210.949 714.794 208.524Z" fill="#5AA5D1"/>
<path d="M736.293 134.587C736.387 137.012 734.407 139.061 731.861 139.155C729.309 139.249 727.171 137.356 727.068 134.927C726.974 132.498 728.953 130.454 731.5 130.36C734.051 130.266 736.19 132.158 736.293 134.587Z" fill="#5AA5D1"/>
</svg>
