<svg width="2131" height="1212" viewBox="0 0 2131 1212" fill="none" xmlns="http://www.w3.org/2000/svg">
<rect x="40" y="40" width="2051" height="1132" fill="white"/>
<path d="M902.954 868H898.735L906.416 846.182H911.295L918.987 868H914.768L908.941 850.656H908.771L902.954 868ZM903.092 859.445H914.598V862.62H903.092V859.445ZM928.309 874.477C926.924 874.477 925.734 874.289 924.74 873.913C923.746 873.543 922.947 873.046 922.343 872.421C921.739 871.796 921.32 871.104 921.086 870.344L924.559 869.502C924.715 869.822 924.942 870.138 925.241 870.45C925.539 870.77 925.94 871.033 926.445 871.239C926.956 871.452 927.599 871.558 928.373 871.558C929.467 871.558 930.372 871.292 931.089 870.759C931.807 870.234 932.165 869.367 932.165 868.16V865.06H931.974C931.775 865.457 931.484 865.866 931.1 866.285C930.724 866.704 930.223 867.055 929.598 867.339C928.98 867.624 928.202 867.766 927.265 867.766C926.008 867.766 924.868 867.471 923.845 866.881C922.83 866.285 922.02 865.397 921.416 864.218C920.82 863.032 920.521 861.548 920.521 859.765C920.521 857.968 920.82 856.452 921.416 855.216C922.02 853.973 922.833 853.032 923.856 852.393C924.879 851.746 926.018 851.423 927.276 851.423C928.234 851.423 929.023 851.587 929.641 851.913C930.266 852.233 930.763 852.62 931.132 853.075C931.501 853.522 931.782 853.945 931.974 854.342H932.187V851.636H935.99V868.266C935.99 869.665 935.656 870.823 934.989 871.739C934.321 872.656 933.408 873.341 932.251 873.795C931.093 874.25 929.779 874.477 928.309 874.477ZM928.341 864.74C929.158 864.74 929.854 864.541 930.429 864.143C931.004 863.746 931.441 863.174 931.739 862.428C932.038 861.683 932.187 860.788 932.187 859.744C932.187 858.714 932.038 857.812 931.739 857.038C931.448 856.263 931.015 855.663 930.44 855.237C929.871 854.804 929.172 854.587 928.341 854.587C927.482 854.587 926.764 854.811 926.189 855.259C925.614 855.706 925.18 856.32 924.889 857.102C924.598 857.876 924.452 858.756 924.452 859.744C924.452 860.745 924.598 861.622 924.889 862.375C925.188 863.121 925.624 863.703 926.2 864.122C926.782 864.534 927.496 864.74 928.341 864.74ZM950.372 861.118V851.636H954.229V868H950.489V865.092H950.319C949.95 866.008 949.342 866.757 948.497 867.339C947.659 867.922 946.626 868.213 945.397 868.213C944.325 868.213 943.376 867.975 942.553 867.499C941.736 867.016 941.097 866.317 940.635 865.401C940.173 864.477 939.942 863.362 939.942 862.055V851.636H943.799V861.459C943.799 862.496 944.083 863.32 944.651 863.93C945.219 864.541 945.965 864.847 946.888 864.847C947.457 864.847 948.007 864.708 948.54 864.431C949.072 864.154 949.509 863.742 949.85 863.195C950.198 862.641 950.372 861.949 950.372 861.118ZM962.903 868.33C961.866 868.33 960.932 868.146 960.101 867.776C959.278 867.4 958.624 866.846 958.141 866.114C957.665 865.383 957.427 864.481 957.427 863.408C957.427 862.485 957.598 861.722 957.939 861.118C958.28 860.514 958.745 860.031 959.334 859.669C959.924 859.307 960.588 859.033 961.327 858.849C962.072 858.657 962.843 858.518 963.638 858.433C964.597 858.334 965.375 858.245 965.971 858.167C966.568 858.082 967.001 857.954 967.271 857.783C967.548 857.606 967.687 857.332 967.687 856.963V856.899C967.687 856.097 967.449 855.475 966.973 855.035C966.497 854.594 965.812 854.374 964.917 854.374C963.972 854.374 963.223 854.58 962.669 854.992C962.122 855.404 961.753 855.891 961.561 856.452L957.96 855.94C958.244 854.946 958.713 854.115 959.366 853.447C960.02 852.773 960.819 852.268 961.763 851.935C962.708 851.594 963.752 851.423 964.895 851.423C965.684 851.423 966.469 851.516 967.25 851.7C968.031 851.885 968.745 852.19 969.391 852.616C970.037 853.036 970.556 853.607 970.947 854.332C971.344 855.056 971.543 855.962 971.543 857.048V868H967.836V865.752H967.708C967.474 866.207 967.143 866.633 966.717 867.031C966.298 867.421 965.769 867.737 965.13 867.979C964.498 868.213 963.756 868.33 962.903 868.33ZM963.905 865.496C964.679 865.496 965.35 865.344 965.918 865.038C966.486 864.726 966.923 864.314 967.229 863.803C967.541 863.291 967.697 862.734 967.697 862.13V860.202C967.577 860.301 967.371 860.393 967.079 860.479C966.795 860.564 966.476 860.638 966.121 860.702C965.765 860.766 965.414 860.823 965.066 860.873C964.718 860.923 964.416 860.965 964.16 861.001C963.585 861.079 963.07 861.207 962.616 861.384C962.161 861.562 961.802 861.81 961.54 862.13C961.277 862.442 961.145 862.847 961.145 863.344C961.145 864.055 961.405 864.591 961.923 864.953C962.442 865.315 963.102 865.496 963.905 865.496ZM975.421 868V851.636H979.16V854.364H979.331C979.629 853.419 980.14 852.691 980.865 852.18C981.596 851.661 982.431 851.402 983.368 851.402C983.581 851.402 983.819 851.413 984.082 851.434C984.352 851.448 984.576 851.473 984.753 851.509V855.056C984.59 854.999 984.331 854.95 983.976 854.907C983.628 854.857 983.29 854.832 982.964 854.832C982.26 854.832 981.628 854.985 981.067 855.29C980.513 855.589 980.077 856.004 979.757 856.537C979.437 857.07 979.278 857.684 979.278 858.38V868H975.421ZM992.714 868.288C991.429 868.288 990.278 867.957 989.262 867.297C988.247 866.636 987.444 865.678 986.855 864.42C986.265 863.163 985.971 861.636 985.971 859.839C985.971 858.021 986.269 856.487 986.865 855.237C987.469 853.98 988.282 853.032 989.305 852.393C990.328 851.746 991.468 851.423 992.725 851.423C993.684 851.423 994.472 851.587 995.09 851.913C995.708 852.233 996.198 852.62 996.56 853.075C996.922 853.522 997.203 853.945 997.402 854.342H997.561V846.182H1001.43V868H997.636V865.422H997.402C997.203 865.82 996.915 866.242 996.539 866.69C996.162 867.13 995.665 867.506 995.047 867.819C994.429 868.131 993.652 868.288 992.714 868.288ZM993.79 865.124C994.607 865.124 995.303 864.903 995.878 864.463C996.453 864.016 996.89 863.394 997.189 862.599C997.487 861.803 997.636 860.876 997.636 859.818C997.636 858.76 997.487 857.84 997.189 857.059C996.897 856.278 996.464 855.67 995.889 855.237C995.321 854.804 994.621 854.587 993.79 854.587C992.931 854.587 992.213 854.811 991.638 855.259C991.063 855.706 990.63 856.324 990.338 857.112C990.047 857.901 989.902 858.803 989.902 859.818C989.902 860.841 990.047 861.754 990.338 862.556C990.637 863.352 991.074 863.98 991.649 864.442C992.231 864.896 992.945 865.124 993.79 865.124ZM1010.25 868.33C1009.21 868.33 1008.28 868.146 1007.45 867.776C1006.62 867.4 1005.97 866.846 1005.48 866.114C1005.01 865.383 1004.77 864.481 1004.77 863.408C1004.77 862.485 1004.94 861.722 1005.28 861.118C1005.62 860.514 1006.09 860.031 1006.68 859.669C1007.27 859.307 1007.93 859.033 1008.67 858.849C1009.42 858.657 1010.19 858.518 1010.98 858.433C1011.94 858.334 1012.72 858.245 1013.32 858.167C1013.91 858.082 1014.34 857.954 1014.61 857.783C1014.89 857.606 1015.03 857.332 1015.03 856.963V856.899C1015.03 856.097 1014.79 855.475 1014.32 855.035C1013.84 854.594 1013.16 854.374 1012.26 854.374C1011.32 854.374 1010.57 854.58 1010.01 854.992C1009.47 855.404 1009.1 855.891 1008.9 856.452L1005.3 855.94C1005.59 854.946 1006.06 854.115 1006.71 853.447C1007.36 852.773 1008.16 852.268 1009.11 851.935C1010.05 851.594 1011.1 851.423 1012.24 851.423C1013.03 851.423 1013.81 851.516 1014.59 851.7C1015.37 851.885 1016.09 852.19 1016.73 852.616C1017.38 853.036 1017.9 853.607 1018.29 854.332C1018.69 855.056 1018.89 855.962 1018.89 857.048V868H1015.18V865.752H1015.05C1014.82 866.207 1014.49 866.633 1014.06 867.031C1013.64 867.421 1013.11 867.737 1012.47 867.979C1011.84 868.213 1011.1 868.33 1010.25 868.33ZM1011.25 865.496C1012.02 865.496 1012.69 865.344 1013.26 865.038C1013.83 864.726 1014.27 864.314 1014.57 863.803C1014.88 863.291 1015.04 862.734 1015.04 862.13V860.202C1014.92 860.301 1014.71 860.393 1014.42 860.479C1014.14 860.564 1013.82 860.638 1013.46 860.702C1013.11 860.766 1012.76 860.823 1012.41 860.873C1012.06 860.923 1011.76 860.965 1011.5 861.001C1010.93 861.079 1010.41 861.207 1009.96 861.384C1009.5 861.562 1009.15 861.81 1008.88 862.13C1008.62 862.442 1008.49 862.847 1008.49 863.344C1008.49 864.055 1008.75 864.591 1009.27 864.953C1009.79 865.315 1010.45 865.496 1011.25 865.496ZM1026.62 858.412V868H1022.76V851.636H1026.45V854.417H1026.64C1027.02 853.501 1027.62 852.773 1028.44 852.233C1029.27 851.693 1030.3 851.423 1031.52 851.423C1032.65 851.423 1033.63 851.665 1034.47 852.148C1035.32 852.631 1035.97 853.33 1036.43 854.246C1036.9 855.163 1037.13 856.274 1037.13 857.581V868H1033.27V858.178C1033.27 857.084 1032.98 856.228 1032.42 855.61C1031.86 854.992 1031.08 854.683 1030.08 854.683C1029.41 854.683 1028.81 854.832 1028.28 855.131C1027.76 855.422 1027.36 855.844 1027.06 856.398C1026.77 856.952 1026.62 857.624 1026.62 858.412ZM1047.12 868.288C1045.83 868.288 1044.68 867.957 1043.67 867.297C1042.65 866.636 1041.85 865.678 1041.26 864.42C1040.67 863.163 1040.37 861.636 1040.37 859.839C1040.37 858.021 1040.67 856.487 1041.27 855.237C1041.87 853.98 1042.69 853.032 1043.71 852.393C1044.73 851.746 1045.87 851.423 1047.13 851.423C1048.09 851.423 1048.88 851.587 1049.49 851.913C1050.11 852.233 1050.6 852.62 1050.96 853.075C1051.33 853.522 1051.61 853.945 1051.81 854.342H1051.97V846.182H1055.83V868H1052.04V865.422H1051.81C1051.61 865.82 1051.32 866.242 1050.94 866.69C1050.57 867.13 1050.07 867.506 1049.45 867.819C1048.83 868.131 1048.06 868.288 1047.12 868.288ZM1048.19 865.124C1049.01 865.124 1049.71 864.903 1050.28 864.463C1050.86 864.016 1051.29 863.394 1051.59 862.599C1051.89 861.803 1052.04 860.876 1052.04 859.818C1052.04 858.76 1051.89 857.84 1051.59 857.059C1051.3 856.278 1050.87 855.67 1050.29 855.237C1049.72 854.804 1049.03 854.587 1048.19 854.587C1047.34 854.587 1046.62 854.811 1046.04 855.259C1045.47 855.706 1045.03 856.324 1044.74 857.112C1044.45 857.901 1044.31 858.803 1044.31 859.818C1044.31 860.841 1044.45 861.754 1044.74 862.556C1045.04 863.352 1045.48 863.98 1046.05 864.442C1046.64 864.896 1047.35 865.124 1048.19 865.124ZM1067.08 868.32C1065.48 868.32 1064.1 867.968 1062.93 867.265C1061.75 866.562 1060.84 865.578 1060.2 864.314C1059.56 863.05 1059.24 861.572 1059.24 859.882C1059.24 858.192 1059.56 856.711 1060.2 855.44C1060.84 854.168 1061.75 853.181 1062.93 852.478C1064.1 851.775 1065.48 851.423 1067.08 851.423C1068.68 851.423 1070.06 851.775 1071.24 852.478C1072.41 853.181 1073.31 854.168 1073.95 855.44C1074.6 856.711 1074.92 858.192 1074.92 859.882C1074.92 861.572 1074.6 863.05 1073.95 864.314C1073.31 865.578 1072.41 866.562 1071.24 867.265C1070.06 867.968 1068.68 868.32 1067.08 868.32ZM1067.1 865.23C1067.97 865.23 1068.69 864.992 1069.27 864.516C1069.86 864.033 1070.29 863.387 1070.57 862.577C1070.87 861.768 1071.01 860.866 1071.01 859.871C1071.01 858.87 1070.87 857.964 1070.57 857.155C1070.29 856.338 1069.86 855.688 1069.27 855.205C1068.69 854.722 1067.97 854.481 1067.1 854.481C1066.21 854.481 1065.48 854.722 1064.89 855.205C1064.3 855.688 1063.87 856.338 1063.58 857.155C1063.29 857.964 1063.15 858.87 1063.15 859.871C1063.15 860.866 1063.29 861.768 1063.58 862.577C1063.87 863.387 1064.3 864.033 1064.89 864.516C1065.48 864.992 1066.21 865.23 1067.1 865.23ZM1085.64 868V851.636H1089.38V854.364H1089.55C1089.84 853.419 1090.36 852.691 1091.08 852.18C1091.81 851.661 1092.65 851.402 1093.58 851.402C1093.8 851.402 1094.03 851.413 1094.3 851.434C1094.57 851.448 1094.79 851.473 1094.97 851.509V855.056C1094.8 854.999 1094.55 854.95 1094.19 854.907C1093.84 854.857 1093.51 854.832 1093.18 854.832C1092.48 854.832 1091.84 854.985 1091.28 855.29C1090.73 855.589 1090.29 856.004 1089.97 856.537C1089.65 857.07 1089.49 857.684 1089.49 858.38V868H1085.64ZM1104.1 868.32C1102.46 868.32 1101.04 867.979 1099.85 867.297C1098.66 866.608 1097.75 865.635 1097.11 864.378C1096.47 863.114 1096.15 861.626 1096.15 859.914C1096.15 858.231 1096.47 856.754 1097.11 855.482C1097.76 854.204 1098.66 853.21 1099.82 852.499C1100.98 851.782 1102.34 851.423 1103.9 851.423C1104.91 851.423 1105.86 851.587 1106.75 851.913C1107.66 852.233 1108.45 852.73 1109.14 853.405C1109.84 854.08 1110.38 854.939 1110.78 855.983C1111.18 857.02 1111.38 858.256 1111.38 859.69V860.873H1097.96V858.273H1107.68C1107.67 857.535 1107.51 856.878 1107.2 856.303C1106.89 855.72 1106.45 855.262 1105.89 854.928C1105.34 854.594 1104.69 854.428 1103.95 854.428C1103.16 854.428 1102.47 854.619 1101.87 855.003C1101.28 855.379 1100.81 855.876 1100.48 856.494C1100.15 857.105 1099.99 857.776 1099.98 858.508V860.777C1099.98 861.729 1100.15 862.545 1100.5 863.227C1100.85 863.902 1101.33 864.42 1101.96 864.783C1102.58 865.138 1103.32 865.315 1104.15 865.315C1104.72 865.315 1105.22 865.237 1105.68 865.081C1106.13 864.918 1106.53 864.68 1106.86 864.367C1107.19 864.055 1107.45 863.668 1107.62 863.206L1111.22 863.611C1110.99 864.562 1110.56 865.393 1109.92 866.104C1109.29 866.807 1108.48 867.354 1107.49 867.744C1106.5 868.128 1105.37 868.32 1104.1 868.32ZM1127.57 855.962L1124.06 856.345C1123.96 855.99 1123.78 855.656 1123.54 855.344C1123.29 855.031 1122.97 854.779 1122.56 854.587C1122.14 854.396 1121.64 854.3 1121.04 854.3C1120.24 854.3 1119.57 854.474 1119.02 854.822C1118.48 855.17 1118.21 855.621 1118.22 856.175C1118.21 856.651 1118.39 857.038 1118.74 857.336C1119.1 857.634 1119.7 857.879 1120.53 858.071L1123.32 858.668C1124.87 859.001 1126.02 859.531 1126.77 860.255C1127.53 860.979 1127.92 861.928 1127.92 863.099C1127.92 864.129 1127.62 865.038 1127.02 865.827C1126.43 866.608 1125.61 867.219 1124.56 867.659C1123.51 868.099 1122.3 868.32 1120.94 868.32C1118.93 868.32 1117.32 867.901 1116.1 867.062C1114.88 866.217 1114.15 865.042 1113.92 863.536L1117.68 863.174C1117.85 863.913 1118.21 864.47 1118.76 864.847C1119.32 865.223 1120.04 865.411 1120.93 865.411C1121.84 865.411 1122.58 865.223 1123.13 864.847C1123.69 864.47 1123.97 864.005 1123.97 863.451C1123.97 862.982 1123.79 862.595 1123.43 862.29C1123.07 861.984 1122.52 861.75 1121.77 861.587L1118.98 861.001C1117.41 860.674 1116.24 860.124 1115.49 859.349C1114.74 858.568 1114.37 857.581 1114.37 856.388C1114.37 855.379 1114.64 854.506 1115.19 853.767C1115.75 853.021 1116.53 852.446 1117.53 852.041C1118.53 851.629 1119.68 851.423 1120.99 851.423C1122.91 851.423 1124.42 851.832 1125.52 852.648C1126.62 853.465 1127.31 854.57 1127.57 855.962ZM1131.1 874.136V851.636H1134.9V854.342H1135.12C1135.32 853.945 1135.6 853.522 1135.96 853.075C1136.32 852.62 1136.81 852.233 1137.43 851.913C1138.05 851.587 1138.84 851.423 1139.8 851.423C1141.06 851.423 1142.2 851.746 1143.22 852.393C1144.24 853.032 1145.05 853.98 1145.65 855.237C1146.25 856.487 1146.55 858.021 1146.55 859.839C1146.55 861.636 1146.26 863.163 1145.67 864.42C1145.08 865.678 1144.28 866.636 1143.26 867.297C1142.24 867.957 1141.09 868.288 1139.81 868.288C1138.87 868.288 1138.09 868.131 1137.48 867.819C1136.86 867.506 1136.36 867.13 1135.98 866.69C1135.61 866.242 1135.33 865.82 1135.12 865.422H1134.96V874.136H1131.1ZM1134.89 859.818C1134.89 860.876 1135.04 861.803 1135.33 862.599C1135.64 863.394 1136.08 864.016 1136.64 864.463C1137.22 864.903 1137.92 865.124 1138.73 865.124C1139.58 865.124 1140.3 864.896 1140.87 864.442C1141.45 863.98 1141.88 863.352 1142.17 862.556C1142.47 861.754 1142.62 860.841 1142.62 859.818C1142.62 858.803 1142.48 857.901 1142.18 857.112C1141.89 856.324 1141.46 855.706 1140.88 855.259C1140.31 854.811 1139.59 854.587 1138.73 854.587C1137.91 854.587 1137.21 854.804 1136.63 855.237C1136.06 855.67 1135.62 856.278 1135.32 857.059C1135.03 857.84 1134.89 858.76 1134.89 859.818ZM1156.99 868.32C1155.39 868.32 1154.01 867.968 1152.84 867.265C1151.67 866.562 1150.76 865.578 1150.11 864.314C1149.47 863.05 1149.15 861.572 1149.15 859.882C1149.15 858.192 1149.47 856.711 1150.11 855.44C1150.76 854.168 1151.67 853.181 1152.84 852.478C1154.01 851.775 1155.39 851.423 1156.99 851.423C1158.59 851.423 1159.98 851.775 1161.15 852.478C1162.32 853.181 1163.22 854.168 1163.86 855.44C1164.51 856.711 1164.83 858.192 1164.83 859.882C1164.83 861.572 1164.51 863.05 1163.86 864.314C1163.22 865.578 1162.32 866.562 1161.15 867.265C1159.98 867.968 1158.59 868.32 1156.99 868.32ZM1157.01 865.23C1157.88 865.23 1158.6 864.992 1159.19 864.516C1159.77 864.033 1160.2 863.387 1160.49 862.577C1160.78 861.768 1160.92 860.866 1160.92 859.871C1160.92 858.87 1160.78 857.964 1160.49 857.155C1160.2 856.338 1159.77 855.688 1159.19 855.205C1158.6 854.722 1157.88 854.481 1157.01 854.481C1156.13 854.481 1155.39 854.722 1154.8 855.205C1154.22 855.688 1153.78 856.338 1153.49 857.155C1153.2 857.964 1153.06 858.87 1153.06 859.871C1153.06 860.866 1153.2 861.768 1153.49 862.577C1153.78 863.387 1154.22 864.033 1154.8 864.516C1155.39 864.992 1156.13 865.23 1157.01 865.23ZM1181.04 855.962L1177.52 856.345C1177.42 855.99 1177.25 855.656 1177 855.344C1176.76 855.031 1176.43 854.779 1176.02 854.587C1175.61 854.396 1175.11 854.3 1174.51 854.3C1173.71 854.3 1173.03 854.474 1172.49 854.822C1171.95 855.17 1171.68 855.621 1171.69 856.175C1171.68 856.651 1171.85 857.038 1172.21 857.336C1172.57 857.634 1173.17 857.879 1174 858.071L1176.79 858.668C1178.34 859.001 1179.49 859.531 1180.24 860.255C1181 860.979 1181.38 861.928 1181.39 863.099C1181.38 864.129 1181.08 865.038 1180.49 865.827C1179.9 866.608 1179.08 867.219 1178.02 867.659C1176.97 868.099 1175.77 868.32 1174.4 868.32C1172.4 868.32 1170.79 867.901 1169.57 867.062C1168.34 866.217 1167.62 865.042 1167.38 863.536L1171.14 863.174C1171.31 863.913 1171.68 864.47 1172.23 864.847C1172.78 865.223 1173.5 865.411 1174.39 865.411C1175.31 865.411 1176.04 865.223 1176.6 864.847C1177.16 864.47 1177.44 864.005 1177.44 863.451C1177.44 862.982 1177.26 862.595 1176.9 862.29C1176.54 861.984 1175.99 861.75 1175.23 861.587L1172.44 861.001C1170.87 860.674 1169.71 860.124 1168.96 859.349C1168.21 858.568 1167.83 857.581 1167.84 856.388C1167.83 855.379 1168.11 854.506 1168.66 853.767C1169.22 853.021 1170 852.446 1170.99 852.041C1172 851.629 1173.15 851.423 1174.46 851.423C1176.37 851.423 1177.88 851.832 1178.98 852.648C1180.09 853.465 1180.78 854.57 1181.04 855.962ZM1192.74 851.636V854.619H1183.34V851.636H1192.74ZM1185.66 847.716H1189.51V863.078C1189.51 863.597 1189.59 863.994 1189.75 864.271C1189.91 864.541 1190.13 864.726 1190.39 864.825C1190.65 864.925 1190.94 864.974 1191.26 864.974C1191.5 864.974 1191.72 864.957 1191.92 864.921C1192.13 864.886 1192.28 864.854 1192.39 864.825L1193.04 867.84C1192.83 867.911 1192.54 867.989 1192.16 868.075C1191.78 868.16 1191.32 868.21 1190.77 868.224C1189.81 868.252 1188.94 868.107 1188.16 867.787C1187.39 867.46 1186.77 866.956 1186.32 866.274C1185.87 865.592 1185.65 864.74 1185.66 863.717V847.716ZM1200.68 868.33C1199.64 868.33 1198.71 868.146 1197.87 867.776C1197.05 867.4 1196.4 866.846 1195.91 866.114C1195.44 865.383 1195.2 864.481 1195.2 863.408C1195.2 862.485 1195.37 861.722 1195.71 861.118C1196.05 860.514 1196.52 860.031 1197.11 859.669C1197.7 859.307 1198.36 859.033 1199.1 858.849C1199.85 858.657 1200.62 858.518 1201.41 858.433C1202.37 858.334 1203.15 858.245 1203.74 858.167C1204.34 858.082 1204.77 857.954 1205.04 857.783C1205.32 857.606 1205.46 857.332 1205.46 856.963V856.899C1205.46 856.097 1205.22 855.475 1204.75 855.035C1204.27 854.594 1203.59 854.374 1202.69 854.374C1201.75 854.374 1201 854.58 1200.44 854.992C1199.9 855.404 1199.53 855.891 1199.33 856.452L1195.73 855.94C1196.02 854.946 1196.49 854.115 1197.14 853.447C1197.79 852.773 1198.59 852.268 1199.54 851.935C1200.48 851.594 1201.53 851.423 1202.67 851.423C1203.46 851.423 1204.24 851.516 1205.02 851.7C1205.8 851.885 1206.52 852.19 1207.16 852.616C1207.81 853.036 1208.33 853.607 1208.72 854.332C1209.12 855.056 1209.32 855.962 1209.32 857.048V868H1205.61V865.752H1205.48C1205.25 866.207 1204.92 866.633 1204.49 867.031C1204.07 867.421 1203.54 867.737 1202.9 867.979C1202.27 868.213 1201.53 868.33 1200.68 868.33ZM1201.68 865.496C1202.45 865.496 1203.12 865.344 1203.69 865.038C1204.26 864.726 1204.7 864.314 1205 863.803C1205.31 863.291 1205.47 862.734 1205.47 862.13V860.202C1205.35 860.301 1205.14 860.393 1204.85 860.479C1204.57 860.564 1204.25 860.638 1203.89 860.702C1203.54 860.766 1203.19 860.823 1202.84 860.873C1202.49 860.923 1202.19 860.965 1201.93 861.001C1201.36 861.079 1200.84 861.207 1200.39 861.384C1199.93 861.562 1199.58 861.81 1199.31 862.13C1199.05 862.442 1198.92 862.847 1198.92 863.344C1198.92 864.055 1199.18 864.591 1199.7 864.953C1200.22 865.315 1200.88 865.496 1201.68 865.496ZM1215.57 868.234C1214.92 868.234 1214.37 868.007 1213.91 867.553C1213.45 867.098 1213.22 866.544 1213.23 865.891C1213.22 865.251 1213.45 864.705 1213.91 864.25C1214.37 863.795 1214.92 863.568 1215.57 863.568C1216.2 863.568 1216.74 863.795 1217.2 864.25C1217.67 864.705 1217.91 865.251 1217.91 865.891C1217.91 866.324 1217.79 866.718 1217.57 867.073C1217.36 867.428 1217.08 867.712 1216.72 867.925C1216.37 868.131 1215.99 868.234 1215.57 868.234ZM1224.27 868.234C1223.63 868.234 1223.07 868.007 1222.61 867.553C1222.15 867.098 1221.92 866.544 1221.93 865.891C1221.92 865.251 1222.15 864.705 1222.61 864.25C1223.07 863.795 1223.63 863.568 1224.27 863.568C1224.9 863.568 1225.44 863.795 1225.9 864.25C1226.37 864.705 1226.61 865.251 1226.62 865.891C1226.61 866.324 1226.49 866.718 1226.27 867.073C1226.06 867.428 1225.78 867.712 1225.42 867.925C1225.07 868.131 1224.69 868.234 1224.27 868.234ZM1232.97 868.234C1232.33 868.234 1231.77 868.007 1231.31 867.553C1230.85 867.098 1230.62 866.544 1230.63 865.891C1230.62 865.251 1230.85 864.705 1231.31 864.25C1231.77 863.795 1232.33 863.568 1232.97 863.568C1233.6 863.568 1234.14 863.795 1234.6 864.25C1235.07 864.705 1235.31 865.251 1235.32 865.891C1235.31 866.324 1235.2 866.718 1234.98 867.073C1234.76 867.428 1234.48 867.712 1234.12 867.925C1233.78 868.131 1233.39 868.234 1232.97 868.234Z" fill="#5A7DA0"/>
<path d="M1321.47 592.218C1317.95 686.192 1253.5 760.17 1175.27 760.17H847.381C800.974 760.17 769.092 703.871 786.271 652.043C809.172 581.23 883.793 633.63 849.603 574.079C816.463 516.342 796.731 445.885 825.012 411.947C890.479 333.391 967.76 437.578 1010.24 422.484C1023.79 417.338 1077.58 376.659 1098.5 369.371C1231.81 311.63 1332.91 448.28 1321.47 592.218Z" fill="#E3F0FF"/>
<path d="M808.469 569.33C812.092 560.757 780.037 517.066 765.315 528.204C750.594 539.341 749.064 561.942 771.015 570.146C791.763 577.898 804.849 577.902 808.469 569.33Z" fill="#E3F0FF"/>
<path d="M1131.55 579.921L1104.4 573.516C1103.79 573.371 1103.2 573.81 1103.08 574.498C1102.95 575.182 1103.34 575.853 1103.94 575.994L1130.46 582.254L1138.35 608.651C1138.55 609.314 1139.19 609.67 1139.77 609.447C1140.1 609.318 1140.35 609.041 1140.46 608.701C1140.55 608.436 1140.56 608.133 1140.48 607.839L1132.38 580.758C1132.25 580.332 1131.94 580.017 1131.55 579.921Z" fill="#C7DEFF"/>
<path d="M1155.29 554.109L1137.14 577.792C1136.88 578.132 1136.8 578.6 1136.92 579.027L1145.02 606.107C1145.22 606.77 1145.86 607.126 1146.44 606.903C1146.77 606.778 1147.02 606.497 1147.13 606.157C1147.22 605.892 1147.23 605.589 1147.15 605.295L1139.26 578.902L1156.98 555.766C1157.39 555.236 1157.34 554.44 1156.87 553.98C1156.4 553.525 1155.69 553.583 1155.29 554.109Z" fill="#C7DEFF"/>
<path d="M1157.42 561.256L1143.54 579.374C1143.13 579.904 1143.18 580.704 1143.65 581.16C1144.12 581.62 1144.83 581.562 1145.23 581.031L1159.12 562.913C1159.2 562.801 1159.27 562.673 1159.31 562.54C1159.48 562.056 1159.37 561.488 1159 561.128C1158.53 560.672 1157.82 560.726 1157.42 561.256Z" fill="#C7DEFF"/>
<path d="M987.777 688.534C987.777 688.534 858.992 300.784 766.711 400.505C749.051 425.638 769.752 468.579 807.778 518.377C845.803 568.171 956.408 697.62 972.08 718.159L987.777 688.534Z" fill="#5A789F"/>
<path d="M987.776 688.534C987.776 688.534 908.075 448.575 829.144 394.75C830.89 399.887 831.961 405.435 830.277 408.957C826.419 417.028 809.02 420.728 804.047 434.119C799.792 445.584 806.552 489.838 791.287 495.556C796.304 502.968 801.828 510.588 807.777 518.377C845.802 568.171 956.407 697.62 972.079 718.158L987.776 688.534Z" fill="#5A789F"/>
<path d="M781.554 403.641C790.514 411.791 799.093 420.479 807.518 429.325C856.638 481.477 900.158 540.689 935.14 605.846C941.866 618.454 948.428 631.684 954.373 644.789C956.874 650.25 959.665 656.73 962.013 662.282C963.531 665.961 965.68 671.236 967.122 674.956L968.116 677.5L969.08 680.065L970.045 682.625L971.002 685.19C959.519 658.487 946.741 632.562 932.727 607.528C918.731 582.478 903.602 558.265 887.574 534.826C863.515 499.678 837.497 466.217 809.876 434.567C800.663 424.039 791.252 413.597 781.554 403.641Z" fill="#5AA5D1"/>
<path d="M795.036 587.81C795.036 587.81 770.199 576.362 753.383 598.798C739.203 617.721 761.965 669.089 785.471 693.953C785.471 693.953 762.412 710.269 761.631 729.068C760.85 747.861 787.987 767.7 826.398 773.31L830.278 613.909L795.036 587.81Z" fill="#5A789F"/>
<path d="M792.209 586.761C794.53 602.046 796.221 625.774 799.805 651.587C805.434 692.15 818.326 751.03 774.425 752.364C785.886 762.122 804.268 770.077 826.398 773.308L830.279 613.908L795.037 587.809C795.037 587.809 793.999 587.329 792.209 586.761Z" fill="#5A789F"/>
<path d="M765.2 601.905C783.659 623.21 801.458 645.36 818.986 667.643C824.076 674.085 829.486 680.802 834.434 687.365C843.951 700.089 853.146 713.235 861.739 726.776C862.187 727.497 862.638 728.209 863.081 728.934L862.803 729.195C849.915 714.114 837.459 698.162 825.598 682.045C821.854 676.874 817.515 670.957 813.708 665.844C801.693 649.802 789.549 633.75 777.296 617.944C773.203 612.665 769.095 607.399 764.939 602.187L765.2 601.905Z" fill="#5AA5D1"/>
<path d="M777.106 728.864C786.517 729.577 796.013 729.08 805.347 727.626C809.994 726.888 814.604 725.923 819.119 724.489C822.852 723.296 826.509 721.833 830.162 720.371C834.174 718.755 838.124 716.932 841.968 714.848C844.462 713.493 846.857 712.039 849.3 710.535L849.523 710.854C848.317 712.341 846.952 713.77 845.57 715.047C839.459 720.64 832.19 724.642 824.572 726.809C812.154 730.261 799.269 731.429 786.524 730.451C783.352 730.203 780.194 729.851 777.058 729.266L777.106 728.864Z" fill="#5AA5D1"/>
<mask id="mask0_0_1" style="mask-type:luminance" maskUnits="userSpaceOnUse" x="815" y="424" width="182" height="352">
<path d="M815.206 424.51H996.416V775.762H815.206V424.51Z" fill="white"/>
</mask>
<g mask="url(#mask0_0_1)">
<path d="M981.945 775.717H829.782C822.106 775.717 815.882 768.69 815.882 760.018V440.782C815.882 432.11 822.106 425.079 829.782 425.079H981.945C989.625 425.079 995.849 432.11 995.849 440.782V760.018C995.849 768.69 989.625 775.717 981.945 775.717Z" fill="#303C72"/>
</g>
<path d="M976.686 766.531H835.046C828.671 766.531 823.504 760.693 823.504 753.496V447.299C823.504 440.102 828.671 434.268 835.046 434.268H976.686C983.06 434.268 988.224 440.102 988.224 447.299V753.496C988.224 760.693 983.06 766.531 976.686 766.531Z" fill="#D4EBFF"/>
<path d="M976.686 434.268H835.046C828.671 434.268 823.504 440.102 823.504 447.299V463.317H988.224V447.299C988.224 440.102 983.06 434.268 976.686 434.268Z" fill="#8CCBFF"/>
<path d="M939.535 590.16C939.535 590.16 955.948 577.274 968.785 601.417C981.625 625.564 995.793 673.485 999.802 688.381C1003.81 703.272 988.384 711.181 978.845 699.816C969.302 688.451 945.594 636.879 940.17 624.193C934.745 611.506 931.437 597.332 939.535 590.16Z" fill="#9E5959"/>
<path d="M982.862 680.113L996.069 675.249C994.818 671.027 991.767 661.171 991.767 661.171C991.767 661.171 984.439 671.727 982.862 680.113Z" fill="#914D4D"/>
<path d="M967.48 681.186C967.418 676.247 967.377 668.392 967.568 660.412C967.88 647.273 966.046 617.616 966.046 617.616L950.605 647.157C955.769 658.15 961.931 670.799 967.48 681.186Z" fill="#914D4D"/>
<path d="M941.708 586.724C941.708 586.724 927.735 593.652 934.744 614.327C941.753 635.006 964.261 678.005 970.998 691.073C977.736 704.141 987.381 710.352 994.724 705.951C1002.07 701.547 1002.48 693.886 999.558 682.14C996.628 670.398 977.442 616.626 972.612 605.634C967.778 594.646 955.477 578.309 941.708 586.724Z" fill="white"/>
<path d="M990.465 654.075C986.185 660.418 980.808 675.917 980.808 675.917L995.46 668.799C994.008 664.399 992.295 659.357 990.465 654.075Z" fill="#D4EBFF"/>
<path d="M970.931 690.938C971.07 681.553 971.301 660.555 970.854 648.734C970.27 633.185 967.604 614.328 967.604 614.328L957.027 663.725C962.843 675.359 968.165 685.576 970.931 690.938Z" fill="#D4EBFF"/>
<path d="M1031.36 620.848C1031.36 620.848 1042.57 625.575 1048.6 640.955L1043.2 645.968L1028.11 628.716L1031.36 620.848Z" fill="#ABD3FC"/>
<path d="M985.69 704.448C990.788 706.441 996.451 704.668 1000.07 700.152C1009.9 687.9 1042.26 647.13 1048.94 633.49C1056.83 617.36 1046.46 615.028 1036.81 625.034C1027.17 635.04 1011.39 650.192 1004.03 657.173C992.061 668.542 980.383 677.007 976.635 685.617C974.009 691.641 978.058 701.465 985.69 704.448Z" fill="#9E5959"/>
<path d="M1039.65 648.36C1034.62 655.122 1024.89 642.335 1028.24 636.05C1028.29 635.951 1038.26 621.971 1039.6 616.713C1041.02 611.174 1040.33 608.489 1045.37 603.575C1049.67 599.399 1052.54 596.56 1054.7 596.95C1056.99 597.364 1055.01 600.816 1052.68 603.136C1050.17 605.651 1046.37 613.067 1049.96 612.864C1052.82 612.699 1062 610.544 1064.77 609.144C1069.29 606.861 1080.6 594.48 1083.26 601.01C1083.26 601.01 1086.19 600.459 1085.99 604.288C1085.99 604.288 1089.54 605.568 1086.32 610.295C1086.32 610.295 1088.38 612.409 1086.32 615.127C1084.92 616.97 1078.81 623.26 1074.75 626.802C1070.7 630.345 1054.29 632.657 1048.49 636.618C1046.64 637.881 1040.79 646.814 1039.65 648.36Z" fill="#F6AF9A"/>
<path d="M1048.5 611.638C1048.76 615.574 1049.93 618.764 1048.78 622.717C1051.63 619.597 1049.12 614.961 1048.5 611.638Z" fill="#E57E73"/>
<path d="M1086.31 610.296C1084.62 609.985 1083.31 611.547 1082.09 612.599C1078.27 615.847 1074.68 619.58 1070.68 622.452C1075.43 621.163 1078.62 616.233 1082.35 612.955C1083.43 611.717 1084.9 610.333 1086.31 610.296Z" fill="#E57E73"/>
<path d="M1085.99 604.288C1082.41 604.653 1079.82 607.851 1077.04 610.08C1074.22 612.268 1071.72 615.499 1068.89 617.277C1070.65 617.041 1072.16 615.723 1073.49 614.468C1077.55 611.083 1081.17 605.759 1085.99 604.288Z" fill="#E57E73"/>
<path d="M1083.26 601.011C1076.76 602.092 1072.5 608.862 1067.12 612.396C1073.32 610.594 1077.01 602.395 1083.26 601.011Z" fill="#E57E73"/>
<path d="M1068.19 623.812C1061.35 621.335 1052.16 619.677 1046.2 625.225C1052.75 620.883 1061.04 622.631 1068.19 623.812Z" fill="#EA9A88"/>
<path d="M1066.68 612.19C1067.92 613.404 1068.32 615.281 1068.71 617.008C1069.95 618.326 1070.19 620.472 1070.5 622.287C1071.13 622.809 1071.15 623.84 1071.16 624.644C1070.98 623.824 1070.72 622.941 1070.08 622.531C1069.56 620.924 1069.23 618.802 1068.12 617.617C1067.43 616.084 1067.47 613.913 1066.33 612.583C1065.97 611.742 1065.75 610.748 1065.13 610.06C1065.85 610.533 1066.32 611.357 1066.68 612.19Z" fill="#EA9A88"/>
<path d="M1031.36 620.848C1031.36 620.848 1035.69 636.82 1048.6 640.955C1048.6 640.955 1012.01 692.233 1002.48 701.162C992.966 710.095 978.663 706.067 973.587 692.892C968.698 680.201 1031.36 620.848 1031.36 620.848Z" fill="white"/>
<path d="M924.943 734.317C908.967 740.241 902.49 753.753 900.553 766.531H961.685C960.405 758.257 958.964 752.017 957.354 748.797C947.249 728.574 924.943 734.317 924.943 734.317Z" fill="#F6AF9A"/>
<path d="M925.475 725.409C906.892 729.61 897.418 743.875 896.791 766.531H966.303C966.197 765.673 966.091 764.84 965.984 764.032C960.817 725.061 925.475 725.409 925.475 725.409Z" fill="#384682"/>
<path d="M879.168 676.513C881.413 705.202 874.62 722.541 871.712 739.985C870.179 749.187 869.768 758.273 870.832 766.531H953.317C958.385 753.255 957.494 740.175 957.659 733.098C957.942 721.186 958.792 701.294 958.792 701.294C961.796 648.687 876.927 647.821 879.168 676.513Z" fill="#F6AF9A"/>
<path d="M873.736 724.384C873.736 724.384 865.752 746.679 868.7 766.53H954.769C959.452 748.494 959.104 725.408 959.104 725.408C948.134 727.405 873.736 724.384 873.736 724.384Z" fill="#384682"/>
<path d="M867.815 766.53H928.581C928.295 734.332 904.693 732.17 904.693 732.17C886.15 729.965 872.404 736.313 867.815 766.53Z" fill="#F6AF9A"/>
<path d="M864.68 766.456C864.676 766.481 864.676 766.505 864.672 766.53H935.08C934.691 743.477 921.66 728.582 899.87 725.441C899.87 725.441 868.699 722.765 864.68 766.456Z" fill="#384682"/>
<path d="M896.634 576.035C911.455 573.226 923.283 575.522 937.234 580.137C946.569 583.224 956.57 586.199 961.089 593.334C969.022 605.859 965.405 636.801 963.377 651.124C961.349 665.443 959.812 695.391 958.701 703.085C957.59 710.779 927.369 722.857 908.869 719.712C894.686 717.301 881.707 709.449 879.858 694.778C877.683 677.476 873.979 652.67 869.68 637.596C865.382 622.527 858.63 591.142 879.924 580.639C883.918 578.67 892.731 576.773 896.634 576.035Z" fill="#F6AF9A"/>
<path d="M931.604 560.083C931.604 560.083 931.124 575.715 934.194 582.879C937.26 590.039 926.76 594.493 919.934 594.427C913.109 594.36 902.627 590.043 901.402 580.758C900.18 571.469 905.209 574.982 904.259 549.737C903.518 529.994 933.515 540.63 931.604 560.083Z" fill="#F6AF9A"/>
<path d="M933.233 579.954C931.234 572.169 931.604 560.083 931.604 560.083C933.119 544.637 914.521 534.752 907.168 541.223C906.867 543.423 906.728 545.901 906.786 548.698C906.816 550.152 919.336 577.455 933.233 579.954Z" fill="#EA9A88"/>
<path d="M964.829 728.629C963.824 720.085 964.829 678.221 964.972 672.218C965.115 666.21 967.862 634.729 967.569 625.32C967.272 615.906 964.954 597.05 962.882 591.386C960.806 585.727 945.163 581.401 936.973 579.955L932.935 578.671C932.935 578.671 934.23 583.962 927.324 585.304C917.157 587.28 906.103 580.278 901.526 575.277C901.526 575.277 898.83 574.888 897.004 575.273C897.004 575.273 879.318 578.472 874.686 580.576C870.054 582.681 863.39 591.892 863.104 607.632C862.814 623.372 869.856 652.786 871.866 667.855C873.879 682.928 872.585 708.728 871.723 717.653C870.861 726.578 862.528 754.976 862.385 766.171C862.385 766.171 863.441 766.308 865.308 766.531H947.356C958.968 765.189 967.561 764.016 968.277 763.412C968.277 763.412 966.135 756.111 965.984 750.107C965.834 744.104 965.834 737.172 964.829 728.629Z" fill="#85B9F1"/>
<path d="M926.227 588.266C930.731 588.208 937.153 598.989 937.153 598.989C939.17 594.871 941.052 586.112 942.031 581.016C940.186 580.572 938.455 580.216 936.974 579.955L932.935 578.671C932.935 578.671 934.23 583.962 927.324 585.304C917.157 587.28 906.103 580.278 901.526 575.277C901.526 575.277 898.83 574.888 897.004 575.273C897.004 575.273 895.925 575.468 894.235 575.795L891.906 579.851L920.22 605.652C920.22 605.652 920.135 603.945 921.133 598.202C922.739 588.933 926.227 588.266 926.227 588.266Z" fill="#75AEEB"/>
<path d="M888.619 663.368C890.89 643.77 891.774 608.962 891.774 608.962C891.774 608.962 876.289 615.848 863.716 618.533C865.44 634.601 870.259 655.81 871.866 667.855C873.879 682.924 872.585 708.728 871.723 717.653C870.861 726.578 862.528 754.976 862.385 766.171C862.385 766.171 863.441 766.308 865.308 766.531H892.049C876.674 757.101 877.551 729.47 879.579 714.206C881.963 696.232 886.903 678.196 888.619 663.368Z" fill="#75AEEB"/>
<path d="M926.866 591.237C928.975 591.15 929.433 587.073 929.518 584.645C928.898 584.914 928.172 585.138 927.321 585.304C925.575 585.644 923.8 585.718 922.04 585.586C922.799 587.496 924.61 591.328 926.866 591.237Z" fill="#384682"/>
<path d="M925.107 588.904C925.107 588.904 936.176 646.106 937.151 658.701L944.028 673.481L946.922 654.073C946.922 654.073 935.424 607.776 927.832 588.328L925.107 588.904Z" fill="#384682"/>
<path d="M925.736 585.539C925.736 585.539 931.439 582.366 932.931 578.67C932.931 578.67 935.392 578.583 936.412 579.155C936.412 579.155 938.073 588.933 936.412 595.172C936.412 595.172 930.771 586.546 926.33 586.981C921.878 587.42 918.984 599.228 918.984 599.228C918.984 599.228 903.17 585.254 901.211 575.314L901.659 574.734C901.659 574.734 915.166 583.663 925.736 585.539Z" fill="#96C3F2"/>
<path d="M955.263 504.497C955.263 504.497 957.46 516.313 954.386 530.176L947.598 504.029L955.263 504.497Z" fill="#8C4949"/>
<path d="M927.326 481.791C927.326 481.791 949.342 483.253 952.9 505.37C956.457 527.487 954.231 567.495 941.442 571.874C929.772 575.872 911.764 562.224 904.183 548.527C896.206 534.112 893.374 515.737 898.069 501.84C902.18 489.675 910.014 480.738 927.326 481.791Z" fill="#F6AF9A"/>
<path d="M917.316 507.654C917.316 507.654 915.068 511.42 915.688 517.109C916.091 520.813 914.833 522.147 911.418 527.546C908 532.944 908.792 533.259 907.787 539.209C906.783 545.155 904.329 559.735 904.263 560.899C904.193 562.067 901.028 557.974 898.659 549.861C896.293 541.749 891.265 526.008 890.832 511.565C890.403 497.126 902.183 482.52 914.254 481.058C914.254 481.058 925.748 475.216 936.813 480.411C947.875 485.603 956.024 493.504 955.555 506.51L953.141 506.601C953.141 506.601 951.304 505.076 950.717 504.679C948.04 502.864 945.861 503.763 943.429 505.553C943.429 505.553 933.967 510.927 928.939 510.28C928.939 510.28 923.199 512.286 917.316 507.654Z" fill="#8C4949"/>
<path d="M907.47 494.482C907.47 494.482 906.044 505.155 916.056 511.042C916.573 508.905 917.314 507.653 917.314 507.653C917.314 507.653 908.633 501.571 907.47 494.482Z" fill="#7D4141"/>
<path d="M913.283 485.819C913.195 491.01 914.296 496.541 917.695 500.225C921.744 504.534 929.288 505.404 934.672 505.246C934.016 505.532 933.334 505.748 932.644 505.917C927.502 507.127 921.348 506.551 917.105 502.752C912.807 498.791 911.512 491.607 913.283 485.819Z" fill="#7D4141"/>
<path d="M918.861 483.06C921.828 481.941 924.975 481.552 928.099 481.568C934.418 481.635 940.936 483.897 945.571 488.893C947.889 491.371 949.653 494.449 950.665 497.764C949.756 496.339 948.824 494.976 947.797 493.724C944.79 490 940.936 487.22 936.725 485.579C931.008 483.333 924.89 482.836 918.861 483.06Z" fill="#7D4141"/>
<path d="M916.422 485.819C922.337 486.308 928.136 488.069 933.644 490.53C937.877 492.444 941.973 495.129 945.036 499.002C945.501 499.599 945.938 500.233 946.293 500.917C946.029 500.656 945.758 500.411 945.483 500.179C945.274 500.001 944.859 499.661 944.647 499.491C941.577 497.08 938.218 495.17 934.77 493.563C928.715 490.774 922.539 488.508 916.422 485.819Z" fill="#7D4141"/>
<path d="M920.259 491.987C924.132 496.11 929.149 498.244 934.093 500.216C935.769 500.879 937.478 501.471 939.205 502.229C938.285 502.345 937.368 502.358 936.444 502.325C931.83 502.072 927.165 500.406 923.567 497.038C922.166 495.662 920.835 494.013 920.259 491.987Z" fill="#7D4141"/>
<path d="M912.337 534.564C912.337 534.564 912.29 522.914 906.139 522.835C899.985 522.756 900.018 532.509 903.987 538.836C906.205 542.378 912.363 546.84 912.337 534.564Z" fill="#F6AF9A"/>
<path d="M905.566 530.691C906.777 530.77 907.73 531.52 908.398 532.282C908.225 530.944 907.738 529.651 906.619 528.848C906.329 528.641 906.245 528.21 906.428 527.882C906.612 527.555 906.989 527.46 907.283 527.667C911.277 530.53 909.194 537.528 909.102 537.822C908.992 538.186 908.64 538.381 908.317 538.253C908.31 538.253 908.306 538.248 908.299 538.248C907.987 538.116 907.822 537.726 907.932 537.366C907.939 537.337 908.295 536.144 908.427 534.619C908.42 534.607 908.405 534.594 908.398 534.578C908.387 534.557 907.254 532.199 905.497 532.088C905.156 532.067 904.895 531.735 904.914 531.35C904.932 530.965 905.225 530.671 905.566 530.691Z" fill="#E57E73"/>
<path d="M859.336 766.531H970.15C968.562 747.675 966.588 719.712 966.119 706.95C965.488 689.752 968.217 643.604 968.276 629.214C968.334 614.824 964.652 594.7 964.652 594.7C964.164 593.047 963.137 588.195 953.961 584.334C944.784 580.476 936.653 579.851 936.653 579.851C944.572 602.925 942.331 662.149 942.331 662.149C942.331 662.149 935.164 640.144 925.108 616.013C916.283 594.841 896.276 575.273 896.276 575.273C886.832 575.621 870.379 580.033 870.379 580.033C853.974 600.356 864.893 642.282 867.632 664.61C870.368 686.938 867.896 710.427 860.642 756.873C860.187 759.782 859.751 763.022 859.336 766.531Z" fill="white"/>
<path d="M942.471 657.162L942.331 663.402C948.992 611.606 945.298 584.24 944.686 581.277C939.936 580.105 936.654 579.852 936.654 579.852C943.179 598.862 942.804 642.416 942.471 657.162Z" fill="#ABD3FC"/>
<path d="M942.039 661.258C940.598 656.92 933.981 637.293 925.109 616.014C916.285 594.841 896.278 575.273 896.278 575.273C893.48 575.376 890.065 575.836 886.647 576.433C886.647 576.433 934.678 636.088 942.332 663.4L942.039 661.258Z" fill="#ABD3FC"/>
<path d="M940.009 766.531H941.476C942.932 731.661 943.959 696.791 942.331 662.149C943.204 696.886 941.527 731.839 940.009 766.531Z" fill="#ABD3FC"/>
<path d="M867.632 664.61C870.368 686.938 867.896 710.426 860.642 756.872C860.187 759.781 859.751 763.021 859.336 766.53H871.89L874.194 739.694C874.795 732.158 877.095 703.515 877.854 695.208C878.734 685.616 880.491 684.29 884.885 657.645C889.279 630.999 890.328 607.917 890.328 607.917L863.198 635.739C864.665 646.532 866.664 656.733 867.632 664.61Z" fill="#D4EBFF"/>
<path d="M934.676 578.728C934.676 578.728 940.537 604.901 942.33 662.149C942.33 662.149 945.221 627.893 944.491 605.892C943.757 583.895 943.214 580.932 943.214 580.932C943.214 580.932 937.089 578.161 934.676 578.728Z" fill="white"/>
<path d="M942.332 662.149C925.109 616.013 888.216 576.167 888.216 576.167C891.917 574.067 901.661 574.734 901.661 574.734C901.661 574.734 916.024 593.155 926.04 615.156C939.53 644.788 942.332 662.149 942.332 662.149Z" fill="white"/>
<path d="M871.494 580.937C871.494 580.937 891.421 582.744 887.771 610.607C884.122 638.467 868.135 685.655 862.864 700.04C857.594 714.422 841.9 709.727 840.917 694.103C839.931 678.483 849.918 621.384 852.859 607.691C855.797 594.001 861.207 580.676 871.494 580.937Z" fill="#F6AF9A"/>
<path d="M874.684 580.575C874.684 580.575 860.062 573.805 851.934 606.056C843.803 638.308 838.533 681.232 838.313 695.622C838.093 710.012 850.588 717.117 858.521 711.748C866.458 706.382 875.025 672.971 880.175 655.95C888.214 629.379 900.732 587.097 874.684 580.575Z" fill="white"/>
<path d="M840.752 692.715C840.752 692.715 840.617 738.486 842.421 766.532H859.641C860.913 753.828 862.512 739.915 863.422 732.279C865.509 714.774 867.405 700.831 867.629 689.686C867.922 675.122 841.636 672.065 840.752 692.715Z" fill="#F6AF9A"/>
<path d="M854.961 669.571C854.961 669.571 839.847 671.062 838.31 692.396C837.155 708.459 836.99 742.521 837.543 766.532H865.945C868.348 737.583 872.591 685.949 872.679 681.188C872.804 674.534 862.384 668.083 854.961 669.571Z" fill="white"/>
<path d="M987.324 707.083V753.496C987.324 760.122 982.549 765.512 976.684 765.512H835.044C829.176 765.512 824.405 760.122 824.405 753.496V447.299C824.405 440.674 829.176 435.283 835.044 435.283H976.684C982.549 435.283 987.324 440.674 987.324 447.299V645.096C987.841 646.562 988.355 648.021 988.861 649.475C989.026 649.289 989.125 649.036 989.125 648.754V447.299C989.125 439.551 983.543 433.249 976.684 433.249H835.044C828.182 433.249 822.604 439.551 822.604 447.299V753.496C822.604 761.244 828.182 767.546 835.044 767.546H976.684C983.543 767.546 989.125 761.244 989.125 753.496V707.336C988.531 707.303 987.929 707.22 987.324 707.083Z" fill="white"/>
<path d="M937.799 440.777H873.934C870.017 440.777 866.841 437.189 866.841 432.768V431.094H944.888V432.768C944.888 437.189 941.716 440.777 937.799 440.777Z" fill="#303C72"/>
<path d="M1331.88 504.719C1333.96 503.07 1336.24 501.806 1338.66 500.957C1348.64 497.444 1374.46 491.643 1394.02 516.122C1414.91 542.245 1384.68 616.315 1352.32 652.8C1352.32 652.8 1385.7 674.776 1387.57 701.409C1389.43 728.043 1351.72 757.592 1297.44 767.524L1285.51 541.512L1331.88 504.719Z" fill="#5A789F"/>
<path d="M1338.44 501.033C1335.77 522.843 1334.32 556.603 1330.27 593.416C1323.92 651.273 1307.99 735.498 1370.35 735.137C1354.48 749.568 1328.71 761.803 1297.44 767.525L1285.51 541.513L1331.89 504.716C1333.87 503.138 1336.05 501.891 1338.37 501.062L1338.44 501.033Z" fill="#5A789F"/>
<path d="M1377.71 521.468C1353.45 553.695 1329.86 586.684 1306.54 619.789C1299.92 629.235 1292.77 639.739 1286.12 649.169C1272.44 668.46 1258.28 688.083 1243.93 706.74L1243.65 706.491C1244.27 705.46 1244.9 704.436 1245.53 703.413C1248.68 698.312 1251.92 693.2 1255.14 688.182C1264.2 674.136 1273.62 660.132 1283.19 646.525C1292.74 633.039 1302.9 619.457 1312.64 606.128C1325.25 588.95 1338.2 571.648 1351.13 554.789C1356.82 547.368 1362.82 539.628 1368.58 532.307C1371.52 528.591 1374.46 524.874 1377.44 521.195L1377.71 521.468Z" fill="#5AA5D1"/>
<path d="M1365.67 702.405C1344.54 706.478 1322.71 706.143 1301.68 701.432C1299.48 700.93 1297.19 700.342 1295.03 699.696C1285.7 696.841 1276.71 692.275 1268.78 686.027C1267.69 685.178 1266.39 684.08 1265.37 683.143C1264.28 682.153 1263.18 681.088 1262.15 680.015L1262.36 679.688C1264.34 680.927 1266.28 682.174 1268.26 683.326C1270.17 684.444 1272.3 685.629 1274.26 686.636C1279.78 689.511 1285.5 691.915 1291.29 694.003C1297.09 696.103 1302.95 698.03 1308.92 699.426C1325.34 703.101 1342.23 703.98 1358.92 702.712C1361.16 702.538 1363.39 702.323 1365.61 702.003L1365.67 702.405Z" fill="#5AA5D1"/>
<mask id="mask1_0_1" style="mask-type:luminance" maskUnits="userSpaceOnUse" x="1136" y="424" width="182" height="352">
<path d="M1136.32 424.511H1317.53V775.763H1136.32V424.511Z" fill="white"/>
</mask>
<g mask="url(#mask1_0_1)">
<path d="M1302.97 775.716H1150.8C1143.13 775.716 1136.9 768.689 1136.9 760.017V440.78C1136.9 432.108 1143.13 425.077 1150.8 425.077H1302.97C1310.65 425.077 1316.87 432.108 1316.87 440.78V760.017C1316.87 768.689 1310.65 775.716 1302.97 775.716Z" fill="#303C72"/>
</g>
<path d="M1297.7 766.531H1156.06C1149.69 766.531 1144.52 760.693 1144.52 753.496V447.299C1144.52 440.102 1149.69 434.268 1156.06 434.268H1297.7C1304.07 434.268 1309.24 440.102 1309.24 447.299V753.496C1309.24 760.693 1304.07 766.531 1297.7 766.531Z" fill="#D4EBFF"/>
<path d="M1176.63 605.415C1177.72 598.723 1182.39 593.188 1188.67 591.953C1196.73 590.366 1204.41 596.461 1205.81 605.568C1206.1 607.462 1206.1 609.334 1205.84 611.128C1205.78 611.551 1205.71 611.969 1205.62 612.384C1204.17 620.384 1196.03 664.821 1188.38 692.076C1187.58 696.783 1184.28 700.661 1179.86 701.531C1174.14 702.658 1168.69 698.332 1167.69 691.869C1167.3 689.341 1173.67 619.56 1176.63 605.415Z" fill="#DE9681"/>
<path d="M1190.52 607.906C1190.52 607.906 1196.79 601.38 1205.84 605.751C1206.1 607.582 1206.09 609.393 1205.84 611.129C1205.78 611.552 1205.71 611.97 1205.62 612.385C1204.37 619.287 1198.14 653.32 1191.54 680.032C1190.94 676.751 1189.11 673.473 1188.2 672.657C1186.77 671.377 1183.06 667.573 1181.23 660.89C1179.93 656.113 1182.41 638.226 1185.26 628.821C1188.11 619.412 1190.52 607.906 1190.52 607.906Z" fill="#EA9A88"/>
<path d="M1195.17 591.236C1195.17 591.236 1189.55 589.923 1181.92 593.731C1179.63 594.87 1177.45 599.332 1175.96 602.792C1170.29 616.03 1165.97 656.245 1165.97 656.245C1165.97 656.245 1180.75 671.819 1196.25 676.816C1196.25 676.816 1207.79 620.012 1207.56 608.112C1207.33 596.217 1199.64 592.459 1195.17 591.236Z" fill="#FCF5F1"/>
<path d="M1203.46 638.681L1184.78 605.174C1184.78 605.174 1188.73 618.839 1186.72 627.996C1184.7 637.157 1179.91 649.686 1179.16 657.16C1178.84 660.396 1178.99 664.299 1179.27 667.684C1184.26 671.301 1190.2 674.865 1196.25 676.816C1196.25 676.816 1200.23 657.252 1203.46 638.681Z" fill="#F0E2DA"/>
<path d="M1182.55 676.534C1176.86 674.122 1170.52 677.371 1168.38 683.793C1167.96 685.057 1167.74 686.345 1167.69 687.621C1167.69 687.621 1163.6 749.783 1162.5 766.53H1175.4C1176.74 759.329 1179.25 746.274 1181.94 734.942C1186.54 715.597 1188.11 698.207 1188.84 690.198C1189.05 689.142 1189.13 688.081 1189.09 687.037C1188.9 682.206 1186.8 678.34 1182.55 676.534Z" fill="#DE9681"/>
<path d="M1209.18 742.103C1197.06 743.586 1187.63 753.754 1185.22 766.532H1239.07C1236.18 751.11 1223.36 740.371 1209.18 742.103Z" fill="#F6AF9A"/>
<path d="M1183.63 766.53H1240.22C1236.09 738.642 1217.47 738.617 1215.13 738.654C1215.13 738.654 1189.26 736.794 1183.63 766.53Z" fill="#8C4949"/>
<path d="M1233.63 692.543C1205.08 692.452 1199.17 707.488 1199.17 707.488C1198.69 711.64 1198.61 716.255 1196.92 720.183C1189.08 738.323 1186.02 759.014 1185.11 766.53H1281.12C1280.55 755.364 1276.94 744.794 1272.12 731.312C1269.09 722.831 1261.8 711.685 1261.7 702.939C1261.7 702.939 1258.78 692.622 1233.63 692.543Z" fill="#F6AF9A"/>
<path d="M1198.83 710.829C1198.83 710.829 1196.98 713.945 1192.22 728.504C1188.75 739.099 1185.37 757.367 1183.79 766.532H1282.35C1281.11 753.952 1277.8 740.155 1274.04 732.366C1269.54 723.052 1263.13 707.738 1263.13 707.738C1250.44 711.388 1198.83 710.829 1198.83 710.829Z" fill="#8C4949"/>
<path d="M1274.04 732.366C1269.55 723.052 1263.13 707.738 1263.13 707.738C1254.56 710.203 1228.22 710.75 1212.03 710.842C1204.69 716.41 1202.57 722.783 1202.57 722.783C1202.57 722.783 1222.29 730.356 1247.21 730.833C1260.22 730.833 1265.34 730.833 1267.04 731.885C1268.24 732.623 1270.12 753.894 1271.14 766.532H1282.35C1281.11 753.952 1277.8 740.155 1274.04 732.366Z" fill="#824444"/>
<path d="M1226.72 766.531H1280.41C1277.82 753.695 1268.15 743.647 1255.92 742.458C1242.05 741.112 1229.71 751.623 1226.72 766.531Z" fill="#F6AF9A"/>
<path d="M1224.33 766.532H1281.93C1279.46 751.703 1272.66 737.993 1253.31 738.676C1253.31 738.676 1229.18 738.66 1224.33 766.532Z" fill="#8C4949"/>
<path d="M1268.9 742.381C1269.74 749.739 1270.57 759.479 1271.14 766.531H1281.93C1280.29 756.695 1276.75 747.356 1268.9 742.381Z" fill="#824444"/>
<path d="M1197.22 682.182C1197.22 682.182 1189.84 677.264 1188.53 669.333C1187.22 661.403 1190.97 635.035 1191.93 622.701C1192.89 610.366 1184.14 599.726 1182.96 593.602C1182.96 593.602 1195.32 587.039 1222.41 584.035C1222.41 584.035 1237.69 584.533 1252.36 587.549C1264.33 590.006 1270.57 597.41 1272.91 601.649C1275.25 605.887 1273.73 616.221 1270.47 628.841C1267.21 641.461 1263.62 652.396 1263.26 665.762C1263.09 672.217 1262.83 695.258 1263.19 710.344C1263.19 710.344 1264.61 719.824 1235.61 721.85C1208.84 723.722 1198.9 710.489 1198.9 710.489C1197.89 698.08 1197.22 682.182 1197.22 682.182Z" fill="#DE9681"/>
<path d="M1267.49 640.029C1265.32 648.353 1263.51 656.469 1263.26 665.763C1263.14 670.262 1262.98 682.816 1263.01 695.122C1256.65 675.723 1248.14 617.808 1248.14 617.808L1267.49 640.029Z" fill="#E57E73"/>
<path d="M1208.92 588.588L1210.51 556.618C1210.69 550.283 1214.53 544.578 1220.24 542.908C1227.19 540.874 1234.28 545.589 1236.09 553.44C1236.33 554.505 1236.46 555.578 1236.5 556.635L1238.98 590.958C1239 591.198 1239.06 592.288 1239.06 592.288C1239.49 600.363 1234.8 607.344 1227.6 609.449C1219.43 611.84 1211.35 606.735 1209.24 597.5C1208.58 594.625 1208.74 591.65 1208.92 588.588Z" fill="#DE9681"/>
<path d="M1210.51 556.618C1210.7 550.283 1214.53 544.578 1220.24 542.908C1227.19 540.874 1234.29 545.589 1236.09 553.44C1236.33 554.505 1236.46 555.578 1236.5 556.635L1236.63 558.42C1230.82 573.162 1220.26 584.134 1209.01 586.79L1210.51 556.618Z" fill="#D38475"/>
<path d="M1199.52 588.005C1199.52 588.005 1201.4 597.629 1214.86 600.111C1228.32 602.593 1255.63 588.108 1255.63 588.108C1255.63 588.108 1261.49 588.017 1265.52 590.855C1265.52 590.855 1273.16 596.25 1274.44 602.871C1275.73 609.496 1274.01 621.221 1272.98 625.501C1271.94 629.777 1265.52 667.647 1265.52 677.135C1265.52 683.76 1268.92 702.608 1270.97 713.381C1271.79 717.706 1269.22 721.912 1265.35 722.579C1252.52 724.787 1224.31 728.325 1196.76 722.985C1192.25 722.11 1189.06 717.507 1189.36 712.353C1190.05 700.445 1191.19 680.624 1191.17 679.795C1191.17 679.795 1185.47 675.863 1184.25 664.684C1183.02 653.51 1190.54 625.775 1189.73 621.014C1188.92 616.254 1181.78 598.259 1181.92 593.731C1181.92 593.731 1189.67 589.538 1199.52 588.005Z" fill="#FCF5F1"/>
<path d="M1233.1 725.728C1246.7 725.392 1258.34 723.784 1265.36 722.579C1269.22 721.912 1271.79 717.702 1270.97 713.381C1268.91 702.608 1265.52 683.76 1265.52 677.135C1265.52 667.647 1271.94 629.777 1272.97 625.501C1273.21 624.524 1273.48 623.16 1273.75 621.561C1262.24 614.198 1251.5 612.541 1246.29 620.393C1246.29 620.393 1248.95 655.938 1248.91 662.77C1248.87 669.598 1235.71 680.102 1215.92 677.794C1215.92 677.794 1234.25 685.384 1250.98 675.722L1252.99 682.277H1260.51C1260.51 682.277 1261.49 696.145 1262.96 705.666C1264.41 715.137 1249.07 721.829 1233.1 725.728Z" fill="#F0E2DA"/>
<path d="M1246.39 612.557C1246.22 610.921 1246.25 609.235 1246.5 607.528C1247.92 597.803 1256.05 591.22 1264.66 592.819C1271.8 594.149 1277.04 600.704 1277.8 608.451L1295.55 693.165C1295.93 694.823 1296.02 696.592 1295.75 698.39C1294.75 705.293 1288.98 709.966 1282.87 708.831C1277.72 707.87 1273.97 703.093 1273.52 697.483C1273.52 697.483 1251.1 637.761 1246.8 614.969C1246.62 614.182 1246.48 613.374 1246.39 612.557Z" fill="#DE9681"/>
<path d="M1259.29 590.855C1259.29 590.855 1243.16 593.312 1245.55 616.063C1247.93 638.814 1255.99 679.795 1255.99 679.795C1255.99 679.795 1284.77 680.002 1294.48 664.063C1294.48 664.063 1281.1 611.128 1277.43 601.976C1273.77 592.819 1264.99 588.419 1259.29 590.855Z" fill="#FCF5F1"/>
<path d="M1282.11 684.975C1277.6 686.176 1274.37 690.299 1273.63 695.155C1273.46 696.207 1273.42 697.293 1273.5 698.391C1273.31 706.594 1273.56 723.893 1275.98 744.129C1276.86 751.566 1277.6 759.674 1278.15 766.531H1292.59C1293.77 741.854 1295.85 698.378 1295.85 698.378C1295.95 697.077 1295.87 695.739 1295.59 694.405C1294.18 687.593 1288.14 683.371 1282.11 684.975Z" fill="#DE9681"/>
<path d="M1223.09 489.999C1223.09 489.999 1248.52 491.067 1247.96 525.042C1247.42 557.679 1223.15 584.379 1202.36 577.526C1195.75 574.87 1191.4 557.874 1191.17 532.326C1190.93 506.779 1200.65 489.104 1223.09 489.999Z" fill="#DE9681"/>
<path d="M1256.85 570.006C1253.74 558.413 1256.26 536.304 1255 526.331C1254.97 526.07 1254.92 525.83 1254.86 525.606C1254.07 512.285 1250.19 501.579 1241.2 493.5C1231.53 484.803 1215.78 488.847 1215.78 488.847C1208.62 488.242 1193.76 495.319 1189.64 506.439C1185.52 517.56 1186.78 533.536 1188.39 537.783C1190 542.03 1187.85 546.074 1186.95 548.904C1186.06 551.734 1187.85 554.563 1189.46 558.205C1191.07 561.843 1188.39 566.09 1188.39 566.09C1191.07 564.474 1192.32 560.024 1191.25 556.184C1190.18 552.339 1189.64 550.926 1190.34 548.009C1191.04 545.088 1191.61 543.24 1191.97 538.794C1192.32 534.344 1191.43 525.449 1193.58 519.383C1195.73 513.313 1204.14 506.439 1204.14 506.439C1206.65 515.136 1210.23 522.01 1214.88 523.829C1219.54 525.647 1222.41 528.278 1223.3 530.905C1224.2 533.536 1222.76 538.388 1223.3 544.251C1223.84 550.118 1225.99 550.317 1227.6 552.948C1229.21 555.574 1224.73 560.227 1223.66 562.249C1222.58 564.271 1223.3 567.706 1224.55 570.337C1225.81 572.964 1224.91 575.997 1224.91 575.997C1227.06 574.986 1226.7 570.134 1225.99 566.09C1225.27 562.046 1227.96 561.035 1229.57 558.002C1231.18 554.97 1229.03 550.723 1228.67 548.498C1228.31 546.273 1231.22 538.703 1232.29 539.308C1232.91 539.66 1233.65 543.832 1234.22 548.784C1233.94 550.839 1233.89 552.906 1234.16 554.945C1234.16 554.945 1234.63 556.171 1235.04 558.131C1235.07 558.69 1235.1 559.237 1235.12 559.759C1235.17 560.919 1235.37 562.266 1235.65 563.575C1235.68 566.173 1235.33 569.077 1234.16 571.895C1230.83 579.983 1226.64 577.277 1227.57 589.322C1228.5 601.37 1225.8 611.061 1222.58 617.222C1219.37 623.388 1219.31 641.374 1225.9 651.525C1225.9 651.525 1226.99 643.561 1231.89 641.158C1236.79 638.755 1244.45 626.955 1243.94 619.464C1243.43 611.973 1247.88 590.432 1259.21 588.232C1259.21 588.232 1259.95 581.598 1256.85 570.006Z" fill="#8C4949"/>
<path d="M1204.14 506.439C1204.58 498.787 1209.09 491.047 1215.78 488.847C1209.88 492.614 1206.1 499.251 1204.14 506.439Z" fill="#7A3D3D"/>
<path d="M1208.62 504.824C1217.08 508.574 1215.6 513.247 1220.41 519.897C1222.03 522.432 1224.69 523.058 1227.02 524.338C1229.99 526.422 1232 530.383 1231.89 534.344C1231.56 531.021 1229.86 527.831 1227.5 525.871C1224.7 523.849 1221.86 524.081 1219.6 520.692C1214.73 513.943 1216.67 509.767 1208.62 504.824Z" fill="#7A3D3D"/>
<path d="M1213.99 500.779C1218.65 501.678 1223.25 504.3 1225.78 508.961C1230.35 515.624 1237.81 522.174 1236.91 531.513C1236.72 522.323 1229.42 516.506 1224.97 509.645C1222.64 505.042 1218.35 502.37 1213.99 500.779Z" fill="#7A3D3D"/>
<path d="M1213.99 494.512C1221.88 493.439 1230.52 495.494 1236.11 502.243C1238.86 505.293 1241.23 508.889 1242.61 512.979C1243.22 514.872 1243.66 516.898 1243.66 518.924C1243.63 520.072 1243.65 521.477 1243.76 522.62C1244.28 528.955 1245.6 535.543 1244.07 541.828C1245.37 534.118 1242.65 526.386 1242.69 518.68C1242.18 511.185 1237.54 504.899 1232.62 500.234C1227.4 495.639 1220.46 494.359 1213.99 494.512Z" fill="#7A3D3D"/>
<path d="M1250.88 529.746C1252.37 536.843 1252.81 544.5 1250.85 551.544C1250.02 555.057 1248.39 558.322 1247.57 561.803C1246.88 565.416 1248.82 568.883 1248.48 572.542C1248.42 577.551 1246.55 582.759 1242.8 585.668C1241.95 586.323 1241.12 587.097 1240.43 587.955C1236.88 592.409 1235.41 598.537 1234.98 604.412C1234.87 606.857 1234.92 609.339 1234.46 611.742C1233.23 621.487 1225.01 628.824 1225.9 638.992C1224.53 628.903 1232.55 621.213 1233.63 611.572C1234.05 609.189 1233.95 606.753 1234.05 604.342C1234.43 597.911 1236.09 591.129 1240.24 586.463C1240.81 585.821 1241.52 585.196 1242.18 584.674C1246.58 581.284 1248.06 574.697 1247.29 568.971C1246.9 566.53 1246.06 564.069 1246.7 561.579C1247.59 558.003 1249.26 554.85 1250.19 551.304C1252.27 544.393 1252.02 536.852 1250.88 529.746Z" fill="#7A3D3D"/>
<path d="M1239.69 556.473C1242.97 568.497 1238.9 570.216 1234.93 579.915C1234.13 581.962 1234.21 584.009 1234.04 586.221C1233.15 590.331 1231.67 591.363 1231.89 596.351C1231.22 592.424 1232.16 590.273 1233.14 586.718C1233.38 584.775 1233.04 582.72 1233.59 580.802C1233.66 580.429 1233.85 579.866 1233.95 579.501C1237.92 569.255 1241.65 569.537 1239.69 556.473Z" fill="#7A3D3D"/>
<path d="M1251.94 562.233C1251.74 565.838 1251.36 569.5 1251.91 573.039C1252.1 574.282 1252.79 575.143 1253.16 576.27C1254.01 578.636 1254.29 581.246 1253.89 583.749C1253.42 586.127 1252.38 588.36 1252.4 590.854C1251.93 588.406 1252.73 586.007 1253.06 583.612C1253.46 573.755 1248.47 576.25 1251.94 562.233Z" fill="#7A3D3D"/>
<path d="M1244.58 593.465C1242.28 596.921 1239.99 601.014 1240.16 605.472C1240.78 612.134 1241.04 620.454 1237.87 626.354C1240.06 619.965 1239.61 612.818 1239.17 606.114C1238.82 601.18 1241.53 596.684 1244.58 593.465Z" fill="#7A3D3D"/>
<path d="M1238.14 533.417C1238.14 533.417 1242.26 533.786 1242.35 541.111C1242.43 548.15 1238.68 556.258 1234.16 554.945C1232.72 554.423 1231.47 548.266 1231.27 542.76C1231.06 537.258 1233.3 533.4 1238.14 533.417Z" fill="#DE9681"/>
<path d="M1234.9 549.698C1233.07 540.177 1237.39 537.476 1237.58 537.364C1237.8 537.227 1238.08 537.326 1238.2 537.575C1238.31 537.828 1238.23 538.139 1238.01 538.275C1237.89 538.354 1235.59 539.833 1235.38 544.614C1236.65 542.928 1238.68 542.63 1238.79 542.613C1239.04 542.58 1239.27 542.783 1239.3 543.065C1239.33 543.351 1239.15 543.607 1238.9 543.641C1238.78 543.657 1236.06 544.072 1235.42 546.702C1235.48 547.548 1235.6 548.467 1235.79 549.478C1235.84 549.731 1235.71 549.984 1235.5 550.071C1235.48 550.079 1235.46 550.087 1235.44 550.092C1235.19 550.154 1234.95 549.975 1234.9 549.698Z" fill="#BA6D5B"/>
<path d="M1297.7 434.268H1156.06C1149.69 434.268 1144.52 440.102 1144.52 447.299V463.317H1309.24V447.299C1309.24 440.102 1304.07 434.268 1297.7 434.268Z" fill="#8CCBFF"/>
<path d="M1298.31 448.148H1282.47C1281.5 448.148 1280.71 447.261 1280.71 446.163V445.848C1280.71 444.755 1281.5 443.868 1282.47 443.868H1298.31C1299.28 443.868 1300.07 444.755 1300.07 445.848V446.163C1300.07 447.261 1299.28 448.148 1298.31 448.148Z" fill="white"/>
<path d="M1298.31 457.417H1288.28C1287.31 457.417 1286.52 456.526 1286.52 455.432V455.117C1286.52 454.019 1287.31 453.133 1288.28 453.133H1298.31C1299.28 453.133 1300.07 454.024 1300.07 455.117V455.432C1300.07 456.526 1299.28 457.417 1298.31 457.417Z" fill="white"/>
<path d="M1297.7 767.546H1156.06C1149.2 767.546 1143.62 761.244 1143.62 753.496V447.299C1143.62 439.551 1149.2 433.249 1156.06 433.249H1297.7C1304.56 433.249 1310.14 439.551 1310.14 447.299V753.496C1310.14 761.244 1304.56 767.546 1297.7 767.546ZM1156.06 435.283C1150.19 435.283 1145.42 440.674 1145.42 447.299V753.496C1145.42 760.122 1150.19 765.512 1156.06 765.512H1297.7C1303.57 765.512 1308.34 760.122 1308.34 753.496V447.299C1308.34 440.674 1303.57 435.283 1297.7 435.283H1156.06Z" fill="white"/>
<path d="M1258.81 440.777H1194.95C1191.03 440.777 1187.86 437.189 1187.86 432.768V431.094H1265.9V432.768C1265.9 437.189 1262.73 440.777 1258.81 440.777Z" fill="#303C72"/>
<path d="M1157.49 480.499H1014.94C1010.36 480.499 1006.64 484.696 1006.64 489.871V536.574C1006.64 541.753 1010.36 545.947 1014.94 545.947H1142.97L1165.78 576.868V489.871C1165.78 484.696 1162.07 480.499 1157.49 480.499Z" fill="white"/>
<path d="M1100.22 501.749H1149.42C1150.81 501.749 1151.95 500.469 1151.95 498.89V496.562C1151.95 494.983 1150.81 493.703 1149.42 493.703H1100.22C1098.82 493.703 1097.68 494.983 1097.68 496.562V498.89C1097.68 500.469 1098.82 501.749 1100.22 501.749Z" fill="#D4E7FF"/>
<path d="M1021.29 501.749H1084.74C1086.14 501.749 1087.27 500.469 1087.27 498.89V496.562C1087.27 494.983 1086.14 493.703 1084.74 493.703H1021.29C1019.89 493.703 1018.76 494.983 1018.76 496.562V498.89C1018.76 500.469 1019.89 501.749 1021.29 501.749Z" fill="#D4E7FF"/>
<path d="M1119.42 517.478H1149.42C1150.81 517.478 1151.95 516.198 1151.95 514.619V512.295C1151.95 510.712 1150.81 509.432 1149.42 509.432H1119.42C1118.02 509.432 1116.89 510.712 1116.89 512.295V514.619C1116.89 516.198 1118.02 517.478 1119.42 517.478Z" fill="#D4E7FF"/>
<path d="M1090.59 517.478H1104.74C1106.14 517.478 1107.27 516.198 1107.27 514.619V512.295C1107.27 510.712 1106.14 509.432 1104.74 509.432H1090.59C1089.19 509.432 1088.06 510.712 1088.06 512.295V514.619C1088.06 516.198 1089.19 517.478 1090.59 517.478Z" fill="#D4E7FF"/>
<path d="M1021.29 517.478H1076.48C1077.88 517.478 1079.01 516.198 1079.01 514.619V512.295C1079.01 510.712 1077.88 509.432 1076.48 509.432H1021.29C1019.89 509.432 1018.76 510.712 1018.76 512.295V514.619C1018.76 516.198 1019.89 517.478 1021.29 517.478Z" fill="#D4E7FF"/>
<path d="M1132.44 533.209H1149.42C1150.81 533.209 1151.95 531.929 1151.95 530.346V528.022C1151.95 526.439 1150.81 525.159 1149.42 525.159H1132.44C1131.04 525.159 1129.91 526.439 1129.91 528.022V530.346C1129.91 531.929 1131.04 533.209 1132.44 533.209Z" fill="#D4E7FF"/>
<path d="M1021.29 533.209H1119.04C1120.44 533.209 1121.57 531.929 1121.57 530.346V528.022C1121.57 526.439 1120.44 525.159 1119.04 525.159H1021.29C1019.89 525.159 1018.76 526.439 1018.76 528.022V530.346C1018.76 531.929 1019.89 533.209 1021.29 533.209Z" fill="#D4E7FF"/>
<path d="M1118.58 547.305H1014.94C1009.7 547.305 1005.44 542.49 1005.44 536.574V489.871C1005.44 483.954 1009.7 479.144 1014.94 479.144H1131.22C1131.89 479.144 1132.42 479.749 1132.42 480.498C1132.42 481.248 1131.89 481.857 1131.22 481.857H1014.94C1011.03 481.857 1007.85 485.45 1007.85 489.871V536.574C1007.85 540.995 1011.03 544.591 1014.94 544.591H1118.58C1119.24 544.591 1119.78 545.196 1119.78 545.946C1119.78 546.696 1119.24 547.305 1118.58 547.305Z" fill="#8CCBFF"/>
<path d="M1118.31 401.395H975.765C971.184 401.395 967.469 405.593 967.469 410.768V497.764L990.285 466.843H1118.31C1122.9 466.843 1126.61 462.646 1126.61 457.471V410.768C1126.61 405.593 1122.9 401.395 1118.31 401.395Z" fill="white"/>
<path d="M1062.52 422.779H984.171C982.77 422.779 981.637 421.499 981.637 419.92V417.591C981.637 416.013 982.77 414.733 984.171 414.733H1062.52C1063.92 414.733 1065.05 416.013 1065.05 417.591V419.92C1065.05 421.499 1063.92 422.779 1062.52 422.779Z" fill="#D4E7FF"/>
<path d="M1112.3 422.779H1078C1076.61 422.779 1075.47 421.499 1075.47 419.92V417.591C1075.47 416.013 1076.61 414.733 1078 414.733H1112.3C1113.7 414.733 1114.83 416.013 1114.83 417.591V419.92C1114.83 421.499 1113.7 422.779 1112.3 422.779Z" fill="#D4E7FF"/>
<path d="M1013.19 438.506H984.171C982.774 438.506 981.637 437.225 981.637 435.647V433.318C981.637 431.74 982.774 430.46 984.171 430.46H1013.19C1014.59 430.46 1015.72 431.74 1015.72 433.318V435.647C1015.72 437.225 1014.59 438.506 1013.19 438.506Z" fill="#D4E7FF"/>
<path d="M1088.88 438.506H1028.85C1027.45 438.506 1026.32 437.226 1026.32 435.647V433.318C1026.32 431.74 1027.45 430.46 1028.85 430.46H1088.88C1090.28 430.46 1091.41 431.74 1091.41 433.318V435.647C1091.41 437.226 1090.28 438.506 1088.88 438.506Z" fill="#D4E7FF"/>
<path d="M1112.3 438.506H1102.99C1101.59 438.506 1100.45 437.225 1100.45 435.647V433.318C1100.45 431.74 1101.59 430.46 1102.99 430.46H1112.3C1113.7 430.46 1114.83 431.74 1114.83 433.318V435.647C1114.83 437.225 1113.7 438.506 1112.3 438.506Z" fill="#D4E7FF"/>
<path d="M1046.73 454.239H984.171C982.774 454.239 981.637 452.954 981.637 451.376V449.051C981.637 447.469 982.774 446.188 984.171 446.188H1046.73C1048.13 446.188 1049.26 447.469 1049.26 449.051V451.376C1049.26 452.954 1048.13 454.239 1046.73 454.239Z" fill="#D4E7FF"/>
<path d="M1112.3 454.239H1060.13C1058.73 454.239 1057.6 452.954 1057.6 451.376V449.051C1057.6 447.469 1058.73 446.188 1060.13 446.188H1112.3C1113.7 446.188 1114.83 447.469 1114.83 449.051V451.376C1114.83 452.954 1113.7 454.239 1112.3 454.239Z" fill="#D4E7FF"/>
<path d="M1118.31 468.197H1006.64C1005.98 468.197 1005.44 467.592 1005.44 466.842C1005.44 466.092 1005.98 465.483 1006.64 465.483H1118.31C1122.22 465.483 1125.41 461.891 1125.41 457.47V410.767C1125.41 406.346 1122.22 402.75 1118.31 402.75H975.765C971.855 402.75 968.671 406.346 968.671 410.767V418.755C968.671 419.505 968.132 420.114 967.468 420.114C966.805 420.114 966.266 419.505 966.266 418.755V410.767C966.266 404.85 970.527 400.036 975.765 400.036H1118.31C1123.55 400.036 1127.81 404.85 1127.81 410.767V457.47C1127.81 463.387 1123.55 468.197 1118.31 468.197Z" fill="#8CCBFF"/>
<rect x="40" y="4" width="95.5312" height="30" rx="3" fill="#444444"/>
<rect x="40.5" y="4.5" width="94.5312" height="29" rx="2.5" stroke="white" stroke-opacity="0.0980392"/>
<path d="M51.3438 16C51.2969 15.6042 51.1068 15.2969 50.7734 15.0781C50.4401 14.8594 50.0313 14.75 49.5469 14.75C49.1927 14.75 48.8828 14.8073 48.6172 14.9219C48.3542 15.0365 48.1484 15.194 48 15.3945C47.8542 15.5951 47.7813 15.8229 47.7813 16.0781C47.7813 16.2917 47.832 16.4753 47.9336 16.6289C48.0378 16.7799 48.1706 16.9062 48.332 17.0078C48.4935 17.1068 48.6628 17.1888 48.8398 17.2539C49.0169 17.3164 49.1797 17.3672 49.3281 17.4062L50.1406 17.625C50.349 17.6797 50.5807 17.7552 50.8359 17.8516C51.0938 17.9479 51.3398 18.0794 51.5742 18.2461C51.8112 18.4102 52.0065 18.6211 52.1602 18.8789C52.3138 19.1367 52.3906 19.4531 52.3906 19.8281C52.3906 20.2604 52.2773 20.651 52.0508 21C51.8268 21.349 51.4987 21.6263 51.0664 21.832C50.6367 22.0378 50.1146 22.1406 49.5 22.1406C48.9271 22.1406 48.431 22.0482 48.0117 21.8633C47.5951 21.6784 47.2669 21.4206 47.0273 21.0898C46.7904 20.7591 46.6563 20.375 46.625 19.9375H47.625C47.651 20.2396 47.7526 20.4896 47.9297 20.6875C48.1094 20.8828 48.3359 21.0286 48.6094 21.125C48.8854 21.2187 49.1823 21.2656 49.5 21.2656C49.8698 21.2656 50.2018 21.2057 50.4961 21.0859C50.7904 20.9635 51.0234 20.7943 51.1953 20.5781C51.3672 20.3594 51.4531 20.1042 51.4531 19.8125C51.4531 19.5469 51.3789 19.3307 51.2305 19.1641C51.082 18.9974 50.8867 18.862 50.6445 18.7578C50.4023 18.6536 50.1406 18.5625 49.8594 18.4844L48.875 18.2031C48.25 18.0234 47.7552 17.7669 47.3906 17.4336C47.026 17.1003 46.8438 16.6641 46.8438 16.125C46.8438 15.6771 46.9648 15.2865 47.207 14.9531C47.4518 14.6172 47.7799 14.3568 48.1914 14.1719C48.6055 13.9844 49.0677 13.8906 49.5781 13.8906C50.0938 13.8906 50.5521 13.9831 50.9531 14.168C51.3542 14.3503 51.6719 14.6003 51.9062 14.918C52.1432 15.2357 52.2682 15.5964 52.2813 16H51.3438ZM56.374 22.125C55.7959 22.125 55.2972 21.9974 54.8779 21.7422C54.4613 21.4844 54.1396 21.125 53.9131 20.6641C53.6891 20.2005 53.5771 19.6615 53.5771 19.0469C53.5771 18.4323 53.6891 17.8906 53.9131 17.4219C54.1396 16.9505 54.4548 16.5833 54.8584 16.3203C55.2646 16.0547 55.7386 15.9219 56.2803 15.9219C56.5928 15.9219 56.9014 15.974 57.2061 16.0781C57.5107 16.1823 57.7881 16.3516 58.0381 16.5859C58.2881 16.8177 58.4873 17.125 58.6357 17.5078C58.7842 17.8906 58.8584 18.362 58.8584 18.9219V19.3125H54.2334V18.5156H57.9209C57.9209 18.1771 57.8532 17.875 57.7178 17.6094C57.585 17.3437 57.3949 17.1341 57.1475 16.9805C56.9027 16.8268 56.6136 16.75 56.2803 16.75C55.9131 16.75 55.5954 16.8411 55.3271 17.0234C55.0615 17.2031 54.8571 17.4375 54.7139 17.7266C54.5706 18.0156 54.499 18.3255 54.499 18.6562V19.1875C54.499 19.6406 54.5771 20.0247 54.7334 20.3398C54.8923 20.6523 55.1123 20.8906 55.3936 21.0547C55.6748 21.2161 56.0016 21.2969 56.374 21.2969C56.6162 21.2969 56.835 21.263 57.0303 21.1953C57.2282 21.125 57.3988 21.0208 57.542 20.8828C57.6852 20.7422 57.7959 20.5677 57.874 20.3594L58.7646 20.6094C58.6709 20.9115 58.5133 21.1771 58.292 21.4062C58.0706 21.6328 57.7972 21.8099 57.4717 21.9375C57.1462 22.0625 56.7803 22.125 56.374 22.125ZM62.6982 22.125C62.1357 22.125 61.6514 21.9922 61.2451 21.7266C60.8389 21.4609 60.5264 21.0951 60.3076 20.6289C60.0889 20.1628 59.9795 19.6302 59.9795 19.0312C59.9795 18.4219 60.0915 17.8841 60.3154 17.418C60.542 16.9492 60.8571 16.5833 61.2607 16.3203C61.667 16.0547 62.141 15.9219 62.6826 15.9219C63.1045 15.9219 63.4847 16 63.8232 16.1562C64.1618 16.3125 64.4391 16.5312 64.6553 16.8125C64.8714 17.0937 65.0055 17.4219 65.0576 17.7969H64.1357C64.0654 17.5234 63.9092 17.2812 63.667 17.0703C63.4274 16.8568 63.1045 16.75 62.6982 16.75C62.3389 16.75 62.0238 16.8437 61.7529 17.0312C61.4847 17.2161 61.2751 17.4779 61.124 17.8164C60.9756 18.1523 60.9014 18.5469 60.9014 19C60.9014 19.4635 60.9743 19.8672 61.1201 20.2109C61.2686 20.5547 61.4769 20.8216 61.7451 21.0117C62.016 21.2018 62.3337 21.2969 62.6982 21.2969C62.9378 21.2969 63.1553 21.2552 63.3506 21.1719C63.5459 21.0885 63.7113 20.9688 63.8467 20.8125C63.9821 20.6562 64.0785 20.4687 64.1357 20.25H65.0576C65.0055 20.6042 64.8766 20.9232 64.6709 21.207C64.4678 21.4883 64.1982 21.7122 63.8623 21.8789C63.529 22.043 63.141 22.125 62.6982 22.125ZM69.0146 16V16.7812H65.9053V16H69.0146ZM66.8115 14.5625H67.7334V20.2812C67.7334 20.5417 67.7712 20.737 67.8467 20.8672C67.9248 20.9948 68.0238 21.0807 68.1436 21.125C68.266 21.1667 68.3949 21.1875 68.5303 21.1875C68.6318 21.1875 68.7152 21.1823 68.7803 21.1719C68.8454 21.1589 68.8975 21.1484 68.9365 21.1406L69.124 21.9687C69.0615 21.9922 68.9743 22.0156 68.8623 22.0391C68.7503 22.0651 68.6084 22.0781 68.4365 22.0781C68.1761 22.0781 67.9209 22.0221 67.6709 21.9102C67.4235 21.7982 67.2178 21.6276 67.0537 21.3984C66.8923 21.1693 66.8115 20.8802 66.8115 20.5312V14.5625ZM70.4014 22V16H71.3232V22H70.4014ZM70.8701 15C70.6904 15 70.5355 14.9388 70.4053 14.8164C70.2777 14.694 70.2139 14.5469 70.2139 14.375C70.2139 14.2031 70.2777 14.056 70.4053 13.9336C70.5355 13.8112 70.6904 13.75 70.8701 13.75C71.0498 13.75 71.2035 13.8112 71.3311 13.9336C71.4613 14.056 71.5264 14.2031 71.5264 14.375C71.5264 14.5469 71.4613 14.694 71.3311 14.8164C71.2035 14.9388 71.0498 15 70.8701 15ZM75.4492 22.125C74.9076 22.125 74.4323 21.9961 74.0234 21.7383C73.6172 21.4805 73.2995 21.1198 73.0703 20.6562C72.8438 20.1927 72.7305 19.651 72.7305 19.0312C72.7305 18.4062 72.8438 17.8607 73.0703 17.3945C73.2995 16.9284 73.6172 16.5664 74.0234 16.3086C74.4323 16.0508 74.9076 15.9219 75.4492 15.9219C75.9909 15.9219 76.4648 16.0508 76.8711 16.3086C77.2799 16.5664 77.5977 16.9284 77.8242 17.3945C78.0534 17.8607 78.168 18.4062 78.168 19.0312C78.168 19.651 78.0534 20.1927 77.8242 20.6562C77.5977 21.1198 77.2799 21.4805 76.8711 21.7383C76.4648 21.9961 75.9909 22.125 75.4492 22.125ZM75.4492 21.2969C75.8607 21.2969 76.1992 21.1914 76.4648 20.9805C76.7305 20.7695 76.9271 20.4922 77.0547 20.1484C77.1823 19.8047 77.2461 19.4323 77.2461 19.0312C77.2461 18.6302 77.1823 18.2565 77.0547 17.9102C76.9271 17.5638 76.7305 17.2839 76.4648 17.0703C76.1992 16.8568 75.8607 16.75 75.4492 16.75C75.0378 16.75 74.6992 16.8568 74.4336 17.0703C74.168 17.2839 73.9714 17.5638 73.8438 17.9102C73.7161 18.2565 73.6523 18.6302 73.6523 19.0312C73.6523 19.4323 73.7161 19.8047 73.8438 20.1484C73.9714 20.4922 74.168 20.7695 74.4336 20.9805C74.6992 21.1914 75.0378 21.2969 75.4492 21.2969ZM80.4971 18.3906V22H79.5752V16H80.4658V16.9375H80.5439C80.6846 16.6328 80.8981 16.388 81.1846 16.2031C81.471 16.0156 81.8408 15.9219 82.2939 15.9219C82.7002 15.9219 83.0557 16.0052 83.3604 16.1719C83.665 16.3359 83.902 16.5859 84.0713 16.9219C84.2406 17.2552 84.3252 17.6771 84.3252 18.1875V22H83.4033V18.25C83.4033 17.7786 83.2809 17.4115 83.0361 17.1484C82.7913 16.8828 82.4554 16.75 82.0283 16.75C81.734 16.75 81.471 16.8138 81.2393 16.9414C81.0101 17.069 80.8291 17.2552 80.6963 17.5C80.5635 17.7448 80.4971 18.0417 80.4971 18.3906ZM89.0879 22V21.2969L91.7285 18.4062C92.0384 18.0677 92.2936 17.7734 92.4941 17.5234C92.6947 17.2708 92.8431 17.0339 92.9395 16.8125C93.0384 16.5885 93.0879 16.3542 93.0879 16.1094C93.0879 15.8281 93.0202 15.5846 92.8848 15.3789C92.752 15.1732 92.5697 15.0143 92.3379 14.9023C92.1061 14.7904 91.8457 14.7344 91.5566 14.7344C91.2493 14.7344 90.9811 14.7982 90.752 14.9258C90.5254 15.0508 90.3496 15.2266 90.2246 15.4531C90.1022 15.6797 90.041 15.9453 90.041 16.25H89.1191C89.1191 15.7812 89.2272 15.3698 89.4434 15.0156C89.6595 14.6615 89.9538 14.3854 90.3262 14.1875C90.7012 13.9896 91.1217 13.8906 91.5879 13.8906C92.0566 13.8906 92.472 13.9896 92.834 14.1875C93.196 14.3854 93.4798 14.6523 93.6855 14.9883C93.8913 15.3242 93.9941 15.6979 93.9941 16.1094C93.9941 16.4036 93.9408 16.6914 93.834 16.9727C93.7298 17.2513 93.5475 17.5625 93.2871 17.9062C93.0293 18.2474 92.6712 18.6641 92.2129 19.1562L90.416 21.0781V21.1406H94.1348V22H89.0879ZM98.4512 22.1094C97.9355 22.1094 97.4759 22.0208 97.0723 21.8437C96.6712 21.6667 96.3522 21.4206 96.1152 21.1055C95.8809 20.7878 95.7533 20.4193 95.7324 20H96.7168C96.7376 20.2578 96.8262 20.4805 96.9824 20.668C97.1387 20.8529 97.3431 20.9961 97.5957 21.0977C97.8483 21.1992 98.1283 21.25 98.4355 21.25C98.7793 21.25 99.084 21.1901 99.3496 21.0703C99.6152 20.9505 99.8236 20.7839 99.9746 20.5703C100.126 20.3568 100.201 20.1094 100.201 19.8281C100.201 19.5339 100.128 19.2747 99.9824 19.0508C99.8366 18.8242 99.623 18.6471 99.3418 18.5195C99.0605 18.3919 98.7168 18.3281 98.3105 18.3281H97.6699V17.4687H98.3105C98.6283 17.4687 98.9069 17.4115 99.1465 17.2969C99.3887 17.1823 99.5775 17.0208 99.7129 16.8125C99.8509 16.6042 99.9199 16.3594 99.9199 16.0781C99.9199 15.8073 99.86 15.5716 99.7402 15.3711C99.6204 15.1706 99.4512 15.0143 99.2324 14.9023C99.0163 14.7904 98.7611 14.7344 98.4668 14.7344C98.1908 14.7344 97.9303 14.7852 97.6855 14.8867C97.4434 14.9857 97.2454 15.1302 97.0918 15.3203C96.9382 15.5078 96.8548 15.7344 96.8418 16H95.9043C95.9199 15.5807 96.0462 15.2135 96.2832 14.8984C96.5202 14.5807 96.8301 14.3333 97.2129 14.1562C97.5983 13.9792 98.0215 13.8906 98.4824 13.8906C98.9772 13.8906 99.4017 13.9909 99.7559 14.1914C100.11 14.3893 100.382 14.651 100.572 14.9766C100.762 15.3021 100.857 15.6536 100.857 16.0313C100.857 16.4818 100.739 16.8659 100.502 17.1836C100.268 17.5013 99.9486 17.7214 99.5449 17.8438V17.9062C100.05 17.9896 100.445 18.2044 100.729 18.5508C101.012 18.8945 101.154 19.3203 101.154 19.8281C101.154 20.263 101.036 20.6536 100.799 21C100.564 21.3437 100.244 21.6146 99.8379 21.8125C99.4316 22.0104 98.9694 22.1094 98.4512 22.1094ZM105.299 13.8906C105.627 13.8932 105.955 13.9557 106.283 14.0781C106.611 14.2005 106.911 14.4036 107.182 14.6875C107.452 14.9687 107.67 15.3529 107.834 15.8398C107.998 16.3268 108.08 16.9375 108.08 17.6719C108.08 18.3828 108.012 19.0143 107.877 19.5664C107.744 20.1159 107.551 20.5794 107.299 20.957C107.049 21.3346 106.744 21.6211 106.385 21.8164C106.028 22.0117 105.624 22.1094 105.174 22.1094C104.726 22.1094 104.326 22.0208 103.975 21.8437C103.626 21.6641 103.339 21.4154 103.115 21.0977C102.894 20.7773 102.752 20.4062 102.689 19.9844H103.643C103.729 20.3516 103.899 20.6549 104.154 20.8945C104.412 21.1315 104.752 21.25 105.174 21.25C105.791 21.25 106.278 20.9805 106.635 20.4414C106.994 19.9023 107.174 19.1406 107.174 18.1562H107.111C106.965 18.375 106.792 18.5638 106.592 18.7227C106.391 18.8815 106.169 19.0039 105.924 19.0898C105.679 19.1758 105.419 19.2188 105.143 19.2188C104.684 19.2188 104.264 19.1055 103.881 18.8789C103.501 18.6497 103.196 18.3359 102.967 17.9375C102.74 17.5365 102.627 17.0781 102.627 16.5625C102.627 16.0729 102.736 15.625 102.955 15.2187C103.176 14.8099 103.486 14.4844 103.885 14.2422C104.286 14 104.757 13.8828 105.299 13.8906ZM105.299 14.75C104.971 14.75 104.675 14.832 104.412 14.9961C104.152 15.1576 103.945 15.3763 103.791 15.6523C103.64 15.9258 103.564 16.2292 103.564 16.5625C103.564 16.8958 103.637 17.1992 103.783 17.4727C103.932 17.7435 104.133 17.9596 104.389 18.1211C104.646 18.2799 104.939 18.3594 105.268 18.3594C105.515 18.3594 105.745 18.3112 105.959 18.2148C106.173 18.1159 106.359 17.9818 106.518 17.8125C106.679 17.6406 106.805 17.4466 106.896 17.2305C106.988 17.0117 107.033 16.7839 107.033 16.5469C107.033 16.2344 106.958 15.9414 106.807 15.668C106.658 15.3945 106.452 15.1732 106.189 15.0039C105.929 14.8346 105.632 14.75 105.299 14.75ZM112.319 22.1094C111.804 22.1094 111.344 22.0208 110.94 21.8437C110.539 21.6667 110.22 21.4206 109.983 21.1055C109.749 20.7878 109.621 20.4193 109.601 20H110.585C110.606 20.2578 110.694 20.4805 110.851 20.668C111.007 20.8529 111.211 20.9961 111.464 21.0977C111.716 21.1992 111.996 21.25 112.304 21.25C112.647 21.25 112.952 21.1901 113.218 21.0703C113.483 20.9505 113.692 20.7839 113.843 20.5703C113.994 20.3568 114.069 20.1094 114.069 19.8281C114.069 19.5339 113.996 19.2747 113.851 19.0508C113.705 18.8242 113.491 18.6471 113.21 18.5195C112.929 18.3919 112.585 18.3281 112.179 18.3281H111.538V17.4687H112.179C112.496 17.4687 112.775 17.4115 113.015 17.2969C113.257 17.1823 113.446 17.0208 113.581 16.8125C113.719 16.6042 113.788 16.3594 113.788 16.0781C113.788 15.8073 113.728 15.5716 113.608 15.3711C113.489 15.1706 113.319 15.0143 113.101 14.9023C112.884 14.7904 112.629 14.7344 112.335 14.7344C112.059 14.7344 111.799 14.7852 111.554 14.8867C111.312 14.9857 111.114 15.1302 110.96 15.3203C110.806 15.5078 110.723 15.7344 110.71 16H109.772C109.788 15.5807 109.914 15.2135 110.151 14.8984C110.388 14.5807 110.698 14.3333 111.081 14.1562C111.466 13.9792 111.89 13.8906 112.351 13.8906C112.845 13.8906 113.27 13.9909 113.624 14.1914C113.978 14.3893 114.25 14.651 114.44 14.9766C114.631 15.3021 114.726 15.6536 114.726 16.0313C114.726 16.4818 114.607 16.8659 114.37 17.1836C114.136 17.5013 113.817 17.7214 113.413 17.8438V17.9062C113.918 17.9896 114.313 18.2044 114.597 18.5508C114.881 18.8945 115.022 19.3203 115.022 19.8281C115.022 20.263 114.904 20.6536 114.667 21C114.433 21.3437 114.112 21.6146 113.706 21.8125C113.3 22.0104 112.838 22.1094 112.319 22.1094ZM119.229 22.1094C118.641 22.1094 118.14 21.9492 117.726 21.6289C117.312 21.306 116.995 20.8385 116.776 20.2266C116.558 19.612 116.448 18.8698 116.448 18C116.448 17.1354 116.558 16.3971 116.776 15.7852C116.998 15.1706 117.315 14.7018 117.729 14.3789C118.146 14.0534 118.646 13.8906 119.229 13.8906C119.813 13.8906 120.312 14.0534 120.726 14.3789C121.142 14.7018 121.46 15.1706 121.679 15.7852C121.9 16.3971 122.011 17.1354 122.011 18C122.011 18.8698 121.901 19.612 121.683 20.2266C121.464 20.8385 121.147 21.306 120.733 21.6289C120.319 21.9492 119.818 22.1094 119.229 22.1094ZM119.229 21.25C119.813 21.25 120.266 20.9687 120.589 20.4062C120.912 19.8437 121.073 19.0417 121.073 18C121.073 17.3073 120.999 16.7174 120.851 16.2305C120.705 15.7435 120.494 15.3724 120.218 15.1172C119.944 14.862 119.615 14.7344 119.229 14.7344C118.651 14.7344 118.2 15.0195 117.874 15.5898C117.549 16.1576 117.386 16.9609 117.386 18C117.386 18.6927 117.459 19.2812 117.604 19.7656C117.75 20.25 117.96 20.6185 118.233 20.8711C118.509 21.1237 118.841 21.25 119.229 21.25ZM126.104 22.1094C125.516 22.1094 125.015 21.9492 124.601 21.6289C124.187 21.306 123.87 20.8385 123.651 20.2266C123.433 19.612 123.323 18.8698 123.323 18C123.323 17.1354 123.433 16.3971 123.651 15.7852C123.873 15.1706 124.19 14.7018 124.604 14.3789C125.021 14.0534 125.521 13.8906 126.104 13.8906C126.688 13.8906 127.187 14.0534 127.601 14.3789C128.017 14.7018 128.335 15.1706 128.554 15.7852C128.775 16.3971 128.886 17.1354 128.886 18C128.886 18.8698 128.776 19.612 128.558 20.2266C128.339 20.8385 128.022 21.306 127.608 21.6289C127.194 21.9492 126.693 22.1094 126.104 22.1094ZM126.104 21.25C126.688 21.25 127.141 20.9687 127.464 20.4062C127.787 19.8437 127.948 19.0417 127.948 18C127.948 17.3073 127.874 16.7174 127.726 16.2305C127.58 15.7435 127.369 15.3724 127.093 15.1172C126.819 14.862 126.49 14.7344 126.104 14.7344C125.526 14.7344 125.075 15.0195 124.749 15.5898C124.424 16.1576 124.261 16.9609 124.261 18C124.261 18.6927 124.334 19.2812 124.479 19.7656C124.625 20.25 124.835 20.6185 125.108 20.8711C125.384 21.1237 125.716 21.25 126.104 21.25Z" fill="white"/>
</svg>
