<svg width="1544" height="728" viewBox="0 0 1544 728" fill="none" xmlns="http://www.w3.org/2000/svg">
<rect width="1543.05" height="728" fill="white"/>
<path d="M553.036 598.604H546.708L558.23 565.877H565.549L577.086 598.604H570.758L562.017 572.589H561.761L553.036 598.604ZM553.244 585.772H570.502V590.535H553.244V585.772ZM591.069 608.32C588.991 608.32 587.207 608.038 585.716 607.473C584.224 606.919 583.026 606.174 582.12 605.236C581.214 604.299 580.586 603.26 580.234 602.12L585.444 600.858C585.678 601.337 586.019 601.811 586.467 602.28C586.914 602.759 587.516 603.153 588.272 603.462C589.039 603.782 590.004 603.942 591.165 603.942C592.805 603.942 594.164 603.542 595.24 602.743C596.316 601.955 596.854 600.655 596.854 598.844V594.194H596.566C596.268 594.791 595.831 595.403 595.256 596.032C594.691 596.66 593.94 597.188 593.002 597.614C592.076 598.04 590.909 598.253 589.503 598.253C587.617 598.253 585.907 597.811 584.373 596.927C582.85 596.032 581.635 594.7 580.73 592.932C579.835 591.152 579.387 588.926 579.387 586.252C579.387 583.557 579.835 581.282 580.73 579.428C581.635 577.564 582.855 576.152 584.389 575.194C585.923 574.224 587.633 573.739 589.519 573.739C590.957 573.739 592.14 573.984 593.066 574.475C594.004 574.954 594.75 575.535 595.304 576.216C595.858 576.888 596.278 577.521 596.566 578.118H596.886V574.059H602.591V599.004C602.591 601.103 602.09 602.839 601.088 604.214C600.087 605.588 598.718 606.616 596.982 607.298C595.245 607.979 593.274 608.32 591.069 608.32ZM591.117 593.715C592.342 593.715 593.386 593.416 594.249 592.82C595.112 592.223 595.767 591.366 596.214 590.247C596.662 589.128 596.886 587.786 596.886 586.22C596.886 584.675 596.662 583.322 596.214 582.161C595.778 581 595.128 580.1 594.265 579.46C593.413 578.81 592.363 578.486 591.117 578.486C589.828 578.486 588.752 578.821 587.889 579.492C587.026 580.163 586.376 581.085 585.939 582.257C585.502 583.418 585.284 584.739 585.284 586.22C585.284 587.722 585.502 589.038 585.939 590.167C586.387 591.286 587.042 592.159 587.905 592.788C588.778 593.406 589.849 593.715 591.117 593.715ZM624.164 588.281V574.059H629.949V598.604H624.339V594.242H624.084C623.53 595.616 622.619 596.74 621.351 597.614C620.094 598.487 618.544 598.924 616.701 598.924C615.092 598.924 613.67 598.567 612.434 597.853C611.209 597.129 610.25 596.08 609.558 594.705C608.865 593.32 608.519 591.648 608.519 589.688V574.059H614.304V588.793C614.304 590.348 614.73 591.584 615.582 592.5C616.435 593.416 617.553 593.874 618.938 593.874C619.79 593.874 620.616 593.667 621.415 593.251C622.214 592.836 622.869 592.218 623.381 591.397C623.903 590.566 624.164 589.528 624.164 588.281ZM642.96 599.1C641.405 599.1 640.004 598.823 638.758 598.269C637.522 597.704 636.542 596.873 635.817 595.776C635.103 594.679 634.747 593.326 634.747 591.717C634.747 590.332 635.002 589.187 635.514 588.281C636.025 587.376 636.723 586.651 637.607 586.108C638.491 585.565 639.487 585.155 640.595 584.878C641.714 584.59 642.87 584.382 644.063 584.254C645.501 584.105 646.668 583.972 647.563 583.855C648.457 583.727 649.107 583.535 649.512 583.28C649.928 583.013 650.135 582.603 650.135 582.049V581.953C650.135 580.749 649.778 579.817 649.065 579.157C648.351 578.496 647.323 578.166 645.981 578.166C644.564 578.166 643.44 578.475 642.609 579.093C641.788 579.711 641.234 580.44 640.947 581.282L635.546 580.515C635.972 579.024 636.675 577.777 637.655 576.776C638.635 575.764 639.834 575.007 641.25 574.506C642.667 573.995 644.233 573.739 645.949 573.739C647.131 573.739 648.308 573.878 649.48 574.155C650.652 574.432 651.723 574.89 652.692 575.529C653.662 576.158 654.439 577.015 655.025 578.102C655.622 579.189 655.92 580.547 655.92 582.177V598.604H650.359V595.233H650.167C649.816 595.915 649.32 596.554 648.681 597.15C648.053 597.736 647.259 598.21 646.3 598.573C645.352 598.924 644.239 599.1 642.96 599.1ZM644.462 594.849C645.624 594.849 646.63 594.62 647.483 594.162C648.335 593.693 648.99 593.075 649.448 592.308C649.917 591.541 650.151 590.705 650.151 589.799V586.907C649.97 587.056 649.661 587.195 649.225 587.323C648.798 587.45 648.319 587.562 647.786 587.658C647.254 587.754 646.726 587.839 646.204 587.914C645.682 587.988 645.229 588.052 644.846 588.106C643.983 588.223 643.211 588.415 642.529 588.681C641.847 588.947 641.309 589.32 640.915 589.799C640.521 590.268 640.324 590.875 640.324 591.621C640.324 592.687 640.712 593.491 641.49 594.034C642.268 594.578 643.259 594.849 644.462 594.849ZM661.737 598.604V574.059H667.346V578.15H667.602C668.049 576.733 668.816 575.641 669.903 574.874C671 574.096 672.252 573.707 673.658 573.707C673.978 573.707 674.335 573.723 674.729 573.755C675.134 573.777 675.469 573.814 675.736 573.867V579.189C675.491 579.103 675.102 579.029 674.569 578.965C674.047 578.89 673.541 578.853 673.051 578.853C671.996 578.853 671.048 579.082 670.206 579.54C669.375 579.988 668.72 580.611 668.241 581.41C667.761 582.209 667.522 583.13 667.522 584.174V598.604H661.737ZM687.677 599.036C685.748 599.036 684.023 598.541 682.499 597.55C680.976 596.559 679.772 595.121 678.888 593.235C678.003 591.35 677.561 589.059 677.561 586.364C677.561 583.636 678.009 581.335 678.904 579.46C679.809 577.575 681.029 576.152 682.563 575.194C684.097 574.224 685.807 573.739 687.693 573.739C689.131 573.739 690.313 573.984 691.24 574.475C692.167 574.954 692.902 575.535 693.445 576.216C693.989 576.888 694.41 577.521 694.708 578.118H694.948V565.877H700.748V598.604H695.059V594.737H694.708C694.41 595.334 693.978 595.968 693.414 596.639C692.849 597.299 692.103 597.864 691.176 598.333C690.249 598.802 689.083 599.036 687.677 599.036ZM689.291 594.29C690.516 594.29 691.56 593.96 692.423 593.299C693.286 592.628 693.941 591.696 694.388 590.503C694.836 589.309 695.059 587.919 695.059 586.332C695.059 584.744 694.836 583.365 694.388 582.193C693.952 581.021 693.302 580.11 692.439 579.46C691.586 578.81 690.537 578.486 689.291 578.486C688.002 578.486 686.926 578.821 686.063 579.492C685.2 580.163 684.55 581.09 684.113 582.273C683.676 583.455 683.458 584.808 683.458 586.332C683.458 587.866 683.676 589.235 684.113 590.439C684.561 591.632 685.216 592.575 686.079 593.267C686.952 593.949 688.023 594.29 689.291 594.29ZM713.976 599.1C712.421 599.1 711.02 598.823 709.773 598.269C708.537 597.704 707.557 596.873 706.833 595.776C706.119 594.679 705.762 593.326 705.762 591.717C705.762 590.332 706.018 589.187 706.529 588.281C707.041 587.376 707.738 586.651 708.623 586.108C709.507 585.565 710.503 585.155 711.611 584.878C712.729 584.59 713.885 584.382 715.079 584.254C716.517 584.105 717.683 583.972 718.578 583.855C719.473 583.727 720.123 583.535 720.528 583.28C720.943 583.013 721.151 582.603 721.151 582.049V581.953C721.151 580.749 720.794 579.817 720.08 579.157C719.367 578.496 718.339 578.166 716.996 578.166C715.579 578.166 714.455 578.475 713.624 579.093C712.804 579.711 712.25 580.44 711.962 581.282L706.561 580.515C706.987 579.024 707.69 577.777 708.671 576.776C709.651 575.764 710.849 575.007 712.266 574.506C713.683 573.995 715.249 573.739 716.964 573.739C718.147 573.739 719.324 573.878 720.496 574.155C721.668 574.432 722.738 574.89 723.708 575.529C724.677 576.158 725.455 577.015 726.041 578.102C726.638 579.189 726.936 580.547 726.936 582.177V598.604H721.375V595.233H721.183C720.831 595.915 720.336 596.554 719.697 597.15C719.068 597.736 718.275 598.21 717.316 598.573C716.368 598.924 715.254 599.1 713.976 599.1ZM715.478 594.849C716.639 594.849 717.646 594.62 718.498 594.162C719.351 593.693 720.006 593.075 720.464 592.308C720.933 591.541 721.167 590.705 721.167 589.799V586.907C720.986 587.056 720.677 587.195 720.24 587.323C719.814 587.45 719.335 587.562 718.802 587.658C718.269 587.754 717.742 587.839 717.22 587.914C716.698 587.988 716.245 588.052 715.862 588.106C714.999 588.223 714.226 588.415 713.544 588.681C712.863 588.947 712.325 589.32 711.93 589.799C711.536 590.268 711.339 590.875 711.339 591.621C711.339 592.687 711.728 593.491 712.506 594.034C713.283 594.578 714.274 594.849 715.478 594.849ZM738.537 584.222V598.604H732.753V574.059H738.282V578.23H738.569C739.134 576.856 740.034 575.764 741.27 574.954C742.516 574.144 744.056 573.739 745.888 573.739C747.582 573.739 749.058 574.102 750.315 574.826C751.582 575.551 752.563 576.6 753.255 577.974C753.958 579.348 754.304 581.016 754.294 582.976V598.604H748.509V583.871C748.509 582.23 748.083 580.946 747.231 580.02C746.389 579.093 745.222 578.629 743.731 578.629C742.719 578.629 741.819 578.853 741.03 579.301C740.253 579.737 739.64 580.371 739.193 581.202C738.756 582.033 738.537 583.04 738.537 584.222ZM769.283 599.036C767.355 599.036 765.629 598.541 764.106 597.55C762.582 596.559 761.378 595.121 760.494 593.235C759.61 591.35 759.168 589.059 759.168 586.364C759.168 583.636 759.615 581.335 760.51 579.46C761.416 577.575 762.635 576.152 764.169 575.194C765.704 574.224 767.413 573.739 769.299 573.739C770.737 573.739 771.92 573.984 772.847 574.475C773.774 574.954 774.509 575.535 775.052 576.216C775.595 576.888 776.016 577.521 776.314 578.118H776.554V565.877H782.355V598.604H776.666V594.737H776.314C776.016 595.334 775.585 595.968 775.02 596.639C774.455 597.299 773.71 597.864 772.783 598.333C771.856 598.802 770.689 599.036 769.283 599.036ZM770.897 594.29C772.122 594.29 773.166 593.96 774.029 593.299C774.892 592.628 775.547 591.696 775.995 590.503C776.442 589.309 776.666 587.919 776.666 586.332C776.666 584.744 776.442 583.365 775.995 582.193C775.558 581.021 774.908 580.11 774.045 579.46C773.193 578.81 772.144 578.486 770.897 578.486C769.608 578.486 768.532 578.821 767.669 579.492C766.806 580.163 766.156 581.09 765.72 582.273C765.283 583.455 765.064 584.808 765.064 586.332C765.064 587.866 765.283 589.235 765.72 590.439C766.167 591.632 766.822 592.575 767.685 593.267C768.559 593.949 769.629 594.29 770.897 594.29ZM799.226 599.084C796.829 599.084 794.751 598.557 792.994 597.502C791.236 596.447 789.872 594.972 788.903 593.075C787.944 591.179 787.464 588.963 787.464 586.428C787.464 583.892 787.944 581.671 788.903 579.764C789.872 577.857 791.236 576.376 792.994 575.321C794.751 574.267 796.829 573.739 799.226 573.739C801.623 573.739 803.7 574.267 805.458 575.321C807.216 576.376 808.574 577.857 809.533 579.764C810.502 581.671 810.987 583.892 810.987 586.428C810.987 588.963 810.502 591.179 809.533 593.075C808.574 594.972 807.216 596.447 805.458 597.502C803.7 598.557 801.623 599.084 799.226 599.084ZM799.258 594.45C800.558 594.45 801.644 594.093 802.518 593.379C803.391 592.655 804.041 591.685 804.467 590.471C804.904 589.256 805.123 587.903 805.123 586.412C805.123 584.91 804.904 583.551 804.467 582.337C804.041 581.112 803.391 580.137 802.518 579.412C801.644 578.688 800.558 578.326 799.258 578.326C797.926 578.326 796.818 578.688 795.934 579.412C795.06 580.137 794.405 581.112 793.968 582.337C793.542 583.551 793.329 584.91 793.329 586.412C793.329 587.903 793.542 589.256 793.968 590.471C794.405 591.685 795.06 592.655 795.934 593.379C796.818 594.093 797.926 594.45 799.258 594.45ZM827.059 598.604V574.059H832.668V578.15H832.924C833.371 576.733 834.138 575.641 835.225 574.874C836.322 574.096 837.574 573.707 838.98 573.707C839.3 573.707 839.657 573.723 840.051 573.755C840.456 573.777 840.791 573.814 841.058 573.867V579.189C840.813 579.103 840.424 579.029 839.891 578.965C839.369 578.89 838.863 578.853 838.373 578.853C837.318 578.853 836.37 579.082 835.529 579.54C834.698 579.988 834.043 580.611 833.563 581.41C833.084 582.209 832.844 583.13 832.844 584.174V598.604H827.059ZM854.757 599.084C852.296 599.084 850.17 598.573 848.381 597.55C846.602 596.516 845.233 595.057 844.274 593.171C843.315 591.275 842.836 589.043 842.836 586.476C842.836 583.951 843.315 581.735 844.274 579.828C845.243 577.91 846.596 576.419 848.333 575.353C850.069 574.277 852.109 573.739 854.453 573.739C855.966 573.739 857.393 573.984 858.736 574.475C860.089 574.954 861.282 575.7 862.315 576.712C863.359 577.724 864.18 579.013 864.776 580.579C865.373 582.134 865.671 583.988 865.671 586.14V587.914H845.552V584.015H860.126C860.115 582.907 859.876 581.921 859.407 581.058C858.938 580.185 858.283 579.498 857.441 578.997C856.61 578.496 855.641 578.246 854.533 578.246C853.35 578.246 852.312 578.533 851.417 579.109C850.522 579.673 849.824 580.419 849.324 581.346C848.833 582.262 848.583 583.269 848.572 584.366V587.77C848.572 589.198 848.833 590.423 849.355 591.445C849.877 592.457 850.607 593.235 851.545 593.778C852.482 594.311 853.58 594.578 854.837 594.578C855.678 594.578 856.44 594.46 857.122 594.226C857.804 593.981 858.395 593.624 858.896 593.155C859.396 592.687 859.775 592.106 860.03 591.413L865.431 592.021C865.091 593.448 864.441 594.695 863.482 595.76C862.534 596.815 861.319 597.635 859.838 598.221C858.358 598.796 856.664 599.084 854.757 599.084ZM889.965 580.547L884.691 581.122C884.542 580.59 884.281 580.089 883.908 579.62C883.546 579.151 883.056 578.773 882.438 578.486C881.82 578.198 881.064 578.054 880.169 578.054C878.965 578.054 877.953 578.315 877.133 578.837C876.323 579.359 875.924 580.036 875.934 580.867C875.924 581.58 876.185 582.161 876.717 582.608C877.261 583.056 878.156 583.423 879.402 583.711L883.589 584.606C885.911 585.107 887.637 585.9 888.766 586.987C889.906 588.074 890.482 589.496 890.492 591.254C890.482 592.798 890.029 594.162 889.134 595.345C888.25 596.516 887.019 597.433 885.443 598.093C883.866 598.754 882.055 599.084 880.009 599.084C877.005 599.084 874.587 598.455 872.754 597.198C870.922 595.93 869.83 594.167 869.478 591.909L875.119 591.366C875.375 592.473 875.918 593.31 876.749 593.874C877.58 594.439 878.662 594.721 879.993 594.721C881.368 594.721 882.47 594.439 883.301 593.874C884.143 593.31 884.564 592.612 884.564 591.781C884.564 591.078 884.292 590.497 883.749 590.039C883.216 589.581 882.385 589.229 881.256 588.984L877.069 588.106C874.715 587.616 872.973 586.79 871.843 585.629C870.714 584.457 870.155 582.976 870.166 581.186C870.155 579.673 870.565 578.363 871.396 577.255C872.238 576.136 873.404 575.274 874.896 574.666C876.398 574.048 878.129 573.739 880.089 573.739C882.966 573.739 885.229 574.352 886.881 575.577C888.543 576.802 889.571 578.459 889.965 580.547ZM895.262 607.809V574.059H900.951V578.118H901.287C901.585 577.521 902.006 576.888 902.549 576.216C903.093 575.535 903.828 574.954 904.755 574.475C905.681 573.984 906.864 573.739 908.302 573.739C910.198 573.739 911.908 574.224 913.432 575.194C914.966 576.152 916.18 577.575 917.075 579.46C917.981 581.335 918.434 583.636 918.434 586.364C918.434 589.059 917.991 591.35 917.107 593.235C916.223 595.121 915.019 596.559 913.496 597.55C911.972 598.541 910.246 599.036 908.318 599.036C906.912 599.036 905.745 598.802 904.818 598.333C903.892 597.864 903.146 597.299 902.581 596.639C902.027 595.968 901.596 595.334 901.287 594.737H901.047V607.809H895.262ZM900.935 586.332C900.935 587.919 901.159 589.309 901.606 590.503C902.065 591.696 902.72 592.628 903.572 593.299C904.435 593.96 905.479 594.29 906.704 594.29C907.983 594.29 909.053 593.949 909.916 593.267C910.779 592.575 911.429 591.632 911.866 590.439C912.313 589.235 912.537 587.866 912.537 586.332C912.537 584.808 912.318 583.455 911.882 582.273C911.445 581.09 910.795 580.163 909.932 579.492C909.069 578.821 907.993 578.486 906.704 578.486C905.468 578.486 904.419 578.81 903.556 579.46C902.693 580.11 902.038 581.021 901.59 582.193C901.154 583.365 900.935 584.744 900.935 586.332ZM934.094 599.084C931.697 599.084 929.62 598.557 927.862 597.502C926.104 596.447 924.74 594.972 923.771 593.075C922.812 591.179 922.333 588.963 922.333 586.428C922.333 583.892 922.812 581.671 923.771 579.764C924.74 577.857 926.104 576.376 927.862 575.321C929.62 574.267 931.697 573.739 934.094 573.739C936.491 573.739 938.568 574.267 940.326 575.321C942.084 576.376 943.442 577.857 944.401 579.764C945.371 581.671 945.855 583.892 945.855 586.428C945.855 588.963 945.371 591.179 944.401 593.075C943.442 594.972 942.084 596.447 940.326 597.502C938.568 598.557 936.491 599.084 934.094 599.084ZM934.126 594.45C935.426 594.45 936.512 594.093 937.386 593.379C938.259 592.655 938.909 591.685 939.335 590.471C939.772 589.256 939.991 587.903 939.991 586.412C939.991 584.91 939.772 583.551 939.335 582.337C938.909 581.112 938.259 580.137 937.386 579.412C936.512 578.688 935.426 578.326 934.126 578.326C932.794 578.326 931.686 578.688 930.802 579.412C929.929 580.137 929.273 581.112 928.837 582.337C928.41 583.551 928.197 584.91 928.197 586.412C928.197 587.903 928.41 589.256 928.837 590.471C929.273 591.685 929.929 592.655 930.802 593.379C931.686 594.093 932.794 594.45 934.126 594.45ZM970.165 580.547L964.892 581.122C964.743 580.59 964.482 580.089 964.109 579.62C963.746 579.151 963.256 578.773 962.638 578.486C962.021 578.198 961.264 578.054 960.369 578.054C959.165 578.054 958.153 578.315 957.333 578.837C956.523 579.359 956.124 580.036 956.135 580.867C956.124 581.58 956.385 582.161 956.918 582.608C957.461 583.056 958.356 583.423 959.602 583.711L963.789 584.606C966.112 585.107 967.837 585.9 968.967 586.987C970.107 588.074 970.682 589.496 970.692 591.254C970.682 592.798 970.229 594.162 969.334 595.345C968.45 596.516 967.219 597.433 965.643 598.093C964.066 598.754 962.255 599.084 960.21 599.084C957.205 599.084 954.787 598.455 952.955 597.198C951.122 595.93 950.03 594.167 949.679 591.909L955.32 591.366C955.575 592.473 956.119 593.31 956.95 593.874C957.781 594.439 958.862 594.721 960.194 594.721C961.568 594.721 962.67 594.439 963.501 593.874C964.343 593.31 964.764 592.612 964.764 591.781C964.764 591.078 964.492 590.497 963.949 590.039C963.416 589.581 962.585 589.229 961.456 588.984L957.269 588.106C954.915 587.616 953.173 586.79 952.044 585.629C950.914 584.457 950.355 582.976 950.366 581.186C950.355 579.673 950.765 578.363 951.596 577.255C952.438 576.136 953.604 575.274 955.096 574.666C956.598 574.048 958.329 573.739 960.289 573.739C963.166 573.739 965.43 574.352 967.081 575.577C968.743 576.802 969.771 578.459 970.165 580.547ZM987.719 574.059V578.533H973.609V574.059H987.719ZM977.093 568.178H982.877V591.222C982.877 591.999 982.994 592.596 983.229 593.011C983.474 593.416 983.794 593.693 984.188 593.842C984.582 593.992 985.019 594.066 985.498 594.066C985.86 594.066 986.191 594.04 986.489 593.986C986.798 593.933 987.032 593.885 987.192 593.842L988.167 598.365C987.858 598.471 987.416 598.589 986.84 598.716C986.276 598.844 985.583 598.919 984.763 598.94C983.314 598.983 982.009 598.764 980.848 598.285C979.687 597.795 978.765 597.038 978.083 596.016C977.412 594.993 977.082 593.715 977.093 592.18V568.178ZM999.62 599.1C998.065 599.1 996.664 598.823 995.418 598.269C994.182 597.704 993.202 596.873 992.477 595.776C991.764 594.679 991.407 593.326 991.407 591.717C991.407 590.332 991.662 589.187 992.174 588.281C992.685 587.376 993.383 586.651 994.267 586.108C995.151 585.565 996.147 585.155 997.255 584.878C998.374 584.59 999.53 584.382 1000.72 584.254C1002.16 584.105 1003.33 583.972 1004.22 583.855C1005.12 583.727 1005.77 583.535 1006.17 583.28C1006.59 583.013 1006.8 582.603 1006.8 582.049V581.953C1006.8 580.749 1006.44 579.817 1005.72 579.157C1005.01 578.496 1003.98 578.166 1002.64 578.166C1001.22 578.166 1000.1 578.475 999.269 579.093C998.449 579.711 997.895 580.44 997.607 581.282L992.206 580.515C992.632 579.024 993.335 577.777 994.315 576.776C995.295 575.764 996.494 575.007 997.911 574.506C999.328 573.995 1000.89 573.739 1002.61 573.739C1003.79 573.739 1004.97 573.878 1006.14 574.155C1007.31 574.432 1008.38 574.89 1009.35 575.529C1010.32 576.158 1011.1 577.015 1011.69 578.102C1012.28 579.189 1012.58 580.547 1012.58 582.177V598.604H1007.02V595.233H1006.83C1006.48 595.915 1005.98 596.554 1005.34 597.15C1004.71 597.736 1003.92 598.21 1002.96 598.573C1002.01 598.924 1000.9 599.1 999.62 599.1ZM1001.12 594.849C1002.28 594.849 1003.29 594.62 1004.14 594.162C1005 593.693 1005.65 593.075 1006.11 592.308C1006.58 591.541 1006.81 590.705 1006.81 589.799V586.907C1006.63 587.056 1006.32 587.195 1005.88 587.323C1005.46 587.45 1004.98 587.562 1004.45 587.658C1003.91 587.754 1003.39 587.839 1002.86 587.914C1002.34 587.988 1001.89 588.052 1001.51 588.106C1000.64 588.223 999.871 588.415 999.189 588.681C998.507 588.947 997.969 589.32 997.575 589.799C997.181 590.268 996.984 590.875 996.984 591.621C996.984 592.687 997.373 593.491 998.15 594.034C998.928 594.578 999.919 594.849 1001.12 594.849ZM1021.96 598.956C1020.99 598.956 1020.16 598.615 1019.47 597.933C1018.78 597.252 1018.43 596.421 1018.45 595.44C1018.43 594.482 1018.78 593.661 1019.47 592.979C1020.16 592.298 1020.99 591.957 1021.96 591.957C1022.9 591.957 1023.71 592.298 1024.41 592.979C1025.11 593.661 1025.47 594.482 1025.48 595.44C1025.47 596.09 1025.3 596.682 1024.96 597.214C1024.65 597.747 1024.22 598.173 1023.69 598.493C1023.16 598.802 1022.59 598.956 1021.96 598.956ZM1035.01 598.956C1034.04 598.956 1033.21 598.615 1032.52 597.933C1031.83 597.252 1031.49 596.421 1031.5 595.44C1031.49 594.482 1031.83 593.661 1032.52 592.979C1033.21 592.298 1034.04 591.957 1035.01 591.957C1035.95 591.957 1036.76 592.298 1037.46 592.979C1038.16 593.661 1038.52 594.482 1038.53 595.44C1038.52 596.09 1038.35 596.682 1038.02 597.214C1037.7 597.747 1037.27 598.173 1036.74 598.493C1036.22 598.802 1035.64 598.956 1035.01 598.956ZM1048.06 598.956C1047.09 598.956 1046.26 598.615 1045.57 597.933C1044.88 597.252 1044.54 596.421 1044.55 595.44C1044.54 594.482 1044.88 593.661 1045.57 592.979C1046.26 592.298 1047.09 591.957 1048.06 591.957C1049 591.957 1049.82 592.298 1050.51 592.979C1051.21 593.661 1051.57 594.482 1051.58 595.44C1051.57 596.09 1051.4 596.682 1051.07 597.214C1050.75 597.747 1050.32 598.173 1049.79 598.493C1049.27 598.802 1048.69 598.956 1048.06 598.956Z" fill="#5A7DA0"/>
<path d="M991.439 382.817C988.453 451 933.751 504.675 867.345 504.675H589.041C549.652 504.675 522.591 463.827 537.172 426.223C556.61 374.845 619.947 412.864 590.928 369.656C562.799 327.765 546.05 276.646 570.055 252.022C625.622 195.025 691.217 270.618 727.271 259.667C738.771 255.933 784.433 226.419 802.189 221.131C915.341 179.237 1001.15 278.383 991.439 382.817Z" fill="#E3F0FF"/>
<path d="M556.013 366.211C559.089 359.991 531.881 328.291 519.386 336.372C506.89 344.452 505.592 360.851 524.223 366.803C541.833 372.428 552.941 372.431 556.013 366.211Z" fill="#E3F0FF"/>
<path d="M616.921 233.174L613.108 210.748C613.021 210.249 612.532 209.909 612.012 209.991C611.495 210.075 611.143 210.547 611.227 211.046L614.954 232.952L598.866 245.887C598.461 246.212 598.405 246.792 598.741 247.183C598.931 247.399 599.202 247.513 599.476 247.513C599.691 247.513 599.905 247.444 600.083 247.3L616.588 234.028C616.85 233.82 616.974 233.493 616.921 233.174Z" fill="#C7DEFF"/>
<path d="M642.28 244.565L620.125 236.887C619.807 236.779 619.453 236.839 619.194 237.047L602.689 250.319C602.284 250.644 602.228 251.224 602.564 251.615C602.754 251.831 603.025 251.945 603.296 251.945C603.511 251.945 603.729 251.876 603.906 251.732L619.994 238.796L641.636 246.297C642.131 246.468 642.676 246.218 642.853 245.741C643.03 245.263 642.775 244.736 642.28 244.565Z" fill="#C7DEFF"/>
<path d="M609.789 231.703C609.867 232.154 610.269 232.473 610.726 232.473C610.779 232.473 610.829 232.47 610.882 232.461C611.402 232.38 611.754 231.908 611.667 231.406L608.75 214.25C608.666 213.751 608.174 213.411 607.657 213.492C607.137 213.577 606.785 214.049 606.873 214.548L609.789 231.703Z" fill="#C7DEFF"/>
<path d="M637.92 248.067L620.97 242.193C620.475 242.021 619.934 242.271 619.753 242.749C619.576 243.227 619.834 243.753 620.329 243.924L637.279 249.798C637.385 249.834 637.494 249.852 637.6 249.852C637.989 249.852 638.356 249.618 638.496 249.242C638.674 248.764 638.415 248.238 637.92 248.067Z" fill="#C7DEFF"/>
<path d="M830.236 373.896L807.197 369.248C806.68 369.143 806.175 369.462 806.07 369.961C805.961 370.457 806.291 370.944 806.804 371.046L829.314 375.588L836.011 394.74C836.179 395.221 836.72 395.48 837.218 395.318C837.495 395.224 837.704 395.023 837.801 394.776C837.878 394.584 837.888 394.365 837.816 394.151L830.943 374.503C830.834 374.193 830.566 373.965 830.236 373.896Z" fill="#C7DEFF"/>
<path d="M850.386 355.167L834.982 372.35C834.761 372.597 834.693 372.937 834.799 373.246L841.672 392.895C841.84 393.376 842.382 393.634 842.88 393.472C843.157 393.382 843.366 393.177 843.462 392.931C843.54 392.738 843.55 392.519 843.478 392.305L836.779 373.156L851.824 356.37C852.169 355.985 852.126 355.408 851.727 355.074C851.332 354.743 850.731 354.785 850.386 355.167Z" fill="#C7DEFF"/>
<path d="M852.197 360.353L840.412 373.498C840.066 373.883 840.11 374.463 840.508 374.794C840.907 375.128 841.508 375.086 841.85 374.701L853.636 361.555C853.71 361.474 853.766 361.381 853.804 361.285C853.944 360.933 853.85 360.521 853.539 360.26C853.141 359.929 852.54 359.968 852.197 360.353Z" fill="#C7DEFF"/>
<path d="M708.207 452.699C708.207 452.699 598.897 171.368 520.57 243.72C505.581 261.955 523.151 293.111 555.427 329.242C587.702 365.37 681.581 459.292 694.883 474.193L708.207 452.699Z" fill="#5A789F"/>
<path d="M708.206 452.699C708.206 452.699 640.557 278.597 573.562 239.544C575.044 243.272 575.953 247.297 574.524 249.853C571.249 255.709 556.481 258.393 552.26 268.109C548.649 276.427 554.386 308.536 541.43 312.684C545.688 318.062 550.376 323.591 555.426 329.242C587.702 365.37 681.581 459.292 694.883 474.193L708.206 452.699Z" fill="#5A789F"/>
<path d="M533.169 245.996C540.774 251.909 548.055 258.213 555.206 264.631C596.899 302.469 633.838 345.43 663.529 392.705C669.239 401.853 674.808 411.452 679.854 420.96C681.977 424.922 684.346 429.624 686.339 433.652C687.627 436.322 689.452 440.148 690.675 442.848L691.519 444.694L692.337 446.555L693.156 448.412L693.969 450.273C684.222 430.898 673.376 412.089 661.481 393.926C649.602 375.75 636.761 358.182 623.157 341.177C602.735 315.675 580.652 291.398 557.208 268.434C549.388 260.795 541.4 253.219 533.169 245.996Z" fill="#5AA5D1"/>
<path d="M544.611 379.619C544.611 379.619 523.53 371.313 509.257 387.592C497.222 401.321 516.541 438.591 536.493 456.631C536.493 456.631 516.921 468.469 516.258 482.108C515.595 495.744 538.628 510.138 571.231 514.208L574.524 398.555L544.611 379.619Z" fill="#5A789F"/>
<path d="M542.212 378.858C544.183 389.948 545.618 407.164 548.659 425.892C553.438 455.323 564.38 498.043 527.117 499.011C536.845 506.091 552.448 511.862 571.232 514.207L574.525 398.554L544.612 379.618C544.612 379.618 543.731 379.27 542.212 378.858Z" fill="#5A789F"/>
<path d="M519.287 389.846C534.955 405.303 550.063 421.374 564.94 437.541C569.261 442.216 573.852 447.089 578.052 451.851C586.13 461.083 593.934 470.621 601.228 480.445C601.608 480.968 601.991 481.485 602.368 482.012L602.131 482.201C591.192 471.259 580.62 459.685 570.553 447.991C567.374 444.239 563.691 439.946 560.46 436.237C550.262 424.597 539.955 412.951 529.554 401.483C526.08 397.653 522.593 393.832 519.066 390.05L519.287 389.846Z" fill="#5AA5D1"/>
<path d="M529.393 481.961C537.381 482.478 545.441 482.117 553.363 481.062C557.307 480.527 561.22 479.826 565.053 478.786C568.222 477.921 571.325 476.859 574.426 475.798C577.831 474.626 581.184 473.303 584.447 471.791C586.563 470.808 588.596 469.753 590.67 468.662L590.859 468.893C589.835 469.972 588.677 471.009 587.504 471.935C582.317 475.994 576.147 478.898 569.682 480.47C559.141 482.974 548.205 483.822 537.387 483.112C534.694 482.932 532.014 482.676 529.353 482.252L529.393 481.961Z" fill="#5AA5D1"/>
<mask id="mask0_1949_925" style="mask-type:luminance" maskUnits="userSpaceOnUse" x="561" y="261" width="155" height="255">
<path d="M561.732 261.137H715.54V515.987H561.732V261.137Z" fill="white"/>
</mask>
<g mask="url(#mask0_1949_925)">
<path d="M703.257 515.955H574.104C567.588 515.955 562.306 510.857 562.306 504.565V272.943C562.306 266.651 567.588 261.55 574.104 261.55H703.257C709.775 261.55 715.058 266.651 715.058 272.943V504.565C715.058 510.857 709.775 515.955 703.257 515.955Z" fill="#303C72"/>
</g>
<path d="M698.793 509.29H578.571C573.161 509.29 568.774 505.054 568.774 499.832V277.671C568.774 272.449 573.161 268.217 578.571 268.217H698.793C704.203 268.217 708.586 272.449 708.586 277.671V499.832C708.586 505.054 704.203 509.29 698.793 509.29Z" fill="#D4EBFF"/>
<path d="M698.793 268.217H578.571C573.161 268.217 568.774 272.449 568.774 277.671V289.293H708.586V277.671C708.586 272.449 704.203 268.217 698.793 268.217Z" fill="#8CCBFF"/>
<path d="M667.26 381.324C667.26 381.324 681.191 371.975 692.086 389.492C702.985 407.011 715.011 441.781 718.413 452.588C721.816 463.392 708.722 469.131 700.625 460.885C692.525 452.639 672.403 415.221 667.799 406.016C663.195 396.812 660.387 386.527 667.26 381.324Z" fill="#9E5959"/>
<path d="M704.035 446.589L715.245 443.06C714.183 439.997 711.593 432.846 711.593 432.846C711.593 432.846 705.374 440.505 704.035 446.589Z" fill="#914D4D"/>
<path d="M690.979 447.368C690.926 443.785 690.892 438.085 691.054 432.295C691.319 422.763 689.762 401.245 689.762 401.245L676.656 422.679C681.039 430.654 686.269 439.832 690.979 447.368Z" fill="#914D4D"/>
<path d="M669.105 378.831C669.105 378.831 657.244 383.858 663.193 398.858C669.142 413.862 688.247 445.06 693.965 454.541C699.684 464.023 707.871 468.529 714.103 465.336C720.336 462.141 720.69 456.583 718.206 448.06C715.719 439.541 699.435 400.527 695.335 392.551C691.232 384.579 680.791 372.726 669.105 378.831Z" fill="white"/>
<path d="M710.488 427.697C706.856 432.3 702.292 443.545 702.292 443.545L714.728 438.381C713.495 435.188 712.042 431.53 710.488 427.697Z" fill="#D4EBFF"/>
<path d="M693.908 454.443C694.026 447.634 694.222 432.399 693.843 423.823C693.348 412.54 691.084 398.859 691.084 398.859L682.106 434.699C687.044 443.14 691.561 450.553 693.908 454.443Z" fill="#D4EBFF"/>
<path d="M745.195 403.59C745.195 403.59 754.718 407.02 759.829 418.178L755.247 421.816L742.443 409.298L745.195 403.59Z" fill="#ABD3FC"/>
<path d="M706.435 464.246C710.763 465.692 715.569 464.405 718.645 461.128C726.984 452.239 754.454 422.659 760.119 412.762C766.822 401.059 758.018 399.367 749.828 406.627C741.641 413.887 728.245 424.88 722.004 429.945C711.843 438.194 701.931 444.336 698.749 450.583C696.521 454.954 699.957 462.081 706.435 464.246Z" fill="#9E5959"/>
<path d="M752.232 423.551C747.97 428.457 739.711 419.18 742.547 414.62C742.594 414.547 751.058 404.405 752.197 400.59C753.396 396.571 752.811 394.623 757.094 391.057C760.739 388.027 763.174 385.968 765.007 386.25C766.95 386.551 765.272 389.055 763.298 390.739C761.163 392.563 757.938 397.944 760.985 397.797C763.414 397.677 771.205 396.114 773.559 395.098C777.394 393.441 786.991 384.459 789.252 389.197C789.252 389.197 791.739 388.797 791.571 391.574C791.571 391.574 794.578 392.503 791.845 395.933C791.845 395.933 793.597 397.466 791.848 399.439C790.662 400.776 785.472 405.34 782.029 407.91C778.589 410.48 764.665 412.158 759.737 415.031C758.168 415.948 753.206 422.43 752.232 423.551Z" fill="#F6AF9A"/>
<path d="M759.746 396.907C759.97 399.763 760.963 402.078 759.983 404.945C762.408 402.682 760.275 399.318 759.746 396.907Z" fill="#E57E73"/>
<path d="M791.843 395.933C790.405 395.708 789.294 396.841 788.254 397.605C785.017 399.962 781.969 402.67 778.576 404.753C782.607 403.818 785.309 400.241 788.481 397.863C789.397 396.965 790.645 395.96 791.843 395.933Z" fill="#E57E73"/>
<path d="M791.57 391.575C788.532 391.839 786.331 394.16 783.972 395.777C781.581 397.364 779.455 399.709 777.052 400.999C778.552 400.827 779.832 399.871 780.962 398.961C784.408 396.505 787.474 392.642 791.57 391.575Z" fill="#E57E73"/>
<path d="M789.251 389.197C783.735 389.981 780.117 394.893 775.551 397.457C780.812 396.15 783.943 390.201 789.251 389.197Z" fill="#E57E73"/>
<path d="M776.461 405.74C770.658 403.943 762.857 402.74 757.799 406.765C763.358 403.615 770.387 404.884 776.461 405.74Z" fill="#EA9A88"/>
<path d="M775.18 397.308C776.232 398.189 776.568 399.55 776.898 400.804C777.951 401.76 778.159 403.317 778.424 404.634C778.959 405.012 778.972 405.761 778.978 406.344C778.831 405.749 778.604 405.109 778.063 404.811C777.624 403.645 777.344 402.105 776.4 401.246C775.818 400.134 775.846 398.558 774.878 397.593C774.576 396.983 774.392 396.262 773.863 395.763C774.47 396.105 774.872 396.704 775.18 397.308Z" fill="#EA9A88"/>
<path d="M745.195 403.59C745.195 403.59 748.875 415.179 759.83 418.179C759.83 418.179 728.771 455.383 720.69 461.861C712.612 468.343 700.471 465.421 696.162 455.861C692.013 446.653 745.195 403.59 745.195 403.59Z" fill="white"/>
<path d="M654.874 485.917C641.314 490.216 635.817 500.019 634.173 509.29H686.061C684.974 503.286 683.751 498.759 682.384 496.423C673.808 481.75 654.874 485.917 654.874 485.917Z" fill="#F6AF9A"/>
<path d="M655.326 479.454C639.553 482.502 631.512 492.852 630.979 509.29H689.98C689.89 508.668 689.8 508.063 689.71 507.477C685.323 479.201 655.326 479.454 655.326 479.454Z" fill="#384682"/>
<path d="M616.022 443.978C617.927 464.792 612.162 477.373 609.693 490.029C608.392 496.706 608.043 503.298 608.946 509.29H678.958C683.26 499.658 682.503 490.167 682.643 485.033C682.883 476.39 683.605 461.958 683.605 461.958C686.155 423.788 614.12 423.16 616.022 443.978Z" fill="#F6AF9A"/>
<path d="M611.411 478.71C611.411 478.71 604.634 494.887 607.137 509.289H680.19C684.165 496.203 683.869 479.453 683.869 479.453C674.558 480.902 611.411 478.71 611.411 478.71Z" fill="#384682"/>
<path d="M606.386 509.289H657.962C657.719 485.928 637.687 484.359 637.687 484.359C621.948 482.76 610.28 487.365 606.386 509.289Z" fill="#F6AF9A"/>
<path d="M603.724 509.235C603.721 509.253 603.721 509.271 603.718 509.289H663.478C663.148 492.563 652.088 481.756 633.593 479.477C633.593 479.477 607.136 477.535 603.724 509.235Z" fill="#384682"/>
<path d="M630.846 371.076C643.426 369.038 653.465 370.703 665.307 374.052C673.23 376.292 681.719 378.45 685.554 383.627C692.288 392.714 689.218 415.164 687.497 425.557C685.775 435.946 684.471 457.674 683.528 463.257C682.584 468.839 656.933 477.602 641.231 475.321C629.193 473.571 618.176 467.874 616.607 457.229C614.761 444.676 611.617 426.678 607.969 415.741C604.32 404.808 598.589 382.036 616.663 374.416C620.053 372.988 627.534 371.611 630.846 371.076Z" fill="#F6AF9A"/>
<path d="M660.529 359.502C660.529 359.502 660.121 370.844 662.726 376.042C665.329 381.236 656.416 384.468 650.623 384.42C644.83 384.372 635.933 381.239 634.893 374.502C633.856 367.763 638.124 370.312 637.318 351.995C636.689 337.671 662.15 345.388 660.529 359.502Z" fill="#F6AF9A"/>
<path d="M661.911 373.919C660.214 368.27 660.528 359.502 660.528 359.502C661.814 348.295 646.028 341.123 639.787 345.818C639.532 347.414 639.414 349.212 639.463 351.241C639.488 352.296 650.116 372.106 661.911 373.919Z" fill="#EA9A88"/>
<path d="M688.729 481.79C687.876 475.591 688.729 445.217 688.85 440.861C688.972 436.502 691.304 413.661 691.054 406.834C690.802 400.004 688.835 386.323 687.076 382.214C685.314 378.107 672.037 374.969 665.086 373.92L661.658 372.988C661.658 372.988 662.757 376.827 656.895 377.801C648.266 379.235 638.883 374.154 634.998 370.526C634.998 370.526 632.71 370.243 631.16 370.523C631.16 370.523 616.149 372.844 612.217 374.371C608.286 375.898 602.629 382.581 602.387 394.001C602.141 405.421 608.118 426.762 609.824 437.696C611.533 448.632 610.434 467.351 609.702 473.827C608.971 480.302 601.898 500.906 601.776 509.029C601.776 509.029 602.673 509.128 604.257 509.29H673.899C683.754 508.316 691.048 507.465 691.655 507.027C691.655 507.027 689.837 501.73 689.71 497.374C689.582 493.018 689.582 487.989 688.729 481.79Z" fill="#85B9F1"/>
<path d="M655.965 379.95C659.787 379.908 665.238 387.73 665.238 387.73C666.95 384.742 668.547 378.387 669.379 374.689C667.813 374.368 666.343 374.109 665.086 373.92L661.658 372.988C661.658 372.988 662.757 376.827 656.895 377.801C648.266 379.235 638.883 374.154 634.998 370.526C634.998 370.526 632.71 370.243 631.16 370.523C631.16 370.523 630.245 370.664 628.81 370.902L626.833 373.845L650.865 392.564C650.865 392.564 650.794 391.326 651.641 387.159C653.004 380.434 655.965 379.95 655.965 379.95Z" fill="#75AEEB"/>
<path d="M624.044 434.44C625.971 420.221 626.721 394.966 626.721 394.966C626.721 394.966 613.578 399.962 602.906 401.91C604.37 413.568 608.46 428.956 609.824 437.695C611.533 448.629 610.434 467.351 609.702 473.826C608.971 480.302 601.898 500.906 601.776 509.029C601.776 509.029 602.673 509.128 604.257 509.29H626.954C613.905 502.448 614.649 482.4 616.37 471.325C618.394 458.285 622.587 445.199 624.044 434.44Z" fill="#75AEEB"/>
<path d="M656.507 382.105C658.297 382.042 658.686 379.084 658.757 377.323C658.231 377.518 657.615 377.68 656.893 377.801C655.411 378.047 653.904 378.101 652.41 378.005C653.055 379.391 654.592 382.172 656.507 382.105Z" fill="#384682"/>
<path d="M655.014 380.412C655.014 380.412 664.409 421.916 665.237 431.054L671.074 441.777L673.53 427.696C673.53 427.696 663.771 394.106 657.327 379.995L655.014 380.412Z" fill="#384682"/>
<path d="M655.547 377.972C655.547 377.972 660.388 375.669 661.655 372.988C661.655 372.988 663.744 372.924 664.609 373.339C664.609 373.339 666.019 380.434 664.609 384.961C664.609 384.961 659.822 378.702 656.052 379.018C652.273 379.336 649.817 387.904 649.817 387.904C649.817 387.904 636.394 377.764 634.731 370.553L635.111 370.132C635.111 370.132 646.576 376.61 655.547 377.972Z" fill="#96C3F2"/>
<path d="M680.61 319.171C680.61 319.171 682.474 327.745 679.866 337.803L674.104 318.832L680.61 319.171Z" fill="#8C4949"/>
<path d="M656.897 302.697C656.897 302.697 675.584 303.758 678.604 319.805C681.623 335.852 679.734 364.879 668.879 368.057C658.973 370.958 643.688 361.055 637.254 351.117C630.483 340.659 628.08 327.326 632.064 317.244C635.554 308.418 642.203 301.933 656.897 302.697Z" fill="#F6AF9A"/>
<path d="M648.401 321.462C648.401 321.462 646.493 324.194 647.019 328.322C647.361 331.009 646.293 331.977 643.395 335.894C640.494 339.811 641.166 340.04 640.313 344.357C639.46 348.67 637.378 359.249 637.322 360.094C637.262 360.942 634.576 357.972 632.565 352.085C630.557 346.199 626.289 334.779 625.922 324.3C625.558 313.823 635.557 303.226 645.801 302.165C645.801 302.165 655.558 297.926 664.95 301.696C674.338 305.463 681.256 311.196 680.857 320.632L678.809 320.698C678.809 320.698 677.249 319.592 676.751 319.303C674.479 317.987 672.629 318.639 670.565 319.938C670.565 319.938 662.534 323.837 658.266 323.368C658.266 323.368 653.394 324.823 648.401 321.462Z" fill="#8C4949"/>
<path d="M640.044 311.905C640.044 311.905 638.833 319.649 647.331 323.921C647.77 322.369 648.399 321.462 648.399 321.462C648.399 321.462 641.031 317.049 640.044 311.905Z" fill="#7D4141"/>
<path d="M644.978 305.62C644.903 309.386 645.837 313.399 648.723 316.072C652.159 319.198 658.563 319.829 663.132 319.715C662.575 319.922 661.996 320.079 661.411 320.202C657.047 321.08 651.823 320.662 648.222 317.905C644.573 315.032 643.474 309.819 644.978 305.62Z" fill="#7D4141"/>
<path d="M649.712 303.618C652.23 302.806 654.901 302.523 657.553 302.536C662.917 302.584 668.449 304.225 672.383 307.85C674.351 309.648 675.848 311.881 676.707 314.286C675.935 313.252 675.144 312.263 674.273 311.355C671.72 308.653 668.449 306.636 664.875 305.445C660.022 303.816 654.83 303.455 649.712 303.618Z" fill="#7D4141"/>
<path d="M647.642 305.62C652.663 305.974 657.584 307.252 662.26 309.038C665.852 310.426 669.329 312.374 671.929 315.185C672.324 315.618 672.694 316.078 672.996 316.574C672.772 316.384 672.542 316.207 672.308 316.039C672.131 315.909 671.779 315.663 671.599 315.54C668.993 313.79 666.142 312.404 663.216 311.238C658.076 309.215 652.834 307.571 647.642 305.62Z" fill="#7D4141"/>
<path d="M650.898 310.095C654.186 313.086 658.444 314.634 662.64 316.065C664.063 316.546 665.514 316.976 666.98 317.526C666.198 317.61 665.42 317.619 664.636 317.595C660.72 317.412 656.76 316.204 653.706 313.76C652.517 312.762 651.387 311.565 650.898 310.095Z" fill="#7D4141"/>
<path d="M644.175 340.987C644.175 340.987 644.135 332.534 638.914 332.476C633.691 332.419 633.719 339.496 637.087 344.086C638.97 346.656 644.197 349.894 644.175 340.987Z" fill="#F6AF9A"/>
<path d="M638.428 338.177C639.455 338.234 640.265 338.778 640.831 339.331C640.685 338.36 640.271 337.422 639.321 336.839C639.075 336.689 639.004 336.376 639.159 336.139C639.315 335.901 639.636 335.832 639.885 335.982C643.275 338.059 641.507 343.137 641.429 343.35C641.335 343.615 641.037 343.756 640.763 343.663C640.756 343.663 640.753 343.66 640.747 343.66C640.482 343.564 640.342 343.281 640.436 343.019C640.442 342.998 640.744 342.133 640.856 341.026C640.85 341.017 640.837 341.008 640.831 340.996C640.822 340.981 639.86 339.271 638.369 339.19C638.079 339.175 637.858 338.934 637.874 338.655C637.889 338.375 638.138 338.162 638.428 338.177Z" fill="#E57E73"/>
<path d="M599.188 509.29H693.245C691.897 495.609 690.222 475.32 689.824 466.061C689.288 453.583 691.605 420.1 691.654 409.66C691.704 399.219 688.579 384.618 688.579 384.618C688.165 383.419 687.293 379.899 679.504 377.097C671.715 374.298 664.814 373.844 664.814 373.844C671.535 390.586 669.633 433.556 669.633 433.556C669.633 433.556 663.55 417.59 655.014 400.082C647.524 384.721 630.543 370.522 630.543 370.522C622.527 370.775 608.562 373.977 608.562 373.977C594.637 388.722 603.905 419.141 606.23 435.341C608.552 451.541 606.454 468.583 600.297 502.282C599.911 504.393 599.54 506.744 599.188 509.29Z" fill="white"/>
<path d="M669.752 429.937L669.633 434.464C675.287 396.884 672.152 377.029 671.632 374.879C667.601 374.029 664.814 373.845 664.814 373.845C670.353 387.637 670.035 419.238 669.752 429.937Z" fill="#ABD3FC"/>
<path d="M669.385 432.909C668.162 429.762 662.546 415.522 655.015 400.082C647.525 384.721 630.544 370.522 630.544 370.522C628.169 370.598 625.27 370.931 622.369 371.364C622.369 371.364 663.137 414.647 669.634 434.463L669.385 432.909Z" fill="#ABD3FC"/>
<path d="M667.662 509.29H668.907C670.143 483.99 671.015 458.69 669.633 433.556C670.374 458.759 668.951 484.119 667.662 509.29Z" fill="#ABD3FC"/>
<path d="M606.23 435.341C608.552 451.541 606.454 468.583 600.297 502.282C599.911 504.392 599.54 506.743 599.188 509.289H609.844L611.799 489.818C612.31 484.35 614.262 463.569 614.906 457.541C615.653 450.582 617.144 449.62 620.874 430.287C624.603 410.955 625.493 394.208 625.493 394.208L602.466 414.394C603.712 422.225 605.408 429.626 606.23 435.341Z" fill="#D4EBFF"/>
<path d="M663.136 373.03C663.136 373.03 668.11 392.02 669.633 433.556C669.633 433.556 672.086 408.701 671.466 392.738C670.844 376.778 670.383 374.629 670.383 374.629C670.383 374.629 665.184 372.618 663.136 373.03Z" fill="white"/>
<path d="M669.634 433.556C655.015 400.082 623.701 371.172 623.701 371.172C626.842 369.648 635.113 370.132 635.113 370.132C635.113 370.132 647.304 383.497 655.806 399.46C667.255 420.96 669.634 433.556 669.634 433.556Z" fill="white"/>
<path d="M609.508 374.633C609.508 374.633 626.421 375.943 623.324 396.16C620.226 416.373 606.657 450.61 602.183 461.048C597.71 471.482 584.389 468.076 583.555 456.74C582.718 445.407 591.194 403.979 593.691 394.043C596.185 384.111 600.776 374.443 609.508 374.633Z" fill="#F6AF9A"/>
<path d="M612.216 374.37C612.216 374.37 599.804 369.458 592.906 392.858C586.004 416.258 581.531 447.402 581.344 457.842C581.157 468.282 591.763 473.438 598.497 469.542C605.233 465.649 612.505 441.407 616.876 429.058C623.7 409.779 634.325 379.102 612.216 374.37Z" fill="white"/>
<path d="M583.415 455.732C583.415 455.732 583.3 488.942 584.831 509.29H599.447C600.527 500.073 601.885 489.979 602.657 484.438C604.428 471.737 606.037 461.622 606.227 453.535C606.476 442.968 584.165 440.75 583.415 455.732Z" fill="#F6AF9A"/>
<path d="M595.475 438.94C595.475 438.94 582.646 440.023 581.342 455.501C580.361 467.156 580.221 491.87 580.691 509.29H604.799C606.838 488.286 610.439 450.824 610.514 447.37C610.62 442.542 601.776 437.861 595.475 438.94Z" fill="white"/>
<path d="M707.822 466.158V499.833C707.822 504.639 703.769 508.55 698.792 508.55H578.57C573.589 508.55 569.539 504.639 569.539 499.833V277.671C569.539 272.865 573.589 268.954 578.57 268.954H698.792C703.769 268.954 707.822 272.865 707.822 277.671V421.182C708.261 422.247 708.697 423.305 709.127 424.36C709.267 424.225 709.351 424.041 709.351 423.837V277.671C709.351 272.05 704.613 267.478 698.792 267.478H578.57C572.746 267.478 568.011 272.05 568.011 277.671V499.833C568.011 505.454 572.746 510.026 578.57 510.026H698.792C704.613 510.026 709.351 505.454 709.351 499.833V466.341C708.847 466.317 708.336 466.257 707.822 466.158Z" fill="white"/>
<path d="M665.786 272.939H611.579C608.254 272.939 605.559 270.336 605.559 267.129V265.914H671.804V267.129C671.804 270.336 669.111 272.939 665.786 272.939Z" fill="#303C72"/>
<path d="M1000.28 319.333C1002.04 318.136 1003.97 317.219 1006.03 316.603C1014.5 314.054 1036.41 309.845 1053.02 327.606C1070.75 346.559 1045.09 400.301 1017.63 426.773C1017.63 426.773 1045.96 442.717 1047.54 462.041C1049.12 481.365 1017.11 502.805 971.041 510.01L960.914 346.027L1000.28 319.333Z" fill="#5A789F"/>
<path d="M1005.85 316.658C1003.57 332.483 1002.35 356.977 998.911 383.687C993.517 425.665 980 486.774 1032.93 486.512C1019.46 496.983 997.582 505.86 971.041 510.011L960.914 346.028L1000.28 319.331C1001.97 318.185 1003.82 317.28 1005.78 316.679L1005.85 316.658Z" fill="#5A789F"/>
<path d="M1039.18 331.485C1018.59 354.867 998.56 378.802 978.768 402.821C973.149 409.675 967.081 417.296 961.438 424.138C949.823 438.135 937.804 452.372 925.629 465.908L925.386 465.728C925.915 464.98 926.45 464.237 926.983 463.495C929.66 459.794 932.402 456.084 935.139 452.444C942.828 442.253 950.822 432.092 958.944 422.22C967.057 412.435 975.676 402.581 983.942 392.91C994.644 380.446 1005.64 367.893 1016.62 355.661C1021.44 350.277 1026.54 344.661 1031.43 339.349C1033.92 336.653 1036.42 333.956 1038.95 331.287L1039.18 331.485Z" fill="#5AA5D1"/>
<path d="M1028.96 462.764C1011.02 465.719 992.494 465.475 974.641 462.057C972.776 461.693 970.831 461.266 968.997 460.797C961.081 458.726 953.448 455.413 946.714 450.88C945.796 450.264 944.691 449.467 943.822 448.788C942.894 448.069 941.961 447.297 941.089 446.518L941.269 446.281C942.944 447.18 944.594 448.084 946.278 448.92C947.894 449.732 949.706 450.592 951.368 451.322C956.053 453.408 960.909 455.152 965.822 456.667C970.743 458.191 975.721 459.589 980.789 460.602C994.726 463.269 1009.06 463.906 1023.23 462.986C1025.12 462.86 1027.02 462.703 1028.91 462.472L1028.96 462.764Z" fill="#5AA5D1"/>
<mask id="mask1_1949_925" style="mask-type:luminance" maskUnits="userSpaceOnUse" x="834" y="261" width="155" height="255">
<path d="M834.286 261.138H988.094V515.988H834.286V261.138Z" fill="white"/>
</mask>
<g mask="url(#mask1_1949_925)">
<path d="M975.733 515.954H846.581C840.065 515.954 834.779 510.856 834.779 504.564V272.942C834.779 266.65 840.065 261.549 846.581 261.549H975.733C982.252 261.549 987.535 266.65 987.535 272.942V504.564C987.535 510.856 982.252 515.954 975.733 515.954Z" fill="#303C72"/>
</g>
<path d="M971.262 509.29H851.044C845.633 509.29 841.247 505.054 841.247 499.832V277.671C841.247 272.449 845.633 268.217 851.044 268.217H971.262C976.672 268.217 981.059 272.449 981.059 277.671V499.832C981.059 505.054 976.672 509.29 971.262 509.29Z" fill="#D4EBFF"/>
<path d="M868.505 392.392C869.429 387.537 873.389 383.521 878.718 382.625C885.564 381.474 892.079 385.896 893.272 392.503C893.518 393.877 893.518 395.236 893.297 396.538C893.247 396.844 893.181 397.148 893.107 397.449C891.88 403.253 884.969 435.495 878.476 455.269C877.794 458.684 874.998 461.498 871.241 462.129C866.385 462.947 861.762 459.808 860.915 455.119C860.582 453.285 865.989 402.655 868.505 392.392Z" fill="#DE9681"/>
<path d="M880.294 394.199C880.294 394.199 885.617 389.465 893.294 392.636C893.518 393.965 893.509 395.279 893.297 396.538C893.247 396.845 893.182 397.148 893.107 397.449C892.049 402.457 886.76 427.15 881.156 446.531C880.649 444.15 879.092 441.772 878.32 441.18C877.109 440.251 873.956 437.491 872.409 432.642C871.3 429.176 873.411 416.198 875.83 409.375C878.249 402.548 880.294 394.199 880.294 394.199Z" fill="#EA9A88"/>
<path d="M884.237 382.105C884.237 382.105 879.468 381.152 872.99 383.915C871.05 384.742 869.195 387.979 867.934 390.489C863.118 400.094 859.451 429.272 859.451 429.272C859.451 429.272 872.003 440.572 885.155 444.197C885.155 444.197 894.949 402.983 894.753 394.349C894.557 385.719 888.035 382.992 884.237 382.105Z" fill="#FCF5F1"/>
<path d="M891.277 416.529L875.416 392.218C875.416 392.218 878.772 402.132 877.063 408.776C875.354 415.422 871.288 424.513 870.653 429.936C870.379 432.284 870.507 435.116 870.74 437.572C874.98 440.196 880.023 442.781 885.156 444.197C885.156 444.197 888.531 430.002 891.277 416.529Z" fill="#F0E2DA"/>
<path d="M873.524 443.992C868.699 442.243 863.313 444.6 861.501 449.259C861.143 450.176 860.953 451.111 860.913 452.037C860.91 452.037 857.439 497.138 856.505 509.289H867.46C868.593 504.064 870.725 494.592 873.01 486.37C876.911 472.334 878.249 459.718 878.866 453.907C879.04 453.14 879.108 452.371 879.074 451.613C878.915 448.108 877.138 445.303 873.524 443.992Z" fill="#DE9681"/>
<path d="M896.133 491.566C885.839 492.642 877.838 500.019 875.793 509.29H921.501C919.048 498.101 908.162 490.309 896.133 491.566Z" fill="#F6AF9A"/>
<path d="M874.445 509.289H922.473C918.974 489.055 903.169 489.037 901.18 489.064C901.18 489.064 879.221 487.714 874.445 509.289Z" fill="#8C4949"/>
<path d="M916.885 455.608C892.653 455.542 887.629 466.451 887.629 466.451C887.224 469.464 887.159 472.812 885.721 475.662C879.071 488.823 876.475 503.836 875.703 509.289H957.192C956.707 501.188 953.644 493.519 949.553 483.737C946.982 477.583 940.796 469.497 940.706 463.151C940.706 463.151 938.228 455.665 916.885 455.608Z" fill="#F6AF9A"/>
<path d="M887.347 468.875C887.347 468.875 885.778 471.136 881.734 481.7C878.789 489.386 875.922 502.641 874.58 509.29H958.233C957.184 500.164 954.37 490.153 951.179 484.501C947.365 477.744 941.921 466.633 941.921 466.633C931.15 469.281 887.347 468.875 887.347 468.875Z" fill="#8C4949"/>
<path d="M951.181 484.501C947.367 477.744 941.923 466.633 941.923 466.633C934.644 468.421 912.29 468.818 898.552 468.884C892.317 472.925 890.521 477.548 890.521 477.548C890.521 477.548 907.259 483.043 928.406 483.389C939.448 483.389 943.797 483.389 945.244 484.153C946.259 484.688 947.856 500.121 948.721 509.29H958.235C957.186 500.164 954.372 490.153 951.181 484.501Z" fill="#824444"/>
<path d="M911.017 509.29H956.588C954.393 499.977 946.184 492.687 935.802 491.824C924.032 490.847 913.554 498.474 911.017 509.29Z" fill="#F6AF9A"/>
<path d="M908.986 509.29H957.879C955.784 498.531 950.007 488.584 933.582 489.08C933.582 489.08 913.108 489.068 908.986 509.29Z" fill="#8C4949"/>
<path d="M946.82 491.768C947.53 497.106 948.24 504.174 948.722 509.29H957.88C956.489 502.154 953.479 495.378 946.82 491.768Z" fill="#824444"/>
<path d="M885.978 448.09C885.978 448.09 879.712 444.522 878.6 438.768C877.489 433.014 880.677 413.883 881.486 404.934C882.299 395.985 874.874 388.265 873.878 383.822C873.878 383.822 884.366 379.06 907.361 376.88C907.361 376.88 920.324 377.241 932.779 379.43C942.943 381.212 948.235 386.584 950.221 389.66C952.208 392.735 950.916 400.232 948.148 409.389C945.381 418.546 942.339 426.479 942.034 436.177C941.885 440.86 941.667 457.578 941.969 468.523C941.969 468.523 943.18 475.401 918.562 476.871C895.837 478.23 887.401 468.628 887.401 468.628C886.545 459.625 885.978 448.09 885.978 448.09Z" fill="#DE9681"/>
<path d="M945.625 417.506C943.779 423.546 942.244 429.435 942.032 436.178C941.93 439.442 941.793 448.551 941.821 457.479C936.42 443.404 929.194 401.384 929.194 401.384L945.625 417.506Z" fill="#E57E73"/>
<path d="M895.905 380.183L897.256 356.988C897.415 352.391 900.671 348.252 905.518 347.04C911.417 345.564 917.438 348.985 918.966 354.682C919.175 355.455 919.287 356.233 919.315 357L921.426 381.903C921.444 382.077 921.491 382.868 921.491 382.868C921.855 388.727 917.877 393.792 911.766 395.319C904.827 397.054 897.975 393.35 896.179 386.65C895.619 384.563 895.756 382.405 895.905 380.183Z" fill="#DE9681"/>
<path d="M897.258 356.988C897.416 352.391 900.673 348.252 905.52 347.04C911.419 345.564 917.439 348.985 918.968 354.682C919.176 355.455 919.288 356.233 919.316 357L919.425 358.296C914.501 368.991 905.535 376.952 895.984 378.879L897.258 356.988Z" fill="#D38475"/>
<path d="M887.928 379.76C887.928 379.76 889.528 386.744 900.953 388.544C912.378 390.345 935.554 379.835 935.554 379.835C935.554 379.835 940.526 379.769 943.95 381.828C943.95 381.828 950.434 385.743 951.524 390.546C952.614 395.353 951.16 403.861 950.279 406.966C949.398 410.068 943.95 437.545 943.95 444.429C943.95 449.236 946.833 462.911 948.573 470.727C949.27 473.865 947.091 476.916 943.807 477.4C932.914 479.003 908.969 481.57 885.587 477.695C881.758 477.061 879.056 473.721 879.308 469.981C879.894 461.341 880.862 446.96 880.84 446.359C880.84 446.359 876.009 443.506 874.969 435.395C873.929 427.288 880.305 407.164 879.62 403.71C878.935 400.256 872.871 387.2 872.992 383.915C872.992 383.915 879.573 380.873 887.928 379.76Z" fill="#FCF5F1"/>
<path d="M916.43 479.685C927.979 479.441 937.854 478.275 943.812 477.4C947.093 476.916 949.269 473.862 948.572 470.727C946.831 462.911 943.949 449.236 943.949 444.429C943.949 437.545 949.397 410.068 950.278 406.966C950.48 406.256 950.71 405.267 950.931 404.107C941.169 398.765 932.048 397.563 927.624 403.259C927.624 403.259 929.884 429.049 929.85 434.006C929.816 438.96 918.649 446.581 901.852 444.907C901.852 444.907 917.407 450.414 931.612 443.404L933.312 448.159H939.693C939.693 448.159 940.531 458.221 941.776 465.129C943.012 472.001 929.99 476.856 916.43 479.685Z" fill="#F0E2DA"/>
<path d="M927.717 397.575C927.571 396.387 927.592 395.164 927.804 393.925C929.009 386.87 935.91 382.093 943.22 383.253C949.284 384.218 953.726 388.974 954.374 394.595L969.441 456.059C969.761 457.262 969.836 458.546 969.612 459.85C968.759 464.858 963.859 468.249 958.673 467.426C954.302 466.728 951.12 463.262 950.738 459.192C950.738 459.192 931.708 415.861 928.062 399.324C927.907 398.753 927.792 398.167 927.717 397.575Z" fill="#DE9681"/>
<path d="M938.659 381.829C938.659 381.829 924.975 383.611 926.998 400.118C929.018 416.625 935.864 446.359 935.864 446.359C935.864 446.359 960.286 446.509 968.529 434.944C968.529 434.944 957.173 396.538 954.063 389.897C950.953 383.253 943.497 380.061 938.659 381.829Z" fill="#FCF5F1"/>
<path d="M958.03 450.117C954.201 450.989 951.461 453.98 950.829 457.503C950.692 458.266 950.655 459.054 950.727 459.851C950.565 465.803 950.776 478.354 952.825 493.036C953.578 498.432 954.204 504.315 954.674 509.29H966.927C967.929 491.385 969.697 459.842 969.697 459.842C969.781 458.898 969.713 457.927 969.476 456.959C968.272 452.017 963.148 448.953 958.03 450.117Z" fill="#DE9681"/>
<path d="M907.935 308.652C907.935 308.652 929.521 309.428 929.047 334.078C928.59 357.758 907.991 377.129 890.343 372.157C884.734 370.23 881.039 357.899 880.842 339.363C880.643 320.827 888.886 308.003 907.935 308.652Z" fill="#DE9681"/>
<path d="M936.587 366.701C933.953 358.29 936.092 342.249 935.024 335.013C934.996 334.824 934.953 334.649 934.903 334.487C934.231 324.822 930.937 317.054 923.31 311.192C915.104 304.882 901.731 307.816 901.731 307.816C895.654 307.378 883.04 312.512 879.544 320.581C876.048 328.649 877.113 340.241 878.483 343.322C879.849 346.404 878.025 349.338 877.265 351.391C876.506 353.444 878.025 355.497 879.392 358.14C880.761 360.779 878.483 363.86 878.483 363.86C880.761 362.688 881.823 359.459 880.914 356.673C880.002 353.883 879.544 352.858 880.139 350.741C880.73 348.622 881.216 347.281 881.521 344.056C881.823 340.827 881.063 334.373 882.888 329.972C884.712 325.568 891.853 320.581 891.853 320.581C893.982 326.891 897.021 331.878 900.971 333.197C904.925 334.517 907.356 336.426 908.115 338.332C908.875 340.241 907.658 343.761 908.115 348.015C908.57 352.272 910.394 352.416 911.761 354.325C913.131 356.231 909.33 359.607 908.417 361.074C907.505 362.541 908.115 365.033 909.177 366.942C910.242 368.848 909.482 371.048 909.482 371.048C911.306 370.315 911.001 366.794 910.394 363.86C909.787 360.926 912.066 360.193 913.432 357.992C914.802 355.792 912.978 352.71 912.673 351.096C912.368 349.482 914.833 343.99 915.745 344.428C916.272 344.684 916.897 347.711 917.386 351.304C917.143 352.795 917.106 354.295 917.336 355.774C917.336 355.774 917.728 356.664 918.077 358.085C918.102 358.491 918.127 358.888 918.146 359.267C918.186 360.109 918.363 361.086 918.594 362.036C918.622 363.92 918.323 366.028 917.336 368.072C914.503 373.94 910.951 371.977 911.739 380.716C912.527 389.458 910.235 396.489 907.505 400.959C904.775 405.432 904.725 418.482 910.323 425.847C910.323 425.847 911.25 420.069 915.409 418.326C919.568 416.582 926.065 408.021 925.635 402.586C925.203 397.151 928.979 381.521 938.595 379.925C938.595 379.925 939.221 375.112 936.587 366.701Z" fill="#8C4949"/>
<path d="M891.854 320.581C892.224 315.028 896.053 309.413 901.731 307.817C896.725 310.549 893.519 315.365 891.854 320.581Z" fill="#7A3D3D"/>
<path d="M895.654 319.409C902.839 322.129 901.578 325.52 905.659 330.345C907.038 332.184 909.292 332.638 911.272 333.567C913.793 335.079 915.496 337.953 915.409 340.827C915.126 338.416 913.681 336.101 911.676 334.679C909.304 333.213 906.892 333.381 904.971 330.922C900.84 326.025 902.49 322.995 895.654 319.409Z" fill="#7A3D3D"/>
<path d="M900.212 316.474C904.165 317.126 908.075 319.029 910.223 322.411C914.099 327.244 920.427 331.997 919.665 338.773C919.506 332.105 913.305 327.885 909.532 322.907C907.552 319.567 903.913 317.628 900.212 316.474Z" fill="#7A3D3D"/>
<path d="M900.212 311.927C906.905 311.148 914.239 312.639 918.986 317.536C921.318 319.749 923.332 322.358 924.506 325.325C925.026 326.699 925.396 328.169 925.396 329.639C925.368 330.472 925.39 331.491 925.483 332.321C925.919 336.917 927.043 341.697 925.742 346.257C926.85 340.663 924.537 335.053 924.571 329.462C924.139 324.024 920.204 319.463 916.026 316.078C911.596 312.745 905.706 311.816 900.212 311.927Z" fill="#7A3D3D"/>
<path d="M931.521 337.491C932.785 342.64 933.158 348.196 931.502 353.306C930.795 355.855 929.407 358.224 928.713 360.749C928.127 363.371 929.771 365.887 929.488 368.541C929.438 372.176 927.85 375.955 924.663 378.065C923.94 378.54 923.243 379.102 922.655 379.724C919.641 382.956 918.393 387.402 918.032 391.665C917.932 393.438 917.979 395.239 917.584 396.983C916.541 404.053 909.565 409.377 910.321 416.754C909.157 409.434 915.965 403.855 916.886 396.859C917.238 395.131 917.151 393.363 917.238 391.614C917.565 386.948 918.969 382.027 922.49 378.642C922.975 378.176 923.576 377.722 924.14 377.343C927.875 374.884 929.13 370.105 928.473 365.95C928.149 364.179 927.436 362.394 927.972 360.587C928.734 357.993 930.145 355.705 930.935 353.132C932.704 348.117 932.489 342.646 931.521 337.491Z" fill="#7A3D3D"/>
<path d="M922.024 356.883C924.807 365.606 921.355 366.854 917.984 373.891C917.305 375.376 917.371 376.861 917.234 378.466C916.471 381.448 915.223 382.197 915.409 385.816C914.837 382.966 915.63 381.406 916.465 378.827C916.673 377.417 916.381 375.926 916.851 374.534C916.91 374.264 917.066 373.855 917.156 373.591C920.524 366.157 923.693 366.361 922.024 356.883Z" fill="#7A3D3D"/>
<path d="M932.422 361.062C932.251 363.677 931.933 366.335 932.4 368.902C932.556 369.804 933.141 370.429 933.461 371.247C934.184 372.963 934.414 374.857 934.081 376.672C933.679 378.398 932.798 380.018 932.814 381.828C932.419 380.051 933.094 378.311 933.371 376.573C933.71 369.422 929.477 371.232 932.422 361.062Z" fill="#7A3D3D"/>
<path d="M926.179 383.722C924.221 386.229 922.285 389.199 922.422 392.434C922.951 397.267 923.169 403.304 920.482 407.584C922.338 402.949 921.961 397.763 921.581 392.9C921.286 389.319 923.589 386.058 926.179 383.722Z" fill="#7A3D3D"/>
<path d="M920.712 340.154C920.712 340.154 924.208 340.422 924.282 345.737C924.351 350.844 921.173 356.727 917.334 355.774C916.111 355.395 915.05 350.928 914.875 346.933C914.701 342.941 916.603 340.142 920.712 340.154Z" fill="#DE9681"/>
<path d="M917.957 351.967C916.41 345.059 920.077 343.099 920.233 343.018C920.423 342.919 920.656 342.991 920.759 343.171C920.858 343.355 920.787 343.58 920.6 343.679C920.494 343.736 918.545 344.809 918.368 348.278C919.448 347.055 921.17 346.839 921.263 346.827C921.475 346.803 921.668 346.95 921.696 347.154C921.721 347.362 921.568 347.548 921.356 347.572C921.257 347.584 918.944 347.885 918.399 349.794C918.452 350.407 918.552 351.074 918.717 351.808C918.757 351.991 918.651 352.174 918.471 352.237C918.455 352.243 918.437 352.25 918.418 352.253C918.209 352.298 918.001 352.168 917.957 351.967Z" fill="#BA6D5B"/>
<path d="M971.262 268.217H851.044C845.633 268.217 841.247 272.449 841.247 277.671V289.293H981.059V277.671C981.059 272.449 976.672 268.217 971.262 268.217Z" fill="#8CCBFF"/>
<path d="M971.781 278.287H958.333C957.511 278.287 956.842 277.644 956.842 276.847V276.619C956.842 275.825 957.511 275.182 958.333 275.182H971.781C972.606 275.182 973.272 275.825 973.272 276.619V276.847C973.272 277.644 972.606 278.287 971.781 278.287Z" fill="white"/>
<path d="M971.782 285.013H963.265C962.441 285.013 961.774 284.366 961.774 283.573V283.344C961.774 282.548 962.441 281.904 963.265 281.904H971.782C972.607 281.904 973.274 282.551 973.274 283.344V283.573C973.274 284.366 972.607 285.013 971.782 285.013Z" fill="white"/>
<path d="M971.263 510.026H851.045C845.22 510.026 840.482 505.454 840.482 499.833V277.671C840.482 272.05 845.22 267.478 851.045 267.478H971.263C977.088 267.478 981.826 272.05 981.826 277.671V499.833C981.826 505.454 977.088 510.026 971.263 510.026ZM851.045 268.954C846.064 268.954 842.014 272.865 842.014 277.671V499.833C842.014 504.639 846.064 508.55 851.045 508.55H971.263C976.244 508.55 980.294 504.639 980.294 499.833V277.671C980.294 272.865 976.244 268.954 971.263 268.954H851.045Z" fill="white"/>
<path d="M938.258 272.939H884.048C880.726 272.939 878.03 270.336 878.03 267.129V265.914H944.275V267.129C944.275 270.336 941.579 272.939 938.258 272.939Z" fill="#303C72"/>
<path d="M852.254 301.76H731.26C727.372 301.76 724.219 304.805 724.219 308.56V342.445C724.219 346.203 727.372 349.245 731.26 349.245H839.929L859.295 371.68V308.56C859.295 304.805 856.142 301.76 852.254 301.76Z" fill="white"/>
<path d="M803.644 317.178H845.402C846.588 317.178 847.55 316.249 847.55 315.104V313.414C847.55 312.269 846.588 311.34 845.402 311.34H803.644C802.455 311.34 801.493 312.269 801.493 313.414V315.104C801.493 316.249 802.455 317.178 803.644 317.178Z" fill="#D4E7FF"/>
<path d="M736.649 317.178H790.504C791.693 317.178 792.655 316.249 792.655 315.104V313.414C792.655 312.269 791.693 311.34 790.504 311.34H736.649C735.463 311.34 734.501 312.269 734.501 313.414V315.104C734.501 316.249 735.463 317.178 736.649 317.178Z" fill="#D4E7FF"/>
<path d="M819.945 328.59H845.402C846.588 328.59 847.55 327.661 847.55 326.516V324.829C847.55 323.681 846.588 322.752 845.402 322.752H819.945C818.759 322.752 817.794 323.681 817.794 324.829V326.516C817.794 327.661 818.759 328.59 819.945 328.59Z" fill="#D4E7FF"/>
<path d="M795.474 328.59H807.481C808.67 328.59 809.632 327.661 809.632 326.516V324.829C809.632 323.681 808.67 322.752 807.481 322.752H795.474C794.288 322.752 793.326 323.681 793.326 324.829V326.516C793.326 327.661 794.288 328.59 795.474 328.59Z" fill="#D4E7FF"/>
<path d="M736.649 328.59H783.497C784.686 328.59 785.648 327.661 785.648 326.516V324.829C785.648 323.681 784.686 322.752 783.497 322.752H736.649C735.463 322.752 734.501 323.681 734.501 324.829V326.516C734.501 327.661 735.463 328.59 736.649 328.59Z" fill="#D4E7FF"/>
<path d="M830.994 340.003H845.403C846.589 340.003 847.551 339.075 847.551 337.926V336.24C847.551 335.091 846.589 334.163 845.403 334.163H830.994C829.808 334.163 828.846 335.091 828.846 336.24V337.926C828.846 339.075 829.808 340.003 830.994 340.003Z" fill="#D4E7FF"/>
<path d="M736.649 340.004H819.62C820.806 340.004 821.768 339.075 821.768 337.926V336.24C821.768 335.092 820.806 334.163 819.62 334.163H736.649C735.463 334.163 734.501 335.092 734.501 336.24V337.926C734.501 339.075 735.463 340.004 736.649 340.004Z" fill="#D4E7FF"/>
<path d="M819.226 350.231H731.262C726.817 350.231 723.199 346.738 723.199 342.445V308.559C723.199 304.267 726.817 300.776 731.262 300.776H829.96C830.523 300.776 830.978 301.215 830.978 301.759C830.978 302.303 830.523 302.745 829.96 302.745H731.262C727.943 302.745 725.241 305.352 725.241 308.559V342.445C725.241 345.652 727.943 348.262 731.262 348.262H819.226C819.79 348.262 820.247 348.701 820.247 349.245C820.247 349.789 819.79 350.231 819.226 350.231Z" fill="#8CCBFF"/>
<path d="M819.002 244.366H698.011C694.123 244.366 690.97 247.411 690.97 251.166V314.286L710.336 291.851H819.002C822.893 291.851 826.046 288.806 826.046 285.052V251.166C826.046 247.411 822.893 244.366 819.002 244.366Z" fill="white"/>
<path d="M771.65 259.881H705.146C703.957 259.881 702.995 258.952 702.995 257.807V256.117C702.995 254.972 703.957 254.043 705.146 254.043H771.65C772.836 254.043 773.797 254.972 773.797 256.117V257.807C773.797 258.952 772.836 259.881 771.65 259.881Z" fill="#D4E7FF"/>
<path d="M813.898 259.881H784.789C783.603 259.881 782.641 258.952 782.641 257.807V256.117C782.641 254.972 783.603 254.043 784.789 254.043H813.898C815.088 254.043 816.049 254.972 816.049 256.117V257.807C816.049 258.952 815.088 259.881 813.898 259.881Z" fill="#D4E7FF"/>
<path d="M729.779 271.291H705.146C703.96 271.291 702.995 270.363 702.995 269.217V267.528C702.995 266.382 703.96 265.454 705.146 265.454H729.779C730.965 265.454 731.927 266.382 731.927 267.528V269.217C731.927 270.363 730.965 271.291 729.779 271.291Z" fill="#D4E7FF"/>
<path d="M794.02 271.292H743.066C741.88 271.292 740.918 270.363 740.918 269.217V267.528C740.918 266.383 741.88 265.454 743.066 265.454H794.02C795.206 265.454 796.168 266.383 796.168 267.528V269.217C796.168 270.363 795.206 271.292 794.02 271.292Z" fill="#D4E7FF"/>
<path d="M813.896 271.291H805.996C804.807 271.291 803.845 270.363 803.845 269.217V267.528C803.845 266.382 804.807 265.454 805.996 265.454H813.896C815.085 265.454 816.047 266.382 816.047 267.528V269.217C816.047 270.363 815.085 271.291 813.896 271.291Z" fill="#D4E7FF"/>
<path d="M758.245 282.707H705.146C703.96 282.707 702.995 281.775 702.995 280.629V278.943C702.995 277.795 703.96 276.866 705.146 276.866H758.245C759.431 276.866 760.393 277.795 760.393 278.943V280.629C760.393 281.775 759.431 282.707 758.245 282.707Z" fill="#D4E7FF"/>
<path d="M813.898 282.707H769.622C768.433 282.707 767.471 281.775 767.471 280.629V278.943C767.471 277.795 768.433 276.866 769.622 276.866H813.898C815.087 276.866 816.049 277.795 816.049 278.943V280.629C816.049 281.775 815.087 282.707 813.898 282.707Z" fill="#D4E7FF"/>
<path d="M819.001 292.834H724.219C723.656 292.834 723.198 292.395 723.198 291.851C723.198 291.307 723.656 290.865 724.219 290.865H819.001C822.323 290.865 825.025 288.259 825.025 285.051V251.166C825.025 247.958 822.323 245.349 819.001 245.349H698.011C694.692 245.349 691.99 247.958 691.99 251.166V256.962C691.99 257.506 691.533 257.948 690.969 257.948C690.406 257.948 689.948 257.506 689.948 256.962V251.166C689.948 246.873 693.566 243.38 698.011 243.38H819.001C823.45 243.38 827.067 246.873 827.067 251.166V285.051C827.067 289.344 823.45 292.834 819.001 292.834Z" fill="#8CCBFF"/>
</svg>
