<svg width="1697" height="796" viewBox="0 0 1697 796" fill="none" xmlns="http://www.w3.org/2000/svg">
<rect x="0.558594" width="1696.33" height="796" fill="white"/>
<path d="M661.815 593.049H657.596L665.278 571.231H670.157L677.849 593.049H673.63L667.802 575.705H667.632L661.815 593.049ZM661.954 584.494H673.459V587.669H661.954V584.494ZM687.17 599.526C685.785 599.526 684.596 599.338 683.601 598.961C682.607 598.592 681.808 598.095 681.204 597.47C680.601 596.845 680.182 596.153 679.947 595.393L683.42 594.551C683.577 594.871 683.804 595.187 684.102 595.499C684.4 595.819 684.802 596.081 685.306 596.287C685.817 596.501 686.46 596.607 687.234 596.607C688.328 596.607 689.233 596.341 689.951 595.808C690.668 595.282 691.027 594.416 691.027 593.209V590.108H690.835C690.636 590.506 690.345 590.915 689.961 591.334C689.585 591.753 689.084 592.104 688.459 592.388C687.841 592.672 687.064 592.814 686.126 592.814C684.869 592.814 683.729 592.52 682.706 591.93C681.691 591.334 680.881 590.446 680.278 589.267C679.681 588.081 679.383 586.596 679.383 584.814C679.383 583.017 679.681 581.501 680.278 580.265C680.881 579.022 681.694 578.081 682.717 577.442C683.74 576.795 684.88 576.472 686.137 576.472C687.096 576.472 687.884 576.635 688.502 576.962C689.127 577.282 689.624 577.669 689.993 578.123C690.363 578.571 690.643 578.993 690.835 579.391H691.048V576.685H694.851V593.315C694.851 594.714 694.518 595.872 693.85 596.788C693.182 597.704 692.27 598.39 691.112 598.844C689.954 599.299 688.64 599.526 687.17 599.526ZM687.202 589.789C688.019 589.789 688.715 589.59 689.29 589.192C689.866 588.795 690.302 588.223 690.601 587.477C690.899 586.731 691.048 585.836 691.048 584.792C691.048 583.763 690.899 582.861 690.601 582.086C690.309 581.312 689.876 580.712 689.301 580.286C688.733 579.853 688.033 579.636 687.202 579.636C686.343 579.636 685.626 579.86 685.05 580.307C684.475 580.755 684.042 581.369 683.751 582.15C683.459 582.925 683.314 583.805 683.314 584.792C683.314 585.794 683.459 586.671 683.751 587.424C684.049 588.17 684.486 588.752 685.061 589.171C685.643 589.583 686.357 589.789 687.202 589.789ZM709.233 586.167V576.685H713.09V593.049H709.351V590.14H709.18C708.811 591.057 708.204 591.806 707.358 592.388C706.52 592.971 705.487 593.262 704.258 593.262C703.186 593.262 702.238 593.024 701.414 592.548C700.597 592.065 699.958 591.366 699.496 590.449C699.035 589.526 698.804 588.411 698.804 587.104V576.685H702.66V586.508C702.66 587.545 702.944 588.368 703.513 588.979C704.081 589.59 704.827 589.895 705.75 589.895C706.318 589.895 706.868 589.757 707.401 589.48C707.934 589.203 708.371 588.791 708.711 588.244C709.059 587.69 709.233 586.998 709.233 586.167ZM721.765 593.379C720.728 593.379 719.794 593.194 718.963 592.825C718.139 592.449 717.485 591.895 717.002 591.163C716.527 590.432 716.289 589.53 716.289 588.457C716.289 587.534 716.459 586.77 716.8 586.167C717.141 585.563 717.606 585.08 718.196 584.718C718.785 584.356 719.449 584.082 720.188 583.898C720.934 583.706 721.704 583.567 722.5 583.482C723.458 583.383 724.236 583.294 724.833 583.216C725.429 583.131 725.863 583.003 726.132 582.832C726.409 582.655 726.548 582.381 726.548 582.012V581.948C726.548 581.145 726.31 580.524 725.834 580.084C725.358 579.643 724.673 579.423 723.778 579.423C722.833 579.423 722.084 579.629 721.53 580.041C720.983 580.453 720.614 580.939 720.422 581.501L716.821 580.989C717.105 579.995 717.574 579.164 718.228 578.496C718.881 577.822 719.68 577.317 720.625 576.983C721.569 576.643 722.613 576.472 723.757 576.472C724.545 576.472 725.33 576.564 726.111 576.749C726.892 576.934 727.606 577.239 728.252 577.665C728.899 578.084 729.417 578.656 729.808 579.381C730.206 580.105 730.404 581.01 730.404 582.097V593.049H726.697V590.801H726.569C726.335 591.256 726.005 591.682 725.578 592.079C725.159 592.47 724.63 592.786 723.991 593.028C723.359 593.262 722.617 593.379 721.765 593.379ZM722.766 590.545C723.54 590.545 724.211 590.393 724.779 590.087C725.348 589.775 725.784 589.363 726.09 588.851C726.402 588.34 726.559 587.782 726.559 587.179V585.251C726.438 585.35 726.232 585.442 725.941 585.528C725.657 585.613 725.337 585.687 724.982 585.751C724.627 585.815 724.275 585.872 723.927 585.922C723.579 585.971 723.277 586.014 723.022 586.05C722.446 586.128 721.931 586.256 721.477 586.433C721.022 586.611 720.664 586.859 720.401 587.179C720.138 587.491 720.007 587.896 720.007 588.393C720.007 589.104 720.266 589.64 720.784 590.002C721.303 590.364 721.963 590.545 722.766 590.545ZM734.282 593.049V576.685H738.022V579.412H738.192C738.49 578.468 739.002 577.74 739.726 577.229C740.458 576.71 741.292 576.451 742.23 576.451C742.443 576.451 742.681 576.461 742.944 576.483C743.213 576.497 743.437 576.522 743.615 576.557V580.105C743.451 580.048 743.192 579.998 742.837 579.956C742.489 579.906 742.152 579.881 741.825 579.881C741.122 579.881 740.49 580.034 739.929 580.339C739.375 580.638 738.938 581.053 738.618 581.586C738.299 582.118 738.139 582.733 738.139 583.429V593.049H734.282ZM751.575 593.336C750.29 593.336 749.139 593.006 748.124 592.346C747.108 591.685 746.306 590.726 745.716 589.469C745.127 588.212 744.832 586.685 744.832 584.888C744.832 583.07 745.13 581.536 745.727 580.286C746.33 579.029 747.144 578.081 748.166 577.442C749.189 576.795 750.329 576.472 751.586 576.472C752.545 576.472 753.333 576.635 753.951 576.962C754.569 577.282 755.059 577.669 755.421 578.123C755.784 578.571 756.064 578.993 756.263 579.391H756.423V571.231H760.29V593.049H756.497V590.471H756.263C756.064 590.868 755.776 591.291 755.4 591.738C755.024 592.179 754.526 592.555 753.909 592.868C753.291 593.18 752.513 593.336 751.575 593.336ZM752.651 590.172C753.468 590.172 754.164 589.952 754.74 589.512C755.315 589.064 755.752 588.443 756.05 587.648C756.348 586.852 756.497 585.925 756.497 584.867C756.497 583.809 756.348 582.889 756.05 582.108C755.759 581.327 755.325 580.719 754.75 580.286C754.182 579.853 753.482 579.636 752.651 579.636C751.792 579.636 751.075 579.86 750.499 580.307C749.924 580.755 749.491 581.373 749.2 582.161C748.909 582.949 748.763 583.851 748.763 584.867C748.763 585.89 748.909 586.802 749.2 587.605C749.498 588.4 749.935 589.029 750.51 589.491C751.093 589.945 751.806 590.172 752.651 590.172ZM769.108 593.379C768.071 593.379 767.137 593.194 766.306 592.825C765.483 592.449 764.829 591.895 764.346 591.163C763.87 590.432 763.632 589.53 763.632 588.457C763.632 587.534 763.803 586.77 764.144 586.167C764.485 585.563 764.95 585.08 765.539 584.718C766.129 584.356 766.793 584.082 767.532 583.898C768.277 583.706 769.048 583.567 769.843 583.482C770.802 583.383 771.58 583.294 772.176 583.216C772.773 583.131 773.206 583.003 773.476 582.832C773.753 582.655 773.892 582.381 773.892 582.012V581.948C773.892 581.145 773.654 580.524 773.178 580.084C772.702 579.643 772.017 579.423 771.122 579.423C770.177 579.423 769.428 579.629 768.874 580.041C768.327 580.453 767.958 580.939 767.766 581.501L764.165 580.989C764.449 579.995 764.918 579.164 765.571 578.496C766.225 577.822 767.024 577.317 767.968 576.983C768.913 576.643 769.957 576.472 771.1 576.472C771.889 576.472 772.674 576.564 773.455 576.749C774.236 576.934 774.95 577.239 775.596 577.665C776.243 578.084 776.761 578.656 777.152 579.381C777.549 580.105 777.748 581.01 777.748 582.097V593.049H774.041V590.801H773.913C773.679 591.256 773.348 591.682 772.922 592.079C772.503 592.47 771.974 592.786 771.335 593.028C770.703 593.262 769.961 593.379 769.108 593.379ZM770.11 590.545C770.884 590.545 771.555 590.393 772.123 590.087C772.691 589.775 773.128 589.363 773.434 588.851C773.746 588.34 773.902 587.782 773.902 587.179V585.251C773.782 585.35 773.576 585.442 773.284 585.528C773 585.613 772.681 585.687 772.326 585.751C771.971 585.815 771.619 585.872 771.271 585.922C770.923 585.971 770.621 586.014 770.365 586.05C769.79 586.128 769.275 586.256 768.821 586.433C768.366 586.611 768.007 586.859 767.745 587.179C767.482 587.491 767.35 587.896 767.35 588.393C767.35 589.104 767.61 589.64 768.128 590.002C768.647 590.364 769.307 590.545 770.11 590.545ZM785.483 583.461V593.049H781.626V576.685H785.312V579.466H785.504C785.88 578.55 786.48 577.822 787.304 577.282C788.135 576.742 789.162 576.472 790.383 576.472C791.512 576.472 792.496 576.714 793.334 577.197C794.179 577.68 794.833 578.379 795.294 579.295C795.763 580.211 795.994 581.323 795.987 582.63V593.049H792.13V583.226C792.13 582.133 791.846 581.277 791.278 580.659C790.717 580.041 789.939 579.732 788.945 579.732C788.27 579.732 787.67 579.881 787.145 580.18C786.626 580.471 786.218 580.893 785.919 581.447C785.628 582.001 785.483 582.672 785.483 583.461ZM805.98 593.336C804.694 593.336 803.544 593.006 802.528 592.346C801.512 591.685 800.71 590.726 800.12 589.469C799.531 588.212 799.236 586.685 799.236 584.888C799.236 583.07 799.534 581.536 800.131 580.286C800.735 579.029 801.548 578.081 802.571 577.442C803.593 576.795 804.733 576.472 805.99 576.472C806.949 576.472 807.738 576.635 808.355 576.962C808.973 577.282 809.463 577.669 809.826 578.123C810.188 578.571 810.468 578.993 810.667 579.391H810.827V571.231H814.694V593.049H810.902V590.471H810.667C810.468 590.868 810.181 591.291 809.804 591.738C809.428 592.179 808.931 592.555 808.313 592.868C807.695 593.18 806.917 593.336 805.98 593.336ZM807.056 590.172C807.873 590.172 808.569 589.952 809.144 589.512C809.719 589.064 810.156 588.443 810.454 587.648C810.752 586.852 810.902 585.925 810.902 584.867C810.902 583.809 810.752 582.889 810.454 582.108C810.163 581.327 809.73 580.719 809.154 580.286C808.586 579.853 807.887 579.636 807.056 579.636C806.196 579.636 805.479 579.86 804.904 580.307C804.328 580.755 803.895 581.373 803.604 582.161C803.313 582.949 803.167 583.851 803.167 584.867C803.167 585.89 803.313 586.802 803.604 587.605C803.902 588.4 804.339 589.029 804.914 589.491C805.497 589.945 806.211 590.172 807.056 590.172ZM825.942 593.368C824.344 593.368 822.959 593.017 821.787 592.314C820.615 591.611 819.706 590.627 819.059 589.363C818.42 588.099 818.101 586.621 818.101 584.931C818.101 583.241 818.42 581.76 819.059 580.488C819.706 579.217 820.615 578.23 821.787 577.527C822.959 576.824 824.344 576.472 825.942 576.472C827.54 576.472 828.925 576.824 830.096 577.527C831.268 578.23 832.174 579.217 832.813 580.488C833.459 581.76 833.782 583.241 833.782 584.931C833.782 586.621 833.459 588.099 832.813 589.363C832.174 590.627 831.268 591.611 830.096 592.314C828.925 593.017 827.54 593.368 825.942 593.368ZM825.963 590.279C826.829 590.279 827.554 590.041 828.136 589.565C828.719 589.082 829.152 588.436 829.436 587.626C829.727 586.817 829.873 585.915 829.873 584.92C829.873 583.919 829.727 583.013 829.436 582.204C829.152 581.387 828.719 580.737 828.136 580.254C827.554 579.771 826.829 579.53 825.963 579.53C825.075 579.53 824.336 579.771 823.747 580.254C823.165 580.737 822.728 581.387 822.437 582.204C822.153 583.013 822.01 583.919 822.01 584.92C822.01 585.915 822.153 586.817 822.437 587.626C822.728 588.436 823.165 589.082 823.747 589.565C824.336 590.041 825.075 590.279 825.963 590.279ZM844.497 593.049V576.685H848.237V579.412H848.407C848.705 578.468 849.217 577.74 849.941 577.229C850.673 576.71 851.507 576.451 852.445 576.451C852.658 576.451 852.896 576.461 853.158 576.483C853.428 576.497 853.652 576.522 853.83 576.557V580.105C853.666 580.048 853.407 579.998 853.052 579.956C852.704 579.906 852.366 579.881 852.04 579.881C851.337 579.881 850.705 580.034 850.143 580.339C849.589 580.638 849.153 581.053 848.833 581.586C848.513 582.118 848.354 582.733 848.354 583.429V593.049H844.497ZM862.962 593.368C861.322 593.368 859.905 593.028 858.711 592.346C857.525 591.657 856.613 590.684 855.974 589.427C855.334 588.162 855.015 586.675 855.015 584.963C855.015 583.28 855.334 581.802 855.974 580.531C856.62 579.253 857.522 578.258 858.68 577.548C859.837 576.831 861.197 576.472 862.76 576.472C863.768 576.472 864.72 576.635 865.615 576.962C866.517 577.282 867.312 577.779 868.001 578.454C868.697 579.128 869.244 579.988 869.642 581.032C870.04 582.069 870.238 583.305 870.238 584.739V585.922H856.826V583.322H866.542C866.535 582.584 866.375 581.927 866.062 581.351C865.75 580.769 865.313 580.311 864.752 579.977C864.198 579.643 863.552 579.476 862.813 579.476C862.025 579.476 861.332 579.668 860.736 580.052C860.139 580.428 859.674 580.925 859.34 581.543C859.013 582.154 858.846 582.825 858.839 583.557V585.826C858.839 586.778 859.013 587.594 859.361 588.276C859.709 588.951 860.196 589.469 860.821 589.831C861.446 590.187 862.177 590.364 863.015 590.364C863.577 590.364 864.084 590.286 864.539 590.13C864.993 589.966 865.388 589.729 865.721 589.416C866.055 589.104 866.307 588.716 866.478 588.255L870.079 588.66C869.851 589.611 869.418 590.442 868.779 591.153C868.147 591.856 867.337 592.403 866.35 592.793C865.363 593.177 864.233 593.368 862.962 593.368ZM886.434 581.01L882.919 581.394C882.819 581.039 882.645 580.705 882.397 580.393C882.155 580.08 881.828 579.828 881.417 579.636C881.005 579.444 880.5 579.349 879.904 579.349C879.101 579.349 878.426 579.523 877.88 579.871C877.34 580.219 877.074 580.67 877.081 581.224C877.074 581.699 877.248 582.086 877.603 582.385C877.965 582.683 878.561 582.928 879.392 583.12L882.184 583.716C883.732 584.05 884.882 584.579 885.635 585.304C886.395 586.028 886.779 586.976 886.786 588.148C886.779 589.178 886.477 590.087 885.88 590.876C885.291 591.657 884.471 592.268 883.419 592.708C882.368 593.148 881.161 593.368 879.797 593.368C877.794 593.368 876.182 592.949 874.961 592.111C873.739 591.266 873.011 590.091 872.777 588.585L876.537 588.223C876.708 588.961 877.07 589.519 877.624 589.895C878.178 590.272 878.899 590.46 879.787 590.46C880.703 590.46 881.438 590.272 881.992 589.895C882.553 589.519 882.833 589.054 882.833 588.5C882.833 588.031 882.652 587.644 882.29 587.339C881.935 587.033 881.381 586.799 880.628 586.635L877.837 586.05C876.267 585.723 875.106 585.172 874.353 584.398C873.6 583.617 873.228 582.63 873.235 581.437C873.228 580.428 873.501 579.555 874.055 578.816C874.616 578.07 875.394 577.495 876.388 577.09C877.39 576.678 878.544 576.472 879.85 576.472C881.768 576.472 883.277 576.881 884.378 577.697C885.486 578.514 886.172 579.618 886.434 581.01ZM889.966 599.185V576.685H893.759V579.391H893.982C894.181 578.993 894.462 578.571 894.824 578.123C895.186 577.669 895.676 577.282 896.294 576.962C896.912 576.635 897.7 576.472 898.659 576.472C899.923 576.472 901.063 576.795 902.079 577.442C903.102 578.081 903.911 579.029 904.508 580.286C905.112 581.536 905.413 583.07 905.413 584.888C905.413 586.685 905.119 588.212 904.529 589.469C903.94 590.726 903.137 591.685 902.121 592.346C901.106 593.006 899.955 593.336 898.67 593.336C897.732 593.336 896.955 593.18 896.337 592.868C895.719 592.555 895.222 592.179 894.845 591.738C894.476 591.291 894.188 590.868 893.982 590.471H893.822V599.185H889.966ZM893.748 584.867C893.748 585.925 893.897 586.852 894.195 587.648C894.501 588.443 894.938 589.064 895.506 589.512C896.081 589.952 896.777 590.172 897.594 590.172C898.446 590.172 899.16 589.945 899.735 589.491C900.31 589.029 900.744 588.4 901.035 587.605C901.333 586.802 901.482 585.89 901.482 584.867C901.482 583.851 901.337 582.949 901.045 582.161C900.754 581.373 900.321 580.755 899.746 580.307C899.17 579.86 898.453 579.636 897.594 579.636C896.77 579.636 896.07 579.853 895.495 580.286C894.92 580.719 894.483 581.327 894.185 582.108C893.893 582.889 893.748 583.809 893.748 584.867ZM915.854 593.368C914.256 593.368 912.871 593.017 911.699 592.314C910.527 591.611 909.618 590.627 908.972 589.363C908.332 588.099 908.013 586.621 908.013 584.931C908.013 583.241 908.332 581.76 908.972 580.488C909.618 579.217 910.527 578.23 911.699 577.527C912.871 576.824 914.256 576.472 915.854 576.472C917.452 576.472 918.837 576.824 920.009 577.527C921.18 578.23 922.086 579.217 922.725 580.488C923.371 581.76 923.695 583.241 923.695 584.931C923.695 586.621 923.371 588.099 922.725 589.363C922.086 590.627 921.18 591.611 920.009 592.314C918.837 593.017 917.452 593.368 915.854 593.368ZM915.875 590.279C916.741 590.279 917.466 590.041 918.048 589.565C918.631 589.082 919.064 588.436 919.348 587.626C919.639 586.817 919.785 585.915 919.785 584.92C919.785 583.919 919.639 583.013 919.348 582.204C919.064 581.387 918.631 580.737 918.048 580.254C917.466 579.771 916.741 579.53 915.875 579.53C914.987 579.53 914.249 579.771 913.659 580.254C913.077 580.737 912.64 581.387 912.349 582.204C912.065 583.013 911.923 583.919 911.923 584.92C911.923 585.915 912.065 586.817 912.349 587.626C912.64 588.436 913.077 589.082 913.659 589.565C914.249 590.041 914.987 590.279 915.875 590.279ZM939.901 581.01L936.385 581.394C936.286 581.039 936.112 580.705 935.863 580.393C935.622 580.08 935.295 579.828 934.883 579.636C934.471 579.444 933.967 579.349 933.371 579.349C932.568 579.349 931.893 579.523 931.346 579.871C930.807 580.219 930.54 580.67 930.547 581.224C930.54 581.699 930.714 582.086 931.069 582.385C931.432 582.683 932.028 582.928 932.859 583.12L935.65 583.716C937.199 584.05 938.349 584.579 939.102 585.304C939.862 586.028 940.246 586.976 940.253 588.148C940.246 589.178 939.944 590.087 939.347 590.876C938.758 591.657 937.937 592.268 936.886 592.708C935.835 593.148 934.628 593.368 933.264 593.368C931.261 593.368 929.649 592.949 928.427 592.111C927.206 591.266 926.478 590.091 926.243 588.585L930.004 588.223C930.175 588.961 930.537 589.519 931.091 589.895C931.645 590.272 932.366 590.46 933.253 590.46C934.17 590.46 934.905 590.272 935.459 589.895C936.02 589.519 936.3 589.054 936.3 588.5C936.3 588.031 936.119 587.644 935.757 587.339C935.402 587.033 934.848 586.799 934.095 586.635L931.304 586.05C929.734 585.723 928.573 585.172 927.82 584.398C927.067 583.617 926.694 582.63 926.702 581.437C926.694 580.428 926.968 579.555 927.522 578.816C928.083 578.07 928.861 577.495 929.855 577.09C930.856 576.678 932.01 576.472 933.317 576.472C935.235 576.472 936.744 576.881 937.845 577.697C938.953 578.514 939.638 579.618 939.901 581.01ZM951.604 576.685V579.668H942.197V576.685H951.604ZM944.519 572.765H948.376V588.127C948.376 588.645 948.454 589.043 948.61 589.32C948.774 589.59 948.987 589.775 949.249 589.874C949.512 589.974 949.803 590.023 950.123 590.023C950.365 590.023 950.585 590.006 950.784 589.97C950.99 589.934 951.146 589.903 951.252 589.874L951.902 592.889C951.696 592.96 951.401 593.038 951.018 593.123C950.642 593.209 950.18 593.258 949.633 593.273C948.667 593.301 947.797 593.155 947.023 592.836C946.249 592.509 945.634 592.005 945.18 591.323C944.732 590.641 944.512 589.789 944.519 588.766V572.765ZM959.538 593.379C958.501 593.379 957.567 593.194 956.736 592.825C955.912 592.449 955.259 591.895 954.776 591.163C954.3 590.432 954.062 589.53 954.062 588.457C954.062 587.534 954.233 586.77 954.574 586.167C954.914 585.563 955.38 585.08 955.969 584.718C956.559 584.356 957.223 584.082 957.961 583.898C958.707 583.706 959.478 583.567 960.273 583.482C961.232 583.383 962.01 583.294 962.606 583.216C963.203 583.131 963.636 583.003 963.906 582.832C964.183 582.655 964.321 582.381 964.321 582.012V581.948C964.321 581.145 964.083 580.524 963.608 580.084C963.132 579.643 962.446 579.423 961.551 579.423C960.607 579.423 959.858 579.629 959.304 580.041C958.757 580.453 958.387 580.939 958.196 581.501L954.595 580.989C954.879 579.995 955.348 579.164 956.001 578.496C956.654 577.822 957.453 577.317 958.398 576.983C959.343 576.643 960.387 576.472 961.53 576.472C962.319 576.472 963.103 576.564 963.885 576.749C964.666 576.934 965.38 577.239 966.026 577.665C966.672 578.084 967.191 578.656 967.581 579.381C967.979 580.105 968.178 581.01 968.178 582.097V593.049H964.471V590.801H964.343C964.108 591.256 963.778 591.682 963.352 592.079C962.933 592.47 962.404 592.786 961.765 593.028C961.132 593.262 960.39 593.379 959.538 593.379ZM960.539 590.545C961.314 590.545 961.985 590.393 962.553 590.087C963.121 589.775 963.558 589.363 963.863 588.851C964.176 588.34 964.332 587.782 964.332 587.179V585.251C964.211 585.35 964.005 585.442 963.714 585.528C963.43 585.613 963.11 585.687 962.755 585.751C962.4 585.815 962.049 585.872 961.701 585.922C961.353 585.971 961.051 586.014 960.795 586.05C960.22 586.128 959.705 586.256 959.25 586.433C958.796 586.611 958.437 586.859 958.174 587.179C957.912 587.491 957.78 587.896 957.78 588.393C957.78 589.104 958.039 589.64 958.558 590.002C959.076 590.364 959.737 590.545 960.539 590.545ZM974.431 593.283C973.785 593.283 973.231 593.056 972.77 592.601C972.308 592.147 972.081 591.593 972.088 590.939C972.081 590.3 972.308 589.753 972.77 589.299C973.231 588.844 973.785 588.617 974.431 588.617C975.056 588.617 975.6 588.844 976.061 589.299C976.53 589.753 976.768 590.3 976.775 590.939C976.768 591.373 976.654 591.767 976.434 592.122C976.221 592.477 975.937 592.761 975.582 592.974C975.234 593.18 974.85 593.283 974.431 593.283ZM983.133 593.283C982.486 593.283 981.932 593.056 981.471 592.601C981.009 592.147 980.782 591.593 980.789 590.939C980.782 590.3 981.009 589.753 981.471 589.299C981.932 588.844 982.486 588.617 983.133 588.617C983.758 588.617 984.301 588.844 984.763 589.299C985.231 589.753 985.469 590.3 985.476 590.939C985.469 591.373 985.356 591.767 985.135 592.122C984.922 592.477 984.638 592.761 984.283 592.974C983.935 593.18 983.552 593.283 983.133 593.283ZM991.834 593.283C991.188 593.283 990.634 593.056 990.172 592.601C989.71 592.147 989.483 591.593 989.49 590.939C989.483 590.3 989.71 589.753 990.172 589.299C990.634 588.844 991.188 588.617 991.834 588.617C992.459 588.617 993.002 588.844 993.464 589.299C993.933 589.753 994.17 590.3 994.178 590.939C994.17 591.373 994.057 591.767 993.837 592.122C993.624 592.477 993.339 592.761 992.984 592.974C992.636 593.18 992.253 593.283 991.834 593.283Z" fill="#5A7DA0"/>
<path d="M1050.09 402.592C1047.18 468.673 993.874 520.693 929.166 520.693H657.98C619.599 520.693 593.23 481.105 607.438 444.66C626.378 394.866 688.096 431.713 659.819 389.837C632.409 349.238 616.089 299.694 639.48 275.83C693.626 220.59 757.542 293.852 792.675 283.239C803.881 279.62 848.374 251.016 865.677 245.891C975.935 205.288 1059.55 301.378 1050.09 402.592Z" fill="#E3F0FF"/>
<path d="M625.797 386.498C628.794 380.47 602.282 349.747 590.106 357.579C577.93 365.41 576.665 381.303 594.82 387.072C611.98 392.523 622.803 392.526 625.797 386.498Z" fill="#E3F0FF"/>
<path d="M685.146 257.563L681.43 235.828C681.345 235.345 680.869 235.015 680.362 235.094C679.859 235.176 679.516 235.633 679.598 236.117L683.229 257.347L667.552 269.884C667.158 270.199 667.103 270.761 667.431 271.14C667.616 271.349 667.88 271.46 668.147 271.46C668.356 271.46 668.565 271.393 668.738 271.253L684.821 258.39C685.076 258.189 685.197 257.872 685.146 257.563Z" fill="#C7DEFF"/>
<path d="M709.857 268.604L688.269 261.163C687.959 261.058 687.614 261.116 687.362 261.317L671.279 274.18C670.884 274.495 670.83 275.057 671.157 275.436C671.342 275.646 671.606 275.756 671.87 275.756C672.08 275.756 672.292 275.689 672.465 275.549L688.141 263.013L709.23 270.282C709.712 270.448 710.243 270.206 710.416 269.743C710.589 269.28 710.34 268.77 709.857 268.604Z" fill="#C7DEFF"/>
<path d="M678.198 256.136C678.274 256.574 678.665 256.882 679.111 256.882C679.162 256.882 679.211 256.879 679.263 256.871C679.769 256.792 680.112 256.335 680.027 255.848L677.185 239.221C677.103 238.738 676.624 238.409 676.12 238.487C675.614 238.569 675.271 239.026 675.356 239.51L678.198 256.136Z" fill="#C7DEFF"/>
<path d="M705.608 271.996L689.092 266.303C688.61 266.137 688.082 266.379 687.906 266.842C687.733 267.306 687.985 267.815 688.467 267.981L704.984 273.674C705.087 273.709 705.193 273.727 705.296 273.727C705.675 273.727 706.033 273.499 706.17 273.135C706.343 272.672 706.091 272.162 705.608 271.996Z" fill="#C7DEFF"/>
<path d="M893.005 393.946L870.555 389.442C870.051 389.34 869.56 389.649 869.457 390.132C869.351 390.613 869.672 391.085 870.173 391.184L892.107 395.586L898.632 414.148C898.796 414.614 899.324 414.865 899.809 414.708C900.079 414.617 900.282 414.422 900.376 414.183C900.452 413.997 900.461 413.784 900.391 413.577L893.694 394.535C893.587 394.234 893.327 394.013 893.005 393.946Z" fill="#C7DEFF"/>
<path d="M912.639 375.795L897.63 392.449C897.414 392.688 897.348 393.017 897.451 393.317L904.149 412.359C904.312 412.826 904.84 413.076 905.326 412.919C905.596 412.831 905.799 412.633 905.893 412.394C905.969 412.208 905.978 411.995 905.908 411.788L899.38 393.229L914.041 376.961C914.377 376.588 914.335 376.028 913.946 375.705C913.561 375.384 912.976 375.425 912.639 375.795Z" fill="#C7DEFF"/>
<path d="M914.406 380.821L902.922 393.561C902.585 393.934 902.627 394.496 903.016 394.817C903.404 395.14 903.989 395.1 904.323 394.727L915.807 381.986C915.88 381.908 915.934 381.817 915.971 381.724C916.107 381.383 916.016 380.984 915.713 380.731C915.325 380.41 914.739 380.448 914.406 380.821Z" fill="#C7DEFF"/>
<path d="M774.098 470.32C774.098 470.32 667.583 197.662 591.26 267.784C576.654 285.457 593.774 315.652 625.225 350.67C656.675 385.684 748.153 476.71 761.115 491.152L774.098 470.32Z" fill="#5A789F"/>
<path d="M774.096 470.321C774.096 470.321 708.177 301.586 642.896 263.737C644.34 267.35 645.225 271.251 643.833 273.728C640.642 279.403 626.251 282.005 622.138 291.421C618.619 299.483 624.21 330.602 611.585 334.622C615.735 339.834 620.303 345.192 625.223 350.67C656.673 385.684 748.151 476.71 761.113 491.152L774.096 470.321Z" fill="#5A789F"/>
<path d="M603.537 269.989C610.948 275.72 618.043 281.83 625.011 288.05C665.637 324.722 701.631 366.358 730.564 412.176C736.127 421.042 741.554 430.344 746.471 439.56C748.539 443.4 750.848 447.956 752.789 451.86C754.045 454.447 755.823 458.156 757.015 460.773L757.837 462.562L758.635 464.365L759.432 466.166L760.224 467.969C750.726 449.192 740.158 430.962 728.568 413.359C716.992 395.744 704.479 378.717 691.223 362.236C671.324 337.521 649.805 313.992 626.961 291.735C619.341 284.332 611.557 276.99 603.537 269.989Z" fill="#5AA5D1"/>
<path d="M614.686 399.494C614.686 399.494 594.144 391.444 580.236 407.221C568.509 420.526 587.334 456.648 606.775 474.131C606.775 474.131 587.704 485.605 587.058 498.823C586.412 512.039 608.856 525.989 640.625 529.933L643.834 417.846L614.686 399.494Z" fill="#5A789F"/>
<path d="M612.348 398.756C614.268 409.504 615.666 426.19 618.63 444.341C623.286 472.864 633.948 514.267 597.639 515.205C607.118 522.066 622.321 527.66 640.625 529.933L643.834 417.845L614.686 399.493C614.686 399.493 613.828 399.155 612.348 398.756Z" fill="#5A789F"/>
<path d="M590.009 409.404C605.276 424.385 619.997 439.961 634.494 455.63C638.704 460.16 643.179 464.883 647.271 469.498C655.142 478.445 662.747 487.69 669.854 497.211C670.224 497.718 670.597 498.219 670.965 498.729L670.734 498.912C660.075 488.307 649.773 477.09 639.963 465.757C636.866 462.121 633.278 457.96 630.129 454.365C620.192 443.084 610.148 431.797 600.013 420.682C596.628 416.971 593.231 413.268 589.794 409.602L590.009 409.404Z" fill="#5AA5D1"/>
<path d="M599.858 498.679C607.641 499.18 615.495 498.831 623.215 497.808C627.058 497.29 630.871 496.611 634.605 495.603C637.693 494.764 640.718 493.735 643.739 492.707C647.057 491.57 650.324 490.288 653.503 488.823C655.566 487.87 657.547 486.848 659.567 485.79L659.752 486.014C658.754 487.06 657.626 488.065 656.482 488.963C651.429 492.896 645.416 495.71 639.116 497.234C628.845 499.661 618.189 500.483 607.648 499.795C605.024 499.62 602.412 499.373 599.818 498.962L599.858 498.679Z" fill="#5AA5D1"/>
<mask id="mask0_1949_925" style="mask-type:luminance" maskUnits="userSpaceOnUse" x="631" y="284" width="151" height="248">
<path d="M631.369 284.664H781.243V531.657H631.369V284.664Z" fill="white"/>
</mask>
<g mask="url(#mask0_1949_925)">
<path d="M769.277 531.625H643.427C637.078 531.625 631.931 526.684 631.931 520.586V296.105C631.931 290.007 637.078 285.063 643.427 285.063H769.277C775.629 285.063 780.776 290.007 780.776 296.105V520.586C780.776 526.684 775.629 531.625 769.277 531.625Z" fill="#303C72"/>
</g>
<path d="M764.921 525.166H647.775C642.503 525.166 638.229 521.061 638.229 516V300.688C638.229 295.628 642.503 291.525 647.775 291.525H764.921C770.193 291.525 774.464 295.628 774.464 300.688V516C774.464 521.061 770.193 525.166 764.921 525.166Z" fill="#D4EBFF"/>
<path d="M764.921 291.525H647.775C642.503 291.525 638.229 295.628 638.229 300.688V311.952H774.464V300.688C774.464 295.628 770.193 291.525 764.921 291.525Z" fill="#8CCBFF"/>
<path d="M734.198 401.145C734.198 401.145 747.772 392.084 758.389 409.061C769.009 426.041 780.727 459.738 784.042 470.212C787.358 480.683 774.599 486.245 766.71 478.253C758.817 470.261 739.209 433.997 734.722 425.076C730.236 416.155 727.5 406.188 734.198 401.145Z" fill="#9E5959"/>
<path d="M770.034 464.399L780.957 460.978C779.923 458.01 777.399 451.079 777.399 451.079C777.399 451.079 771.338 458.502 770.034 464.399Z" fill="#914D4D"/>
<path d="M757.308 465.154C757.257 461.681 757.223 456.157 757.381 450.545C757.639 441.307 756.122 420.452 756.122 420.452L743.352 441.225C747.623 448.955 752.719 457.85 757.308 465.154Z" fill="#914D4D"/>
<path d="M735.996 398.729C735.996 398.729 724.438 403.6 730.235 418.139C736.032 432.68 754.648 462.916 760.22 472.105C765.793 481.294 773.771 485.661 779.843 482.567C785.916 479.47 786.262 474.083 783.841 465.824C781.418 457.567 765.55 419.756 761.555 412.026C757.557 404.3 747.383 392.812 735.996 398.729Z" fill="white"/>
<path d="M776.323 446.088C772.783 450.549 768.336 461.448 768.336 461.448L780.454 456.443C779.253 453.349 777.836 449.803 776.323 446.088Z" fill="#D4EBFF"/>
<path d="M760.165 472.01C760.28 465.411 760.471 450.645 760.101 442.333C759.619 431.399 757.413 418.14 757.413 418.14L748.665 452.874C753.476 461.055 757.877 468.24 760.165 472.01Z" fill="#D4EBFF"/>
<path d="M810.139 422.725C810.139 422.725 819.418 426.049 824.399 436.863L819.934 440.388L807.458 428.257L810.139 422.725Z" fill="#ABD3FC"/>
<path d="M772.374 481.511C776.59 482.912 781.274 481.665 784.271 478.489C792.397 469.874 819.164 441.206 824.685 431.614C831.216 420.272 822.637 418.632 814.656 425.668C806.679 432.704 793.626 443.359 787.544 448.268C777.643 456.262 767.985 462.215 764.884 468.269C762.713 472.505 766.061 479.413 772.374 481.511Z" fill="#9E5959"/>
<path d="M816.994 442.071C812.842 446.826 804.794 437.835 807.558 433.415C807.603 433.345 815.851 423.515 816.961 419.818C818.129 415.923 817.559 414.035 821.733 410.579C825.285 407.642 827.657 405.647 829.443 405.921C831.336 406.212 829.701 408.639 827.778 410.27C825.697 412.039 822.555 417.254 825.524 417.111C827.89 416.995 835.483 415.48 837.776 414.495C841.513 412.89 850.865 404.184 853.068 408.776C853.068 408.776 855.491 408.388 855.327 411.08C855.327 411.08 858.258 411.981 855.594 415.305C855.594 415.305 857.302 416.791 855.597 418.702C854.442 419.999 849.385 424.421 846.03 426.912C842.678 429.403 829.11 431.029 824.308 433.814C822.779 434.703 817.944 440.984 816.994 442.071Z" fill="#F6AF9A"/>
<path d="M824.319 416.248C824.538 419.016 825.505 421.259 824.55 424.038C826.913 421.845 824.835 418.585 824.319 416.248Z" fill="#E57E73"/>
<path d="M855.594 415.304C854.193 415.085 853.11 416.183 852.097 416.923C848.942 419.208 845.972 421.833 842.666 423.851C846.594 422.945 849.227 419.479 852.318 417.174C853.21 416.303 854.426 415.33 855.594 415.304Z" fill="#E57E73"/>
<path d="M855.331 411.08C852.37 411.336 850.226 413.585 847.927 415.153C845.597 416.691 843.525 418.963 841.184 420.213C842.646 420.047 843.892 419.121 844.993 418.238C848.351 415.858 851.339 412.114 855.331 411.08Z" fill="#E57E73"/>
<path d="M853.07 408.776C847.695 409.536 844.171 414.297 839.721 416.782C844.847 415.515 847.898 409.749 853.07 408.776Z" fill="#E57E73"/>
<path d="M840.606 424.809C834.952 423.067 827.351 421.902 822.422 425.803C827.839 422.75 834.689 423.979 840.606 424.809Z" fill="#EA9A88"/>
<path d="M839.357 416.637C840.383 417.491 840.71 418.811 841.032 420.025C842.057 420.952 842.26 422.461 842.518 423.737C843.04 424.104 843.052 424.83 843.058 425.395C842.915 424.818 842.694 424.197 842.166 423.909C841.738 422.779 841.465 421.287 840.546 420.454C839.979 419.376 840.006 417.849 839.063 416.914C838.769 416.322 838.59 415.623 838.074 415.14C838.666 415.472 839.057 416.052 839.357 416.637Z" fill="#EA9A88"/>
<path d="M810.141 422.725C810.141 422.725 813.726 433.956 824.401 436.864C824.401 436.864 794.136 472.921 786.262 479.2C778.39 485.481 766.56 482.649 762.362 473.384C758.318 464.46 810.141 422.725 810.141 422.725Z" fill="white"/>
<path d="M722.128 502.514C708.915 506.68 703.558 516.181 701.956 525.166H752.517C751.458 519.348 750.266 514.961 748.934 512.697C740.577 498.476 722.128 502.514 722.128 502.514Z" fill="#F6AF9A"/>
<path d="M722.57 496.25C707.2 499.204 699.364 509.235 698.846 525.166H756.338C756.25 524.563 756.162 523.977 756.074 523.409C751.8 496.005 722.57 496.25 722.57 496.25Z" fill="#384682"/>
<path d="M684.269 461.867C686.126 482.04 680.508 494.233 678.102 506.498C676.834 512.969 676.495 519.358 677.374 525.165H745.595C749.788 515.83 749.05 506.632 749.187 501.656C749.421 493.28 750.124 479.292 750.124 479.292C752.609 442.3 682.416 441.691 684.269 461.867Z" fill="#F6AF9A"/>
<path d="M679.778 495.529C679.778 495.529 673.174 511.207 675.613 525.165H746.798C750.671 512.483 750.383 496.249 750.383 496.249C741.31 497.653 679.778 495.529 679.778 495.529Z" fill="#384682"/>
<path d="M674.879 525.166H725.136C724.9 502.525 705.38 501.004 705.38 501.004C690.043 499.454 678.674 503.918 674.879 525.166Z" fill="#F6AF9A"/>
<path d="M672.287 525.114C672.284 525.131 672.284 525.149 672.281 525.166H730.513C730.192 508.956 719.414 498.482 701.393 496.273C701.393 496.273 675.612 494.391 672.287 525.114Z" fill="#384682"/>
<path d="M698.716 391.214C710.973 389.238 720.756 390.852 732.295 394.098C740.015 396.268 748.287 398.36 752.024 403.377C758.586 412.185 755.595 433.943 753.917 444.015C752.24 454.084 750.969 475.142 750.05 480.553C749.131 485.963 724.135 494.456 708.835 492.244C697.105 490.549 686.37 485.028 684.841 474.711C683.042 462.544 679.978 445.101 676.423 434.502C672.868 423.906 667.283 401.836 684.895 394.45C688.199 393.067 695.488 391.732 698.716 391.214Z" fill="#F6AF9A"/>
<path d="M727.639 379.996C727.639 379.996 727.242 390.989 729.781 396.026C732.317 401.061 723.632 404.193 717.987 404.146C712.342 404.099 703.672 401.063 702.659 394.534C701.649 388.002 705.808 390.473 705.022 372.721C704.409 358.838 729.22 366.317 727.639 379.996Z" fill="#F6AF9A"/>
<path d="M728.986 393.969C727.332 388.495 727.639 379.996 727.639 379.996C728.892 369.135 713.51 362.184 707.428 366.735C707.179 368.282 707.064 370.024 707.112 371.99C707.137 373.013 717.492 392.212 728.986 393.969Z" fill="#EA9A88"/>
<path d="M755.119 498.514C754.288 492.507 755.119 463.069 755.238 458.847C755.356 454.623 757.628 432.486 757.385 425.87C757.14 419.25 755.223 405.991 753.509 402.008C751.792 398.028 738.854 394.987 732.081 393.97L728.741 393.067C728.741 393.067 729.812 396.787 724.1 397.731C715.691 399.121 706.549 394.197 702.763 390.681C702.763 390.681 700.533 390.407 699.023 390.678C699.023 390.678 684.396 392.927 680.565 394.407C676.733 395.887 671.222 402.364 670.985 413.432C670.746 424.5 676.57 445.183 678.232 455.779C679.897 466.379 678.826 484.521 678.114 490.797C677.401 497.072 670.509 517.041 670.391 524.913C670.391 524.913 671.264 525.01 672.808 525.167H740.668C750.272 524.223 757.379 523.398 757.971 522.973C757.971 522.973 756.199 517.84 756.075 513.618C755.951 509.396 755.951 504.522 755.119 498.514Z" fill="#85B9F1"/>
<path d="M723.191 399.814C726.916 399.774 732.228 407.355 732.228 407.355C733.896 404.459 735.452 398.299 736.262 394.716C734.736 394.404 733.305 394.154 732.079 393.97L728.739 393.067C728.739 393.067 729.81 396.787 724.098 397.731C715.69 399.121 706.547 394.197 702.761 390.681C702.761 390.681 700.532 390.407 699.021 390.678C699.021 390.678 698.129 390.815 696.731 391.045L694.805 393.897L718.222 412.039C718.222 412.039 718.153 410.839 718.978 406.801C720.306 400.284 723.191 399.814 723.191 399.814Z" fill="#75AEEB"/>
<path d="M692.088 452.623C693.966 438.842 694.697 414.366 694.697 414.366C694.697 414.366 681.89 419.208 671.492 421.096C672.917 432.395 676.903 447.309 678.232 455.778C679.897 466.375 678.826 484.52 678.114 490.796C677.401 497.071 670.509 517.04 670.391 524.912C670.391 524.912 671.264 525.009 672.808 525.166H694.925C682.209 518.535 682.934 499.105 684.611 488.372C686.583 475.733 690.669 463.05 692.088 452.623Z" fill="#75AEEB"/>
<path d="M723.719 401.903C725.464 401.842 725.843 398.975 725.912 397.268C725.4 397.457 724.799 397.614 724.095 397.731C722.652 397.97 721.184 398.022 719.728 397.929C720.355 399.272 721.854 401.967 723.719 401.903Z" fill="#384682"/>
<path d="M722.266 400.262C722.266 400.262 731.42 440.485 732.227 449.342L737.915 459.735L740.308 446.088C740.308 446.088 730.799 413.533 724.519 399.857L722.266 400.262Z" fill="#384682"/>
<path d="M722.786 397.896C722.786 397.896 727.502 395.664 728.737 393.066C728.737 393.066 730.772 393.004 731.616 393.406C731.616 393.406 732.99 400.282 731.616 404.67C731.616 404.67 726.95 398.604 723.277 398.91C719.595 399.219 717.201 407.522 717.201 407.522C717.201 407.522 704.122 397.695 702.502 390.706L702.872 390.298C702.872 390.298 714.044 396.576 722.786 397.896Z" fill="#96C3F2"/>
<path d="M747.207 340.909C747.207 340.909 749.024 349.218 746.482 358.966L740.867 340.58L747.207 340.909Z" fill="#8C4949"/>
<path d="M724.1 324.942C724.1 324.942 742.309 325.97 745.252 341.523C748.194 357.075 746.353 385.207 735.776 388.287C726.123 391.098 711.229 381.501 704.959 371.869C698.362 361.733 696.02 348.812 699.903 339.04C703.303 330.486 709.782 324.202 724.1 324.942Z" fill="#F6AF9A"/>
<path d="M715.821 343.128C715.821 343.128 713.961 345.777 714.474 349.777C714.808 352.382 713.767 353.32 710.943 357.116C708.116 360.912 708.771 361.134 707.94 365.317C707.109 369.498 705.08 379.751 705.025 380.57C704.967 381.391 702.349 378.513 700.39 372.808C698.433 367.103 694.275 356.035 693.917 345.879C693.562 335.725 703.305 325.455 713.288 324.427C713.288 324.427 722.795 320.319 731.946 323.972C741.095 327.623 747.835 333.179 747.447 342.324L745.451 342.388C745.451 342.388 743.931 341.316 743.446 341.037C741.232 339.76 739.43 340.393 737.419 341.651C737.419 341.651 729.592 345.43 725.434 344.976C725.434 344.976 720.686 346.386 715.821 343.128Z" fill="#8C4949"/>
<path d="M707.678 333.867C707.678 333.867 706.498 341.372 714.779 345.512C715.207 344.009 715.82 343.129 715.82 343.129C715.82 343.129 708.64 338.852 707.678 333.867Z" fill="#7D4141"/>
<path d="M712.488 327.776C712.415 331.426 713.325 335.316 716.137 337.906C719.485 340.936 725.725 341.547 730.178 341.437C729.635 341.638 729.071 341.789 728.5 341.909C724.248 342.759 719.158 342.354 715.648 339.683C712.093 336.898 711.023 331.846 712.488 327.776Z" fill="#7D4141"/>
<path d="M717.098 325.834C719.552 325.048 722.154 324.774 724.739 324.786C729.965 324.832 735.355 326.423 739.189 329.936C741.106 331.679 742.565 333.843 743.402 336.174C742.65 335.172 741.88 334.213 741.03 333.333C738.543 330.714 735.355 328.759 731.873 327.606C727.144 326.027 722.084 325.677 717.098 325.834Z" fill="#7D4141"/>
<path d="M715.082 327.776C719.975 328.12 724.77 329.358 729.326 331.088C732.827 332.434 736.215 334.322 738.748 337.046C739.133 337.466 739.494 337.912 739.788 338.392C739.57 338.209 739.345 338.037 739.118 337.874C738.945 337.748 738.602 337.51 738.426 337.39C735.887 335.694 733.109 334.351 730.258 333.221C725.25 331.26 720.142 329.667 715.082 327.776Z" fill="#7D4141"/>
<path d="M718.254 332.114C721.457 335.013 725.607 336.513 729.696 337.9C731.082 338.366 732.495 338.783 733.924 339.316C733.163 339.397 732.404 339.406 731.64 339.383C727.824 339.205 723.966 338.034 720.99 335.665C719.831 334.698 718.73 333.538 718.254 332.114Z" fill="#7D4141"/>
<path d="M711.702 362.052C711.702 362.052 711.663 353.859 706.576 353.804C701.486 353.749 701.514 360.607 704.796 365.056C706.631 367.546 711.724 370.684 711.702 362.052Z" fill="#F6AF9A"/>
<path d="M706.103 359.328C707.104 359.384 707.893 359.911 708.445 360.447C708.302 359.506 707.899 358.597 706.974 358.032C706.734 357.886 706.664 357.583 706.816 357.353C706.968 357.123 707.28 357.056 707.523 357.201C710.826 359.215 709.103 364.135 709.027 364.342C708.936 364.599 708.645 364.735 708.378 364.645C708.372 364.645 708.369 364.642 708.363 364.642C708.105 364.549 707.969 364.275 708.06 364.022C708.066 364.001 708.36 363.162 708.469 362.09C708.463 362.081 708.451 362.073 708.445 362.061C708.436 362.046 707.498 360.389 706.046 360.31C705.763 360.295 705.548 360.062 705.563 359.791C705.578 359.521 705.821 359.314 706.103 359.328Z" fill="#E57E73"/>
<path d="M667.867 525.165H759.518C758.205 511.906 756.573 492.243 756.184 483.27C755.663 471.176 757.92 438.725 757.968 428.607C758.017 418.488 754.971 404.338 754.971 404.338C754.568 403.175 753.718 399.763 746.129 397.048C738.539 394.336 731.814 393.896 731.814 393.896C738.363 410.121 736.51 451.766 736.51 451.766C736.51 451.766 730.583 436.293 722.265 419.325C714.967 404.437 698.42 390.676 698.42 390.676C690.609 390.921 677.001 394.024 677.001 394.024C663.432 408.314 672.463 437.796 674.729 453.497C676.992 469.197 674.947 485.714 668.947 518.374C668.571 520.419 668.21 522.698 667.867 525.165Z" fill="white"/>
<path d="M736.625 448.26L736.51 452.648C742.019 416.226 738.964 396.983 738.458 394.9C734.529 394.075 731.814 393.897 731.814 393.897C737.211 407.265 736.901 437.891 736.625 448.26Z" fill="#ABD3FC"/>
<path d="M736.27 451.14C735.078 448.089 729.606 434.288 722.268 419.325C714.97 404.437 698.423 390.676 698.423 390.676C696.108 390.749 693.284 391.073 690.457 391.492C690.457 391.492 730.182 433.44 736.513 452.646L736.27 451.14Z" fill="#ABD3FC"/>
<path d="M734.592 525.166H735.805C737.009 500.647 737.859 476.127 736.512 451.767C737.234 476.194 735.848 500.772 734.592 525.166Z" fill="#ABD3FC"/>
<path d="M674.729 453.497C676.992 469.198 674.947 485.714 668.947 518.374C668.571 520.42 668.21 522.698 667.867 525.166H678.25L680.155 506.295C680.653 500.995 682.555 480.855 683.183 475.013C683.911 468.268 685.364 467.336 688.998 448.599C692.632 429.863 693.499 413.632 693.499 413.632L671.061 433.196C672.275 440.785 673.928 447.958 674.729 453.497Z" fill="#D4EBFF"/>
<path d="M730.179 393.107C730.179 393.107 735.026 411.511 736.509 451.767C736.509 451.767 738.9 427.678 738.296 412.207C737.689 396.74 737.24 394.657 737.24 394.657C737.24 394.657 732.175 392.707 730.179 393.107Z" fill="white"/>
<path d="M736.511 451.767C722.266 419.325 691.753 391.306 691.753 391.306C694.814 389.829 702.873 390.298 702.873 390.298C702.873 390.298 714.752 403.252 723.036 418.722C734.193 439.559 736.511 451.767 736.511 451.767Z" fill="white"/>
<path d="M677.922 394.662C677.922 394.662 694.402 395.932 691.384 415.525C688.366 435.115 675.143 468.297 670.784 478.413C666.425 488.525 653.446 485.224 652.633 474.238C651.817 463.254 660.077 423.103 662.509 413.474C664.939 403.848 669.413 394.478 677.922 394.662Z" fill="#F6AF9A"/>
<path d="M680.562 394.406C680.562 394.406 668.468 389.645 661.746 412.323C655.021 435.002 650.662 465.186 650.48 475.304C650.298 485.423 660.633 490.419 667.194 486.643C673.758 482.87 680.844 459.376 685.103 447.408C691.752 428.723 702.105 398.991 680.562 394.406Z" fill="white"/>
<path d="M652.498 473.26C652.498 473.26 652.386 505.445 653.878 525.167H668.12C669.173 516.234 670.495 506.451 671.247 501.081C672.973 488.772 674.542 478.968 674.727 471.13C674.969 460.89 653.229 458.739 652.498 473.26Z" fill="#F6AF9A"/>
<path d="M664.249 456.985C664.249 456.985 651.749 458.034 650.478 473.035C649.522 484.331 649.386 508.282 649.844 525.166H673.334C675.321 504.81 678.831 468.502 678.904 465.154C679.007 460.475 670.389 455.939 664.249 456.985Z" fill="white"/>
<path d="M773.724 483.364V516.001C773.724 520.659 769.775 524.45 764.924 524.45H647.778C642.924 524.45 638.978 520.659 638.978 516.001V300.689C638.978 296.03 642.924 292.24 647.778 292.24H764.924C769.775 292.24 773.724 296.03 773.724 300.689V439.775C774.152 440.807 774.576 441.832 774.995 442.855C775.132 442.724 775.213 442.546 775.213 442.348V300.689C775.213 295.24 770.597 290.809 764.924 290.809H647.778C642.102 290.809 637.488 295.24 637.488 300.689V516.001C637.488 521.449 642.102 525.88 647.778 525.88H764.924C770.597 525.88 775.213 521.449 775.213 516.001V483.542C774.722 483.518 774.225 483.46 773.724 483.364Z" fill="white"/>
<path d="M732.762 296.102H679.942C676.702 296.102 674.075 293.579 674.075 290.471V289.293H738.626V290.471C738.626 293.579 736.002 296.102 732.762 296.102Z" fill="#303C72"/>
<path d="M1058.7 341.065C1060.42 339.906 1062.3 339.017 1064.3 338.42C1072.56 335.949 1093.91 331.87 1110.09 349.083C1127.37 367.453 1102.37 419.537 1075.61 445.193C1075.61 445.193 1103.21 460.646 1104.75 479.374C1106.29 498.102 1075.1 518.881 1030.21 525.864L1020.34 366.937L1058.7 341.065Z" fill="#5A789F"/>
<path d="M1064.13 338.474C1061.91 353.811 1060.71 377.55 1057.37 403.436C1052.11 444.12 1038.94 503.345 1090.52 503.092C1077.39 513.239 1056.07 521.843 1030.21 525.866L1020.34 366.939L1058.7 341.064C1060.35 339.954 1062.15 339.077 1064.06 338.495L1064.13 338.474Z" fill="#5A789F"/>
<path d="M1096.6 352.844C1076.54 375.505 1057.02 398.702 1037.74 421.981C1032.26 428.624 1026.35 436.009 1020.85 442.641C1009.53 456.206 997.822 470.004 985.958 483.123L985.722 482.949C986.237 482.223 986.759 481.503 987.278 480.784C989.887 477.197 992.559 473.602 995.225 470.074C1002.72 460.197 1010.51 450.35 1018.42 440.782C1026.33 431.298 1034.73 421.748 1042.78 412.375C1053.21 400.296 1063.92 388.129 1074.62 376.274C1079.32 371.056 1084.29 365.614 1089.05 360.466C1091.48 357.852 1093.91 355.239 1096.38 352.652L1096.6 352.844Z" fill="#5AA5D1"/>
<path d="M1086.64 480.073C1069.17 482.937 1051.11 482.701 1033.72 479.388C1031.9 479.036 1030 478.622 1028.22 478.167C1020.5 476.16 1013.07 472.949 1006.5 468.556C1005.61 467.959 1004.53 467.186 1003.69 466.528C1002.78 465.832 1001.87 465.083 1001.02 464.328L1001.2 464.098C1002.83 464.969 1004.44 465.846 1006.08 466.656C1007.65 467.443 1009.42 468.276 1011.04 468.984C1015.6 471.006 1020.34 472.696 1025.12 474.164C1029.92 475.641 1034.77 476.996 1039.71 477.978C1053.29 480.562 1067.26 481.18 1081.06 480.288C1082.91 480.166 1084.76 480.014 1086.6 479.79L1086.64 480.073Z" fill="#5AA5D1"/>
<mask id="mask1_1949_925" style="mask-type:luminance" maskUnits="userSpaceOnUse" x="896" y="284" width="151" height="248">
<path d="M896.949 284.664H1046.82V531.657H896.949V284.664Z" fill="white"/>
</mask>
<g mask="url(#mask1_1949_925)">
<path d="M1034.78 531.623H908.93C902.581 531.623 897.431 526.682 897.431 520.584V296.103C897.431 290.005 902.581 285.061 908.93 285.061H1034.78C1041.13 285.061 1046.28 290.005 1046.28 296.103V520.584C1046.28 526.682 1041.13 531.623 1034.78 531.623Z" fill="#303C72"/>
</g>
<path d="M1030.43 525.166H913.281C908.009 525.166 903.735 521.061 903.735 516V300.688C903.735 295.628 908.009 291.525 913.281 291.525H1030.43C1035.7 291.525 1039.97 295.628 1039.97 300.688V516C1039.97 521.061 1035.7 525.166 1030.43 525.166Z" fill="#D4EBFF"/>
<path d="M930.296 411.872C931.197 407.167 935.056 403.274 940.249 402.406C946.919 401.29 953.268 405.576 954.43 411.98C954.67 413.311 954.67 414.628 954.454 415.89C954.406 416.187 954.342 416.481 954.269 416.773C953.074 422.398 946.34 453.646 940.012 472.81C939.348 476.12 936.624 478.847 932.963 479.459C928.231 480.251 923.726 477.21 922.901 472.665C922.576 470.888 927.845 421.819 930.296 411.872Z" fill="#DE9681"/>
<path d="M941.785 413.624C941.785 413.624 946.972 409.036 954.452 412.109C954.67 413.397 954.661 414.67 954.455 415.891C954.407 416.188 954.343 416.482 954.27 416.774C953.239 421.628 948.085 445.559 942.625 464.342C942.13 462.035 940.614 459.73 939.861 459.156C938.681 458.256 935.609 455.581 934.101 450.882C933.021 447.523 935.078 434.945 937.435 428.332C939.792 421.715 941.785 413.624 941.785 413.624Z" fill="#EA9A88"/>
<path d="M945.626 401.902C945.626 401.902 940.978 400.978 934.666 403.656C932.776 404.457 930.968 407.595 929.74 410.028C925.047 419.336 921.474 447.614 921.474 447.614C921.474 447.614 933.704 458.566 946.52 462.08C946.52 462.08 956.063 422.136 955.872 413.769C955.681 405.404 949.326 402.761 945.626 401.902Z" fill="#FCF5F1"/>
<path d="M952.485 435.264L937.03 411.703C937.03 411.703 940.3 421.312 938.635 427.751C936.97 434.192 933.008 443.003 932.389 448.259C932.122 450.534 932.247 453.278 932.474 455.659C936.606 458.202 941.52 460.708 946.522 462.08C946.522 462.08 949.81 448.323 952.485 435.264Z" fill="#F0E2DA"/>
<path d="M935.187 461.881C930.485 460.186 925.238 462.47 923.472 466.986C923.123 467.874 922.938 468.78 922.899 469.678C922.896 469.678 919.514 513.389 918.604 525.165H929.278C930.382 520.101 932.46 510.921 934.687 502.953C938.487 489.35 939.792 477.122 940.392 471.49C940.562 470.747 940.629 470.001 940.596 469.267C940.441 465.87 938.709 463.152 935.187 461.881Z" fill="#DE9681"/>
<path d="M957.22 507.988C947.188 509.031 939.392 516.18 937.399 525.165H981.939C979.548 514.322 968.941 506.77 957.22 507.988Z" fill="#F6AF9A"/>
<path d="M936.085 525.166H982.884C979.475 505.556 964.074 505.538 962.136 505.565C962.136 505.565 940.738 504.256 936.085 525.166Z" fill="#8C4949"/>
<path d="M977.439 473.14C953.827 473.076 948.931 483.649 948.931 483.649C948.537 486.568 948.473 489.814 947.072 492.576C940.593 505.331 938.063 519.881 937.311 525.166H1016.72C1016.24 517.314 1013.26 509.882 1009.27 500.401C1006.77 494.437 1000.74 486.6 1000.65 480.45C1000.65 480.45 998.236 473.195 977.439 473.14Z" fill="#F6AF9A"/>
<path d="M948.656 485.998C948.656 485.998 947.127 488.189 943.187 498.427C940.317 505.876 937.523 518.722 936.216 525.166H1017.73C1016.71 516.321 1013.96 506.619 1010.86 501.142C1007.14 494.592 1001.83 483.824 1001.83 483.824C991.339 486.391 948.656 485.998 948.656 485.998Z" fill="#8C4949"/>
<path d="M1010.86 501.142C1007.14 494.592 1001.84 483.824 1001.84 483.824C994.743 485.558 972.961 485.942 959.574 486.006C953.498 489.922 951.748 494.403 951.748 494.403C951.748 494.403 968.059 499.729 988.664 500.064C999.424 500.064 1003.66 500.064 1005.07 500.804C1006.06 501.323 1007.62 516.28 1008.46 525.166H1017.73C1016.71 516.321 1013.97 506.619 1010.86 501.142Z" fill="#824444"/>
<path d="M971.718 525.166H1016.12C1013.99 516.14 1005.99 509.075 995.87 508.238C984.4 507.291 974.19 514.683 971.718 525.166Z" fill="#F6AF9A"/>
<path d="M969.74 525.166H1017.38C1015.34 514.739 1009.71 505.098 993.707 505.579C993.707 505.579 973.756 505.567 969.74 525.166Z" fill="#8C4949"/>
<path d="M1006.61 508.185C1007.3 513.359 1007.99 520.209 1008.46 525.167H1017.39C1016.03 518.251 1013.1 511.684 1006.61 508.185Z" fill="#824444"/>
<path d="M947.322 465.854C947.322 465.854 941.216 462.396 940.133 456.819C939.05 451.243 942.156 432.701 942.945 424.028C943.737 415.355 936.502 407.873 935.531 403.567C935.531 403.567 945.751 398.952 968.158 396.839C968.158 396.839 980.79 397.189 992.926 399.31C1002.83 401.038 1007.99 406.244 1009.92 409.225C1011.86 412.205 1010.6 419.471 1007.9 428.346C1005.21 437.22 1002.24 444.909 1001.94 454.308C1001.8 458.847 1001.59 475.049 1001.88 485.657C1001.88 485.657 1003.06 492.323 979.073 493.748C956.929 495.064 948.708 485.759 948.708 485.759C947.874 477.033 947.322 465.854 947.322 465.854Z" fill="#DE9681"/>
<path d="M1005.44 436.212C1003.65 442.065 1002.15 447.773 1001.94 454.308C1001.84 457.472 1001.71 466.299 1001.74 474.952C996.474 461.312 989.434 420.587 989.434 420.587L1005.44 436.212Z" fill="#E57E73"/>
<path d="M956.997 400.041L958.313 377.56C958.468 373.106 961.641 369.094 966.364 367.92C972.112 366.489 977.979 369.805 979.468 375.326C979.671 376.074 979.78 376.829 979.808 377.572L981.864 401.707C981.883 401.876 981.928 402.642 981.928 402.642C982.283 408.321 978.406 413.23 972.452 414.71C965.69 416.391 959.014 412.802 957.263 406.308C956.717 404.286 956.851 402.194 956.997 400.041Z" fill="#DE9681"/>
<path d="M958.314 377.56C958.469 373.106 961.642 369.094 966.365 367.92C972.113 366.489 977.979 369.805 979.469 375.326C979.672 376.074 979.781 376.829 979.809 377.572L979.915 378.828C975.116 389.194 966.38 396.909 957.073 398.776L958.314 377.56Z" fill="#D38475"/>
<path d="M949.223 399.629C949.223 399.629 950.782 406.397 961.915 408.143C973.047 409.888 995.631 399.702 995.631 399.702C995.631 399.702 1000.48 399.638 1003.81 401.634C1003.81 401.634 1010.13 405.427 1011.19 410.083C1012.25 414.742 1010.84 422.987 1009.98 425.996C1009.12 429.003 1003.81 455.632 1003.81 462.304C1003.81 466.963 1006.62 480.216 1008.32 487.791C1009 490.833 1006.87 493.79 1003.67 494.259C993.059 495.812 969.726 498.3 946.942 494.545C943.211 493.93 940.578 490.693 940.824 487.069C941.394 478.695 942.337 464.757 942.316 464.175C942.316 464.175 937.608 461.41 936.595 453.549C935.582 445.692 941.794 426.189 941.127 422.841C940.459 419.494 934.55 406.84 934.669 403.656C934.669 403.656 941.081 400.707 949.223 399.629Z" fill="#FCF5F1"/>
<path d="M976.995 496.473C988.249 496.237 997.871 495.107 1003.68 494.259C1006.87 493.79 1008.99 490.83 1008.32 487.791C1006.62 480.216 1003.81 466.963 1003.81 462.304C1003.81 455.632 1009.12 429.003 1009.98 425.996C1010.17 425.309 1010.4 424.35 1010.61 423.226C1001.1 418.048 992.214 416.883 987.904 422.404C987.904 422.404 990.106 447.399 990.072 452.203C990.039 457.004 979.158 464.39 962.79 462.767C962.79 462.767 977.948 468.105 991.789 461.311L993.446 465.92H999.664C999.664 465.92 1000.48 475.671 1001.69 482.366C1002.9 489.026 990.209 493.732 976.995 496.473Z" fill="#F0E2DA"/>
<path d="M987.994 416.895C987.851 415.744 987.872 414.558 988.079 413.358C989.253 406.52 995.978 401.89 1003.1 403.015C1009.01 403.95 1013.34 408.559 1013.97 414.008L1028.65 473.577C1028.96 474.742 1029.04 475.986 1028.82 477.25C1027.99 482.104 1023.21 485.391 1018.16 484.592C1013.9 483.916 1010.8 480.557 1010.43 476.612C1010.43 476.612 991.883 434.618 988.33 418.59C988.179 418.037 988.067 417.469 987.994 416.895Z" fill="#DE9681"/>
<path d="M998.656 401.633C998.656 401.633 985.321 403.361 987.293 419.359C989.261 435.357 995.932 464.174 995.932 464.174C995.932 464.174 1019.73 464.32 1027.76 453.112C1027.76 453.112 1016.7 415.889 1013.67 409.453C1010.63 403.014 1003.37 399.92 998.656 401.633Z" fill="#FCF5F1"/>
<path d="M1017.53 467.818C1013.8 468.663 1011.13 471.561 1010.51 474.976C1010.38 475.716 1010.34 476.479 1010.41 477.252C1010.26 483.02 1010.46 495.184 1012.46 509.413C1013.19 514.643 1013.8 520.345 1014.26 525.167H1026.2C1027.18 507.814 1028.9 477.243 1028.9 477.243C1028.98 476.328 1028.91 475.387 1028.68 474.449C1027.51 469.659 1022.52 466.69 1017.53 467.818Z" fill="#DE9681"/>
<path d="M968.718 330.714C968.718 330.714 989.752 331.465 989.291 355.356C988.845 378.305 968.773 397.08 951.577 392.261C946.111 390.393 942.51 378.442 942.319 360.478C942.125 342.513 950.157 330.084 968.718 330.714Z" fill="#DE9681"/>
<path d="M996.637 386.974C994.071 378.822 996.155 363.275 995.114 356.263C995.087 356.079 995.044 355.91 994.996 355.753C994.341 346.386 991.131 338.857 983.7 333.176C975.703 327.061 962.672 329.904 962.672 329.904C956.751 329.479 944.46 334.455 941.053 342.275C937.647 350.095 938.684 361.329 940.019 364.315C941.35 367.302 939.573 370.145 938.833 372.135C938.092 374.125 939.573 376.115 940.904 378.676C942.239 381.234 940.019 384.22 940.019 384.22C942.239 383.084 943.273 379.955 942.388 377.254C941.499 374.551 941.053 373.557 941.632 371.506C942.209 369.452 942.682 368.153 942.979 365.026C943.273 361.897 942.533 355.642 944.311 351.377C946.088 347.108 953.047 342.275 953.047 342.275C955.122 348.39 958.082 353.224 961.932 354.503C965.784 355.782 968.153 357.632 968.894 359.479C969.634 361.329 968.448 364.741 968.894 368.863C969.336 372.989 971.114 373.129 972.446 374.979C973.78 376.826 970.077 380.098 969.188 381.52C968.299 382.941 968.894 385.357 969.928 387.207C970.965 389.054 970.225 391.187 970.225 391.187C972.003 390.476 971.705 387.064 971.114 384.22C970.522 381.377 972.743 380.666 974.075 378.533C975.409 376.401 973.632 373.414 973.334 371.85C973.037 370.285 975.44 364.962 976.328 365.388C976.841 365.635 977.451 368.569 977.927 372.051C977.69 373.496 977.654 374.95 977.878 376.383C977.878 376.383 978.261 377.246 978.6 378.624C978.625 379.017 978.649 379.401 978.667 379.769C978.707 380.584 978.879 381.531 979.104 382.452C979.131 384.279 978.84 386.321 977.878 388.302C975.118 393.989 971.657 392.087 972.424 400.556C973.192 409.029 970.959 415.843 968.299 420.176C965.639 424.511 965.59 437.158 971.044 444.296C971.044 444.296 971.948 438.697 976.001 437.007C980.053 435.317 986.384 427.019 985.965 421.752C985.544 416.484 989.223 401.337 998.593 399.79C998.593 399.79 999.203 395.126 996.637 386.974Z" fill="#8C4949"/>
<path d="M953.047 342.275C953.408 336.894 957.139 331.452 962.672 329.905C957.794 332.553 954.67 337.22 953.047 342.275Z" fill="#7A3D3D"/>
<path d="M956.754 341.138C963.755 343.775 962.526 347.061 966.503 351.737C967.847 353.52 970.043 353.96 971.972 354.86C974.429 356.326 976.088 359.111 976.003 361.896C975.727 359.56 974.32 357.316 972.366 355.938C970.055 354.516 967.704 354.68 965.833 352.296C961.807 347.551 963.415 344.614 956.754 341.138Z" fill="#7A3D3D"/>
<path d="M961.193 338.295C965.046 338.928 968.855 340.772 970.948 344.049C974.725 348.734 980.892 353.34 980.148 359.907C979.994 353.445 973.951 349.355 970.275 344.53C968.346 341.293 964.8 339.414 961.193 338.295Z" fill="#7A3D3D"/>
<path d="M961.193 333.888C967.715 333.134 974.862 334.579 979.488 339.325C981.76 341.469 983.722 343.998 984.866 346.874C985.373 348.205 985.734 349.63 985.734 351.054C985.706 351.861 985.727 352.849 985.818 353.653C986.243 358.108 987.338 362.74 986.07 367.16C987.15 361.738 984.896 356.302 984.93 350.882C984.508 345.612 980.674 341.192 976.603 337.912C972.286 334.681 966.547 333.78 961.193 333.888Z" fill="#7A3D3D"/>
<path d="M991.702 358.664C992.933 363.655 993.297 369.039 991.683 373.992C990.995 376.463 989.642 378.758 988.965 381.206C988.395 383.746 989.997 386.185 989.721 388.757C989.672 392.28 988.125 395.942 985.019 397.987C984.315 398.448 983.636 398.992 983.062 399.596C980.126 402.728 978.91 407.037 978.558 411.168C978.461 412.887 978.506 414.632 978.121 416.322C977.105 423.174 970.307 428.334 971.044 435.484C969.91 428.389 976.544 422.982 977.442 416.202C977.784 414.527 977.699 412.814 977.784 411.118C978.103 406.597 979.471 401.827 982.902 398.547C983.375 398.095 983.96 397.655 984.509 397.288C988.149 394.905 989.372 390.272 988.732 386.246C988.416 384.53 987.722 382.799 988.244 381.048C988.987 378.534 990.361 376.317 991.131 373.823C992.854 368.963 992.645 363.661 991.702 358.664Z" fill="#7A3D3D"/>
<path d="M982.448 377.457C985.16 385.912 981.796 387.121 978.511 393.941C977.849 395.38 977.913 396.819 977.78 398.375C977.036 401.265 975.82 401.991 976.002 405.498C975.444 402.736 976.218 401.224 977.03 398.725C977.234 397.358 976.949 395.913 977.407 394.564C977.464 394.302 977.616 393.906 977.704 393.65C980.986 386.445 984.074 386.643 982.448 377.457Z" fill="#7A3D3D"/>
<path d="M992.578 381.508C992.411 384.043 992.101 386.618 992.556 389.106C992.708 389.98 993.278 390.586 993.591 391.379C994.294 393.042 994.519 394.878 994.194 396.638C993.803 398.31 992.945 399.88 992.96 401.634C992.575 399.912 993.233 398.225 993.503 396.541C993.833 389.61 989.708 391.364 992.578 381.508Z" fill="#7A3D3D"/>
<path d="M986.496 403.47C984.588 405.899 982.702 408.778 982.835 411.913C983.351 416.597 983.563 422.448 980.945 426.596C982.753 422.104 982.386 417.078 982.016 412.364C981.728 408.894 983.973 405.733 986.496 403.47Z" fill="#7A3D3D"/>
<path d="M981.167 361.245C981.167 361.245 984.573 361.504 984.646 366.655C984.713 371.605 981.616 377.307 977.876 376.383C976.684 376.016 975.649 371.687 975.479 367.815C975.31 363.946 977.163 361.234 981.167 361.245Z" fill="#DE9681"/>
<path d="M978.485 372.693C976.977 365.998 980.55 364.099 980.702 364.02C980.887 363.924 981.114 363.994 981.214 364.169C981.312 364.346 981.242 364.565 981.06 364.661C980.957 364.716 979.058 365.756 978.885 369.118C979.937 367.933 981.615 367.723 981.706 367.711C981.912 367.688 982.1 367.831 982.128 368.029C982.152 368.23 982.003 368.41 981.797 368.434C981.7 368.445 979.446 368.737 978.915 370.587C978.967 371.181 979.064 371.828 979.225 372.539C979.264 372.716 979.161 372.894 978.985 372.955C978.97 372.961 978.952 372.967 978.933 372.97C978.73 373.014 978.527 372.888 978.485 372.693Z" fill="#BA6D5B"/>
<path d="M1030.43 291.525H913.281C908.009 291.525 903.735 295.628 903.735 300.688V311.952H1039.97V300.688C1039.97 295.628 1035.7 291.525 1030.43 291.525Z" fill="#8CCBFF"/>
<path d="M1030.93 301.285H1017.83C1017.03 301.285 1016.37 300.662 1016.37 299.89V299.668C1016.37 298.899 1017.03 298.276 1017.83 298.276H1030.93C1031.73 298.276 1032.38 298.899 1032.38 299.668V299.89C1032.38 300.662 1031.73 301.285 1030.93 301.285Z" fill="white"/>
<path d="M1030.93 307.803H1022.63C1021.83 307.803 1021.18 307.177 1021.18 306.407V306.186C1021.18 305.414 1021.83 304.791 1022.63 304.791H1030.93C1031.74 304.791 1032.39 305.417 1032.39 306.186V306.407C1032.39 307.177 1031.74 307.803 1030.93 307.803Z" fill="white"/>
<path d="M1030.43 525.88H913.283C907.607 525.88 902.99 521.449 902.99 516.001V300.689C902.99 295.24 907.607 290.809 913.283 290.809H1030.43C1036.1 290.809 1040.72 295.24 1040.72 300.689V516.001C1040.72 521.449 1036.1 525.88 1030.43 525.88ZM913.283 292.24C908.429 292.24 904.483 296.03 904.483 300.689V516.001C904.483 520.659 908.429 524.45 913.283 524.45H1030.43C1035.28 524.45 1039.23 520.659 1039.23 516.001V300.689C1039.23 296.03 1035.28 292.24 1030.43 292.24H913.283Z" fill="white"/>
<path d="M998.265 296.102H945.442C942.205 296.102 939.578 293.579 939.578 290.471V289.293H1004.13V290.471C1004.13 293.579 1001.5 296.102 998.265 296.102Z" fill="#303C72"/>
<path d="M914.459 324.034H796.56C792.771 324.034 789.698 326.985 789.698 330.624V363.465C789.698 367.107 792.771 370.055 796.56 370.055H902.45L921.32 391.798V330.624C921.32 326.985 918.247 324.034 914.459 324.034Z" fill="white"/>
<path d="M867.093 338.977H907.783C908.939 338.977 909.876 338.077 909.876 336.967V335.329C909.876 334.219 908.939 333.319 907.783 333.319H867.093C865.934 333.319 864.997 334.219 864.997 335.329V336.967C864.997 338.077 865.934 338.977 867.093 338.977Z" fill="#D4E7FF"/>
<path d="M801.814 338.977H854.291C855.45 338.977 856.388 338.077 856.388 336.967V335.329C856.388 334.219 855.45 333.319 854.291 333.319H801.814C800.658 333.319 799.721 334.219 799.721 335.329V336.967C799.721 338.077 800.658 338.977 801.814 338.977Z" fill="#D4E7FF"/>
<path d="M882.979 350.037H907.785C908.941 350.037 909.878 349.137 909.878 348.027V346.393C909.878 345.28 908.941 344.379 907.785 344.379H882.979C881.823 344.379 880.883 345.28 880.883 346.393V348.027C880.883 349.137 881.823 350.037 882.979 350.037Z" fill="#D4E7FF"/>
<path d="M859.133 350.037H870.832C871.991 350.037 872.928 349.137 872.928 348.027V346.393C872.928 345.28 871.991 344.379 870.832 344.379H859.133C857.977 344.379 857.04 345.28 857.04 346.393V348.027C857.04 349.137 857.977 350.037 859.133 350.037Z" fill="#D4E7FF"/>
<path d="M801.814 350.037H847.463C848.622 350.037 849.559 349.137 849.559 348.027V346.393C849.559 345.28 848.622 344.379 847.463 344.379H801.814C800.658 344.379 799.721 345.28 799.721 346.393V348.027C799.721 349.137 800.658 350.037 801.814 350.037Z" fill="#D4E7FF"/>
<path d="M893.744 361.099H907.785C908.941 361.099 909.878 360.198 909.878 359.086V357.451C909.878 356.338 908.941 355.438 907.785 355.438H893.744C892.589 355.438 891.651 356.338 891.651 357.451V359.086C891.651 360.198 892.589 361.099 893.744 361.099Z" fill="#D4E7FF"/>
<path d="M801.814 361.099H882.663C883.819 361.099 884.756 360.199 884.756 359.086V357.451C884.756 356.338 883.819 355.438 882.663 355.438H801.814C800.658 355.438 799.721 356.338 799.721 357.451V359.086C799.721 360.199 800.658 361.099 801.814 361.099Z" fill="#D4E7FF"/>
<path d="M882.276 371.01H796.562C792.23 371.01 788.705 367.624 788.705 363.464V330.623C788.705 326.463 792.23 323.08 796.562 323.08H892.735C893.284 323.08 893.727 323.505 893.727 324.033C893.727 324.56 893.284 324.988 892.735 324.988H796.562C793.328 324.988 790.695 327.514 790.695 330.623V363.464C790.695 366.573 793.328 369.101 796.562 369.101H882.276C882.825 369.101 883.271 369.527 883.271 370.054C883.271 370.581 882.825 371.01 882.276 371.01Z" fill="#8CCBFF"/>
<path d="M882.058 268.411H764.162C760.374 268.411 757.301 271.362 757.301 275.001V336.175L776.172 314.432H882.058C885.85 314.432 888.923 311.481 888.923 307.842V275.001C888.923 271.362 885.85 268.411 882.058 268.411Z" fill="white"/>
<path d="M835.92 283.447H771.118C769.959 283.447 769.021 282.547 769.021 281.437V279.799C769.021 278.689 769.959 277.789 771.118 277.789H835.92C837.076 277.789 838.013 278.689 838.013 279.799V281.437C838.013 282.547 837.076 283.447 835.92 283.447Z" fill="#D4E7FF"/>
<path d="M877.086 283.447H848.721C847.565 283.447 846.628 282.547 846.628 281.437V279.799C846.628 278.689 847.565 277.789 848.721 277.789H877.086C878.245 277.789 879.182 278.689 879.182 279.799V281.437C879.182 282.547 878.245 283.447 877.086 283.447Z" fill="#D4E7FF"/>
<path d="M795.12 294.505H771.117C769.962 294.505 769.021 293.605 769.021 292.495V290.857C769.021 289.747 769.962 288.847 771.117 288.847H795.12C796.276 288.847 797.213 289.747 797.213 290.857V292.495C797.213 293.605 796.276 294.505 795.12 294.505Z" fill="#D4E7FF"/>
<path d="M857.715 294.505H808.065C806.909 294.505 805.972 293.605 805.972 292.495V290.857C805.972 289.747 806.909 288.847 808.065 288.847H857.715C858.871 288.847 859.808 289.747 859.808 290.857V292.495C859.808 293.605 858.871 294.505 857.715 294.505Z" fill="#D4E7FF"/>
<path d="M877.085 294.505H869.386C868.227 294.505 867.29 293.605 867.29 292.495V290.857C867.29 289.747 868.227 288.847 869.386 288.847H877.085C878.243 288.847 879.181 289.747 879.181 290.857V292.495C879.181 293.605 878.243 294.505 877.085 294.505Z" fill="#D4E7FF"/>
<path d="M822.858 305.568H771.118C769.962 305.568 769.021 304.665 769.021 303.555V301.92C769.021 300.807 769.962 299.907 771.118 299.907H822.858C824.014 299.907 824.951 300.807 824.951 301.92V303.555C824.951 304.665 824.014 305.568 822.858 305.568Z" fill="#D4E7FF"/>
<path d="M877.086 305.568H833.942C832.783 305.568 831.846 304.665 831.846 303.555V301.92C831.846 300.807 832.783 299.907 833.942 299.907H877.086C878.245 299.907 879.182 300.807 879.182 301.92V303.555C879.182 304.665 878.245 305.568 877.086 305.568Z" fill="#D4E7FF"/>
<path d="M882.059 315.383H789.701C789.152 315.383 788.706 314.958 788.706 314.431C788.706 313.903 789.152 313.475 789.701 313.475H882.059C885.296 313.475 887.929 310.949 887.929 307.84V275C887.929 271.891 885.296 269.362 882.059 269.362H764.163C760.93 269.362 758.297 271.891 758.297 275V280.617C758.297 281.144 757.851 281.572 757.302 281.572C756.753 281.572 756.307 281.144 756.307 280.617V275C756.307 270.839 759.831 267.454 764.163 267.454H882.059C886.394 267.454 889.919 270.839 889.919 275V307.84C889.919 312.001 886.394 315.383 882.059 315.383Z" fill="#8CCBFF"/>
</svg>
