<svg width="1680" height="793" viewBox="0 0 1680 793" fill="none" xmlns="http://www.w3.org/2000/svg">
<rect x="0.00585938" width="1679.88" height="792.08" fill="white"/>
<path d="M654.899 590.395H650.68L658.362 568.576H663.241L670.933 590.395H666.714L660.886 573.051H660.716L654.899 590.395ZM655.038 581.84H666.543V585.015H655.038V581.84ZM680.254 596.872C678.869 596.872 677.68 596.684 676.685 596.307C675.691 595.938 674.892 595.441 674.288 594.816C673.685 594.191 673.266 593.498 673.031 592.738L676.504 591.897C676.661 592.216 676.888 592.532 677.186 592.845C677.484 593.164 677.886 593.427 678.39 593.633C678.901 593.846 679.544 593.953 680.318 593.953C681.412 593.953 682.317 593.686 683.035 593.154C683.752 592.628 684.111 591.762 684.111 590.554V587.454H683.919C683.72 587.852 683.429 588.26 683.045 588.679C682.669 589.098 682.168 589.45 681.543 589.734C680.925 590.018 680.148 590.16 679.21 590.16C677.953 590.16 676.813 589.865 675.79 589.276C674.775 588.679 673.965 587.792 673.362 586.613C672.765 585.426 672.467 583.942 672.467 582.159C672.467 580.363 672.765 578.846 673.362 577.61C673.965 576.368 674.778 575.426 675.801 574.787C676.824 574.141 677.964 573.818 679.221 573.818C680.18 573.818 680.968 573.981 681.586 574.308C682.211 574.627 682.708 575.015 683.077 575.469C683.447 575.917 683.727 576.339 683.919 576.737H684.132V574.031H687.935V590.661C687.935 592.06 687.602 593.218 686.934 594.134C686.266 595.05 685.354 595.735 684.196 596.19C683.038 596.645 681.724 596.872 680.254 596.872ZM680.286 587.135C681.103 587.135 681.799 586.936 682.374 586.538C682.95 586.14 683.386 585.569 683.685 584.823C683.983 584.077 684.132 583.182 684.132 582.138C684.132 581.108 683.983 580.206 683.685 579.432C683.393 578.658 682.96 578.058 682.385 577.632C681.817 577.199 681.117 576.982 680.286 576.982C679.427 576.982 678.71 577.206 678.134 577.653C677.559 578.1 677.126 578.715 676.835 579.496C676.543 580.27 676.398 581.151 676.398 582.138C676.398 583.14 676.543 584.017 676.835 584.77C677.133 585.515 677.57 586.098 678.145 586.517C678.727 586.929 679.441 587.135 680.286 587.135ZM702.317 583.512V574.031H706.174V590.395H702.435V587.486H702.264C701.895 588.402 701.288 589.152 700.442 589.734C699.604 590.316 698.571 590.608 697.342 590.608C696.27 590.608 695.322 590.37 694.498 589.894C693.681 589.411 693.042 588.711 692.58 587.795C692.119 586.872 691.888 585.757 691.888 584.45V574.031H695.744V583.853C695.744 584.89 696.028 585.714 696.597 586.325C697.165 586.936 697.911 587.241 698.834 587.241C699.402 587.241 699.952 587.103 700.485 586.826C701.018 586.549 701.455 586.137 701.795 585.59C702.143 585.036 702.317 584.343 702.317 583.512ZM714.849 590.725C713.812 590.725 712.878 590.54 712.047 590.171C711.223 589.794 710.569 589.24 710.086 588.509C709.611 587.777 709.373 586.875 709.373 585.803C709.373 584.88 709.543 584.116 709.884 583.512C710.225 582.909 710.69 582.426 711.28 582.064C711.869 581.701 712.533 581.428 713.272 581.243C714.018 581.051 714.788 580.913 715.584 580.828C716.542 580.728 717.32 580.64 717.917 580.561C718.513 580.476 718.947 580.348 719.216 580.178C719.493 580 719.632 579.727 719.632 579.358V579.294C719.632 578.491 719.394 577.87 718.918 577.429C718.442 576.989 717.757 576.769 716.862 576.769C715.917 576.769 715.168 576.975 714.614 577.387C714.067 577.799 713.698 578.285 713.506 578.846L709.905 578.335C710.189 577.341 710.658 576.51 711.312 575.842C711.965 575.167 712.764 574.663 713.709 574.329C714.653 573.988 715.697 573.818 716.841 573.818C717.629 573.818 718.414 573.91 719.195 574.095C719.976 574.279 720.69 574.585 721.336 575.011C721.983 575.43 722.501 576.002 722.892 576.726C723.29 577.451 723.488 578.356 723.488 579.443V590.395H719.781V588.147H719.653C719.419 588.601 719.089 589.027 718.662 589.425C718.243 589.816 717.714 590.132 717.075 590.373C716.443 590.608 715.701 590.725 714.849 590.725ZM715.85 587.891C716.624 587.891 717.295 587.738 717.863 587.433C718.432 587.12 718.868 586.708 719.174 586.197C719.486 585.686 719.643 585.128 719.643 584.525V582.596C719.522 582.696 719.316 582.788 719.025 582.873C718.741 582.958 718.421 583.033 718.066 583.097C717.711 583.161 717.359 583.218 717.011 583.267C716.663 583.317 716.361 583.36 716.106 583.395C715.53 583.473 715.015 583.601 714.561 583.779C714.106 583.956 713.748 584.205 713.485 584.525C713.222 584.837 713.091 585.242 713.091 585.739C713.091 586.449 713.35 586.985 713.868 587.348C714.387 587.71 715.047 587.891 715.85 587.891ZM727.366 590.395V574.031H731.106V576.758H731.276C731.574 575.814 732.086 575.086 732.81 574.574C733.542 574.056 734.376 573.797 735.314 573.797C735.527 573.797 735.765 573.807 736.028 573.828C736.297 573.843 736.521 573.868 736.699 573.903V577.451C736.535 577.394 736.276 577.344 735.921 577.301C735.573 577.252 735.236 577.227 734.909 577.227C734.206 577.227 733.574 577.38 733.013 577.685C732.459 577.983 732.022 578.399 731.702 578.931C731.383 579.464 731.223 580.078 731.223 580.775V590.395H727.366ZM744.659 590.682C743.374 590.682 742.223 590.352 741.208 589.691C740.192 589.031 739.39 588.072 738.8 586.815C738.211 585.558 737.916 584.031 737.916 582.234C737.916 580.416 738.214 578.882 738.811 577.632C739.414 576.375 740.228 575.426 741.25 574.787C742.273 574.141 743.413 573.818 744.67 573.818C745.629 573.818 746.417 573.981 747.035 574.308C747.653 574.627 748.143 575.015 748.505 575.469C748.868 575.917 749.148 576.339 749.347 576.737H749.507V568.576H753.374V590.395H749.581V587.816H749.347C749.148 588.214 748.86 588.637 748.484 589.084C748.108 589.525 747.61 589.901 746.993 590.213C746.375 590.526 745.597 590.682 744.659 590.682ZM745.735 587.518C746.552 587.518 747.248 587.298 747.824 586.858C748.399 586.41 748.836 585.789 749.134 584.993C749.432 584.198 749.581 583.271 749.581 582.213C749.581 581.154 749.432 580.235 749.134 579.453C748.843 578.672 748.409 578.065 747.834 577.632C747.266 577.199 746.566 576.982 745.735 576.982C744.876 576.982 744.159 577.206 743.583 577.653C743.008 578.1 742.575 578.718 742.284 579.507C741.993 580.295 741.847 581.197 741.847 582.213C741.847 583.235 741.993 584.148 742.284 584.951C742.582 585.746 743.019 586.375 743.594 586.836C744.176 587.291 744.89 587.518 745.735 587.518ZM762.192 590.725C761.155 590.725 760.221 590.54 759.39 590.171C758.567 589.794 757.913 589.24 757.43 588.509C756.954 587.777 756.716 586.875 756.716 585.803C756.716 584.88 756.887 584.116 757.228 583.512C757.569 582.909 758.034 582.426 758.623 582.064C759.213 581.701 759.877 581.428 760.616 581.243C761.361 581.051 762.132 580.913 762.927 580.828C763.886 580.728 764.664 580.64 765.26 580.561C765.857 580.476 766.29 580.348 766.56 580.178C766.837 580 766.976 579.727 766.976 579.358V579.294C766.976 578.491 766.738 577.87 766.262 577.429C765.786 576.989 765.101 576.769 764.206 576.769C763.261 576.769 762.512 576.975 761.958 577.387C761.411 577.799 761.042 578.285 760.85 578.846L757.249 578.335C757.533 577.341 758.002 576.51 758.655 575.842C759.309 575.167 760.108 574.663 761.052 574.329C761.997 573.988 763.041 573.818 764.184 573.818C764.973 573.818 765.758 573.91 766.539 574.095C767.32 574.279 768.034 574.585 768.68 575.011C769.327 575.43 769.845 576.002 770.236 576.726C770.633 577.451 770.832 578.356 770.832 579.443V590.395H767.125V588.147H766.997C766.763 588.601 766.432 589.027 766.006 589.425C765.587 589.816 765.058 590.132 764.419 590.373C763.787 590.608 763.045 590.725 762.192 590.725ZM763.194 587.891C763.968 587.891 764.639 587.738 765.207 587.433C765.775 587.12 766.212 586.708 766.518 586.197C766.83 585.686 766.986 585.128 766.986 584.525V582.596C766.866 582.696 766.66 582.788 766.368 582.873C766.084 582.958 765.765 583.033 765.41 583.097C765.055 583.161 764.703 583.218 764.355 583.267C764.007 583.317 763.705 583.36 763.449 583.395C762.874 583.473 762.359 583.601 761.905 583.779C761.45 583.956 761.091 584.205 760.829 584.525C760.566 584.837 760.434 585.242 760.434 585.739C760.434 586.449 760.694 586.985 761.212 587.348C761.731 587.71 762.391 587.891 763.194 587.891ZM778.567 580.806V590.395H774.71V574.031H778.396V576.811H778.588C778.964 575.895 779.564 575.167 780.388 574.627C781.219 574.088 782.246 573.818 783.467 573.818C784.596 573.818 785.58 574.059 786.418 574.542C787.263 575.025 787.917 575.725 788.378 576.641C788.847 577.557 789.078 578.669 789.071 579.975V590.395H785.214V580.572C785.214 579.478 784.93 578.623 784.362 578.005C783.801 577.387 783.023 577.078 782.029 577.078C781.354 577.078 780.754 577.227 780.229 577.525C779.71 577.816 779.302 578.239 779.003 578.793C778.712 579.347 778.567 580.018 778.567 580.806ZM799.064 590.682C797.778 590.682 796.628 590.352 795.612 589.691C794.596 589.031 793.794 588.072 793.204 586.815C792.615 585.558 792.32 584.031 792.32 582.234C792.32 580.416 792.618 578.882 793.215 577.632C793.819 576.375 794.632 575.426 795.655 574.787C796.677 574.141 797.817 573.818 799.074 573.818C800.033 573.818 800.822 573.981 801.439 574.308C802.057 574.627 802.547 575.015 802.91 575.469C803.272 575.917 803.552 576.339 803.751 576.737H803.911V568.576H807.778V590.395H803.986V587.816H803.751C803.552 588.214 803.265 588.637 802.888 589.084C802.512 589.525 802.015 589.901 801.397 590.213C800.779 590.526 800.001 590.682 799.064 590.682ZM800.14 587.518C800.956 587.518 801.653 587.298 802.228 586.858C802.803 586.41 803.24 585.789 803.538 584.993C803.836 584.198 803.986 583.271 803.986 582.213C803.986 581.154 803.836 580.235 803.538 579.453C803.247 578.672 802.814 578.065 802.238 577.632C801.67 577.199 800.971 576.982 800.14 576.982C799.28 576.982 798.563 577.206 797.988 577.653C797.412 578.1 796.979 578.718 796.688 579.507C796.397 580.295 796.251 581.197 796.251 582.213C796.251 583.235 796.397 584.148 796.688 584.951C796.986 585.746 797.423 586.375 797.998 586.836C798.581 587.291 799.295 587.518 800.14 587.518ZM819.026 590.714C817.428 590.714 816.043 590.363 814.871 589.659C813.699 588.956 812.79 587.973 812.143 586.708C811.504 585.444 811.185 583.967 811.185 582.277C811.185 580.586 811.504 579.105 812.143 577.834C812.79 576.563 813.699 575.576 814.871 574.873C816.043 574.169 817.428 573.818 819.026 573.818C820.624 573.818 822.009 574.169 823.18 574.873C824.352 575.576 825.258 576.563 825.897 577.834C826.543 579.105 826.866 580.586 826.866 582.277C826.866 583.967 826.543 585.444 825.897 586.708C825.258 587.973 824.352 588.956 823.18 589.659C822.009 590.363 820.624 590.714 819.026 590.714ZM819.047 587.625C819.913 587.625 820.638 587.387 821.22 586.911C821.803 586.428 822.236 585.782 822.52 584.972C822.811 584.162 822.957 583.26 822.957 582.266C822.957 581.265 822.811 580.359 822.52 579.549C822.236 578.733 821.803 578.083 821.22 577.6C820.638 577.117 819.913 576.875 819.047 576.875C818.159 576.875 817.42 577.117 816.831 577.6C816.249 578.083 815.812 578.733 815.521 579.549C815.237 580.359 815.094 581.265 815.094 582.266C815.094 583.26 815.237 584.162 815.521 584.972C815.812 585.782 816.249 586.428 816.831 586.911C817.42 587.387 818.159 587.625 819.047 587.625ZM837.581 590.395V574.031H841.32V576.758H841.491C841.789 575.814 842.301 575.086 843.025 574.574C843.757 574.056 844.591 573.797 845.529 573.797C845.742 573.797 845.98 573.807 846.242 573.828C846.512 573.843 846.736 573.868 846.914 573.903V577.451C846.75 577.394 846.491 577.344 846.136 577.301C845.788 577.252 845.45 577.227 845.124 577.227C844.421 577.227 843.789 577.38 843.227 577.685C842.673 577.983 842.237 578.399 841.917 578.931C841.597 579.464 841.438 580.078 841.438 580.775V590.395H837.581ZM856.046 590.714C854.406 590.714 852.989 590.373 851.795 589.691C850.609 589.002 849.697 588.029 849.058 586.772C848.418 585.508 848.099 584.02 848.099 582.309C848.099 580.625 848.418 579.148 849.058 577.877C849.704 576.598 850.606 575.604 851.763 574.894C852.921 574.176 854.281 573.818 855.844 573.818C856.852 573.818 857.804 573.981 858.699 574.308C859.601 574.627 860.396 575.125 861.085 575.799C861.781 576.474 862.328 577.333 862.726 578.377C863.124 579.414 863.322 580.65 863.322 582.085V583.267H849.91V580.668H859.626C859.619 579.929 859.459 579.272 859.146 578.697C858.834 578.115 858.397 577.657 857.836 577.323C857.282 576.989 856.636 576.822 855.897 576.822C855.109 576.822 854.416 577.014 853.82 577.397C853.223 577.774 852.758 578.271 852.424 578.889C852.097 579.5 851.93 580.171 851.923 580.902V583.172C851.923 584.123 852.097 584.94 852.445 585.622C852.793 586.297 853.28 586.815 853.905 587.177C854.53 587.532 855.261 587.71 856.099 587.71C856.661 587.71 857.168 587.632 857.623 587.475C858.077 587.312 858.472 587.074 858.805 586.762C859.139 586.449 859.391 586.062 859.562 585.6L863.163 586.005C862.935 586.957 862.502 587.788 861.863 588.498C861.231 589.201 860.421 589.748 859.434 590.139C858.447 590.522 857.317 590.714 856.046 590.714ZM879.518 578.356L876.003 578.74C875.903 578.385 875.729 578.051 875.481 577.738C875.239 577.426 874.912 577.174 874.501 576.982C874.089 576.79 873.584 576.694 872.988 576.694C872.185 576.694 871.51 576.868 870.964 577.216C870.424 577.564 870.157 578.015 870.165 578.569C870.157 579.045 870.331 579.432 870.687 579.73C871.049 580.029 871.645 580.274 872.476 580.466L875.268 581.062C876.816 581.396 877.966 581.925 878.719 582.65C879.479 583.374 879.863 584.322 879.87 585.494C879.863 586.524 879.561 587.433 878.964 588.221C878.375 589.002 877.555 589.613 876.503 590.054C875.452 590.494 874.245 590.714 872.881 590.714C870.878 590.714 869.266 590.295 868.045 589.457C866.823 588.612 866.095 587.436 865.861 585.931L869.621 585.569C869.792 586.307 870.154 586.865 870.708 587.241C871.262 587.618 871.983 587.806 872.871 587.806C873.787 587.806 874.522 587.618 875.076 587.241C875.637 586.865 875.917 586.4 875.917 585.846C875.917 585.377 875.736 584.99 875.374 584.684C875.019 584.379 874.465 584.145 873.712 583.981L870.921 583.395C869.351 583.069 868.19 582.518 867.437 581.744C866.684 580.963 866.312 579.975 866.319 578.782C866.312 577.774 866.585 576.9 867.139 576.162C867.7 575.416 868.478 574.841 869.472 574.436C870.474 574.024 871.628 573.818 872.934 573.818C874.852 573.818 876.361 574.226 877.462 575.043C878.57 575.86 879.256 576.964 879.518 578.356ZM883.05 596.531V574.031H886.843V576.737H887.066C887.265 576.339 887.546 575.917 887.908 575.469C888.27 575.015 888.76 574.627 889.378 574.308C889.996 573.981 890.784 573.818 891.743 573.818C893.007 573.818 894.147 574.141 895.163 574.787C896.186 575.426 896.995 576.375 897.592 577.632C898.195 578.882 898.497 580.416 898.497 582.234C898.497 584.031 898.203 585.558 897.613 586.815C897.024 588.072 896.221 589.031 895.205 589.691C894.19 590.352 893.039 590.682 891.754 590.682C890.816 590.682 890.039 590.526 889.421 590.213C888.803 589.901 888.306 589.525 887.929 589.084C887.56 588.637 887.272 588.214 887.066 587.816H886.906V596.531H883.05ZM886.832 582.213C886.832 583.271 886.981 584.198 887.279 584.993C887.585 585.789 888.021 586.41 888.59 586.858C889.165 587.298 889.861 587.518 890.678 587.518C891.53 587.518 892.244 587.291 892.819 586.836C893.394 586.375 893.828 585.746 894.119 584.951C894.417 584.148 894.566 583.235 894.566 582.213C894.566 581.197 894.421 580.295 894.129 579.507C893.838 578.718 893.405 578.1 892.83 577.653C892.254 577.206 891.537 576.982 890.678 576.982C889.854 576.982 889.154 577.199 888.579 577.632C888.004 578.065 887.567 578.672 887.269 579.453C886.977 580.235 886.832 581.154 886.832 582.213ZM908.938 590.714C907.34 590.714 905.955 590.363 904.783 589.659C903.611 588.956 902.702 587.973 902.056 586.708C901.416 585.444 901.097 583.967 901.097 582.277C901.097 580.586 901.416 579.105 902.056 577.834C902.702 576.563 903.611 575.576 904.783 574.873C905.955 574.169 907.34 573.818 908.938 573.818C910.536 573.818 911.921 574.169 913.093 574.873C914.264 575.576 915.17 576.563 915.809 577.834C916.455 579.105 916.779 580.586 916.779 582.277C916.779 583.967 916.455 585.444 915.809 586.708C915.17 587.973 914.264 588.956 913.093 589.659C911.921 590.363 910.536 590.714 908.938 590.714ZM908.959 587.625C909.825 587.625 910.55 587.387 911.132 586.911C911.715 586.428 912.148 585.782 912.432 584.972C912.723 584.162 912.869 583.26 912.869 582.266C912.869 581.265 912.723 580.359 912.432 579.549C912.148 578.733 911.715 578.083 911.132 577.6C910.55 577.117 909.825 576.875 908.959 576.875C908.071 576.875 907.333 577.117 906.743 577.6C906.161 578.083 905.724 578.733 905.433 579.549C905.149 580.359 905.007 581.265 905.007 582.266C905.007 583.26 905.149 584.162 905.433 584.972C905.724 585.782 906.161 586.428 906.743 586.911C907.333 587.387 908.071 587.625 908.959 587.625ZM932.985 578.356L929.469 578.74C929.37 578.385 929.196 578.051 928.947 577.738C928.706 577.426 928.379 577.174 927.967 576.982C927.555 576.79 927.051 576.694 926.455 576.694C925.652 576.694 924.977 576.868 924.43 577.216C923.891 577.564 923.624 578.015 923.631 578.569C923.624 579.045 923.798 579.432 924.153 579.73C924.516 580.029 925.112 580.274 925.943 580.466L928.734 581.062C930.283 581.396 931.433 581.925 932.186 582.65C932.946 583.374 933.33 584.322 933.337 585.494C933.33 586.524 933.028 587.433 932.431 588.221C931.842 589.002 931.021 589.613 929.97 590.054C928.919 590.494 927.712 590.714 926.348 590.714C924.345 590.714 922.733 590.295 921.511 589.457C920.29 588.612 919.562 587.436 919.327 585.931L923.088 585.569C923.259 586.307 923.621 586.865 924.175 587.241C924.729 587.618 925.45 587.806 926.337 587.806C927.254 587.806 927.989 587.618 928.543 587.241C929.104 586.865 929.384 586.4 929.384 585.846C929.384 585.377 929.203 584.99 928.841 584.684C928.486 584.379 927.932 584.145 927.179 583.981L924.388 583.395C922.818 583.069 921.657 582.518 920.904 581.744C920.151 580.963 919.778 579.975 919.786 578.782C919.778 577.774 920.052 576.9 920.606 576.162C921.167 575.416 921.945 574.841 922.939 574.436C923.94 574.024 925.094 573.818 926.401 573.818C928.319 573.818 929.828 574.226 930.929 575.043C932.037 575.86 932.722 576.964 932.985 578.356ZM944.688 574.031V577.014H935.281V574.031H944.688ZM937.603 570.11H941.46V585.473C941.46 585.991 941.538 586.389 941.694 586.666C941.858 586.936 942.071 587.12 942.333 587.22C942.596 587.319 942.887 587.369 943.207 587.369C943.449 587.369 943.669 587.351 943.868 587.316C944.074 587.28 944.23 587.248 944.336 587.22L944.986 590.235C944.78 590.306 944.485 590.384 944.102 590.469C943.725 590.554 943.264 590.604 942.717 590.618C941.751 590.647 940.881 590.501 940.107 590.181C939.333 589.855 938.718 589.35 938.264 588.669C937.816 587.987 937.596 587.135 937.603 586.112V570.11ZM952.622 590.725C951.585 590.725 950.651 590.54 949.82 590.171C948.996 589.794 948.343 589.24 947.86 588.509C947.384 587.777 947.146 586.875 947.146 585.803C947.146 584.88 947.317 584.116 947.657 583.512C947.998 582.909 948.464 582.426 949.053 582.064C949.643 581.701 950.307 581.428 951.045 581.243C951.791 581.051 952.562 580.913 953.357 580.828C954.316 580.728 955.094 580.64 955.69 580.561C956.287 580.476 956.72 580.348 956.99 580.178C957.267 580 957.405 579.727 957.405 579.358V579.294C957.405 578.491 957.167 577.87 956.692 577.429C956.216 576.989 955.53 576.769 954.635 576.769C953.691 576.769 952.942 576.975 952.388 577.387C951.841 577.799 951.471 578.285 951.28 578.846L947.679 578.335C947.963 577.341 948.432 576.51 949.085 575.842C949.738 575.167 950.537 574.663 951.482 574.329C952.427 573.988 953.471 573.818 954.614 573.818C955.403 573.818 956.187 573.91 956.969 574.095C957.75 574.279 958.464 574.585 959.11 575.011C959.756 575.43 960.275 576.002 960.665 576.726C961.063 577.451 961.262 578.356 961.262 579.443V590.395H957.555V588.147H957.427C957.192 588.601 956.862 589.027 956.436 589.425C956.017 589.816 955.488 590.132 954.849 590.373C954.216 590.608 953.474 590.725 952.622 590.725ZM953.623 587.891C954.398 587.891 955.069 587.738 955.637 587.433C956.205 587.12 956.642 586.708 956.947 586.197C957.26 585.686 957.416 585.128 957.416 584.525V582.596C957.295 582.696 957.089 582.788 956.798 582.873C956.514 582.958 956.194 583.033 955.839 583.097C955.484 583.161 955.133 583.218 954.785 583.267C954.437 583.317 954.135 583.36 953.879 583.395C953.304 583.473 952.789 583.601 952.334 583.779C951.88 583.956 951.521 584.205 951.258 584.525C950.996 584.837 950.864 585.242 950.864 585.739C950.864 586.449 951.123 586.985 951.642 587.348C952.16 587.71 952.821 587.891 953.623 587.891ZM967.515 590.629C966.869 590.629 966.315 590.402 965.854 589.947C965.392 589.493 965.165 588.939 965.172 588.285C965.165 587.646 965.392 587.099 965.854 586.645C966.315 586.19 966.869 585.963 967.515 585.963C968.14 585.963 968.684 586.19 969.145 586.645C969.614 587.099 969.852 587.646 969.859 588.285C969.852 588.718 969.738 589.113 969.518 589.468C969.305 589.823 969.021 590.107 968.666 590.32C968.318 590.526 967.934 590.629 967.515 590.629ZM976.217 590.629C975.57 590.629 975.016 590.402 974.555 589.947C974.093 589.493 973.866 588.939 973.873 588.285C973.866 587.646 974.093 587.099 974.555 586.645C975.016 586.19 975.57 585.963 976.217 585.963C976.842 585.963 977.385 586.19 977.847 586.645C978.315 587.099 978.553 587.646 978.56 588.285C978.553 588.718 978.44 589.113 978.219 589.468C978.006 589.823 977.722 590.107 977.367 590.32C977.019 590.526 976.636 590.629 976.217 590.629ZM984.918 590.629C984.271 590.629 983.718 590.402 983.256 589.947C982.794 589.493 982.567 588.939 982.574 588.285C982.567 587.646 982.794 587.099 983.256 586.645C983.718 586.19 984.271 585.963 984.918 585.963C985.543 585.963 986.086 586.19 986.548 586.645C987.017 587.099 987.254 587.646 987.262 588.285C987.254 588.718 987.141 589.113 986.921 589.468C986.708 589.823 986.423 590.107 986.068 590.32C985.72 590.526 985.337 590.629 984.918 590.629Z" fill="#5A7DA0"/>
<path d="M1039.36 400.61C1036.47 466.365 983.688 518.129 919.607 518.129H651.051C613.042 518.129 586.928 478.735 600.999 442.47C619.756 392.921 680.875 429.586 652.872 387.917C625.728 347.518 609.566 298.218 632.73 274.471C686.351 219.504 749.648 292.405 784.44 281.844C795.537 278.243 839.599 249.779 856.734 244.68C965.923 204.277 1048.72 299.894 1039.36 400.61Z" fill="#E3F0FF"/>
<path d="M619.18 384.595C622.148 378.596 595.893 348.025 583.835 355.818C571.777 363.611 570.525 379.425 588.504 385.166C605.497 390.59 616.215 390.593 619.18 384.595Z" fill="#E3F0FF"/>
<path d="M677.954 256.294L674.274 234.666C674.19 234.185 673.718 233.858 673.216 233.936C672.718 234.017 672.378 234.472 672.459 234.953L676.055 256.079L660.53 268.554C660.14 268.868 660.086 269.427 660.41 269.804C660.593 270.013 660.855 270.123 661.119 270.123C661.326 270.123 661.534 270.056 661.705 269.917L677.632 257.117C677.884 256.917 678.005 256.601 677.954 256.294Z" fill="#C7DEFF"/>
<path d="M702.426 267.28L681.046 259.876C680.74 259.771 680.397 259.829 680.148 260.029L664.221 272.829C663.83 273.142 663.776 273.702 664.101 274.079C664.284 274.287 664.545 274.397 664.807 274.397C665.014 274.397 665.224 274.331 665.395 274.192L680.92 261.717L701.804 268.95C702.281 269.115 702.807 268.875 702.978 268.414C703.149 267.953 702.903 267.445 702.426 267.28Z" fill="#C7DEFF"/>
<path d="M671.074 254.875C671.149 255.31 671.536 255.617 671.978 255.617C672.029 255.617 672.077 255.614 672.128 255.606C672.63 255.527 672.969 255.072 672.885 254.588L670.07 238.043C669.989 237.562 669.515 237.235 669.016 237.313C668.514 237.394 668.175 237.849 668.259 238.33L671.074 254.875Z" fill="#C7DEFF"/>
<path d="M698.219 270.656L681.862 264.992C681.385 264.826 680.862 265.067 680.688 265.528C680.517 265.989 680.766 266.496 681.244 266.661L697.6 272.326C697.702 272.361 697.807 272.378 697.909 272.378C698.285 272.378 698.639 272.152 698.774 271.79C698.945 271.329 698.696 270.822 698.219 270.656Z" fill="#C7DEFF"/>
<path d="M883.798 392.005L861.566 387.523C861.067 387.422 860.58 387.729 860.478 388.21C860.373 388.689 860.691 389.158 861.187 389.257L882.909 393.638L889.37 412.108C889.533 412.572 890.055 412.821 890.536 412.665C890.803 412.575 891.005 412.38 891.098 412.143C891.173 411.957 891.182 411.746 891.113 411.54L884.48 392.591C884.375 392.292 884.116 392.072 883.798 392.005Z" fill="#C7DEFF"/>
<path d="M903.242 373.944L888.379 390.516C888.165 390.753 888.099 391.081 888.201 391.379L894.834 410.328C894.996 410.792 895.519 411.041 896 410.885C896.267 410.798 896.468 410.601 896.562 410.363C896.637 410.177 896.646 409.966 896.577 409.76L890.112 391.292L904.63 375.104C904.964 374.733 904.922 374.176 904.537 373.854C904.156 373.535 903.576 373.576 903.242 373.944Z" fill="#C7DEFF"/>
<path d="M904.991 378.945L893.619 391.623C893.285 391.994 893.327 392.553 893.712 392.872C894.096 393.194 894.676 393.153 895.006 392.782L906.379 380.105C906.451 380.026 906.505 379.937 906.541 379.844C906.677 379.505 906.586 379.107 906.286 378.855C905.902 378.536 905.322 378.574 904.991 378.945Z" fill="#C7DEFF"/>
<path d="M766.043 468.004C766.043 468.004 660.561 196.689 584.978 266.465C570.514 284.051 587.468 314.098 618.614 348.942C649.759 383.784 740.35 474.362 753.186 488.733L766.043 468.004Z" fill="#5A789F"/>
<path d="M766.042 468.004C766.042 468.004 700.762 300.101 636.114 262.438C637.543 266.033 638.421 269.915 637.042 272.379C633.882 278.027 619.631 280.616 615.557 289.986C612.073 298.007 617.609 328.973 605.106 332.974C609.216 338.16 613.74 343.492 618.612 348.942C649.758 383.784 740.349 474.362 753.185 488.733L766.042 468.004Z" fill="#5A789F"/>
<path d="M597.136 268.66C604.474 274.362 611.501 280.442 618.401 286.631C658.633 323.123 694.279 364.554 722.931 410.146C728.44 418.968 733.814 428.225 738.684 437.395C740.732 441.216 743.018 445.75 744.941 449.635C746.184 452.209 747.945 455.9 749.125 458.504L749.939 460.284L750.73 462.078L751.52 463.87L752.304 465.664C742.898 446.979 732.432 428.84 720.954 411.323C709.491 393.795 697.099 376.852 683.972 360.452C664.266 335.859 642.956 312.445 620.333 290.299C612.787 282.932 605.078 275.626 597.136 268.66Z" fill="#5AA5D1"/>
<path d="M608.177 397.526C608.177 397.526 587.834 389.516 574.061 405.215C562.448 418.455 581.091 454.399 600.343 471.796C600.343 471.796 581.457 483.213 580.817 496.366C580.177 509.517 602.404 523.398 633.865 527.323L637.043 415.788L608.177 397.526Z" fill="#5A789F"/>
<path d="M605.862 396.792C607.764 407.486 609.149 424.09 612.083 442.151C616.695 470.534 627.254 511.733 591.296 512.667C600.683 519.494 615.739 525.061 633.865 527.322L637.044 415.787L608.178 397.525C608.178 397.525 607.328 397.189 605.862 396.792Z" fill="#5A789F"/>
<path d="M583.741 407.388C598.86 422.296 613.438 437.794 627.794 453.386C631.964 457.894 636.394 462.593 640.447 467.186C648.242 476.089 655.773 485.288 662.812 494.762C663.178 495.267 663.548 495.765 663.911 496.273L663.683 496.455C653.127 485.902 642.925 474.741 633.21 463.463C630.143 459.845 626.589 455.705 623.471 452.128C613.63 440.902 603.684 429.671 593.648 418.611C590.295 414.917 586.931 411.232 583.527 407.585L583.741 407.388Z" fill="#5AA5D1"/>
<path d="M593.493 496.223C601.201 496.722 608.979 496.374 616.624 495.356C620.43 494.84 624.206 494.165 627.904 493.162C630.962 492.327 633.957 491.303 636.949 490.28C640.235 489.149 643.47 487.874 646.619 486.415C648.661 485.467 650.623 484.45 652.624 483.397L652.807 483.621C651.819 484.661 650.701 485.662 649.569 486.555C644.564 490.468 638.61 493.269 632.371 494.785C622.199 497.2 611.646 498.018 601.207 497.334C598.609 497.16 596.023 496.913 593.454 496.504L593.493 496.223Z" fill="#5AA5D1"/>
<mask id="mask0_1949_925" style="mask-type:luminance" maskUnits="userSpaceOnUse" x="624" y="283" width="150" height="247">
<path d="M624.698 283.261H773.119V529.038H624.698V283.261Z" fill="white"/>
</mask>
<g mask="url(#mask0_1949_925)">
<path d="M761.268 529.006H636.639C630.352 529.006 625.254 524.089 625.254 518.022V294.646C625.254 288.579 630.352 283.659 636.639 283.659H761.268C767.559 283.659 772.656 288.579 772.656 294.646V518.022C772.656 524.089 767.559 529.006 761.268 529.006Z" fill="#303C72"/>
</g>
<path d="M756.957 522.579H640.946C635.725 522.579 631.492 518.495 631.492 513.459V299.207C631.492 294.171 635.725 290.089 640.946 290.089H756.957C762.178 290.089 766.407 294.171 766.407 299.207V513.459C766.407 518.495 762.178 522.579 756.957 522.579Z" fill="#D4EBFF"/>
<path d="M756.957 290.089H640.946C635.725 290.089 631.492 294.171 631.492 299.207V310.415H766.407V299.207C766.407 294.171 762.178 290.089 756.957 290.089Z" fill="#8CCBFF"/>
<path d="M726.531 399.17C726.531 399.17 739.974 390.153 750.488 407.047C761.005 423.943 772.609 457.474 775.892 467.896C779.176 478.316 766.541 483.85 758.728 475.898C750.911 467.946 731.493 431.86 727.051 422.983C722.608 414.106 719.898 404.188 726.531 399.17Z" fill="#9E5959"/>
<path d="M762.019 462.111L772.836 458.708C771.811 455.754 769.312 448.857 769.312 448.857C769.312 448.857 763.31 456.244 762.019 462.111Z" fill="#914D4D"/>
<path d="M749.418 462.863C749.367 459.407 749.334 453.91 749.49 448.326C749.745 439.133 748.243 418.381 748.243 418.381L735.597 439.052C739.826 446.744 744.873 455.595 749.418 462.863Z" fill="#914D4D"/>
<path d="M728.311 396.765C728.311 396.765 716.866 401.613 722.606 416.079C728.347 430.549 746.782 460.636 752.301 469.78C757.819 478.924 765.719 483.27 771.733 480.191C777.747 477.109 778.09 471.749 775.693 463.529C773.292 455.313 757.579 417.688 753.622 409.997C749.663 402.309 739.588 390.877 728.311 396.765Z" fill="white"/>
<path d="M768.246 443.892C764.741 448.331 760.337 459.176 760.337 459.176L772.337 454.195C771.148 451.116 769.745 447.588 768.246 443.892Z" fill="#D4EBFF"/>
<path d="M752.246 469.685C752.36 463.118 752.549 448.426 752.182 440.154C751.705 429.274 749.521 416.08 749.521 416.08L740.857 450.644C745.622 458.784 749.981 465.934 752.246 469.685Z" fill="#D4EBFF"/>
<path d="M801.736 420.643C801.736 420.643 810.925 423.95 815.858 434.712L811.436 438.219L799.081 426.148L801.736 420.643Z" fill="#ABD3FC"/>
<path d="M764.336 479.139C768.511 480.534 773.15 479.293 776.117 476.133C784.165 467.56 810.672 439.033 816.14 429.489C822.607 418.202 814.112 416.57 806.208 423.572C798.308 430.573 785.382 441.175 779.359 446.06C769.554 454.015 759.989 459.938 756.919 465.963C754.768 470.178 758.085 477.052 764.336 479.139Z" fill="#9E5959"/>
<path d="M808.525 439.893C804.413 444.625 796.443 435.678 799.18 431.28C799.225 431.21 807.393 421.429 808.492 417.75C809.649 413.874 809.084 411.995 813.218 408.557C816.735 405.634 819.084 403.648 820.854 403.921C822.728 404.211 821.109 406.626 819.205 408.249C817.144 410.009 814.032 415.199 816.973 415.057C819.316 414.941 826.835 413.433 829.106 412.453C832.807 410.856 842.068 402.193 844.249 406.762C844.249 406.762 846.649 406.377 846.487 409.055C846.487 409.055 849.389 409.951 846.751 413.259C846.751 413.259 848.442 414.738 846.754 416.639C845.61 417.93 840.602 422.33 837.28 424.809C833.96 427.288 820.523 428.906 815.768 431.677C814.254 432.561 809.466 438.812 808.525 439.893Z" fill="#F6AF9A"/>
<path d="M815.777 414.198C815.994 416.952 816.952 419.184 816.006 421.95C818.346 419.767 816.288 416.523 815.777 414.198Z" fill="#E57E73"/>
<path d="M846.75 413.258C845.362 413.041 844.29 414.134 843.286 414.87C840.162 417.143 837.222 419.755 833.947 421.764C837.837 420.862 840.445 417.412 843.506 415.119C844.389 414.252 845.593 413.284 846.75 413.258Z" fill="#E57E73"/>
<path d="M846.489 409.055C843.557 409.31 841.433 411.548 839.156 413.108C836.849 414.639 834.798 416.9 832.479 418.144C833.926 417.978 835.161 417.057 836.251 416.178C839.577 413.81 842.536 410.084 846.489 409.055Z" fill="#E57E73"/>
<path d="M844.25 406.763C838.927 407.519 835.437 412.256 831.03 414.729C836.107 413.468 839.129 407.731 844.25 406.763Z" fill="#E57E73"/>
<path d="M831.907 422.717C826.308 420.983 818.78 419.824 813.898 423.706C819.263 420.667 826.046 421.891 831.907 422.717Z" fill="#EA9A88"/>
<path d="M830.671 414.585C831.686 415.434 832.011 416.748 832.329 417.956C833.344 418.878 833.546 420.38 833.801 421.65C834.318 422.015 834.33 422.737 834.336 423.299C834.195 422.725 833.975 422.108 833.453 421.821C833.029 420.696 832.759 419.212 831.849 418.383C831.287 417.31 831.314 415.791 830.38 414.86C830.088 414.272 829.911 413.576 829.4 413.095C829.986 413.425 830.374 414.002 830.671 414.585Z" fill="#EA9A88"/>
<path d="M801.738 420.643C801.738 420.643 805.288 431.819 815.859 434.712C815.859 434.712 785.889 470.592 778.09 476.839C770.295 483.09 758.579 480.272 754.422 471.053C750.418 462.173 801.738 420.643 801.738 420.643Z" fill="white"/>
<path d="M714.577 500.039C701.492 504.185 696.187 513.639 694.601 522.58H744.671C743.623 516.79 742.442 512.424 741.123 510.171C732.847 496.021 714.577 500.039 714.577 500.039Z" fill="#F6AF9A"/>
<path d="M715.016 493.805C699.794 496.745 692.035 506.727 691.521 522.579H748.456C748.369 521.979 748.282 521.396 748.195 520.831C743.962 493.562 715.016 493.805 715.016 493.805Z" fill="#384682"/>
<path d="M677.086 459.592C678.925 479.666 673.361 491.799 670.979 504.004C669.724 510.443 669.387 516.801 670.258 522.579H737.818C741.969 513.29 741.239 504.138 741.375 499.186C741.606 490.851 742.303 476.932 742.303 476.932C744.763 440.122 675.251 439.516 677.086 459.592Z" fill="#F6AF9A"/>
<path d="M672.637 493.088C672.637 493.088 666.098 508.689 668.513 522.578H739.007C742.844 509.958 742.558 493.804 742.558 493.804C733.573 495.202 672.637 493.088 672.637 493.088Z" fill="#384682"/>
<path d="M667.787 522.579H717.557C717.323 500.05 697.992 498.536 697.992 498.536C682.804 496.994 671.545 501.435 667.787 522.579Z" fill="#F6AF9A"/>
<path d="M665.22 522.527C665.217 522.545 665.217 522.562 665.214 522.58H722.881C722.563 506.449 711.89 496.026 694.043 493.829C694.043 493.829 668.512 491.956 665.22 522.527Z" fill="#384682"/>
<path d="M691.392 389.286C703.531 387.32 713.219 388.927 724.646 392.156C732.291 394.316 740.483 396.398 744.184 401.39C750.682 410.154 747.72 431.805 746.058 441.827C744.397 451.846 743.139 472.801 742.228 478.185C741.318 483.569 716.565 492.02 701.413 489.819C689.797 488.132 679.166 482.638 677.652 472.372C675.87 460.265 672.836 442.908 669.316 432.361C665.795 421.817 660.265 399.856 677.706 392.507C680.977 391.13 688.196 389.802 691.392 389.286Z" fill="#F6AF9A"/>
<path d="M720.035 378.124C720.035 378.124 719.642 389.062 722.156 394.075C724.667 399.085 716.067 402.201 710.476 402.155C704.886 402.108 696.301 399.088 695.297 392.591C694.297 386.091 698.415 388.549 697.637 370.885C697.031 357.07 721.6 364.513 720.035 378.124Z" fill="#F6AF9A"/>
<path d="M721.368 392.028C719.731 386.581 720.034 378.124 720.034 378.124C721.275 367.317 706.042 360.4 700.019 364.928C699.773 366.467 699.659 368.201 699.707 370.158C699.731 371.175 709.986 390.28 721.368 392.028Z" fill="#EA9A88"/>
<path d="M747.248 496.059C746.425 490.081 747.248 460.788 747.365 456.587C747.482 452.384 749.732 430.356 749.492 423.772C749.249 417.185 747.35 403.991 745.653 400.028C743.953 396.068 731.141 393.041 724.433 392.029L721.125 391.131C721.125 391.131 722.186 394.833 716.529 395.772C708.202 397.155 699.148 392.256 695.399 388.756C695.399 388.756 693.191 388.484 691.695 388.753C691.695 388.753 677.21 390.991 673.416 392.464C669.622 393.937 664.164 400.382 663.93 411.396C663.692 422.409 669.46 442.99 671.106 453.534C672.755 464.081 671.695 482.134 670.989 488.379C670.283 494.624 663.458 514.494 663.341 522.328C663.341 522.328 664.206 522.424 665.735 522.58H732.937C742.448 521.641 749.486 520.82 750.072 520.397C750.072 520.397 748.318 515.289 748.194 511.088C748.071 506.887 748.071 502.037 747.248 496.059Z" fill="#85B9F1"/>
<path d="M715.63 397.845C719.319 397.804 724.579 405.348 724.579 405.348C726.231 402.466 727.772 396.337 728.574 392.772C727.063 392.461 725.645 392.212 724.432 392.029L721.124 391.131C721.124 391.131 722.185 394.833 716.528 395.772C708.201 397.155 699.147 392.256 695.398 388.756C695.398 388.756 693.19 388.484 691.694 388.753C691.694 388.753 690.811 388.89 689.426 389.119L687.519 391.957L710.709 410.01C710.709 410.01 710.64 408.815 711.457 404.797C712.773 398.312 715.63 397.845 715.63 397.845Z" fill="#75AEEB"/>
<path d="M684.828 450.394C686.688 436.681 687.412 412.325 687.412 412.325C687.412 412.325 674.729 417.144 664.431 419.022C665.843 430.265 669.79 445.106 671.106 453.533C672.755 464.078 671.695 482.133 670.989 488.378C670.283 494.623 663.458 514.494 663.341 522.327C663.341 522.327 664.206 522.423 665.735 522.579H687.637C675.044 515.981 675.762 496.646 677.424 485.966C679.376 473.39 683.422 460.77 684.828 450.394Z" fill="#75AEEB"/>
<path d="M716.153 399.924C717.881 399.863 718.256 397.01 718.325 395.312C717.817 395.5 717.223 395.657 716.526 395.772C715.096 396.01 713.642 396.062 712.2 395.97C712.822 397.306 714.306 399.988 716.153 399.924Z" fill="#384682"/>
<path d="M714.713 398.29C714.713 398.29 723.779 438.316 724.578 447.129L730.21 457.47L732.581 443.891C732.581 443.891 723.163 411.496 716.945 397.887L714.713 398.29Z" fill="#384682"/>
<path d="M715.229 395.937C715.229 395.937 719.9 393.716 721.122 391.13C721.122 391.13 723.138 391.069 723.973 391.469C723.973 391.469 725.334 398.311 723.973 402.677C723.973 402.677 719.353 396.641 715.715 396.946C712.069 397.253 709.698 405.515 709.698 405.515C709.698 405.515 696.746 395.737 695.142 388.782L695.508 388.376C695.508 388.376 706.571 394.623 715.229 395.937Z" fill="#96C3F2"/>
<path d="M739.413 339.23C739.413 339.23 741.212 347.498 738.695 357.198L733.135 338.902L739.413 339.23Z" fill="#8C4949"/>
<path d="M716.531 323.342C716.531 323.342 734.564 324.365 737.478 339.841C740.391 355.316 738.568 383.31 728.093 386.375C718.534 389.172 703.785 379.622 697.576 370.038C691.042 359.952 688.723 347.094 692.568 337.371C695.935 328.859 702.352 322.605 716.531 323.342Z" fill="#F6AF9A"/>
<path d="M708.332 341.439C708.332 341.439 706.491 344.074 706.998 348.055C707.329 350.646 706.298 351.58 703.502 355.357C700.702 359.135 701.351 359.355 700.528 363.519C699.705 367.679 697.695 377.881 697.641 378.695C697.584 379.513 694.991 376.649 693.051 370.972C691.113 365.296 686.995 354.282 686.64 344.175C686.289 334.072 695.938 323.853 705.824 322.829C705.824 322.829 715.238 318.741 724.301 322.377C733.361 326.01 740.036 331.538 739.652 340.639L737.675 340.702C737.675 340.702 736.17 339.635 735.689 339.357C733.496 338.087 731.712 338.716 729.72 339.969C729.72 339.969 721.97 343.729 717.852 343.277C717.852 343.277 713.15 344.68 708.332 341.439Z" fill="#8C4949"/>
<path d="M700.267 332.223C700.267 332.223 699.099 339.691 707.3 343.81C707.723 342.314 708.33 341.439 708.33 341.439C708.33 341.439 701.22 337.183 700.267 332.223Z" fill="#7D4141"/>
<path d="M705.03 326.161C704.958 329.793 705.859 333.663 708.644 336.241C711.96 339.256 718.139 339.864 722.549 339.754C722.011 339.954 721.453 340.105 720.888 340.224C716.676 341.07 711.636 340.667 708.16 338.009C704.64 335.238 703.579 330.211 705.03 326.161Z" fill="#7D4141"/>
<path d="M709.597 324.23C712.027 323.447 714.604 323.174 717.163 323.186C722.339 323.232 727.677 324.815 731.474 328.311C733.372 330.045 734.817 332.199 735.646 334.518C734.901 333.521 734.138 332.567 733.297 331.692C730.834 329.085 727.677 327.14 724.229 325.992C719.546 324.421 714.535 324.073 709.597 324.23Z" fill="#7D4141"/>
<path d="M707.6 326.161C712.445 326.503 717.194 327.735 721.706 329.457C725.172 330.796 728.528 332.675 731.036 335.385C731.417 335.803 731.775 336.246 732.066 336.725C731.85 336.542 731.628 336.371 731.402 336.209C731.231 336.084 730.892 335.846 730.718 335.727C728.203 334.04 725.452 332.704 722.628 331.579C717.669 329.628 712.61 328.042 707.6 326.161Z" fill="#7D4141"/>
<path d="M710.741 330.478C713.913 333.362 718.023 334.855 722.072 336.235C723.445 336.699 724.844 337.113 726.259 337.644C725.505 337.725 724.754 337.734 723.997 337.711C720.218 337.534 716.398 336.368 713.451 334.011C712.303 333.049 711.213 331.895 710.741 330.478Z" fill="#7D4141"/>
<path d="M704.253 360.269C704.253 360.269 704.214 352.116 699.176 352.061C694.136 352.006 694.163 358.831 697.413 363.257C699.23 365.736 704.274 368.858 704.253 360.269Z" fill="#F6AF9A"/>
<path d="M698.707 357.558C699.699 357.613 700.48 358.138 701.026 358.671C700.885 357.735 700.486 356.83 699.569 356.268C699.332 356.123 699.263 355.822 699.413 355.593C699.563 355.364 699.873 355.297 700.113 355.442C703.384 357.445 701.678 362.342 701.603 362.547C701.513 362.802 701.225 362.939 700.96 362.849C700.954 362.849 700.951 362.846 700.945 362.846C700.69 362.753 700.555 362.481 700.645 362.228C700.651 362.208 700.942 361.373 701.05 360.306C701.044 360.298 701.032 360.289 701.026 360.277C701.017 360.263 700.089 358.613 698.65 358.535C698.371 358.521 698.158 358.289 698.173 358.019C698.188 357.749 698.428 357.544 698.707 357.558Z" fill="#E57E73"/>
<path d="M660.843 522.579H751.605C750.304 509.385 748.688 489.819 748.304 480.889C747.787 468.855 750.022 436.564 750.07 426.496C750.118 416.427 747.102 402.346 747.102 402.346C746.703 401.189 745.862 397.794 738.346 395.092C730.83 392.393 724.17 391.955 724.17 391.955C730.655 408.101 728.82 449.541 728.82 449.541C728.82 449.541 722.95 434.144 714.713 417.259C707.486 402.445 691.099 388.752 691.099 388.752C683.364 388.995 669.888 392.083 669.888 392.083C656.451 406.303 665.394 435.64 667.638 451.263C669.879 466.886 667.854 483.322 661.912 515.821C661.54 517.856 661.182 520.123 660.843 522.579Z" fill="white"/>
<path d="M728.934 446.052L728.82 450.418C734.275 414.176 731.25 395.027 730.749 392.954C726.858 392.134 724.17 391.957 724.17 391.957C729.514 405.258 729.208 435.734 728.934 446.052Z" fill="#ABD3FC"/>
<path d="M728.583 448.918C727.402 445.882 721.983 432.149 714.717 417.259C707.489 402.445 691.102 388.752 691.102 388.752C688.81 388.824 686.014 389.146 683.214 389.564C683.214 389.564 722.554 431.305 728.823 450.416L728.583 448.918Z" fill="#ABD3FC"/>
<path d="M726.92 522.58H728.122C729.314 498.181 730.155 473.782 728.821 449.542C729.536 473.848 728.164 498.305 726.92 522.58Z" fill="#ABD3FC"/>
<path d="M667.638 451.264C669.879 466.887 667.854 483.322 661.912 515.821C661.54 517.857 661.182 520.124 660.843 522.579H671.125L673.012 503.802C673.505 498.528 675.388 478.486 676.01 472.674C676.731 465.962 678.17 465.034 681.769 446.39C685.367 427.746 686.226 411.595 686.226 411.595L664.006 431.062C665.208 438.615 666.845 445.752 667.638 451.264Z" fill="#D4EBFF"/>
<path d="M722.551 391.17C722.551 391.17 727.351 409.484 728.82 449.541C728.82 449.541 731.187 425.571 730.589 410.177C729.989 394.786 729.544 392.713 729.544 392.713C729.544 392.713 724.527 390.773 722.551 391.17Z" fill="white"/>
<path d="M728.821 449.542C714.714 417.26 684.497 389.379 684.497 389.379C687.528 387.909 695.51 388.376 695.51 388.376C695.51 388.376 707.273 401.266 715.477 416.66C726.526 437.395 728.821 449.542 728.821 449.542Z" fill="white"/>
<path d="M670.801 392.717C670.801 392.717 687.122 393.981 684.133 413.478C681.144 432.971 668.05 465.99 663.733 476.055C659.416 486.118 646.562 482.834 645.757 471.901C644.949 460.971 653.129 421.018 655.538 411.437C657.944 401.858 662.375 392.534 670.801 392.717Z" fill="#F6AF9A"/>
<path d="M673.415 392.463C673.415 392.463 661.438 387.726 654.781 410.293C648.121 432.86 643.805 462.895 643.624 472.963C643.444 483.032 653.679 488.004 660.176 484.247C666.677 480.492 673.694 457.114 677.912 445.204C684.497 426.612 694.749 397.026 673.415 392.463Z" fill="white"/>
<path d="M645.623 470.929C645.623 470.929 645.512 502.956 646.99 522.58H661.094C662.136 513.691 663.446 503.956 664.191 498.613C665.9 486.364 667.453 476.608 667.636 468.81C667.877 458.619 646.347 456.48 645.623 470.929Z" fill="#F6AF9A"/>
<path d="M657.261 454.734C657.261 454.734 644.881 455.778 643.623 470.705C642.676 481.945 642.541 505.779 642.995 522.58H666.258C668.225 502.323 671.701 466.194 671.773 462.863C671.875 458.207 663.341 453.693 657.261 454.734Z" fill="white"/>
<path d="M765.672 480.983V513.46C765.672 518.095 761.761 521.867 756.957 521.867H640.946C636.14 521.867 632.232 518.095 632.232 513.46V299.208C632.232 294.572 636.14 290.8 640.946 290.8H756.957C761.761 290.8 765.672 294.572 765.672 299.208V437.61C766.095 438.636 766.516 439.656 766.93 440.674C767.066 440.544 767.147 440.367 767.147 440.17V299.208C767.147 293.787 762.575 289.377 756.957 289.377H640.946C635.326 289.377 630.757 293.787 630.757 299.208V513.46C630.757 518.881 635.326 523.291 640.946 523.291H756.957C762.575 523.291 767.147 518.881 767.147 513.46V481.16C766.66 481.137 766.167 481.079 765.672 480.983Z" fill="white"/>
<path d="M725.108 294.644H672.8C669.592 294.644 666.99 292.133 666.99 289.04V287.869H730.915V289.04C730.915 292.133 728.317 294.644 725.108 294.644Z" fill="#303C72"/>
<path d="M1047.89 339.385C1049.59 338.232 1051.45 337.347 1053.44 336.753C1061.61 334.295 1082.76 330.236 1098.78 347.364C1115.89 365.643 1091.13 417.471 1064.63 443C1064.63 443 1091.96 458.377 1093.49 477.013C1095.02 495.649 1064.13 516.325 1019.67 523.274L1009.9 365.13L1047.89 339.385Z" fill="#5A789F"/>
<path d="M1053.26 336.807C1051.07 352.068 1049.88 375.69 1046.57 401.449C1041.36 441.932 1028.32 500.866 1079.4 500.613C1066.39 510.711 1045.29 519.272 1019.67 523.276L1009.9 365.131L1047.89 339.384C1049.52 338.279 1051.3 337.407 1053.2 336.827L1053.26 336.807Z" fill="#5A789F"/>
<path d="M1085.42 351.105C1065.55 373.655 1046.23 396.738 1027.13 419.902C1021.71 426.512 1015.85 433.861 1010.4 440.46C999.197 453.958 987.598 467.688 975.85 480.743L975.615 480.569C976.126 479.847 976.643 479.131 977.156 478.415C979.74 474.846 982.386 471.269 985.027 467.758C992.447 457.93 1000.16 448.131 1008 438.61C1015.83 429.173 1024.14 419.67 1032.12 410.343C1042.45 398.324 1053.06 386.217 1063.65 374.42C1068.31 369.228 1073.22 363.812 1077.94 358.69C1080.35 356.089 1082.76 353.488 1085.2 350.914L1085.42 351.105Z" fill="#5AA5D1"/>
<path d="M1075.56 477.709C1058.25 480.559 1040.37 480.324 1023.15 477.028C1021.35 476.677 1019.47 476.265 1017.7 475.813C1010.06 473.815 1002.7 470.621 996.198 466.249C995.312 465.654 994.245 464.886 993.407 464.231C992.512 463.538 991.611 462.793 990.77 462.042L990.944 461.813C992.56 462.68 994.152 463.552 995.777 464.358C997.336 465.141 999.085 465.97 1000.69 466.675C1005.21 468.687 1009.9 470.368 1014.64 471.829C1019.39 473.299 1024.19 474.647 1029.08 475.624C1042.53 478.196 1056.36 478.811 1070.03 477.923C1071.86 477.802 1073.69 477.651 1075.51 477.428L1075.56 477.709Z" fill="#5AA5D1"/>
<mask id="mask1_1949_925" style="mask-type:luminance" maskUnits="userSpaceOnUse" x="887" y="283" width="150" height="247">
<path d="M887.705 283.262H1036.13V529.039H887.705V283.262Z" fill="white"/>
</mask>
<g mask="url(#mask1_1949_925)">
<path d="M1024.2 529.005H899.568C893.28 529.005 888.18 524.088 888.18 518.021V294.645C888.18 288.578 893.28 283.658 899.568 283.658H1024.2C1030.49 283.658 1035.59 288.578 1035.59 294.645V518.021C1035.59 524.088 1030.49 529.005 1024.2 529.005Z" fill="#303C72"/>
</g>
<path d="M1019.89 522.579H903.877C898.656 522.579 894.424 518.495 894.424 513.459V299.207C894.424 294.171 898.656 290.089 903.877 290.089H1019.89C1025.11 290.089 1029.34 294.171 1029.34 299.207V513.459C1029.34 518.495 1025.11 522.579 1019.89 522.579Z" fill="#D4EBFF"/>
<path d="M920.728 409.843C921.62 405.161 925.441 401.288 930.584 400.424C937.189 399.313 943.477 403.578 944.627 409.95C944.865 411.275 944.865 412.586 944.651 413.841C944.603 414.137 944.54 414.43 944.468 414.719C943.284 420.318 936.616 451.411 930.349 470.481C929.691 473.775 926.994 476.488 923.368 477.097C918.682 477.886 914.221 474.859 913.404 470.336C913.082 468.568 918.3 419.741 920.728 409.843Z" fill="#DE9681"/>
<path d="M932.104 411.587C932.104 411.587 937.241 407.021 944.648 410.079C944.865 411.361 944.856 412.628 944.651 413.842C944.603 414.138 944.54 414.431 944.468 414.721C943.447 419.551 938.343 443.364 932.936 462.055C932.446 459.759 930.944 457.466 930.199 456.894C929.031 455.999 925.988 453.337 924.495 448.661C923.425 445.318 925.462 432.803 927.796 426.222C930.13 419.638 932.104 411.587 932.104 411.587Z" fill="#EA9A88"/>
<path d="M935.909 399.923C935.909 399.923 931.307 399.004 925.056 401.668C923.184 402.465 921.394 405.588 920.177 408.008C915.53 417.271 911.991 445.41 911.991 445.41C911.991 445.41 924.103 456.308 936.795 459.804C936.795 459.804 946.246 420.057 946.056 411.731C945.867 403.407 939.574 400.778 935.909 399.923Z" fill="#FCF5F1"/>
<path d="M942.701 433.121L927.396 409.676C927.396 409.676 930.634 419.237 928.985 425.644C927.336 432.054 923.413 440.821 922.8 446.051C922.536 448.315 922.659 451.046 922.884 453.415C926.975 455.946 931.842 458.439 936.795 459.805C936.795 459.805 940.052 446.115 942.701 433.121Z" fill="#F0E2DA"/>
<path d="M925.571 459.606C920.915 457.919 915.718 460.192 913.97 464.685C913.624 465.57 913.441 466.471 913.402 467.364C913.399 467.364 910.05 510.86 909.148 522.578H919.719C920.813 517.539 922.871 508.404 925.076 500.475C928.84 486.939 930.131 474.771 930.726 469.167C930.894 468.428 930.96 467.686 930.927 466.955C930.774 463.575 929.059 460.87 925.571 459.606Z" fill="#DE9681"/>
<path d="M947.39 505.486C937.456 506.524 929.735 513.638 927.762 522.579H971.869C969.502 511.789 958.997 504.274 947.39 505.486Z" fill="#F6AF9A"/>
<path d="M926.46 522.58H972.805C969.429 503.066 954.178 503.048 952.258 503.074C952.258 503.074 931.068 501.772 926.46 522.58Z" fill="#8C4949"/>
<path d="M967.414 470.809C944.031 470.745 939.182 481.266 939.182 481.266C938.792 484.171 938.728 487.401 937.341 490.149C930.924 502.841 928.419 517.32 927.674 522.579H1006.31C1005.84 514.766 1002.88 507.37 998.937 497.936C996.456 492.002 990.487 484.203 990.4 478.083C990.4 478.083 988.009 470.864 967.414 470.809Z" fill="#F6AF9A"/>
<path d="M938.909 483.604C938.909 483.604 937.395 485.784 933.493 495.972C930.651 503.385 927.885 516.167 926.59 522.58H1007.31C1006.3 513.778 1003.58 504.124 1000.51 498.674C996.826 492.157 991.572 481.441 991.572 481.441C981.178 483.996 938.909 483.604 938.909 483.604Z" fill="#8C4949"/>
<path d="M1000.51 498.674C996.826 492.157 991.573 481.441 991.573 481.441C984.549 483.166 962.978 483.549 949.721 483.613C943.704 487.509 941.971 491.968 941.971 491.968C941.971 491.968 958.123 497.268 978.529 497.601C989.184 497.601 993.381 497.601 994.778 498.338C995.757 498.854 997.298 513.738 998.133 522.58H1007.31C1006.3 513.778 1003.59 504.124 1000.51 498.674Z" fill="#824444"/>
<path d="M961.748 522.579H1005.72C1003.61 513.597 995.684 506.567 985.666 505.735C974.308 504.793 964.196 512.148 961.748 522.579Z" fill="#F6AF9A"/>
<path d="M959.79 522.58H1006.97C1004.95 512.204 999.374 502.611 983.525 503.089C983.525 503.089 963.767 503.077 959.79 522.58Z" fill="#8C4949"/>
<path d="M996.301 505.682C996.986 510.831 997.671 517.646 998.136 522.581H1006.97C1005.63 515.698 1002.73 509.164 996.301 505.682Z" fill="#824444"/>
<path d="M937.588 463.559C937.588 463.559 931.541 460.118 930.468 454.569C929.396 449.02 932.472 430.57 933.253 421.939C934.037 413.309 926.872 405.864 925.911 401.579C925.911 401.579 936.032 396.987 958.222 394.885C958.222 394.885 970.731 395.233 982.75 397.343C992.558 399.062 997.664 404.243 999.581 407.209C1001.5 410.175 1000.25 417.405 997.58 426.236C994.91 435.067 991.975 442.718 991.68 452.07C991.536 456.587 991.326 472.709 991.617 483.265C991.617 483.265 992.786 489.898 969.03 491.316C947.101 492.626 938.96 483.366 938.96 483.366C938.134 474.683 937.588 463.559 937.588 463.559Z" fill="#DE9681"/>
<path d="M995.146 434.064C993.365 439.888 991.884 445.567 991.679 452.07C991.58 455.219 991.448 464.003 991.475 472.613C986.263 459.04 979.291 418.516 979.291 418.516L995.146 434.064Z" fill="#E57E73"/>
<path d="M947.168 398.07L948.472 375.7C948.625 371.267 951.767 367.275 956.444 366.107C962.137 364.683 967.947 367.983 969.422 373.476C969.623 374.222 969.731 374.972 969.758 375.712L971.795 399.728C971.813 399.896 971.858 400.659 971.858 400.659C972.209 406.309 968.37 411.194 962.473 412.667C955.778 414.34 949.166 410.768 947.433 404.306C946.892 402.294 947.024 400.212 947.168 398.07Z" fill="#DE9681"/>
<path d="M948.473 375.7C948.626 371.267 951.768 367.275 956.445 366.107C962.138 364.683 967.948 367.983 969.423 373.476C969.624 374.222 969.732 374.972 969.759 375.712L969.864 376.961C965.112 387.276 956.46 394.953 947.244 396.812L948.473 375.7Z" fill="#D38475"/>
<path d="M939.472 397.662C939.472 397.662 941.016 404.396 952.04 406.133C963.065 407.869 985.429 397.734 985.429 397.734C985.429 397.734 990.227 397.67 993.531 399.656C993.531 399.656 999.789 403.431 1000.84 408.064C1001.89 412.699 1000.49 420.904 999.638 423.899C998.788 426.891 993.531 453.389 993.531 460.028C993.531 464.663 996.313 477.852 997.992 485.389C998.665 488.416 996.562 491.359 993.393 491.825C982.882 493.371 959.775 495.847 937.213 492.11C933.518 491.498 930.91 488.277 931.153 484.67C931.718 476.338 932.652 462.469 932.631 461.889C932.631 461.889 927.969 459.138 926.966 451.316C925.963 443.497 932.115 424.09 931.454 420.759C930.793 417.428 924.941 404.837 925.058 401.668C925.058 401.668 931.409 398.734 939.472 397.662Z" fill="#FCF5F1"/>
<path d="M966.974 494.029C978.119 493.794 987.647 492.669 993.397 491.825C996.563 491.359 998.663 488.413 997.99 485.389C996.311 477.852 993.529 464.663 993.529 460.028C993.529 453.389 998.786 426.891 999.636 423.899C999.832 423.214 1000.05 422.261 1000.27 421.142C990.847 415.99 982.045 414.83 977.776 420.324C977.776 420.324 979.957 445.196 979.924 449.976C979.891 454.754 969.116 462.103 952.906 460.489C952.906 460.489 967.917 465.8 981.624 459.039L983.265 463.625H989.423C989.423 463.625 990.231 473.329 991.432 479.991C992.625 486.618 980.059 491.301 966.974 494.029Z" fill="#F0E2DA"/>
<path d="M977.865 414.841C977.724 413.696 977.745 412.516 977.949 411.322C979.112 404.517 985.771 399.911 992.825 401.03C998.677 401.96 1002.96 406.547 1003.59 411.968L1018.13 471.244C1018.44 472.404 1018.51 473.641 1018.29 474.9C1017.47 479.73 1012.74 483 1007.74 482.205C1003.52 481.533 1000.45 478.19 1000.08 474.265C1000.08 474.265 981.716 432.477 978.198 416.529C978.048 415.978 977.937 415.412 977.865 414.841Z" fill="#DE9681"/>
<path d="M988.425 399.656C988.425 399.656 975.219 401.375 977.172 417.294C979.121 433.213 985.727 461.888 985.727 461.888C985.727 461.888 1009.29 462.033 1017.25 450.88C1017.25 450.88 1006.29 413.841 1003.29 407.437C1000.29 401.03 993.093 397.951 988.425 399.656Z" fill="#FCF5F1"/>
<path d="M1007.12 465.513C1003.42 466.354 1000.78 469.239 1000.17 472.636C1000.04 473.373 1000 474.132 1000.07 474.901C999.913 480.641 1000.12 492.745 1002.09 506.904C1002.82 512.108 1003.42 517.782 1003.88 522.58H1015.7C1016.67 505.313 1018.38 474.892 1018.38 474.892C1018.46 473.982 1018.39 473.045 1018.16 472.112C1017 467.346 1012.05 464.391 1007.12 465.513Z" fill="#DE9681"/>
<path d="M958.777 329.085C958.777 329.085 979.607 329.833 979.15 353.606C978.708 376.442 958.831 395.124 941.801 390.329C936.388 388.471 932.823 376.578 932.633 358.702C932.441 340.826 940.396 328.459 958.777 329.085Z" fill="#DE9681"/>
<path d="M986.424 385.067C983.883 376.955 985.947 361.486 984.916 354.507C984.889 354.325 984.847 354.157 984.799 354C984.15 344.679 980.972 337.188 973.612 331.535C965.694 325.449 952.789 328.279 952.789 328.279C946.925 327.856 934.753 332.807 931.379 340.589C928.006 348.37 929.033 359.549 930.355 362.521C931.674 365.492 929.913 368.322 929.18 370.302C928.447 372.282 929.913 374.262 931.232 376.811C932.554 379.356 930.355 382.328 930.355 382.328C932.554 381.197 933.578 378.083 932.701 375.396C931.821 372.705 931.379 371.717 931.953 369.676C932.524 367.632 932.992 366.339 933.287 363.228C933.578 360.114 932.845 353.89 934.605 349.646C936.366 345.398 943.257 340.589 943.257 340.589C945.312 346.674 948.244 351.484 952.056 352.756C955.871 354.029 958.217 355.87 958.95 357.708C959.683 359.549 958.508 362.944 958.95 367.046C959.388 371.151 961.149 371.291 962.467 373.132C963.789 374.97 960.121 378.225 959.241 379.64C958.361 381.055 958.95 383.458 959.974 385.299C961.001 387.137 960.269 389.259 960.269 389.259C962.029 388.552 961.734 385.157 961.149 382.328C960.563 379.498 962.762 378.791 964.081 376.668C965.402 374.546 963.642 371.575 963.348 370.018C963.053 368.461 965.432 363.164 966.313 363.588C966.82 363.834 967.424 366.753 967.896 370.218C967.661 371.656 967.625 373.103 967.848 374.529C967.848 374.529 968.226 375.387 968.563 376.758C968.587 377.15 968.611 377.532 968.629 377.898C968.668 378.709 968.839 379.652 969.061 380.568C969.088 382.386 968.8 384.418 967.848 386.389C965.114 392.048 961.686 390.155 962.446 398.583C963.206 407.014 960.995 413.795 958.361 418.106C955.726 422.42 955.678 435.005 961.08 442.108C961.08 442.108 961.975 436.536 965.988 434.854C970.001 433.173 976.271 424.916 975.856 419.674C975.439 414.433 979.082 399.36 988.362 397.821C988.362 397.821 988.966 393.179 986.424 385.067Z" fill="#8C4949"/>
<path d="M943.258 340.589C943.615 335.235 947.31 329.819 952.789 328.28C947.959 330.915 944.865 335.559 943.258 340.589Z" fill="#7A3D3D"/>
<path d="M946.928 339.458C953.861 342.082 952.644 345.352 956.582 350.005C957.913 351.779 960.088 352.217 961.998 353.112C964.431 354.571 966.075 357.342 965.99 360.114C965.717 357.789 964.323 355.556 962.389 354.185C960.1 352.77 957.772 352.933 955.918 350.561C951.932 345.839 953.524 342.917 946.928 339.458Z" fill="#7A3D3D"/>
<path d="M951.325 336.628C955.14 337.258 958.913 339.093 960.986 342.354C964.726 347.016 970.832 351.599 970.096 358.133C969.943 351.703 963.96 347.633 960.319 342.832C958.408 339.612 954.897 337.742 951.325 336.628Z" fill="#7A3D3D"/>
<path d="M951.325 332.243C957.784 331.492 964.861 332.93 969.442 337.653C971.692 339.787 973.636 342.303 974.768 345.165C975.27 346.489 975.627 347.907 975.627 349.325C975.6 350.128 975.621 351.111 975.712 351.911C976.132 356.344 977.217 360.953 975.961 365.351C977.03 359.956 974.798 354.546 974.831 349.154C974.414 343.909 970.617 339.511 966.585 336.247C962.311 333.032 956.627 332.136 951.325 332.243Z" fill="#7A3D3D"/>
<path d="M981.537 356.896C982.757 361.863 983.117 367.22 981.519 372.149C980.837 374.607 979.497 376.892 978.828 379.327C978.263 381.855 979.849 384.282 979.576 386.842C979.527 390.347 977.995 393.991 974.919 396.026C974.222 396.484 973.55 397.026 972.982 397.626C970.074 400.743 968.869 405.031 968.521 409.142C968.425 410.852 968.47 412.589 968.088 414.27C967.082 421.089 960.35 426.223 961.08 433.338C959.957 426.279 966.526 420.898 967.415 414.151C967.755 412.484 967.671 410.78 967.755 409.092C968.07 404.593 969.425 399.847 972.823 396.583C973.291 396.133 973.871 395.696 974.415 395.33C978.019 392.959 979.23 388.349 978.596 384.343C978.284 382.635 977.596 380.913 978.113 379.171C978.849 376.669 980.209 374.462 980.972 371.981C982.679 367.145 982.471 361.868 981.537 356.896Z" fill="#7A3D3D"/>
<path d="M972.373 375.598C975.058 384.011 971.727 385.214 968.474 392.001C967.819 393.433 967.882 394.865 967.75 396.413C967.014 399.289 965.809 400.011 965.99 403.501C965.437 400.753 966.203 399.248 967.008 396.761C967.209 395.401 966.927 393.964 967.38 392.621C967.437 392.36 967.588 391.966 967.675 391.711C970.925 384.542 973.983 384.739 972.373 375.598Z" fill="#7A3D3D"/>
<path d="M982.406 379.629C982.24 382.151 981.934 384.714 982.385 387.19C982.535 388.059 983.099 388.662 983.409 389.451C984.106 391.106 984.328 392.933 984.007 394.684C983.619 396.348 982.769 397.91 982.784 399.655C982.403 397.942 983.054 396.264 983.322 394.588C983.649 387.691 979.564 389.436 982.406 379.629Z" fill="#7A3D3D"/>
<path d="M976.382 401.483C974.492 403.901 972.624 406.765 972.756 409.884C973.267 414.546 973.477 420.367 970.885 424.495C972.675 420.025 972.312 415.024 971.945 410.334C971.66 406.881 973.883 403.735 976.382 401.483Z" fill="#7A3D3D"/>
<path d="M971.105 359.466C971.105 359.466 974.478 359.724 974.55 364.849C974.616 369.775 971.549 375.448 967.846 374.529C966.665 374.164 965.641 369.856 965.472 366.003C965.304 362.153 967.14 359.454 971.105 359.466Z" fill="#DE9681"/>
<path d="M968.448 370.857C966.955 364.195 970.493 362.305 970.644 362.227C970.827 362.131 971.052 362.201 971.151 362.375C971.247 362.551 971.178 362.769 970.998 362.865C970.896 362.92 969.015 363.955 968.844 367.3C969.887 366.12 971.548 365.911 971.638 365.9C971.842 365.877 972.028 366.019 972.055 366.216C972.079 366.416 971.932 366.596 971.728 366.619C971.632 366.63 969.4 366.92 968.874 368.761C968.925 369.353 969.021 369.996 969.181 370.704C969.22 370.88 969.118 371.057 968.943 371.118C968.928 371.124 968.91 371.13 968.892 371.133C968.691 371.176 968.49 371.051 968.448 370.857Z" fill="#BA6D5B"/>
<path d="M1019.89 290.089H903.877C898.656 290.089 894.424 294.171 894.424 299.207V310.415H1029.34V299.207C1029.34 294.171 1025.11 290.089 1019.89 290.089Z" fill="#8CCBFF"/>
<path d="M1020.39 299.801H1007.41C1006.62 299.801 1005.97 299.181 1005.97 298.413V298.192C1005.97 297.427 1006.62 296.807 1007.41 296.807H1020.39C1021.18 296.807 1021.83 297.427 1021.83 298.192V298.413C1021.83 299.181 1021.18 299.801 1020.39 299.801Z" fill="white"/>
<path d="M1020.39 306.287H1012.17C1011.37 306.287 1010.73 305.664 1010.73 304.899V304.678C1010.73 303.91 1011.37 303.29 1012.17 303.29H1020.39C1021.18 303.29 1021.83 303.913 1021.83 304.678V304.899C1021.83 305.664 1021.18 306.287 1020.39 306.287Z" fill="white"/>
<path d="M1019.89 523.291H903.878C898.258 523.291 893.686 518.881 893.686 513.46V299.208C893.686 293.787 898.258 289.377 903.878 289.377H1019.89C1025.51 289.377 1030.08 293.787 1030.08 299.208V513.46C1030.08 518.881 1025.51 523.291 1019.89 523.291ZM903.878 290.8C899.072 290.8 895.164 294.572 895.164 299.208V513.46C895.164 518.095 899.072 521.867 903.878 521.867H1019.89C1024.69 521.867 1028.6 518.095 1028.6 513.46V299.208C1028.6 294.572 1024.69 290.8 1019.89 290.8H903.878Z" fill="white"/>
<path d="M988.038 294.644H935.727C932.521 294.644 929.92 292.133 929.92 289.04V287.869H993.845V289.04C993.845 292.133 991.243 294.644 988.038 294.644Z" fill="#303C72"/>
<path d="M905.044 322.438H788.288C784.536 322.438 781.493 325.374 781.493 328.995V361.674C781.493 365.298 784.536 368.232 788.288 368.232H893.151L911.839 389.868V328.995C911.839 325.374 908.796 322.438 905.044 322.438Z" fill="white"/>
<path d="M858.137 337.307H898.433C899.577 337.307 900.505 336.412 900.505 335.307V333.678C900.505 332.573 899.577 331.677 898.433 331.677H858.137C856.99 331.677 856.062 332.573 856.062 333.678V335.307C856.062 336.412 856.99 337.307 858.137 337.307Z" fill="#D4E7FF"/>
<path d="M793.491 337.307H845.46C846.607 337.307 847.535 336.412 847.535 335.307V333.678C847.535 332.573 846.607 331.677 845.46 331.677H793.491C792.346 331.677 791.418 332.573 791.418 333.678V335.307C791.418 336.412 792.346 337.307 793.491 337.307Z" fill="#D4E7FF"/>
<path d="M873.869 348.313H898.434C899.579 348.313 900.507 347.417 900.507 346.313V344.686C900.507 343.579 899.579 342.683 898.434 342.683H873.869C872.724 342.683 871.793 343.579 871.793 344.686V346.313C871.793 347.417 872.724 348.313 873.869 348.313Z" fill="#D4E7FF"/>
<path d="M850.254 348.313H861.84C862.988 348.313 863.916 347.417 863.916 346.313V344.686C863.916 343.579 862.988 342.683 861.84 342.683H850.254C849.11 342.683 848.182 343.579 848.182 344.686V346.313C848.182 347.417 849.11 348.313 850.254 348.313Z" fill="#D4E7FF"/>
<path d="M793.491 348.313H838.698C839.845 348.313 840.773 347.417 840.773 346.313V344.686C840.773 343.579 839.845 342.683 838.698 342.683H793.491C792.346 342.683 791.418 343.579 791.418 344.686V346.313C791.418 347.417 792.346 348.313 793.491 348.313Z" fill="#D4E7FF"/>
<path d="M884.531 359.32H898.436C899.58 359.32 900.508 358.425 900.508 357.317V355.691C900.508 354.583 899.58 353.688 898.436 353.688H884.531C883.386 353.688 882.458 354.583 882.458 355.691V357.317C882.458 358.425 883.386 359.32 884.531 359.32Z" fill="#D4E7FF"/>
<path d="M793.491 359.321H873.556C874.7 359.321 875.629 358.425 875.629 357.317V355.691C875.629 354.583 874.7 353.688 873.556 353.688H793.491C792.346 353.688 791.418 354.583 791.418 355.691V357.317C791.418 358.425 792.346 359.321 793.491 359.321Z" fill="#D4E7FF"/>
<path d="M873.174 369.183H788.29C784 369.183 780.51 365.814 780.51 361.674V328.995C780.51 324.855 784 321.489 788.29 321.489H883.531C884.075 321.489 884.514 321.913 884.514 322.437C884.514 322.962 884.075 323.388 883.531 323.388H788.29C785.088 323.388 782.48 325.902 782.48 328.995V361.674C782.48 364.768 785.088 367.284 788.29 367.284H873.174C873.717 367.284 874.159 367.707 874.159 368.232C874.159 368.757 873.717 369.183 873.174 369.183Z" fill="#8CCBFF"/>
<path d="M872.958 267.088H756.205C752.453 267.088 749.41 270.025 749.41 273.646V334.519L768.098 312.883H872.958C876.713 312.883 879.756 309.946 879.756 306.325V273.646C879.756 270.025 876.713 267.088 872.958 267.088Z" fill="white"/>
<path d="M827.266 282.051H763.091C761.944 282.051 761.016 281.155 761.016 280.05V278.421C761.016 277.316 761.944 276.42 763.091 276.42H827.266C828.41 276.42 829.338 277.316 829.338 278.421V280.05C829.338 281.155 828.41 282.051 827.266 282.051Z" fill="#D4E7FF"/>
<path d="M868.033 282.051H839.943C838.798 282.051 837.87 281.155 837.87 280.05V278.421C837.87 277.316 838.798 276.42 839.943 276.42H868.033C869.181 276.42 870.109 277.316 870.109 278.421V280.05C870.109 281.155 869.181 282.051 868.033 282.051Z" fill="#D4E7FF"/>
<path d="M786.861 293.054H763.091C761.947 293.054 761.016 292.158 761.016 291.054V289.425C761.016 288.32 761.947 287.424 763.091 287.424H786.861C788.006 287.424 788.934 288.32 788.934 289.425V291.054C788.934 292.158 788.006 293.054 786.861 293.054Z" fill="#D4E7FF"/>
<path d="M848.851 293.054H799.682C798.538 293.054 797.609 292.159 797.609 291.054V289.425C797.609 288.32 798.538 287.424 799.682 287.424H848.851C849.996 287.424 850.924 288.32 850.924 289.425V291.054C850.924 292.159 849.996 293.054 848.851 293.054Z" fill="#D4E7FF"/>
<path d="M868.032 293.054H860.408C859.26 293.054 858.332 292.158 858.332 291.054V289.425C858.332 288.32 859.26 287.424 860.408 287.424H868.032C869.179 287.424 870.107 288.32 870.107 289.425V291.054C870.107 292.158 869.179 293.054 868.032 293.054Z" fill="#D4E7FF"/>
<path d="M814.33 304.063H763.091C761.947 304.063 761.016 303.164 761.016 302.06V300.433C761.016 299.326 761.947 298.43 763.091 298.43H814.33C815.475 298.43 816.403 299.326 816.403 300.433V302.06C816.403 303.164 815.475 304.063 814.33 304.063Z" fill="#D4E7FF"/>
<path d="M868.034 304.063H825.308C824.161 304.063 823.232 303.164 823.232 302.06V300.433C823.232 299.326 824.161 298.43 825.308 298.43H868.034C869.181 298.43 870.11 299.326 870.11 300.433V302.06C870.11 303.164 869.181 304.063 868.034 304.063Z" fill="#D4E7FF"/>
<path d="M872.957 313.83H781.495C780.951 313.83 780.509 313.407 780.509 312.882C780.509 312.358 780.951 311.931 781.495 311.931H872.957C876.162 311.931 878.77 309.418 878.77 306.324V273.645C878.77 270.552 876.162 268.036 872.957 268.036H756.204C753.002 268.036 750.394 270.552 750.394 273.645V279.235C750.394 279.76 749.953 280.186 749.409 280.186C748.865 280.186 748.424 279.76 748.424 279.235V273.645C748.424 269.506 751.914 266.137 756.204 266.137H872.957C877.25 266.137 880.74 269.506 880.74 273.645V306.324C880.74 310.464 877.25 313.83 872.957 313.83Z" fill="#8CCBFF"/>
</svg>
