<svg width="1668" height="798" viewBox="0 0 1668 798" fill="none" xmlns="http://www.w3.org/2000/svg">
<rect width="1667.89" height="797.486" fill="white"/>
<path d="M650.253 594.056H646.034L653.715 572.237H658.594L666.286 594.056H662.067L656.24 576.712H656.069L650.253 594.056ZM650.391 585.501H661.897V588.676H650.391V585.501ZM675.608 600.533C674.223 600.533 673.033 600.345 672.039 599.968C671.045 599.599 670.246 599.102 669.642 598.477C669.038 597.852 668.619 597.159 668.385 596.399L671.858 595.558C672.014 595.877 672.241 596.193 672.54 596.506C672.838 596.826 673.239 597.088 673.743 597.294C674.255 597.507 674.898 597.614 675.672 597.614C676.765 597.614 677.671 597.348 678.388 596.815C679.106 596.289 679.464 595.423 679.464 594.215V591.115H679.273C679.074 591.513 678.782 591.921 678.399 592.34C678.023 592.759 677.522 593.111 676.897 593.395C676.279 593.679 675.501 593.821 674.564 593.821C673.307 593.821 672.167 593.527 671.144 592.937C670.128 592.34 669.319 591.453 668.715 590.274C668.118 589.088 667.82 587.603 667.82 585.821C667.82 584.024 668.118 582.507 668.715 581.272C669.319 580.029 670.132 579.088 671.155 578.448C672.177 577.802 673.317 577.479 674.574 577.479C675.533 577.479 676.322 577.642 676.939 577.969C677.564 578.289 678.062 578.676 678.431 579.13C678.8 579.578 679.081 580 679.273 580.398H679.486V577.692H683.289V594.322C683.289 595.721 682.955 596.879 682.287 597.795C681.62 598.711 680.707 599.397 679.55 599.851C678.392 600.306 677.078 600.533 675.608 600.533ZM675.64 590.796C676.456 590.796 677.153 590.597 677.728 590.199C678.303 589.801 678.74 589.23 679.038 588.484C679.336 587.738 679.486 586.843 679.486 585.799C679.486 584.769 679.336 583.867 679.038 583.093C678.747 582.319 678.314 581.719 677.738 581.293C677.17 580.86 676.471 580.643 675.64 580.643C674.78 580.643 674.063 580.867 673.488 581.314C672.912 581.762 672.479 582.376 672.188 583.157C671.897 583.931 671.751 584.812 671.751 585.799C671.751 586.801 671.897 587.678 672.188 588.431C672.486 589.176 672.923 589.759 673.498 590.178C674.081 590.59 674.795 590.796 675.64 590.796ZM697.671 587.174V577.692H701.528V594.056H697.788V591.147H697.618C697.248 592.063 696.641 592.813 695.796 593.395C694.958 593.978 693.925 594.269 692.696 594.269C691.623 594.269 690.675 594.031 689.851 593.555C689.035 593.072 688.395 592.372 687.934 591.456C687.472 590.533 687.241 589.418 687.241 588.111V577.692H691.098V587.514C691.098 588.551 691.382 589.375 691.95 589.986C692.518 590.597 693.264 590.902 694.187 590.902C694.756 590.902 695.306 590.764 695.839 590.487C696.371 590.21 696.808 589.798 697.149 589.251C697.497 588.697 697.671 588.005 697.671 587.174ZM710.202 594.386C709.165 594.386 708.231 594.201 707.4 593.832C706.576 593.456 705.923 592.902 705.44 592.17C704.964 591.438 704.726 590.536 704.726 589.464C704.726 588.541 704.897 587.777 705.238 587.174C705.578 586.57 706.044 586.087 706.633 585.725C707.223 585.362 707.887 585.089 708.625 584.904C709.371 584.713 710.142 584.574 710.937 584.489C711.896 584.389 712.674 584.301 713.27 584.223C713.867 584.137 714.3 584.009 714.57 583.839C714.847 583.661 714.985 583.388 714.985 583.019V582.955C714.985 582.152 714.748 581.531 714.272 581.09C713.796 580.65 713.11 580.43 712.216 580.43C711.271 580.43 710.522 580.636 709.968 581.048C709.421 581.46 709.051 581.946 708.86 582.507L705.259 581.996C705.543 581.002 706.012 580.171 706.665 579.503C707.319 578.828 708.118 578.324 709.062 577.99C710.007 577.649 711.051 577.479 712.194 577.479C712.983 577.479 713.767 577.571 714.549 577.756C715.33 577.941 716.044 578.246 716.69 578.672C717.336 579.091 717.855 579.663 718.245 580.387C718.643 581.112 718.842 582.017 718.842 583.104V594.056H715.135V591.808H715.007C714.772 592.262 714.442 592.688 714.016 593.086C713.597 593.477 713.068 593.793 712.429 594.034C711.797 594.269 711.054 594.386 710.202 594.386ZM711.203 591.552C711.978 591.552 712.649 591.399 713.217 591.094C713.785 590.782 714.222 590.37 714.527 589.858C714.84 589.347 714.996 588.789 714.996 588.186V586.257C714.875 586.357 714.669 586.449 714.378 586.534C714.094 586.62 713.775 586.694 713.419 586.758C713.064 586.822 712.713 586.879 712.365 586.929C712.017 586.978 711.715 587.021 711.459 587.056C710.884 587.134 710.369 587.262 709.914 587.44C709.46 587.617 709.101 587.866 708.838 588.186C708.576 588.498 708.444 588.903 708.444 589.4C708.444 590.11 708.703 590.647 709.222 591.009C709.74 591.371 710.401 591.552 711.203 591.552ZM722.72 594.056V577.692H726.459V580.419H726.63C726.928 579.475 727.439 578.747 728.164 578.235C728.895 577.717 729.73 577.458 730.667 577.458C730.88 577.458 731.118 577.468 731.381 577.49C731.651 577.504 731.875 577.529 732.052 577.564V581.112C731.889 581.055 731.63 581.005 731.275 580.963C730.926 580.913 730.589 580.888 730.262 580.888C729.559 580.888 728.927 581.041 728.366 581.346C727.812 581.644 727.375 582.06 727.056 582.593C726.736 583.125 726.576 583.74 726.576 584.436V594.056H722.72ZM740.013 594.343C738.727 594.343 737.577 594.013 736.561 593.353C735.546 592.692 734.743 591.733 734.154 590.476C733.564 589.219 733.269 587.692 733.269 585.895C733.269 584.077 733.568 582.543 734.164 581.293C734.768 580.036 735.581 579.088 736.604 578.448C737.627 577.802 738.767 577.479 740.024 577.479C740.982 577.479 741.771 577.642 742.389 577.969C743.007 578.289 743.497 578.676 743.859 579.13C744.221 579.578 744.502 580 744.7 580.398H744.86V572.237H748.727V594.056H744.935V591.478H744.7C744.502 591.875 744.214 592.298 743.838 592.745C743.461 593.186 742.964 593.562 742.346 593.875C741.728 594.187 740.95 594.343 740.013 594.343ZM741.089 591.179C741.906 591.179 742.602 590.959 743.177 590.519C743.752 590.071 744.189 589.45 744.487 588.654C744.786 587.859 744.935 586.932 744.935 585.874C744.935 584.816 744.786 583.896 744.487 583.115C744.196 582.333 743.763 581.726 743.188 581.293C742.619 580.86 741.92 580.643 741.089 580.643C740.23 580.643 739.512 580.867 738.937 581.314C738.362 581.762 737.928 582.38 737.637 583.168C737.346 583.956 737.2 584.858 737.2 585.874C737.2 586.897 737.346 587.809 737.637 588.612C737.936 589.407 738.372 590.036 738.948 590.497C739.53 590.952 740.244 591.179 741.089 591.179ZM757.546 594.386C756.509 594.386 755.575 594.201 754.744 593.832C753.92 593.456 753.267 592.902 752.784 592.17C752.308 591.438 752.07 590.536 752.07 589.464C752.07 588.541 752.24 587.777 752.581 587.174C752.922 586.57 753.387 586.087 753.977 585.725C754.566 585.362 755.23 585.089 755.969 584.904C756.715 584.713 757.485 584.574 758.281 584.489C759.24 584.389 760.017 584.301 760.614 584.223C761.211 584.137 761.644 584.009 761.914 583.839C762.191 583.661 762.329 583.388 762.329 583.019V582.955C762.329 582.152 762.091 581.531 761.615 581.09C761.14 580.65 760.454 580.43 759.559 580.43C758.615 580.43 757.865 580.636 757.311 581.048C756.765 581.46 756.395 581.946 756.203 582.507L752.603 581.996C752.887 581.002 753.355 580.171 754.009 579.503C754.662 578.828 755.461 578.324 756.406 577.99C757.35 577.649 758.395 577.479 759.538 577.479C760.326 577.479 761.111 577.571 761.892 577.756C762.674 577.941 763.387 578.246 764.034 578.672C764.68 579.091 765.199 579.663 765.589 580.387C765.987 581.112 766.186 582.017 766.186 583.104V594.056H762.478V591.808H762.35C762.116 592.262 761.786 592.688 761.36 593.086C760.941 593.477 760.412 593.793 759.772 594.034C759.14 594.269 758.398 594.386 757.546 594.386ZM758.547 591.552C759.321 591.552 759.993 591.399 760.561 591.094C761.129 590.782 761.566 590.37 761.871 589.858C762.184 589.347 762.34 588.789 762.34 588.186V586.257C762.219 586.357 762.013 586.449 761.722 586.534C761.438 586.62 761.118 586.694 760.763 586.758C760.408 586.822 760.056 586.879 759.708 586.929C759.36 586.978 759.059 587.021 758.803 587.056C758.228 587.134 757.713 587.262 757.258 587.44C756.804 587.617 756.445 587.866 756.182 588.186C755.919 588.498 755.788 588.903 755.788 589.4C755.788 590.11 756.047 590.647 756.566 591.009C757.084 591.371 757.745 591.552 758.547 591.552ZM773.92 584.468V594.056H770.064V577.692H773.75V580.473H773.941C774.318 579.556 774.918 578.828 775.742 578.289C776.573 577.749 777.599 577.479 778.821 577.479C779.95 577.479 780.934 577.72 781.772 578.203C782.617 578.686 783.27 579.386 783.732 580.302C784.201 581.218 784.431 582.33 784.424 583.637V594.056H780.568V584.233C780.568 583.139 780.284 582.284 779.716 581.666C779.154 581.048 778.377 580.739 777.382 580.739C776.708 580.739 776.108 580.888 775.582 581.186C775.064 581.478 774.655 581.9 774.357 582.454C774.066 583.008 773.92 583.679 773.92 584.468ZM794.417 594.343C793.132 594.343 791.981 594.013 790.966 593.353C789.95 592.692 789.147 591.733 788.558 590.476C787.968 589.219 787.674 587.692 787.674 585.895C787.674 584.077 787.972 582.543 788.569 581.293C789.172 580.036 789.985 579.088 791.008 578.448C792.031 577.802 793.171 577.479 794.428 577.479C795.387 577.479 796.175 577.642 796.793 577.969C797.411 578.289 797.901 578.676 798.263 579.13C798.625 579.578 798.906 580 799.105 580.398H799.265V572.237H803.132V594.056H799.339V591.478H799.105C798.906 591.875 798.618 592.298 798.242 592.745C797.865 593.186 797.368 593.562 796.75 593.875C796.132 594.187 795.355 594.343 794.417 594.343ZM795.493 591.179C796.31 591.179 797.006 590.959 797.581 590.519C798.157 590.071 798.593 589.45 798.892 588.654C799.19 587.859 799.339 586.932 799.339 585.874C799.339 584.816 799.19 583.896 798.892 583.115C798.6 582.333 798.167 581.726 797.592 581.293C797.024 580.86 796.324 580.643 795.493 580.643C794.634 580.643 793.917 580.867 793.341 581.314C792.766 581.762 792.333 582.38 792.042 583.168C791.75 583.956 791.605 584.858 791.605 585.874C791.605 586.897 791.75 587.809 792.042 588.612C792.34 589.407 792.777 590.036 793.352 590.497C793.934 590.952 794.648 591.179 795.493 591.179ZM814.379 594.375C812.781 594.375 811.396 594.024 810.224 593.321C809.052 592.617 808.143 591.634 807.497 590.37C806.858 589.105 806.538 587.628 806.538 585.938C806.538 584.247 806.858 582.767 807.497 581.495C808.143 580.224 809.052 579.237 810.224 578.534C811.396 577.831 812.781 577.479 814.379 577.479C815.977 577.479 817.362 577.831 818.534 578.534C819.706 579.237 820.611 580.224 821.251 581.495C821.897 582.767 822.22 584.247 822.22 585.938C822.22 587.628 821.897 589.105 821.251 590.37C820.611 591.634 819.706 592.617 818.534 593.321C817.362 594.024 815.977 594.375 814.379 594.375ZM814.4 591.286C815.267 591.286 815.991 591.048 816.574 590.572C817.156 590.089 817.589 589.443 817.873 588.633C818.165 587.823 818.31 586.921 818.31 585.927C818.31 584.926 818.165 584.02 817.873 583.21C817.589 582.394 817.156 581.744 816.574 581.261C815.991 580.778 815.267 580.536 814.4 580.536C813.513 580.536 812.774 580.778 812.184 581.261C811.602 581.744 811.165 582.394 810.874 583.21C810.59 584.02 810.448 584.926 810.448 585.927C810.448 586.921 810.59 587.823 810.874 588.633C811.165 589.443 811.602 590.089 812.184 590.572C812.774 591.048 813.513 591.286 814.4 591.286ZM832.935 594.056V577.692H836.674V580.419H836.844C837.143 579.475 837.654 578.747 838.379 578.235C839.11 577.717 839.945 577.458 840.882 577.458C841.095 577.458 841.333 577.468 841.596 577.49C841.866 577.504 842.089 577.529 842.267 577.564V581.112C842.104 581.055 841.844 581.005 841.489 580.963C841.141 580.913 840.804 580.888 840.477 580.888C839.774 580.888 839.142 581.041 838.581 581.346C838.027 581.644 837.59 582.06 837.271 582.593C836.951 583.125 836.791 583.74 836.791 584.436V594.056H832.935ZM851.4 594.375C849.759 594.375 848.342 594.034 847.149 593.353C845.963 592.664 845.05 591.691 844.411 590.434C843.772 589.169 843.452 587.681 843.452 585.97C843.452 584.286 843.772 582.809 844.411 581.538C845.057 580.259 845.959 579.265 847.117 578.555C848.275 577.838 849.635 577.479 851.197 577.479C852.206 577.479 853.157 577.642 854.052 577.969C854.954 578.289 855.75 578.786 856.439 579.46C857.135 580.135 857.682 580.995 858.079 582.039C858.477 583.076 858.676 584.311 858.676 585.746V586.929H845.263V584.329H854.979C854.972 583.59 854.812 582.934 854.5 582.358C854.187 581.776 853.751 581.318 853.189 580.984C852.635 580.65 851.989 580.483 851.251 580.483C850.462 580.483 849.77 580.675 849.173 581.059C848.577 581.435 848.111 581.932 847.778 582.55C847.451 583.161 847.284 583.832 847.277 584.563V586.833C847.277 587.784 847.451 588.601 847.799 589.283C848.147 589.958 848.633 590.476 849.258 590.838C849.883 591.193 850.615 591.371 851.453 591.371C852.014 591.371 852.522 591.293 852.976 591.137C853.431 590.973 853.825 590.735 854.159 590.423C854.493 590.11 854.745 589.723 854.915 589.262L858.516 589.666C858.289 590.618 857.856 591.449 857.216 592.159C856.584 592.862 855.775 593.409 854.787 593.8C853.8 594.184 852.671 594.375 851.4 594.375ZM874.872 582.017L871.356 582.401C871.257 582.046 871.083 581.712 870.834 581.399C870.593 581.087 870.266 580.835 869.854 580.643C869.442 580.451 868.938 580.355 868.341 580.355C867.539 580.355 866.864 580.529 866.317 580.877C865.777 581.225 865.511 581.676 865.518 582.23C865.511 582.706 865.685 583.093 866.04 583.392C866.402 583.69 866.999 583.935 867.83 584.127L870.621 584.723C872.169 585.057 873.32 585.586 874.073 586.311C874.833 587.035 875.216 587.983 875.223 589.155C875.216 590.185 874.914 591.094 874.318 591.882C873.728 592.664 872.908 593.274 871.857 593.715C870.806 594.155 869.598 594.375 868.235 594.375C866.232 594.375 864.62 593.956 863.398 593.118C862.176 592.273 861.449 591.098 861.214 589.592L864.975 589.23C865.145 589.968 865.507 590.526 866.061 590.902C866.615 591.279 867.336 591.467 868.224 591.467C869.14 591.467 869.875 591.279 870.429 590.902C870.99 590.526 871.271 590.061 871.271 589.507C871.271 589.038 871.09 588.651 870.728 588.345C870.373 588.04 869.819 587.806 869.066 587.642L866.275 587.056C864.705 586.73 863.544 586.179 862.791 585.405C862.038 584.624 861.665 583.637 861.672 582.443C861.665 581.435 861.939 580.561 862.493 579.823C863.054 579.077 863.831 578.502 864.826 578.097C865.827 577.685 866.981 577.479 868.288 577.479C870.206 577.479 871.715 577.887 872.816 578.704C873.924 579.521 874.609 580.625 874.872 582.017ZM878.403 600.192V577.692H882.196V580.398H882.42C882.619 580 882.899 579.578 883.261 579.13C883.624 578.676 884.114 578.289 884.732 577.969C885.349 577.642 886.138 577.479 887.097 577.479C888.361 577.479 889.501 577.802 890.516 578.448C891.539 579.088 892.349 580.036 892.945 581.293C893.549 582.543 893.851 584.077 893.851 585.895C893.851 587.692 893.556 589.219 892.967 590.476C892.377 591.733 891.575 592.692 890.559 593.353C889.543 594.013 888.393 594.343 887.107 594.343C886.17 594.343 885.392 594.187 884.774 593.875C884.156 593.562 883.659 593.186 883.283 592.745C882.913 592.298 882.626 591.875 882.42 591.478H882.26V600.192H878.403ZM882.185 585.874C882.185 586.932 882.335 587.859 882.633 588.654C882.938 589.45 883.375 590.071 883.943 590.519C884.518 590.959 885.214 591.179 886.031 591.179C886.884 591.179 887.597 590.952 888.173 590.497C888.748 590.036 889.181 589.407 889.472 588.612C889.771 587.809 889.92 586.897 889.92 585.874C889.92 584.858 889.774 583.956 889.483 583.168C889.192 582.38 888.759 581.762 888.183 581.314C887.608 580.867 886.891 580.643 886.031 580.643C885.207 580.643 884.508 580.86 883.933 581.293C883.357 581.726 882.92 582.333 882.622 583.115C882.331 583.896 882.185 584.816 882.185 585.874ZM904.291 594.375C902.693 594.375 901.308 594.024 900.136 593.321C898.964 592.617 898.055 591.634 897.409 590.37C896.77 589.105 896.45 587.628 896.45 585.938C896.45 584.247 896.77 582.767 897.409 581.495C898.055 580.224 898.964 579.237 900.136 578.534C901.308 577.831 902.693 577.479 904.291 577.479C905.889 577.479 907.274 577.831 908.446 578.534C909.618 579.237 910.523 580.224 911.163 581.495C911.809 582.767 912.132 584.247 912.132 585.938C912.132 587.628 911.809 589.105 911.163 590.37C910.523 591.634 909.618 592.617 908.446 593.321C907.274 594.024 905.889 594.375 904.291 594.375ZM904.312 591.286C905.179 591.286 905.903 591.048 906.486 590.572C907.068 590.089 907.501 589.443 907.786 588.633C908.077 587.823 908.222 586.921 908.222 585.927C908.222 584.926 908.077 584.02 907.786 583.21C907.501 582.394 907.068 581.744 906.486 581.261C905.903 580.778 905.179 580.536 904.312 580.536C903.425 580.536 902.686 580.778 902.097 581.261C901.514 581.744 901.077 582.394 900.786 583.21C900.502 584.02 900.36 584.926 900.36 585.927C900.36 586.921 900.502 587.823 900.786 588.633C901.077 589.443 901.514 590.089 902.097 590.572C902.686 591.048 903.425 591.286 904.312 591.286ZM928.339 582.017L924.823 582.401C924.724 582.046 924.55 581.712 924.301 581.399C924.059 581.087 923.733 580.835 923.321 580.643C922.909 580.451 922.405 580.355 921.808 580.355C921.006 580.355 920.331 580.529 919.784 580.877C919.244 581.225 918.978 581.676 918.985 582.23C918.978 582.706 919.152 583.093 919.507 583.392C919.869 583.69 920.466 583.935 921.297 584.127L924.088 584.723C925.636 585.057 926.787 585.586 927.54 586.311C928.3 587.035 928.683 587.983 928.69 589.155C928.683 590.185 928.381 591.094 927.785 591.882C927.195 592.664 926.375 593.274 925.324 593.715C924.273 594.155 923.065 594.375 921.702 594.375C919.699 594.375 918.086 593.956 916.865 593.118C915.643 592.273 914.915 591.098 914.681 589.592L918.442 589.23C918.612 589.968 918.974 590.526 919.528 590.902C920.082 591.279 920.803 591.467 921.691 591.467C922.607 591.467 923.342 591.279 923.896 590.902C924.457 590.526 924.738 590.061 924.738 589.507C924.738 589.038 924.557 588.651 924.194 588.345C923.839 588.04 923.285 587.806 922.532 587.642L919.741 587.056C918.172 586.73 917.01 586.179 916.258 585.405C915.505 584.624 915.132 583.637 915.139 582.443C915.132 581.435 915.405 580.561 915.959 579.823C916.52 579.077 917.298 578.502 918.292 578.097C919.294 577.685 920.448 577.479 921.755 577.479C923.672 577.479 925.182 577.887 926.282 578.704C927.39 579.521 928.076 580.625 928.339 582.017ZM940.041 577.692V580.675H930.634V577.692H940.041ZM932.957 573.772H936.813V589.134C936.813 589.652 936.892 590.05 937.048 590.327C937.211 590.597 937.424 590.782 937.687 590.881C937.95 590.98 938.241 591.03 938.561 591.03C938.802 591.03 939.022 591.012 939.221 590.977C939.427 590.941 939.583 590.909 939.69 590.881L940.34 593.896C940.134 593.967 939.839 594.045 939.455 594.13C939.079 594.215 938.617 594.265 938.07 594.279C937.105 594.308 936.235 594.162 935.46 593.843C934.686 593.516 934.072 593.012 933.617 592.33C933.17 591.648 932.95 590.796 932.957 589.773V573.772ZM947.975 594.386C946.939 594.386 946.005 594.201 945.174 593.832C944.35 593.456 943.696 592.902 943.213 592.17C942.738 591.438 942.5 590.536 942.5 589.464C942.5 588.541 942.67 587.777 943.011 587.174C943.352 586.57 943.817 586.087 944.407 585.725C944.996 585.362 945.66 585.089 946.399 584.904C947.145 584.713 947.915 584.574 948.711 584.489C949.669 584.389 950.447 584.301 951.044 584.223C951.64 584.137 952.074 584.009 952.343 583.839C952.62 583.661 952.759 583.388 952.759 583.019V582.955C952.759 582.152 952.521 581.531 952.045 581.09C951.569 580.65 950.884 580.43 949.989 580.43C949.044 580.43 948.295 580.636 947.741 581.048C947.194 581.46 946.825 581.946 946.633 582.507L943.032 581.996C943.316 581.002 943.785 580.171 944.439 579.503C945.092 578.828 945.891 578.324 946.836 577.99C947.78 577.649 948.824 577.479 949.968 577.479C950.756 577.479 951.541 577.571 952.322 577.756C953.103 577.941 953.817 578.246 954.463 578.672C955.11 579.091 955.628 579.663 956.019 580.387C956.417 581.112 956.615 582.017 956.615 583.104V594.056H952.908V591.808H952.78C952.546 592.262 952.216 592.688 951.789 593.086C951.37 593.477 950.841 593.793 950.202 594.034C949.57 594.269 948.828 594.386 947.975 594.386ZM948.977 591.552C949.751 591.552 950.422 591.399 950.99 591.094C951.559 590.782 951.995 590.37 952.301 589.858C952.613 589.347 952.77 588.789 952.77 588.186V586.257C952.649 586.357 952.443 586.449 952.152 586.534C951.868 586.62 951.548 586.694 951.193 586.758C950.838 586.822 950.486 586.879 950.138 586.929C949.79 586.978 949.488 587.021 949.233 587.056C948.657 587.134 948.142 587.262 947.688 587.44C947.233 587.617 946.875 587.866 946.612 588.186C946.349 588.498 946.218 588.903 946.218 589.4C946.218 590.11 946.477 590.647 946.995 591.009C947.514 591.371 948.174 591.552 948.977 591.552ZM962.869 594.29C962.223 594.29 961.669 594.063 961.207 593.608C960.745 593.154 960.518 592.6 960.525 591.946C960.518 591.307 960.745 590.76 961.207 590.306C961.669 589.851 962.223 589.624 962.869 589.624C963.494 589.624 964.037 589.851 964.499 590.306C964.968 590.76 965.206 591.307 965.213 591.946C965.206 592.38 965.092 592.774 964.872 593.129C964.659 593.484 964.375 593.768 964.02 593.981C963.672 594.187 963.288 594.29 962.869 594.29ZM971.57 594.29C970.924 594.29 970.37 594.063 969.908 593.608C969.447 593.154 969.219 592.6 969.226 591.946C969.219 591.307 969.447 590.76 969.908 590.306C970.37 589.851 970.924 589.624 971.57 589.624C972.195 589.624 972.738 589.851 973.2 590.306C973.669 590.76 973.907 591.307 973.914 591.946C973.907 592.38 973.793 592.774 973.573 593.129C973.36 593.484 973.076 593.768 972.721 593.981C972.373 594.187 971.989 594.29 971.57 594.29ZM980.271 594.29C979.625 594.29 979.071 594.063 978.609 593.608C978.148 593.154 977.92 592.6 977.928 591.946C977.92 591.307 978.148 590.76 978.609 590.306C979.071 589.851 979.625 589.624 980.271 589.624C980.896 589.624 981.44 589.851 981.901 590.306C982.37 590.76 982.608 591.307 982.615 591.946C982.608 592.38 982.494 592.774 982.274 593.129C982.061 593.484 981.777 593.768 981.422 593.981C981.074 594.187 980.69 594.29 980.271 594.29Z" fill="#5A7DA0"/>
<path d="M1031.93 403.344C1029.07 469.548 976.66 521.665 913.037 521.665H646.398C608.66 521.665 582.732 482.003 596.703 445.49C615.326 395.603 676.008 432.519 648.205 390.565C621.255 349.89 605.209 300.254 628.207 276.345C681.445 221.002 744.291 294.401 778.834 283.768C789.852 280.142 833.6 251.484 850.612 246.35C959.021 205.672 1041.23 301.941 1031.93 403.344Z" fill="#E3F0FF"/>
<path d="M614.754 387.22C617.7 381.18 591.633 350.4 579.661 358.246C567.689 366.092 566.445 382.015 584.296 387.795C601.168 393.256 611.81 393.259 614.754 387.22Z" fill="#E3F0FF"/>
<path d="M673.108 258.043L669.454 236.268C669.371 235.784 668.903 235.454 668.405 235.533C667.909 235.614 667.572 236.073 667.653 236.557L671.223 257.827L655.809 270.387C655.422 270.703 655.368 271.266 655.69 271.646C655.872 271.856 656.131 271.967 656.394 271.967C656.6 271.967 656.805 271.899 656.975 271.759L672.789 258.872C673.039 258.671 673.159 258.353 673.108 258.043Z" fill="#C7DEFF"/>
<path d="M697.405 269.104L676.179 261.65C675.874 261.544 675.534 261.603 675.287 261.804L659.473 274.691C659.086 275.006 659.032 275.57 659.354 275.949C659.536 276.159 659.795 276.27 660.055 276.27C660.261 276.27 660.47 276.203 660.64 276.063L676.053 263.503L696.788 270.786C697.262 270.952 697.784 270.71 697.954 270.246C698.124 269.782 697.879 269.271 697.405 269.104Z" fill="#C7DEFF"/>
<path d="M666.276 256.615C666.351 257.053 666.735 257.362 667.174 257.362C667.224 257.362 667.272 257.359 667.323 257.35C667.821 257.272 668.158 256.813 668.074 256.326L665.28 239.668C665.199 239.184 664.728 238.854 664.233 238.933C663.735 239.014 663.398 239.473 663.481 239.957L666.276 256.615Z" fill="#C7DEFF"/>
<path d="M693.228 272.504L676.988 266.801C676.514 266.634 675.995 266.876 675.822 267.341C675.652 267.805 675.9 268.315 676.374 268.482L692.613 274.185C692.715 274.22 692.819 274.238 692.921 274.238C693.293 274.238 693.645 274.01 693.779 273.645C693.949 273.181 693.702 272.67 693.228 272.504Z" fill="#C7DEFF"/>
<path d="M877.482 394.681L855.408 390.168C854.913 390.066 854.43 390.376 854.329 390.86C854.224 391.342 854.54 391.815 855.032 391.914L876.599 396.324L883.015 414.921C883.176 415.388 883.695 415.639 884.172 415.481C884.437 415.391 884.637 415.195 884.73 414.956C884.804 414.769 884.813 414.556 884.744 414.349L878.159 395.271C878.055 394.97 877.798 394.748 877.482 394.681Z" fill="#C7DEFF"/>
<path d="M896.788 376.496L882.03 393.181C881.819 393.42 881.753 393.75 881.854 394.051L888.44 413.129C888.601 413.596 889.12 413.847 889.597 413.689C889.863 413.602 890.062 413.403 890.155 413.164C890.229 412.977 890.238 412.764 890.17 412.557L883.751 393.963L898.166 377.664C898.497 377.29 898.455 376.73 898.073 376.406C897.695 376.085 897.119 376.126 896.788 376.496Z" fill="#C7DEFF"/>
<path d="M898.524 381.532L887.232 394.296C886.901 394.669 886.943 395.233 887.325 395.554C887.706 395.878 888.282 395.837 888.61 395.463L899.902 382.699C899.973 382.62 900.027 382.53 900.063 382.436C900.197 382.095 900.107 381.695 899.809 381.441C899.427 381.12 898.852 381.158 898.524 381.532Z" fill="#C7DEFF"/>
<path d="M760.568 471.199C760.568 471.199 655.839 198.031 580.795 268.284C566.434 285.99 583.268 316.242 614.191 351.324C645.114 386.404 735.058 477.6 747.802 492.069L760.568 471.199Z" fill="#5A789F"/>
<path d="M760.567 471.198C760.567 471.198 695.753 302.149 631.566 264.229C632.986 267.849 633.857 271.757 632.488 274.238C629.35 279.925 615.201 282.531 611.157 291.965C607.697 300.042 613.194 331.219 600.78 335.247C604.86 340.469 609.352 345.837 614.19 351.324C645.113 386.404 735.057 477.6 747.801 492.069L760.567 471.198Z" fill="#5A789F"/>
<path d="M592.867 270.493C600.154 276.235 607.13 282.356 613.981 288.588C653.926 325.328 689.316 367.042 717.764 412.945C723.234 421.827 728.57 431.148 733.404 440.38C735.438 444.227 737.708 448.792 739.617 452.704C740.852 455.296 742.6 459.012 743.772 461.633L744.58 463.425L745.364 465.232L746.149 467.036L746.927 468.843C737.589 450.03 727.198 431.766 715.801 414.13C704.42 396.482 692.117 379.424 679.083 362.912C659.518 338.151 638.36 314.578 615.898 292.28C608.406 284.863 600.753 277.507 592.867 270.493Z" fill="#5AA5D1"/>
<path d="M603.829 400.239C603.829 400.239 583.631 392.175 569.956 407.98C558.426 421.311 576.936 457.5 596.051 475.016C596.051 475.016 577.299 486.511 576.664 499.754C576.029 512.994 598.097 526.97 629.333 530.922L632.488 418.626L603.829 400.239Z" fill="#5A789F"/>
<path d="M601.53 399.5C603.418 410.267 604.793 426.984 607.707 445.169C612.285 473.745 622.768 515.226 587.067 516.166C596.388 523.04 611.336 528.644 629.333 530.921L632.488 418.624L603.829 400.238C603.829 400.238 602.985 399.899 601.53 399.5Z" fill="#5A789F"/>
<path d="M579.566 410.169C594.577 425.178 609.052 440.783 623.305 456.481C627.445 461.019 631.844 465.751 635.868 470.375C643.607 479.339 651.085 488.6 658.073 498.139C658.436 498.647 658.803 499.149 659.164 499.66L658.938 499.844C648.457 489.219 638.328 477.981 628.683 466.627C625.638 462.984 622.109 458.816 619.013 455.214C609.242 443.912 599.367 432.604 589.403 421.468C586.074 417.749 582.734 414.039 579.354 410.367L579.566 410.169Z" fill="#5AA5D1"/>
<path d="M589.249 499.61C596.902 500.112 604.624 499.762 612.214 498.737C615.993 498.218 619.742 497.538 623.414 496.528C626.45 495.687 629.424 494.657 632.394 493.626C635.657 492.488 638.869 491.204 641.995 489.735C644.023 488.781 645.971 487.756 647.957 486.697L648.139 486.922C647.158 487.969 646.048 488.976 644.924 489.875C639.955 493.816 634.043 496.636 627.849 498.162C617.75 500.594 607.272 501.417 596.908 500.728C594.328 500.553 591.76 500.305 589.21 499.893L589.249 499.61Z" fill="#5AA5D1"/>
<mask id="mask0_1949_925" style="mask-type:luminance" maskUnits="userSpaceOnUse" x="620" y="285" width="148" height="248">
<path d="M620.232 285.194H767.594V532.649H620.232V285.194Z" fill="white"/>
</mask>
<g mask="url(#mask0_1949_925)">
<path d="M755.828 532.617H632.088C625.846 532.617 620.784 527.667 620.784 521.557V296.657C620.784 290.548 625.846 285.595 632.088 285.595H755.828C762.073 285.595 767.134 290.548 767.134 296.657V521.557C767.134 527.667 762.073 532.617 755.828 532.617Z" fill="#303C72"/>
</g>
<path d="M751.547 526.146H636.365C631.181 526.146 626.979 522.034 626.979 516.963V301.249C626.979 296.179 631.181 292.069 636.365 292.069H751.547C756.731 292.069 760.93 296.179 760.93 301.249V516.963C760.93 522.034 756.731 526.146 751.547 526.146Z" fill="#D4EBFF"/>
<path d="M751.547 292.069H636.365C631.181 292.069 626.979 296.179 626.979 301.249V312.534H760.93V301.249C760.93 296.179 756.731 292.069 751.547 292.069Z" fill="#8CCBFF"/>
<path d="M721.337 401.894C721.337 401.894 734.684 392.816 745.123 409.825C755.565 426.836 767.087 460.596 770.346 471.09C773.606 481.581 761.062 487.153 753.304 479.146C745.544 471.14 726.265 434.808 721.853 425.87C717.442 416.932 714.752 406.947 721.337 401.894Z" fill="#9E5959"/>
<path d="M756.572 465.265L767.312 461.839C766.295 458.864 763.814 451.92 763.814 451.92C763.814 451.92 757.855 459.358 756.572 465.265Z" fill="#914D4D"/>
<path d="M744.062 466.022C744.012 462.542 743.979 457.008 744.134 451.386C744.388 442.13 742.896 421.237 742.896 421.237L730.34 442.049C734.539 449.793 739.55 458.704 744.062 466.022Z" fill="#914D4D"/>
<path d="M723.104 399.474C723.104 399.474 711.741 404.354 717.44 418.92C723.14 433.488 741.444 463.78 746.923 472.987C752.402 482.193 760.246 486.568 766.217 483.469C772.188 480.366 772.528 474.969 770.148 466.694C767.765 458.421 752.163 420.54 748.235 412.796C744.304 405.055 734.301 393.545 723.104 399.474Z" fill="white"/>
<path d="M762.755 446.922C759.275 451.391 754.902 462.31 754.902 462.31L766.817 457.295C765.636 454.196 764.243 450.643 762.755 446.922Z" fill="#D4EBFF"/>
<path d="M746.869 472.891C746.983 466.279 747.171 451.486 746.807 443.159C746.332 432.204 744.164 418.92 744.164 418.92L735.562 453.719C740.293 461.916 744.62 469.114 746.869 472.891Z" fill="#D4EBFF"/>
<path d="M796.007 423.514C796.007 423.514 805.13 426.844 810.027 437.679L805.637 441.211L793.37 429.057L796.007 423.514Z" fill="#ABD3FC"/>
<path d="M758.872 482.41C763.018 483.814 767.623 482.565 770.569 479.383C778.56 470.752 804.878 442.03 810.306 432.42C816.727 421.057 808.293 419.414 800.446 426.463C792.601 433.512 779.768 444.187 773.788 449.105C764.053 457.115 754.556 463.078 751.508 469.143C749.373 473.387 752.665 480.308 758.872 482.41Z" fill="#9E5959"/>
<path d="M802.747 442.896C798.664 447.66 790.751 438.652 793.468 434.224C793.513 434.154 801.622 424.305 802.714 420.601C803.862 416.699 803.301 414.807 807.405 411.345C810.898 408.403 813.23 406.404 814.987 406.678C816.848 406.97 815.241 409.401 813.35 411.036C811.304 412.808 808.214 418.033 811.134 417.89C813.46 417.773 820.925 416.255 823.18 415.268C826.855 413.66 836.05 404.938 838.215 409.539C838.215 409.539 840.598 409.15 840.437 411.847C840.437 411.847 843.318 412.749 840.699 416.08C840.699 416.08 842.379 417.568 840.702 419.483C839.566 420.782 834.594 425.213 831.296 427.709C828 430.204 814.659 431.833 809.938 434.624C808.434 435.514 803.68 441.807 802.747 442.896Z" fill="#F6AF9A"/>
<path d="M809.948 417.025C810.163 419.798 811.114 422.045 810.175 424.83C812.498 422.632 810.455 419.366 809.948 417.025Z" fill="#E57E73"/>
<path d="M840.698 416.079C839.321 415.86 838.256 416.961 837.26 417.702C834.158 419.99 831.238 422.62 827.987 424.643C831.85 423.735 834.438 420.262 837.477 417.953C838.354 417.08 839.55 416.105 840.698 416.079Z" fill="#E57E73"/>
<path d="M840.438 411.847C837.528 412.104 835.419 414.357 833.158 415.928C830.868 417.469 828.831 419.746 826.528 420.998C827.966 420.831 829.192 419.903 830.274 419.019C833.576 416.634 836.514 412.883 840.438 411.847Z" fill="#E57E73"/>
<path d="M838.216 409.539C832.931 410.301 829.465 415.07 825.09 417.56C830.13 416.29 833.131 410.514 838.216 409.539Z" fill="#E57E73"/>
<path d="M825.962 425.602C820.402 423.857 812.928 422.689 808.082 426.598C813.409 423.539 820.143 424.771 825.962 425.602Z" fill="#EA9A88"/>
<path d="M824.734 417.414C825.742 418.27 826.064 419.592 826.381 420.809C827.389 421.737 827.588 423.249 827.842 424.528C828.355 424.895 828.367 425.622 828.373 426.188C828.233 425.61 828.015 424.989 827.496 424.7C827.075 423.567 826.807 422.073 825.903 421.238C825.346 420.158 825.372 418.629 824.445 417.692C824.156 417.099 823.98 416.399 823.473 415.914C824.054 416.247 824.439 416.828 824.734 417.414Z" fill="#EA9A88"/>
<path d="M796.007 423.514C796.007 423.514 799.532 434.766 810.028 437.679C810.028 437.679 780.271 473.804 772.528 480.094C764.788 486.387 753.157 483.55 749.029 474.268C745.053 465.327 796.007 423.514 796.007 423.514Z" fill="white"/>
<path d="M709.47 503.452C696.478 507.626 691.211 517.144 689.636 526.146H739.349C738.308 520.317 737.136 515.921 735.826 513.653C727.609 499.406 709.47 503.452 709.47 503.452Z" fill="#F6AF9A"/>
<path d="M709.905 497.176C694.792 500.136 687.088 510.185 686.578 526.146H743.106C743.02 525.542 742.933 524.955 742.847 524.386C738.644 496.931 709.905 497.176 709.905 497.176Z" fill="#384682"/>
<path d="M672.247 462.729C674.072 482.94 668.549 495.156 666.184 507.444C664.937 513.927 664.603 520.328 665.468 526.146H732.545C736.667 516.794 735.942 507.579 736.076 502.593C736.306 494.201 736.998 480.187 736.998 480.187C739.441 443.126 670.425 442.516 672.247 462.729Z" fill="#F6AF9A"/>
<path d="M667.829 496.454C667.829 496.454 661.336 512.161 663.734 526.145H733.725C737.534 513.439 737.25 497.175 737.25 497.175C728.329 498.582 667.829 496.454 667.829 496.454Z" fill="#384682"/>
<path d="M663.015 526.146H712.429C712.197 503.463 693.004 501.939 693.004 501.939C677.924 500.386 666.746 504.858 663.015 526.146Z" fill="#F6AF9A"/>
<path d="M660.465 526.094C660.462 526.111 660.462 526.129 660.459 526.146H717.715C717.399 509.905 706.802 499.412 689.082 497.199C689.082 497.199 663.734 495.314 660.465 526.094Z" fill="#384682"/>
<path d="M686.45 391.943C698.502 389.964 708.121 391.581 719.467 394.833C727.057 397.008 735.191 399.103 738.865 404.13C745.316 412.954 742.376 434.752 740.726 444.843C739.077 454.931 737.827 476.029 736.923 481.449C736.02 486.869 711.444 495.378 696.4 493.163C684.866 491.464 674.311 485.932 672.808 475.597C671.039 463.407 668.027 445.932 664.531 435.313C661.036 424.696 655.545 402.586 672.862 395.186C676.11 393.8 683.277 392.463 686.45 391.943Z" fill="#F6AF9A"/>
<path d="M714.889 380.705C714.889 380.705 714.498 391.718 716.994 396.765C719.488 401.808 710.949 404.946 705.398 404.9C699.848 404.853 691.324 401.811 690.327 395.27C689.334 388.726 693.423 391.201 692.651 373.416C692.048 359.507 716.443 367 714.889 380.705Z" fill="#F6AF9A"/>
<path d="M716.211 394.704C714.586 389.219 714.887 380.705 714.887 380.705C716.119 369.824 700.995 362.859 695.015 367.418C694.771 368.968 694.657 370.714 694.705 372.684C694.729 373.708 704.911 392.944 716.211 394.704Z" fill="#EA9A88"/>
<path d="M741.907 499.444C741.09 493.426 741.907 463.933 742.023 459.703C742.14 455.471 744.373 433.293 744.135 426.664C743.893 420.032 742.008 406.748 740.323 402.758C738.635 398.771 725.915 395.724 719.255 394.705L715.971 393.8C715.971 393.8 717.024 397.527 711.407 398.473C703.14 399.866 694.15 394.933 690.428 391.409C690.428 391.409 688.236 391.135 686.751 391.407C686.751 391.407 672.369 393.66 668.602 395.143C664.835 396.626 659.416 403.114 659.183 414.203C658.948 425.292 664.674 446.014 666.308 456.63C667.946 467.249 666.893 485.425 666.192 491.712C665.491 498 658.715 518.006 658.599 525.893C658.599 525.893 659.458 525.989 660.976 526.147H727.698C737.141 525.201 744.129 524.375 744.71 523.949C744.71 523.949 742.969 518.806 742.846 514.576C742.724 510.347 742.724 505.463 741.907 499.444Z" fill="#85B9F1"/>
<path d="M710.515 400.56C714.178 400.519 719.4 408.114 719.4 408.114C721.04 405.213 722.57 399.042 723.367 395.452C721.867 395.14 720.459 394.889 719.254 394.705L715.97 393.8C715.97 393.8 717.023 397.527 711.407 398.473C703.139 399.866 694.15 394.933 690.428 391.409C690.428 391.409 688.236 391.135 686.75 391.407C686.75 391.407 685.873 391.544 684.498 391.774L682.604 394.632L705.63 412.808C705.63 412.808 705.561 411.605 706.372 407.56C707.679 401.03 710.515 400.56 710.515 400.56Z" fill="#75AEEB"/>
<path d="M679.933 453.468C681.779 439.661 682.498 415.14 682.498 415.14C682.498 415.14 669.905 419.991 659.681 421.882C661.083 433.202 665.002 448.144 666.308 456.629C667.946 467.245 666.893 485.424 666.192 491.712C665.491 497.999 658.715 518.005 658.599 525.892C658.599 525.892 659.458 525.989 660.976 526.146H682.721C670.219 519.503 670.931 500.036 672.581 489.283C674.519 476.621 678.537 463.915 679.933 453.468Z" fill="#75AEEB"/>
<path d="M711.034 402.653C712.749 402.592 713.122 399.72 713.191 398.009C712.687 398.199 712.096 398.357 711.404 398.473C709.984 398.713 708.541 398.765 707.109 398.672C707.727 400.017 709.2 402.717 711.034 402.653Z" fill="#384682"/>
<path d="M709.604 401.009C709.604 401.009 718.606 441.307 719.399 450.181L724.991 460.593L727.345 446.92C727.345 446.92 717.994 414.304 711.821 400.603L709.604 401.009Z" fill="#384682"/>
<path d="M710.116 398.639C710.116 398.639 714.754 396.403 715.968 393.8C715.968 393.8 717.969 393.738 718.798 394.141C718.798 394.141 720.149 401.03 718.798 405.425C718.798 405.425 714.211 399.348 710.6 399.655C706.979 399.964 704.626 408.283 704.626 408.283C704.626 408.283 691.765 398.438 690.173 391.435L690.537 391.027C690.537 391.027 701.521 397.317 710.116 398.639Z" fill="#96C3F2"/>
<path d="M734.127 341.546C734.127 341.546 735.913 349.87 733.414 359.637L727.894 341.216L734.127 341.546Z" fill="#8C4949"/>
<path d="M711.409 325.549C711.409 325.549 729.313 326.579 732.206 342.16C735.099 357.741 733.289 385.926 722.889 389.012C713.398 391.828 698.754 382.214 692.589 372.564C686.102 362.409 683.8 349.463 687.617 339.673C690.961 331.103 697.331 324.807 711.409 325.549Z" fill="#F6AF9A"/>
<path d="M703.269 343.769C703.269 343.769 701.441 346.422 701.945 350.43C702.273 353.04 701.25 353.979 698.473 357.783C695.693 361.586 696.337 361.808 695.52 366C694.703 370.188 692.708 380.46 692.654 381.28C692.597 382.103 690.023 379.219 688.097 373.504C686.173 367.789 682.084 356.7 681.732 346.525C681.383 336.352 690.963 326.063 700.778 325.033C700.778 325.033 710.126 320.917 719.124 324.577C728.119 328.235 734.747 333.801 734.365 342.963L732.402 343.028C732.402 343.028 730.908 341.953 730.431 341.673C728.254 340.395 726.482 341.028 724.504 342.289C724.504 342.289 716.81 346.075 712.72 345.62C712.72 345.62 708.053 347.032 703.269 343.769Z" fill="#8C4949"/>
<path d="M695.262 334.49C695.262 334.49 694.102 342.009 702.244 346.157C702.665 344.651 703.267 343.769 703.267 343.769C703.267 343.769 696.208 339.484 695.262 334.49Z" fill="#7D4141"/>
<path d="M699.99 328.387C699.918 332.044 700.813 335.941 703.578 338.535C706.87 341.571 713.005 342.184 717.383 342.073C716.849 342.274 716.295 342.426 715.734 342.546C711.553 343.398 706.548 342.993 703.097 340.316C699.602 337.526 698.549 332.464 699.99 328.387Z" fill="#7D4141"/>
<path d="M704.525 326.443C706.938 325.655 709.497 325.38 712.038 325.392C717.177 325.439 722.477 327.032 726.247 330.552C728.131 332.298 729.566 334.467 730.389 336.802C729.649 335.798 728.892 334.837 728.057 333.956C725.611 331.332 722.477 329.373 719.053 328.217C714.403 326.635 709.429 326.285 704.525 326.443Z" fill="#7D4141"/>
<path d="M702.541 328.387C707.352 328.731 712.067 329.972 716.547 331.705C719.988 333.054 723.32 334.945 725.81 337.674C726.189 338.095 726.544 338.541 726.833 339.023C726.618 338.839 726.398 338.667 726.174 338.503C726.004 338.378 725.667 338.139 725.494 338.019C722.998 336.32 720.266 334.975 717.462 333.842C712.538 331.878 707.516 330.281 702.541 328.387Z" fill="#7D4141"/>
<path d="M705.661 332.733C708.811 335.637 712.891 337.14 716.911 338.53C718.274 338.997 719.664 339.414 721.068 339.948C720.32 340.03 719.574 340.039 718.823 340.015C715.071 339.837 711.277 338.664 708.351 336.291C707.212 335.322 706.129 334.16 705.661 332.733Z" fill="#7D4141"/>
<path d="M699.219 362.727C699.219 362.727 699.18 354.52 694.179 354.464C689.174 354.409 689.201 361.28 692.428 365.737C694.233 368.232 699.24 371.376 699.219 362.727Z" fill="#F6AF9A"/>
<path d="M693.713 359.999C694.697 360.054 695.473 360.583 696.016 361.12C695.876 360.177 695.479 359.266 694.569 358.7C694.334 358.554 694.265 358.25 694.414 358.02C694.563 357.789 694.87 357.722 695.109 357.868C698.357 359.885 696.663 364.815 696.588 365.022C696.499 365.279 696.213 365.416 695.95 365.326C695.944 365.326 695.941 365.323 695.935 365.323C695.682 365.229 695.547 364.955 695.637 364.701C695.643 364.681 695.932 363.84 696.04 362.766C696.034 362.757 696.022 362.748 696.016 362.737C696.007 362.722 695.085 361.061 693.657 360.982C693.379 360.968 693.167 360.734 693.182 360.463C693.197 360.191 693.436 359.984 693.713 359.999Z" fill="#E57E73"/>
<path d="M656.119 526.146H746.234C744.942 512.862 743.337 493.162 742.956 484.171C742.443 472.055 744.662 439.544 744.709 429.407C744.757 419.269 741.763 405.092 741.763 405.092C741.366 403.927 740.531 400.509 733.069 397.789C725.606 395.071 718.994 394.631 718.994 394.631C725.433 410.886 723.611 452.609 723.611 452.609C723.611 452.609 717.783 437.107 709.605 420.107C702.429 405.191 686.159 391.405 686.159 391.405C678.479 391.65 665.1 394.759 665.1 394.759C651.759 409.076 660.638 438.613 662.866 454.343C665.091 470.073 663.08 486.62 657.181 519.342C656.811 521.391 656.456 523.673 656.119 526.146Z" fill="white"/>
<path d="M723.724 449.096L723.611 453.492C729.027 417.003 726.024 397.723 725.526 395.636C721.664 394.81 718.994 394.632 718.994 394.632C724.3 408.024 723.996 438.708 723.724 449.096Z" fill="#ABD3FC"/>
<path d="M723.374 451.982C722.202 448.925 716.822 435.099 709.607 420.107C702.431 405.191 686.161 391.405 686.161 391.405C683.886 391.478 681.109 391.802 678.329 392.223C678.329 392.223 717.388 434.249 723.613 453.491L723.374 451.982Z" fill="#ABD3FC"/>
<path d="M721.724 526.147H722.917C724.101 501.581 724.936 477.015 723.612 452.61C724.321 477.083 722.958 501.707 721.724 526.147Z" fill="#ABD3FC"/>
<path d="M662.866 454.344C665.091 470.074 663.08 486.621 657.181 519.342C656.811 521.391 656.456 523.674 656.119 526.146H666.328L668.201 507.241C668.691 501.931 670.561 481.753 671.178 475.9C671.894 469.143 673.322 468.209 676.895 449.437C680.469 430.666 681.322 414.404 681.322 414.404L659.26 434.005C660.453 441.609 662.078 448.795 662.866 454.344Z" fill="#D4EBFF"/>
<path d="M717.386 393.84C717.386 393.84 722.152 412.279 723.61 452.61C723.61 452.61 725.961 428.476 725.367 412.977C724.771 397.48 724.329 395.393 724.329 395.393C724.329 395.393 719.348 393.44 717.386 393.84Z" fill="white"/>
<path d="M723.612 452.61C709.606 420.108 679.604 392.037 679.604 392.037C682.614 390.557 690.538 391.027 690.538 391.027C690.538 391.027 702.218 404.004 710.363 419.504C721.333 440.38 723.612 452.61 723.612 452.61Z" fill="white"/>
<path d="M666.006 395.397C666.006 395.397 682.21 396.67 679.242 416.3C676.275 435.926 663.274 469.17 658.988 479.304C654.702 489.436 641.94 486.129 641.14 475.122C640.338 464.117 648.46 423.892 650.852 414.245C653.241 404.601 657.64 395.213 666.006 395.397Z" fill="#F6AF9A"/>
<path d="M668.601 395.142C668.601 395.142 656.709 390.372 650.1 413.093C643.488 435.814 639.202 466.054 639.023 476.191C638.844 486.329 649.005 491.335 655.457 487.552C661.911 483.772 668.878 460.234 673.066 448.243C679.603 429.524 689.783 399.736 668.601 395.142Z" fill="white"/>
<path d="M641.008 474.143C641.008 474.143 640.897 506.389 642.365 526.147H656.368C657.403 517.197 658.703 507.396 659.443 502.016C661.14 489.684 662.682 479.861 662.864 472.01C663.102 461.75 641.727 459.595 641.008 474.143Z" fill="#F6AF9A"/>
<path d="M652.561 457.838C652.561 457.838 640.27 458.889 639.021 473.918C638.081 485.235 637.947 509.232 638.397 526.147H661.494C663.448 505.752 666.898 469.377 666.97 466.023C667.071 461.335 658.598 456.79 652.561 457.838Z" fill="white"/>
<path d="M760.2 484.266V516.964C760.2 521.631 756.316 525.429 751.547 525.429H636.365C631.593 525.429 627.712 521.631 627.712 516.964V301.25C627.712 296.583 631.593 292.785 636.365 292.785H751.547C756.316 292.785 760.2 296.583 760.2 301.25V440.596C760.62 441.63 761.038 442.657 761.449 443.682C761.584 443.55 761.664 443.372 761.664 443.174V301.25C761.664 295.792 757.125 291.352 751.547 291.352H636.365C630.784 291.352 626.248 295.792 626.248 301.25V516.964C626.248 522.423 630.784 526.862 636.365 526.862H751.547C757.125 526.862 761.664 522.423 761.664 516.964V484.444C761.181 484.421 760.692 484.363 760.2 484.266Z" fill="white"/>
<path d="M719.925 296.655H667.99C664.805 296.655 662.222 294.127 662.222 291.013V289.833H725.69V291.013C725.69 294.127 723.11 296.655 719.925 296.655Z" fill="#303C72"/>
<path d="M1040.4 341.701C1042.09 340.54 1043.94 339.649 1045.91 339.051C1054.02 336.576 1075.02 332.489 1090.93 349.734C1107.92 368.138 1083.33 420.32 1057.02 446.024C1057.02 446.024 1084.16 461.506 1085.68 480.268C1087.19 499.031 1056.53 519.849 1012.39 526.846L1002.68 367.622L1040.4 341.701Z" fill="#5A789F"/>
<path d="M1045.73 339.105C1043.56 354.471 1042.38 378.254 1039.09 404.189C1033.92 444.948 1020.97 504.284 1071.68 504.03C1058.77 514.197 1037.82 522.816 1012.39 526.847L1002.68 367.623L1040.4 341.7C1042.02 340.588 1043.79 339.71 1045.67 339.126L1045.73 339.105Z" fill="#5A789F"/>
<path d="M1077.66 353.502C1057.94 376.205 1038.75 399.446 1019.79 422.768C1014.4 429.423 1008.59 436.822 1003.18 443.466C992.056 457.056 980.541 470.88 968.876 484.024L968.644 483.849C969.151 483.122 969.664 482.401 970.174 481.68C972.739 478.087 975.366 474.485 977.988 470.95C985.355 461.055 993.014 451.189 1000.8 441.604C1008.57 432.102 1016.83 422.534 1024.75 413.144C1035 401.042 1045.53 388.853 1056.05 376.976C1060.67 371.748 1065.56 366.295 1070.24 361.138C1072.63 358.519 1075.02 355.901 1077.44 353.309L1077.66 353.502Z" fill="#5AA5D1"/>
<path d="M1067.87 480.97C1050.69 483.839 1032.94 483.603 1015.84 480.284C1014.05 479.931 1012.18 479.516 1010.43 479.061C1002.84 477.05 995.53 473.833 989.079 469.431C988.199 468.833 987.14 468.059 986.308 467.4C985.419 466.702 984.525 465.952 983.689 465.196L983.862 464.965C985.467 465.838 987.048 466.717 988.661 467.528C990.209 468.316 991.945 469.151 993.538 469.86C998.027 471.886 1002.68 473.579 1007.39 475.05C1012.1 476.53 1016.87 477.887 1021.73 478.871C1035.08 481.46 1048.81 482.079 1062.39 481.186C1064.2 481.063 1066.02 480.911 1067.83 480.687L1067.87 480.97Z" fill="#5AA5D1"/>
<mask id="mask1_1949_925" style="mask-type:luminance" maskUnits="userSpaceOnUse" x="881" y="285" width="148" height="248">
<path d="M881.362 285.195H1028.72V532.649H881.362V285.195Z" fill="white"/>
</mask>
<g mask="url(#mask1_1949_925)">
<path d="M1016.88 532.616H893.141C886.898 532.616 881.834 527.666 881.834 521.556V296.656C881.834 290.547 886.898 285.594 893.141 285.594H1016.88C1023.13 285.594 1028.19 290.547 1028.19 296.656V521.556C1028.19 527.666 1023.13 532.616 1016.88 532.616Z" fill="#303C72"/>
</g>
<path d="M1012.6 526.146H897.418C892.235 526.146 888.032 522.034 888.032 516.963V301.249C888.032 296.179 892.235 292.069 897.418 292.069H1012.6C1017.78 292.069 1021.98 296.179 1021.98 301.249V516.963C1021.98 522.034 1017.78 526.146 1012.6 526.146Z" fill="#D4EBFF"/>
<path d="M914.147 412.641C915.033 407.927 918.826 404.027 923.933 403.157C930.491 402.039 936.734 406.333 937.876 412.749C938.112 414.083 938.112 415.402 937.9 416.666C937.852 416.963 937.789 417.258 937.718 417.55C936.543 423.187 929.921 454.492 923.7 473.693C923.047 477.009 920.368 479.741 916.769 480.354C912.116 481.148 907.687 478.1 906.875 473.547C906.556 471.766 911.737 422.606 914.147 412.641Z" fill="#DE9681"/>
<path d="M925.443 414.396C925.443 414.396 930.543 409.799 937.898 412.878C938.113 414.169 938.104 415.444 937.901 416.667C937.853 416.965 937.791 417.26 937.719 417.552C936.705 422.415 931.638 446.391 926.269 465.209C925.783 462.897 924.292 460.588 923.552 460.013C922.392 459.111 919.37 456.432 917.888 451.723C916.826 448.358 918.848 435.757 921.166 429.131C923.483 422.502 925.443 414.396 925.443 414.396Z" fill="#EA9A88"/>
<path d="M929.221 402.652C929.221 402.652 924.651 401.727 918.445 404.409C916.587 405.212 914.809 408.356 913.601 410.793C908.987 420.119 905.474 448.45 905.474 448.45C905.474 448.45 917.499 459.422 930.1 462.943C930.1 462.943 939.484 422.924 939.296 414.541C939.108 406.161 932.859 403.513 929.221 402.652Z" fill="#FCF5F1"/>
<path d="M935.965 436.077L920.769 412.472C920.769 412.472 923.984 422.099 922.347 428.55C920.71 435.003 916.814 443.83 916.206 449.096C915.944 451.376 916.066 454.125 916.29 456.51C920.352 459.058 925.183 461.568 930.102 462.943C930.102 462.943 933.335 449.16 935.965 436.077Z" fill="#F0E2DA"/>
<path d="M918.957 462.743C914.334 461.044 909.174 463.333 907.438 467.857C907.095 468.747 906.913 469.655 906.875 470.554C906.872 470.554 903.546 514.347 902.651 526.145H913.147C914.233 521.072 916.276 511.874 918.465 503.891C922.202 490.263 923.484 478.012 924.075 472.37C924.242 471.625 924.308 470.878 924.275 470.143C924.123 466.739 922.42 464.016 918.957 462.743Z" fill="#DE9681"/>
<path d="M940.619 508.936C930.756 509.981 923.09 517.144 921.131 526.146H964.923C962.573 515.282 952.143 507.716 940.619 508.936Z" fill="#F6AF9A"/>
<path d="M919.839 526.146H965.853C962.501 506.499 947.359 506.482 945.453 506.508C945.453 506.508 924.414 505.197 919.839 526.146Z" fill="#8C4949"/>
<path d="M960.499 474.023C937.283 473.959 932.469 484.551 932.469 484.551C932.081 487.476 932.019 490.728 930.641 493.495C924.27 506.274 921.783 520.851 921.043 526.146H999.117C998.652 518.279 995.717 510.833 991.798 501.335C989.334 495.36 983.408 487.508 983.321 481.346C983.321 481.346 980.947 474.078 960.499 474.023Z" fill="#F6AF9A"/>
<path d="M932.2 486.905C932.2 486.905 930.697 489.1 926.823 499.357C924.001 506.821 921.254 519.69 919.969 526.147H1000.12C999.11 517.285 996.414 507.565 993.357 502.078C989.703 495.516 984.487 484.728 984.487 484.728C974.167 487.299 932.2 486.905 932.2 486.905Z" fill="#8C4949"/>
<path d="M993.358 502.078C989.704 495.516 984.488 484.728 984.488 484.728C977.515 486.464 956.097 486.85 942.935 486.914C936.961 490.837 935.24 495.326 935.24 495.326C935.24 495.326 951.277 500.662 971.538 500.998C982.117 500.998 986.283 500.998 987.67 501.739C988.643 502.259 990.173 517.244 991.002 526.147H1000.12C999.111 517.285 996.415 507.565 993.358 502.078Z" fill="#824444"/>
<path d="M954.876 526.146H998.537C996.435 517.103 988.57 510.024 978.623 509.187C967.346 508.238 957.307 515.643 954.876 526.146Z" fill="#F6AF9A"/>
<path d="M952.932 526.147H999.775C997.768 515.7 992.233 506.041 976.497 506.523C976.497 506.523 956.881 506.511 952.932 526.147Z" fill="#8C4949"/>
<path d="M989.182 509.133C989.862 514.317 990.542 521.179 991.004 526.147H999.778C998.445 519.218 995.561 512.639 989.182 509.133Z" fill="#824444"/>
<path d="M930.888 466.723C930.888 466.723 924.884 463.259 923.819 457.672C922.755 452.085 925.809 433.509 926.584 424.819C927.363 416.13 920.249 408.634 919.295 404.32C919.295 404.32 929.343 399.696 951.375 397.58C951.375 397.58 963.794 397.93 975.728 400.055C985.466 401.786 990.536 407.002 992.439 409.988C994.342 412.974 993.104 420.254 990.452 429.145C987.801 438.036 984.887 445.739 984.595 455.156C984.451 459.703 984.243 475.936 984.532 486.563C984.532 486.563 985.692 493.242 962.106 494.669C940.334 495.989 932.251 486.666 932.251 486.666C931.431 477.923 930.888 466.723 930.888 466.723Z" fill="#DE9681"/>
<path d="M988.035 437.027C986.266 442.891 984.796 448.609 984.593 455.156C984.495 458.326 984.363 467.17 984.39 475.84C979.215 462.173 972.293 421.373 972.293 421.373L988.035 437.027Z" fill="#E57E73"/>
<path d="M940.4 400.787L941.694 378.264C941.846 373.801 944.966 369.782 949.61 368.606C955.262 367.173 961.03 370.494 962.494 376.026C962.694 376.776 962.802 377.532 962.828 378.276L964.851 402.456C964.868 402.626 964.913 403.393 964.913 403.393C965.262 409.082 961.45 414.001 955.596 415.484C948.948 417.168 942.383 413.572 940.662 407.065C940.125 405.04 940.257 402.944 940.4 400.787Z" fill="#DE9681"/>
<path d="M941.694 378.264C941.847 373.801 944.966 369.782 949.61 368.606C955.262 367.173 961.03 370.494 962.495 376.026C962.695 376.776 962.802 377.532 962.829 378.276L962.933 379.534C958.215 389.92 949.625 397.649 940.475 399.52L941.694 378.264Z" fill="#D38475"/>
<path d="M932.757 400.375C932.757 400.375 934.29 407.156 945.236 408.905C956.182 410.653 978.387 400.448 978.387 400.448C978.387 400.448 983.15 400.384 986.431 402.384C986.431 402.384 992.644 406.184 993.688 410.849C994.731 415.516 993.339 423.776 992.495 426.792C991.65 429.804 986.431 456.483 986.431 463.167C986.431 467.835 989.193 481.113 990.86 488.702C991.528 491.749 989.44 494.712 986.294 495.182C975.858 496.738 952.916 499.231 930.514 495.468C926.846 494.852 924.257 491.609 924.499 487.978C925.059 479.589 925.987 465.625 925.966 465.041C925.966 465.041 921.337 462.271 920.341 454.396C919.345 446.524 925.453 426.984 924.797 423.631C924.141 420.277 918.331 407.6 918.447 404.409C918.447 404.409 924.752 401.455 932.757 400.375Z" fill="#FCF5F1"/>
<path d="M960.064 497.401C971.129 497.164 980.59 496.032 986.298 495.182C989.442 494.712 991.527 491.747 990.859 488.702C989.191 481.113 986.43 467.835 986.43 463.168C986.43 456.483 991.649 429.804 992.493 426.792C992.687 426.103 992.908 425.143 993.119 424.016C983.766 418.829 975.027 417.662 970.789 423.193C970.789 423.193 972.954 448.234 972.922 453.048C972.889 457.858 962.19 465.258 946.097 463.632C946.097 463.632 961 468.979 974.61 462.172L976.238 466.79H982.352C982.352 466.79 983.155 476.56 984.348 483.267C985.532 489.94 973.056 494.654 960.064 497.401Z" fill="#F0E2DA"/>
<path d="M970.877 417.673C970.737 416.52 970.758 415.332 970.96 414.129C972.115 407.279 978.727 402.641 985.73 403.767C991.54 404.704 995.796 409.322 996.416 414.78L1010.85 474.461C1011.16 475.628 1011.23 476.875 1011.02 478.141C1010.2 483.004 1005.5 486.297 1000.54 485.497C996.348 484.82 993.3 481.454 992.933 477.502C992.933 477.502 974.701 435.429 971.208 419.372C971.059 418.817 970.949 418.248 970.877 417.673Z" fill="#DE9681"/>
<path d="M981.362 402.383C981.362 402.383 968.251 404.114 970.19 420.142C972.125 436.17 978.684 465.041 978.684 465.041C978.684 465.041 1002.08 465.187 1009.98 453.958C1009.98 453.958 999.099 416.666 996.12 410.218C993.14 403.767 985.997 400.667 981.362 402.383Z" fill="#FCF5F1"/>
<path d="M999.92 468.691C996.252 469.537 993.627 472.441 993.022 475.862C992.89 476.604 992.854 477.369 992.923 478.142C992.768 483.922 992.971 496.108 994.933 510.364C995.655 515.604 996.255 521.316 996.705 526.147H1008.44C1009.4 508.762 1011.1 478.133 1011.1 478.133C1011.18 477.217 1011.11 476.274 1010.89 475.334C1009.73 470.535 1004.82 467.561 999.92 468.691Z" fill="#DE9681"/>
<path d="M951.925 331.331C951.925 331.331 972.606 332.084 972.153 356.019C971.714 379.012 951.979 397.821 935.071 392.993C929.696 391.122 926.156 379.149 925.968 361.151C925.777 343.153 933.675 330.701 951.925 331.331Z" fill="#DE9681"/>
<path d="M979.375 387.696C976.852 379.529 978.901 363.953 977.878 356.927C977.851 356.743 977.81 356.574 977.762 356.417C977.118 347.032 973.962 339.49 966.655 333.798C958.793 327.671 945.98 330.52 945.98 330.52C940.158 330.094 928.073 335.079 924.723 342.914C921.374 350.748 922.394 362.003 923.706 364.995C925.016 367.987 923.268 370.836 922.54 372.83C921.812 374.823 923.268 376.817 924.577 379.383C925.89 381.945 923.706 384.937 923.706 384.937C925.89 383.799 926.907 380.664 926.036 377.958C925.162 375.249 924.723 374.254 925.293 372.199C925.86 370.141 926.325 368.839 926.617 365.707C926.907 362.573 926.179 356.306 927.927 352.032C929.674 347.756 936.516 342.914 936.516 342.914C938.556 349.04 941.467 353.883 945.252 355.164C949.04 356.446 951.369 358.299 952.097 360.15C952.825 362.003 951.659 365.421 952.097 369.552C952.533 373.685 954.28 373.825 955.59 375.678C956.902 377.529 953.26 380.807 952.386 382.231C951.513 383.656 952.097 386.076 953.114 387.929C954.134 389.78 953.406 391.916 953.406 391.916C955.154 391.204 954.862 387.786 954.28 384.937C953.699 382.088 955.882 381.376 957.191 379.24C958.504 377.103 956.756 374.111 956.464 372.544C956.171 370.976 958.533 365.643 959.407 366.069C959.911 366.317 960.511 369.257 960.979 372.745C960.746 374.193 960.711 375.649 960.931 377.085C960.931 377.085 961.307 377.949 961.641 379.33C961.665 379.724 961.689 380.109 961.707 380.477C961.746 381.294 961.916 382.243 962.136 383.165C962.163 384.996 961.877 387.042 960.931 389.027C958.217 394.724 954.814 392.818 955.569 401.304C956.323 409.792 954.128 416.619 951.513 420.96C948.897 425.303 948.849 437.974 954.212 445.125C954.212 445.125 955.101 439.515 959.085 437.822C963.07 436.129 969.294 427.816 968.883 422.539C968.468 417.261 972.086 402.086 981.299 400.536C981.299 400.536 981.899 395.863 979.375 387.696Z" fill="#8C4949"/>
<path d="M936.518 342.914C936.872 337.523 940.541 332.07 945.981 330.521C941.185 333.174 938.113 337.85 936.518 342.914Z" fill="#7A3D3D"/>
<path d="M940.16 341.775C947.044 344.417 945.836 347.709 949.746 352.394C951.067 354.18 953.226 354.621 955.123 355.523C957.539 356.991 959.17 359.782 959.087 362.572C958.815 360.231 957.431 357.984 955.511 356.603C953.238 355.179 950.927 355.342 949.087 352.954C945.129 348.2 946.71 345.258 940.16 341.775Z" fill="#7A3D3D"/>
<path d="M944.526 338.926C948.314 339.559 952.06 341.407 954.118 344.69C957.831 349.384 963.894 353.999 963.164 360.578C963.012 354.104 957.071 350.006 953.456 345.172C951.559 341.929 948.072 340.047 944.526 338.926Z" fill="#7A3D3D"/>
<path d="M944.526 334.511C950.939 333.755 957.966 335.203 962.514 339.958C964.748 342.106 966.678 344.64 967.802 347.521C968.3 348.855 968.655 350.282 968.655 351.709C968.628 352.518 968.649 353.507 968.739 354.313C969.156 358.776 970.233 363.417 968.986 367.845C970.048 362.413 967.832 356.966 967.865 351.537C967.45 346.257 963.68 341.829 959.678 338.542C955.434 335.305 949.791 334.403 944.526 334.511Z" fill="#7A3D3D"/>
<path d="M974.523 359.333C975.734 364.333 976.092 369.727 974.505 374.689C973.828 377.164 972.498 379.464 971.833 381.916C971.272 384.461 972.847 386.905 972.575 389.482C972.528 393.011 971.007 396.68 967.952 398.729C967.26 399.19 966.592 399.736 966.029 400.34C963.142 403.478 961.946 407.795 961.6 411.934C961.504 413.657 961.549 415.405 961.17 417.098C960.171 423.963 953.487 429.133 954.212 436.296C953.096 429.188 959.619 423.771 960.502 416.978C960.839 415.3 960.756 413.584 960.839 411.885C961.152 407.355 962.497 402.576 965.871 399.29C966.336 398.837 966.912 398.396 967.451 398.029C971.03 395.641 972.232 391 971.603 386.966C971.293 385.247 970.61 383.513 971.123 381.759C971.854 379.24 973.205 377.018 973.962 374.52C975.656 369.651 975.451 364.338 974.523 359.333Z" fill="#7A3D3D"/>
<path d="M965.425 378.162C968.091 386.632 964.783 387.843 961.553 394.676C960.903 396.118 960.966 397.56 960.835 399.119C960.104 402.014 958.908 402.741 959.087 406.255C958.538 403.488 959.299 401.973 960.098 399.469C960.298 398.1 960.017 396.652 960.468 395.301C960.524 395.038 960.674 394.641 960.76 394.384C963.987 387.166 967.023 387.365 965.425 378.162Z" fill="#7A3D3D"/>
<path d="M975.385 382.22C975.221 384.76 974.916 387.34 975.364 389.833C975.513 390.708 976.074 391.315 976.381 392.109C977.073 393.776 977.293 395.615 976.974 397.378C976.59 399.053 975.746 400.626 975.76 402.383C975.382 400.658 976.029 398.968 976.294 397.281C976.619 390.337 972.563 392.095 975.385 382.22Z" fill="#7A3D3D"/>
<path d="M969.404 404.223C967.528 406.657 965.673 409.541 965.804 412.682C966.311 417.375 966.52 423.236 963.946 427.393C965.724 422.892 965.363 417.857 964.999 413.134C964.716 409.658 966.923 406.491 969.404 404.223Z" fill="#7A3D3D"/>
<path d="M964.166 361.919C964.166 361.919 967.515 362.179 967.587 367.34C967.653 372.299 964.607 378.011 960.93 377.086C959.758 376.718 958.741 372.381 958.574 368.501C958.407 364.625 960.229 361.908 964.166 361.919Z" fill="#DE9681"/>
<path d="M961.528 373.389C960.046 366.681 963.559 364.778 963.708 364.699C963.89 364.603 964.114 364.673 964.212 364.848C964.308 365.026 964.239 365.245 964.06 365.341C963.959 365.397 962.092 366.439 961.922 369.807C962.957 368.619 964.606 368.409 964.695 368.397C964.898 368.374 965.083 368.517 965.11 368.716C965.134 368.917 964.988 369.098 964.785 369.121C964.689 369.133 962.474 369.425 961.952 371.278C962.002 371.874 962.098 372.522 962.256 373.234C962.295 373.412 962.193 373.59 962.02 373.651C962.005 373.657 961.987 373.663 961.97 373.666C961.77 373.71 961.57 373.584 961.528 373.389Z" fill="#BA6D5B"/>
<path d="M1012.6 292.069H897.418C892.235 292.069 888.032 296.179 888.032 301.249V312.534H1021.98V301.249C1021.98 296.179 1017.78 292.069 1012.6 292.069Z" fill="#8CCBFF"/>
<path d="M1013.09 301.848H1000.21C999.423 301.848 998.782 301.223 998.782 300.45V300.228C998.782 299.457 999.423 298.833 1000.21 298.833H1013.09C1013.89 298.833 1014.52 299.457 1014.52 300.228V300.45C1014.52 301.223 1013.89 301.848 1013.09 301.848Z" fill="white"/>
<path d="M1013.1 308.378H1004.94C1004.15 308.378 1003.51 307.75 1003.51 306.98V306.758C1003.51 305.984 1004.15 305.36 1004.94 305.36H1013.1C1013.89 305.36 1014.52 305.987 1014.52 306.758V306.98C1014.52 307.75 1013.89 308.378 1013.1 308.378Z" fill="white"/>
<path d="M1012.6 526.862H897.42C891.839 526.862 887.3 522.423 887.3 516.964V301.25C887.3 295.792 891.839 291.352 897.42 291.352H1012.6C1018.18 291.352 1022.72 295.792 1022.72 301.25V516.964C1022.72 522.423 1018.18 526.862 1012.6 526.862ZM897.42 292.785C892.647 292.785 888.767 296.583 888.767 301.25V516.964C888.767 521.631 892.647 525.429 897.42 525.429H1012.6C1017.37 525.429 1021.25 521.631 1021.25 516.964V301.25C1021.25 296.583 1017.37 292.785 1012.6 292.785H897.42Z" fill="white"/>
<path d="M980.978 296.655H929.04C925.857 296.655 923.274 294.127 923.274 291.013V289.833H986.743V291.013C986.743 294.127 984.16 296.655 980.978 296.655Z" fill="#303C72"/>
<path d="M898.577 324.638H782.655C778.93 324.638 775.908 327.595 775.908 331.241V364.143C775.908 367.791 778.93 370.745 782.655 370.745H886.769L905.323 392.529V331.241C905.323 327.595 902.302 324.638 898.577 324.638Z" fill="white"/>
<path d="M852.004 339.609H892.012C893.148 339.609 894.07 338.708 894.07 337.595V335.955C894.07 334.843 893.148 333.941 892.012 333.941H852.004C850.865 333.941 849.943 334.843 849.943 335.955V337.595C849.943 338.708 850.865 339.609 852.004 339.609Z" fill="#D4E7FF"/>
<path d="M787.82 339.609H839.418C840.557 339.609 841.479 338.708 841.479 337.595V335.955C841.479 334.843 840.557 333.941 839.418 333.941H787.82C786.683 333.941 785.762 334.843 785.762 335.955V337.595C785.762 338.708 786.683 339.609 787.82 339.609Z" fill="#D4E7FF"/>
<path d="M867.624 350.69H892.015C893.151 350.69 894.073 349.788 894.073 348.676V347.039C894.073 345.924 893.151 345.022 892.015 345.022H867.624C866.488 345.022 865.563 345.924 865.563 347.039V348.676C865.563 349.788 866.488 350.69 867.624 350.69Z" fill="#D4E7FF"/>
<path d="M844.178 350.69H855.681C856.821 350.69 857.742 349.788 857.742 348.676V347.039C857.742 345.924 856.821 345.022 855.681 345.022H844.178C843.042 345.022 842.12 345.924 842.12 347.039V348.676C842.12 349.788 843.042 350.69 844.178 350.69Z" fill="#D4E7FF"/>
<path d="M787.82 350.691H832.704C833.843 350.691 834.765 349.789 834.765 348.676V347.039C834.765 345.924 833.843 345.022 832.704 345.022H787.82C786.683 345.022 785.762 345.924 785.762 347.039V348.676C785.762 349.789 786.683 350.691 787.82 350.691Z" fill="#D4E7FF"/>
<path d="M878.209 361.773H892.015C893.151 361.773 894.073 360.871 894.073 359.756V358.118C894.073 357.003 893.151 356.102 892.015 356.102H878.209C877.073 356.102 876.151 357.003 876.151 358.118V359.756C876.151 360.871 877.073 361.773 878.209 361.773Z" fill="#D4E7FF"/>
<path d="M787.82 361.773H867.313C868.45 361.773 869.371 360.871 869.371 359.756V358.119C869.371 357.004 868.45 356.102 867.313 356.102H787.82C786.683 356.102 785.762 357.004 785.762 358.119V359.756C785.762 360.871 786.683 361.773 787.82 361.773Z" fill="#D4E7FF"/>
<path d="M866.934 371.703H782.656C778.397 371.703 774.932 368.311 774.932 364.143V331.241C774.932 327.072 778.397 323.684 782.656 323.684H877.218C877.758 323.684 878.193 324.11 878.193 324.638C878.193 325.166 877.758 325.595 877.218 325.595H782.656C779.477 325.595 776.888 328.126 776.888 331.241V364.143C776.888 367.257 779.477 369.791 782.656 369.791H866.934C867.474 369.791 867.912 370.217 867.912 370.745C867.912 371.274 867.474 371.703 866.934 371.703Z" fill="#8CCBFF"/>
<path d="M866.72 268.911H750.8C747.075 268.911 744.054 271.868 744.054 275.514V336.802L762.608 315.018H866.72C870.448 315.018 873.469 312.062 873.469 308.416V275.514C873.469 271.868 870.448 268.911 866.72 268.911Z" fill="white"/>
<path d="M821.352 283.976H757.636C756.497 283.976 755.575 283.074 755.575 281.962V280.321C755.575 279.209 756.497 278.307 757.636 278.307H821.352C822.488 278.307 823.41 279.209 823.41 280.321V281.962C823.41 283.074 822.488 283.976 821.352 283.976Z" fill="#D4E7FF"/>
<path d="M861.829 283.976H833.94C832.803 283.976 831.882 283.074 831.882 281.962V280.321C831.882 279.209 832.803 278.307 833.94 278.307H861.829C862.969 278.307 863.89 279.209 863.89 280.321V281.962C863.89 283.074 862.969 283.976 861.829 283.976Z" fill="#D4E7FF"/>
<path d="M781.236 295.055H757.636C756.5 295.055 755.575 294.153 755.575 293.041V291.4C755.575 290.288 756.5 289.386 757.636 289.386H781.236C782.372 289.386 783.294 290.288 783.294 291.4V293.041C783.294 294.153 782.372 295.055 781.236 295.055Z" fill="#D4E7FF"/>
<path d="M842.784 295.055H793.966C792.83 295.055 791.908 294.153 791.908 293.041V291.4C791.908 290.288 792.83 289.386 793.966 289.386H842.784C843.921 289.386 844.842 290.288 844.842 291.4V293.041C844.842 294.153 843.921 295.055 842.784 295.055Z" fill="#D4E7FF"/>
<path d="M861.829 295.055H854.259C853.12 295.055 852.198 294.153 852.198 293.041V291.4C852.198 290.288 853.12 289.386 854.259 289.386H861.829C862.968 289.386 863.889 290.288 863.889 291.4V293.041C863.889 294.153 862.968 295.055 861.829 295.055Z" fill="#D4E7FF"/>
<path d="M808.509 306.139H757.636C756.5 306.139 755.575 305.234 755.575 304.122V302.484C755.575 301.369 756.5 300.467 757.636 300.467H808.509C809.646 300.467 810.567 301.369 810.567 302.484V304.122C810.567 305.234 809.646 306.139 808.509 306.139Z" fill="#D4E7FF"/>
<path d="M861.83 306.139H819.41C818.27 306.139 817.349 305.234 817.349 304.122V302.484C817.349 301.369 818.27 300.467 819.41 300.467H861.83C862.97 300.467 863.891 301.369 863.891 302.484V304.122C863.891 305.234 862.97 306.139 861.83 306.139Z" fill="#D4E7FF"/>
<path d="M866.718 315.972H775.909C775.369 315.972 774.931 315.546 774.931 315.018C774.931 314.489 775.369 314.06 775.909 314.06H866.718C869.901 314.06 872.489 311.53 872.489 308.415V275.513C872.489 272.399 869.901 269.865 866.718 269.865H750.799C747.62 269.865 745.031 272.399 745.031 275.513V281.141C745.031 281.669 744.592 282.098 744.052 282.098C743.513 282.098 743.074 281.669 743.074 281.141V275.513C743.074 271.345 746.54 267.953 750.799 267.953H866.718C870.98 267.953 874.446 271.345 874.446 275.513V308.415C874.446 312.583 870.98 315.972 866.718 315.972Z" fill="#8CCBFF"/>
</svg>
