<svg width="1701" height="800" viewBox="0 0 1701 800" fill="none" xmlns="http://www.w3.org/2000/svg">
<rect x="0.558594" width="1700" height="800" fill="white"/>
<path d="M663.236 595.758H659.017L666.698 573.94H671.578L679.269 595.758H675.051L669.223 578.414H669.053L663.236 595.758ZM663.375 587.203H674.88V590.378H663.375V587.203ZM688.591 602.235C687.206 602.235 686.017 602.047 685.022 601.67C684.028 601.301 683.229 600.804 682.625 600.179C682.022 599.554 681.603 598.862 681.368 598.102L684.841 597.26C684.997 597.58 685.225 597.896 685.523 598.208C685.821 598.528 686.223 598.79 686.727 598.996C687.238 599.21 687.881 599.316 688.655 599.316C689.749 599.316 690.654 599.05 691.372 598.517C692.089 597.991 692.448 597.125 692.448 595.918V592.817H692.256C692.057 593.215 691.766 593.624 691.382 594.043C691.006 594.462 690.505 594.813 689.88 595.097C689.262 595.381 688.485 595.523 687.547 595.523C686.29 595.523 685.15 595.229 684.127 594.639C683.112 594.043 682.302 593.155 681.698 591.976C681.102 590.79 680.804 589.305 680.804 587.523C680.804 585.726 681.102 584.21 681.698 582.974C682.302 581.731 683.115 580.79 684.138 580.151C685.161 579.504 686.301 579.181 687.558 579.181C688.517 579.181 689.305 579.344 689.923 579.671C690.548 579.991 691.045 580.378 691.414 580.832C691.784 581.28 692.064 581.702 692.256 582.1H692.469V579.394H696.272V596.024C696.272 597.423 695.938 598.581 695.271 599.497C694.603 600.413 693.691 601.099 692.533 601.553C691.375 602.008 690.061 602.235 688.591 602.235ZM688.623 592.498C689.44 592.498 690.136 592.299 690.711 591.901C691.286 591.504 691.723 590.932 692.022 590.186C692.32 589.44 692.469 588.545 692.469 587.501C692.469 586.472 692.32 585.57 692.022 584.795C691.73 584.021 691.297 583.421 690.722 582.995C690.154 582.562 689.454 582.345 688.623 582.345C687.764 582.345 687.046 582.569 686.471 583.016C685.896 583.464 685.463 584.078 685.171 584.859C684.88 585.634 684.735 586.514 684.735 587.501C684.735 588.503 684.88 589.38 685.171 590.133C685.47 590.879 685.907 591.461 686.482 591.88C687.064 592.292 687.778 592.498 688.623 592.498ZM710.654 588.876V579.394H714.511V595.758H710.772V592.849H710.601C710.232 593.766 709.625 594.515 708.779 595.097C707.941 595.68 706.908 595.971 705.679 595.971C704.607 595.971 703.659 595.733 702.835 595.257C702.018 594.774 701.379 594.075 700.917 593.158C700.456 592.235 700.225 591.12 700.225 589.813V579.394H704.081V589.217C704.081 590.254 704.365 591.077 704.934 591.688C705.502 592.299 706.247 592.604 707.171 592.604C707.739 592.604 708.289 592.466 708.822 592.189C709.355 591.912 709.791 591.5 710.132 590.953C710.48 590.399 710.654 589.707 710.654 588.876ZM723.185 596.088C722.149 596.088 721.215 595.903 720.384 595.534C719.56 595.158 718.906 594.604 718.423 593.872C717.948 593.141 717.71 592.239 717.71 591.166C717.71 590.243 717.88 589.479 718.221 588.876C718.562 588.272 719.027 587.789 719.617 587.427C720.206 587.065 720.87 586.791 721.609 586.607C722.354 586.415 723.125 586.276 723.921 586.191C724.879 586.092 725.657 586.003 726.254 585.925C726.85 585.839 727.283 585.712 727.553 585.541C727.83 585.364 727.969 585.09 727.969 584.721V584.657C727.969 583.854 727.731 583.233 727.255 582.793C726.779 582.352 726.094 582.132 725.199 582.132C724.254 582.132 723.505 582.338 722.951 582.75C722.404 583.162 722.035 583.648 721.843 584.21L718.242 583.698C718.526 582.704 718.995 581.873 719.649 581.205C720.302 580.531 721.101 580.026 722.046 579.692C722.99 579.352 724.034 579.181 725.178 579.181C725.966 579.181 726.751 579.273 727.532 579.458C728.313 579.643 729.027 579.948 729.673 580.374C730.32 580.793 730.838 581.365 731.229 582.089C731.627 582.814 731.825 583.719 731.825 584.806V595.758H728.118V593.51H727.99C727.756 593.964 727.426 594.391 726.999 594.788C726.58 595.179 726.051 595.495 725.412 595.737C724.78 595.971 724.038 596.088 723.185 596.088ZM724.187 593.254C724.961 593.254 725.632 593.102 726.2 592.796C726.769 592.484 727.205 592.072 727.511 591.56C727.823 591.049 727.979 590.491 727.979 589.888V587.96C727.859 588.059 727.653 588.151 727.362 588.237C727.078 588.322 726.758 588.396 726.403 588.46C726.048 588.524 725.696 588.581 725.348 588.631C725 588.68 724.698 588.723 724.443 588.759C723.867 588.837 723.352 588.964 722.898 589.142C722.443 589.32 722.085 589.568 721.822 589.888C721.559 590.2 721.428 590.605 721.428 591.102C721.428 591.812 721.687 592.349 722.205 592.711C722.724 593.073 723.384 593.254 724.187 593.254ZM735.703 595.758V579.394H739.443V582.121H739.613C739.911 581.177 740.423 580.449 741.147 579.938C741.879 579.419 742.713 579.16 743.651 579.16C743.864 579.16 744.102 579.17 744.364 579.192C744.634 579.206 744.858 579.231 745.036 579.266V582.814C744.872 582.757 744.613 582.707 744.258 582.665C743.91 582.615 743.573 582.59 743.246 582.59C742.543 582.59 741.911 582.743 741.35 583.048C740.796 583.347 740.359 583.762 740.039 584.295C739.72 584.827 739.56 585.442 739.56 586.138V595.758H735.703ZM752.996 596.045C751.711 596.045 750.56 595.715 749.545 595.055C748.529 594.394 747.726 593.435 747.137 592.178C746.547 590.921 746.253 589.394 746.253 587.597C746.253 585.779 746.551 584.245 747.148 582.995C747.751 581.738 748.565 580.79 749.587 580.151C750.61 579.504 751.75 579.181 753.007 579.181C753.966 579.181 754.754 579.344 755.372 579.671C755.99 579.991 756.48 580.378 756.842 580.832C757.204 581.28 757.485 581.702 757.684 582.1H757.844V573.94H761.711V595.758H757.918V593.18H757.684C757.485 593.577 757.197 594 756.821 594.447C756.445 594.888 755.947 595.264 755.329 595.577C754.712 595.889 753.934 596.045 752.996 596.045ZM754.072 592.881C754.889 592.881 755.585 592.661 756.16 592.221C756.736 591.773 757.172 591.152 757.471 590.357C757.769 589.561 757.918 588.634 757.918 587.576C757.918 586.518 757.769 585.598 757.471 584.817C757.18 584.036 756.746 583.428 756.171 582.995C755.603 582.562 754.903 582.345 754.072 582.345C753.213 582.345 752.496 582.569 751.92 583.016C751.345 583.464 750.912 584.082 750.621 584.87C750.329 585.658 750.184 586.56 750.184 587.576C750.184 588.599 750.329 589.511 750.621 590.314C750.919 591.109 751.356 591.738 751.931 592.2C752.513 592.654 753.227 592.881 754.072 592.881ZM770.529 596.088C769.492 596.088 768.558 595.903 767.727 595.534C766.903 595.158 766.25 594.604 765.767 593.872C765.291 593.141 765.053 592.239 765.053 591.166C765.053 590.243 765.224 589.479 765.565 588.876C765.906 588.272 766.371 587.789 766.96 587.427C767.55 587.065 768.214 586.791 768.953 586.607C769.698 586.415 770.469 586.276 771.264 586.191C772.223 586.092 773.001 586.003 773.597 585.925C774.194 585.839 774.627 585.712 774.897 585.541C775.174 585.364 775.313 585.09 775.313 584.721V584.657C775.313 583.854 775.075 583.233 774.599 582.793C774.123 582.352 773.438 582.132 772.543 582.132C771.598 582.132 770.849 582.338 770.295 582.75C769.748 583.162 769.379 583.648 769.187 584.21L765.586 583.698C765.87 582.704 766.339 581.873 766.992 581.205C767.646 580.531 768.445 580.026 769.389 579.692C770.334 579.352 771.378 579.181 772.521 579.181C773.31 579.181 774.095 579.273 774.876 579.458C775.657 579.643 776.371 579.948 777.017 580.374C777.663 580.793 778.182 581.365 778.573 582.089C778.97 582.814 779.169 583.719 779.169 584.806V595.758H775.462V593.51H775.334C775.1 593.964 774.769 594.391 774.343 594.788C773.924 595.179 773.395 595.495 772.756 595.737C772.124 595.971 771.381 596.088 770.529 596.088ZM771.531 593.254C772.305 593.254 772.976 593.102 773.544 592.796C774.112 592.484 774.549 592.072 774.854 591.56C775.167 591.049 775.323 590.491 775.323 589.888V587.96C775.203 588.059 774.997 588.151 774.705 588.237C774.421 588.322 774.102 588.396 773.747 588.46C773.391 588.524 773.04 588.581 772.692 588.631C772.344 588.68 772.042 588.723 771.786 588.759C771.211 588.837 770.696 588.964 770.242 589.142C769.787 589.32 769.428 589.568 769.166 589.888C768.903 590.2 768.771 590.605 768.771 591.102C768.771 591.812 769.031 592.349 769.549 592.711C770.068 593.073 770.728 593.254 771.531 593.254ZM786.903 586.17V595.758H783.047V579.394H786.733V582.175H786.925C787.301 581.259 787.901 580.531 788.725 579.991C789.556 579.451 790.582 579.181 791.804 579.181C792.933 579.181 793.917 579.423 794.755 579.906C795.6 580.388 796.254 581.088 796.715 582.004C797.184 582.92 797.415 584.032 797.408 585.339V595.758H793.551V585.935C793.551 584.842 793.267 583.986 792.699 583.368C792.138 582.75 791.36 582.441 790.366 582.441C789.691 582.441 789.091 582.59 788.565 582.888C788.047 583.18 787.639 583.602 787.34 584.156C787.049 584.71 786.903 585.381 786.903 586.17ZM807.401 596.045C806.115 596.045 804.965 595.715 803.949 595.055C802.933 594.394 802.131 593.435 801.541 592.178C800.952 590.921 800.657 589.394 800.657 587.597C800.657 585.779 800.955 584.245 801.552 582.995C802.156 581.738 802.969 580.79 803.992 580.151C805.014 579.504 806.154 579.181 807.411 579.181C808.37 579.181 809.158 579.344 809.776 579.671C810.394 579.991 810.884 580.378 811.247 580.832C811.609 581.28 811.889 581.702 812.088 582.1H812.248V573.94H816.115V595.758H812.323V593.18H812.088C811.889 593.577 811.602 594 811.225 594.447C810.849 594.888 810.352 595.264 809.734 595.577C809.116 595.889 808.338 596.045 807.401 596.045ZM808.477 592.881C809.293 592.881 809.989 592.661 810.565 592.221C811.14 591.773 811.577 591.152 811.875 590.357C812.173 589.561 812.323 588.634 812.323 587.576C812.323 586.518 812.173 585.598 811.875 584.817C811.584 584.036 811.151 583.428 810.575 582.995C810.007 582.562 809.308 582.345 808.477 582.345C807.617 582.345 806.9 582.569 806.325 583.016C805.749 583.464 805.316 584.082 805.025 584.87C804.734 585.658 804.588 586.56 804.588 587.576C804.588 588.599 804.734 589.511 805.025 590.314C805.323 591.109 805.76 591.738 806.335 592.2C806.918 592.654 807.631 592.881 808.477 592.881ZM827.362 596.077C825.764 596.077 824.38 595.726 823.208 595.023C822.036 594.32 821.127 593.336 820.48 592.072C819.841 590.808 819.522 589.33 819.522 587.64C819.522 585.95 819.841 584.469 820.48 583.197C821.127 581.926 822.036 580.939 823.208 580.236C824.38 579.533 825.764 579.181 827.362 579.181C828.96 579.181 830.345 579.533 831.517 580.236C832.689 580.939 833.595 581.926 834.234 583.197C834.88 584.469 835.203 585.95 835.203 587.64C835.203 589.33 834.88 590.808 834.234 592.072C833.595 593.336 832.689 594.32 831.517 595.023C830.345 595.726 828.96 596.077 827.362 596.077ZM827.384 592.988C828.25 592.988 828.975 592.75 829.557 592.274C830.139 591.791 830.573 591.145 830.857 590.335C831.148 589.526 831.294 588.624 831.294 587.629C831.294 586.628 831.148 585.722 830.857 584.913C830.573 584.096 830.139 583.446 829.557 582.963C828.975 582.48 828.25 582.239 827.384 582.239C826.496 582.239 825.757 582.48 825.168 582.963C824.585 583.446 824.149 584.096 823.858 584.913C823.573 585.722 823.431 586.628 823.431 587.629C823.431 588.624 823.573 589.526 823.858 590.335C824.149 591.145 824.585 591.791 825.168 592.274C825.757 592.75 826.496 592.988 827.384 592.988ZM845.918 595.758V579.394H849.657V582.121H849.828C850.126 581.177 850.638 580.449 851.362 579.938C852.093 579.419 852.928 579.16 853.866 579.16C854.079 579.16 854.316 579.17 854.579 579.192C854.849 579.206 855.073 579.231 855.25 579.266V582.814C855.087 582.757 854.828 582.707 854.473 582.665C854.125 582.615 853.787 582.59 853.461 582.59C852.758 582.59 852.125 582.743 851.564 583.048C851.01 583.347 850.574 583.762 850.254 584.295C849.934 584.827 849.775 585.442 849.775 586.138V595.758H845.918ZM864.383 596.077C862.742 596.077 861.326 595.737 860.132 595.055C858.946 594.366 858.034 593.393 857.394 592.136C856.755 590.871 856.436 589.384 856.436 587.672C856.436 585.989 856.755 584.511 857.394 583.24C858.041 581.962 858.943 580.967 860.1 580.257C861.258 579.54 862.618 579.181 864.181 579.181C865.189 579.181 866.141 579.344 867.036 579.671C867.938 579.991 868.733 580.488 869.422 581.163C870.118 581.837 870.665 582.697 871.063 583.741C871.46 584.778 871.659 586.013 871.659 587.448V588.631H858.247V586.031H867.963C867.956 585.293 867.796 584.636 867.483 584.06C867.171 583.478 866.734 583.02 866.173 582.686C865.619 582.352 864.973 582.185 864.234 582.185C863.446 582.185 862.753 582.377 862.157 582.761C861.56 583.137 861.095 583.634 860.761 584.252C860.434 584.863 860.267 585.534 860.26 586.266V588.535C860.26 589.487 860.434 590.303 860.782 590.985C861.13 591.66 861.617 592.178 862.242 592.54C862.867 592.896 863.598 593.073 864.436 593.073C864.997 593.073 865.505 592.995 865.96 592.839C866.414 592.675 866.809 592.438 867.142 592.125C867.476 591.812 867.728 591.425 867.899 590.964L871.5 591.369C871.272 592.32 870.839 593.151 870.2 593.862C869.568 594.565 868.758 595.112 867.771 595.502C866.784 595.886 865.654 596.077 864.383 596.077ZM887.855 583.719L884.34 584.103C884.24 583.748 884.066 583.414 883.818 583.102C883.576 582.789 883.249 582.537 882.837 582.345C882.426 582.153 881.921 582.058 881.325 582.058C880.522 582.058 879.847 582.232 879.301 582.58C878.761 582.928 878.494 583.379 878.502 583.933C878.494 584.408 878.668 584.795 879.024 585.094C879.386 585.392 879.982 585.637 880.813 585.829L883.604 586.425C885.153 586.759 886.303 587.288 887.056 588.013C887.816 588.737 888.2 589.685 888.207 590.857C888.2 591.887 887.898 592.796 887.301 593.585C886.712 594.366 885.891 594.977 884.84 595.417C883.789 595.857 882.582 596.077 881.218 596.077C879.215 596.077 877.603 595.658 876.381 594.82C875.16 593.975 874.432 592.8 874.198 591.294L877.958 590.932C878.129 591.67 878.491 592.228 879.045 592.604C879.599 592.981 880.32 593.169 881.207 593.169C882.124 593.169 882.859 592.981 883.413 592.604C883.974 592.228 884.254 591.763 884.254 591.209C884.254 590.74 884.073 590.353 883.711 590.048C883.356 589.742 882.802 589.508 882.049 589.344L879.258 588.759C877.688 588.432 876.527 587.881 875.774 587.107C875.021 586.326 874.649 585.339 874.656 584.146C874.649 583.137 874.922 582.263 875.476 581.525C876.037 580.779 876.815 580.204 877.809 579.799C878.81 579.387 879.965 579.181 881.271 579.181C883.189 579.181 884.698 579.589 885.799 580.406C886.907 581.223 887.592 582.327 887.855 583.719ZM891.387 601.894V579.394H895.179V582.1H895.403C895.602 581.702 895.883 581.28 896.245 580.832C896.607 580.378 897.097 579.991 897.715 579.671C898.333 579.344 899.121 579.181 900.08 579.181C901.344 579.181 902.484 579.504 903.5 580.151C904.522 580.79 905.332 581.738 905.929 582.995C906.532 584.245 906.834 585.779 906.834 587.597C906.834 589.394 906.54 590.921 905.95 592.178C905.361 593.435 904.558 594.394 903.542 595.055C902.527 595.715 901.376 596.045 900.091 596.045C899.153 596.045 898.375 595.889 897.758 595.577C897.14 595.264 896.642 594.888 896.266 594.447C895.897 594 895.609 593.577 895.403 593.18H895.243V601.894H891.387ZM895.169 587.576C895.169 588.634 895.318 589.561 895.616 590.357C895.922 591.152 896.358 591.773 896.927 592.221C897.502 592.661 898.198 592.881 899.015 592.881C899.867 592.881 900.581 592.654 901.156 592.2C901.731 591.738 902.165 591.109 902.456 590.314C902.754 589.511 902.903 588.599 902.903 587.576C902.903 586.56 902.758 585.658 902.466 584.87C902.175 584.082 901.742 583.464 901.167 583.016C900.591 582.569 899.874 582.345 899.015 582.345C898.191 582.345 897.491 582.562 896.916 582.995C896.341 583.428 895.904 584.036 895.606 584.817C895.314 585.598 895.169 586.518 895.169 587.576ZM917.275 596.077C915.677 596.077 914.292 595.726 913.12 595.023C911.948 594.32 911.039 593.336 910.392 592.072C909.753 590.808 909.434 589.33 909.434 587.64C909.434 585.95 909.753 584.469 910.392 583.197C911.039 581.926 911.948 580.939 913.12 580.236C914.292 579.533 915.677 579.181 917.275 579.181C918.873 579.181 920.258 579.533 921.429 580.236C922.601 580.939 923.507 581.926 924.146 583.197C924.792 584.469 925.116 585.95 925.116 587.64C925.116 589.33 924.792 590.808 924.146 592.072C923.507 593.336 922.601 594.32 921.429 595.023C920.258 595.726 918.873 596.077 917.275 596.077ZM917.296 592.988C918.162 592.988 918.887 592.75 919.469 592.274C920.052 591.791 920.485 591.145 920.769 590.335C921.06 589.526 921.206 588.624 921.206 587.629C921.206 586.628 921.06 585.722 920.769 584.913C920.485 584.096 920.052 583.446 919.469 582.963C918.887 582.48 918.162 582.239 917.296 582.239C916.408 582.239 915.669 582.48 915.08 582.963C914.498 583.446 914.061 584.096 913.77 584.913C913.486 585.722 913.343 586.628 913.343 587.629C913.343 588.624 913.486 589.526 913.77 590.335C914.061 591.145 914.498 591.791 915.08 592.274C915.669 592.75 916.408 592.988 917.296 592.988ZM941.322 583.719L937.806 584.103C937.707 583.748 937.533 583.414 937.284 583.102C937.043 582.789 936.716 582.537 936.304 582.345C935.892 582.153 935.388 582.058 934.791 582.058C933.989 582.058 933.314 582.232 932.767 582.58C932.228 582.928 931.961 583.379 931.968 583.933C931.961 584.408 932.135 584.795 932.49 585.094C932.853 585.392 933.449 585.637 934.28 585.829L937.071 586.425C938.62 586.759 939.77 587.288 940.523 588.013C941.283 588.737 941.666 589.685 941.674 590.857C941.666 591.887 941.365 592.796 940.768 593.585C940.179 594.366 939.358 594.977 938.307 595.417C937.256 595.857 936.049 596.077 934.685 596.077C932.682 596.077 931.07 595.658 929.848 594.82C928.627 593.975 927.899 592.8 927.664 591.294L931.425 590.932C931.595 591.67 931.958 592.228 932.512 592.604C933.066 592.981 933.786 593.169 934.674 593.169C935.59 593.169 936.326 592.981 936.88 592.604C937.441 592.228 937.721 591.763 937.721 591.209C937.721 590.74 937.54 590.353 937.178 590.048C936.823 589.742 936.269 589.508 935.516 589.344L932.725 588.759C931.155 588.432 929.994 587.881 929.241 587.107C928.488 586.326 928.115 585.339 928.122 584.146C928.115 583.137 928.389 582.263 928.943 581.525C929.504 580.779 930.282 580.204 931.276 579.799C932.277 579.387 933.431 579.181 934.738 579.181C936.656 579.181 938.165 579.589 939.266 580.406C940.374 581.223 941.059 582.327 941.322 583.719ZM953.025 579.394V582.377H943.618V579.394H953.025ZM945.94 575.474H949.797V590.836C949.797 591.354 949.875 591.752 950.031 592.029C950.195 592.299 950.408 592.484 950.67 592.583C950.933 592.683 951.224 592.732 951.544 592.732C951.785 592.732 952.006 592.714 952.204 592.679C952.41 592.643 952.567 592.612 952.673 592.583L953.323 595.598C953.117 595.669 952.822 595.747 952.439 595.832C952.062 595.918 951.601 595.967 951.054 595.982C950.088 596.01 949.218 595.864 948.444 595.545C947.67 595.218 947.055 594.714 946.601 594.032C946.153 593.35 945.933 592.498 945.94 591.475V575.474ZM960.959 596.088C959.922 596.088 958.988 595.903 958.157 595.534C957.333 595.158 956.68 594.604 956.197 593.872C955.721 593.141 955.483 592.239 955.483 591.166C955.483 590.243 955.653 589.479 955.994 588.876C956.335 588.272 956.801 587.789 957.39 587.427C957.979 587.065 958.644 586.791 959.382 586.607C960.128 586.415 960.899 586.276 961.694 586.191C962.653 586.092 963.43 586.003 964.027 585.925C964.624 585.839 965.057 585.712 965.327 585.541C965.604 585.364 965.742 585.09 965.742 584.721V584.657C965.742 583.854 965.504 583.233 965.028 582.793C964.553 582.352 963.867 582.132 962.972 582.132C962.028 582.132 961.278 582.338 960.725 582.75C960.178 583.162 959.808 583.648 959.617 584.21L956.016 583.698C956.3 582.704 956.769 581.873 957.422 581.205C958.075 580.531 958.874 580.026 959.819 579.692C960.764 579.352 961.808 579.181 962.951 579.181C963.739 579.181 964.524 579.273 965.305 579.458C966.087 579.643 966.801 579.948 967.447 580.374C968.093 580.793 968.612 581.365 969.002 582.089C969.4 582.814 969.599 583.719 969.599 584.806V595.758H965.891V593.51H965.764C965.529 593.964 965.199 594.391 964.773 594.788C964.354 595.179 963.825 595.495 963.185 595.737C962.553 595.971 961.811 596.088 960.959 596.088ZM961.96 593.254C962.734 593.254 963.406 593.102 963.974 592.796C964.542 592.484 964.979 592.072 965.284 591.56C965.597 591.049 965.753 590.491 965.753 589.888V587.96C965.632 588.059 965.426 588.151 965.135 588.237C964.851 588.322 964.531 588.396 964.176 588.46C963.821 588.524 963.47 588.581 963.122 588.631C962.774 588.68 962.472 588.723 962.216 588.759C961.641 588.837 961.126 588.964 960.671 589.142C960.217 589.32 959.858 589.568 959.595 589.888C959.332 590.2 959.201 590.605 959.201 591.102C959.201 591.812 959.46 592.349 959.979 592.711C960.497 593.073 961.158 593.254 961.96 593.254ZM975.852 595.992C975.206 595.992 974.652 595.765 974.19 595.31C973.729 594.856 973.502 594.302 973.509 593.648C973.502 593.009 973.729 592.462 974.19 592.008C974.652 591.553 975.206 591.326 975.852 591.326C976.477 591.326 977.021 591.553 977.482 592.008C977.951 592.462 978.189 593.009 978.196 593.648C978.189 594.082 978.075 594.476 977.855 594.831C977.642 595.186 977.358 595.47 977.003 595.683C976.655 595.889 976.271 595.992 975.852 595.992ZM984.554 595.992C983.907 595.992 983.353 595.765 982.892 595.31C982.43 594.856 982.203 594.302 982.21 593.648C982.203 593.009 982.43 592.462 982.892 592.008C983.353 591.553 983.907 591.326 984.554 591.326C985.179 591.326 985.722 591.553 986.184 592.008C986.652 592.462 986.89 593.009 986.897 593.648C986.89 594.082 986.777 594.476 986.556 594.831C986.343 595.186 986.059 595.47 985.704 595.683C985.356 595.889 984.973 595.992 984.554 595.992ZM993.255 595.992C992.608 595.992 992.054 595.765 991.593 595.31C991.131 594.856 990.904 594.302 990.911 593.648C990.904 593.009 991.131 592.462 991.593 592.008C992.054 591.553 992.608 591.326 993.255 591.326C993.88 591.326 994.423 591.553 994.885 592.008C995.353 592.462 995.591 593.009 995.598 593.648C995.591 594.082 995.478 594.476 995.258 594.831C995.044 595.186 994.76 595.47 994.405 595.683C994.057 595.889 993.674 595.992 993.255 595.992Z" fill="#5A7DA0"/>
<path d="M1052.36 404.615C1049.44 471.028 996.026 523.309 931.178 523.309H659.405C620.94 523.309 594.514 483.522 608.753 446.894C627.735 396.85 689.586 433.882 661.247 391.796C633.778 350.992 617.423 301.2 640.864 277.216C695.128 221.698 759.183 295.329 794.391 284.662C805.621 281.025 850.211 252.277 867.551 247.126C978.048 206.32 1061.84 302.892 1052.36 404.615Z" fill="#E3F0FF"/>
<path d="M627.151 388.44C630.155 382.382 603.586 351.505 591.383 359.376C579.181 367.247 577.913 383.22 596.107 389.017C613.304 394.496 624.151 394.499 627.151 388.44Z" fill="#E3F0FF"/>
<path d="M686.629 258.857L682.905 237.013C682.82 236.527 682.343 236.196 681.835 236.275C681.33 236.357 680.987 236.817 681.069 237.303L684.708 258.64L668.997 271.24C668.602 271.556 668.547 272.121 668.876 272.502C669.061 272.713 669.326 272.824 669.593 272.824C669.803 272.824 670.013 272.757 670.186 272.616L686.304 259.689C686.559 259.487 686.681 259.167 686.629 258.857Z" fill="#C7DEFF"/>
<path d="M711.394 269.953L689.758 262.475C689.448 262.369 689.102 262.428 688.85 262.63L672.732 275.558C672.336 275.874 672.282 276.439 672.61 276.82C672.795 277.031 673.06 277.142 673.324 277.142C673.534 277.142 673.747 277.074 673.92 276.934L689.631 264.334L710.765 271.64C711.248 271.807 711.78 271.564 711.953 271.098C712.127 270.633 711.877 270.12 711.394 269.953Z" fill="#C7DEFF"/>
<path d="M679.666 257.423C679.742 257.863 680.134 258.173 680.581 258.173C680.633 258.173 680.681 258.17 680.733 258.161C681.241 258.082 681.584 257.623 681.499 257.134L678.651 240.423C678.569 239.937 678.088 239.606 677.584 239.686C677.076 239.767 676.733 240.227 676.818 240.713L679.666 257.423Z" fill="#C7DEFF"/>
<path d="M707.136 273.363L690.584 267.642C690.101 267.475 689.572 267.718 689.395 268.183C689.222 268.649 689.475 269.161 689.958 269.328L706.51 275.049C706.613 275.085 706.72 275.102 706.823 275.102C707.203 275.102 707.562 274.874 707.699 274.508C707.872 274.042 707.619 273.53 707.136 273.363Z" fill="#C7DEFF"/>
<path d="M894.938 395.926L872.439 391.399C871.935 391.296 871.442 391.607 871.339 392.093C871.232 392.576 871.555 393.05 872.056 393.15L894.038 397.574L900.577 416.229C900.741 416.698 901.27 416.95 901.757 416.792C902.027 416.701 902.231 416.505 902.325 416.265C902.401 416.077 902.41 415.863 902.34 415.655L895.628 396.517C895.522 396.216 895.26 395.993 894.938 395.926Z" fill="#C7DEFF"/>
<path d="M914.614 377.683L899.573 394.421C899.357 394.661 899.29 394.992 899.393 395.293L906.106 414.431C906.27 414.9 906.799 415.152 907.285 414.994C907.556 414.906 907.759 414.707 907.854 414.467C907.93 414.279 907.939 414.065 907.869 413.857L901.327 395.205L916.019 378.855C916.356 378.48 916.314 377.918 915.925 377.593C915.539 377.271 914.952 377.312 914.614 377.683Z" fill="#C7DEFF"/>
<path d="M916.385 382.735L904.876 395.539C904.539 395.914 904.581 396.479 904.97 396.801C905.36 397.126 905.946 397.085 906.281 396.71L917.79 383.906C917.862 383.827 917.917 383.736 917.954 383.642C918.09 383.3 917.999 382.899 917.695 382.644C917.306 382.322 916.719 382.36 916.385 382.735Z" fill="#C7DEFF"/>
<path d="M775.773 472.684C775.773 472.684 669.028 198.656 592.54 269.13C577.902 286.892 595.06 317.239 626.578 352.432C658.097 387.622 749.773 479.105 762.762 493.62L775.773 472.684Z" fill="#5A789F"/>
<path d="M775.772 472.684C775.772 472.684 709.711 303.102 644.288 265.062C645.735 268.693 646.622 272.614 645.227 275.103C642.029 280.807 627.607 283.422 623.485 292.886C619.959 300.988 625.562 332.263 612.909 336.304C617.068 341.542 621.646 346.927 626.577 352.432C658.095 387.622 749.771 479.105 762.761 493.62L775.772 472.684Z" fill="#5A789F"/>
<path d="M604.844 271.346C612.27 277.106 619.381 283.246 626.364 289.498C667.078 326.354 703.15 368.2 732.145 414.247C737.721 423.158 743.159 432.507 748.087 441.769C750.16 445.628 752.473 450.208 754.419 454.131C755.678 456.731 757.459 460.459 758.654 463.088L759.478 464.886L760.277 466.699L761.077 468.508L761.87 470.321C752.352 451.449 741.761 433.128 730.145 415.436C718.544 397.733 706.005 380.621 692.72 364.056C672.778 339.217 651.212 315.57 628.318 293.202C620.682 285.761 612.881 278.382 604.844 271.346Z" fill="#5AA5D1"/>
<path d="M616.017 401.501C616.017 401.501 595.43 393.411 581.492 409.267C569.739 422.639 588.605 458.942 608.089 476.514C608.089 476.514 588.976 488.045 588.329 501.33C587.681 514.612 610.174 528.632 642.011 532.596L645.228 419.946L616.017 401.501Z" fill="#5A789F"/>
<path d="M613.673 400.76C615.598 411.562 616.999 428.331 619.969 446.574C624.635 475.24 635.321 516.851 598.933 517.794C608.432 524.69 623.669 530.312 642.012 532.596L645.228 419.945L616.017 401.501C616.017 401.501 615.157 401.161 613.673 400.76Z" fill="#5A789F"/>
<path d="M591.286 411.461C606.586 426.518 621.339 442.172 635.867 457.919C640.087 462.472 644.571 467.219 648.672 471.857C656.56 480.849 664.181 490.14 671.304 499.709C671.675 500.219 672.049 500.722 672.417 501.235L672.186 501.419C661.503 490.761 651.179 479.488 641.348 468.097C638.244 464.443 634.648 460.261 631.493 456.648C621.534 445.311 611.468 433.967 601.312 422.796C597.919 419.066 594.515 415.344 591.07 411.661L591.286 411.461Z" fill="#5AA5D1"/>
<path d="M601.156 501.185C608.956 501.689 616.827 501.338 624.563 500.31C628.415 499.789 632.236 499.106 635.979 498.093C639.073 497.25 642.104 496.216 645.132 495.183C648.458 494.041 651.732 492.752 654.917 491.28C656.985 490.322 658.97 489.294 660.994 488.231L661.18 488.457C660.18 489.508 659.049 490.518 657.903 491.42C652.838 495.373 646.813 498.202 640.499 499.733C630.206 502.172 619.526 502.998 608.962 502.307C606.333 502.131 603.715 501.882 601.116 501.469L601.156 501.185Z" fill="#5AA5D1"/>
<mask id="mask0_1949_925" style="mask-type:luminance" maskUnits="userSpaceOnUse" x="632" y="286" width="151" height="249">
<path d="M632.735 286.094H782.934V534.329H632.735V286.094Z" fill="white"/>
</mask>
<g mask="url(#mask0_1949_925)">
<path d="M770.942 534.297H644.82C638.458 534.297 633.299 529.33 633.299 523.202V297.593C633.299 291.465 638.458 286.496 644.82 286.496H770.942C777.308 286.496 782.467 291.465 782.467 297.593V523.202C782.467 529.33 777.308 534.297 770.942 534.297Z" fill="#303C72"/>
</g>
<path d="M766.577 527.805H649.177C643.894 527.805 639.61 523.679 639.61 518.593V302.199C639.61 297.113 643.894 292.99 649.177 292.99H766.577C771.861 292.99 776.141 297.113 776.141 302.199V518.593C776.141 523.679 771.861 527.805 766.577 527.805Z" fill="#D4EBFF"/>
<path d="M766.577 292.99H649.177C643.894 292.99 639.61 297.113 639.61 302.199V313.519H776.141V302.199C776.141 297.113 771.861 292.99 766.577 292.99Z" fill="#8CCBFF"/>
<path d="M735.786 403.161C735.786 403.161 749.39 394.055 760.03 411.117C770.673 428.182 782.416 462.048 785.739 472.575C789.062 483.099 776.276 488.688 768.369 480.657C760.459 472.625 740.809 436.178 736.312 427.213C731.816 418.247 729.074 408.23 735.786 403.161Z" fill="#9E5959"/>
<path d="M771.701 466.732L782.648 463.295C781.611 460.311 779.082 453.345 779.082 453.345C779.082 453.345 773.008 460.806 771.701 466.732Z" fill="#914D4D"/>
<path d="M758.948 467.491C758.896 464.001 758.863 458.449 759.021 452.809C759.279 443.524 757.759 422.565 757.759 422.565L744.961 443.442C749.241 451.211 754.348 460.15 758.948 467.491Z" fill="#914D4D"/>
<path d="M737.589 400.733C737.589 400.733 726.007 405.629 731.816 420.24C737.625 434.854 756.282 465.242 761.866 474.478C767.45 483.713 775.446 488.102 781.532 484.992C787.618 481.88 787.964 476.466 785.538 468.165C783.109 459.866 767.207 421.865 763.204 414.097C759.197 406.331 749.001 394.786 737.589 400.733Z" fill="white"/>
<path d="M778.003 448.33C774.455 452.813 769.999 463.767 769.999 463.767L782.143 458.736C780.939 455.627 779.52 452.063 778.003 448.33Z" fill="#D4EBFF"/>
<path d="M761.81 474.382C761.925 467.749 762.117 452.91 761.746 444.556C761.262 433.567 759.052 420.241 759.052 420.241L750.285 455.15C755.107 463.372 759.518 470.593 761.81 474.382Z" fill="#D4EBFF"/>
<path d="M811.893 424.849C811.893 424.849 821.192 428.19 826.184 439.058L821.709 442.601L809.206 430.409L811.893 424.849Z" fill="#ABD3FC"/>
<path d="M774.046 483.93C778.271 485.339 782.965 484.085 785.969 480.894C794.113 472.235 820.937 443.422 826.47 433.783C833.015 422.384 824.418 420.735 816.42 427.807C808.425 434.878 795.344 445.586 789.249 450.52C779.326 458.555 769.647 464.537 766.54 470.622C764.364 474.879 767.72 481.822 774.046 483.93Z" fill="#9E5959"/>
<path d="M818.763 444.292C814.601 449.071 806.536 440.035 809.306 435.593C809.351 435.523 817.617 425.643 818.73 421.927C819.9 418.013 819.329 416.115 823.512 412.642C827.071 409.691 829.449 407.685 831.239 407.96C833.136 408.253 831.498 410.692 829.57 412.332C827.485 414.109 824.335 419.351 827.312 419.207C829.683 419.09 837.292 417.567 839.59 416.578C843.335 414.964 852.707 406.215 854.914 410.83C854.914 410.83 857.343 410.44 857.179 413.146C857.179 413.146 860.116 414.051 857.447 417.392C857.447 417.392 859.158 418.885 857.45 420.806C856.292 422.109 851.224 426.554 847.862 429.057C844.503 431.561 830.905 433.195 826.093 435.994C824.56 436.887 819.715 443.2 818.763 444.292Z" fill="#F6AF9A"/>
<path d="M826.104 418.34C826.322 421.121 827.292 423.376 826.335 426.169C828.703 423.965 826.62 420.688 826.104 418.34Z" fill="#E57E73"/>
<path d="M857.446 417.391C856.042 417.171 854.956 418.275 853.941 419.019C850.78 421.314 847.804 423.952 844.49 425.982C848.427 425.071 851.065 421.587 854.163 419.27C855.057 418.395 856.276 417.417 857.446 417.391Z" fill="#E57E73"/>
<path d="M857.183 413.146C854.216 413.403 852.067 415.664 849.763 417.239C847.428 418.785 845.352 421.069 843.005 422.325C844.47 422.158 845.719 421.227 846.823 420.34C850.188 417.947 853.182 414.185 857.183 413.146Z" fill="#E57E73"/>
<path d="M854.917 410.83C849.53 411.594 845.998 416.379 841.538 418.876C846.675 417.603 849.734 411.808 854.917 410.83Z" fill="#E57E73"/>
<path d="M842.426 426.944C836.76 425.193 829.142 424.022 824.202 427.942C829.631 424.874 836.495 426.11 842.426 426.944Z" fill="#EA9A88"/>
<path d="M841.175 418.731C842.202 419.589 842.53 420.915 842.853 422.136C843.88 423.067 844.084 424.584 844.342 425.866C844.865 426.235 844.877 426.964 844.883 427.532C844.74 426.952 844.518 426.329 843.989 426.039C843.561 424.903 843.287 423.404 842.366 422.566C841.798 421.483 841.825 419.949 840.88 419.009C840.585 418.414 840.405 417.712 839.889 417.226C840.481 417.559 840.874 418.142 841.175 418.731Z" fill="#EA9A88"/>
<path d="M811.894 424.849C811.894 424.849 815.487 436.137 826.185 439.059C826.185 439.059 795.855 475.297 787.963 481.607C780.075 487.92 768.219 485.074 764.012 475.763C759.959 466.794 811.894 424.849 811.894 424.849Z" fill="white"/>
<path d="M723.691 505.039C710.449 509.226 705.081 518.775 703.476 527.805H754.146C753.085 521.958 751.89 517.548 750.555 515.273C742.18 500.981 723.691 505.039 723.691 505.039Z" fill="#F6AF9A"/>
<path d="M724.134 498.743C708.73 501.712 700.878 511.794 700.358 527.805H757.975C757.887 527.199 757.799 526.61 757.71 526.039C753.427 498.497 724.134 498.743 724.134 498.743Z" fill="#384682"/>
<path d="M685.75 464.188C687.611 484.462 681.981 496.716 679.57 509.044C678.299 515.547 677.959 521.968 678.84 527.804H747.209C751.41 518.422 750.672 509.178 750.808 504.177C751.042 495.759 751.748 481.701 751.748 481.701C754.237 444.523 683.893 443.911 685.75 464.188Z" fill="#F6AF9A"/>
<path d="M681.249 498.02C681.249 498.02 674.631 513.776 677.075 527.804H748.414C752.296 515.058 752.007 498.743 752.007 498.743C742.915 500.154 681.249 498.02 681.249 498.02Z" fill="#384682"/>
<path d="M676.34 527.805H726.706C726.469 505.05 706.907 503.522 706.907 503.522C691.537 501.964 680.143 506.45 676.34 527.805Z" fill="#F6AF9A"/>
<path d="M673.742 527.753C673.739 527.77 673.739 527.788 673.736 527.805H732.094C731.772 511.513 720.971 500.987 702.911 498.767C702.911 498.767 677.074 496.876 673.742 527.753Z" fill="#384682"/>
<path d="M700.228 393.179C712.512 391.194 722.316 392.816 733.88 396.078C741.617 398.26 749.907 400.362 753.652 405.404C760.228 414.256 757.23 436.123 755.549 446.246C753.868 456.365 752.594 477.53 751.673 482.967C750.752 488.405 725.703 496.94 710.369 494.718C698.614 493.014 687.855 487.465 686.323 477.096C684.52 464.868 681.45 447.338 677.887 436.685C674.324 426.036 668.728 403.855 686.378 396.432C689.688 395.042 696.993 393.701 700.228 393.179Z" fill="#F6AF9A"/>
<path d="M729.214 381.906C729.214 381.906 728.816 392.954 731.36 398.016C733.902 403.076 725.198 406.224 719.541 406.177C713.884 406.13 705.195 403.079 704.18 396.517C703.168 389.952 707.336 392.435 706.548 374.594C705.934 360.642 730.798 368.158 729.214 381.906Z" fill="#F6AF9A"/>
<path d="M730.563 395.949C728.906 390.447 729.214 381.906 729.214 381.906C730.469 370.99 715.054 364.004 708.959 368.578C708.71 370.132 708.594 371.883 708.643 373.86C708.667 374.888 719.045 394.183 730.563 395.949Z" fill="#EA9A88"/>
<path d="M756.754 501.019C755.921 494.982 756.754 465.396 756.873 461.153C756.991 456.907 759.268 434.659 759.025 428.01C758.779 421.357 756.857 408.031 755.14 404.028C753.419 400.028 740.454 396.971 733.666 395.95L730.319 395.042C730.319 395.042 731.392 398.781 725.667 399.73C717.241 401.126 708.078 396.178 704.284 392.644C704.284 392.644 702.05 392.368 700.536 392.641C700.536 392.641 685.877 394.901 682.038 396.389C678.198 397.876 672.675 404.385 672.438 415.509C672.197 426.633 678.034 447.42 679.7 458.07C681.369 468.722 680.296 486.956 679.582 493.263C678.867 499.57 671.96 519.639 671.842 527.551C671.842 527.551 672.717 527.648 674.265 527.806H742.272C751.896 526.857 759.019 526.028 759.612 525.601C759.612 525.601 757.836 520.442 757.712 516.199C757.587 511.956 757.587 507.057 756.754 501.019Z" fill="#85B9F1"/>
<path d="M724.757 401.823C728.49 401.782 733.813 409.401 733.813 409.401C735.485 406.491 737.044 400.301 737.856 396.699C736.327 396.386 734.892 396.134 733.664 395.95L730.317 395.042C730.317 395.042 731.39 398.781 725.666 399.73C717.239 401.126 708.076 396.178 704.282 392.644C704.282 392.644 702.048 392.368 700.534 392.641C700.534 392.641 699.64 392.778 698.239 393.01L696.309 395.876L719.777 414.11C719.777 414.11 719.707 412.903 720.534 408.845C721.866 402.295 724.757 401.823 724.757 401.823Z" fill="#75AEEB"/>
<path d="M693.587 454.897C695.468 441.047 696.201 416.448 696.201 416.448C696.201 416.448 683.366 421.315 672.945 423.212C674.374 434.567 678.369 449.557 679.7 458.069C681.369 468.718 680.296 486.954 679.582 493.262C678.867 499.569 671.96 519.638 671.842 527.55C671.842 527.55 672.717 527.647 674.265 527.805H696.429C683.685 521.14 684.412 501.613 686.093 490.825C688.069 478.123 692.164 465.377 693.587 454.897Z" fill="#75AEEB"/>
<path d="M725.286 403.922C727.034 403.861 727.414 400.979 727.483 399.264C726.97 399.454 726.368 399.612 725.663 399.729C724.216 399.969 722.744 400.022 721.285 399.928C721.914 401.278 723.416 403.987 725.286 403.922Z" fill="#384682"/>
<path d="M723.829 402.273C723.829 402.273 733.004 442.699 733.812 451.6L739.512 462.045L741.911 448.33C741.911 448.33 732.381 415.611 726.088 401.866L723.829 402.273Z" fill="#384682"/>
<path d="M724.35 399.896C724.35 399.896 729.077 397.653 730.314 395.041C730.314 395.041 732.354 394.979 733.199 395.383C733.199 395.383 734.576 402.294 733.199 406.703C733.199 406.703 728.524 400.607 724.842 400.915C721.152 401.225 718.754 409.57 718.754 409.57C718.754 409.57 705.646 399.694 704.022 392.669L704.393 392.259C704.393 392.259 715.589 398.569 724.35 399.896Z" fill="#96C3F2"/>
<path d="M748.824 342.622C748.824 342.622 750.645 350.973 748.097 360.77L742.471 342.292L748.824 342.622Z" fill="#8C4949"/>
<path d="M725.667 326.575C725.667 326.575 743.916 327.609 746.865 343.239C749.814 358.869 747.968 387.143 737.368 390.238C727.695 393.064 712.769 383.419 706.485 373.738C699.873 363.551 697.526 350.565 701.417 340.744C704.825 332.147 711.319 325.831 725.667 326.575Z" fill="#F6AF9A"/>
<path d="M717.37 344.853C717.37 344.853 715.507 347.515 716.02 351.535C716.355 354.153 715.312 355.095 712.482 358.911C709.649 362.726 710.305 362.949 709.472 367.153C708.639 371.355 706.606 381.659 706.551 382.482C706.493 383.308 703.87 380.415 701.906 374.682C699.945 368.948 695.777 357.824 695.419 347.617C695.063 337.413 704.827 327.091 714.832 326.057C714.832 326.057 724.359 321.929 733.531 325.6C742.699 329.269 749.454 334.853 749.065 344.045L747.065 344.109C747.065 344.109 745.542 343.032 745.055 342.75C742.836 341.468 741.03 342.103 739.015 343.368C739.015 343.368 731.172 347.166 727.004 346.709C727.004 346.709 722.246 348.127 717.37 344.853Z" fill="#8C4949"/>
<path d="M709.21 335.545C709.21 335.545 708.027 343.088 716.326 347.248C716.754 345.737 717.369 344.853 717.369 344.853C717.369 344.853 710.173 340.555 709.21 335.545Z" fill="#7D4141"/>
<path d="M714.03 329.423C713.957 333.092 714.869 337.001 717.687 339.604C721.043 342.649 727.296 343.264 731.759 343.152C731.214 343.354 730.649 343.507 730.077 343.627C725.816 344.482 720.715 344.075 717.198 341.39C713.635 338.59 712.562 333.513 714.03 329.423Z" fill="#7D4141"/>
<path d="M718.65 327.472C721.11 326.681 723.718 326.406 726.308 326.418C731.545 326.465 736.947 328.063 740.79 331.595C742.711 333.346 744.173 335.521 745.012 337.863C744.258 336.856 743.486 335.893 742.635 335.009C740.142 332.376 736.947 330.412 733.458 329.252C728.718 327.665 723.648 327.314 718.65 327.472Z" fill="#7D4141"/>
<path d="M716.63 329.423C721.533 329.768 726.339 331.013 730.905 332.752C734.413 334.105 737.809 336.002 740.347 338.74C740.733 339.161 741.095 339.609 741.39 340.093C741.171 339.908 740.946 339.735 740.718 339.571C740.544 339.445 740.201 339.205 740.025 339.085C737.48 337.381 734.696 336.031 731.838 334.895C726.82 332.925 721.7 331.323 716.63 329.423Z" fill="#7D4141"/>
<path d="M719.809 333.783C723.019 336.696 727.177 338.204 731.275 339.598C732.664 340.066 734.081 340.485 735.513 341.021C734.75 341.103 733.99 341.112 733.224 341.088C729.399 340.91 725.533 339.732 722.551 337.352C721.389 336.38 720.286 335.215 719.809 333.783Z" fill="#7D4141"/>
<path d="M713.243 363.871C713.243 363.871 713.203 355.638 708.105 355.582C703.005 355.526 703.032 362.419 706.321 366.89C708.16 369.393 713.264 372.547 713.243 363.871Z" fill="#F6AF9A"/>
<path d="M707.632 361.134C708.635 361.189 709.425 361.719 709.978 362.258C709.836 361.312 709.431 360.399 708.504 359.831C708.264 359.684 708.194 359.38 708.346 359.149C708.498 358.917 708.811 358.85 709.054 358.996C712.365 361.02 710.638 365.965 710.562 366.173C710.471 366.431 710.179 366.568 709.912 366.477C709.906 366.477 709.902 366.474 709.896 366.474C709.638 366.381 709.501 366.106 709.592 365.851C709.598 365.83 709.893 364.987 710.003 363.91C709.997 363.901 709.985 363.892 709.978 363.88C709.969 363.866 709.03 362.2 707.574 362.12C707.291 362.106 707.075 361.872 707.091 361.599C707.106 361.327 707.349 361.119 707.632 361.134Z" fill="#E57E73"/>
<path d="M669.312 527.805H761.162C759.846 514.479 758.21 494.717 757.821 485.698C757.298 473.544 759.56 440.93 759.609 430.761C759.657 420.591 756.605 406.37 756.605 406.37C756.201 405.201 755.35 401.772 747.744 399.043C740.138 396.317 733.398 395.875 733.398 395.875C739.961 412.182 738.104 454.036 738.104 454.036C738.104 454.036 732.164 438.485 723.828 421.432C716.514 406.469 699.931 392.64 699.931 392.64C692.103 392.886 678.466 396.004 678.466 396.004C664.868 410.366 673.918 439.996 676.189 455.776C678.457 471.555 676.408 488.155 670.395 520.979C670.018 523.035 669.656 525.325 669.312 527.805Z" fill="white"/>
<path d="M738.22 450.513L738.104 454.923C743.625 418.318 740.564 398.978 740.056 396.884C736.119 396.056 733.398 395.877 733.398 395.877C738.807 409.311 738.496 440.092 738.22 450.513Z" fill="#ABD3FC"/>
<path d="M737.864 453.407C736.669 450.341 731.185 436.471 723.831 421.432C716.517 406.469 699.934 392.64 699.934 392.64C697.615 392.713 694.784 393.038 691.951 393.46C691.951 393.46 731.763 435.619 738.107 454.921L737.864 453.407Z" fill="#ABD3FC"/>
<path d="M736.182 527.805H737.398C738.604 503.162 739.456 478.519 738.106 454.037C738.829 478.586 737.44 503.288 736.182 527.805Z" fill="#ABD3FC"/>
<path d="M676.189 455.776C678.457 471.556 676.408 488.155 670.395 520.979C670.018 523.035 669.656 525.325 669.312 527.805H679.718L681.627 508.839C682.126 503.513 684.032 483.271 684.661 477.4C685.391 470.621 686.847 469.684 690.489 450.854C694.131 432.023 695 415.71 695 415.71L672.514 435.373C673.73 443.001 675.386 450.21 676.189 455.776Z" fill="#D4EBFF"/>
<path d="M731.76 395.082C731.76 395.082 736.618 413.579 738.104 454.037C738.104 454.037 740.5 429.827 739.895 414.279C739.287 398.733 738.837 396.64 738.837 396.64C738.837 396.64 733.76 394.681 731.76 395.082Z" fill="white"/>
<path d="M738.105 454.037C723.829 421.432 693.25 393.273 693.25 393.273C696.317 391.788 704.395 392.26 704.395 392.26C704.395 392.26 716.299 405.278 724.601 420.826C735.782 441.768 738.105 454.037 738.105 454.037Z" fill="white"/>
<path d="M679.389 396.645C679.389 396.645 695.905 397.922 692.88 417.614C689.856 437.302 676.604 470.651 672.236 480.817C667.868 490.98 654.86 487.663 654.045 476.621C653.227 465.582 661.505 425.23 663.943 415.552C666.378 405.878 670.862 396.461 679.389 396.645Z" fill="#F6AF9A"/>
<path d="M682.035 396.388C682.035 396.388 669.915 391.603 663.179 414.396C656.439 437.188 652.071 467.523 651.888 477.693C651.706 487.862 662.063 492.884 668.638 489.089C675.217 485.297 682.318 461.685 686.586 449.656C693.25 430.878 703.625 400.996 682.035 396.388Z" fill="white"/>
<path d="M653.91 475.638C653.91 475.638 653.798 507.985 655.293 527.806H669.566C670.621 518.828 671.946 508.995 672.7 503.599C674.43 491.228 676.002 481.375 676.187 473.498C676.43 463.206 654.643 461.045 653.91 475.638Z" fill="#F6AF9A"/>
<path d="M665.687 459.281C665.687 459.281 653.16 460.335 651.886 475.412C650.928 486.764 650.792 510.836 651.251 527.805H674.792C676.783 507.346 680.301 470.856 680.374 467.491C680.477 462.789 671.84 458.23 665.687 459.281Z" fill="white"/>
<path d="M775.399 485.793V518.594C775.399 523.276 771.441 527.085 766.58 527.085H649.18C644.316 527.085 640.361 523.276 640.361 518.594V302.2C640.361 297.518 644.316 293.708 649.18 293.708H766.58C771.441 293.708 775.399 297.518 775.399 302.2V441.985C775.828 443.022 776.253 444.053 776.673 445.08C776.809 444.949 776.892 444.77 776.892 444.571V302.2C776.892 296.724 772.265 292.271 766.58 292.271H649.18C643.492 292.271 638.868 296.724 638.868 302.2V518.594C638.868 524.069 643.492 528.523 649.18 528.523H766.58C772.265 528.523 776.892 524.069 776.892 518.594V485.972C776.399 485.948 775.901 485.89 775.399 485.793Z" fill="white"/>
<path d="M734.348 297.59H681.413C678.167 297.59 675.534 295.054 675.534 291.93V290.747H740.225V291.93C740.225 295.054 737.595 297.59 734.348 297.59Z" fill="#303C72"/>
<path d="M1060.99 342.779C1062.71 341.614 1064.6 340.721 1066.61 340.12C1074.88 337.637 1096.28 333.538 1112.5 350.837C1129.81 369.299 1104.75 421.645 1077.93 447.43C1077.93 447.43 1105.6 462.961 1107.14 481.783C1108.69 500.605 1077.43 521.488 1032.44 528.507L1022.55 368.781L1060.99 342.779Z" fill="#5A789F"/>
<path d="M1066.43 340.175C1064.21 355.588 1063.01 379.447 1059.66 405.463C1054.39 446.351 1041.19 505.874 1092.88 505.619C1079.72 515.818 1058.36 524.465 1032.44 528.509L1022.55 368.783L1061 342.778C1062.64 341.662 1064.45 340.781 1066.37 340.195L1066.43 340.175Z" fill="#5A789F"/>
<path d="M1098.98 354.617C1078.87 377.392 1059.31 400.706 1039.98 424.101C1034.5 430.778 1028.57 438.2 1023.06 444.865C1011.72 458.498 999.982 472.366 988.093 485.551L987.855 485.375C988.372 484.646 988.895 483.923 989.415 483.2C992.029 479.595 994.708 475.982 997.38 472.436C1004.89 462.51 1012.7 452.613 1020.63 442.997C1028.55 433.466 1036.97 423.867 1045.04 414.447C1055.49 402.307 1066.23 390.08 1076.94 378.165C1081.66 372.921 1086.63 367.451 1091.41 362.277C1093.85 359.651 1096.28 357.024 1098.75 354.424L1098.98 354.617Z" fill="#5AA5D1"/>
<path d="M1089 482.485C1071.48 485.363 1053.39 485.126 1035.96 481.797C1034.13 481.443 1032.23 481.027 1030.44 480.57C1022.71 478.553 1015.26 475.326 1008.68 470.91C1007.79 470.31 1006.71 469.534 1005.86 468.872C1004.95 468.172 1004.04 467.42 1003.19 466.661L1003.37 466.43C1005 467.306 1006.61 468.187 1008.26 469.001C1009.84 469.792 1011.61 470.629 1013.23 471.341C1017.8 473.373 1022.55 475.071 1027.34 476.547C1032.15 478.031 1037.01 479.393 1041.96 480.38C1055.57 482.977 1069.57 483.598 1083.4 482.702C1085.25 482.579 1087.11 482.426 1088.95 482.201L1089 482.485Z" fill="#5AA5D1"/>
<mask id="mask1_1949_925" style="mask-type:luminance" maskUnits="userSpaceOnUse" x="898" y="286" width="152" height="249">
<path d="M898.89 286.094H1049.09V534.329H898.89V286.094Z" fill="white"/>
</mask>
<g mask="url(#mask1_1949_925)">
<path d="M1037.02 534.295H910.897C904.534 534.295 899.372 529.328 899.372 523.2V297.591C899.372 291.463 904.534 286.494 910.897 286.494H1037.02C1043.38 286.494 1048.54 291.463 1048.54 297.591V523.2C1048.54 529.328 1043.38 534.295 1037.02 534.295Z" fill="#303C72"/>
</g>
<path d="M1032.66 527.805H915.258C909.975 527.805 905.691 523.679 905.691 518.593V302.199C905.691 297.113 909.975 292.99 915.258 292.99H1032.66C1037.94 292.99 1042.22 297.113 1042.22 302.199V518.593C1042.22 523.679 1037.94 527.805 1032.66 527.805Z" fill="#D4EBFF"/>
<path d="M932.311 413.942C933.213 409.213 937.08 405.301 942.285 404.429C948.97 403.307 955.332 407.614 956.497 414.05C956.737 415.389 956.737 416.712 956.521 417.98C956.472 418.279 956.408 418.574 956.335 418.867C955.138 424.521 948.389 455.925 942.048 475.187C941.382 478.513 938.652 481.254 934.983 481.869C930.24 482.665 925.726 479.608 924.899 475.04C924.574 473.254 929.854 423.939 932.311 413.942Z" fill="#DE9681"/>
<path d="M943.823 415.703C943.823 415.703 949.022 411.091 956.518 414.18C956.737 415.474 956.728 416.754 956.521 417.981C956.473 418.279 956.409 418.575 956.336 418.868C955.302 423.746 950.137 447.798 944.665 466.675C944.17 464.356 942.65 462.04 941.896 461.463C940.713 460.559 937.634 457.871 936.123 453.148C935.041 449.771 937.102 437.131 939.464 430.484C941.826 423.834 943.823 415.703 943.823 415.703Z" fill="#EA9A88"/>
<path d="M947.673 403.922C947.673 403.922 943.016 402.994 936.69 405.685C934.796 406.49 932.984 409.643 931.753 412.088C927.05 421.444 923.469 449.864 923.469 449.864C923.469 449.864 935.726 460.871 948.57 464.402C948.57 464.402 958.133 424.258 957.942 415.848C957.75 407.441 951.382 404.786 947.673 403.922Z" fill="#FCF5F1"/>
<path d="M954.548 437.452L939.059 413.772C939.059 413.772 942.336 423.429 940.667 429.9C938.998 436.374 935.028 445.229 934.408 450.511C934.141 452.798 934.265 455.556 934.493 457.949C938.634 460.505 943.558 463.023 948.571 464.402C948.571 464.402 951.867 450.576 954.548 437.452Z" fill="#F0E2DA"/>
<path d="M937.211 464.203C932.499 462.498 927.24 464.794 925.471 469.333C925.121 470.226 924.936 471.136 924.896 472.038C924.893 472.038 921.504 515.969 920.592 527.804H931.289C932.396 522.715 934.478 513.489 936.71 505.48C940.519 491.809 941.826 479.52 942.428 473.859C942.598 473.113 942.665 472.363 942.632 471.625C942.476 468.211 940.741 465.479 937.211 464.203Z" fill="#DE9681"/>
<path d="M959.292 510.541C949.239 511.589 941.426 518.774 939.429 527.805H984.064C981.669 516.906 971.038 509.317 959.292 510.541Z" fill="#F6AF9A"/>
<path d="M938.111 527.806H985.012C981.595 508.096 966.161 508.079 964.219 508.105C964.219 508.105 942.775 506.79 938.111 527.806Z" fill="#8C4949"/>
<path d="M979.556 475.517C955.892 475.453 950.986 486.079 950.986 486.079C950.591 489.013 950.527 492.275 949.122 495.051C942.629 507.87 940.094 522.493 939.34 527.805H1018.92C1018.44 519.914 1015.45 512.444 1011.46 502.916C1008.95 496.922 1002.91 489.045 1002.82 482.864C1002.82 482.864 1000.4 475.573 979.556 475.517Z" fill="#F6AF9A"/>
<path d="M950.709 488.44C950.709 488.44 949.177 490.642 945.228 500.931C942.352 508.418 939.552 521.328 938.242 527.805H1019.93C1018.91 518.916 1016.16 509.165 1013.04 503.66C1009.32 497.078 1004 486.255 1004 486.255C993.484 488.835 950.709 488.44 950.709 488.44Z" fill="#8C4949"/>
<path d="M1013.05 503.66C1009.32 497.078 1004 486.255 1004 486.255C996.897 487.998 975.067 488.384 961.652 488.449C955.563 492.384 953.809 496.887 953.809 496.887C953.809 496.887 970.154 502.24 990.805 502.577C1001.59 502.577 1005.83 502.577 1007.25 503.32C1008.24 503.842 1009.8 518.875 1010.64 527.805H1019.93C1018.91 518.916 1016.16 509.165 1013.05 503.66Z" fill="#824444"/>
<path d="M973.821 527.805H1018.32C1016.18 518.734 1008.16 511.633 998.025 510.792C986.531 509.841 976.299 517.269 973.821 527.805Z" fill="#F6AF9A"/>
<path d="M971.84 527.805H1019.59C1017.54 517.325 1011.9 507.636 995.859 508.119C995.859 508.119 975.865 508.108 971.84 527.805Z" fill="#8C4949"/>
<path d="M1008.79 510.739C1009.48 515.939 1010.17 522.823 1010.64 527.806H1019.59C1018.23 520.855 1015.29 514.255 1008.79 510.739Z" fill="#824444"/>
<path d="M949.373 468.195C949.373 468.195 943.254 464.719 942.168 459.115C941.083 453.51 944.196 434.876 944.986 426.159C945.78 417.442 938.529 409.922 937.557 405.595C937.557 405.595 947.798 400.956 970.254 398.833C970.254 398.833 982.913 399.185 995.076 401.317C1005 403.053 1010.17 408.285 1012.11 411.281C1014.05 414.276 1012.79 421.579 1010.08 430.498C1007.38 439.417 1004.41 447.145 1004.11 456.591C1003.97 461.153 1003.75 477.436 1004.05 488.097C1004.05 488.097 1005.23 494.797 981.192 496.229C959.001 497.552 950.762 488.2 950.762 488.2C949.926 479.43 949.373 468.195 949.373 468.195Z" fill="#DE9681"/>
<path d="M1007.62 438.404C1005.82 444.286 1004.32 450.022 1004.11 456.59C1004.01 459.77 1003.88 468.642 1003.91 477.339C998.631 463.629 991.575 422.7 991.575 422.7L1007.62 438.404Z" fill="#E57E73"/>
<path d="M959.068 402.051L960.387 379.458C960.542 374.98 963.722 370.948 968.456 369.768C974.216 368.331 980.096 371.663 981.588 377.212C981.792 377.964 981.901 378.723 981.929 379.469L983.99 403.726C984.008 403.896 984.054 404.666 984.054 404.666C984.409 410.373 980.524 415.307 974.557 416.794C967.781 418.484 961.09 414.876 959.336 408.349C958.788 406.317 958.922 404.215 959.068 402.051Z" fill="#DE9681"/>
<path d="M960.389 379.458C960.544 374.98 963.724 370.948 968.457 369.768C974.218 368.331 980.097 371.663 981.59 377.212C981.793 377.964 981.903 378.723 981.93 379.469L982.036 380.731C977.227 391.15 968.472 398.903 959.146 400.78L960.389 379.458Z" fill="#D38475"/>
<path d="M951.278 401.638C951.278 401.638 952.84 408.44 963.997 410.194C975.154 411.948 997.786 401.711 997.786 401.711C997.786 401.711 1002.64 401.646 1005.99 403.652C1005.99 403.652 1012.32 407.465 1013.38 412.144C1014.45 416.826 1013.03 425.112 1012.17 428.137C1011.31 431.159 1005.99 457.922 1005.99 464.627C1005.99 469.309 1008.8 482.63 1010.5 490.243C1011.18 493.3 1009.05 496.272 1005.85 496.743C995.208 498.304 971.825 500.804 948.992 497.03C945.253 496.412 942.614 493.159 942.86 489.516C943.432 481.101 944.377 467.093 944.356 466.507C944.356 466.507 939.638 463.728 938.623 455.828C937.607 447.931 943.833 428.33 943.164 424.966C942.495 421.602 936.574 408.885 936.692 405.684C936.692 405.684 943.119 402.721 951.278 401.638Z" fill="#FCF5F1"/>
<path d="M979.11 498.968C990.388 498.731 1000.03 497.595 1005.85 496.743C1009.05 496.272 1011.18 493.297 1010.5 490.243C1008.8 482.629 1005.98 469.309 1005.98 464.627C1005.98 457.922 1011.3 431.159 1012.16 428.137C1012.36 427.446 1012.59 426.483 1012.8 425.352C1003.27 420.149 994.362 418.978 990.042 424.527C990.042 424.527 992.249 449.647 992.215 454.476C992.182 459.301 981.278 466.724 964.874 465.093C964.874 465.093 980.065 470.457 993.936 463.629L995.596 468.261H1001.83C1001.83 468.261 1002.65 478.062 1003.86 484.79C1005.07 491.484 992.352 496.213 979.11 498.968Z" fill="#F0E2DA"/>
<path d="M990.133 418.99C989.99 417.833 990.011 416.641 990.218 415.435C991.394 408.563 998.134 403.91 1005.27 405.04C1011.19 405.98 1015.53 410.612 1016.16 416.088L1030.88 475.956C1031.19 477.128 1031.26 478.378 1031.04 479.649C1030.21 484.527 1025.43 487.83 1020.36 487.028C1016.09 486.348 1012.99 482.972 1012.61 479.008C1012.61 479.008 994.03 436.802 990.47 420.694C990.318 420.138 990.206 419.567 990.133 418.99Z" fill="#DE9681"/>
<path d="M1000.82 403.652C1000.82 403.652 987.454 405.388 989.43 421.467C991.403 437.545 998.088 466.507 998.088 466.507C998.088 466.507 1021.94 466.653 1029.99 455.389C1029.99 455.389 1018.9 417.979 1015.86 411.511C1012.82 405.04 1005.54 401.93 1000.82 403.652Z" fill="#FCF5F1"/>
<path d="M1019.73 470.168C1015.99 471.018 1013.32 473.931 1012.7 477.363C1012.57 478.107 1012.53 478.874 1012.6 479.65C1012.44 485.447 1012.65 497.672 1014.65 511.973C1015.39 517.229 1016 522.96 1016.46 527.806H1028.42C1029.4 510.366 1031.13 479.641 1031.13 479.641C1031.21 478.722 1031.14 477.776 1030.91 476.833C1029.73 472.019 1024.73 469.035 1019.73 470.168Z" fill="#DE9681"/>
<path d="M970.816 332.376C970.816 332.376 991.895 333.131 991.433 357.142C990.986 380.206 970.87 399.075 953.637 394.232C948.159 392.355 944.55 380.344 944.359 362.289C944.164 344.234 952.214 331.743 970.816 332.376Z" fill="#DE9681"/>
<path d="M998.795 388.918C996.223 380.725 998.311 365.101 997.269 358.053C997.241 357.868 997.199 357.698 997.15 357.54C996.493 348.126 993.277 340.56 985.829 334.85C977.816 328.704 964.756 331.562 964.756 331.562C958.822 331.134 946.504 336.136 943.09 343.995C939.677 351.854 940.716 363.145 942.054 366.146C943.388 369.147 941.607 372.005 940.865 374.005C940.123 376.005 941.607 378.005 942.942 380.579C944.279 383.15 942.054 386.151 942.054 386.151C944.279 385.009 945.316 381.864 944.428 379.15C943.537 376.433 943.09 375.434 943.671 373.373C944.249 371.308 944.723 370.002 945.021 366.86C945.316 363.716 944.574 357.429 946.355 353.142C948.137 348.853 955.11 343.995 955.11 343.995C957.19 350.141 960.157 354.999 964.015 356.284C967.875 357.57 970.249 359.429 970.991 361.285C971.733 363.145 970.544 366.574 970.991 370.717C971.435 374.863 973.217 375.004 974.551 376.863C975.889 378.719 972.177 382.008 971.286 383.437C970.395 384.865 970.991 387.293 972.028 389.152C973.068 391.009 972.326 393.152 972.326 393.152C974.107 392.438 973.809 389.009 973.217 386.151C972.624 383.293 974.849 382.579 976.184 380.435C977.521 378.292 975.74 375.291 975.442 373.718C975.144 372.146 977.551 366.796 978.442 367.224C978.956 367.472 979.567 370.421 980.044 373.92C979.807 375.373 979.771 376.834 979.996 378.274C979.996 378.274 980.379 379.141 980.719 380.526C980.743 380.921 980.768 381.308 980.786 381.677C980.826 382.497 980.999 383.448 981.224 384.374C981.251 386.209 980.959 388.262 979.996 390.253C977.229 395.969 973.761 394.057 974.53 402.569C975.299 411.084 973.061 417.933 970.395 422.287C967.729 426.644 967.681 439.355 973.147 446.529C973.147 446.529 974.052 440.901 978.114 439.203C982.175 437.504 988.52 429.165 988.1 423.871C987.678 418.577 991.365 403.354 1000.76 401.799C1000.76 401.799 1001.37 397.111 998.795 388.918Z" fill="#8C4949"/>
<path d="M955.11 343.995C955.472 338.587 959.211 333.117 964.756 331.562C959.868 334.224 956.737 338.915 955.11 343.995Z" fill="#7A3D3D"/>
<path d="M958.825 342.853C965.841 345.502 964.61 348.805 968.595 353.505C969.942 355.297 972.143 355.739 974.076 356.644C976.538 358.116 978.201 360.916 978.116 363.715C977.84 361.366 976.429 359.112 974.471 357.727C972.155 356.298 969.799 356.462 967.924 354.067C963.89 349.297 965.501 346.346 958.825 342.853Z" fill="#7A3D3D"/>
<path d="M963.274 339.996C967.135 340.631 970.953 342.484 973.051 345.778C976.835 350.487 983.015 355.116 982.271 361.716C982.115 355.221 976.06 351.11 972.376 346.262C970.442 343.009 966.889 341.12 963.274 339.996Z" fill="#7A3D3D"/>
<path d="M963.274 335.566C969.81 334.807 976.972 336.26 981.608 341.03C983.885 343.185 985.852 345.726 986.998 348.616C987.506 349.955 987.868 351.386 987.868 352.818C987.84 353.629 987.862 354.622 987.953 355.43C988.378 359.907 989.476 364.563 988.205 369.005C989.287 363.556 987.029 358.092 987.062 352.646C986.64 347.349 982.797 342.907 978.717 339.61C974.392 336.362 968.64 335.458 963.274 335.566Z" fill="#7A3D3D"/>
<path d="M993.848 360.466C995.082 365.482 995.447 370.893 993.83 375.871C993.14 378.354 991.784 380.662 991.106 383.121C990.535 385.674 992.14 388.125 991.863 390.711C991.814 394.251 990.264 397.932 987.151 399.987C986.446 400.45 985.765 400.997 985.19 401.603C982.248 404.751 981.029 409.082 980.676 413.234C980.579 414.962 980.624 416.716 980.238 418.414C979.22 425.301 972.407 430.486 973.146 437.672C972.009 430.542 978.657 425.107 979.557 418.294C979.901 416.61 979.816 414.888 979.901 413.184C980.22 408.64 981.591 403.846 985.029 400.549C985.503 400.095 986.09 399.653 986.64 399.284C990.288 396.889 991.513 392.233 990.872 388.187C990.556 386.462 989.86 384.723 990.383 382.963C991.127 380.436 992.504 378.208 993.277 375.701C995.003 370.817 994.794 365.488 993.848 360.466Z" fill="#7A3D3D"/>
<path d="M984.575 379.354C987.292 387.851 983.921 389.066 980.629 395.921C979.966 397.367 980.03 398.814 979.896 400.377C979.151 403.282 977.932 404.011 978.115 407.536C977.556 404.76 978.331 403.241 979.145 400.729C979.349 399.355 979.063 397.903 979.522 396.547C979.58 396.284 979.732 395.886 979.82 395.628C983.109 388.387 986.204 388.586 984.575 379.354Z" fill="#7A3D3D"/>
<path d="M994.726 383.425C994.559 385.973 994.249 388.561 994.705 391.062C994.857 391.94 995.428 392.549 995.742 393.345C996.447 395.017 996.672 396.862 996.347 398.631C995.954 400.311 995.094 401.889 995.109 403.652C994.723 401.922 995.383 400.226 995.653 398.534C995.985 391.568 991.851 393.331 994.726 383.425Z" fill="#7A3D3D"/>
<path d="M988.632 405.497C986.72 407.939 984.829 410.832 984.963 413.982C985.48 418.691 985.693 424.57 983.069 428.74C984.881 424.225 984.513 419.174 984.142 414.436C983.854 410.949 986.103 407.772 988.632 405.497Z" fill="#7A3D3D"/>
<path d="M983.291 363.061C983.291 363.061 986.704 363.321 986.777 368.498C986.844 373.473 983.74 379.203 979.992 378.275C978.798 377.906 977.761 373.555 977.591 369.663C977.421 365.775 979.278 363.049 983.291 363.061Z" fill="#DE9681"/>
<path d="M980.603 374.566C979.092 367.837 982.673 365.928 982.825 365.849C983.01 365.753 983.238 365.823 983.338 365.999C983.436 366.177 983.366 366.397 983.183 366.493C983.08 366.549 981.177 367.594 981.004 370.973C982.059 369.782 983.74 369.571 983.831 369.559C984.038 369.536 984.226 369.679 984.253 369.878C984.278 370.08 984.129 370.262 983.922 370.285C983.825 370.297 981.566 370.59 981.034 372.449C981.086 373.046 981.183 373.696 981.344 374.411C981.384 374.589 981.28 374.768 981.104 374.83C981.089 374.835 981.071 374.841 981.052 374.844C980.849 374.888 980.645 374.762 980.603 374.566Z" fill="#BA6D5B"/>
<path d="M1032.66 292.99H915.258C909.975 292.99 905.691 297.113 905.691 302.199V313.519H1042.22V302.199C1042.22 297.113 1037.94 292.99 1032.66 292.99Z" fill="#8CCBFF"/>
<path d="M1033.16 302.8H1020.03C1019.23 302.8 1018.57 302.173 1018.57 301.397V301.174C1018.57 300.402 1019.23 299.775 1020.03 299.775H1033.16C1033.97 299.775 1034.62 300.402 1034.62 301.174V301.397C1034.62 302.173 1033.97 302.8 1033.16 302.8Z" fill="white"/>
<path d="M1033.16 309.35H1024.85C1024.04 309.35 1023.39 308.72 1023.39 307.947V307.725C1023.39 306.949 1024.04 306.322 1024.85 306.322H1033.16C1033.97 306.322 1034.62 306.952 1034.62 307.725V307.947C1034.62 308.72 1033.97 309.35 1033.16 309.35Z" fill="white"/>
<path d="M1032.66 528.523H915.26C909.572 528.523 904.945 524.069 904.945 518.594V302.2C904.945 296.724 909.572 292.271 915.26 292.271H1032.66C1038.35 292.271 1042.97 296.724 1042.97 302.2V518.594C1042.97 524.069 1038.35 528.523 1032.66 528.523ZM915.26 293.708C910.396 293.708 906.441 297.518 906.441 302.2V518.594C906.441 523.276 910.396 527.085 915.26 527.085H1032.66C1037.52 527.085 1041.48 523.276 1041.48 518.594V302.2C1041.48 297.518 1037.52 293.708 1032.66 293.708H915.26Z" fill="white"/>
<path d="M1000.43 297.59H947.489C944.245 297.59 941.612 295.054 941.612 291.93V290.747H1006.3V291.93C1006.3 295.054 1003.67 297.59 1000.43 297.59Z" fill="#303C72"/>
<path d="M916.438 325.662H798.284C794.487 325.662 791.407 328.628 791.407 332.286V365.291C791.407 368.951 794.487 371.915 798.284 371.915H904.403L923.314 393.767V332.286C923.314 328.628 920.235 325.662 916.438 325.662Z" fill="white"/>
<path d="M868.97 340.68H909.748C910.906 340.68 911.845 339.775 911.845 338.66V337.014C911.845 335.898 910.906 334.994 909.748 334.994H868.97C867.808 334.994 866.869 335.898 866.869 337.014V338.66C866.869 339.775 867.808 340.68 868.97 340.68Z" fill="#D4E7FF"/>
<path d="M803.55 340.68H856.141C857.302 340.68 858.242 339.775 858.242 338.66V337.014C858.242 335.898 857.302 334.994 856.141 334.994H803.55C802.391 334.994 801.452 335.898 801.452 337.014V338.66C801.452 339.775 802.391 340.68 803.55 340.68Z" fill="#D4E7FF"/>
<path d="M884.891 351.796H909.751C910.909 351.796 911.848 350.891 911.848 349.776V348.133C911.848 347.015 910.909 346.11 909.751 346.11H884.891C883.732 346.11 882.79 347.015 882.79 348.133V349.776C882.79 350.891 883.732 351.796 884.891 351.796Z" fill="#D4E7FF"/>
<path d="M860.993 351.796H872.718C873.879 351.796 874.818 350.891 874.818 349.776V348.133C874.818 347.015 873.879 346.11 872.718 346.11H860.993C859.835 346.11 858.896 347.015 858.896 348.133V349.776C858.896 350.891 859.835 351.796 860.993 351.796Z" fill="#D4E7FF"/>
<path d="M803.55 351.796H849.298C850.459 351.796 851.399 350.891 851.399 349.776V348.133C851.399 347.015 850.459 346.11 849.298 346.11H803.55C802.391 346.11 801.452 347.015 801.452 348.133V349.776C801.452 350.891 802.391 351.796 803.55 351.796Z" fill="#D4E7FF"/>
<path d="M895.68 362.913H909.751C910.909 362.913 911.849 362.009 911.849 360.89V359.247C911.849 358.129 910.909 357.224 909.751 357.224H895.68C894.521 357.224 893.582 358.129 893.582 359.247V360.89C893.582 362.009 894.521 362.913 895.68 362.913Z" fill="#D4E7FF"/>
<path d="M803.55 362.913H884.574C885.732 362.913 886.671 362.009 886.671 360.89V359.247C886.671 358.129 885.732 357.224 884.574 357.224H803.55C802.391 357.224 801.452 358.129 801.452 359.247V360.89C801.452 362.009 802.391 362.913 803.55 362.913Z" fill="#D4E7FF"/>
<path d="M884.186 372.874H798.286C793.945 372.874 790.412 369.472 790.412 365.29V332.285C790.412 328.103 793.945 324.704 798.286 324.704H894.668C895.218 324.704 895.662 325.131 895.662 325.661C895.662 326.191 895.218 326.622 894.668 326.622H798.286C795.045 326.622 792.406 329.16 792.406 332.285V365.29C792.406 368.415 795.045 370.956 798.286 370.956H884.186C884.736 370.956 885.183 371.384 885.183 371.914C885.183 372.444 884.736 372.874 884.186 372.874Z" fill="#8CCBFF"/>
<path d="M883.968 269.759H765.817C762.02 269.759 758.94 272.725 758.94 276.383V337.864L777.852 316.012H883.968C887.768 316.012 890.847 313.046 890.847 309.388V276.383C890.847 272.725 887.768 269.759 883.968 269.759Z" fill="white"/>
<path d="M837.73 284.871H772.787C771.626 284.871 770.687 283.967 770.687 282.851V281.205C770.687 280.09 771.626 279.185 772.787 279.185H837.73C838.888 279.185 839.827 280.09 839.827 281.205V282.851C839.827 283.967 838.888 284.871 837.73 284.871Z" fill="#D4E7FF"/>
<path d="M878.985 284.871H850.559C849.4 284.871 848.461 283.967 848.461 282.851V281.205C848.461 280.09 849.4 279.185 850.559 279.185H878.985C880.146 279.185 881.086 280.09 881.086 281.205V282.851C881.086 283.967 880.146 284.871 878.985 284.871Z" fill="#D4E7FF"/>
<path d="M796.842 295.985H772.787C771.629 295.985 770.687 295.08 770.687 293.965V292.319C770.687 291.204 771.629 290.299 772.787 290.299H796.842C798 290.299 798.939 291.204 798.939 292.319V293.965C798.939 295.08 798 295.985 796.842 295.985Z" fill="#D4E7FF"/>
<path d="M859.572 295.985H809.814C808.656 295.985 807.717 295.08 807.717 293.965V292.319C807.717 291.204 808.656 290.299 809.814 290.299H859.572C860.731 290.299 861.67 291.204 861.67 292.319V293.965C861.67 295.08 860.731 295.985 859.572 295.985Z" fill="#D4E7FF"/>
<path d="M878.984 295.985H871.269C870.107 295.985 869.168 295.08 869.168 293.965V292.319C869.168 291.204 870.107 290.299 871.269 290.299H878.984C880.145 290.299 881.084 291.204 881.084 292.319V293.965C881.084 295.08 880.145 295.985 878.984 295.985Z" fill="#D4E7FF"/>
<path d="M824.64 307.103H772.787C771.629 307.103 770.687 306.196 770.687 305.08V303.437C770.687 302.319 771.629 301.414 772.787 301.414H824.64C825.798 301.414 826.737 302.319 826.737 303.437V305.08C826.737 306.196 825.798 307.103 824.64 307.103Z" fill="#D4E7FF"/>
<path d="M878.985 307.103H835.747C834.586 307.103 833.646 306.196 833.646 305.08V303.437C833.646 302.319 834.586 301.414 835.747 301.414H878.985C880.146 301.414 881.085 302.319 881.085 303.437V305.08C881.085 306.196 880.146 307.103 878.985 307.103Z" fill="#D4E7FF"/>
<path d="M883.968 316.968H791.41C790.86 316.968 790.413 316.54 790.413 316.01C790.413 315.48 790.86 315.05 791.41 315.05H883.968C887.212 315.05 889.85 312.511 889.85 309.387V276.381C889.85 273.257 887.212 270.715 883.968 270.715H765.817C762.576 270.715 759.938 273.257 759.938 276.381V282.027C759.938 282.557 759.491 282.987 758.94 282.987C758.39 282.987 757.943 282.557 757.943 282.027V276.381C757.943 272.2 761.476 268.797 765.817 268.797H883.968C888.312 268.797 891.845 272.2 891.845 276.381V309.387C891.845 313.568 888.312 316.968 883.968 316.968Z" fill="#8CCBFF"/>
</svg>
